<svg xmlns="http://www.w3.org/2000/svg" viewBox="0 0 94.27 98.26"><defs><style>.cls-1{fill:#fff;}</style></defs><title>Asset 2</title><g id="Layer_2" data-name="Layer 2"><g id="OBJECTS"><g id="_7" data-name="7"><path class="cls-1" d="M47.75,98.26a21.47,21.47,0,0,1-3.41-1.07,13.36,13.36,0,0,1-3.4-2.34Q22.16,76.13,3.44,57.32A11.36,11.36,0,0,1,.13,50.75,2.84,2.84,0,0,0,0,50.37V47.92c.17-.71.31-1.42.51-2.11a11.44,11.44,0,0,1,3-4.89q18.7-18.74,37.4-37.45A10.83,10.83,0,0,1,52.28.55a10.89,10.89,0,0,1,7.94,8.78A11,11,0,0,1,57,19.73q-8.37,8.41-16.77,16.8c-.33.33-.71.63-1.06.95a1.8,1.8,0,0,0,.08.21H82.64a11.41,11.41,0,0,1,11,7.79c.26.79.4,1.62.6,2.43v2.46c-.2.79-.33,1.6-.59,2.37a11.35,11.35,0,0,1-11,7.85H39.07l.61.64q8.63,8.64,17.25,17.28a11.47,11.47,0,0,1-6.14,19.59c-.2,0-.39.1-.59.15Zm-15-40.15.09-.19H80.08c1.14,0,2.28,0,3.41-.06a8.25,8.25,0,0,0,7.39-5.3,8.41,8.41,0,0,0-1.4-9.13,8.7,8.7,0,0,0-7.06-3.08q-24.32,0-48.64,0H32.63c.3-.32.46-.5.63-.67l15.9-15.93c2.06-2.06,4.14-4.09,6.16-6.19A8.74,8.74,0,0,0,51.68,3.16a8.49,8.49,0,0,0-9.07,2.33l-37,37.13a8.79,8.79,0,0,0,0,13L33.63,83.79q4.56,4.58,9.11,9.13a8.52,8.52,0,0,0,8.19,2.42A8.69,8.69,0,0,0,57.72,86a8.81,8.81,0,0,0-2.66-5.53L33.82,59.14Z"/><path class="cls-1" d="M32.74,58.11l1.08,1L55.06,80.43A8.81,8.81,0,0,1,57.72,86a8.69,8.69,0,0,1-6.79,9.38,8.52,8.52,0,0,1-8.19-2.42q-4.56-4.55-9.11-9.13L5.54,55.65a8.79,8.79,0,0,1,0-13L42.61,5.49a8.49,8.49,0,0,1,9.07-2.33,8.74,8.74,0,0,1,3.64,14.41c-2,2.1-4.1,4.13-6.16,6.19L33.26,39.69c-.17.17-.33.35-.63.67h1.15q24.33,0,48.64,0a8.7,8.7,0,0,1,7.06,3.08,8.41,8.41,0,0,1,1.4,9.13,8.25,8.25,0,0,1-7.39,5.3c-1.13.1-2.27.06-3.41.06H32.83Z"/></g></g></g></svg>