<svg xmlns="http://www.w3.org/2000/svg" xmlns:xlink="http://www.w3.org/1999/xlink" viewBox="0 0 644.6 644"><defs><style>.cls-1{isolation:isolate;}.cls-2{fill:#fff;}.cls-2,.cls-3{opacity:0.6;}.cls-3{fill:url(#radial-gradient);}.cls-4{fill:#4e4c4f;}.cls-5{fill:#3c3b3d;}.cls-6{fill:#e7e8ed;}.cls-7{fill:#282729;}.cls-8{fill:#4a4e4f;}.cls-9{font-size:14.03px;font-family:MyriadPro-Regular, Myriad Pro;}.cls-10{mix-blend-mode:multiply;}.cls-11{fill:#b3b3b3;}.cls-12{font-size:11.06px;letter-spacing:0.01em;}.cls-12,.cls-13{stroke:#231f20;stroke-miterlimit:10;stroke-width:0.75px;font-family:MicrosoftJhengHeiRegular, Microsoft JhengHei;}.cls-13{font-size:11.39px;letter-spacing:0.01em;}.cls-14{fill:#302f30;}.cls-15{fill:#787878;}.cls-16{fill:#50c0d8;}.cls-17{fill:#424242;}</style><radialGradient id="radial-gradient" cx="322.6" cy="322" r="322" gradientUnits="userSpaceOnUse"><stop offset="0" stop-color="#c8922d" stop-opacity="0.5"/><stop offset="1" stop-color="#c99126"/></radialGradient></defs><title>Asset 14</title><g class="cls-1"><g id="Layer_2" data-name="Layer 2"><g id="objects"><circle class="cls-2" cx="322" cy="322" r="322"/><circle class="cls-3" cx="322.6" cy="322" r="322"/><rect class="cls-4" x="295.1" y="306.45" width="56.67" height="56.67" rx="2.88" ry="2.88" transform="translate(-44.05 620.53) rotate(-83.85)"/><rect class="cls-5" x="307.37" y="318.72" width="32.14" height="32.14" rx="2.71" ry="2.71" transform="translate(-44.05 620.53) rotate(-83.85)"/><rect class="cls-6" x="308.56" y="319.92" width="29.75" height="29.75" rx="1.51" ry="1.51" transform="translate(-44.05 620.53) rotate(-83.85)"/><path class="cls-7" d="M302.94,300.67l-.86,8Z"/><path class="cls-8" d="M302,309.59a1,1,0,0,1-.85-1.06l.86-8a1,1,0,0,1,1.05-.85,1,1,0,0,1,.86,1.06l-.86,8A1,1,0,0,1,302,309.59Z"/><path class="cls-7" d="M307.72,301.18l-.86,8Z"/><path class="cls-8" d="M306.76,310.1a1,1,0,0,1-.85-1.06l.85-8a1,1,0,0,1,1.92.2l-.86,8A1,1,0,0,1,306.76,310.1Z"/><path class="cls-7" d="M312.5,301.7l-.86,8Z"/><path class="cls-8" d="M311.54,310.62a1,1,0,0,1-.85-1.06l.85-8a1,1,0,1,1,1.91.21l-.85,8A1,1,0,0,1,311.54,310.62Z"/><path class="cls-7" d="M317.28,302.21l-.86,8Z"/><path class="cls-8" d="M316.32,311.13a1,1,0,0,1-.86-1.06l.86-8a1,1,0,1,1,1.91.2l-.85,8A1,1,0,0,1,316.32,311.13Z"/><path class="cls-7" d="M322.06,302.72l-.86,8Z"/><path class="cls-8" d="M321.1,311.64a1,1,0,0,1-.86-1.05l.86-8a1,1,0,1,1,1.91.21l-.86,8A1,1,0,0,1,321.1,311.64Z"/><path class="cls-7" d="M326.83,303.24l-.85,8Z"/><path class="cls-8" d="M325.87,312.16a1,1,0,0,1-.85-1.06l.86-8a1,1,0,0,1,1.06-.86,1,1,0,0,1,.85,1.06l-.86,8A1,1,0,0,1,325.87,312.16Z"/><path class="cls-7" d="M331.61,303.75l-.85,8Z"/><path class="cls-8" d="M330.65,312.67a1,1,0,0,1-.85-1.05l.86-8a1,1,0,0,1,1.06-.85,1,1,0,0,1,.85,1.06l-.86,8A1,1,0,0,1,330.65,312.67Z"/><path class="cls-7" d="M336.39,304.27l-.86,8Z"/><path class="cls-8" d="M335.43,313.19a1,1,0,0,1-.85-1.06l.86-8a1,1,0,1,1,1.91.2l-.86,8A1,1,0,0,1,335.43,313.19Z"/><path class="cls-7" d="M341.17,304.78l-.86,8Z"/><path class="cls-8" d="M340.21,313.7a1,1,0,0,1-.85-1.06l.86-8a1,1,0,0,1,1-.85,1,1,0,0,1,.86,1.06l-.86,8A1,1,0,0,1,340.21,313.7Z"/><path class="cls-7" d="M346,305.3l-.86,8Z"/><path class="cls-8" d="M345,314.22a1,1,0,0,1-.85-1.06l.85-8a1,1,0,0,1,1.92.21l-.86,8A1,1,0,0,1,345,314.22Z"/><path class="cls-7" d="M350.73,305.81l-.86,8Z"/><path class="cls-8" d="M349.77,314.73a1,1,0,0,1-.86-1.06l.86-8a1,1,0,0,1,1.91.21l-.85,8A1,1,0,0,1,349.77,314.73Z"/><path class="cls-7" d="M297,355.83l-.86,8Z"/><path class="cls-8" d="M296,364.75a1,1,0,0,1-.85-1.05l.86-8a1,1,0,0,1,1.05-.85,1,1,0,0,1,.86,1.06l-.86,8A1,1,0,0,1,296,364.75Z"/><path class="cls-7" d="M301.78,356.35l-.86,8Z"/><path class="cls-8" d="M300.82,365.27a1,1,0,0,1-.85-1.06l.85-8a1,1,0,1,1,1.92.2l-.86,8A1,1,0,0,1,300.82,365.27Z"/><path class="cls-7" d="M306.56,356.86l-.86,8Z"/><path class="cls-8" d="M305.6,365.78a1,1,0,0,1-.85-1.06l.85-8a1,1,0,1,1,1.91.21l-.85,8A1,1,0,0,1,305.6,365.78Z"/><path class="cls-7" d="M311.34,357.38l-.86,8Z"/><path class="cls-8" d="M310.38,366.3a1,1,0,0,1-.86-1.06l.86-8a1,1,0,0,1,1.06-.86,1,1,0,0,1,.85,1.06l-.85,8A1,1,0,0,1,310.38,366.3Z"/><path class="cls-7" d="M316.12,357.89l-.86,8Z"/><path class="cls-8" d="M315.16,366.81a1,1,0,0,1-.86-1.06l.86-8a1,1,0,1,1,1.91.21l-.86,8A1,1,0,0,1,315.16,366.81Z"/><path class="cls-7" d="M320.89,358.41l-.85,8Z"/><path class="cls-8" d="M319.93,367.33a1,1,0,0,1-.85-1.06l.86-8a1,1,0,0,1,1.91.21l-.86,8A1,1,0,0,1,319.93,367.33Z"/><path class="cls-7" d="M325.67,358.92l-.85,8Z"/><path class="cls-8" d="M324.71,367.84a1,1,0,0,1-.85-1.06l.86-8a1,1,0,0,1,1.91.2l-.86,8A1,1,0,0,1,324.71,367.84Z"/><path class="cls-7" d="M330.45,359.44l-.86,8Z"/><path class="cls-8" d="M329.49,368.36a1,1,0,0,1-.85-1.06l.86-8a1,1,0,0,1,1.05-.85,1,1,0,0,1,.86,1.06l-.86,8A1,1,0,0,1,329.49,368.36Z"/><path class="cls-7" d="M335.23,360l-.86,8Z"/><path class="cls-8" d="M334.27,368.87a1,1,0,0,1-.85-1.06l.85-8a1,1,0,1,1,1.92.2l-.86,8A1,1,0,0,1,334.27,368.87Z"/><path class="cls-7" d="M340,360.47l-.86,8Z"/><path class="cls-8" d="M339.05,369.39a1,1,0,0,1-.85-1.06l.85-8a1,1,0,1,1,1.91.21l-.85,8A1,1,0,0,1,339.05,369.39Z"/><path class="cls-7" d="M344.79,361l-.86,8Z"/><path class="cls-8" d="M343.83,369.9a1,1,0,0,1-.86-1.06l.86-8a1,1,0,0,1,1.06-.86,1,1,0,0,1,.85,1.06l-.85,8A1,1,0,0,1,343.83,369.9Z"/><path class="cls-7" d="M357.42,314.28l-8-.86Z"/><path class="cls-8" d="M357.32,315.23l-8-.86a1,1,0,0,1-.85-1.05,1,1,0,0,1,1.06-.86l8,.86a1,1,0,0,1-.2,1.91Z"/><path class="cls-7" d="M356.9,319.06l-8-.86Z"/><path class="cls-8" d="M356.8,320l-8-.86a1,1,0,0,1-.86-1.06,1,1,0,0,1,1.06-.85l8,.86a1,1,0,1,1-.21,1.91Z"/><path class="cls-7" d="M356.39,323.83l-8-.85Z"/><path class="cls-8" d="M356.29,324.79l-8-.86a1,1,0,1,1,.21-1.91l8,.86a1,1,0,1,1-.2,1.91Z"/><path class="cls-7" d="M355.88,328.61l-8-.85Z"/><path class="cls-8" d="M355.77,329.57l-8-.86a1,1,0,0,1,.2-1.91l8,.86a1,1,0,0,1,.85,1.06A1,1,0,0,1,355.77,329.57Z"/><path class="cls-7" d="M355.36,333.39l-8-.86Z"/><path class="cls-8" d="M355.26,334.35l-8-.86a1,1,0,0,1,.21-1.91l8,.86a1,1,0,1,1-.2,1.91Z"/><path class="cls-7" d="M354.85,338.17l-8-.86Z"/><path class="cls-8" d="M354.74,339.13l-8-.86a1,1,0,1,1,.21-1.91l8,.85a1,1,0,0,1-.21,1.92Z"/><path class="cls-7" d="M354.33,343l-8-.86Z"/><path class="cls-8" d="M354.23,343.9l-8-.85a1,1,0,0,1-.85-1.06,1,1,0,0,1,1.06-.85l8,.85a1,1,0,0,1,.86,1.06A1,1,0,0,1,354.23,343.9Z"/><path class="cls-7" d="M353.82,347.73l-8-.86Z"/><path class="cls-8" d="M353.71,348.68l-8-.85a1,1,0,0,1,.21-1.92l8,.86a1,1,0,0,1-.21,1.91Z"/><path class="cls-7" d="M353.3,352.51l-8-.86Z"/><path class="cls-8" d="M353.2,353.46l-8-.86a1,1,0,1,1,.2-1.91l8,.86a1,1,0,0,1-.21,1.91Z"/><path class="cls-7" d="M352.79,357.28l-8-.85Z"/><path class="cls-8" d="M352.69,358.24l-8-.86a1,1,0,0,1-.85-1.06,1,1,0,0,1,1.06-.85l8,.86a1,1,0,0,1-.2,1.91Z"/><path class="cls-7" d="M352.27,362.06l-8-.85Z"/><path class="cls-8" d="M352.17,363l-8-.86a1,1,0,1,1,.2-1.91l8,.86a1,1,0,1,1-.21,1.91Z"/><path class="cls-7" d="M302.07,308.32l-8-.86Z"/><path class="cls-8" d="M302,309.27l-8-.85a1,1,0,0,1,.21-1.92l8,.86a1,1,0,0,1,.86,1.06A1,1,0,0,1,302,309.27Z"/><path class="cls-7" d="M301.56,313.1l-8-.86Z"/><path class="cls-8" d="M301.45,314.05l-8-.86a1,1,0,0,1-.85-1.06,1,1,0,0,1,1.05-.85l8,.86a1,1,0,0,1-.21,1.91Z"/><path class="cls-7" d="M301,317.87l-8-.85Z"/><path class="cls-8" d="M300.94,318.83l-8-.86a1,1,0,0,1,.21-1.91l8,.86A1,1,0,0,1,302,318,1,1,0,0,1,300.94,318.83Z"/><path class="cls-7" d="M300.53,322.65l-8-.85Z"/><path class="cls-8" d="M300.42,323.61l-8-.86a1,1,0,1,1,.21-1.91l8,.86a1,1,0,1,1-.21,1.91Z"/><path class="cls-7" d="M300,327.43l-8-.86Z"/><path class="cls-8" d="M299.91,328.39l-8-.86a1,1,0,0,1-.86-1.06,1,1,0,0,1,1.06-.85l8,.86a1,1,0,0,1,.85,1A1,1,0,0,1,299.91,328.39Z"/><path class="cls-7" d="M299.5,332.21l-8-.86Z"/><path class="cls-8" d="M299.39,333.17l-8-.86a1,1,0,0,1,.21-1.91l8,.85a1,1,0,0,1-.21,1.92Z"/><path class="cls-7" d="M299,337l-8-.86Z"/><path class="cls-8" d="M298.88,337.94l-8-.85a1,1,0,0,1-.86-1.06,1,1,0,0,1,1.06-.85l8,.85a1,1,0,1,1-.21,1.91Z"/><path class="cls-7" d="M298.47,341.77l-8-.86Z"/><path class="cls-8" d="M298.37,342.72l-8-.85a1,1,0,0,1-.85-1.06,1,1,0,0,1,1.06-.86l8,.86a1,1,0,0,1-.2,1.91Z"/><path class="cls-7" d="M298,346.55l-8-.86Z"/><path class="cls-8" d="M297.85,347.5l-8-.86a1,1,0,0,1-.86-1.05,1,1,0,0,1,1.06-.86l8,.86a1,1,0,1,1-.21,1.91Z"/><path class="cls-7" d="M297.44,351.33l-8-.86Z"/><path class="cls-8" d="M297.34,352.28l-8-.86a1,1,0,0,1-.85-1.06,1,1,0,0,1,1.06-.85l8,.86a1,1,0,1,1-.2,1.91Z"/><path class="cls-7" d="M296.92,356.1l-8-.85Z"/><path class="cls-8" d="M296.82,357.06l-8-.86a1,1,0,0,1,.2-1.91l8,.86a1,1,0,0,1,.85,1.06A1,1,0,0,1,296.82,357.06Z"/><text class="cls-9" transform="matrix(0.99, 0.11, -0.11, 0.99, 310.93, 337.31)">CPU</text><g class="cls-10"><path class="cls-11" d="M406.78,170.71a1,1,0,1,0,.59-1.89l-3.19-1,.89-2.83,3.18,1a1,1,0,0,0,1.24-.65,1,1,0,0,0-.65-1.23l-3.18-1,.14-.45a3,3,0,0,0-1.94-3.71l-.45-.14,1-3.32a1,1,0,1,0-1.88-.59l-1,3.32-2.83-.88,1-3.33a1,1,0,1,0-1.88-.59l-1,3.33-2.82-.89,1-3.32a1,1,0,0,0-.65-1.24,1,1,0,0,0-1.23.65l-1.05,3.32-2.82-.88,1-3.33a1,1,0,1,0-1.88-.59l-1,3.33-2.83-.89,1-3.32a1,1,0,0,0-.64-1.24,1,1,0,0,0-1.24.65l-1,3.32-2.82-.88,1-3.33a1,1,0,0,0-.65-1.24,1,1,0,0,0-1.23.65L378,150.86l-2.82-.89,1-3.32a1,1,0,1,0-1.88-.59l-1,3.32-2.83-.88,1.05-3.33a1,1,0,0,0-1.89-.59l-1,3.33-2.82-.89,1-3.32a1,1,0,0,0-.65-1.24,1,1,0,0,0-1.23.65l-1.05,3.32-2.82-.88,1-3.33a1,1,0,1,0-1.88-.59l-1,3.33-2.83-.89,1.05-3.32a1,1,0,1,0-1.89-.59l-1,3.32-.45-.14a3,3,0,0,0-3.71,1.94l-.14.45-3.67-1.15a1,1,0,0,0-1.24.64,1,1,0,0,0,.65,1.24l3.67,1.15-.88,2.83L345,149.28a1,1,0,0,0-.59,1.89l3.68,1.15-.89,2.82L343.54,154a1,1,0,0,0-1.24.65,1,1,0,0,0,.65,1.23l3.67,1.15-.88,2.83-3.68-1.15a1,1,0,0,0-1.23.64,1,1,0,0,0,.64,1.24l3.68,1.15-.89,2.83-3.67-1.16a1,1,0,0,0-.59,1.89l3.67,1.15-.88,2.82-3.68-1.15a1,1,0,0,0-1.23.65,1,1,0,0,0,.64,1.23l3.68,1.15-.89,2.83-3.67-1.15a1,1,0,0,0-1.24.64,1,1,0,0,0,.65,1.24l3.67,1.15-.88,2.82-3.68-1.15a1,1,0,0,0-.59,1.89l3.68,1.15-.89,2.82-3.67-1.15a1,1,0,0,0-1.24.65,1,1,0,0,0,.65,1.23l3.67,1.15-.88,2.83-3.68-1.15a1,1,0,0,0-1.23.64,1,1,0,0,0,.64,1.24L336.3,190l-.89,2.82-3.67-1.15a1,1,0,0,0-1.24.65,1,1,0,0,0,.65,1.23l3.67,1.16-.14.45a3,3,0,0,0,1.94,3.7l.45.14L336,202.33a1,1,0,0,0,.64,1.24,1,1,0,0,0,1.24-.65l1.05-3.36,2.83.89-1.06,3.36a1,1,0,0,0,1.89.59l1.05-3.36,2.82.88-1.05,3.36a1,1,0,0,0,.65,1.24,1,1,0,0,0,1.23-.65l1.06-3.36,2.82.89-1.05,3.36a1,1,0,1,0,1.88.59l1.05-3.36,2.83.88-1.06,3.36a1,1,0,0,0,1.89.59l1-3.36,2.82.89-1.05,3.36a1,1,0,0,0,.65,1.24,1,1,0,0,0,1.23-.65l1.06-3.36,2.82.88-1.05,3.36a1,1,0,0,0,.64,1.24,1,1,0,0,0,1.24-.65l1.05-3.36,2.83.89L369,212.66a1,1,0,0,0,1.89.59l1-3.36,2.82.88-1.05,3.36a1,1,0,0,0,.65,1.24,1,1,0,0,0,1.23-.65l1.06-3.36,2.82.89-1.05,3.36a1,1,0,1,0,1.88.59l1.05-3.36,2.83.88-1.06,3.36a1,1,0,0,0,1.89.59l1-3.36.45.14a3,3,0,0,0,3.71-1.93l.14-.45,3.18,1a1,1,0,1,0,.59-1.89l-3.18-1,.88-2.82,3.19,1a1,1,0,0,0,1.24-.65,1,1,0,0,0-.65-1.23l-3.19-1,.89-2.83,3.18,1a1,1,0,0,0,1.24-.64,1,1,0,0,0-.65-1.24l-3.18-1,.88-2.82,3.19,1a1,1,0,0,0,.59-1.89l-3.19-1,.89-2.82,3.18,1a1,1,0,0,0,1.24-.65,1,1,0,0,0-.65-1.23l-3.18-1,.88-2.83,3.19,1a1,1,0,1,0,.59-1.88l-3.19-1,.89-2.82,3.18,1a1,1,0,1,0,.59-1.89l-3.18-1,.88-2.83,3.19,1a1,1,0,0,0,1.24-.65,1,1,0,0,0-.65-1.23l-3.19-1,.89-2.83,3.18,1a1,1,0,0,0,1.24-.64,1,1,0,0,0-.65-1.24l-3.18-1,.88-2.82Z"/></g><rect class="cls-4" x="341.16" y="149.82" width="58.15" height="58.15" rx="2.96" ry="2.96" transform="matrix(0.3, -0.95, 0.95, 0.3, 88.81, 478.7)"/><rect class="cls-5" x="354.13" y="162.53" width="32.98" height="32.98" rx="2.78" ry="2.78" transform="translate(88.97 479.15) rotate(-72.6)"/><rect class="cls-6" x="354.98" y="163.64" width="30.52" height="30.53" rx="1.55" ry="1.55" transform="translate(88.81 478.7) rotate(-72.6)"/><text class="cls-12" transform="translate(358.88 178.87) rotate(17.4)">CPU</text><path class="cls-7" d="M356.44,140.45,354,148.29Z"/><path class="cls-8" d="M353.69,149.24A1,1,0,0,1,353,148l2.46-7.84a1,1,0,1,1,1.89.59l-2.46,7.84A1,1,0,0,1,353.69,149.24Z"/><path class="cls-7" d="M361.15,141.93l-2.46,7.84Z"/><path class="cls-8" d="M358.4,150.71a1,1,0,0,1-.65-1.24l2.46-7.84a1,1,0,1,1,1.88.59l-2.46,7.84A1,1,0,0,1,358.4,150.71Z"/><path class="cls-7" d="M365.86,143.4l-2.46,7.84Z"/><path class="cls-8" d="M363.1,152.19a1,1,0,0,1-.64-1.24l2.46-7.84a1,1,0,0,1,1.23-.65,1,1,0,0,1,.65,1.24l-2.46,7.84A1,1,0,0,1,363.1,152.19Z"/><path class="cls-7" d="M370.56,144.88l-2.45,7.84Z"/><path class="cls-8" d="M367.81,153.66a1,1,0,0,1-.65-1.24l2.46-7.84a1,1,0,0,1,1.89.59L369.05,153A1,1,0,0,1,367.81,153.66Z"/><path class="cls-7" d="M375.27,146.35l-2.46,7.84Z"/><path class="cls-8" d="M372.52,155.14a1,1,0,0,1-.65-1.24l2.46-7.84a1,1,0,1,1,1.88.59l-2.46,7.84A1,1,0,0,1,372.52,155.14Z"/><path class="cls-7" d="M380,147.83l-2.46,7.84Z"/><path class="cls-8" d="M377.22,156.61a1,1,0,0,1-.64-1.24l2.46-7.84a1,1,0,0,1,1.23-.65,1,1,0,0,1,.65,1.24L378.46,156A1,1,0,0,1,377.22,156.61Z"/><path class="cls-7" d="M384.68,149.3l-2.45,7.84Z"/><path class="cls-8" d="M381.93,158.09a1,1,0,0,1-.65-1.24l2.46-7.84a1,1,0,0,1,1.24-.65,1,1,0,0,1,.64,1.24l-2.45,7.84A1,1,0,0,1,381.93,158.09Z"/><path class="cls-7" d="M389.39,150.78l-2.46,7.84Z"/><path class="cls-8" d="M386.64,159.56a1,1,0,0,1-.65-1.24l2.46-7.84a1,1,0,1,1,1.88.59l-2.46,7.84A1,1,0,0,1,386.64,159.56Z"/><path class="cls-7" d="M394.1,152.25l-2.46,7.84Z"/><path class="cls-8" d="M391.34,161a1,1,0,0,1-.64-1.24l2.46-7.84a1,1,0,0,1,1.23-.65,1,1,0,0,1,.65,1.24l-2.46,7.84A1,1,0,0,1,391.34,161Z"/><path class="cls-7" d="M398.8,153.73l-2.45,7.84Z"/><path class="cls-8" d="M396.05,162.51a1,1,0,0,1-.65-1.24l2.46-7.84a1,1,0,1,1,1.88.59l-2.45,7.84A1,1,0,0,1,396.05,162.51Z"/><path class="cls-7" d="M403.51,155.2,401.05,163Z"/><path class="cls-8" d="M400.76,164a1,1,0,0,1-.65-1.24l2.46-7.84a1,1,0,1,1,1.88.59L402,163.34A1,1,0,0,1,400.76,164Z"/><path class="cls-7" d="M339.42,194.79,337,202.63Z"/><path class="cls-8" d="M336.66,203.57a1,1,0,0,1-.64-1.24l2.46-7.84a1,1,0,0,1,1.23-.65,1,1,0,0,1,.65,1.24l-2.46,7.84A1,1,0,0,1,336.66,203.57Z"/><path class="cls-7" d="M344.12,196.26l-2.45,7.84Z"/><path class="cls-8" d="M341.37,205.05a1,1,0,0,1-.65-1.24l2.46-7.84a1,1,0,0,1,1.24-.65,1,1,0,0,1,.64,1.24l-2.45,7.84A1,1,0,0,1,341.37,205.05Z"/><path class="cls-7" d="M348.83,197.74l-2.46,7.84Z"/><path class="cls-8" d="M346.08,206.52a1,1,0,0,1-.65-1.24l2.46-7.84a1,1,0,0,1,1.23-.65,1,1,0,0,1,.65,1.24l-2.46,7.84A1,1,0,0,1,346.08,206.52Z"/><path class="cls-7" d="M353.54,199.21l-2.46,7.84Z"/><path class="cls-8" d="M350.78,208a1,1,0,0,1-.64-1.24l2.46-7.84a1,1,0,0,1,1.23-.65,1,1,0,0,1,.65,1.24L352,207.35A1,1,0,0,1,350.78,208Z"/><path class="cls-7" d="M358.24,200.69l-2.45,7.84Z"/><path class="cls-8" d="M355.49,209.47a1,1,0,0,1-.65-1.24l2.46-7.84a1,1,0,1,1,1.88.59l-2.45,7.84A1,1,0,0,1,355.49,209.47Z"/><path class="cls-7" d="M363,202.16,360.49,210Z"/><path class="cls-8" d="M360.2,211a1,1,0,0,1-.65-1.24l2.46-7.84a1,1,0,0,1,1.23-.65,1,1,0,0,1,.65,1.24l-2.46,7.84A1,1,0,0,1,360.2,211Z"/><path class="cls-7" d="M367.66,203.64l-2.46,7.84Z"/><path class="cls-8" d="M364.9,212.42a1,1,0,0,1-.64-1.24l2.45-7.84a1,1,0,1,1,1.89.59l-2.46,7.84A1,1,0,0,1,364.9,212.42Z"/><path class="cls-7" d="M372.36,205.11,369.9,213Z"/><path class="cls-8" d="M369.61,213.9a1,1,0,0,1-.65-1.24l2.46-7.84a1,1,0,0,1,1.24-.65,1,1,0,0,1,.64,1.24l-2.45,7.84A1,1,0,0,1,369.61,213.9Z"/><path class="cls-7" d="M377.07,206.59l-2.46,7.84Z"/><path class="cls-8" d="M374.32,215.37a1,1,0,0,1-.65-1.24l2.46-7.84a1,1,0,0,1,1.23-.65,1,1,0,0,1,.65,1.24l-2.46,7.84A1,1,0,0,1,374.32,215.37Z"/><path class="cls-7" d="M381.78,208.06l-2.46,7.84Z"/><path class="cls-8" d="M379,216.85a1,1,0,0,1-.64-1.24l2.45-7.84a1,1,0,0,1,1.24-.65,1,1,0,0,1,.65,1.23l-2.46,7.85A1,1,0,0,1,379,216.85Z"/><path class="cls-7" d="M386.48,209.53,384,217.38Z"/><path class="cls-8" d="M383.73,218.32a1,1,0,0,1-.65-1.24l2.46-7.84a1,1,0,1,1,1.88.59L385,217.67A1,1,0,0,1,383.73,218.32Z"/><path class="cls-7" d="M408.55,165.06l-7.85-2.46Z"/><path class="cls-8" d="M408.25,166l-7.84-2.46a1,1,0,0,1-.65-1.23,1,1,0,0,1,1.24-.65l7.84,2.46a1,1,0,0,1,.65,1.23A1,1,0,0,1,408.25,166Z"/><path class="cls-7" d="M407.07,169.77l-7.84-2.46Z"/><path class="cls-8" d="M406.78,170.71l-7.85-2.46a1,1,0,0,1-.64-1.24,1,1,0,0,1,1.23-.64l7.85,2.45a1,1,0,1,1-.59,1.89Z"/><path class="cls-7" d="M405.6,174.47,397.75,172Z"/><path class="cls-8" d="M405.3,175.41,397.46,173a1,1,0,0,1,.59-1.89l7.84,2.46a1,1,0,0,1,.65,1.24A1,1,0,0,1,405.3,175.41Z"/><path class="cls-7" d="M404.12,179.18l-7.84-2.46Z"/><path class="cls-8" d="M403.83,180.12,396,177.66a1,1,0,0,1-.65-1.23,1,1,0,0,1,1.24-.65l7.84,2.46a1,1,0,0,1,.65,1.23A1,1,0,0,1,403.83,180.12Z"/><path class="cls-7" d="M402.65,183.89l-7.85-2.46Z"/><path class="cls-8" d="M402.35,184.83l-7.84-2.46a1,1,0,1,1,.59-1.88l7.84,2.45a1,1,0,1,1-.59,1.89Z"/><path class="cls-7" d="M401.17,188.59l-7.84-2.46Z"/><path class="cls-8" d="M400.88,189.53,393,187.08a1,1,0,1,1,.59-1.89l7.84,2.46a1,1,0,1,1-.59,1.88Z"/><path class="cls-7" d="M399.7,193.3l-7.84-2.46Z"/><path class="cls-8" d="M399.4,194.24l-7.84-2.46a1,1,0,0,1-.65-1.23,1,1,0,0,1,1.24-.65l7.84,2.46a1,1,0,0,1,.65,1.23A1,1,0,0,1,399.4,194.24Z"/><path class="cls-7" d="M398.22,198l-7.84-2.46Z"/><path class="cls-8" d="M397.93,199l-7.84-2.46a1,1,0,0,1-.65-1.24,1,1,0,0,1,1.24-.64l7.84,2.45a1,1,0,0,1-.59,1.89Z"/><path class="cls-7" d="M396.75,202.71l-7.84-2.46Z"/><path class="cls-8" d="M396.45,203.65l-7.84-2.46A1,1,0,0,1,388,200a1,1,0,0,1,1.24-.65l7.84,2.46a1,1,0,0,1,.65,1.24A1,1,0,0,1,396.45,203.65Z"/><path class="cls-7" d="M395.27,207.42,387.43,205Z"/><path class="cls-8" d="M395,208.36l-7.84-2.46a1,1,0,0,1-.65-1.23,1,1,0,0,1,1.24-.65l7.84,2.46a1,1,0,0,1,.65,1.23A1,1,0,0,1,395,208.36Z"/><path class="cls-7" d="M393.8,212.12,386,209.67Z"/><path class="cls-8" d="M393.5,213.07l-7.84-2.46a1,1,0,0,1-.65-1.24,1,1,0,0,1,1.24-.64l7.84,2.45a1,1,0,1,1-.59,1.89Z"/><path class="cls-7" d="M354,148l-7.85-2.46Z"/><path class="cls-8" d="M353.74,148.92l-7.84-2.46a1,1,0,0,1-.65-1.24,1,1,0,0,1,1.24-.64l7.84,2.45a1,1,0,0,1-.59,1.89Z"/><path class="cls-7" d="M352.56,152.68l-7.84-2.46Z"/><path class="cls-8" d="M352.27,153.62l-7.85-2.45a1,1,0,0,1,.59-1.89l7.85,2.46a1,1,0,0,1,.64,1.24A1,1,0,0,1,352.27,153.62Z"/><path class="cls-7" d="M351.09,157.39l-7.85-2.46Z"/><path class="cls-8" d="M350.79,158.33,343,155.87a1,1,0,0,1-.65-1.23,1,1,0,0,1,1.24-.65l7.84,2.46a1,1,0,0,1,.65,1.23A1,1,0,0,1,350.79,158.33Z"/><path class="cls-7" d="M349.61,162.1l-7.84-2.46Z"/><path class="cls-8" d="M349.32,163l-7.85-2.46a1,1,0,0,1-.64-1.24,1,1,0,0,1,1.23-.64l7.85,2.45a1,1,0,0,1-.59,1.89Z"/><path class="cls-7" d="M348.14,166.8l-7.85-2.46Z"/><path class="cls-8" d="M347.84,167.74,340,165.29a1,1,0,0,1,.59-1.89l7.84,2.46a1,1,0,1,1-.59,1.88Z"/><path class="cls-7" d="M346.66,171.51l-7.84-2.46Z"/><path class="cls-8" d="M346.37,172.45,338.52,170a1,1,0,0,1-.64-1.23,1,1,0,0,1,1.23-.65l7.85,2.46a1,1,0,0,1,.64,1.23A1,1,0,0,1,346.37,172.45Z"/><path class="cls-7" d="M345.19,176.22l-7.85-2.46Z"/><path class="cls-8" d="M344.89,177.16l-7.84-2.46a1,1,0,0,1-.65-1.24,1,1,0,0,1,1.24-.64l7.84,2.45a1,1,0,1,1-.59,1.89Z"/><path class="cls-7" d="M343.71,180.92l-7.84-2.46Z"/><path class="cls-8" d="M343.42,181.86l-7.85-2.45a1,1,0,0,1,.59-1.89L344,180a1,1,0,0,1,.64,1.24A1,1,0,0,1,343.42,181.86Z"/><path class="cls-7" d="M342.24,185.63l-7.85-2.46Z"/><path class="cls-8" d="M341.94,186.57l-7.84-2.46a1,1,0,0,1-.65-1.23,1,1,0,0,1,1.24-.65l7.84,2.46a1,1,0,0,1,.65,1.23A1,1,0,0,1,341.94,186.57Z"/><path class="cls-7" d="M340.76,190.34l-7.84-2.46Z"/><path class="cls-8" d="M340.47,191.28l-7.85-2.46a1,1,0,0,1-.64-1.24,1,1,0,0,1,1.23-.64l7.85,2.45a1,1,0,0,1-.59,1.89Z"/><path class="cls-7" d="M339.29,195l-7.85-2.46Z"/><path class="cls-8" d="M339,196l-7.84-2.46a1,1,0,0,1-.65-1.23,1,1,0,0,1,1.24-.65l7.84,2.46A1,1,0,1,1,339,196Z"/><g class="cls-10"><path class="cls-11" d="M333.54,79.14a1,1,0,1,0-.28-2l-3.4.47-.42-3,3.41-.47a1,1,0,0,0-.27-2l-3.41.47-.07-.48a3,3,0,0,0-3.43-2.61l-.48.07L324.71,66a1,1,0,0,0-2,.27l.49,3.56-3,.41-.48-3.55a1,1,0,0,0-2,.27l.49,3.56-3,.41-.49-3.56a1,1,0,0,0-1.14-.86,1,1,0,0,0-.87,1.14l.49,3.56-3,.41-.49-3.56a1,1,0,1,0-2,.28l.49,3.55-3,.42-.49-3.56a1,1,0,1,0-2,.27l.49,3.56L300,73l-.49-3.55a1,1,0,0,0-2,.27l.49,3.56-3,.41-.49-3.56a1,1,0,1,0-2,.28l.48,3.55-3,.42-.49-3.56a1,1,0,1,0-2,.28l.48,3.55-3,.41-.48-3.55a1,1,0,1,0-2,.27l.48,3.56-3,.41-.48-3.55a1,1,0,0,0-1.15-.87,1,1,0,0,0-.86,1.14L277.9,76l-3,.41-.48-3.56a1,1,0,0,0-2,.28l.49,3.55-.48.07a3,3,0,0,0-2.6,3.43l.06.48-3.93.54a1,1,0,0,0-.87,1.14,1,1,0,0,0,1.15.87l3.93-.54.41,3-3.93.54a1,1,0,0,0-.87,1.14,1,1,0,0,0,1.14.87l3.93-.54.42,3-3.93.54a1,1,0,0,0,.27,2l3.93-.54.41,3L268,96.3a1,1,0,1,0,.28,2l3.93-.54.41,3-3.93.54a1,1,0,1,0,.28,2l3.93-.54.41,3-3.93.54a1,1,0,0,0,.27,2l3.93-.53.41,3-3.93.54a1,1,0,0,0-.86,1.14,1,1,0,0,0,1.14.87l3.93-.53.41,3-3.93.54a1,1,0,0,0-.87,1.15,1,1,0,0,0,1.15.86l3.93-.53.41,3-3.93.53a1,1,0,1,0,.27,2l3.93-.53.42,3-3.93.53a1,1,0,0,0,.27,2l3.93-.54.41,3-3.93.53a1,1,0,0,0,.28,2L277,133l.06.48a3.06,3.06,0,0,0,3.44,2.61L281,136l.49,3.59a1,1,0,0,0,1.15.87,1,1,0,0,0,.87-1.14l-.49-3.59,3-.42.5,3.59a1,1,0,0,0,1.14.87,1,1,0,0,0,.87-1.14l-.49-3.59,3-.41.49,3.59a1,1,0,1,0,2-.28l-.49-3.59,3-.41.49,3.59a1,1,0,1,0,2-.28l-.49-3.59,3-.41.49,3.59a1,1,0,0,0,2-.27l-.49-3.59,3-.42.49,3.6a1,1,0,0,0,2-.28l-.49-3.59,3-.41.49,3.59a1,1,0,0,0,1.14.87,1,1,0,0,0,.87-1.15l-.49-3.59,3-.41.49,3.59a1,1,0,1,0,2-.27l-.49-3.6,3-.41.49,3.59a1,1,0,1,0,2-.27l-.49-3.59,3-.42.49,3.6a1,1,0,0,0,1.15.86,1,1,0,0,0,.86-1.14l-.49-3.59,3-.41.49,3.59a1,1,0,1,0,2-.28l-.49-3.59.47-.06a3,3,0,0,0,2.61-3.43l-.06-.48,3.4-.47a1,1,0,1,0-.27-2l-3.41.46-.41-3,3.41-.47a1,1,0,0,0,.86-1.14,1,1,0,0,0-1.14-.87l-3.41.46-.41-3,3.41-.46a1,1,0,0,0,.87-1.14,1,1,0,0,0-1.15-.87l-3.4.46-.42-3,3.41-.46a1,1,0,1,0-.27-2l-3.41.46-.41-3,3.4-.46a1,1,0,1,0-.27-2l-3.41.46-.41-3,3.41-.46a1,1,0,1,0-.28-2l-3.41.47-.41-3,3.41-.46a1,1,0,1,0-.28-2l-3.4.47-.42-3,3.41-.47a1,1,0,0,0,.87-1.14,1,1,0,0,0-1.14-.87l-3.41.47-.41-3,3.4-.47a1,1,0,1,0-.27-2l-3.41.47-.41-3Z"/></g><rect class="cls-4" x="273.15" y="72.84" width="59.87" height="59.87" rx="3.05" ry="3.05" transform="translate(-11.12 41.97) rotate(-7.78)"/><rect class="cls-5" x="286.52" y="85.74" width="33.96" height="33.95" rx="2.86" ry="2.86" transform="translate(-11.11 42.02) rotate(-7.78)"/><rect class="cls-6" x="287.37" y="87.07" width="31.43" height="31.42" rx="1.6" ry="1.6" transform="translate(-11.12 41.97) rotate(-7.78)"/><text class="cls-13" transform="translate(292.49 107.73) rotate(-7.78)">GPU</text><path class="cls-7" d="M273.39,73l1.15,8.38Z"/><path class="cls-8" d="M274.67,82.39a1,1,0,0,1-1.14-.87l-1.15-8.38a1,1,0,0,1,2-.28l1.14,8.39A1,1,0,0,1,274.67,82.39Z"/><path class="cls-7" d="M278.42,72.31l1.15,8.39Z"/><path class="cls-8" d="M279.7,81.7a1,1,0,0,1-1.14-.87l-1.14-8.38a1,1,0,0,1,.86-1.14,1,1,0,0,1,1.15.87l1.14,8.38A1,1,0,0,1,279.7,81.7Z"/><path class="cls-7" d="M283.45,71.63,284.6,80Z"/><path class="cls-8" d="M284.74,81a1,1,0,0,1-1.15-.87l-1.14-8.39a1,1,0,1,1,2-.27l1.14,8.38A1,1,0,0,1,284.74,81Z"/><path class="cls-7" d="M288.48,70.94l1.15,8.38Z"/><path class="cls-8" d="M289.77,80.33a1,1,0,0,1-1.15-.87l-1.14-8.38a1,1,0,1,1,2-.28l1.15,8.39A1,1,0,0,1,289.77,80.33Z"/><path class="cls-7" d="M293.51,70.25l1.15,8.39Z"/><path class="cls-8" d="M294.8,79.64a1,1,0,0,1-1.15-.87l-1.14-8.38a1,1,0,1,1,2-.28l1.15,8.39A1,1,0,0,1,294.8,79.64Z"/><path class="cls-7" d="M298.55,69.56,299.69,78Z"/><path class="cls-8" d="M299.83,79a1,1,0,0,1-1.14-.86l-1.15-8.39a1,1,0,0,1,2-.27l1.15,8.38A1,1,0,0,1,299.83,79Z"/><path class="cls-7" d="M303.58,68.88l1.14,8.38Z"/><path class="cls-8" d="M304.86,78.27a1,1,0,0,1-1.14-.87L302.57,69a1,1,0,1,1,2-.27l1.15,8.38A1,1,0,0,1,304.86,78.27Z"/><path class="cls-7" d="M308.61,68.19l1.14,8.38Z"/><path class="cls-8" d="M309.89,77.58a1,1,0,0,1-1.14-.87l-1.15-8.38a1,1,0,1,1,2-.28l1.15,8.39A1,1,0,0,1,309.89,77.58Z"/><path class="cls-7" d="M313.64,67.5l1.14,8.39Z"/><path class="cls-8" d="M314.92,76.89a1,1,0,0,1-1.14-.87l-1.15-8.38a1,1,0,0,1,.87-1.14,1,1,0,0,1,1.14.86l1.15,8.39A1,1,0,0,1,314.92,76.89Z"/><path class="cls-7" d="M318.67,66.81l1.14,8.39Z"/><path class="cls-8" d="M320,76.21a1,1,0,0,1-1.14-.87L317.66,67a1,1,0,0,1,2-.27l1.14,8.38A1,1,0,0,1,320,76.21Z"/><path class="cls-7" d="M323.7,66.13l1.15,8.38Z"/><path class="cls-8" d="M325,75.52a1,1,0,0,1-1.14-.87l-1.15-8.39a1,1,0,0,1,2-.27l1.14,8.38A1,1,0,0,1,325,75.52Z"/><path class="cls-7" d="M281.32,131.08l1.15,8.38Z"/><path class="cls-8" d="M282.61,140.47a1,1,0,0,1-1.15-.87l-1.14-8.38a1,1,0,1,1,2-.28l1.15,8.39A1,1,0,0,1,282.61,140.47Z"/><path class="cls-7" d="M286.36,130.39l1.14,8.39Z"/><path class="cls-8" d="M287.64,139.78a1,1,0,0,1-1.14-.87l-1.15-8.38a1,1,0,0,1,2-.28l1.15,8.39A1,1,0,0,1,287.64,139.78Z"/><path class="cls-7" d="M291.39,129.71l1.14,8.38Z"/><path class="cls-8" d="M292.67,139.1a1,1,0,0,1-1.14-.87l-1.15-8.39a1,1,0,0,1,2-.27l1.15,8.38A1,1,0,0,1,292.67,139.1Z"/><path class="cls-7" d="M296.42,129l1.14,8.38Z"/><path class="cls-8" d="M297.7,138.41a1,1,0,0,1-1.14-.87l-1.15-8.38a1,1,0,0,1,.87-1.15,1,1,0,0,1,1.14.87l1.15,8.38A1,1,0,0,1,297.7,138.41Z"/><path class="cls-7" d="M301.45,128.33l1.14,8.38Z"/><path class="cls-8" d="M302.73,137.72a1,1,0,0,1-1.14-.87l-1.15-8.38a1,1,0,0,1,.87-1.15,1,1,0,0,1,1.14.87l1.15,8.39A1,1,0,0,1,302.73,137.72Z"/><path class="cls-7" d="M306.48,127.64l1.15,8.39Z"/><path class="cls-8" d="M307.76,137a1,1,0,0,1-1.14-.86l-1.15-8.39a1,1,0,0,1,2-.27l1.14,8.38A1,1,0,0,1,307.76,137Z"/><path class="cls-7" d="M311.51,127l1.15,8.38Z"/><path class="cls-8" d="M312.79,136.35a1,1,0,0,1-1.14-.87l-1.15-8.39a1,1,0,0,1,.87-1.14,1,1,0,0,1,1.15.87l1.14,8.38A1,1,0,0,1,312.79,136.35Z"/><path class="cls-7" d="M316.54,126.27l1.15,8.38Z"/><path class="cls-8" d="M317.82,135.66a1,1,0,0,1-1.14-.87l-1.14-8.38a1,1,0,0,1,.86-1.15,1,1,0,0,1,1.15.87l1.14,8.39A1,1,0,0,1,317.82,135.66Z"/><path class="cls-7" d="M321.57,125.58l1.15,8.39Z"/><path class="cls-8" d="M322.86,135a1,1,0,0,1-1.15-.87l-1.14-8.38a1,1,0,0,1,.86-1.14,1,1,0,0,1,1.15.86l1.14,8.39A1,1,0,0,1,322.86,135Z"/><path class="cls-7" d="M326.6,124.89l1.15,8.39Z"/><path class="cls-8" d="M327.89,134.28a1,1,0,0,1-1.15-.86L325.6,125a1,1,0,0,1,2-.27l1.14,8.38A1,1,0,0,1,327.89,134.28Z"/><path class="cls-7" d="M331.63,124.21l1.15,8.38Z"/><path class="cls-8" d="M332.92,133.6a1,1,0,0,1-1.15-.87l-1.14-8.39a1,1,0,0,1,2-.27l1.15,8.38A1,1,0,0,1,332.92,133.6Z"/><path class="cls-7" d="M332.71,73.11l-8.38,1.14Z"/><path class="cls-8" d="M332.85,74.11l-8.38,1.15a1,1,0,0,1-1.15-.87,1,1,0,0,1,.87-1.14l8.39-1.15a1,1,0,0,1,.27,2Z"/><path class="cls-7" d="M333.4,78.14,325,79.28Z"/><path class="cls-8" d="M333.54,79.14l-8.39,1.15a1,1,0,0,1-1.14-.87,1,1,0,0,1,.87-1.14l8.38-1.15a1,1,0,1,1,.28,2Z"/><path class="cls-7" d="M334.09,83.17l-8.39,1.14Z"/><path class="cls-8" d="M334.22,84.17l-8.38,1.15a1,1,0,1,1-.27-2L334,82.16a1,1,0,1,1,.27,2Z"/><path class="cls-7" d="M334.77,88.2l-8.38,1.14Z"/><path class="cls-8" d="M334.91,89.2l-8.38,1.15a1,1,0,1,1-.28-2l8.39-1.15a1,1,0,0,1,1.14.87A1,1,0,0,1,334.91,89.2Z"/><path class="cls-7" d="M335.46,93.23l-8.38,1.15Z"/><path class="cls-8" d="M335.6,94.24l-8.38,1.14a1,1,0,1,1-.28-2l8.38-1.15a1,1,0,1,1,.28,2Z"/><path class="cls-7" d="M336.15,98.26l-8.39,1.15Z"/><path class="cls-8" d="M336.29,99.27l-8.39,1.14a1,1,0,0,1-.27-2L336,97.25a1,1,0,1,1,.28,2Z"/><path class="cls-7" d="M336.84,103.29l-8.39,1.15Z"/><path class="cls-8" d="M337,104.3l-8.38,1.14a1,1,0,0,1-1.14-.87,1,1,0,0,1,.86-1.14l8.39-1.14a1,1,0,1,1,.27,2Z"/><path class="cls-7" d="M337.52,108.32l-8.38,1.15Z"/><path class="cls-8" d="M337.66,109.33l-8.38,1.14a1,1,0,0,1-1.15-.86,1,1,0,0,1,.87-1.15l8.39-1.14a1,1,0,1,1,.27,2Z"/><path class="cls-7" d="M338.21,113.35l-8.38,1.15Z"/><path class="cls-8" d="M338.35,114.36,330,115.5a1,1,0,1,1-.27-2l8.38-1.14a1,1,0,0,1,1.15.87A1,1,0,0,1,338.35,114.36Z"/><path class="cls-7" d="M338.9,118.38l-8.39,1.15Z"/><path class="cls-8" d="M339,119.39l-8.39,1.15a1,1,0,0,1-.27-2l8.38-1.14a1,1,0,0,1,1.14.87A1,1,0,0,1,339,119.39Z"/><path class="cls-7" d="M339.59,123.42l-8.39,1.14Z"/><path class="cls-8" d="M339.72,124.42l-8.38,1.15a1,1,0,1,1-.28-2l8.39-1.14a1,1,0,1,1,.27,2Z"/><path class="cls-7" d="M274.44,81.07l-8.38,1.14Z"/><path class="cls-8" d="M274.58,82.07l-8.38,1.15a1,1,0,0,1-1.15-.87,1,1,0,0,1,.87-1.14l8.39-1.15a1,1,0,1,1,.27,2Z"/><path class="cls-7" d="M275.13,86.1l-8.38,1.14Z"/><path class="cls-8" d="M275.27,87.1l-8.39,1.15a1,1,0,0,1-1.14-.87,1,1,0,0,1,.87-1.14L275,85.09a1,1,0,1,1,.28,2Z"/><path class="cls-7" d="M275.82,91.13l-8.39,1.14Z"/><path class="cls-8" d="M276,92.13l-8.38,1.15a1,1,0,0,1-.27-2l8.38-1.15a1,1,0,0,1,.27,2Z"/><path class="cls-7" d="M276.5,96.16l-8.38,1.14Z"/><path class="cls-8" d="M276.64,97.16l-8.38,1.15a1,1,0,1,1-.28-2l8.39-1.15a1,1,0,0,1,1.14.87A1,1,0,0,1,276.64,97.16Z"/><path class="cls-7" d="M277.19,101.19l-8.38,1.15Z"/><path class="cls-8" d="M277.33,102.2,269,103.34a1,1,0,1,1-.28-2l8.38-1.15a1,1,0,0,1,.28,2Z"/><path class="cls-7" d="M277.88,106.22l-8.39,1.15Z"/><path class="cls-8" d="M278,107.23l-8.39,1.14a1,1,0,0,1-.27-2l8.38-1.15a1,1,0,1,1,.28,2Z"/><path class="cls-7" d="M278.57,111.25l-8.39,1.15Z"/><path class="cls-8" d="M278.7,112.26l-8.38,1.14a1,1,0,0,1-1.14-.87,1,1,0,0,1,.86-1.14l8.39-1.14a1,1,0,1,1,.27,2Z"/><path class="cls-7" d="M279.25,116.28l-8.38,1.15Z"/><path class="cls-8" d="M279.39,117.29,271,118.43a1,1,0,0,1-1.15-.86,1,1,0,0,1,.87-1.15l8.39-1.14a1,1,0,1,1,.27,2Z"/><path class="cls-7" d="M279.94,121.31l-8.38,1.15Z"/><path class="cls-8" d="M280.08,122.32l-8.39,1.14a1,1,0,1,1-.27-2l8.38-1.14a1,1,0,0,1,1.15.87A1,1,0,0,1,280.08,122.32Z"/><path class="cls-7" d="M280.63,126.34l-8.39,1.15Z"/><path class="cls-8" d="M280.77,127.35l-8.39,1.15a1,1,0,0,1-.27-2l8.38-1.14a1,1,0,0,1,1.14.87A1,1,0,0,1,280.77,127.35Z"/><path class="cls-7" d="M281.32,131.38l-8.39,1.14Z"/><path class="cls-8" d="M281.45,132.38l-8.38,1.15a1,1,0,0,1-.28-2l8.39-1.14a1,1,0,1,1,.27,2Z"/><g class="cls-10"><path class="cls-11" d="M320,304.74a1,1,0,0,0-1.4-1.47l-2.49,2.37-2.1-2.2,2.49-2.37a1,1,0,0,0,0-1.44,1,1,0,0,0-1.43,0L312.59,302l-.34-.35a3,3,0,0,0-4.3-.11l-.35.33-2.48-2.6a1,1,0,0,0-1.44,0,1,1,0,0,0,0,1.43l2.47,2.6-2.2,2.1-2.48-2.6a1,1,0,0,0-1.47,1.4l2.48,2.6-2.21,2.11-2.48-2.6a1,1,0,0,0-1.43,0,1,1,0,0,0,0,1.44l2.48,2.6-2.21,2.1-2.47-2.6a1,1,0,1,0-1.47,1.4l2.47,2.6-2.21,2.1-2.47-2.6a1,1,0,1,0-1.47,1.4l2.47,2.6-2.2,2.1-2.48-2.6a1,1,0,1,0-1.47,1.4l2.48,2.6-2.21,2.1-2.48-2.6a1,1,0,0,0-1.43,0,1,1,0,0,0,0,1.44l2.48,2.6-2.21,2.1-2.47-2.6a1,1,0,1,0-1.47,1.4l2.47,2.6-2.21,2.1-2.47-2.6a1,1,0,0,0-1.47,1.4l2.47,2.6-2.2,2.1-2.48-2.6a1,1,0,0,0-1.47,1.4l2.47,2.6-2.2,2.1-2.48-2.6a1,1,0,0,0-1.47,1.4l2.48,2.6-.35.34a3,3,0,0,0-.11,4.3l.33.35L266.35,346a1,1,0,0,0,1.4,1.47l2.87-2.74,2.1,2.21-2.87,2.74a1,1,0,0,0,1.4,1.47l2.87-2.74,2.11,2.21-2.88,2.73a1,1,0,0,0,0,1.44,1,1,0,0,0,1.43,0l2.88-2.73,2.1,2.21L276.85,357a1,1,0,0,0,0,1.44,1,1,0,0,0,1.43,0l2.88-2.73,2.1,2.2-2.88,2.74a1,1,0,0,0,1.41,1.47l2.87-2.73,2.1,2.2-2.87,2.74a1,1,0,0,0,0,1.43,1,1,0,0,0,1.44,0l2.87-2.74,2.1,2.21L287.36,368a1,1,0,0,0,1.4,1.48l2.87-2.74,2.1,2.21-2.87,2.73a1,1,0,1,0,1.4,1.47l2.87-2.73,2.1,2.2-2.87,2.74a1,1,0,1,0,1.4,1.47l2.87-2.73,2.1,2.2-2.87,2.74a1,1,0,1,0,1.4,1.47l2.87-2.74,2.1,2.21-2.87,2.74a1,1,0,0,0,0,1.43,1,1,0,0,0,1.44,0l2.87-2.74.34.35a3,3,0,0,0,4.3.11l.35-.33,2.5,2.62a1,1,0,1,0,1.47-1.4l-2.49-2.63,2.2-2.1,2.5,2.63a1,1,0,0,0,1.47-1.4l-2.5-2.63,2.21-2.1,2.5,2.63a1,1,0,0,0,1.47-1.4l-2.5-2.63,2.21-2.1,2.5,2.63a1,1,0,0,0,1.47-1.4l-2.5-2.63,2.21-2.1,2.49,2.63a1,1,0,0,0,1.44,0,1,1,0,0,0,0-1.43l-2.5-2.63,2.2-2.1,2.5,2.63a1,1,0,1,0,1.47-1.41l-2.5-2.62,2.21-2.1,2.5,2.62a1,1,0,1,0,1.47-1.4l-2.5-2.62,2.21-2.1,2.5,2.62a1,1,0,0,0,1.43,0,1,1,0,0,0,0-1.44l-2.5-2.62,2.21-2.1,2.5,2.62a1,1,0,0,0,1.43,0,1,1,0,0,0,0-1.44l-2.5-2.62,2.2-2.1,2.5,2.62a1,1,0,1,0,1.47-1.4l-2.49-2.62,2.2-2.1,2.5,2.62a1,1,0,1,0,1.47-1.4l-2.5-2.63.35-.33a3,3,0,0,0,.11-4.31l-.33-.35,2.49-2.37a1,1,0,0,0-1.4-1.47l-2.49,2.37-2.11-2.2,2.5-2.38a1,1,0,0,0-1.4-1.47l-2.5,2.37-2.1-2.2,2.49-2.37a1,1,0,1,0-1.4-1.47l-2.49,2.37-2.1-2.21,2.49-2.37a1,1,0,1,0-1.4-1.47l-2.49,2.37L335,325.5l2.49-2.37a1,1,0,1,0-1.4-1.47L333.59,324l-2.1-2.21,2.49-2.37a1,1,0,0,0,0-1.43,1,1,0,0,0-1.44,0l-2.49,2.37-2.1-2.2,2.49-2.37a1,1,0,1,0-1.4-1.47l-2.49,2.37-2.1-2.21L327,312.1a1,1,0,1,0-1.4-1.47L323.09,313l-2.1-2.21,2.49-2.37a1,1,0,0,0-1.4-1.47l-2.49,2.37-2.1-2.21Z"/></g><rect class="cls-4" x="279.18" y="311.8" width="59.87" height="59.87" rx="3.05" ry="3.05" transform="translate(-150.4 307.34) rotate(-43.59)"/><rect class="cls-5" x="292.43" y="324.46" width="33.96" height="33.95" rx="2.86" ry="2.86" transform="translate(-150.11 307.47) rotate(-43.59)"/><rect class="cls-6" x="293.4" y="326.02" width="31.43" height="31.42" rx="1.6" ry="1.6" transform="translate(-150.4 307.34) rotate(-43.59)"/><text class="cls-13" transform="matrix(0.72, -0.69, 0.69, 0.72, 303.41, 351.94)">GPU</text><path class="cls-7" d="M267.61,335l5.83,6.13Z"/><path class="cls-8" d="M274.14,341.82a1,1,0,0,1-1.43,0l-5.84-6.13a1,1,0,0,1,1.47-1.4l5.84,6.13A1,1,0,0,1,274.14,341.82Z"/><path class="cls-7" d="M271.29,331.45l5.83,6.13Z"/><path class="cls-8" d="M277.82,338.32a1,1,0,0,1-1.44,0l-5.83-6.13a1,1,0,0,1,1.47-1.4l5.84,6.13A1,1,0,0,1,277.82,338.32Z"/><path class="cls-7" d="M275,328l5.84,6.13Z"/><path class="cls-8" d="M281.5,334.82a1,1,0,0,1-1.44,0l-5.83-6.13a1,1,0,0,1,1.47-1.4l5.83,6.13A1,1,0,0,1,281.5,334.82Z"/><path class="cls-7" d="M278.64,324.45l5.84,6.13Z"/><path class="cls-8" d="M285.18,331.32a1,1,0,0,1-1.44,0l-5.83-6.13a1,1,0,1,1,1.47-1.4l5.83,6.13A1,1,0,0,1,285.18,331.32Z"/><path class="cls-7" d="M282.32,321l5.83,6.13Z"/><path class="cls-8" d="M288.85,327.81a1,1,0,0,1-1.43,0l-5.84-6.13a1,1,0,0,1,0-1.44,1,1,0,0,1,1.43,0l5.84,6.13A1,1,0,0,1,288.85,327.81Z"/><path class="cls-7" d="M286,317.45l5.83,6.13Z"/><path class="cls-8" d="M292.53,324.31a1,1,0,0,1-1.43,0l-5.84-6.13a1,1,0,1,1,1.47-1.4l5.84,6.13A1,1,0,0,1,292.53,324.31Z"/><path class="cls-7" d="M289.67,314l5.84,6.13Z"/><path class="cls-8" d="M296.21,320.81a1,1,0,0,1-1.44,0l-5.83-6.13a1,1,0,1,1,1.47-1.4l5.83,6.13A1,1,0,0,1,296.21,320.81Z"/><path class="cls-7" d="M293.35,310.45l5.84,6.13Z"/><path class="cls-8" d="M299.89,317.31a1,1,0,0,1-1.44,0l-5.83-6.13a1,1,0,1,1,1.47-1.4l5.83,6.13A1,1,0,0,1,299.89,317.31Z"/><path class="cls-7" d="M297,307l5.83,6.12Z"/><path class="cls-8" d="M303.56,313.81a1,1,0,0,1-1.43,0l-5.84-6.12a1,1,0,0,1,0-1.44,1,1,0,0,1,1.43,0l5.84,6.12A1,1,0,0,1,303.56,313.81Z"/><path class="cls-7" d="M300.71,303.44l5.83,6.13Z"/><path class="cls-8" d="M307.24,310.31a1,1,0,0,1-1.43,0L300,304.14a1,1,0,0,1,1.47-1.4l5.84,6.13A1,1,0,0,1,307.24,310.31Z"/><path class="cls-7" d="M304.38,299.94l5.84,6.13Z"/><path class="cls-8" d="M310.92,306.81a1,1,0,0,1-1.44,0l-5.83-6.13a1,1,0,0,1,0-1.43,1,1,0,0,1,1.44,0l5.83,6.13A1,1,0,0,1,310.92,306.81Z"/><path class="cls-7" d="M308,377.41l5.84,6.13Z"/><path class="cls-8" d="M314.56,384.28a1,1,0,0,1-1.44,0l-5.83-6.13a1,1,0,0,1,1.47-1.4l5.83,6.13A1,1,0,0,1,314.56,384.28Z"/><path class="cls-7" d="M311.7,373.91l5.84,6.13Z"/><path class="cls-8" d="M318.24,380.77a1,1,0,0,1-1.44,0L311,374.61a1,1,0,1,1,1.47-1.4l5.83,6.13A1,1,0,0,1,318.24,380.77Z"/><path class="cls-7" d="M315.38,370.41l5.83,6.13Z"/><path class="cls-8" d="M321.91,377.27a1,1,0,0,1-1.43,0l-5.84-6.13a1,1,0,1,1,1.48-1.4l5.83,6.13A1,1,0,0,1,321.91,377.27Z"/><path class="cls-7" d="M319.06,366.91l5.83,6.13Z"/><path class="cls-8" d="M325.59,373.77a1,1,0,0,1-1.43,0l-5.84-6.13a1,1,0,0,1,0-1.44,1,1,0,0,1,1.43,0l5.84,6.13A1,1,0,0,1,325.59,373.77Z"/><path class="cls-7" d="M322.74,363.41l5.83,6.13Z"/><path class="cls-8" d="M329.27,370.27a1,1,0,0,1-1.44,0L322,364.11a1,1,0,0,1,0-1.44,1,1,0,0,1,1.43,0l5.84,6.13A1,1,0,0,1,329.27,370.27Z"/><path class="cls-7" d="M326.41,359.91l5.84,6.13Z"/><path class="cls-8" d="M333,366.77a1,1,0,0,1-1.44,0l-5.83-6.13a1,1,0,1,1,1.47-1.4l5.83,6.12A1,1,0,0,1,333,366.77Z"/><path class="cls-7" d="M330.09,356.41l5.84,6.12Z"/><path class="cls-8" d="M336.63,363.27a1,1,0,0,1-1.44,0l-5.83-6.12a1,1,0,1,1,1.47-1.4l5.83,6.12A1,1,0,0,1,336.63,363.27Z"/><path class="cls-7" d="M333.77,352.9,339.6,359Z"/><path class="cls-8" d="M340.3,359.77a1,1,0,0,1-1.43,0L333,353.6a1,1,0,0,1,1.47-1.4l5.84,6.13A1,1,0,0,1,340.3,359.77Z"/><path class="cls-7" d="M337.45,349.4l5.83,6.13Z"/><path class="cls-8" d="M344,356.27a1,1,0,0,1-1.43,0l-5.84-6.13a1,1,0,0,1,1.47-1.4l5.84,6.13A1,1,0,0,1,344,356.27Z"/><path class="cls-7" d="M341.12,345.9,347,352Z"/><path class="cls-8" d="M347.66,352.77a1,1,0,0,1-1.44,0l-5.83-6.13a1,1,0,0,1,0-1.43,1,1,0,0,1,1.44,0l5.83,6.13A1,1,0,0,1,347.66,352.77Z"/><path class="cls-7" d="M344.8,342.4l5.84,6.13Z"/><path class="cls-8" d="M351.34,349.27a1,1,0,0,1-1.44,0l-5.83-6.13a1,1,0,0,1,1.47-1.4l5.83,6.13A1,1,0,0,1,351.34,349.27Z"/><path class="cls-7" d="M315.78,300.33l-6.13,5.83Z"/><path class="cls-8" d="M316.48,301.07l-6.13,5.83a1,1,0,1,1-1.4-1.47l6.13-5.84a1,1,0,0,1,1.43,0A1,1,0,0,1,316.48,301.07Z"/><path class="cls-7" d="M319.28,304l-6.13,5.83Z"/><path class="cls-8" d="M320,304.74l-6.13,5.84a1,1,0,0,1-1.44,0,1,1,0,0,1,0-1.43l6.13-5.84a1,1,0,0,1,1.4,1.47Z"/><path class="cls-7" d="M322.78,307.69l-6.13,5.83Z"/><path class="cls-8" d="M323.48,308.42l-6.13,5.84a1,1,0,1,1-1.4-1.48l6.13-5.83a1,1,0,0,1,1.4,1.47Z"/><path class="cls-7" d="M326.28,311.36l-6.13,5.84Z"/><path class="cls-8" d="M327,312.1l-6.13,5.83a1,1,0,1,1-1.4-1.47l6.13-5.83a1,1,0,1,1,1.4,1.47Z"/><path class="cls-7" d="M329.78,315l-6.13,5.84Z"/><path class="cls-8" d="M330.48,315.78l-6.13,5.83a1,1,0,0,1-1.43,0,1,1,0,0,1,0-1.44l6.13-5.83a1,1,0,1,1,1.4,1.47Z"/><path class="cls-7" d="M333.28,318.72l-6.13,5.83Z"/><path class="cls-8" d="M334,319.45l-6.13,5.84a1,1,0,0,1-1.4-1.47l6.13-5.84a1,1,0,0,1,1.44,0A1,1,0,0,1,334,319.45Z"/><path class="cls-7" d="M336.78,322.4l-6.13,5.83Z"/><path class="cls-8" d="M337.48,323.13,331.35,329a1,1,0,0,1-1.43,0,1,1,0,0,1,0-1.44l6.13-5.83a1,1,0,1,1,1.4,1.47Z"/><path class="cls-7" d="M340.28,326.07l-6.13,5.84Z"/><path class="cls-8" d="M341,326.81l-6.13,5.83a1,1,0,0,1-1.43,0,1,1,0,0,1,0-1.44l6.13-5.83a1,1,0,1,1,1.4,1.47Z"/><path class="cls-7" d="M343.78,329.75l-6.12,5.84Z"/><path class="cls-8" d="M344.48,330.49l-6.12,5.83a1,1,0,1,1-1.4-1.47l6.12-5.83a1,1,0,1,1,1.4,1.47Z"/><path class="cls-7" d="M347.29,333.43l-6.13,5.83Z"/><path class="cls-8" d="M348,334.16,341.86,340a1,1,0,0,1-1.44,0,1,1,0,0,1,0-1.43l6.13-5.84a1,1,0,0,1,1.4,1.47Z"/><path class="cls-7" d="M350.79,337.11l-6.13,5.83Z"/><path class="cls-8" d="M351.49,337.84l-6.13,5.84a1,1,0,0,1-1.44,0,1,1,0,0,1,0-1.43l6.13-5.84a1,1,0,0,1,1.4,1.47Z"/><path class="cls-7" d="M273.18,340.88l-6.13,5.83Z"/><path class="cls-8" d="M273.88,341.61l-6.13,5.84a1,1,0,0,1-1.4-1.47l6.13-5.84a1,1,0,0,1,1.44,0A1,1,0,0,1,273.88,341.61Z"/><path class="cls-7" d="M276.68,344.56l-6.13,5.83Z"/><path class="cls-8" d="M277.38,345.29l-6.13,5.84a1,1,0,0,1-1.4-1.47l6.13-5.84a1,1,0,1,1,1.4,1.47Z"/><path class="cls-7" d="M280.18,348.23l-6.13,5.84Z"/><path class="cls-8" d="M280.88,349l-6.13,5.83a1,1,0,0,1-1.43,0,1,1,0,0,1,0-1.44l6.13-5.83a1,1,0,1,1,1.4,1.47Z"/><path class="cls-7" d="M283.68,351.91l-6.13,5.84Z"/><path class="cls-8" d="M284.38,352.65l-6.13,5.83a1,1,0,0,1-1.43,0,1,1,0,0,1,0-1.44l6.13-5.83a1,1,0,1,1,1.4,1.47Z"/><path class="cls-7" d="M287.18,355.59l-6.13,5.83Z"/><path class="cls-8" d="M287.88,356.33l-6.12,5.83a1,1,0,0,1-1.41-1.47l6.13-5.84a1,1,0,1,1,1.4,1.48Z"/><path class="cls-7" d="M290.68,359.27l-6.12,5.83Z"/><path class="cls-8" d="M291.39,360l-6.13,5.84a1,1,0,0,1-1.44,0,1,1,0,0,1,0-1.43l6.12-5.84a1,1,0,0,1,1.44,0A1,1,0,0,1,291.39,360Z"/><path class="cls-7" d="M294.19,363l-6.13,5.83Z"/><path class="cls-8" d="M294.89,363.68l-6.13,5.84a1,1,0,0,1-1.4-1.48l6.13-5.83a1,1,0,0,1,1.4,1.47Z"/><path class="cls-7" d="M297.69,366.62l-6.13,5.84Z"/><path class="cls-8" d="M298.39,367.36l-6.13,5.83a1,1,0,1,1-1.4-1.47l6.13-5.83a1,1,0,0,1,1.43,0A1,1,0,0,1,298.39,367.36Z"/><path class="cls-7" d="M301.19,370.3l-6.13,5.84Z"/><path class="cls-8" d="M301.89,371l-6.13,5.83a1,1,0,1,1-1.4-1.47l6.13-5.83a1,1,0,0,1,1.43,0A1,1,0,0,1,301.89,371Z"/><path class="cls-7" d="M304.69,374l-6.13,5.83Z"/><path class="cls-8" d="M305.39,374.71l-6.13,5.84a1,1,0,1,1-1.4-1.47l6.13-5.84a1,1,0,0,1,1.4,1.47Z"/><path class="cls-7" d="M308.19,377.66l-6.13,5.83Z"/><path class="cls-8" d="M308.89,378.39l-6.13,5.84a1,1,0,0,1-1.44,0,1,1,0,0,1,0-1.43l6.13-5.84a1,1,0,1,1,1.4,1.47Z"/><g class="cls-10"><path class="cls-11" d="M334.86,216.3a1,1,0,0,0,.87-1.14,1,1,0,0,0-1.14-.87l-3.41.46-.41-3,3.41-.46a1,1,0,0,0,.87-1.15,1,1,0,0,0-1.15-.86l-3.4.46-.07-.48a3,3,0,0,0-3.43-2.6l-.48.06-.49-3.55a1,1,0,0,0-1.14-.87,1,1,0,0,0-.87,1.14l.49,3.56-3,.41-.49-3.56a1,1,0,1,0-2,.28l.49,3.55-3,.42-.49-3.56a1,1,0,1,0-2,.28l.49,3.55-3,.41-.49-3.55a1,1,0,0,0-2,.27l.48,3.56-3,.41-.49-3.55a1,1,0,0,0-1.14-.87,1,1,0,0,0-.87,1.14l.48,3.56-3,.41-.48-3.56a1,1,0,0,0-1.14-.87,1,1,0,0,0-.87,1.15l.48,3.55-3,.42-.48-3.56a1,1,0,1,0-2,.27l.48,3.56-3,.41-.48-3.55a1,1,0,0,0-2,.27l.49,3.56-3,.41-.48-3.56a1,1,0,0,0-2,.28l.49,3.56-3,.41-.48-3.56a1,1,0,1,0-2,.28l.49,3.55-3,.41-.49-3.55a1,1,0,0,0-1.14-.87,1,1,0,0,0-.87,1.14l.49,3.56-.48.07a3,3,0,0,0-2.61,3.43l.07.47-3.93.54a1,1,0,0,0,.27,2l3.93-.53.42,3-3.93.53a1,1,0,0,0-.87,1.15,1,1,0,0,0,1.14.86l3.93-.53.41,3-3.93.53a1,1,0,1,0,.28,2l3.93-.54.41,3-3.93.53a1,1,0,0,0,.27,2l3.94-.54.41,3-3.93.54a1,1,0,0,0-.87,1.14,1,1,0,0,0,1.14.87l3.93-.54.41,3-3.93.54a1,1,0,0,0,.28,2l3.93-.54.41,3-3.93.54a1,1,0,1,0,.28,2l3.93-.54.41,3-3.93.54a1,1,0,0,0,.27,2l3.93-.54.42,3-3.93.54a1,1,0,0,0,.27,2l3.93-.54.41,3-3.93.54a1,1,0,0,0-.87,1.14,1,1,0,0,0,1.15.87l3.93-.53.41,3-3.93.54a1,1,0,0,0-.87,1.14,1,1,0,0,0,1.15.87l3.93-.53.06.48a3,3,0,0,0,3.43,2.6l.48-.06.49,3.59a1,1,0,0,0,1.14.87,1,1,0,0,0,.87-1.15l-.49-3.59,3-.41.49,3.59a1,1,0,0,0,1.15.87,1,1,0,0,0,.86-1.14l-.49-3.6,3-.41.49,3.59a1,1,0,0,0,2-.27l-.49-3.59,3-.42.49,3.6a1,1,0,0,0,2-.28l-.49-3.59,3-.41.5,3.59a1,1,0,0,0,1.14.87,1,1,0,0,0,.87-1.15l-.49-3.59,3-.41.49,3.59a1,1,0,0,0,1.14.87,1,1,0,0,0,.87-1.14l-.49-3.59,3-.42.49,3.59a1,1,0,1,0,2-.27l-.49-3.59,3-.41L318,272a1,1,0,1,0,2-.28l-.49-3.59,3-.41.49,3.59a1,1,0,1,0,2-.28l-.49-3.59,3-.41.49,3.59a1,1,0,1,0,2-.27l-.49-3.59,3-.42.49,3.6a1,1,0,0,0,1.14.86,1,1,0,0,0,.87-1.14l-.49-3.59.48-.07a3,3,0,0,0,2.61-3.43l-.07-.48,3.41-.46a1,1,0,0,0,.87-1.15,1,1,0,0,0-1.14-.86l-3.41.46-.41-3,3.4-.46a1,1,0,0,0-.27-2l-3.41.47-.41-3,3.41-.46a1,1,0,0,0-.28-2L336,250l-.41-3,3.41-.47a1,1,0,0,0,.87-1.14,1,1,0,0,0-1.15-.87l-3.4.47-.42-3,3.41-.47a1,1,0,0,0,.87-1.14,1,1,0,0,0-1.14-.87l-3.41.47-.41-3,3.4-.47a1,1,0,0,0-.27-2l-3.41.47-.41-3,3.41-.47a1,1,0,1,0-.28-2l-3.41.47-.41-3,3.41-.47a1,1,0,1,0-.28-2l-3.4.46-.42-3,3.41-.47a1,1,0,0,0-.27-2l-3.41.46-.41-3Z"/></g><rect class="cls-4" x="274.48" y="210" width="59.87" height="59.87" rx="3.05" ry="3.05" transform="translate(-29.67 43.41) rotate(-7.78)"/><rect class="cls-5" x="287.84" y="222.9" width="33.96" height="33.95" rx="2.86" ry="2.86" transform="translate(-29.66 43.46) rotate(-7.78)"/><rect class="cls-6" x="288.7" y="224.22" width="31.43" height="31.42" rx="1.6" ry="1.6" transform="translate(-29.67 43.41) rotate(-7.78)"/><text class="cls-13" transform="translate(293.81 244.88) rotate(-7.78)">GPU</text><path class="cls-7" d="M274.72,210.16l1.14,8.38Z"/><path class="cls-8" d="M276,219.55a1,1,0,0,1-1.14-.87l-1.15-8.39a1,1,0,0,1,.87-1.14,1,1,0,0,1,1.14.87l1.15,8.38A1,1,0,0,1,276,219.55Z"/><path class="cls-7" d="M279.75,209.47l1.14,8.38Z"/><path class="cls-8" d="M281,218.86a1,1,0,0,1-1.14-.87l-1.15-8.38a1,1,0,1,1,2-.28l1.14,8.39A1,1,0,0,1,281,218.86Z"/><path class="cls-7" d="M284.78,208.78l1.15,8.39Z"/><path class="cls-8" d="M286.06,218.17a1,1,0,0,1-1.14-.87l-1.15-8.38a1,1,0,0,1,2-.28l1.14,8.39A1,1,0,0,1,286.06,218.17Z"/><path class="cls-7" d="M289.81,208.09l1.15,8.39Z"/><path class="cls-8" d="M291.09,217.48a1,1,0,0,1-1.14-.86l-1.15-8.39a1,1,0,0,1,2-.27l1.14,8.38A1,1,0,0,1,291.09,217.48Z"/><path class="cls-7" d="M294.84,207.41l1.15,8.38Z"/><path class="cls-8" d="M296.12,216.8a1,1,0,0,1-1.14-.87l-1.14-8.39a1,1,0,1,1,2-.27l1.14,8.38A1,1,0,0,1,296.12,216.8Z"/><path class="cls-7" d="M299.87,206.72,301,215.1Z"/><path class="cls-8" d="M301.16,216.11a1,1,0,0,1-1.15-.87l-1.14-8.38a1,1,0,0,1,.87-1.15,1,1,0,0,1,1.14.87L302,215A1,1,0,0,1,301.16,216.11Z"/><path class="cls-7" d="M304.9,206l1.15,8.39Z"/><path class="cls-8" d="M306.19,215.42a1,1,0,0,1-1.15-.87l-1.14-8.38a1,1,0,0,1,.87-1.14,1,1,0,0,1,1.14.87l1.15,8.38A1,1,0,0,1,306.19,215.42Z"/><path class="cls-7" d="M309.93,205.35l1.15,8.38Z"/><path class="cls-8" d="M311.22,214.74a1,1,0,0,1-1.15-.87l-1.14-8.39a1,1,0,0,1,2-.27l1.15,8.38A1,1,0,0,1,311.22,214.74Z"/><path class="cls-7" d="M315,204.66l1.14,8.38Z"/><path class="cls-8" d="M316.25,214.05a1,1,0,0,1-1.15-.87L314,204.8a1,1,0,1,1,2-.28l1.15,8.39A1,1,0,0,1,316.25,214.05Z"/><path class="cls-7" d="M320,204l1.14,8.39Z"/><path class="cls-8" d="M321.28,213.36a1,1,0,0,1-1.14-.87L319,204.11a1,1,0,1,1,2-.28l1.15,8.39A1,1,0,0,1,321.28,213.36Z"/><path class="cls-7" d="M325,203.28l1.14,8.39Z"/><path class="cls-8" d="M326.31,212.67a1,1,0,0,1-1.14-.86L324,203.42a1,1,0,0,1,.87-1.14,1,1,0,0,1,1.14.87l1.15,8.38A1,1,0,0,1,326.31,212.67Z"/><path class="cls-7" d="M282.65,268.24l1.15,8.38Z"/><path class="cls-8" d="M283.93,277.63a1,1,0,0,1-1.14-.87l-1.14-8.39a1,1,0,1,1,2-.27l1.14,8.38A1,1,0,0,1,283.93,277.63Z"/><path class="cls-7" d="M287.68,267.55l1.15,8.38Z"/><path class="cls-8" d="M289,276.94a1,1,0,0,1-1.15-.87l-1.14-8.38a1,1,0,0,1,.87-1.15,1,1,0,0,1,1.14.87l1.14,8.39A1,1,0,0,1,289,276.94Z"/><path class="cls-7" d="M292.71,266.86l1.15,8.39Z"/><path class="cls-8" d="M294,276.25a1,1,0,0,1-1.15-.87L291.71,267a1,1,0,0,1,.87-1.14,1,1,0,0,1,1.14.86l1.15,8.39A1,1,0,0,1,294,276.25Z"/><path class="cls-7" d="M297.75,266.17l1.14,8.39Z"/><path class="cls-8" d="M299,275.56a1,1,0,0,1-1.15-.86l-1.14-8.39a1,1,0,0,1,2-.27l1.15,8.38A1,1,0,0,1,299,275.56Z"/><path class="cls-7" d="M302.78,265.49l1.14,8.38Z"/><path class="cls-8" d="M304.06,274.88a1,1,0,0,1-1.14-.87l-1.15-8.39a1,1,0,0,1,2-.27l1.15,8.38A1,1,0,0,1,304.06,274.88Z"/><path class="cls-7" d="M307.81,264.8l1.14,8.38Z"/><path class="cls-8" d="M309.09,274.19a1,1,0,0,1-1.14-.87l-1.15-8.38a1,1,0,1,1,2-.28l1.15,8.39A1,1,0,0,1,309.09,274.19Z"/><path class="cls-7" d="M312.84,264.11,314,272.5Z"/><path class="cls-8" d="M314.12,273.5a1,1,0,0,1-1.14-.87l-1.15-8.38a1,1,0,0,1,2-.28l1.15,8.39A1,1,0,0,1,314.12,273.5Z"/><path class="cls-7" d="M317.87,263.42l1.14,8.39Z"/><path class="cls-8" d="M319.15,272.82A1,1,0,0,1,318,272l-1.15-8.39a1,1,0,0,1,.87-1.14,1,1,0,0,1,1.14.87l1.15,8.38A1,1,0,0,1,319.15,272.82Z"/><path class="cls-7" d="M322.9,262.74l1.14,8.38Z"/><path class="cls-8" d="M324.18,272.13a1,1,0,0,1-1.14-.87l-1.15-8.38a1,1,0,0,1,2-.28l1.14,8.38A1,1,0,0,1,324.18,272.13Z"/><path class="cls-7" d="M327.93,262.05l1.15,8.38Z"/><path class="cls-8" d="M329.21,271.44a1,1,0,0,1-1.14-.87l-1.15-8.38a1,1,0,1,1,2-.28l1.14,8.39A1,1,0,0,1,329.21,271.44Z"/><path class="cls-7" d="M333,261.36l1.15,8.39Z"/><path class="cls-8" d="M334.24,270.75a1,1,0,0,1-1.14-.86L332,261.5a1,1,0,0,1,.86-1.14,1,1,0,0,1,1.15.87l1.14,8.38A1,1,0,0,1,334.24,270.75Z"/><path class="cls-7" d="M334,210.26l-8.38,1.15Z"/><path class="cls-8" d="M334.18,211.27l-8.39,1.14a1,1,0,1,1-.27-2l8.38-1.14a1,1,0,0,1,1.15.86A1,1,0,0,1,334.18,211.27Z"/><path class="cls-7" d="M334.73,215.29l-8.39,1.15Z"/><path class="cls-8" d="M334.86,216.3l-8.38,1.14a1,1,0,0,1-1.14-.86,1,1,0,0,1,.87-1.15l8.38-1.14a1,1,0,0,1,1.14.87A1,1,0,0,1,334.86,216.3Z"/><path class="cls-7" d="M335.41,220.32,327,221.47Z"/><path class="cls-8" d="M335.55,221.33l-8.38,1.15a1,1,0,1,1-.28-2l8.39-1.14a1,1,0,0,1,.27,2Z"/><path class="cls-7" d="M336.1,225.35l-8.38,1.15Z"/><path class="cls-8" d="M336.24,226.36l-8.39,1.15a1,1,0,0,1-.27-2l8.38-1.14a1,1,0,1,1,.28,2Z"/><path class="cls-7" d="M336.79,230.39l-8.39,1.14Z"/><path class="cls-8" d="M336.93,231.39l-8.39,1.15a1,1,0,0,1-1.14-.87,1,1,0,0,1,.87-1.14l8.38-1.15a1,1,0,1,1,.28,2Z"/><path class="cls-7" d="M337.48,235.42l-8.39,1.14Z"/><path class="cls-8" d="M337.61,236.42l-8.38,1.15a1,1,0,0,1-.28-2l8.39-1.15a1,1,0,0,1,.27,2Z"/><path class="cls-7" d="M338.16,240.45l-8.38,1.14Z"/><path class="cls-8" d="M338.3,241.45l-8.38,1.15a1,1,0,1,1-.28-2l8.39-1.15a1,1,0,0,1,1.14.87A1,1,0,0,1,338.3,241.45Z"/><path class="cls-7" d="M338.85,245.48l-8.38,1.14Z"/><path class="cls-8" d="M339,246.48l-8.39,1.15a1,1,0,1,1-.27-2l8.38-1.15a1,1,0,0,1,1.15.87A1,1,0,0,1,339,246.48Z"/><path class="cls-7" d="M339.54,250.51l-8.39,1.14Z"/><path class="cls-8" d="M339.68,251.52l-8.39,1.14a1,1,0,1,1-.27-2l8.38-1.15a1,1,0,0,1,.28,2Z"/><path class="cls-7" d="M340.23,255.54l-8.39,1.15Z"/><path class="cls-8" d="M340.36,256.55,332,257.69a1,1,0,0,1-1.15-.87,1,1,0,0,1,.87-1.14l8.39-1.15a1,1,0,0,1,.27,2Z"/><path class="cls-7" d="M340.91,260.57l-8.38,1.15Z"/><path class="cls-8" d="M341.05,261.58l-8.38,1.14a1,1,0,0,1-1.15-.87,1,1,0,0,1,.87-1.14l8.39-1.14a1,1,0,0,1,1.14.86A1,1,0,0,1,341.05,261.58Z"/><path class="cls-7" d="M275.77,218.22l-8.38,1.15Z"/><path class="cls-8" d="M275.91,219.23l-8.39,1.14a1,1,0,0,1-.27-2l8.38-1.14a1,1,0,0,1,1.15.86A1,1,0,0,1,275.91,219.23Z"/><path class="cls-7" d="M276.46,223.25l-8.39,1.15Z"/><path class="cls-8" d="M276.59,224.26l-8.38,1.14a1,1,0,0,1-1.14-.86,1,1,0,0,1,.87-1.15l8.38-1.14a1,1,0,0,1,1.14.87A1,1,0,0,1,276.59,224.26Z"/><path class="cls-7" d="M277.14,228.28l-8.38,1.15Z"/><path class="cls-8" d="M277.28,229.29l-8.38,1.15a1,1,0,1,1-.28-2l8.39-1.14a1,1,0,1,1,.27,2Z"/><path class="cls-7" d="M277.83,233.31l-8.38,1.15Z"/><path class="cls-8" d="M278,234.32l-8.39,1.15a1,1,0,0,1-.27-2l8.38-1.14a1,1,0,1,1,.28,2Z"/><path class="cls-7" d="M278.52,238.35l-8.39,1.14Z"/><path class="cls-8" d="M278.66,239.35l-8.39,1.15a1,1,0,0,1-1.14-.87,1,1,0,0,1,.87-1.14l8.38-1.15a1,1,0,1,1,.28,2Z"/><path class="cls-7" d="M279.21,243.38l-8.39,1.14Z"/><path class="cls-8" d="M279.34,244.38,271,245.53a1,1,0,0,1-.28-2l8.39-1.15a1,1,0,1,1,.27,2Z"/><path class="cls-7" d="M279.89,248.41l-8.38,1.14Z"/><path class="cls-8" d="M280,249.41l-8.38,1.15a1,1,0,1,1-.28-2l8.39-1.15a1,1,0,0,1,1.14.87A1,1,0,0,1,280,249.41Z"/><path class="cls-7" d="M280.58,253.44l-8.38,1.14Z"/><path class="cls-8" d="M280.72,254.44l-8.39,1.15a1,1,0,0,1-.27-2l8.38-1.15a1,1,0,0,1,1.15.87A1,1,0,0,1,280.72,254.44Z"/><path class="cls-7" d="M281.27,258.47l-8.39,1.14Z"/><path class="cls-8" d="M281.41,259.48,273,260.62a1,1,0,0,1-.27-2l8.38-1.15a1,1,0,0,1,.28,2Z"/><path class="cls-7" d="M282,263.5l-8.39,1.15Z"/><path class="cls-8" d="M282.09,264.51l-8.38,1.14a1,1,0,0,1-1.15-.87,1,1,0,0,1,.87-1.14l8.39-1.15a1,1,0,0,1,.27,2Z"/><path class="cls-7" d="M282.64,268.53l-8.38,1.15Z"/><path class="cls-8" d="M282.78,269.54l-8.38,1.14a1,1,0,0,1-1.15-.87,1,1,0,0,1,.87-1.14l8.39-1.14a1,1,0,0,1,1.14.86A1,1,0,0,1,282.78,269.54Z"/><rect class="cls-4" x="252.37" y="294.77" width="142.96" height="296.2" rx="11.76" ry="11.76"/><path class="cls-14" d="M395.34,579.21V473.39c-11.53-23.95-39.17-40.85-71.49-40.85s-60,16.9-71.48,40.85V579.21A11.77,11.77,0,0,0,264.13,591H383.58A11.77,11.77,0,0,0,395.34,579.21Z"/><rect class="cls-14" x="261.07" y="314.54" width="125.56" height="32.65"/><rect class="cls-14" x="261.07" y="352.21" width="125.56" height="32.65"/><rect class="cls-11" x="274.67" y="394.11" width="19.09" height="9.02"/><rect class="cls-15" x="274.67" y="394.11" width="19.09" height="3.32"/><rect class="cls-11" x="304.07" y="394.11" width="19.09" height="9.02"/><rect class="cls-15" x="304.07" y="394.11" width="19.09" height="3.32"/><path class="cls-14" d="M343.49,399.36a3.59,3.59,0,1,1-3.59-3.59A3.58,3.58,0,0,1,343.49,399.36Z"/><path class="cls-15" d="M339.9,402.17a2.81,2.81,0,1,1,2.81-2.81A2.81,2.81,0,0,1,339.9,402.17Z"/><path class="cls-14" d="M357.46,399.36a3.6,3.6,0,1,1-3.6-3.59A3.59,3.59,0,0,1,357.46,399.36Z"/><circle class="cls-15" cx="353.86" cy="399.36" r="2.81"/><circle class="cls-16" cx="370.23" cy="399.36" r="2.81"/><rect class="cls-4" x="370.23" y="357.79" width="11.61" height="5.39"/><rect class="cls-4" x="370.23" y="319.82" width="11.61" height="5.39"/><path d="M252.37,575.53v3.68A11.77,11.77,0,0,0,264.13,591H383.58a11.77,11.77,0,0,0,11.76-11.76v-3.68Z"/><polygon class="cls-15" points="322.92 457.55 291.98 509.48 322.24 528.1 352.86 510.07 322.92 457.55"/><polygon class="cls-4" points="322.2 532.17 292.61 512.45 321.99 553.83 352.17 513.03 322.2 532.17"/><polygon class="cls-17" points="322.52 499.09 291.98 509.48 322.24 528.1 352.86 510.07 322.52 499.09"/></g></g></g></svg>