<svg xmlns="http://www.w3.org/2000/svg" xmlns:xlink="http://www.w3.org/1999/xlink" viewBox="0 0 644.6 644"><defs><style>.cls-1{isolation:isolate;}.cls-2{fill:#fff;}.cls-2,.cls-3{opacity:0.6;}.cls-3{fill:url(#radial-gradient);}.cls-4{fill:#4e4c4f;}.cls-5{fill:#3c3b3d;}.cls-6{fill:#e7e8ed;}.cls-7{fill:#282729;}.cls-8{fill:#4a4e4f;}.cls-9{font-size:14.03px;font-family:MyriadPro-Regular, Myriad Pro;}.cls-10{mix-blend-mode:multiply;}.cls-11{fill:#b3b3b3;}.cls-12{font-size:11.06px;letter-spacing:0.01em;}.cls-12,.cls-13{stroke:#231f20;stroke-miterlimit:10;stroke-width:0.75px;font-family:MicrosoftJhengHeiRegular, Microsoft JhengHei;}.cls-13{font-size:11.39px;letter-spacing:0.01em;}.cls-14{fill:#302f30;}.cls-15{fill:#787878;}.cls-16{fill:#50c0d8;}.cls-17{fill:#424242;}</style><radialGradient id="radial-gradient" cx="322.6" cy="322" r="322" gradientUnits="userSpaceOnUse"><stop offset="0" stop-color="#c8922d" stop-opacity="0.5"/><stop offset="1" stop-color="#c99126"/></radialGradient></defs><title>Asset 16</title><g class="cls-1"><g id="Layer_2" data-name="Layer 2"><g id="objects"><circle class="cls-2" cx="322" cy="322" r="322"/><circle class="cls-3" cx="322.6" cy="322" r="322"/><rect class="cls-4" x="295.1" y="306.45" width="56.67" height="56.67" rx="2.88" ry="2.88" transform="translate(-44.05 620.53) rotate(-83.85)"/><rect class="cls-5" x="307.37" y="318.72" width="32.14" height="32.14" rx="2.71" ry="2.71" transform="translate(-44.05 620.53) rotate(-83.85)"/><rect class="cls-6" x="308.56" y="319.92" width="29.75" height="29.75" rx="1.51" ry="1.51" transform="translate(-44.05 620.53) rotate(-83.85)"/><path class="cls-7" d="M302.94,300.67l-.86,8Z"/><path class="cls-8" d="M302,309.59a1,1,0,0,1-.85-1.06l.86-8a1,1,0,0,1,1.05-.85,1,1,0,0,1,.86,1.06l-.86,8A1,1,0,0,1,302,309.59Z"/><path class="cls-7" d="M307.72,301.18l-.86,8Z"/><path class="cls-8" d="M306.76,310.1a1,1,0,0,1-.85-1.06l.85-8a1,1,0,0,1,1.92.2l-.86,8A1,1,0,0,1,306.76,310.1Z"/><path class="cls-7" d="M312.5,301.7l-.86,8Z"/><path class="cls-8" d="M311.54,310.62a1,1,0,0,1-.85-1.06l.85-8a1,1,0,1,1,1.91.21l-.85,8A1,1,0,0,1,311.54,310.62Z"/><path class="cls-7" d="M317.28,302.21l-.86,8Z"/><path class="cls-8" d="M316.32,311.13a1,1,0,0,1-.86-1.06l.86-8a1,1,0,1,1,1.91.2l-.85,8A1,1,0,0,1,316.32,311.13Z"/><path class="cls-7" d="M322.06,302.72l-.86,8Z"/><path class="cls-8" d="M321.1,311.64a1,1,0,0,1-.86-1.05l.86-8a1,1,0,1,1,1.91.21l-.86,8A1,1,0,0,1,321.1,311.64Z"/><path class="cls-7" d="M326.83,303.24l-.85,8Z"/><path class="cls-8" d="M325.87,312.16a1,1,0,0,1-.85-1.06l.86-8a1,1,0,0,1,1.06-.86,1,1,0,0,1,.85,1.06l-.86,8A1,1,0,0,1,325.87,312.16Z"/><path class="cls-7" d="M331.61,303.75l-.85,8Z"/><path class="cls-8" d="M330.65,312.67a1,1,0,0,1-.85-1.05l.86-8a1,1,0,0,1,1.06-.85,1,1,0,0,1,.85,1.06l-.86,8A1,1,0,0,1,330.65,312.67Z"/><path class="cls-7" d="M336.39,304.27l-.86,8Z"/><path class="cls-8" d="M335.43,313.19a1,1,0,0,1-.85-1.06l.86-8a1,1,0,1,1,1.91.2l-.86,8A1,1,0,0,1,335.43,313.19Z"/><path class="cls-7" d="M341.17,304.78l-.86,8Z"/><path class="cls-8" d="M340.21,313.7a1,1,0,0,1-.85-1.06l.86-8a1,1,0,0,1,1-.85,1,1,0,0,1,.86,1.06l-.86,8A1,1,0,0,1,340.21,313.7Z"/><path class="cls-7" d="M346,305.3l-.86,8Z"/><path class="cls-8" d="M345,314.22a1,1,0,0,1-.85-1.06l.85-8a1,1,0,0,1,1.92.21l-.86,8A1,1,0,0,1,345,314.22Z"/><path class="cls-7" d="M350.73,305.81l-.86,8Z"/><path class="cls-8" d="M349.77,314.73a1,1,0,0,1-.86-1.06l.86-8a1,1,0,0,1,1.91.21l-.85,8A1,1,0,0,1,349.77,314.73Z"/><path class="cls-7" d="M297,355.83l-.86,8Z"/><path class="cls-8" d="M296,364.75a1,1,0,0,1-.85-1.05l.86-8a1,1,0,0,1,1.05-.85,1,1,0,0,1,.86,1.06l-.86,8A1,1,0,0,1,296,364.75Z"/><path class="cls-7" d="M301.78,356.35l-.86,8Z"/><path class="cls-8" d="M300.82,365.27a1,1,0,0,1-.85-1.06l.85-8a1,1,0,1,1,1.92.2l-.86,8A1,1,0,0,1,300.82,365.27Z"/><path class="cls-7" d="M306.56,356.86l-.86,8Z"/><path class="cls-8" d="M305.6,365.78a1,1,0,0,1-.85-1.06l.85-8a1,1,0,1,1,1.91.21l-.85,8A1,1,0,0,1,305.6,365.78Z"/><path class="cls-7" d="M311.34,357.38l-.86,8Z"/><path class="cls-8" d="M310.38,366.3a1,1,0,0,1-.86-1.06l.86-8a1,1,0,0,1,1.06-.86,1,1,0,0,1,.85,1.06l-.85,8A1,1,0,0,1,310.38,366.3Z"/><path class="cls-7" d="M316.12,357.89l-.86,8Z"/><path class="cls-8" d="M315.16,366.81a1,1,0,0,1-.86-1.06l.86-8a1,1,0,1,1,1.91.21l-.86,8A1,1,0,0,1,315.16,366.81Z"/><path class="cls-7" d="M320.89,358.41l-.85,8Z"/><path class="cls-8" d="M319.93,367.33a1,1,0,0,1-.85-1.06l.86-8a1,1,0,0,1,1.91.21l-.86,8A1,1,0,0,1,319.93,367.33Z"/><path class="cls-7" d="M325.67,358.92l-.85,8Z"/><path class="cls-8" d="M324.71,367.84a1,1,0,0,1-.85-1.06l.86-8a1,1,0,0,1,1.91.2l-.86,8A1,1,0,0,1,324.71,367.84Z"/><path class="cls-7" d="M330.45,359.44l-.86,8Z"/><path class="cls-8" d="M329.49,368.36a1,1,0,0,1-.85-1.06l.86-8a1,1,0,0,1,1.05-.85,1,1,0,0,1,.86,1.06l-.86,8A1,1,0,0,1,329.49,368.36Z"/><path class="cls-7" d="M335.23,360l-.86,8Z"/><path class="cls-8" d="M334.27,368.87a1,1,0,0,1-.85-1.06l.85-8a1,1,0,1,1,1.92.2l-.86,8A1,1,0,0,1,334.27,368.87Z"/><path class="cls-7" d="M340,360.47l-.86,8Z"/><path class="cls-8" d="M339.05,369.39a1,1,0,0,1-.85-1.06l.85-8a1,1,0,1,1,1.91.21l-.85,8A1,1,0,0,1,339.05,369.39Z"/><path class="cls-7" d="M344.79,361l-.86,8Z"/><path class="cls-8" d="M343.83,369.9a1,1,0,0,1-.86-1.06l.86-8a1,1,0,0,1,1.06-.86,1,1,0,0,1,.85,1.06l-.85,8A1,1,0,0,1,343.83,369.9Z"/><path class="cls-7" d="M357.42,314.28l-8-.86Z"/><path class="cls-8" d="M357.32,315.23l-8-.86a1,1,0,0,1-.85-1.05,1,1,0,0,1,1.06-.86l8,.86a1,1,0,0,1-.2,1.91Z"/><path class="cls-7" d="M356.9,319.06l-8-.86Z"/><path class="cls-8" d="M356.8,320l-8-.86a1,1,0,0,1-.86-1.06,1,1,0,0,1,1.06-.85l8,.86a1,1,0,1,1-.21,1.91Z"/><path class="cls-7" d="M356.39,323.83l-8-.85Z"/><path class="cls-8" d="M356.29,324.79l-8-.86a1,1,0,1,1,.21-1.91l8,.86a1,1,0,1,1-.2,1.91Z"/><path class="cls-7" d="M355.88,328.61l-8-.85Z"/><path class="cls-8" d="M355.77,329.57l-8-.86a1,1,0,0,1,.2-1.91l8,.86a1,1,0,0,1,.85,1.06A1,1,0,0,1,355.77,329.57Z"/><path class="cls-7" d="M355.36,333.39l-8-.86Z"/><path class="cls-8" d="M355.26,334.35l-8-.86a1,1,0,0,1,.21-1.91l8,.86a1,1,0,1,1-.2,1.91Z"/><path class="cls-7" d="M354.85,338.17l-8-.86Z"/><path class="cls-8" d="M354.74,339.13l-8-.86a1,1,0,1,1,.21-1.91l8,.85a1,1,0,0,1-.21,1.92Z"/><path class="cls-7" d="M354.33,343l-8-.86Z"/><path class="cls-8" d="M354.23,343.9l-8-.85a1,1,0,0,1-.85-1.06,1,1,0,0,1,1.06-.85l8,.85a1,1,0,0,1,.86,1.06A1,1,0,0,1,354.23,343.9Z"/><path class="cls-7" d="M353.82,347.73l-8-.86Z"/><path class="cls-8" d="M353.71,348.68l-8-.85a1,1,0,0,1,.21-1.92l8,.86a1,1,0,0,1-.21,1.91Z"/><path class="cls-7" d="M353.3,352.51l-8-.86Z"/><path class="cls-8" d="M353.2,353.46l-8-.86a1,1,0,1,1,.2-1.91l8,.86a1,1,0,0,1-.21,1.91Z"/><path class="cls-7" d="M352.79,357.28l-8-.85Z"/><path class="cls-8" d="M352.69,358.24l-8-.86a1,1,0,0,1-.85-1.06,1,1,0,0,1,1.06-.85l8,.86a1,1,0,0,1-.2,1.91Z"/><path class="cls-7" d="M352.27,362.06l-8-.85Z"/><path class="cls-8" d="M352.17,363l-8-.86a1,1,0,1,1,.2-1.91l8,.86a1,1,0,1,1-.21,1.91Z"/><path class="cls-7" d="M302.07,308.32l-8-.86Z"/><path class="cls-8" d="M302,309.27l-8-.85a1,1,0,0,1,.21-1.92l8,.86a1,1,0,0,1,.86,1.06A1,1,0,0,1,302,309.27Z"/><path class="cls-7" d="M301.56,313.1l-8-.86Z"/><path class="cls-8" d="M301.45,314.05l-8-.86a1,1,0,0,1-.85-1.06,1,1,0,0,1,1.05-.85l8,.86a1,1,0,0,1-.21,1.91Z"/><path class="cls-7" d="M301,317.87l-8-.85Z"/><path class="cls-8" d="M300.94,318.83l-8-.86a1,1,0,0,1,.21-1.91l8,.86A1,1,0,0,1,302,318,1,1,0,0,1,300.94,318.83Z"/><path class="cls-7" d="M300.53,322.65l-8-.85Z"/><path class="cls-8" d="M300.42,323.61l-8-.86a1,1,0,1,1,.21-1.91l8,.86a1,1,0,1,1-.21,1.91Z"/><path class="cls-7" d="M300,327.43l-8-.86Z"/><path class="cls-8" d="M299.91,328.39l-8-.86a1,1,0,0,1-.86-1.06,1,1,0,0,1,1.06-.85l8,.86a1,1,0,0,1,.85,1A1,1,0,0,1,299.91,328.39Z"/><path class="cls-7" d="M299.5,332.21l-8-.86Z"/><path class="cls-8" d="M299.39,333.17l-8-.86a1,1,0,0,1,.21-1.91l8,.85a1,1,0,0,1-.21,1.92Z"/><path class="cls-7" d="M299,337l-8-.86Z"/><path class="cls-8" d="M298.88,337.94l-8-.85a1,1,0,0,1-.86-1.06,1,1,0,0,1,1.06-.85l8,.85a1,1,0,1,1-.21,1.91Z"/><path class="cls-7" d="M298.47,341.77l-8-.86Z"/><path class="cls-8" d="M298.37,342.72l-8-.85a1,1,0,0,1-.85-1.06,1,1,0,0,1,1.06-.86l8,.86a1,1,0,0,1-.2,1.91Z"/><path class="cls-7" d="M298,346.55l-8-.86Z"/><path class="cls-8" d="M297.85,347.5l-8-.86a1,1,0,0,1-.86-1.05,1,1,0,0,1,1.06-.86l8,.86a1,1,0,1,1-.21,1.91Z"/><path class="cls-7" d="M297.44,351.33l-8-.86Z"/><path class="cls-8" d="M297.34,352.28l-8-.86a1,1,0,0,1-.85-1.06,1,1,0,0,1,1.06-.85l8,.86a1,1,0,1,1-.2,1.91Z"/><path class="cls-7" d="M296.92,356.1l-8-.85Z"/><path class="cls-8" d="M296.82,357.06l-8-.86a1,1,0,0,1,.2-1.91l8,.86a1,1,0,0,1,.85,1.06A1,1,0,0,1,296.82,357.06Z"/><text class="cls-9" transform="matrix(0.99, 0.11, -0.11, 0.99, 310.93, 337.31)">CPU</text><g class="cls-10"><path class="cls-11" d="M406.78,268.71a1,1,0,0,0,.59-1.89l-3.19-1,.89-2.83,3.18,1a1,1,0,0,0,1.24-.65,1,1,0,0,0-.65-1.23l-3.18-1,.14-.45a3,3,0,0,0-1.94-3.71l-.45-.14,1-3.32a1,1,0,1,0-1.88-.59l-1,3.32-2.83-.88,1-3.33a1,1,0,1,0-1.88-.59l-1,3.33-2.82-.89,1-3.32a1,1,0,0,0-.65-1.24,1,1,0,0,0-1.23.65l-1.05,3.32-2.82-.88,1-3.33a1,1,0,1,0-1.88-.59l-1,3.33-2.83-.89,1-3.32a1,1,0,0,0-.64-1.24,1,1,0,0,0-1.24.65l-1,3.32-2.82-.88,1-3.33a1,1,0,0,0-.65-1.24,1,1,0,0,0-1.23.65L378,248.86l-2.82-.89,1-3.32a1,1,0,1,0-1.88-.59l-1,3.32-2.83-.88,1.05-3.33a1,1,0,0,0-1.89-.59l-1,3.33-2.82-.89,1-3.32a1,1,0,0,0-.65-1.24,1,1,0,0,0-1.23.65l-1.05,3.32-2.82-.88,1-3.33a1,1,0,1,0-1.88-.59l-1,3.33-2.83-.89,1.05-3.32a1,1,0,1,0-1.89-.59l-1,3.32-.45-.14a3,3,0,0,0-3.71,1.94l-.14.45-3.67-1.15a1,1,0,0,0-1.24.64,1,1,0,0,0,.65,1.24l3.67,1.15-.88,2.83L345,247.28a1,1,0,0,0-.59,1.89l3.68,1.15-.89,2.82L343.54,252a1,1,0,0,0-1.24.65,1,1,0,0,0,.65,1.23l3.67,1.15-.88,2.83-3.68-1.15a1,1,0,0,0-1.23.64,1,1,0,0,0,.64,1.24l3.68,1.15-.89,2.83-3.67-1.16a1,1,0,0,0-.59,1.89l3.67,1.15-.88,2.82-3.68-1.15a1,1,0,0,0-1.23.65,1,1,0,0,0,.64,1.23l3.68,1.15-.89,2.83-3.67-1.15a1,1,0,0,0-1.24.64,1,1,0,0,0,.65,1.24l3.67,1.15-.88,2.82-3.68-1.15a1,1,0,0,0-.59,1.89l3.68,1.15-.89,2.82-3.67-1.15a1,1,0,0,0-1.24.65,1,1,0,0,0,.65,1.23l3.67,1.15-.88,2.83-3.68-1.15a1,1,0,0,0-1.23.64,1,1,0,0,0,.64,1.24L336.3,288l-.89,2.82-3.67-1.15a1,1,0,0,0-1.24.65,1,1,0,0,0,.65,1.23l3.67,1.16-.14.45a3,3,0,0,0,1.94,3.7l.45.14L336,300.33a1,1,0,0,0,.64,1.24,1,1,0,0,0,1.24-.65l1.05-3.36,2.83.89-1.06,3.36a1,1,0,1,0,1.89.59l1.05-3.36,2.82.88-1.05,3.36a1,1,0,0,0,.65,1.24,1,1,0,0,0,1.23-.65l1.06-3.36,2.82.89-1.05,3.36a1,1,0,1,0,1.88.59l1.05-3.36,2.83.88-1.06,3.36a1,1,0,0,0,1.89.59l1-3.36,2.82.89-1.05,3.36a1,1,0,0,0,.65,1.24,1,1,0,0,0,1.23-.65l1.06-3.36,2.82.88-1.05,3.36a1,1,0,0,0,.64,1.24,1,1,0,0,0,1.24-.65l1.05-3.36,2.83.89L369,310.66a1,1,0,1,0,1.89.59l1-3.36,2.82.88-1.05,3.36a1,1,0,0,0,.65,1.24,1,1,0,0,0,1.23-.65l1.06-3.36,2.82.89-1.05,3.36a1,1,0,1,0,1.88.59l1.05-3.36,2.83.88-1.06,3.36a1,1,0,1,0,1.89.59l1-3.36.45.14a3,3,0,0,0,3.71-1.93l.14-.45,3.18,1a1,1,0,1,0,.59-1.89l-3.18-1,.88-2.82,3.19,1a1,1,0,0,0,1.24-.65,1,1,0,0,0-.65-1.23l-3.19-1,.89-2.83,3.18,1a1,1,0,0,0,1.24-.64,1,1,0,0,0-.65-1.24l-3.18-1,.88-2.82,3.19,1a1,1,0,0,0,.59-1.89l-3.19-1,.89-2.82,3.18,1a1,1,0,0,0,1.24-.65,1,1,0,0,0-.65-1.23l-3.18-1,.88-2.83,3.19,1a1,1,0,1,0,.59-1.88l-3.19-1,.89-2.82,3.18,1a1,1,0,1,0,.59-1.89l-3.18-1,.88-2.83,3.19,1a1,1,0,0,0,1.24-.65,1,1,0,0,0-.65-1.23l-3.19-1,.89-2.83,3.18,1a1,1,0,0,0,1.24-.64,1,1,0,0,0-.65-1.24l-3.18-1,.88-2.82Z"/></g><rect class="cls-4" x="341.16" y="247.82" width="58.15" height="58.15" rx="2.96" ry="2.96" transform="matrix(0.3, -0.95, 0.95, 0.3, -4.7, 547.39)"/><rect class="cls-5" x="354.13" y="260.53" width="32.98" height="32.98" rx="2.78" ry="2.78" transform="translate(-4.55 547.85) rotate(-72.6)"/><rect class="cls-6" x="354.98" y="261.64" width="30.52" height="30.53" rx="1.55" ry="1.55" transform="translate(-4.7 547.39) rotate(-72.6)"/><text class="cls-12" transform="translate(358.88 276.87) rotate(17.4)">CPU</text><path class="cls-7" d="M356.44,238.45,354,246.29Z"/><path class="cls-8" d="M353.69,247.24A1,1,0,0,1,353,246l2.46-7.84a1,1,0,1,1,1.89.59l-2.46,7.84A1,1,0,0,1,353.69,247.24Z"/><path class="cls-7" d="M361.15,239.93l-2.46,7.84Z"/><path class="cls-8" d="M358.4,248.71a1,1,0,0,1-.65-1.24l2.46-7.84a1,1,0,1,1,1.88.59l-2.46,7.84A1,1,0,0,1,358.4,248.71Z"/><path class="cls-7" d="M365.86,241.4l-2.46,7.84Z"/><path class="cls-8" d="M363.1,250.19a1,1,0,0,1-.64-1.24l2.46-7.84a1,1,0,0,1,1.23-.65,1,1,0,0,1,.65,1.24l-2.46,7.84A1,1,0,0,1,363.1,250.19Z"/><path class="cls-7" d="M370.56,242.88l-2.45,7.84Z"/><path class="cls-8" d="M367.81,251.66a1,1,0,0,1-.65-1.24l2.46-7.84a1,1,0,0,1,1.89.59L369.05,251A1,1,0,0,1,367.81,251.66Z"/><path class="cls-7" d="M375.27,244.35l-2.46,7.84Z"/><path class="cls-8" d="M372.52,253.14a1,1,0,0,1-.65-1.24l2.46-7.84a1,1,0,1,1,1.88.59l-2.46,7.84A1,1,0,0,1,372.52,253.14Z"/><path class="cls-7" d="M380,245.83l-2.46,7.84Z"/><path class="cls-8" d="M377.22,254.61a1,1,0,0,1-.64-1.24l2.46-7.84a1,1,0,0,1,1.23-.65,1,1,0,0,1,.65,1.24L378.46,254A1,1,0,0,1,377.22,254.61Z"/><path class="cls-7" d="M384.68,247.3l-2.45,7.84Z"/><path class="cls-8" d="M381.93,256.09a1,1,0,0,1-.65-1.24l2.46-7.84a1,1,0,0,1,1.24-.65,1,1,0,0,1,.64,1.24l-2.45,7.84A1,1,0,0,1,381.93,256.09Z"/><path class="cls-7" d="M389.39,248.78l-2.46,7.84Z"/><path class="cls-8" d="M386.64,257.56a1,1,0,0,1-.65-1.24l2.46-7.84a1,1,0,1,1,1.88.59l-2.46,7.84A1,1,0,0,1,386.64,257.56Z"/><path class="cls-7" d="M394.1,250.25l-2.46,7.84Z"/><path class="cls-8" d="M391.34,259a1,1,0,0,1-.64-1.24l2.46-7.84a1,1,0,0,1,1.23-.65,1,1,0,0,1,.65,1.24l-2.46,7.84A1,1,0,0,1,391.34,259Z"/><path class="cls-7" d="M398.8,251.73l-2.45,7.84Z"/><path class="cls-8" d="M396.05,260.51a1,1,0,0,1-.65-1.24l2.46-7.84a1,1,0,1,1,1.88.59l-2.45,7.84A1,1,0,0,1,396.05,260.51Z"/><path class="cls-7" d="M403.51,253.2,401.05,261Z"/><path class="cls-8" d="M400.76,262a1,1,0,0,1-.65-1.24l2.46-7.84a1,1,0,1,1,1.88.59L402,261.34A1,1,0,0,1,400.76,262Z"/><path class="cls-7" d="M339.42,292.79,337,300.63Z"/><path class="cls-8" d="M336.66,301.57a1,1,0,0,1-.64-1.24l2.46-7.84a1,1,0,0,1,1.23-.65,1,1,0,0,1,.65,1.24l-2.46,7.84A1,1,0,0,1,336.66,301.57Z"/><path class="cls-7" d="M344.12,294.26l-2.45,7.84Z"/><path class="cls-8" d="M341.37,303.05a1,1,0,0,1-.65-1.24l2.46-7.84a1,1,0,0,1,1.24-.65,1,1,0,0,1,.64,1.24l-2.45,7.84A1,1,0,0,1,341.37,303.05Z"/><path class="cls-7" d="M348.83,295.74l-2.46,7.84Z"/><path class="cls-8" d="M346.08,304.52a1,1,0,0,1-.65-1.24l2.46-7.84a1,1,0,0,1,1.23-.65,1,1,0,0,1,.65,1.24l-2.46,7.84A1,1,0,0,1,346.08,304.52Z"/><path class="cls-7" d="M353.54,297.21l-2.46,7.84Z"/><path class="cls-8" d="M350.78,306a1,1,0,0,1-.64-1.24l2.46-7.84a1,1,0,0,1,1.23-.65,1,1,0,0,1,.65,1.24L352,305.35A1,1,0,0,1,350.78,306Z"/><path class="cls-7" d="M358.24,298.69l-2.45,7.84Z"/><path class="cls-8" d="M355.49,307.47a1,1,0,0,1-.65-1.24l2.46-7.84a1,1,0,1,1,1.88.59l-2.45,7.84A1,1,0,0,1,355.49,307.47Z"/><path class="cls-7" d="M363,300.16,360.49,308Z"/><path class="cls-8" d="M360.2,309a1,1,0,0,1-.65-1.24l2.46-7.84a1,1,0,0,1,1.23-.65,1,1,0,0,1,.65,1.24l-2.46,7.84A1,1,0,0,1,360.2,309Z"/><path class="cls-7" d="M367.66,301.64l-2.46,7.84Z"/><path class="cls-8" d="M364.9,310.42a1,1,0,0,1-.64-1.24l2.45-7.84a1,1,0,1,1,1.89.59l-2.46,7.84A1,1,0,0,1,364.9,310.42Z"/><path class="cls-7" d="M372.36,303.11,369.9,311Z"/><path class="cls-8" d="M369.61,311.9a1,1,0,0,1-.65-1.24l2.46-7.84a1,1,0,0,1,1.24-.65,1,1,0,0,1,.64,1.24l-2.45,7.84A1,1,0,0,1,369.61,311.9Z"/><path class="cls-7" d="M377.07,304.59l-2.46,7.84Z"/><path class="cls-8" d="M374.32,313.37a1,1,0,0,1-.65-1.24l2.46-7.84a1,1,0,0,1,1.23-.65,1,1,0,0,1,.65,1.24l-2.46,7.84A1,1,0,0,1,374.32,313.37Z"/><path class="cls-7" d="M381.78,306.06l-2.46,7.84Z"/><path class="cls-8" d="M379,314.85a1,1,0,0,1-.64-1.24l2.45-7.84a1,1,0,0,1,1.24-.65,1,1,0,0,1,.65,1.23l-2.46,7.85A1,1,0,0,1,379,314.85Z"/><path class="cls-7" d="M386.48,307.53,384,315.38Z"/><path class="cls-8" d="M383.73,316.32a1,1,0,0,1-.65-1.24l2.46-7.84a1,1,0,1,1,1.88.59L385,315.67A1,1,0,0,1,383.73,316.32Z"/><path class="cls-7" d="M408.55,263.06l-7.85-2.46Z"/><path class="cls-8" d="M408.25,264l-7.84-2.46a1,1,0,0,1-.65-1.23,1,1,0,0,1,1.24-.65l7.84,2.46a1,1,0,0,1,.65,1.23A1,1,0,0,1,408.25,264Z"/><path class="cls-7" d="M407.07,267.77l-7.84-2.46Z"/><path class="cls-8" d="M406.78,268.71l-7.85-2.46a1,1,0,0,1-.64-1.24,1,1,0,0,1,1.23-.64l7.85,2.45a1,1,0,0,1-.59,1.89Z"/><path class="cls-7" d="M405.6,272.47,397.75,270Z"/><path class="cls-8" d="M405.3,273.41,397.46,271a1,1,0,0,1,.59-1.89l7.84,2.46a1,1,0,0,1,.65,1.24A1,1,0,0,1,405.3,273.41Z"/><path class="cls-7" d="M404.12,277.18l-7.84-2.46Z"/><path class="cls-8" d="M403.83,278.12,396,275.66a1,1,0,0,1-.65-1.23,1,1,0,0,1,1.24-.65l7.84,2.46a1,1,0,0,1,.65,1.23A1,1,0,0,1,403.83,278.12Z"/><path class="cls-7" d="M402.65,281.89l-7.85-2.46Z"/><path class="cls-8" d="M402.35,282.83l-7.84-2.46a1,1,0,1,1,.59-1.88l7.84,2.45a1,1,0,1,1-.59,1.89Z"/><path class="cls-7" d="M401.17,286.59l-7.84-2.46Z"/><path class="cls-8" d="M400.88,287.53,393,285.08a1,1,0,1,1,.59-1.89l7.84,2.46a1,1,0,1,1-.59,1.88Z"/><path class="cls-7" d="M399.7,291.3l-7.84-2.46Z"/><path class="cls-8" d="M399.4,292.24l-7.84-2.46a1,1,0,0,1-.65-1.23,1,1,0,0,1,1.24-.65l7.84,2.46a1,1,0,0,1,.65,1.23A1,1,0,0,1,399.4,292.24Z"/><path class="cls-7" d="M398.22,296l-7.84-2.46Z"/><path class="cls-8" d="M397.93,297l-7.84-2.46a1,1,0,0,1-.65-1.24,1,1,0,0,1,1.24-.64l7.84,2.45a1,1,0,0,1-.59,1.89Z"/><path class="cls-7" d="M396.75,300.71l-7.84-2.46Z"/><path class="cls-8" d="M396.45,301.65l-7.84-2.46A1,1,0,0,1,388,298a1,1,0,0,1,1.24-.65l7.84,2.46a1,1,0,0,1,.65,1.24A1,1,0,0,1,396.45,301.65Z"/><path class="cls-7" d="M395.27,305.42,387.43,303Z"/><path class="cls-8" d="M395,306.36l-7.84-2.46a1,1,0,0,1-.65-1.23,1,1,0,0,1,1.24-.65l7.84,2.46a1,1,0,0,1,.65,1.23A1,1,0,0,1,395,306.36Z"/><path class="cls-7" d="M393.8,310.12,386,307.67Z"/><path class="cls-8" d="M393.5,311.07l-7.84-2.46a1,1,0,0,1-.65-1.24,1,1,0,0,1,1.24-.64l7.84,2.45a1,1,0,1,1-.59,1.89Z"/><path class="cls-7" d="M354,246l-7.85-2.46Z"/><path class="cls-8" d="M353.74,246.92l-7.84-2.46a1,1,0,0,1-.65-1.24,1,1,0,0,1,1.24-.64l7.84,2.45a1,1,0,0,1-.59,1.89Z"/><path class="cls-7" d="M352.56,250.68l-7.84-2.46Z"/><path class="cls-8" d="M352.27,251.62l-7.85-2.45a1,1,0,0,1,.59-1.89l7.85,2.46a1,1,0,0,1,.64,1.24A1,1,0,0,1,352.27,251.62Z"/><path class="cls-7" d="M351.09,255.39l-7.85-2.46Z"/><path class="cls-8" d="M350.79,256.33,343,253.87a1,1,0,0,1-.65-1.23,1,1,0,0,1,1.24-.65l7.84,2.46a1,1,0,0,1,.65,1.23A1,1,0,0,1,350.79,256.33Z"/><path class="cls-7" d="M349.61,260.1l-7.84-2.46Z"/><path class="cls-8" d="M349.32,261l-7.85-2.46a1,1,0,0,1-.64-1.24,1,1,0,0,1,1.23-.64l7.85,2.45a1,1,0,0,1-.59,1.89Z"/><path class="cls-7" d="M348.14,264.8l-7.85-2.46Z"/><path class="cls-8" d="M347.84,265.74,340,263.29a1,1,0,0,1,.59-1.89l7.84,2.46a1,1,0,1,1-.59,1.88Z"/><path class="cls-7" d="M346.66,269.51l-7.84-2.46Z"/><path class="cls-8" d="M346.37,270.45,338.52,268a1,1,0,0,1-.64-1.23,1,1,0,0,1,1.23-.65l7.85,2.46a1,1,0,0,1,.64,1.23A1,1,0,0,1,346.37,270.45Z"/><path class="cls-7" d="M345.19,274.22l-7.85-2.46Z"/><path class="cls-8" d="M344.89,275.16l-7.84-2.46a1,1,0,0,1-.65-1.24,1,1,0,0,1,1.24-.64l7.84,2.45a1,1,0,0,1-.59,1.89Z"/><path class="cls-7" d="M343.71,278.92l-7.84-2.46Z"/><path class="cls-8" d="M343.42,279.86l-7.85-2.45a1,1,0,0,1,.59-1.89L344,278a1,1,0,0,1,.64,1.24A1,1,0,0,1,343.42,279.86Z"/><path class="cls-7" d="M342.24,283.63l-7.85-2.46Z"/><path class="cls-8" d="M341.94,284.57l-7.84-2.46a1,1,0,0,1-.65-1.23,1,1,0,0,1,1.24-.65l7.84,2.46a1,1,0,0,1,.65,1.23A1,1,0,0,1,341.94,284.57Z"/><path class="cls-7" d="M340.76,288.34l-7.84-2.46Z"/><path class="cls-8" d="M340.47,289.28l-7.85-2.46a1,1,0,0,1-.64-1.24,1,1,0,0,1,1.23-.64l7.85,2.45a1,1,0,0,1-.59,1.89Z"/><path class="cls-7" d="M339.29,293l-7.85-2.46Z"/><path class="cls-8" d="M339,294l-7.84-2.46a1,1,0,0,1-.65-1.23,1,1,0,0,1,1.24-.65l7.84,2.46A1,1,0,1,1,339,294Z"/><g class="cls-10"><path class="cls-11" d="M333.54,190.14a1,1,0,1,0-.28-2l-3.4.47-.42-3,3.41-.47a1,1,0,0,0-.27-2l-3.41.47-.07-.48a3,3,0,0,0-3.43-2.61l-.48.07-.48-3.56a1,1,0,0,0-2,.27l.49,3.56-3,.41-.48-3.55a1,1,0,0,0-2,.27l.49,3.56-3,.41-.49-3.56a1,1,0,0,0-1.14-.86,1,1,0,0,0-.87,1.14l.49,3.56-3,.41-.49-3.56a1,1,0,1,0-2,.28l.49,3.55-3,.42-.49-3.56a1,1,0,0,0-2,.27l.49,3.56-3,.41-.49-3.55a1,1,0,0,0-2,.27l.49,3.56-3,.41-.49-3.56a1,1,0,1,0-2,.28l.48,3.55-3,.42-.49-3.56a1,1,0,1,0-2,.28l.48,3.55-3,.41-.48-3.55a1,1,0,0,0-2,.27l.48,3.56-3,.41-.48-3.55a1,1,0,0,0-1.15-.87,1,1,0,0,0-.86,1.14l.48,3.56-3,.41-.48-3.56a1,1,0,1,0-2,.28l.49,3.55-.48.07a3,3,0,0,0-2.6,3.43l.06.48-3.93.54a1,1,0,0,0-.87,1.14,1,1,0,0,0,1.15.87l3.93-.54.41,3-3.93.54a1,1,0,0,0-.87,1.14,1,1,0,0,0,1.14.87l3.93-.54.42,3-3.93.54a1,1,0,0,0,.27,2l3.93-.54.41,3-3.93.54a1,1,0,1,0,.28,2l3.93-.54.41,3-3.93.54a1,1,0,1,0,.28,2l3.93-.54.41,3-3.93.54a1,1,0,0,0,.27,2l3.93-.53.41,3-3.93.54a1,1,0,0,0-.86,1.14,1,1,0,0,0,1.14.87l3.93-.53.41,3-3.93.54a1,1,0,0,0-.87,1.15,1,1,0,0,0,1.15.86l3.93-.53.41,3-3.93.53a1,1,0,1,0,.27,2l3.93-.53.42,3-3.93.53a1,1,0,0,0,.27,2l3.93-.54.41,3-3.93.53a1,1,0,1,0,.28,2L277,244l.06.48a3.06,3.06,0,0,0,3.44,2.61L281,247l.49,3.59a1,1,0,0,0,1.15.87,1,1,0,0,0,.87-1.14l-.49-3.59,3-.42.5,3.59a1,1,0,0,0,1.14.87,1,1,0,0,0,.87-1.14l-.49-3.59,3-.41.49,3.59a1,1,0,1,0,2-.28l-.49-3.59,3-.41.49,3.59a1,1,0,1,0,2-.28l-.49-3.59,3-.41.49,3.59a1,1,0,0,0,2-.27l-.49-3.59,3-.42.49,3.6a1,1,0,0,0,2-.28l-.49-3.59,3-.41.49,3.59a1,1,0,0,0,1.14.87,1,1,0,0,0,.87-1.15l-.49-3.59,3-.41.49,3.59a1,1,0,1,0,2-.27l-.49-3.6,3-.41.49,3.59a1,1,0,1,0,2-.27l-.49-3.59,3-.42.49,3.6a1,1,0,0,0,1.15.86,1,1,0,0,0,.86-1.14l-.49-3.59,3-.41.49,3.59a1,1,0,1,0,2-.28l-.49-3.59.47-.06a3,3,0,0,0,2.61-3.43l-.06-.48,3.4-.47a1,1,0,1,0-.27-2l-3.41.46-.41-3,3.41-.47a1,1,0,0,0,.86-1.14,1,1,0,0,0-1.14-.87l-3.41.46-.41-3,3.41-.46a1,1,0,0,0,.87-1.14,1,1,0,0,0-1.15-.87l-3.4.46-.42-3,3.41-.46a1,1,0,1,0-.27-2l-3.41.46-.41-3,3.4-.46a1,1,0,1,0-.27-2l-3.41.46-.41-3,3.41-.46a1,1,0,1,0-.28-2l-3.41.47-.41-3,3.41-.46a1,1,0,1,0-.28-2l-3.4.47-.42-3,3.41-.47a1,1,0,0,0,.87-1.14,1,1,0,0,0-1.14-.87l-3.41.47-.41-3,3.4-.47a1,1,0,1,0-.27-2l-3.41.47-.41-3Z"/></g><rect class="cls-4" x="273.15" y="183.84" width="59.87" height="59.87" rx="3.05" ry="3.05" transform="translate(-26.15 42.99) rotate(-7.78)"/><rect class="cls-5" x="286.52" y="196.74" width="33.96" height="33.95" rx="2.86" ry="2.86" transform="translate(-26.13 43.04) rotate(-7.78)"/><rect class="cls-6" x="287.37" y="198.07" width="31.43" height="31.42" rx="1.6" ry="1.6" transform="translate(-26.15 42.99) rotate(-7.78)"/><text class="cls-13" transform="translate(292.49 218.73) rotate(-7.78)">GPU</text><path class="cls-7" d="M273.39,184l1.15,8.38Z"/><path class="cls-8" d="M274.67,193.39a1,1,0,0,1-1.14-.87l-1.15-8.38a1,1,0,1,1,2-.28l1.14,8.39A1,1,0,0,1,274.67,193.39Z"/><path class="cls-7" d="M278.42,183.31l1.15,8.39Z"/><path class="cls-8" d="M279.7,192.7a1,1,0,0,1-1.14-.87l-1.14-8.38a1,1,0,0,1,.86-1.14,1,1,0,0,1,1.15.87l1.14,8.38A1,1,0,0,1,279.7,192.7Z"/><path class="cls-7" d="M283.45,182.63,284.6,191Z"/><path class="cls-8" d="M284.74,192a1,1,0,0,1-1.15-.87l-1.14-8.39a1,1,0,0,1,2-.27l1.14,8.38A1,1,0,0,1,284.74,192Z"/><path class="cls-7" d="M288.48,181.94l1.15,8.38Z"/><path class="cls-8" d="M289.77,191.33a1,1,0,0,1-1.15-.87l-1.14-8.38a1,1,0,1,1,2-.28l1.15,8.39A1,1,0,0,1,289.77,191.33Z"/><path class="cls-7" d="M293.51,181.25l1.15,8.39Z"/><path class="cls-8" d="M294.8,190.64a1,1,0,0,1-1.15-.87l-1.14-8.38a1,1,0,1,1,2-.28l1.15,8.39A1,1,0,0,1,294.8,190.64Z"/><path class="cls-7" d="M298.55,180.56l1.14,8.39Z"/><path class="cls-8" d="M299.83,190a1,1,0,0,1-1.14-.86l-1.15-8.39a1,1,0,0,1,2-.27l1.15,8.38A1,1,0,0,1,299.83,190Z"/><path class="cls-7" d="M303.58,179.88l1.14,8.38Z"/><path class="cls-8" d="M304.86,189.27a1,1,0,0,1-1.14-.87L302.57,180a1,1,0,0,1,2-.27l1.15,8.38A1,1,0,0,1,304.86,189.27Z"/><path class="cls-7" d="M308.61,179.19l1.14,8.38Z"/><path class="cls-8" d="M309.89,188.58a1,1,0,0,1-1.14-.87l-1.15-8.38a1,1,0,1,1,2-.28l1.15,8.39A1,1,0,0,1,309.89,188.58Z"/><path class="cls-7" d="M313.64,178.5l1.14,8.39Z"/><path class="cls-8" d="M314.92,187.89a1,1,0,0,1-1.14-.87l-1.15-8.38a1,1,0,0,1,.87-1.14,1,1,0,0,1,1.14.86l1.15,8.39A1,1,0,0,1,314.92,187.89Z"/><path class="cls-7" d="M318.67,177.81l1.14,8.39Z"/><path class="cls-8" d="M320,187.21a1,1,0,0,1-1.14-.87L317.66,178a1,1,0,0,1,2-.27l1.14,8.38A1,1,0,0,1,320,187.21Z"/><path class="cls-7" d="M323.7,177.13l1.15,8.38Z"/><path class="cls-8" d="M325,186.52a1,1,0,0,1-1.14-.87l-1.15-8.39a1,1,0,0,1,2-.27l1.14,8.38A1,1,0,0,1,325,186.52Z"/><path class="cls-7" d="M281.32,242.08l1.15,8.38Z"/><path class="cls-8" d="M282.61,251.47a1,1,0,0,1-1.15-.87l-1.14-8.38a1,1,0,1,1,2-.28l1.15,8.39A1,1,0,0,1,282.61,251.47Z"/><path class="cls-7" d="M286.36,241.39l1.14,8.39Z"/><path class="cls-8" d="M287.64,250.78a1,1,0,0,1-1.14-.87l-1.15-8.38a1,1,0,0,1,2-.28l1.15,8.39A1,1,0,0,1,287.64,250.78Z"/><path class="cls-7" d="M291.39,240.71l1.14,8.38Z"/><path class="cls-8" d="M292.67,250.1a1,1,0,0,1-1.14-.87l-1.15-8.39a1,1,0,0,1,2-.27l1.15,8.38A1,1,0,0,1,292.67,250.1Z"/><path class="cls-7" d="M296.42,240l1.14,8.38Z"/><path class="cls-8" d="M297.7,249.41a1,1,0,0,1-1.14-.87l-1.15-8.38a1,1,0,0,1,.87-1.15,1,1,0,0,1,1.14.87l1.15,8.38A1,1,0,0,1,297.7,249.41Z"/><path class="cls-7" d="M301.45,239.33l1.14,8.38Z"/><path class="cls-8" d="M302.73,248.72a1,1,0,0,1-1.14-.87l-1.15-8.38a1,1,0,0,1,.87-1.15,1,1,0,0,1,1.14.87l1.15,8.39A1,1,0,0,1,302.73,248.72Z"/><path class="cls-7" d="M306.48,238.64l1.15,8.39Z"/><path class="cls-8" d="M307.76,248a1,1,0,0,1-1.14-.86l-1.15-8.39a1,1,0,0,1,2-.27l1.14,8.38A1,1,0,0,1,307.76,248Z"/><path class="cls-7" d="M311.51,238l1.15,8.38Z"/><path class="cls-8" d="M312.79,247.35a1,1,0,0,1-1.14-.87l-1.15-8.39a1,1,0,0,1,.87-1.14,1,1,0,0,1,1.15.87l1.14,8.38A1,1,0,0,1,312.79,247.35Z"/><path class="cls-7" d="M316.54,237.27l1.15,8.38Z"/><path class="cls-8" d="M317.82,246.66a1,1,0,0,1-1.14-.87l-1.14-8.38a1,1,0,0,1,.86-1.15,1,1,0,0,1,1.15.87l1.14,8.39A1,1,0,0,1,317.82,246.66Z"/><path class="cls-7" d="M321.57,236.58l1.15,8.39Z"/><path class="cls-8" d="M322.86,246a1,1,0,0,1-1.15-.87l-1.14-8.38a1,1,0,0,1,.86-1.14,1,1,0,0,1,1.15.86l1.14,8.39A1,1,0,0,1,322.86,246Z"/><path class="cls-7" d="M326.6,235.89l1.15,8.39Z"/><path class="cls-8" d="M327.89,245.28a1,1,0,0,1-1.15-.86L325.6,236a1,1,0,0,1,2-.27l1.14,8.38A1,1,0,0,1,327.89,245.28Z"/><path class="cls-7" d="M331.63,235.21l1.15,8.38Z"/><path class="cls-8" d="M332.92,244.6a1,1,0,0,1-1.15-.87l-1.14-8.39a1,1,0,0,1,2-.27l1.15,8.38A1,1,0,0,1,332.92,244.6Z"/><path class="cls-7" d="M332.71,184.11l-8.38,1.14Z"/><path class="cls-8" d="M332.85,185.11l-8.38,1.15a1,1,0,0,1-1.15-.87,1,1,0,0,1,.87-1.14l8.39-1.15a1,1,0,0,1,.27,2Z"/><path class="cls-7" d="M333.4,189.14,325,190.28Z"/><path class="cls-8" d="M333.54,190.14l-8.39,1.15a1,1,0,0,1-1.14-.87,1,1,0,0,1,.87-1.14l8.38-1.15a1,1,0,1,1,.28,2Z"/><path class="cls-7" d="M334.09,194.17l-8.39,1.14Z"/><path class="cls-8" d="M334.22,195.17l-8.38,1.15a1,1,0,0,1-.27-2l8.38-1.15a1,1,0,1,1,.27,2Z"/><path class="cls-7" d="M334.77,199.2l-8.38,1.14Z"/><path class="cls-8" d="M334.91,200.2l-8.38,1.15a1,1,0,1,1-.28-2l8.39-1.15a1,1,0,0,1,1.14.87A1,1,0,0,1,334.91,200.2Z"/><path class="cls-7" d="M335.46,204.23l-8.38,1.15Z"/><path class="cls-8" d="M335.6,205.24l-8.38,1.14a1,1,0,1,1-.28-2l8.38-1.15a1,1,0,1,1,.28,2Z"/><path class="cls-7" d="M336.15,209.26l-8.39,1.15Z"/><path class="cls-8" d="M336.29,210.27l-8.39,1.14a1,1,0,0,1-.27-2l8.38-1.15a1,1,0,1,1,.28,2Z"/><path class="cls-7" d="M336.84,214.29l-8.39,1.15Z"/><path class="cls-8" d="M337,215.3l-8.38,1.14a1,1,0,0,1-1.14-.87,1,1,0,0,1,.86-1.14l8.39-1.14a1,1,0,1,1,.27,2Z"/><path class="cls-7" d="M337.52,219.32l-8.38,1.15Z"/><path class="cls-8" d="M337.66,220.33l-8.38,1.14a1,1,0,0,1-1.15-.86,1,1,0,0,1,.87-1.15l8.39-1.14a1,1,0,1,1,.27,2Z"/><path class="cls-7" d="M338.21,224.35l-8.38,1.15Z"/><path class="cls-8" d="M338.35,225.36,330,226.5a1,1,0,1,1-.27-2l8.38-1.14a1,1,0,0,1,1.15.87A1,1,0,0,1,338.35,225.36Z"/><path class="cls-7" d="M338.9,229.38l-8.39,1.15Z"/><path class="cls-8" d="M339,230.39l-8.39,1.15a1,1,0,0,1-.27-2l8.38-1.14a1,1,0,0,1,1.14.87A1,1,0,0,1,339,230.39Z"/><path class="cls-7" d="M339.59,234.42l-8.39,1.14Z"/><path class="cls-8" d="M339.72,235.42l-8.38,1.15a1,1,0,1,1-.28-2l8.39-1.14a1,1,0,1,1,.27,2Z"/><path class="cls-7" d="M274.44,192.07l-8.38,1.14Z"/><path class="cls-8" d="M274.58,193.07l-8.38,1.15a1,1,0,0,1-1.15-.87,1,1,0,0,1,.87-1.14l8.39-1.15a1,1,0,1,1,.27,2Z"/><path class="cls-7" d="M275.13,197.1l-8.38,1.14Z"/><path class="cls-8" d="M275.27,198.1l-8.39,1.15a1,1,0,0,1-1.14-.87,1,1,0,0,1,.87-1.14l8.38-1.15a1,1,0,1,1,.28,2Z"/><path class="cls-7" d="M275.82,202.13l-8.39,1.14Z"/><path class="cls-8" d="M276,203.13l-8.38,1.15a1,1,0,0,1-.27-2l8.38-1.15a1,1,0,1,1,.27,2Z"/><path class="cls-7" d="M276.5,207.16l-8.38,1.14Z"/><path class="cls-8" d="M276.64,208.16l-8.38,1.15a1,1,0,1,1-.28-2l8.39-1.15a1,1,0,0,1,1.14.87A1,1,0,0,1,276.64,208.16Z"/><path class="cls-7" d="M277.19,212.19l-8.38,1.15Z"/><path class="cls-8" d="M277.33,213.2,269,214.34a1,1,0,1,1-.28-2l8.38-1.15a1,1,0,0,1,.28,2Z"/><path class="cls-7" d="M277.88,217.22l-8.39,1.15Z"/><path class="cls-8" d="M278,218.23l-8.39,1.14a1,1,0,0,1-.27-2l8.38-1.15a1,1,0,0,1,.28,2Z"/><path class="cls-7" d="M278.57,222.25l-8.39,1.15Z"/><path class="cls-8" d="M278.7,223.26l-8.38,1.14a1,1,0,0,1-1.14-.87,1,1,0,0,1,.86-1.14l8.39-1.14a1,1,0,1,1,.27,2Z"/><path class="cls-7" d="M279.25,227.28l-8.38,1.15Z"/><path class="cls-8" d="M279.39,228.29,271,229.43a1,1,0,0,1-1.15-.86,1,1,0,0,1,.87-1.15l8.39-1.14a1,1,0,1,1,.27,2Z"/><path class="cls-7" d="M279.94,232.31l-8.38,1.15Z"/><path class="cls-8" d="M280.08,233.32l-8.39,1.14a1,1,0,1,1-.27-2l8.38-1.14a1,1,0,0,1,1.15.87A1,1,0,0,1,280.08,233.32Z"/><path class="cls-7" d="M280.63,237.34l-8.39,1.15Z"/><path class="cls-8" d="M280.77,238.35l-8.39,1.15a1,1,0,0,1-.27-2l8.38-1.14a1,1,0,0,1,1.14.87A1,1,0,0,1,280.77,238.35Z"/><path class="cls-7" d="M281.32,242.38l-8.39,1.14Z"/><path class="cls-8" d="M281.45,243.38l-8.38,1.15a1,1,0,1,1-.28-2l8.39-1.14a1,1,0,1,1,.27,2Z"/><g class="cls-10"><path class="cls-11" d="M320,304.74a1,1,0,0,0-1.4-1.47l-2.49,2.37-2.1-2.2,2.49-2.37a1,1,0,0,0,0-1.44,1,1,0,0,0-1.43,0L312.59,302l-.34-.35a3,3,0,0,0-4.3-.11l-.35.33-2.48-2.6a1,1,0,0,0-1.44,0,1,1,0,0,0,0,1.43l2.47,2.6-2.2,2.1-2.48-2.6a1,1,0,0,0-1.47,1.4l2.48,2.6-2.21,2.11-2.48-2.6a1,1,0,0,0-1.43,0,1,1,0,0,0,0,1.44l2.48,2.6-2.21,2.1-2.47-2.6a1,1,0,1,0-1.47,1.4l2.47,2.6-2.21,2.1-2.47-2.6a1,1,0,1,0-1.47,1.4l2.47,2.6-2.2,2.1-2.48-2.6a1,1,0,1,0-1.47,1.4l2.48,2.6-2.21,2.1-2.48-2.6a1,1,0,0,0-1.43,0,1,1,0,0,0,0,1.44l2.48,2.6-2.21,2.1-2.47-2.6a1,1,0,1,0-1.47,1.4l2.47,2.6-2.21,2.1-2.47-2.6a1,1,0,0,0-1.47,1.4l2.47,2.6-2.2,2.1-2.48-2.6a1,1,0,0,0-1.47,1.4l2.47,2.6-2.2,2.1-2.48-2.6a1,1,0,0,0-1.47,1.4l2.48,2.6-.35.34a3,3,0,0,0-.11,4.3l.33.35L266.35,346a1,1,0,0,0,1.4,1.47l2.87-2.74,2.1,2.21-2.87,2.74a1,1,0,0,0,1.4,1.47l2.87-2.74,2.11,2.21-2.88,2.73a1,1,0,0,0,0,1.44,1,1,0,0,0,1.43,0l2.88-2.73,2.1,2.21L276.85,357a1,1,0,0,0,0,1.44,1,1,0,0,0,1.43,0l2.88-2.73,2.1,2.2-2.88,2.74a1,1,0,0,0,1.41,1.47l2.87-2.73,2.1,2.2-2.87,2.74a1,1,0,0,0,0,1.43,1,1,0,0,0,1.44,0l2.87-2.74,2.1,2.21L287.36,368a1,1,0,0,0,1.4,1.48l2.87-2.74,2.1,2.21-2.87,2.73a1,1,0,1,0,1.4,1.47l2.87-2.73,2.1,2.2-2.87,2.74a1,1,0,1,0,1.4,1.47l2.87-2.73,2.1,2.2-2.87,2.74a1,1,0,1,0,1.4,1.47l2.87-2.74,2.1,2.21-2.87,2.74a1,1,0,0,0,0,1.43,1,1,0,0,0,1.44,0l2.87-2.74.34.35a3,3,0,0,0,4.3.11l.35-.33,2.5,2.62a1,1,0,1,0,1.47-1.4l-2.49-2.63,2.2-2.1,2.5,2.63a1,1,0,0,0,1.47-1.4l-2.5-2.63,2.21-2.1,2.5,2.63a1,1,0,0,0,1.47-1.4l-2.5-2.63,2.21-2.1,2.5,2.63a1,1,0,0,0,1.47-1.4l-2.5-2.63,2.21-2.1,2.49,2.63a1,1,0,0,0,1.44,0,1,1,0,0,0,0-1.43l-2.5-2.63,2.2-2.1,2.5,2.63a1,1,0,1,0,1.47-1.41l-2.5-2.62,2.21-2.1,2.5,2.62a1,1,0,1,0,1.47-1.4l-2.5-2.62,2.21-2.1,2.5,2.62a1,1,0,0,0,1.43,0,1,1,0,0,0,0-1.44l-2.5-2.62,2.21-2.1,2.5,2.62a1,1,0,0,0,1.43,0,1,1,0,0,0,0-1.44l-2.5-2.62,2.2-2.1,2.5,2.62a1,1,0,1,0,1.47-1.4l-2.49-2.62,2.2-2.1,2.5,2.62a1,1,0,1,0,1.47-1.4l-2.5-2.63.35-.33a3,3,0,0,0,.11-4.31l-.33-.35,2.49-2.37a1,1,0,0,0-1.4-1.47l-2.49,2.37-2.11-2.2,2.5-2.38a1,1,0,0,0-1.4-1.47l-2.5,2.37-2.1-2.2,2.49-2.37a1,1,0,1,0-1.4-1.47l-2.49,2.37-2.1-2.21,2.49-2.37a1,1,0,1,0-1.4-1.47l-2.49,2.37L335,325.5l2.49-2.37a1,1,0,1,0-1.4-1.47L333.59,324l-2.1-2.21,2.49-2.37a1,1,0,0,0,0-1.43,1,1,0,0,0-1.44,0l-2.49,2.37-2.1-2.2,2.49-2.37a1,1,0,1,0-1.4-1.47l-2.49,2.37-2.1-2.21L327,312.1a1,1,0,1,0-1.4-1.47L323.09,313l-2.1-2.21,2.49-2.37a1,1,0,0,0-1.4-1.47l-2.49,2.37-2.1-2.21Z"/></g><rect class="cls-4" x="279.18" y="311.8" width="59.87" height="59.87" rx="3.05" ry="3.05" transform="translate(-150.4 307.34) rotate(-43.59)"/><rect class="cls-5" x="292.43" y="324.46" width="33.96" height="33.95" rx="2.86" ry="2.86" transform="translate(-150.11 307.47) rotate(-43.59)"/><rect class="cls-6" x="293.4" y="326.02" width="31.43" height="31.42" rx="1.6" ry="1.6" transform="translate(-150.4 307.34) rotate(-43.59)"/><text class="cls-13" transform="matrix(0.72, -0.69, 0.69, 0.72, 303.41, 351.94)">GPU</text><path class="cls-7" d="M267.61,335l5.83,6.13Z"/><path class="cls-8" d="M274.14,341.82a1,1,0,0,1-1.43,0l-5.84-6.13a1,1,0,0,1,1.47-1.4l5.84,6.13A1,1,0,0,1,274.14,341.82Z"/><path class="cls-7" d="M271.29,331.45l5.83,6.13Z"/><path class="cls-8" d="M277.82,338.32a1,1,0,0,1-1.44,0l-5.83-6.13a1,1,0,0,1,1.47-1.4l5.84,6.13A1,1,0,0,1,277.82,338.32Z"/><path class="cls-7" d="M275,328l5.84,6.13Z"/><path class="cls-8" d="M281.5,334.82a1,1,0,0,1-1.44,0l-5.83-6.13a1,1,0,0,1,1.47-1.4l5.83,6.13A1,1,0,0,1,281.5,334.82Z"/><path class="cls-7" d="M278.64,324.45l5.84,6.13Z"/><path class="cls-8" d="M285.18,331.32a1,1,0,0,1-1.44,0l-5.83-6.13a1,1,0,1,1,1.47-1.4l5.83,6.13A1,1,0,0,1,285.18,331.32Z"/><path class="cls-7" d="M282.32,321l5.83,6.13Z"/><path class="cls-8" d="M288.85,327.81a1,1,0,0,1-1.43,0l-5.84-6.13a1,1,0,0,1,0-1.44,1,1,0,0,1,1.43,0l5.84,6.13A1,1,0,0,1,288.85,327.81Z"/><path class="cls-7" d="M286,317.45l5.83,6.13Z"/><path class="cls-8" d="M292.53,324.31a1,1,0,0,1-1.43,0l-5.84-6.13a1,1,0,1,1,1.47-1.4l5.84,6.13A1,1,0,0,1,292.53,324.31Z"/><path class="cls-7" d="M289.67,314l5.84,6.13Z"/><path class="cls-8" d="M296.21,320.81a1,1,0,0,1-1.44,0l-5.83-6.13a1,1,0,1,1,1.47-1.4l5.83,6.13A1,1,0,0,1,296.21,320.81Z"/><path class="cls-7" d="M293.35,310.45l5.84,6.13Z"/><path class="cls-8" d="M299.89,317.31a1,1,0,0,1-1.44,0l-5.83-6.13a1,1,0,1,1,1.47-1.4l5.83,6.13A1,1,0,0,1,299.89,317.31Z"/><path class="cls-7" d="M297,307l5.83,6.12Z"/><path class="cls-8" d="M303.56,313.81a1,1,0,0,1-1.43,0l-5.84-6.12a1,1,0,0,1,0-1.44,1,1,0,0,1,1.43,0l5.84,6.12A1,1,0,0,1,303.56,313.81Z"/><path class="cls-7" d="M300.71,303.44l5.83,6.13Z"/><path class="cls-8" d="M307.24,310.31a1,1,0,0,1-1.43,0L300,304.14a1,1,0,0,1,1.47-1.4l5.84,6.13A1,1,0,0,1,307.24,310.31Z"/><path class="cls-7" d="M304.38,299.94l5.84,6.13Z"/><path class="cls-8" d="M310.92,306.81a1,1,0,0,1-1.44,0l-5.83-6.13a1,1,0,0,1,0-1.43,1,1,0,0,1,1.44,0l5.83,6.13A1,1,0,0,1,310.92,306.81Z"/><path class="cls-7" d="M308,377.41l5.84,6.13Z"/><path class="cls-8" d="M314.56,384.28a1,1,0,0,1-1.44,0l-5.83-6.13a1,1,0,0,1,1.47-1.4l5.83,6.13A1,1,0,0,1,314.56,384.28Z"/><path class="cls-7" d="M311.7,373.91l5.84,6.13Z"/><path class="cls-8" d="M318.24,380.77a1,1,0,0,1-1.44,0L311,374.61a1,1,0,1,1,1.47-1.4l5.83,6.13A1,1,0,0,1,318.24,380.77Z"/><path class="cls-7" d="M315.38,370.41l5.83,6.13Z"/><path class="cls-8" d="M321.91,377.27a1,1,0,0,1-1.43,0l-5.84-6.13a1,1,0,1,1,1.48-1.4l5.83,6.13A1,1,0,0,1,321.91,377.27Z"/><path class="cls-7" d="M319.06,366.91l5.83,6.13Z"/><path class="cls-8" d="M325.59,373.77a1,1,0,0,1-1.43,0l-5.84-6.13a1,1,0,0,1,0-1.44,1,1,0,0,1,1.43,0l5.84,6.13A1,1,0,0,1,325.59,373.77Z"/><path class="cls-7" d="M322.74,363.41l5.83,6.13Z"/><path class="cls-8" d="M329.27,370.27a1,1,0,0,1-1.44,0L322,364.11a1,1,0,0,1,0-1.44,1,1,0,0,1,1.43,0l5.84,6.13A1,1,0,0,1,329.27,370.27Z"/><path class="cls-7" d="M326.41,359.91l5.84,6.13Z"/><path class="cls-8" d="M333,366.77a1,1,0,0,1-1.44,0l-5.83-6.13a1,1,0,1,1,1.47-1.4l5.83,6.12A1,1,0,0,1,333,366.77Z"/><path class="cls-7" d="M330.09,356.41l5.84,6.12Z"/><path class="cls-8" d="M336.63,363.27a1,1,0,0,1-1.44,0l-5.83-6.12a1,1,0,1,1,1.47-1.4l5.83,6.12A1,1,0,0,1,336.63,363.27Z"/><path class="cls-7" d="M333.77,352.9,339.6,359Z"/><path class="cls-8" d="M340.3,359.77a1,1,0,0,1-1.43,0L333,353.6a1,1,0,0,1,1.47-1.4l5.84,6.13A1,1,0,0,1,340.3,359.77Z"/><path class="cls-7" d="M337.45,349.4l5.83,6.13Z"/><path class="cls-8" d="M344,356.27a1,1,0,0,1-1.43,0l-5.84-6.13a1,1,0,0,1,1.47-1.4l5.84,6.13A1,1,0,0,1,344,356.27Z"/><path class="cls-7" d="M341.12,345.9,347,352Z"/><path class="cls-8" d="M347.66,352.77a1,1,0,0,1-1.44,0l-5.83-6.13a1,1,0,0,1,0-1.43,1,1,0,0,1,1.44,0l5.83,6.13A1,1,0,0,1,347.66,352.77Z"/><path class="cls-7" d="M344.8,342.4l5.84,6.13Z"/><path class="cls-8" d="M351.34,349.27a1,1,0,0,1-1.44,0l-5.83-6.13a1,1,0,0,1,1.47-1.4l5.83,6.13A1,1,0,0,1,351.34,349.27Z"/><path class="cls-7" d="M315.78,300.33l-6.13,5.83Z"/><path class="cls-8" d="M316.48,301.07l-6.13,5.83a1,1,0,1,1-1.4-1.47l6.13-5.84a1,1,0,0,1,1.43,0A1,1,0,0,1,316.48,301.07Z"/><path class="cls-7" d="M319.28,304l-6.13,5.83Z"/><path class="cls-8" d="M320,304.74l-6.13,5.84a1,1,0,0,1-1.44,0,1,1,0,0,1,0-1.43l6.13-5.84a1,1,0,0,1,1.4,1.47Z"/><path class="cls-7" d="M322.78,307.69l-6.13,5.83Z"/><path class="cls-8" d="M323.48,308.42l-6.13,5.84a1,1,0,1,1-1.4-1.48l6.13-5.83a1,1,0,0,1,1.4,1.47Z"/><path class="cls-7" d="M326.28,311.36l-6.13,5.84Z"/><path class="cls-8" d="M327,312.1l-6.13,5.83a1,1,0,1,1-1.4-1.47l6.13-5.83a1,1,0,1,1,1.4,1.47Z"/><path class="cls-7" d="M329.78,315l-6.13,5.84Z"/><path class="cls-8" d="M330.48,315.78l-6.13,5.83a1,1,0,0,1-1.43,0,1,1,0,0,1,0-1.44l6.13-5.83a1,1,0,1,1,1.4,1.47Z"/><path class="cls-7" d="M333.28,318.72l-6.13,5.83Z"/><path class="cls-8" d="M334,319.45l-6.13,5.84a1,1,0,0,1-1.4-1.47l6.13-5.84a1,1,0,0,1,1.44,0A1,1,0,0,1,334,319.45Z"/><path class="cls-7" d="M336.78,322.4l-6.13,5.83Z"/><path class="cls-8" d="M337.48,323.13,331.35,329a1,1,0,0,1-1.43,0,1,1,0,0,1,0-1.44l6.13-5.83a1,1,0,1,1,1.4,1.47Z"/><path class="cls-7" d="M340.28,326.07l-6.13,5.84Z"/><path class="cls-8" d="M341,326.81l-6.13,5.83a1,1,0,0,1-1.43,0,1,1,0,0,1,0-1.44l6.13-5.83a1,1,0,1,1,1.4,1.47Z"/><path class="cls-7" d="M343.78,329.75l-6.12,5.84Z"/><path class="cls-8" d="M344.48,330.49l-6.12,5.83a1,1,0,1,1-1.4-1.47l6.12-5.83a1,1,0,1,1,1.4,1.47Z"/><path class="cls-7" d="M347.29,333.43l-6.13,5.83Z"/><path class="cls-8" d="M348,334.16,341.86,340a1,1,0,0,1-1.44,0,1,1,0,0,1,0-1.43l6.13-5.84a1,1,0,0,1,1.4,1.47Z"/><path class="cls-7" d="M350.79,337.11l-6.13,5.83Z"/><path class="cls-8" d="M351.49,337.84l-6.13,5.84a1,1,0,0,1-1.44,0,1,1,0,0,1,0-1.43l6.13-5.84a1,1,0,0,1,1.4,1.47Z"/><path class="cls-7" d="M273.18,340.88l-6.13,5.83Z"/><path class="cls-8" d="M273.88,341.61l-6.13,5.84a1,1,0,0,1-1.4-1.47l6.13-5.84a1,1,0,0,1,1.44,0A1,1,0,0,1,273.88,341.61Z"/><path class="cls-7" d="M276.68,344.56l-6.13,5.83Z"/><path class="cls-8" d="M277.38,345.29l-6.13,5.84a1,1,0,0,1-1.4-1.47l6.13-5.84a1,1,0,1,1,1.4,1.47Z"/><path class="cls-7" d="M280.18,348.23l-6.13,5.84Z"/><path class="cls-8" d="M280.88,349l-6.13,5.83a1,1,0,0,1-1.43,0,1,1,0,0,1,0-1.44l6.13-5.83a1,1,0,1,1,1.4,1.47Z"/><path class="cls-7" d="M283.68,351.91l-6.13,5.84Z"/><path class="cls-8" d="M284.38,352.65l-6.13,5.83a1,1,0,0,1-1.43,0,1,1,0,0,1,0-1.44l6.13-5.83a1,1,0,1,1,1.4,1.47Z"/><path class="cls-7" d="M287.18,355.59l-6.13,5.83Z"/><path class="cls-8" d="M287.88,356.33l-6.12,5.83a1,1,0,0,1-1.41-1.47l6.13-5.84a1,1,0,1,1,1.4,1.48Z"/><path class="cls-7" d="M290.68,359.27l-6.12,5.83Z"/><path class="cls-8" d="M291.39,360l-6.13,5.84a1,1,0,0,1-1.44,0,1,1,0,0,1,0-1.43l6.12-5.84a1,1,0,0,1,1.44,0A1,1,0,0,1,291.39,360Z"/><path class="cls-7" d="M294.19,363l-6.13,5.83Z"/><path class="cls-8" d="M294.89,363.68l-6.13,5.84a1,1,0,0,1-1.4-1.48l6.13-5.83a1,1,0,0,1,1.4,1.47Z"/><path class="cls-7" d="M297.69,366.62l-6.13,5.84Z"/><path class="cls-8" d="M298.39,367.36l-6.13,5.83a1,1,0,1,1-1.4-1.47l6.13-5.83a1,1,0,0,1,1.43,0A1,1,0,0,1,298.39,367.36Z"/><path class="cls-7" d="M301.19,370.3l-6.13,5.84Z"/><path class="cls-8" d="M301.89,371l-6.13,5.83a1,1,0,1,1-1.4-1.47l6.13-5.83a1,1,0,0,1,1.43,0A1,1,0,0,1,301.89,371Z"/><path class="cls-7" d="M304.69,374l-6.13,5.83Z"/><path class="cls-8" d="M305.39,374.71l-6.13,5.84a1,1,0,1,1-1.4-1.47l6.13-5.84a1,1,0,0,1,1.4,1.47Z"/><path class="cls-7" d="M308.19,377.66l-6.13,5.83Z"/><path class="cls-8" d="M308.89,378.39l-6.13,5.84a1,1,0,0,1-1.44,0,1,1,0,0,1,0-1.43l6.13-5.84a1,1,0,1,1,1.4,1.47Z"/><g class="cls-10"><path class="cls-11" d="M334.86,311.3a1,1,0,0,0,.87-1.14,1,1,0,0,0-1.14-.87l-3.41.46-.41-3,3.41-.46a1,1,0,0,0,.87-1.15,1,1,0,0,0-1.15-.86l-3.4.46-.07-.48a3,3,0,0,0-3.43-2.6l-.48.06-.49-3.55a1,1,0,0,0-1.14-.87,1,1,0,0,0-.87,1.14l.49,3.56-3,.41-.49-3.56a1,1,0,1,0-2,.28l.49,3.55-3,.42-.49-3.56a1,1,0,1,0-2,.28l.49,3.55-3,.41-.49-3.55a1,1,0,0,0-2,.27l.48,3.56-3,.41-.49-3.55a1,1,0,0,0-1.14-.87,1,1,0,0,0-.87,1.14l.48,3.56-3,.41-.48-3.56a1,1,0,0,0-1.14-.87,1,1,0,0,0-.87,1.15l.48,3.55-3,.42-.48-3.56a1,1,0,1,0-2,.27l.48,3.56-3,.41-.48-3.55a1,1,0,0,0-2,.27l.49,3.56-3,.41-.48-3.56a1,1,0,0,0-2,.28l.49,3.56-3,.41-.48-3.56a1,1,0,1,0-2,.28l.49,3.55-3,.41-.49-3.55a1,1,0,0,0-1.14-.87,1,1,0,0,0-.87,1.14l.49,3.56-.48.07a3,3,0,0,0-2.61,3.43l.07.47-3.93.54a1,1,0,0,0,.27,2l3.93-.53.42,3-3.93.53a1,1,0,0,0-.87,1.15,1,1,0,0,0,1.14.86l3.93-.53.41,3-3.93.53a1,1,0,1,0,.28,2l3.93-.54.41,3-3.93.53a1,1,0,0,0,.27,2l3.94-.54.41,3-3.93.54a1,1,0,0,0-.87,1.14,1,1,0,0,0,1.14.87l3.93-.54.41,3-3.93.54a1,1,0,0,0,.28,2l3.93-.54.41,3-3.93.54a1,1,0,1,0,.28,2l3.93-.54.41,3-3.93.54a1,1,0,1,0,.27,2l3.93-.54.42,3-3.93.54a1,1,0,0,0,.27,2l3.93-.54.41,3-3.93.54a1,1,0,0,0-.87,1.14,1,1,0,0,0,1.15.87l3.93-.53.41,3-3.93.54a1,1,0,0,0-.87,1.14,1,1,0,0,0,1.15.87l3.93-.53.06.48a3,3,0,0,0,3.43,2.6l.48-.06.49,3.59a1,1,0,0,0,1.14.87,1,1,0,0,0,.87-1.15l-.49-3.59,3-.41.49,3.59a1,1,0,0,0,1.15.87,1,1,0,0,0,.86-1.14l-.49-3.6,3-.41.49,3.59a1,1,0,0,0,2-.27l-.49-3.59,3-.42.49,3.6a1,1,0,0,0,2-.28l-.49-3.59,3-.41.5,3.59a1,1,0,0,0,1.14.87,1,1,0,0,0,.87-1.15l-.49-3.59,3-.41.49,3.59a1,1,0,0,0,1.14.87,1,1,0,0,0,.87-1.14l-.49-3.59,3-.42.49,3.59a1,1,0,1,0,2-.27l-.49-3.59,3-.41L318,367a1,1,0,1,0,2-.28l-.49-3.59,3-.41.49,3.59a1,1,0,1,0,2-.28l-.49-3.59,3-.41.49,3.59a1,1,0,1,0,2-.27l-.49-3.59,3-.42.49,3.6a1,1,0,0,0,1.14.86,1,1,0,0,0,.87-1.14l-.49-3.59.48-.07a3,3,0,0,0,2.61-3.43l-.07-.48,3.41-.46a1,1,0,0,0,.87-1.15,1,1,0,0,0-1.14-.86l-3.41.46-.41-3,3.4-.46a1,1,0,0,0-.27-2l-3.41.47-.41-3,3.41-.46a1,1,0,0,0-.28-2L336,345l-.41-3,3.41-.47a1,1,0,0,0,.87-1.14,1,1,0,0,0-1.15-.87l-3.4.47-.42-3,3.41-.47a1,1,0,0,0,.87-1.14,1,1,0,0,0-1.14-.87l-3.41.47-.41-3,3.4-.47a1,1,0,0,0-.27-2l-3.41.47-.41-3,3.41-.47a1,1,0,1,0-.28-2l-3.41.47-.41-3,3.41-.47a1,1,0,1,0-.28-2l-3.4.46-.42-3,3.41-.47a1,1,0,0,0-.27-2l-3.41.46-.41-3Z"/></g><rect class="cls-4" x="274.48" y="305" width="59.87" height="59.87" rx="3.05" ry="3.05" transform="translate(-42.53 44.28) rotate(-7.78)"/><rect class="cls-5" x="287.84" y="317.9" width="33.96" height="33.95" rx="2.86" ry="2.86" transform="translate(-42.52 44.34) rotate(-7.78)"/><rect class="cls-6" x="288.7" y="319.22" width="31.43" height="31.42" rx="1.6" ry="1.6" transform="translate(-42.53 44.28) rotate(-7.78)"/><text class="cls-13" transform="translate(293.81 339.88) rotate(-7.78)">GPU</text><path class="cls-7" d="M274.72,305.16l1.14,8.38Z"/><path class="cls-8" d="M276,314.55a1,1,0,0,1-1.14-.87l-1.15-8.39a1,1,0,0,1,.87-1.14,1,1,0,0,1,1.14.87l1.15,8.38A1,1,0,0,1,276,314.55Z"/><path class="cls-7" d="M279.75,304.47l1.14,8.38Z"/><path class="cls-8" d="M281,313.86a1,1,0,0,1-1.14-.87l-1.15-8.38a1,1,0,1,1,2-.28l1.14,8.39A1,1,0,0,1,281,313.86Z"/><path class="cls-7" d="M284.78,303.78l1.15,8.39Z"/><path class="cls-8" d="M286.06,313.17a1,1,0,0,1-1.14-.87l-1.15-8.38a1,1,0,0,1,2-.28l1.14,8.39A1,1,0,0,1,286.06,313.17Z"/><path class="cls-7" d="M289.81,303.09l1.15,8.39Z"/><path class="cls-8" d="M291.09,312.48a1,1,0,0,1-1.14-.86l-1.15-8.39a1,1,0,0,1,2-.27l1.14,8.38A1,1,0,0,1,291.09,312.48Z"/><path class="cls-7" d="M294.84,302.41l1.15,8.38Z"/><path class="cls-8" d="M296.12,311.8a1,1,0,0,1-1.14-.87l-1.14-8.39a1,1,0,1,1,2-.27l1.14,8.38A1,1,0,0,1,296.12,311.8Z"/><path class="cls-7" d="M299.87,301.72,301,310.1Z"/><path class="cls-8" d="M301.16,311.11a1,1,0,0,1-1.15-.87l-1.14-8.38a1,1,0,0,1,.87-1.15,1,1,0,0,1,1.14.87L302,310A1,1,0,0,1,301.16,311.11Z"/><path class="cls-7" d="M304.9,301l1.15,8.39Z"/><path class="cls-8" d="M306.19,310.42a1,1,0,0,1-1.15-.87l-1.14-8.38a1,1,0,0,1,.87-1.14,1,1,0,0,1,1.14.87l1.15,8.38A1,1,0,0,1,306.19,310.42Z"/><path class="cls-7" d="M309.93,300.35l1.15,8.38Z"/><path class="cls-8" d="M311.22,309.74a1,1,0,0,1-1.15-.87l-1.14-8.39a1,1,0,0,1,2-.27l1.15,8.38A1,1,0,0,1,311.22,309.74Z"/><path class="cls-7" d="M315,299.66l1.14,8.38Z"/><path class="cls-8" d="M316.25,309.05a1,1,0,0,1-1.15-.87L314,299.8a1,1,0,1,1,2-.28l1.15,8.39A1,1,0,0,1,316.25,309.05Z"/><path class="cls-7" d="M320,299l1.14,8.39Z"/><path class="cls-8" d="M321.28,308.36a1,1,0,0,1-1.14-.87L319,299.11a1,1,0,1,1,2-.28l1.15,8.39A1,1,0,0,1,321.28,308.36Z"/><path class="cls-7" d="M325,298.28l1.14,8.39Z"/><path class="cls-8" d="M326.31,307.67a1,1,0,0,1-1.14-.86L324,298.42a1,1,0,0,1,.87-1.14,1,1,0,0,1,1.14.87l1.15,8.38A1,1,0,0,1,326.31,307.67Z"/><path class="cls-7" d="M282.65,363.24l1.15,8.38Z"/><path class="cls-8" d="M283.93,372.63a1,1,0,0,1-1.14-.87l-1.14-8.39a1,1,0,1,1,2-.27l1.14,8.38A1,1,0,0,1,283.93,372.63Z"/><path class="cls-7" d="M287.68,362.55l1.15,8.38Z"/><path class="cls-8" d="M289,371.94a1,1,0,0,1-1.15-.87l-1.14-8.38a1,1,0,0,1,.87-1.15,1,1,0,0,1,1.14.87l1.14,8.39A1,1,0,0,1,289,371.94Z"/><path class="cls-7" d="M292.71,361.86l1.15,8.39Z"/><path class="cls-8" d="M294,371.25a1,1,0,0,1-1.15-.87L291.71,362a1,1,0,0,1,.87-1.14,1,1,0,0,1,1.14.86l1.15,8.39A1,1,0,0,1,294,371.25Z"/><path class="cls-7" d="M297.75,361.17l1.14,8.39Z"/><path class="cls-8" d="M299,370.56a1,1,0,0,1-1.15-.86l-1.14-8.39a1,1,0,0,1,2-.27l1.15,8.38A1,1,0,0,1,299,370.56Z"/><path class="cls-7" d="M302.78,360.49l1.14,8.38Z"/><path class="cls-8" d="M304.06,369.88a1,1,0,0,1-1.14-.87l-1.15-8.39a1,1,0,0,1,2-.27l1.15,8.38A1,1,0,0,1,304.06,369.88Z"/><path class="cls-7" d="M307.81,359.8l1.14,8.38Z"/><path class="cls-8" d="M309.09,369.19a1,1,0,0,1-1.14-.87l-1.15-8.38a1,1,0,1,1,2-.28l1.15,8.39A1,1,0,0,1,309.09,369.19Z"/><path class="cls-7" d="M312.84,359.11,314,367.5Z"/><path class="cls-8" d="M314.12,368.5a1,1,0,0,1-1.14-.87l-1.15-8.38a1,1,0,0,1,2-.28l1.15,8.39A1,1,0,0,1,314.12,368.5Z"/><path class="cls-7" d="M317.87,358.42l1.14,8.39Z"/><path class="cls-8" d="M319.15,367.82A1,1,0,0,1,318,367l-1.15-8.39a1,1,0,0,1,.87-1.14,1,1,0,0,1,1.14.87l1.15,8.38A1,1,0,0,1,319.15,367.82Z"/><path class="cls-7" d="M322.9,357.74l1.14,8.38Z"/><path class="cls-8" d="M324.18,367.13a1,1,0,0,1-1.14-.87l-1.15-8.38a1,1,0,0,1,2-.28l1.14,8.38A1,1,0,0,1,324.18,367.13Z"/><path class="cls-7" d="M327.93,357.05l1.15,8.38Z"/><path class="cls-8" d="M329.21,366.44a1,1,0,0,1-1.14-.87l-1.15-8.38a1,1,0,1,1,2-.28l1.14,8.39A1,1,0,0,1,329.21,366.44Z"/><path class="cls-7" d="M333,356.36l1.15,8.39Z"/><path class="cls-8" d="M334.24,365.75a1,1,0,0,1-1.14-.86L332,356.5a1,1,0,0,1,.86-1.14,1,1,0,0,1,1.15.87l1.14,8.38A1,1,0,0,1,334.24,365.75Z"/><path class="cls-7" d="M334,305.26l-8.38,1.15Z"/><path class="cls-8" d="M334.18,306.27l-8.39,1.14a1,1,0,1,1-.27-2l8.38-1.14a1,1,0,0,1,1.15.86A1,1,0,0,1,334.18,306.27Z"/><path class="cls-7" d="M334.73,310.29l-8.39,1.15Z"/><path class="cls-8" d="M334.86,311.3l-8.38,1.14a1,1,0,0,1-1.14-.86,1,1,0,0,1,.87-1.15l8.38-1.14a1,1,0,0,1,1.14.87A1,1,0,0,1,334.86,311.3Z"/><path class="cls-7" d="M335.41,315.32,327,316.47Z"/><path class="cls-8" d="M335.55,316.33l-8.38,1.15a1,1,0,0,1-.28-2l8.39-1.14a1,1,0,0,1,.27,2Z"/><path class="cls-7" d="M336.1,320.35l-8.38,1.15Z"/><path class="cls-8" d="M336.24,321.36l-8.39,1.15a1,1,0,0,1-.27-2l8.38-1.14a1,1,0,1,1,.28,2Z"/><path class="cls-7" d="M336.79,325.39l-8.39,1.14Z"/><path class="cls-8" d="M336.93,326.39l-8.39,1.15a1,1,0,0,1-1.14-.87,1,1,0,0,1,.87-1.14l8.38-1.15a1,1,0,1,1,.28,2Z"/><path class="cls-7" d="M337.48,330.42l-8.39,1.14Z"/><path class="cls-8" d="M337.61,331.42l-8.38,1.15a1,1,0,0,1-.28-2l8.39-1.15a1,1,0,0,1,.27,2Z"/><path class="cls-7" d="M338.16,335.45l-8.38,1.14Z"/><path class="cls-8" d="M338.3,336.45l-8.38,1.15a1,1,0,1,1-.28-2l8.39-1.15a1,1,0,0,1,1.14.87A1,1,0,0,1,338.3,336.45Z"/><path class="cls-7" d="M338.85,340.48l-8.38,1.14Z"/><path class="cls-8" d="M339,341.48l-8.39,1.15a1,1,0,1,1-.27-2l8.38-1.15a1,1,0,0,1,1.15.87A1,1,0,0,1,339,341.48Z"/><path class="cls-7" d="M339.54,345.51l-8.39,1.14Z"/><path class="cls-8" d="M339.68,346.52l-8.39,1.14a1,1,0,1,1-.27-2l8.38-1.15a1,1,0,0,1,.28,2Z"/><path class="cls-7" d="M340.23,350.54l-8.39,1.15Z"/><path class="cls-8" d="M340.36,351.55,332,352.69a1,1,0,0,1-1.15-.87,1,1,0,0,1,.87-1.14l8.39-1.15a1,1,0,0,1,.27,2Z"/><path class="cls-7" d="M340.91,355.57l-8.38,1.15Z"/><path class="cls-8" d="M341.05,356.58l-8.38,1.14a1,1,0,0,1-1.15-.87,1,1,0,0,1,.87-1.14l8.39-1.14a1,1,0,0,1,1.14.86A1,1,0,0,1,341.05,356.58Z"/><path class="cls-7" d="M275.77,313.22l-8.38,1.15Z"/><path class="cls-8" d="M275.91,314.23l-8.39,1.14a1,1,0,0,1-.27-2l8.38-1.14a1,1,0,0,1,1.15.86A1,1,0,0,1,275.91,314.23Z"/><path class="cls-7" d="M276.46,318.25l-8.39,1.15Z"/><path class="cls-8" d="M276.59,319.26l-8.38,1.14a1,1,0,0,1-1.14-.86,1,1,0,0,1,.87-1.15l8.38-1.14a1,1,0,0,1,1.14.87A1,1,0,0,1,276.59,319.26Z"/><path class="cls-7" d="M277.14,323.28l-8.38,1.15Z"/><path class="cls-8" d="M277.28,324.29l-8.38,1.15a1,1,0,1,1-.28-2l8.39-1.14a1,1,0,1,1,.27,2Z"/><path class="cls-7" d="M277.83,328.31l-8.38,1.15Z"/><path class="cls-8" d="M278,329.32l-8.39,1.15a1,1,0,0,1-.27-2l8.38-1.14a1,1,0,1,1,.28,2Z"/><path class="cls-7" d="M278.52,333.35l-8.39,1.14Z"/><path class="cls-8" d="M278.66,334.35l-8.39,1.15a1,1,0,0,1-1.14-.87,1,1,0,0,1,.87-1.14l8.38-1.15a1,1,0,1,1,.28,2Z"/><path class="cls-7" d="M279.21,338.38l-8.39,1.14Z"/><path class="cls-8" d="M279.34,339.38,271,340.53a1,1,0,0,1-.28-2l8.39-1.15a1,1,0,1,1,.27,2Z"/><path class="cls-7" d="M279.89,343.41l-8.38,1.14Z"/><path class="cls-8" d="M280,344.41l-8.38,1.15a1,1,0,1,1-.28-2l8.39-1.15a1,1,0,0,1,1.14.87A1,1,0,0,1,280,344.41Z"/><path class="cls-7" d="M280.58,348.44l-8.38,1.14Z"/><path class="cls-8" d="M280.72,349.44l-8.39,1.15a1,1,0,1,1-.27-2l8.38-1.15a1,1,0,0,1,1.15.87A1,1,0,0,1,280.72,349.44Z"/><path class="cls-7" d="M281.27,353.47l-8.39,1.14Z"/><path class="cls-8" d="M281.41,354.48,273,355.62a1,1,0,0,1-.27-2l8.38-1.15a1,1,0,0,1,.28,2Z"/><path class="cls-7" d="M282,358.5l-8.39,1.15Z"/><path class="cls-8" d="M282.09,359.51l-8.38,1.14a1,1,0,0,1-1.15-.87,1,1,0,0,1,.87-1.14l8.39-1.15a1,1,0,0,1,.27,2Z"/><path class="cls-7" d="M282.64,363.53l-8.38,1.15Z"/><path class="cls-8" d="M282.78,364.54l-8.38,1.14a1,1,0,0,1-1.15-.87,1,1,0,0,1,.87-1.14l8.39-1.14a1,1,0,0,1,1.14.86A1,1,0,0,1,282.78,364.54Z"/><rect class="cls-4" x="252.37" y="294.77" width="142.96" height="296.2" rx="11.76" ry="11.76"/><path class="cls-14" d="M395.34,579.21V473.39c-11.53-23.95-39.17-40.85-71.49-40.85s-60,16.9-71.48,40.85V579.21A11.77,11.77,0,0,0,264.13,591H383.58A11.77,11.77,0,0,0,395.34,579.21Z"/><rect class="cls-14" x="261.07" y="314.54" width="125.56" height="32.65"/><rect class="cls-14" x="261.07" y="352.21" width="125.56" height="32.65"/><rect class="cls-11" x="274.67" y="394.11" width="19.09" height="9.02"/><rect class="cls-15" x="274.67" y="394.11" width="19.09" height="3.32"/><rect class="cls-11" x="304.07" y="394.11" width="19.09" height="9.02"/><rect class="cls-15" x="304.07" y="394.11" width="19.09" height="3.32"/><path class="cls-14" d="M343.49,399.36a3.59,3.59,0,1,1-3.59-3.59A3.58,3.58,0,0,1,343.49,399.36Z"/><path class="cls-15" d="M339.9,402.17a2.81,2.81,0,1,1,2.81-2.81A2.81,2.81,0,0,1,339.9,402.17Z"/><path class="cls-14" d="M357.46,399.36a3.6,3.6,0,1,1-3.6-3.59A3.59,3.59,0,0,1,357.46,399.36Z"/><circle class="cls-15" cx="353.86" cy="399.36" r="2.81"/><circle class="cls-16" cx="370.23" cy="399.36" r="2.81"/><rect class="cls-4" x="370.23" y="357.79" width="11.61" height="5.39"/><rect class="cls-4" x="370.23" y="319.82" width="11.61" height="5.39"/><path d="M252.37,575.53v3.68A11.77,11.77,0,0,0,264.13,591H383.58a11.77,11.77,0,0,0,11.76-11.76v-3.68Z"/><polygon class="cls-15" points="322.92 457.55 291.98 509.48 322.24 528.1 352.86 510.07 322.92 457.55"/><polygon class="cls-4" points="322.2 532.17 292.61 512.45 321.99 553.83 352.17 513.03 322.2 532.17"/><polygon class="cls-17" points="322.52 499.09 291.98 509.48 322.24 528.1 352.86 510.07 322.52 499.09"/></g></g></g></svg>