<svg xmlns="http://www.w3.org/2000/svg" xmlns:xlink="http://www.w3.org/1999/xlink" viewBox="0 0 644.6 644"><defs><style>.cls-1{isolation:isolate;}.cls-2{fill:#fff;}.cls-2,.cls-3{opacity:0.6;}.cls-3{fill:url(#radial-gradient);}.cls-4{fill:#4e4c4f;}.cls-5{fill:#3c3b3d;}.cls-6{fill:#e7e8ed;}.cls-7{fill:#282729;}.cls-8{fill:#4a4e4f;}.cls-9{font-size:14.03px;font-family:MyriadPro-Regular, Myriad Pro;}.cls-10{mix-blend-mode:multiply;}.cls-11{fill:#b3b3b3;}.cls-12{font-size:11.39px;stroke:#231f20;stroke-miterlimit:10;stroke-width:0.75px;font-family:MicrosoftJhengHeiRegular, Microsoft JhengHei;letter-spacing:0.01em;}.cls-13{fill:#302f30;}.cls-14{fill:#787878;}.cls-15{fill:#50c0d8;}.cls-16{fill:#424242;}</style><radialGradient id="radial-gradient" cx="322.6" cy="322" r="322" gradientUnits="userSpaceOnUse"><stop offset="0" stop-color="#c8922d" stop-opacity="0.5"/><stop offset="1" stop-color="#c99126"/></radialGradient></defs><title>Asset 17</title><g class="cls-1"><g id="Layer_2" data-name="Layer 2"><g id="objects"><circle class="cls-2" cx="322" cy="322" r="322"/><circle class="cls-3" cx="322.6" cy="322" r="322"/><rect class="cls-4" x="295.1" y="306.45" width="56.67" height="56.67" rx="2.88" ry="2.88" transform="translate(-44.05 620.53) rotate(-83.85)"/><rect class="cls-5" x="307.37" y="318.72" width="32.14" height="32.14" rx="2.71" ry="2.71" transform="translate(-44.05 620.53) rotate(-83.85)"/><rect class="cls-6" x="308.56" y="319.92" width="29.75" height="29.75" rx="1.51" ry="1.51" transform="translate(-44.05 620.53) rotate(-83.85)"/><path class="cls-7" d="M302.94,300.67l-.86,8Z"/><path class="cls-8" d="M302,309.59a1,1,0,0,1-.85-1.06l.86-8a1,1,0,0,1,1.05-.85,1,1,0,0,1,.86,1.06l-.86,8A1,1,0,0,1,302,309.59Z"/><path class="cls-7" d="M307.72,301.18l-.86,8Z"/><path class="cls-8" d="M306.76,310.1a1,1,0,0,1-.85-1.06l.85-8a1,1,0,0,1,1.92.2l-.86,8A1,1,0,0,1,306.76,310.1Z"/><path class="cls-7" d="M312.5,301.7l-.86,8Z"/><path class="cls-8" d="M311.54,310.62a1,1,0,0,1-.85-1.06l.85-8a1,1,0,1,1,1.91.21l-.85,8A1,1,0,0,1,311.54,310.62Z"/><path class="cls-7" d="M317.28,302.21l-.86,8Z"/><path class="cls-8" d="M316.32,311.13a1,1,0,0,1-.86-1.06l.86-8a1,1,0,1,1,1.91.2l-.85,8A1,1,0,0,1,316.32,311.13Z"/><path class="cls-7" d="M322.06,302.72l-.86,8Z"/><path class="cls-8" d="M321.1,311.64a1,1,0,0,1-.86-1.05l.86-8a1,1,0,1,1,1.91.21l-.86,8A1,1,0,0,1,321.1,311.64Z"/><path class="cls-7" d="M326.83,303.24l-.85,8Z"/><path class="cls-8" d="M325.87,312.16a1,1,0,0,1-.85-1.06l.86-8a1,1,0,0,1,1.06-.86,1,1,0,0,1,.85,1.06l-.86,8A1,1,0,0,1,325.87,312.16Z"/><path class="cls-7" d="M331.61,303.75l-.85,8Z"/><path class="cls-8" d="M330.65,312.67a1,1,0,0,1-.85-1.05l.86-8a1,1,0,0,1,1.06-.85,1,1,0,0,1,.85,1.06l-.86,8A1,1,0,0,1,330.65,312.67Z"/><path class="cls-7" d="M336.39,304.27l-.86,8Z"/><path class="cls-8" d="M335.43,313.19a1,1,0,0,1-.85-1.06l.86-8a1,1,0,1,1,1.91.2l-.86,8A1,1,0,0,1,335.43,313.19Z"/><path class="cls-7" d="M341.17,304.78l-.86,8Z"/><path class="cls-8" d="M340.21,313.7a1,1,0,0,1-.85-1.06l.86-8a1,1,0,0,1,1-.85,1,1,0,0,1,.86,1.06l-.86,8A1,1,0,0,1,340.21,313.7Z"/><path class="cls-7" d="M346,305.3l-.86,8Z"/><path class="cls-8" d="M345,314.22a1,1,0,0,1-.85-1.06l.85-8a1,1,0,0,1,1.92.21l-.86,8A1,1,0,0,1,345,314.22Z"/><path class="cls-7" d="M350.73,305.81l-.86,8Z"/><path class="cls-8" d="M349.77,314.73a1,1,0,0,1-.86-1.06l.86-8a1,1,0,0,1,1.91.21l-.85,8A1,1,0,0,1,349.77,314.73Z"/><path class="cls-7" d="M297,355.83l-.86,8Z"/><path class="cls-8" d="M296,364.75a1,1,0,0,1-.85-1.05l.86-8a1,1,0,0,1,1.05-.85,1,1,0,0,1,.86,1.06l-.86,8A1,1,0,0,1,296,364.75Z"/><path class="cls-7" d="M301.78,356.35l-.86,8Z"/><path class="cls-8" d="M300.82,365.27a1,1,0,0,1-.85-1.06l.85-8a1,1,0,1,1,1.92.2l-.86,8A1,1,0,0,1,300.82,365.27Z"/><path class="cls-7" d="M306.56,356.86l-.86,8Z"/><path class="cls-8" d="M305.6,365.78a1,1,0,0,1-.85-1.06l.85-8a1,1,0,1,1,1.91.21l-.85,8A1,1,0,0,1,305.6,365.78Z"/><path class="cls-7" d="M311.34,357.38l-.86,8Z"/><path class="cls-8" d="M310.38,366.3a1,1,0,0,1-.86-1.06l.86-8a1,1,0,0,1,1.06-.86,1,1,0,0,1,.85,1.06l-.85,8A1,1,0,0,1,310.38,366.3Z"/><path class="cls-7" d="M316.12,357.89l-.86,8Z"/><path class="cls-8" d="M315.16,366.81a1,1,0,0,1-.86-1.06l.86-8a1,1,0,1,1,1.91.21l-.86,8A1,1,0,0,1,315.16,366.81Z"/><path class="cls-7" d="M320.89,358.41l-.85,8Z"/><path class="cls-8" d="M319.93,367.33a1,1,0,0,1-.85-1.06l.86-8a1,1,0,0,1,1.91.21l-.86,8A1,1,0,0,1,319.93,367.33Z"/><path class="cls-7" d="M325.67,358.92l-.85,8Z"/><path class="cls-8" d="M324.71,367.84a1,1,0,0,1-.85-1.06l.86-8a1,1,0,0,1,1.91.2l-.86,8A1,1,0,0,1,324.71,367.84Z"/><path class="cls-7" d="M330.45,359.44l-.86,8Z"/><path class="cls-8" d="M329.49,368.36a1,1,0,0,1-.85-1.06l.86-8a1,1,0,0,1,1.05-.85,1,1,0,0,1,.86,1.06l-.86,8A1,1,0,0,1,329.49,368.36Z"/><path class="cls-7" d="M335.23,360l-.86,8Z"/><path class="cls-8" d="M334.27,368.87a1,1,0,0,1-.85-1.06l.85-8a1,1,0,1,1,1.92.2l-.86,8A1,1,0,0,1,334.27,368.87Z"/><path class="cls-7" d="M340,360.47l-.86,8Z"/><path class="cls-8" d="M339.05,369.39a1,1,0,0,1-.85-1.06l.85-8a1,1,0,1,1,1.91.21l-.85,8A1,1,0,0,1,339.05,369.39Z"/><path class="cls-7" d="M344.79,361l-.86,8Z"/><path class="cls-8" d="M343.83,369.9a1,1,0,0,1-.86-1.06l.86-8a1,1,0,0,1,1.06-.86,1,1,0,0,1,.85,1.06l-.85,8A1,1,0,0,1,343.83,369.9Z"/><path class="cls-7" d="M357.42,314.28l-8-.86Z"/><path class="cls-8" d="M357.32,315.23l-8-.86a1,1,0,0,1-.85-1.05,1,1,0,0,1,1.06-.86l8,.86a1,1,0,0,1-.2,1.91Z"/><path class="cls-7" d="M356.9,319.06l-8-.86Z"/><path class="cls-8" d="M356.8,320l-8-.86a1,1,0,0,1-.86-1.06,1,1,0,0,1,1.06-.85l8,.86a1,1,0,1,1-.21,1.91Z"/><path class="cls-7" d="M356.39,323.83l-8-.85Z"/><path class="cls-8" d="M356.29,324.79l-8-.86a1,1,0,1,1,.21-1.91l8,.86a1,1,0,1,1-.2,1.91Z"/><path class="cls-7" d="M355.88,328.61l-8-.85Z"/><path class="cls-8" d="M355.77,329.57l-8-.86a1,1,0,0,1,.2-1.91l8,.86a1,1,0,0,1,.85,1.06A1,1,0,0,1,355.77,329.57Z"/><path class="cls-7" d="M355.36,333.39l-8-.86Z"/><path class="cls-8" d="M355.26,334.35l-8-.86a1,1,0,0,1,.21-1.91l8,.86a1,1,0,1,1-.2,1.91Z"/><path class="cls-7" d="M354.85,338.17l-8-.86Z"/><path class="cls-8" d="M354.74,339.13l-8-.86a1,1,0,1,1,.21-1.91l8,.85a1,1,0,0,1-.21,1.92Z"/><path class="cls-7" d="M354.33,343l-8-.86Z"/><path class="cls-8" d="M354.23,343.9l-8-.85a1,1,0,0,1-.85-1.06,1,1,0,0,1,1.06-.85l8,.85a1,1,0,0,1,.86,1.06A1,1,0,0,1,354.23,343.9Z"/><path class="cls-7" d="M353.82,347.73l-8-.86Z"/><path class="cls-8" d="M353.71,348.68l-8-.85a1,1,0,0,1,.21-1.92l8,.86a1,1,0,0,1-.21,1.91Z"/><path class="cls-7" d="M353.3,352.51l-8-.86Z"/><path class="cls-8" d="M353.2,353.46l-8-.86a1,1,0,1,1,.2-1.91l8,.86a1,1,0,0,1-.21,1.91Z"/><path class="cls-7" d="M352.79,357.28l-8-.85Z"/><path class="cls-8" d="M352.69,358.24l-8-.86a1,1,0,0,1-.85-1.06,1,1,0,0,1,1.06-.85l8,.86a1,1,0,0,1-.2,1.91Z"/><path class="cls-7" d="M352.27,362.06l-8-.85Z"/><path class="cls-8" d="M352.17,363l-8-.86a1,1,0,1,1,.2-1.91l8,.86a1,1,0,1,1-.21,1.91Z"/><path class="cls-7" d="M302.07,308.32l-8-.86Z"/><path class="cls-8" d="M302,309.27l-8-.85a1,1,0,0,1,.21-1.92l8,.86a1,1,0,0,1,.86,1.06A1,1,0,0,1,302,309.27Z"/><path class="cls-7" d="M301.56,313.1l-8-.86Z"/><path class="cls-8" d="M301.45,314.05l-8-.86a1,1,0,0,1-.85-1.06,1,1,0,0,1,1.05-.85l8,.86a1,1,0,0,1-.21,1.91Z"/><path class="cls-7" d="M301,317.87l-8-.85Z"/><path class="cls-8" d="M300.94,318.83l-8-.86a1,1,0,0,1,.21-1.91l8,.86A1,1,0,0,1,302,318,1,1,0,0,1,300.94,318.83Z"/><path class="cls-7" d="M300.53,322.65l-8-.85Z"/><path class="cls-8" d="M300.42,323.61l-8-.86a1,1,0,1,1,.21-1.91l8,.86a1,1,0,1,1-.21,1.91Z"/><path class="cls-7" d="M300,327.43l-8-.86Z"/><path class="cls-8" d="M299.91,328.39l-8-.86a1,1,0,0,1-.86-1.06,1,1,0,0,1,1.06-.85l8,.86a1,1,0,0,1,.85,1A1,1,0,0,1,299.91,328.39Z"/><path class="cls-7" d="M299.5,332.21l-8-.86Z"/><path class="cls-8" d="M299.39,333.17l-8-.86a1,1,0,0,1,.21-1.91l8,.85a1,1,0,0,1-.21,1.92Z"/><path class="cls-7" d="M299,337l-8-.86Z"/><path class="cls-8" d="M298.88,337.94l-8-.85a1,1,0,0,1-.86-1.06,1,1,0,0,1,1.06-.85l8,.85a1,1,0,1,1-.21,1.91Z"/><path class="cls-7" d="M298.47,341.77l-8-.86Z"/><path class="cls-8" d="M298.37,342.72l-8-.85a1,1,0,0,1-.85-1.06,1,1,0,0,1,1.06-.86l8,.86a1,1,0,0,1-.2,1.91Z"/><path class="cls-7" d="M298,346.55l-8-.86Z"/><path class="cls-8" d="M297.85,347.5l-8-.86a1,1,0,0,1-.86-1.05,1,1,0,0,1,1.06-.86l8,.86a1,1,0,1,1-.21,1.91Z"/><path class="cls-7" d="M297.44,351.33l-8-.86Z"/><path class="cls-8" d="M297.34,352.28l-8-.86a1,1,0,0,1-.85-1.06,1,1,0,0,1,1.06-.85l8,.86a1,1,0,1,1-.2,1.91Z"/><path class="cls-7" d="M296.92,356.1l-8-.85Z"/><path class="cls-8" d="M296.82,357.06l-8-.86a1,1,0,0,1,.2-1.91l8,.86a1,1,0,0,1,.85,1.06A1,1,0,0,1,296.82,357.06Z"/><text class="cls-9" transform="matrix(0.99, 0.11, -0.11, 0.99, 310.93, 337.31)">CPU</text><g class="cls-10"><path class="cls-11" d="M333.54,272.14a1,1,0,1,0-.28-2l-3.4.47-.42-3,3.41-.47a1,1,0,0,0-.27-2l-3.41.47-.07-.48a3,3,0,0,0-3.43-2.61l-.48.07-.48-3.56a1,1,0,0,0-2,.27l.49,3.56-3,.41-.48-3.55a1,1,0,0,0-2,.27l.49,3.56-3,.41-.49-3.56a1,1,0,0,0-1.14-.86,1,1,0,0,0-.87,1.14l.49,3.56-3,.41-.49-3.56a1,1,0,1,0-2,.28l.49,3.55-3,.42-.49-3.56a1,1,0,0,0-2,.27l.49,3.56-3,.41-.49-3.55a1,1,0,0,0-2,.27l.49,3.56-3,.41-.49-3.56a1,1,0,1,0-2,.28l.48,3.55-3,.42-.49-3.56a1,1,0,1,0-2,.28l.48,3.55-3,.41-.48-3.55a1,1,0,0,0-2,.27l.48,3.56-3,.41-.48-3.55a1,1,0,0,0-1.15-.87,1,1,0,0,0-.86,1.14l.48,3.56-3,.41-.48-3.56a1,1,0,1,0-2,.28l.49,3.55-.48.07a3,3,0,0,0-2.6,3.43l.06.48-3.93.54a1,1,0,0,0-.87,1.14,1,1,0,0,0,1.15.87l3.93-.54.41,3-3.93.54a1,1,0,0,0-.87,1.14,1,1,0,0,0,1.14.87l3.93-.54.42,3-3.93.54a1,1,0,1,0,.27,2l3.93-.54.41,3-3.93.54a1,1,0,1,0,.28,2l3.93-.54.41,3-3.93.54a1,1,0,1,0,.28,2l3.93-.54.41,3-3.93.54a1,1,0,0,0,.27,2l3.93-.53.41,3-3.93.54a1,1,0,0,0-.86,1.14,1,1,0,0,0,1.14.87l3.93-.53.41,3-3.93.54a1,1,0,0,0-.87,1.15,1,1,0,0,0,1.15.86l3.93-.53.41,3-3.93.53a1,1,0,1,0,.27,2l3.93-.53.42,3-3.93.53a1,1,0,0,0,.27,2l3.93-.54.41,3-3.93.53a1,1,0,0,0,.28,2L277,326l.06.48a3.06,3.06,0,0,0,3.44,2.61L281,329l.49,3.59a1,1,0,0,0,1.15.87,1,1,0,0,0,.87-1.14l-.49-3.59,3-.42.5,3.59a1,1,0,0,0,1.14.87,1,1,0,0,0,.87-1.14l-.49-3.59,3-.41.49,3.59a1,1,0,1,0,2-.28l-.49-3.59,3-.41.49,3.59a1,1,0,1,0,2-.28l-.49-3.59,3-.41.49,3.59a1,1,0,0,0,2-.27l-.49-3.59,3-.42.49,3.6a1,1,0,0,0,2-.28l-.49-3.59,3-.41.49,3.59a1,1,0,0,0,1.14.87,1,1,0,0,0,.87-1.15l-.49-3.59,3-.41.49,3.59a1,1,0,1,0,2-.27l-.49-3.6,3-.41.49,3.59a1,1,0,1,0,2-.27l-.49-3.59,3-.42.49,3.6a1,1,0,0,0,1.15.86,1,1,0,0,0,.86-1.14l-.49-3.59,3-.41.49,3.59a1,1,0,1,0,2-.28l-.49-3.59.47-.06a3,3,0,0,0,2.61-3.43l-.06-.48,3.4-.47a1,1,0,0,0-.27-2l-3.41.46-.41-3,3.41-.47a1,1,0,0,0,.86-1.14,1,1,0,0,0-1.14-.87l-3.41.46-.41-3,3.41-.46a1,1,0,0,0,.87-1.14,1,1,0,0,0-1.15-.87l-3.4.46-.42-3,3.41-.46a1,1,0,1,0-.27-2l-3.41.46-.41-3,3.4-.46a1,1,0,1,0-.27-2l-3.41.46-.41-3,3.41-.46a1,1,0,1,0-.28-2l-3.41.47-.41-3,3.41-.46a1,1,0,1,0-.28-2l-3.4.47-.42-3,3.41-.47a1,1,0,0,0,.87-1.14,1,1,0,0,0-1.14-.87l-3.41.47-.41-3,3.4-.47a1,1,0,0,0-.27-2l-3.41.47-.41-3Z"/></g><rect class="cls-4" x="273.15" y="265.84" width="59.87" height="59.87" rx="3.05" ry="3.05" transform="translate(-37.24 43.74) rotate(-7.78)"/><rect class="cls-5" x="286.52" y="278.74" width="33.96" height="33.95" rx="2.86" ry="2.86" transform="translate(-37.23 43.8) rotate(-7.78)"/><rect class="cls-6" x="287.37" y="280.07" width="31.43" height="31.42" rx="1.6" ry="1.6" transform="translate(-37.24 43.74) rotate(-7.78)"/><text class="cls-12" transform="translate(292.49 300.73) rotate(-7.78)">GPU</text><path class="cls-7" d="M273.39,266l1.15,8.38Z"/><path class="cls-8" d="M274.67,275.39a1,1,0,0,1-1.14-.87l-1.15-8.38a1,1,0,1,1,2-.28l1.14,8.39A1,1,0,0,1,274.67,275.39Z"/><path class="cls-7" d="M278.42,265.31l1.15,8.39Z"/><path class="cls-8" d="M279.7,274.7a1,1,0,0,1-1.14-.87l-1.14-8.38a1,1,0,0,1,.86-1.14,1,1,0,0,1,1.15.87l1.14,8.38A1,1,0,0,1,279.7,274.7Z"/><path class="cls-7" d="M283.45,264.63,284.6,273Z"/><path class="cls-8" d="M284.74,274a1,1,0,0,1-1.15-.87l-1.14-8.39a1,1,0,0,1,2-.27l1.14,8.38A1,1,0,0,1,284.74,274Z"/><path class="cls-7" d="M288.48,263.94l1.15,8.38Z"/><path class="cls-8" d="M289.77,273.33a1,1,0,0,1-1.15-.87l-1.14-8.38a1,1,0,1,1,2-.28l1.15,8.39A1,1,0,0,1,289.77,273.33Z"/><path class="cls-7" d="M293.51,263.25l1.15,8.39Z"/><path class="cls-8" d="M294.8,272.64a1,1,0,0,1-1.15-.87l-1.14-8.38a1,1,0,1,1,2-.28l1.15,8.39A1,1,0,0,1,294.8,272.64Z"/><path class="cls-7" d="M298.55,262.56l1.14,8.39Z"/><path class="cls-8" d="M299.83,272a1,1,0,0,1-1.14-.86l-1.15-8.39a1,1,0,0,1,2-.27l1.15,8.38A1,1,0,0,1,299.83,272Z"/><path class="cls-7" d="M303.58,261.88l1.14,8.38Z"/><path class="cls-8" d="M304.86,271.27a1,1,0,0,1-1.14-.87L302.57,262a1,1,0,0,1,2-.27l1.15,8.38A1,1,0,0,1,304.86,271.27Z"/><path class="cls-7" d="M308.61,261.19l1.14,8.38Z"/><path class="cls-8" d="M309.89,270.58a1,1,0,0,1-1.14-.87l-1.15-8.38a1,1,0,1,1,2-.28l1.15,8.39A1,1,0,0,1,309.89,270.58Z"/><path class="cls-7" d="M313.64,260.5l1.14,8.39Z"/><path class="cls-8" d="M314.92,269.89a1,1,0,0,1-1.14-.87l-1.15-8.38a1,1,0,0,1,.87-1.14,1,1,0,0,1,1.14.86l1.15,8.39A1,1,0,0,1,314.92,269.89Z"/><path class="cls-7" d="M318.67,259.81l1.14,8.39Z"/><path class="cls-8" d="M320,269.21a1,1,0,0,1-1.14-.87L317.66,260a1,1,0,0,1,2-.27l1.14,8.38A1,1,0,0,1,320,269.21Z"/><path class="cls-7" d="M323.7,259.13l1.15,8.38Z"/><path class="cls-8" d="M325,268.52a1,1,0,0,1-1.14-.87l-1.15-8.39a1,1,0,0,1,2-.27l1.14,8.38A1,1,0,0,1,325,268.52Z"/><path class="cls-7" d="M281.32,324.08l1.15,8.38Z"/><path class="cls-8" d="M282.61,333.47a1,1,0,0,1-1.15-.87l-1.14-8.38a1,1,0,1,1,2-.28l1.15,8.39A1,1,0,0,1,282.61,333.47Z"/><path class="cls-7" d="M286.36,323.39l1.14,8.39Z"/><path class="cls-8" d="M287.64,332.78a1,1,0,0,1-1.14-.87l-1.15-8.38a1,1,0,0,1,2-.28l1.15,8.39A1,1,0,0,1,287.64,332.78Z"/><path class="cls-7" d="M291.39,322.71l1.14,8.38Z"/><path class="cls-8" d="M292.67,332.1a1,1,0,0,1-1.14-.87l-1.15-8.39a1,1,0,0,1,2-.27l1.15,8.38A1,1,0,0,1,292.67,332.1Z"/><path class="cls-7" d="M296.42,322l1.14,8.38Z"/><path class="cls-8" d="M297.7,331.41a1,1,0,0,1-1.14-.87l-1.15-8.38a1,1,0,0,1,.87-1.15,1,1,0,0,1,1.14.87l1.15,8.38A1,1,0,0,1,297.7,331.41Z"/><path class="cls-7" d="M301.45,321.33l1.14,8.38Z"/><path class="cls-8" d="M302.73,330.72a1,1,0,0,1-1.14-.87l-1.15-8.38a1,1,0,0,1,.87-1.15,1,1,0,0,1,1.14.87l1.15,8.39A1,1,0,0,1,302.73,330.72Z"/><path class="cls-7" d="M306.48,320.64l1.15,8.39Z"/><path class="cls-8" d="M307.76,330a1,1,0,0,1-1.14-.86l-1.15-8.39a1,1,0,0,1,2-.27l1.14,8.38A1,1,0,0,1,307.76,330Z"/><path class="cls-7" d="M311.51,320l1.15,8.38Z"/><path class="cls-8" d="M312.79,329.35a1,1,0,0,1-1.14-.87l-1.15-8.39a1,1,0,0,1,.87-1.14,1,1,0,0,1,1.15.87l1.14,8.38A1,1,0,0,1,312.79,329.35Z"/><path class="cls-7" d="M316.54,319.27l1.15,8.38Z"/><path class="cls-8" d="M317.82,328.66a1,1,0,0,1-1.14-.87l-1.14-8.38a1,1,0,0,1,.86-1.15,1,1,0,0,1,1.15.87l1.14,8.39A1,1,0,0,1,317.82,328.66Z"/><path class="cls-7" d="M321.57,318.58l1.15,8.39Z"/><path class="cls-8" d="M322.86,328a1,1,0,0,1-1.15-.87l-1.14-8.38a1,1,0,0,1,.86-1.14,1,1,0,0,1,1.15.86l1.14,8.39A1,1,0,0,1,322.86,328Z"/><path class="cls-7" d="M326.6,317.89l1.15,8.39Z"/><path class="cls-8" d="M327.89,327.28a1,1,0,0,1-1.15-.86L325.6,318a1,1,0,0,1,2-.27l1.14,8.38A1,1,0,0,1,327.89,327.28Z"/><path class="cls-7" d="M331.63,317.21l1.15,8.38Z"/><path class="cls-8" d="M332.92,326.6a1,1,0,0,1-1.15-.87l-1.14-8.39a1,1,0,0,1,2-.27l1.15,8.38A1,1,0,0,1,332.92,326.6Z"/><path class="cls-7" d="M332.71,266.11l-8.38,1.14Z"/><path class="cls-8" d="M332.85,267.11l-8.38,1.15a1,1,0,0,1-1.15-.87,1,1,0,0,1,.87-1.14l8.39-1.15a1,1,0,0,1,.27,2Z"/><path class="cls-7" d="M333.4,271.14,325,272.28Z"/><path class="cls-8" d="M333.54,272.14l-8.39,1.15a1,1,0,0,1-1.14-.87,1,1,0,0,1,.87-1.14l8.38-1.15a1,1,0,1,1,.28,2Z"/><path class="cls-7" d="M334.09,276.17l-8.39,1.14Z"/><path class="cls-8" d="M334.22,277.17l-8.38,1.15a1,1,0,0,1-.27-2l8.38-1.15a1,1,0,0,1,.27,2Z"/><path class="cls-7" d="M334.77,281.2l-8.38,1.14Z"/><path class="cls-8" d="M334.91,282.2l-8.38,1.15a1,1,0,1,1-.28-2l8.39-1.15a1,1,0,0,1,1.14.87A1,1,0,0,1,334.91,282.2Z"/><path class="cls-7" d="M335.46,286.23l-8.38,1.15Z"/><path class="cls-8" d="M335.6,287.24l-8.38,1.14a1,1,0,1,1-.28-2l8.38-1.15a1,1,0,1,1,.28,2Z"/><path class="cls-7" d="M336.15,291.26l-8.39,1.15Z"/><path class="cls-8" d="M336.29,292.27l-8.39,1.14a1,1,0,0,1-.27-2l8.38-1.15a1,1,0,1,1,.28,2Z"/><path class="cls-7" d="M336.84,296.29l-8.39,1.15Z"/><path class="cls-8" d="M337,297.3l-8.38,1.14a1,1,0,0,1-1.14-.87,1,1,0,0,1,.86-1.14l8.39-1.14a1,1,0,1,1,.27,2Z"/><path class="cls-7" d="M337.52,301.32l-8.38,1.15Z"/><path class="cls-8" d="M337.66,302.33l-8.38,1.14a1,1,0,0,1-1.15-.86,1,1,0,0,1,.87-1.15l8.39-1.14a1,1,0,1,1,.27,2Z"/><path class="cls-7" d="M338.21,306.35l-8.38,1.15Z"/><path class="cls-8" d="M338.35,307.36,330,308.5a1,1,0,1,1-.27-2l8.38-1.14a1,1,0,0,1,1.15.87A1,1,0,0,1,338.35,307.36Z"/><path class="cls-7" d="M338.9,311.38l-8.39,1.15Z"/><path class="cls-8" d="M339,312.39l-8.39,1.15a1,1,0,0,1-.27-2l8.38-1.14a1,1,0,0,1,1.14.87A1,1,0,0,1,339,312.39Z"/><path class="cls-7" d="M339.59,316.42l-8.39,1.14Z"/><path class="cls-8" d="M339.72,317.42l-8.38,1.15a1,1,0,1,1-.28-2l8.39-1.14a1,1,0,0,1,.27,2Z"/><path class="cls-7" d="M274.44,274.07l-8.38,1.14Z"/><path class="cls-8" d="M274.58,275.07l-8.38,1.15a1,1,0,0,1-1.15-.87,1,1,0,0,1,.87-1.14l8.39-1.15a1,1,0,1,1,.27,2Z"/><path class="cls-7" d="M275.13,279.1l-8.38,1.14Z"/><path class="cls-8" d="M275.27,280.1l-8.39,1.15a1,1,0,0,1-1.14-.87,1,1,0,0,1,.87-1.14l8.38-1.15a1,1,0,1,1,.28,2Z"/><path class="cls-7" d="M275.82,284.13l-8.39,1.14Z"/><path class="cls-8" d="M276,285.13l-8.38,1.15a1,1,0,1,1-.27-2l8.38-1.15a1,1,0,1,1,.27,2Z"/><path class="cls-7" d="M276.5,289.16l-8.38,1.14Z"/><path class="cls-8" d="M276.64,290.16l-8.38,1.15a1,1,0,1,1-.28-2l8.39-1.15a1,1,0,0,1,1.14.87A1,1,0,0,1,276.64,290.16Z"/><path class="cls-7" d="M277.19,294.19l-8.38,1.15Z"/><path class="cls-8" d="M277.33,295.2,269,296.34a1,1,0,1,1-.28-2l8.38-1.15a1,1,0,0,1,.28,2Z"/><path class="cls-7" d="M277.88,299.22l-8.39,1.15Z"/><path class="cls-8" d="M278,300.23l-8.39,1.14a1,1,0,0,1-.27-2l8.38-1.15a1,1,0,0,1,.28,2Z"/><path class="cls-7" d="M278.57,304.25l-8.39,1.15Z"/><path class="cls-8" d="M278.7,305.26l-8.38,1.14a1,1,0,0,1-1.14-.87,1,1,0,0,1,.86-1.14l8.39-1.14a1,1,0,1,1,.27,2Z"/><path class="cls-7" d="M279.25,309.28l-8.38,1.15Z"/><path class="cls-8" d="M279.39,310.29,271,311.43a1,1,0,0,1-1.15-.86,1,1,0,0,1,.87-1.15l8.39-1.14a1,1,0,1,1,.27,2Z"/><path class="cls-7" d="M279.94,314.31l-8.38,1.15Z"/><path class="cls-8" d="M280.08,315.32l-8.39,1.14a1,1,0,1,1-.27-2l8.38-1.14a1,1,0,0,1,1.15.87A1,1,0,0,1,280.08,315.32Z"/><path class="cls-7" d="M280.63,319.34l-8.39,1.15Z"/><path class="cls-8" d="M280.77,320.35l-8.39,1.15a1,1,0,0,1-.27-2l8.38-1.14a1,1,0,0,1,1.14.87A1,1,0,0,1,280.77,320.35Z"/><path class="cls-7" d="M281.32,324.38l-8.39,1.14Z"/><path class="cls-8" d="M281.45,325.38l-8.38,1.15a1,1,0,0,1-.28-2l8.39-1.14a1,1,0,1,1,.27,2Z"/><g class="cls-10"><path class="cls-11" d="M320,304.74a1,1,0,0,0-1.4-1.47l-2.49,2.37-2.1-2.2,2.49-2.37a1,1,0,0,0,0-1.44,1,1,0,0,0-1.43,0L312.59,302l-.34-.35a3,3,0,0,0-4.3-.11l-.35.33-2.48-2.6a1,1,0,0,0-1.44,0,1,1,0,0,0,0,1.43l2.47,2.6-2.2,2.1-2.48-2.6a1,1,0,0,0-1.47,1.4l2.48,2.6-2.21,2.11-2.48-2.6a1,1,0,0,0-1.43,0,1,1,0,0,0,0,1.44l2.48,2.6-2.21,2.1-2.47-2.6a1,1,0,1,0-1.47,1.4l2.47,2.6-2.21,2.1-2.47-2.6a1,1,0,1,0-1.47,1.4l2.47,2.6-2.2,2.1-2.48-2.6a1,1,0,1,0-1.47,1.4l2.48,2.6-2.21,2.1-2.48-2.6a1,1,0,0,0-1.43,0,1,1,0,0,0,0,1.44l2.48,2.6-2.21,2.1-2.47-2.6a1,1,0,1,0-1.47,1.4l2.47,2.6-2.21,2.1-2.47-2.6a1,1,0,0,0-1.47,1.4l2.47,2.6-2.2,2.1-2.48-2.6a1,1,0,0,0-1.47,1.4l2.47,2.6-2.2,2.1-2.48-2.6a1,1,0,0,0-1.47,1.4l2.48,2.6-.35.34a3,3,0,0,0-.11,4.3l.33.35L266.35,346a1,1,0,0,0,1.4,1.47l2.87-2.74,2.1,2.21-2.87,2.74a1,1,0,0,0,1.4,1.47l2.87-2.74,2.11,2.21-2.88,2.73a1,1,0,0,0,0,1.44,1,1,0,0,0,1.43,0l2.88-2.73,2.1,2.21L276.85,357a1,1,0,0,0,0,1.44,1,1,0,0,0,1.43,0l2.88-2.73,2.1,2.2-2.88,2.74a1,1,0,0,0,1.41,1.47l2.87-2.73,2.1,2.2-2.87,2.74a1,1,0,0,0,0,1.43,1,1,0,0,0,1.44,0l2.87-2.74,2.1,2.21L287.36,368a1,1,0,0,0,1.4,1.48l2.87-2.74,2.1,2.21-2.87,2.73a1,1,0,1,0,1.4,1.47l2.87-2.73,2.1,2.2-2.87,2.74a1,1,0,1,0,1.4,1.47l2.87-2.73,2.1,2.2-2.87,2.74a1,1,0,1,0,1.4,1.47l2.87-2.74,2.1,2.21-2.87,2.74a1,1,0,0,0,0,1.43,1,1,0,0,0,1.44,0l2.87-2.74.34.35a3,3,0,0,0,4.3.11l.35-.33,2.5,2.62a1,1,0,1,0,1.47-1.4l-2.49-2.63,2.2-2.1,2.5,2.63a1,1,0,0,0,1.47-1.4l-2.5-2.63,2.21-2.1,2.5,2.63a1,1,0,0,0,1.47-1.4l-2.5-2.63,2.21-2.1,2.5,2.63a1,1,0,0,0,1.47-1.4l-2.5-2.63,2.21-2.1,2.49,2.63a1,1,0,0,0,1.44,0,1,1,0,0,0,0-1.43l-2.5-2.63,2.2-2.1,2.5,2.63a1,1,0,1,0,1.47-1.41l-2.5-2.62,2.21-2.1,2.5,2.62a1,1,0,1,0,1.47-1.4l-2.5-2.62,2.21-2.1,2.5,2.62a1,1,0,0,0,1.43,0,1,1,0,0,0,0-1.44l-2.5-2.62,2.21-2.1,2.5,2.62a1,1,0,0,0,1.43,0,1,1,0,0,0,0-1.44l-2.5-2.62,2.2-2.1,2.5,2.62a1,1,0,1,0,1.47-1.4l-2.49-2.62,2.2-2.1,2.5,2.62a1,1,0,1,0,1.47-1.4l-2.5-2.63.35-.33a3,3,0,0,0,.11-4.31l-.33-.35,2.49-2.37a1,1,0,0,0-1.4-1.47l-2.49,2.37-2.11-2.2,2.5-2.38a1,1,0,0,0-1.4-1.47l-2.5,2.37-2.1-2.2,2.49-2.37a1,1,0,1,0-1.4-1.47l-2.49,2.37-2.1-2.21,2.49-2.37a1,1,0,1,0-1.4-1.47l-2.49,2.37L335,325.5l2.49-2.37a1,1,0,1,0-1.4-1.47L333.59,324l-2.1-2.21,2.49-2.37a1,1,0,0,0,0-1.43,1,1,0,0,0-1.44,0l-2.49,2.37-2.1-2.2,2.49-2.37a1,1,0,1,0-1.4-1.47l-2.49,2.37-2.1-2.21L327,312.1a1,1,0,1,0-1.4-1.47L323.09,313l-2.1-2.21,2.49-2.37a1,1,0,0,0-1.4-1.47l-2.49,2.37-2.1-2.21Z"/></g><rect class="cls-4" x="279.18" y="311.8" width="59.87" height="59.87" rx="3.05" ry="3.05" transform="translate(-150.4 307.34) rotate(-43.59)"/><rect class="cls-5" x="292.43" y="324.46" width="33.96" height="33.95" rx="2.86" ry="2.86" transform="translate(-150.11 307.47) rotate(-43.59)"/><rect class="cls-6" x="293.4" y="326.02" width="31.43" height="31.42" rx="1.6" ry="1.6" transform="translate(-150.4 307.34) rotate(-43.59)"/><text class="cls-12" transform="matrix(0.72, -0.69, 0.69, 0.72, 303.41, 351.94)">GPU</text><path class="cls-7" d="M267.61,335l5.83,6.13Z"/><path class="cls-8" d="M274.14,341.82a1,1,0,0,1-1.43,0l-5.84-6.13a1,1,0,0,1,1.47-1.4l5.84,6.13A1,1,0,0,1,274.14,341.82Z"/><path class="cls-7" d="M271.29,331.45l5.83,6.13Z"/><path class="cls-8" d="M277.82,338.32a1,1,0,0,1-1.44,0l-5.83-6.13a1,1,0,0,1,1.47-1.4l5.84,6.13A1,1,0,0,1,277.82,338.32Z"/><path class="cls-7" d="M275,328l5.84,6.13Z"/><path class="cls-8" d="M281.5,334.82a1,1,0,0,1-1.44,0l-5.83-6.13a1,1,0,0,1,1.47-1.4l5.83,6.13A1,1,0,0,1,281.5,334.82Z"/><path class="cls-7" d="M278.64,324.45l5.84,6.13Z"/><path class="cls-8" d="M285.18,331.32a1,1,0,0,1-1.44,0l-5.83-6.13a1,1,0,1,1,1.47-1.4l5.83,6.13A1,1,0,0,1,285.18,331.32Z"/><path class="cls-7" d="M282.32,321l5.83,6.13Z"/><path class="cls-8" d="M288.85,327.81a1,1,0,0,1-1.43,0l-5.84-6.13a1,1,0,0,1,0-1.44,1,1,0,0,1,1.43,0l5.84,6.13A1,1,0,0,1,288.85,327.81Z"/><path class="cls-7" d="M286,317.45l5.83,6.13Z"/><path class="cls-8" d="M292.53,324.31a1,1,0,0,1-1.43,0l-5.84-6.13a1,1,0,1,1,1.47-1.4l5.84,6.13A1,1,0,0,1,292.53,324.31Z"/><path class="cls-7" d="M289.67,314l5.84,6.13Z"/><path class="cls-8" d="M296.21,320.81a1,1,0,0,1-1.44,0l-5.83-6.13a1,1,0,1,1,1.47-1.4l5.83,6.13A1,1,0,0,1,296.21,320.81Z"/><path class="cls-7" d="M293.35,310.45l5.84,6.13Z"/><path class="cls-8" d="M299.89,317.31a1,1,0,0,1-1.44,0l-5.83-6.13a1,1,0,1,1,1.47-1.4l5.83,6.13A1,1,0,0,1,299.89,317.31Z"/><path class="cls-7" d="M297,307l5.83,6.12Z"/><path class="cls-8" d="M303.56,313.81a1,1,0,0,1-1.43,0l-5.84-6.12a1,1,0,0,1,0-1.44,1,1,0,0,1,1.43,0l5.84,6.12A1,1,0,0,1,303.56,313.81Z"/><path class="cls-7" d="M300.71,303.44l5.83,6.13Z"/><path class="cls-8" d="M307.24,310.31a1,1,0,0,1-1.43,0L300,304.14a1,1,0,0,1,1.47-1.4l5.84,6.13A1,1,0,0,1,307.24,310.31Z"/><path class="cls-7" d="M304.38,299.94l5.84,6.13Z"/><path class="cls-8" d="M310.92,306.81a1,1,0,0,1-1.44,0l-5.83-6.13a1,1,0,0,1,0-1.43,1,1,0,0,1,1.44,0l5.83,6.13A1,1,0,0,1,310.92,306.81Z"/><path class="cls-7" d="M308,377.41l5.84,6.13Z"/><path class="cls-8" d="M314.56,384.28a1,1,0,0,1-1.44,0l-5.83-6.13a1,1,0,0,1,1.47-1.4l5.83,6.13A1,1,0,0,1,314.56,384.28Z"/><path class="cls-7" d="M311.7,373.91l5.84,6.13Z"/><path class="cls-8" d="M318.24,380.77a1,1,0,0,1-1.44,0L311,374.61a1,1,0,1,1,1.47-1.4l5.83,6.13A1,1,0,0,1,318.24,380.77Z"/><path class="cls-7" d="M315.38,370.41l5.83,6.13Z"/><path class="cls-8" d="M321.91,377.27a1,1,0,0,1-1.43,0l-5.84-6.13a1,1,0,1,1,1.48-1.4l5.83,6.13A1,1,0,0,1,321.91,377.27Z"/><path class="cls-7" d="M319.06,366.91l5.83,6.13Z"/><path class="cls-8" d="M325.59,373.77a1,1,0,0,1-1.43,0l-5.84-6.13a1,1,0,0,1,0-1.44,1,1,0,0,1,1.43,0l5.84,6.13A1,1,0,0,1,325.59,373.77Z"/><path class="cls-7" d="M322.74,363.41l5.83,6.13Z"/><path class="cls-8" d="M329.27,370.27a1,1,0,0,1-1.44,0L322,364.11a1,1,0,0,1,0-1.44,1,1,0,0,1,1.43,0l5.84,6.13A1,1,0,0,1,329.27,370.27Z"/><path class="cls-7" d="M326.41,359.91l5.84,6.13Z"/><path class="cls-8" d="M333,366.77a1,1,0,0,1-1.44,0l-5.83-6.13a1,1,0,1,1,1.47-1.4l5.83,6.12A1,1,0,0,1,333,366.77Z"/><path class="cls-7" d="M330.09,356.41l5.84,6.12Z"/><path class="cls-8" d="M336.63,363.27a1,1,0,0,1-1.44,0l-5.83-6.12a1,1,0,1,1,1.47-1.4l5.83,6.12A1,1,0,0,1,336.63,363.27Z"/><path class="cls-7" d="M333.77,352.9,339.6,359Z"/><path class="cls-8" d="M340.3,359.77a1,1,0,0,1-1.43,0L333,353.6a1,1,0,0,1,1.47-1.4l5.84,6.13A1,1,0,0,1,340.3,359.77Z"/><path class="cls-7" d="M337.45,349.4l5.83,6.13Z"/><path class="cls-8" d="M344,356.27a1,1,0,0,1-1.43,0l-5.84-6.13a1,1,0,0,1,1.47-1.4l5.84,6.13A1,1,0,0,1,344,356.27Z"/><path class="cls-7" d="M341.12,345.9,347,352Z"/><path class="cls-8" d="M347.66,352.77a1,1,0,0,1-1.44,0l-5.83-6.13a1,1,0,0,1,0-1.43,1,1,0,0,1,1.44,0l5.83,6.13A1,1,0,0,1,347.66,352.77Z"/><path class="cls-7" d="M344.8,342.4l5.84,6.13Z"/><path class="cls-8" d="M351.34,349.27a1,1,0,0,1-1.44,0l-5.83-6.13a1,1,0,0,1,1.47-1.4l5.83,6.13A1,1,0,0,1,351.34,349.27Z"/><path class="cls-7" d="M315.78,300.33l-6.13,5.83Z"/><path class="cls-8" d="M316.48,301.07l-6.13,5.83a1,1,0,1,1-1.4-1.47l6.13-5.84a1,1,0,0,1,1.43,0A1,1,0,0,1,316.48,301.07Z"/><path class="cls-7" d="M319.28,304l-6.13,5.83Z"/><path class="cls-8" d="M320,304.74l-6.13,5.84a1,1,0,0,1-1.44,0,1,1,0,0,1,0-1.43l6.13-5.84a1,1,0,0,1,1.4,1.47Z"/><path class="cls-7" d="M322.78,307.69l-6.13,5.83Z"/><path class="cls-8" d="M323.48,308.42l-6.13,5.84a1,1,0,1,1-1.4-1.48l6.13-5.83a1,1,0,0,1,1.4,1.47Z"/><path class="cls-7" d="M326.28,311.36l-6.13,5.84Z"/><path class="cls-8" d="M327,312.1l-6.13,5.83a1,1,0,1,1-1.4-1.47l6.13-5.83a1,1,0,1,1,1.4,1.47Z"/><path class="cls-7" d="M329.78,315l-6.13,5.84Z"/><path class="cls-8" d="M330.48,315.78l-6.13,5.83a1,1,0,0,1-1.43,0,1,1,0,0,1,0-1.44l6.13-5.83a1,1,0,1,1,1.4,1.47Z"/><path class="cls-7" d="M333.28,318.72l-6.13,5.83Z"/><path class="cls-8" d="M334,319.45l-6.13,5.84a1,1,0,0,1-1.4-1.47l6.13-5.84a1,1,0,0,1,1.44,0A1,1,0,0,1,334,319.45Z"/><path class="cls-7" d="M336.78,322.4l-6.13,5.83Z"/><path class="cls-8" d="M337.48,323.13,331.35,329a1,1,0,0,1-1.43,0,1,1,0,0,1,0-1.44l6.13-5.83a1,1,0,1,1,1.4,1.47Z"/><path class="cls-7" d="M340.28,326.07l-6.13,5.84Z"/><path class="cls-8" d="M341,326.81l-6.13,5.83a1,1,0,0,1-1.43,0,1,1,0,0,1,0-1.44l6.13-5.83a1,1,0,1,1,1.4,1.47Z"/><path class="cls-7" d="M343.78,329.75l-6.12,5.84Z"/><path class="cls-8" d="M344.48,330.49l-6.12,5.83a1,1,0,1,1-1.4-1.47l6.12-5.83a1,1,0,1,1,1.4,1.47Z"/><path class="cls-7" d="M347.29,333.43l-6.13,5.83Z"/><path class="cls-8" d="M348,334.16,341.86,340a1,1,0,0,1-1.44,0,1,1,0,0,1,0-1.43l6.13-5.84a1,1,0,0,1,1.4,1.47Z"/><path class="cls-7" d="M350.79,337.11l-6.13,5.83Z"/><path class="cls-8" d="M351.49,337.84l-6.13,5.84a1,1,0,0,1-1.44,0,1,1,0,0,1,0-1.43l6.13-5.84a1,1,0,0,1,1.4,1.47Z"/><path class="cls-7" d="M273.18,340.88l-6.13,5.83Z"/><path class="cls-8" d="M273.88,341.61l-6.13,5.84a1,1,0,0,1-1.4-1.47l6.13-5.84a1,1,0,0,1,1.44,0A1,1,0,0,1,273.88,341.61Z"/><path class="cls-7" d="M276.68,344.56l-6.13,5.83Z"/><path class="cls-8" d="M277.38,345.29l-6.13,5.84a1,1,0,0,1-1.4-1.47l6.13-5.84a1,1,0,1,1,1.4,1.47Z"/><path class="cls-7" d="M280.18,348.23l-6.13,5.84Z"/><path class="cls-8" d="M280.88,349l-6.13,5.83a1,1,0,0,1-1.43,0,1,1,0,0,1,0-1.44l6.13-5.83a1,1,0,1,1,1.4,1.47Z"/><path class="cls-7" d="M283.68,351.91l-6.13,5.84Z"/><path class="cls-8" d="M284.38,352.65l-6.13,5.83a1,1,0,0,1-1.43,0,1,1,0,0,1,0-1.44l6.13-5.83a1,1,0,1,1,1.4,1.47Z"/><path class="cls-7" d="M287.18,355.59l-6.13,5.83Z"/><path class="cls-8" d="M287.88,356.33l-6.12,5.83a1,1,0,0,1-1.41-1.47l6.13-5.84a1,1,0,1,1,1.4,1.48Z"/><path class="cls-7" d="M290.68,359.27l-6.12,5.83Z"/><path class="cls-8" d="M291.39,360l-6.13,5.84a1,1,0,0,1-1.44,0,1,1,0,0,1,0-1.43l6.12-5.84a1,1,0,0,1,1.44,0A1,1,0,0,1,291.39,360Z"/><path class="cls-7" d="M294.19,363l-6.13,5.83Z"/><path class="cls-8" d="M294.89,363.68l-6.13,5.84a1,1,0,0,1-1.4-1.48l6.13-5.83a1,1,0,0,1,1.4,1.47Z"/><path class="cls-7" d="M297.69,366.62l-6.13,5.84Z"/><path class="cls-8" d="M298.39,367.36l-6.13,5.83a1,1,0,1,1-1.4-1.47l6.13-5.83a1,1,0,0,1,1.43,0A1,1,0,0,1,298.39,367.36Z"/><path class="cls-7" d="M301.19,370.3l-6.13,5.84Z"/><path class="cls-8" d="M301.89,371l-6.13,5.83a1,1,0,1,1-1.4-1.47l6.13-5.83a1,1,0,0,1,1.43,0A1,1,0,0,1,301.89,371Z"/><path class="cls-7" d="M304.69,374l-6.13,5.83Z"/><path class="cls-8" d="M305.39,374.71l-6.13,5.84a1,1,0,1,1-1.4-1.47l6.13-5.84a1,1,0,0,1,1.4,1.47Z"/><path class="cls-7" d="M308.19,377.66l-6.13,5.83Z"/><path class="cls-8" d="M308.89,378.39l-6.13,5.84a1,1,0,0,1-1.44,0,1,1,0,0,1,0-1.43l6.13-5.84a1,1,0,1,1,1.4,1.47Z"/><g class="cls-10"><path class="cls-11" d="M334.86,311.3a1,1,0,0,0,.87-1.14,1,1,0,0,0-1.14-.87l-3.41.46-.41-3,3.41-.46a1,1,0,0,0,.87-1.15,1,1,0,0,0-1.15-.86l-3.4.46-.07-.48a3,3,0,0,0-3.43-2.6l-.48.06-.49-3.55a1,1,0,0,0-1.14-.87,1,1,0,0,0-.87,1.14l.49,3.56-3,.41-.49-3.56a1,1,0,1,0-2,.28l.49,3.55-3,.42-.49-3.56a1,1,0,1,0-2,.28l.49,3.55-3,.41-.49-3.55a1,1,0,0,0-2,.27l.48,3.56-3,.41-.49-3.55a1,1,0,0,0-1.14-.87,1,1,0,0,0-.87,1.14l.48,3.56-3,.41-.48-3.56a1,1,0,0,0-1.14-.87,1,1,0,0,0-.87,1.15l.48,3.55-3,.42-.48-3.56a1,1,0,1,0-2,.27l.48,3.56-3,.41-.48-3.55a1,1,0,0,0-2,.27l.49,3.56-3,.41-.48-3.56a1,1,0,0,0-2,.28l.49,3.56-3,.41-.48-3.56a1,1,0,1,0-2,.28l.49,3.55-3,.41-.49-3.55a1,1,0,0,0-1.14-.87,1,1,0,0,0-.87,1.14l.49,3.56-.48.07a3,3,0,0,0-2.61,3.43l.07.47-3.93.54a1,1,0,0,0,.27,2l3.93-.53.42,3-3.93.53a1,1,0,0,0-.87,1.15,1,1,0,0,0,1.14.86l3.93-.53.41,3-3.93.53a1,1,0,1,0,.28,2l3.93-.54.41,3-3.93.53a1,1,0,0,0,.27,2l3.94-.54.41,3-3.93.54a1,1,0,0,0-.87,1.14,1,1,0,0,0,1.14.87l3.93-.54.41,3-3.93.54a1,1,0,0,0,.28,2l3.93-.54.41,3-3.93.54a1,1,0,1,0,.28,2l3.93-.54.41,3-3.93.54a1,1,0,1,0,.27,2l3.93-.54.42,3-3.93.54a1,1,0,0,0,.27,2l3.93-.54.41,3-3.93.54a1,1,0,0,0-.87,1.14,1,1,0,0,0,1.15.87l3.93-.53.41,3-3.93.54a1,1,0,0,0-.87,1.14,1,1,0,0,0,1.15.87l3.93-.53.06.48a3,3,0,0,0,3.43,2.6l.48-.06.49,3.59a1,1,0,0,0,1.14.87,1,1,0,0,0,.87-1.15l-.49-3.59,3-.41.49,3.59a1,1,0,0,0,1.15.87,1,1,0,0,0,.86-1.14l-.49-3.6,3-.41.49,3.59a1,1,0,0,0,2-.27l-.49-3.59,3-.42.49,3.6a1,1,0,0,0,2-.28l-.49-3.59,3-.41.5,3.59a1,1,0,0,0,1.14.87,1,1,0,0,0,.87-1.15l-.49-3.59,3-.41.49,3.59a1,1,0,0,0,1.14.87,1,1,0,0,0,.87-1.14l-.49-3.59,3-.42.49,3.59a1,1,0,1,0,2-.27l-.49-3.59,3-.41L318,367a1,1,0,1,0,2-.28l-.49-3.59,3-.41.49,3.59a1,1,0,1,0,2-.28l-.49-3.59,3-.41.49,3.59a1,1,0,1,0,2-.27l-.49-3.59,3-.42.49,3.6a1,1,0,0,0,1.14.86,1,1,0,0,0,.87-1.14l-.49-3.59.48-.07a3,3,0,0,0,2.61-3.43l-.07-.48,3.41-.46a1,1,0,0,0,.87-1.15,1,1,0,0,0-1.14-.86l-3.41.46-.41-3,3.4-.46a1,1,0,0,0-.27-2l-3.41.47-.41-3,3.41-.46a1,1,0,0,0-.28-2L336,345l-.41-3,3.41-.47a1,1,0,0,0,.87-1.14,1,1,0,0,0-1.15-.87l-3.4.47-.42-3,3.41-.47a1,1,0,0,0,.87-1.14,1,1,0,0,0-1.14-.87l-3.41.47-.41-3,3.4-.47a1,1,0,0,0-.27-2l-3.41.47-.41-3,3.41-.47a1,1,0,1,0-.28-2l-3.41.47-.41-3,3.41-.47a1,1,0,1,0-.28-2l-3.4.46-.42-3,3.41-.47a1,1,0,0,0-.27-2l-3.41.46-.41-3Z"/></g><rect class="cls-4" x="274.48" y="305" width="59.87" height="59.87" rx="3.05" ry="3.05" transform="translate(-42.53 44.28) rotate(-7.78)"/><rect class="cls-5" x="287.84" y="317.9" width="33.96" height="33.95" rx="2.86" ry="2.86" transform="translate(-42.52 44.34) rotate(-7.78)"/><rect class="cls-6" x="288.7" y="319.22" width="31.43" height="31.42" rx="1.6" ry="1.6" transform="translate(-42.53 44.28) rotate(-7.78)"/><text class="cls-12" transform="translate(293.81 339.88) rotate(-7.78)">GPU</text><path class="cls-7" d="M274.72,305.16l1.14,8.38Z"/><path class="cls-8" d="M276,314.55a1,1,0,0,1-1.14-.87l-1.15-8.39a1,1,0,0,1,.87-1.14,1,1,0,0,1,1.14.87l1.15,8.38A1,1,0,0,1,276,314.55Z"/><path class="cls-7" d="M279.75,304.47l1.14,8.38Z"/><path class="cls-8" d="M281,313.86a1,1,0,0,1-1.14-.87l-1.15-8.38a1,1,0,1,1,2-.28l1.14,8.39A1,1,0,0,1,281,313.86Z"/><path class="cls-7" d="M284.78,303.78l1.15,8.39Z"/><path class="cls-8" d="M286.06,313.17a1,1,0,0,1-1.14-.87l-1.15-8.38a1,1,0,0,1,2-.28l1.14,8.39A1,1,0,0,1,286.06,313.17Z"/><path class="cls-7" d="M289.81,303.09l1.15,8.39Z"/><path class="cls-8" d="M291.09,312.48a1,1,0,0,1-1.14-.86l-1.15-8.39a1,1,0,0,1,2-.27l1.14,8.38A1,1,0,0,1,291.09,312.48Z"/><path class="cls-7" d="M294.84,302.41l1.15,8.38Z"/><path class="cls-8" d="M296.12,311.8a1,1,0,0,1-1.14-.87l-1.14-8.39a1,1,0,1,1,2-.27l1.14,8.38A1,1,0,0,1,296.12,311.8Z"/><path class="cls-7" d="M299.87,301.72,301,310.1Z"/><path class="cls-8" d="M301.16,311.11a1,1,0,0,1-1.15-.87l-1.14-8.38a1,1,0,0,1,.87-1.15,1,1,0,0,1,1.14.87L302,310A1,1,0,0,1,301.16,311.11Z"/><path class="cls-7" d="M304.9,301l1.15,8.39Z"/><path class="cls-8" d="M306.19,310.42a1,1,0,0,1-1.15-.87l-1.14-8.38a1,1,0,0,1,.87-1.14,1,1,0,0,1,1.14.87l1.15,8.38A1,1,0,0,1,306.19,310.42Z"/><path class="cls-7" d="M309.93,300.35l1.15,8.38Z"/><path class="cls-8" d="M311.22,309.74a1,1,0,0,1-1.15-.87l-1.14-8.39a1,1,0,0,1,2-.27l1.15,8.38A1,1,0,0,1,311.22,309.74Z"/><path class="cls-7" d="M315,299.66l1.14,8.38Z"/><path class="cls-8" d="M316.25,309.05a1,1,0,0,1-1.15-.87L314,299.8a1,1,0,1,1,2-.28l1.15,8.39A1,1,0,0,1,316.25,309.05Z"/><path class="cls-7" d="M320,299l1.14,8.39Z"/><path class="cls-8" d="M321.28,308.36a1,1,0,0,1-1.14-.87L319,299.11a1,1,0,1,1,2-.28l1.15,8.39A1,1,0,0,1,321.28,308.36Z"/><path class="cls-7" d="M325,298.28l1.14,8.39Z"/><path class="cls-8" d="M326.31,307.67a1,1,0,0,1-1.14-.86L324,298.42a1,1,0,0,1,.87-1.14,1,1,0,0,1,1.14.87l1.15,8.38A1,1,0,0,1,326.31,307.67Z"/><path class="cls-7" d="M282.65,363.24l1.15,8.38Z"/><path class="cls-8" d="M283.93,372.63a1,1,0,0,1-1.14-.87l-1.14-8.39a1,1,0,1,1,2-.27l1.14,8.38A1,1,0,0,1,283.93,372.63Z"/><path class="cls-7" d="M287.68,362.55l1.15,8.38Z"/><path class="cls-8" d="M289,371.94a1,1,0,0,1-1.15-.87l-1.14-8.38a1,1,0,0,1,.87-1.15,1,1,0,0,1,1.14.87l1.14,8.39A1,1,0,0,1,289,371.94Z"/><path class="cls-7" d="M292.71,361.86l1.15,8.39Z"/><path class="cls-8" d="M294,371.25a1,1,0,0,1-1.15-.87L291.71,362a1,1,0,0,1,.87-1.14,1,1,0,0,1,1.14.86l1.15,8.39A1,1,0,0,1,294,371.25Z"/><path class="cls-7" d="M297.75,361.17l1.14,8.39Z"/><path class="cls-8" d="M299,370.56a1,1,0,0,1-1.15-.86l-1.14-8.39a1,1,0,0,1,2-.27l1.15,8.38A1,1,0,0,1,299,370.56Z"/><path class="cls-7" d="M302.78,360.49l1.14,8.38Z"/><path class="cls-8" d="M304.06,369.88a1,1,0,0,1-1.14-.87l-1.15-8.39a1,1,0,0,1,2-.27l1.15,8.38A1,1,0,0,1,304.06,369.88Z"/><path class="cls-7" d="M307.81,359.8l1.14,8.38Z"/><path class="cls-8" d="M309.09,369.19a1,1,0,0,1-1.14-.87l-1.15-8.38a1,1,0,1,1,2-.28l1.15,8.39A1,1,0,0,1,309.09,369.19Z"/><path class="cls-7" d="M312.84,359.11,314,367.5Z"/><path class="cls-8" d="M314.12,368.5a1,1,0,0,1-1.14-.87l-1.15-8.38a1,1,0,0,1,2-.28l1.15,8.39A1,1,0,0,1,314.12,368.5Z"/><path class="cls-7" d="M317.87,358.42l1.14,8.39Z"/><path class="cls-8" d="M319.15,367.82A1,1,0,0,1,318,367l-1.15-8.39a1,1,0,0,1,.87-1.14,1,1,0,0,1,1.14.87l1.15,8.38A1,1,0,0,1,319.15,367.82Z"/><path class="cls-7" d="M322.9,357.74l1.14,8.38Z"/><path class="cls-8" d="M324.18,367.13a1,1,0,0,1-1.14-.87l-1.15-8.38a1,1,0,0,1,2-.28l1.14,8.38A1,1,0,0,1,324.18,367.13Z"/><path class="cls-7" d="M327.93,357.05l1.15,8.38Z"/><path class="cls-8" d="M329.21,366.44a1,1,0,0,1-1.14-.87l-1.15-8.38a1,1,0,1,1,2-.28l1.14,8.39A1,1,0,0,1,329.21,366.44Z"/><path class="cls-7" d="M333,356.36l1.15,8.39Z"/><path class="cls-8" d="M334.24,365.75a1,1,0,0,1-1.14-.86L332,356.5a1,1,0,0,1,.86-1.14,1,1,0,0,1,1.15.87l1.14,8.38A1,1,0,0,1,334.24,365.75Z"/><path class="cls-7" d="M334,305.26l-8.38,1.15Z"/><path class="cls-8" d="M334.18,306.27l-8.39,1.14a1,1,0,1,1-.27-2l8.38-1.14a1,1,0,0,1,1.15.86A1,1,0,0,1,334.18,306.27Z"/><path class="cls-7" d="M334.73,310.29l-8.39,1.15Z"/><path class="cls-8" d="M334.86,311.3l-8.38,1.14a1,1,0,0,1-1.14-.86,1,1,0,0,1,.87-1.15l8.38-1.14a1,1,0,0,1,1.14.87A1,1,0,0,1,334.86,311.3Z"/><path class="cls-7" d="M335.41,315.32,327,316.47Z"/><path class="cls-8" d="M335.55,316.33l-8.38,1.15a1,1,0,0,1-.28-2l8.39-1.14a1,1,0,0,1,.27,2Z"/><path class="cls-7" d="M336.1,320.35l-8.38,1.15Z"/><path class="cls-8" d="M336.24,321.36l-8.39,1.15a1,1,0,0,1-.27-2l8.38-1.14a1,1,0,1,1,.28,2Z"/><path class="cls-7" d="M336.79,325.39l-8.39,1.14Z"/><path class="cls-8" d="M336.93,326.39l-8.39,1.15a1,1,0,0,1-1.14-.87,1,1,0,0,1,.87-1.14l8.38-1.15a1,1,0,1,1,.28,2Z"/><path class="cls-7" d="M337.48,330.42l-8.39,1.14Z"/><path class="cls-8" d="M337.61,331.42l-8.38,1.15a1,1,0,0,1-.28-2l8.39-1.15a1,1,0,0,1,.27,2Z"/><path class="cls-7" d="M338.16,335.45l-8.38,1.14Z"/><path class="cls-8" d="M338.3,336.45l-8.38,1.15a1,1,0,1,1-.28-2l8.39-1.15a1,1,0,0,1,1.14.87A1,1,0,0,1,338.3,336.45Z"/><path class="cls-7" d="M338.85,340.48l-8.38,1.14Z"/><path class="cls-8" d="M339,341.48l-8.39,1.15a1,1,0,1,1-.27-2l8.38-1.15a1,1,0,0,1,1.15.87A1,1,0,0,1,339,341.48Z"/><path class="cls-7" d="M339.54,345.51l-8.39,1.14Z"/><path class="cls-8" d="M339.68,346.52l-8.39,1.14a1,1,0,1,1-.27-2l8.38-1.15a1,1,0,0,1,.28,2Z"/><path class="cls-7" d="M340.23,350.54l-8.39,1.15Z"/><path class="cls-8" d="M340.36,351.55,332,352.69a1,1,0,0,1-1.15-.87,1,1,0,0,1,.87-1.14l8.39-1.15a1,1,0,0,1,.27,2Z"/><path class="cls-7" d="M340.91,355.57l-8.38,1.15Z"/><path class="cls-8" d="M341.05,356.58l-8.38,1.14a1,1,0,0,1-1.15-.87,1,1,0,0,1,.87-1.14l8.39-1.14a1,1,0,0,1,1.14.86A1,1,0,0,1,341.05,356.58Z"/><path class="cls-7" d="M275.77,313.22l-8.38,1.15Z"/><path class="cls-8" d="M275.91,314.23l-8.39,1.14a1,1,0,0,1-.27-2l8.38-1.14a1,1,0,0,1,1.15.86A1,1,0,0,1,275.91,314.23Z"/><path class="cls-7" d="M276.46,318.25l-8.39,1.15Z"/><path class="cls-8" d="M276.59,319.26l-8.38,1.14a1,1,0,0,1-1.14-.86,1,1,0,0,1,.87-1.15l8.38-1.14a1,1,0,0,1,1.14.87A1,1,0,0,1,276.59,319.26Z"/><path class="cls-7" d="M277.14,323.28l-8.38,1.15Z"/><path class="cls-8" d="M277.28,324.29l-8.38,1.15a1,1,0,1,1-.28-2l8.39-1.14a1,1,0,1,1,.27,2Z"/><path class="cls-7" d="M277.83,328.31l-8.38,1.15Z"/><path class="cls-8" d="M278,329.32l-8.39,1.15a1,1,0,0,1-.27-2l8.38-1.14a1,1,0,1,1,.28,2Z"/><path class="cls-7" d="M278.52,333.35l-8.39,1.14Z"/><path class="cls-8" d="M278.66,334.35l-8.39,1.15a1,1,0,0,1-1.14-.87,1,1,0,0,1,.87-1.14l8.38-1.15a1,1,0,1,1,.28,2Z"/><path class="cls-7" d="M279.21,338.38l-8.39,1.14Z"/><path class="cls-8" d="M279.34,339.38,271,340.53a1,1,0,0,1-.28-2l8.39-1.15a1,1,0,1,1,.27,2Z"/><path class="cls-7" d="M279.89,343.41l-8.38,1.14Z"/><path class="cls-8" d="M280,344.41l-8.38,1.15a1,1,0,1,1-.28-2l8.39-1.15a1,1,0,0,1,1.14.87A1,1,0,0,1,280,344.41Z"/><path class="cls-7" d="M280.58,348.44l-8.38,1.14Z"/><path class="cls-8" d="M280.72,349.44l-8.39,1.15a1,1,0,1,1-.27-2l8.38-1.15a1,1,0,0,1,1.15.87A1,1,0,0,1,280.72,349.44Z"/><path class="cls-7" d="M281.27,353.47l-8.39,1.14Z"/><path class="cls-8" d="M281.41,354.48,273,355.62a1,1,0,0,1-.27-2l8.38-1.15a1,1,0,0,1,.28,2Z"/><path class="cls-7" d="M282,358.5l-8.39,1.15Z"/><path class="cls-8" d="M282.09,359.51l-8.38,1.14a1,1,0,0,1-1.15-.87,1,1,0,0,1,.87-1.14l8.39-1.15a1,1,0,0,1,.27,2Z"/><path class="cls-7" d="M282.64,363.53l-8.38,1.15Z"/><path class="cls-8" d="M282.78,364.54l-8.38,1.14a1,1,0,0,1-1.15-.87,1,1,0,0,1,.87-1.14l8.39-1.14a1,1,0,0,1,1.14.86A1,1,0,0,1,282.78,364.54Z"/><rect class="cls-4" x="252.37" y="294.77" width="142.96" height="296.2" rx="11.76" ry="11.76"/><path class="cls-13" d="M395.34,579.21V473.39c-11.53-23.95-39.17-40.85-71.49-40.85s-60,16.9-71.48,40.85V579.21A11.77,11.77,0,0,0,264.13,591H383.58A11.77,11.77,0,0,0,395.34,579.21Z"/><rect class="cls-13" x="261.07" y="314.54" width="125.56" height="32.65"/><rect class="cls-13" x="261.07" y="352.21" width="125.56" height="32.65"/><rect class="cls-11" x="274.67" y="394.11" width="19.09" height="9.02"/><rect class="cls-14" x="274.67" y="394.11" width="19.09" height="3.32"/><rect class="cls-11" x="304.07" y="394.11" width="19.09" height="9.02"/><rect class="cls-14" x="304.07" y="394.11" width="19.09" height="3.32"/><path class="cls-13" d="M343.49,399.36a3.59,3.59,0,1,1-3.59-3.59A3.58,3.58,0,0,1,343.49,399.36Z"/><path class="cls-14" d="M339.9,402.17a2.81,2.81,0,1,1,2.81-2.81A2.81,2.81,0,0,1,339.9,402.17Z"/><path class="cls-13" d="M357.46,399.36a3.6,3.6,0,1,1-3.6-3.59A3.59,3.59,0,0,1,357.46,399.36Z"/><circle class="cls-14" cx="353.86" cy="399.36" r="2.81"/><circle class="cls-15" cx="370.23" cy="399.36" r="2.81"/><rect class="cls-4" x="370.23" y="357.79" width="11.61" height="5.39"/><rect class="cls-4" x="370.23" y="319.82" width="11.61" height="5.39"/><path d="M252.37,575.53v3.68A11.77,11.77,0,0,0,264.13,591H383.58a11.77,11.77,0,0,0,11.76-11.76v-3.68Z"/><polygon class="cls-14" points="322.92 457.55 291.98 509.48 322.24 528.1 352.86 510.07 322.92 457.55"/><polygon class="cls-4" points="322.2 532.17 292.61 512.45 321.99 553.83 352.17 513.03 322.2 532.17"/><polygon class="cls-16" points="322.52 499.09 291.98 509.48 322.24 528.1 352.86 510.07 322.52 499.09"/></g></g></g></svg>