<svg xmlns="http://www.w3.org/2000/svg" xmlns:xlink="http://www.w3.org/1999/xlink" viewBox="0 0 644.6 644"><defs><style>.cls-1{isolation:isolate;}.cls-2{fill:#fff;}.cls-2,.cls-3{opacity:0.6;}.cls-3{fill:url(#radial-gradient);}.cls-4{fill:#4e4c4f;}.cls-5{fill:#3c3b3d;}.cls-6{fill:#e7e8ed;}.cls-7{fill:#282729;}.cls-8{fill:#4a4e4f;}.cls-9{font-size:14.03px;font-family:MyriadPro-Regular, Myriad Pro;}.cls-10{fill:#302f30;}.cls-11{fill:#b3b3b3;}.cls-12{fill:#787878;}.cls-13{fill:#50c0d8;}.cls-14{fill:#424242;}.cls-15{mix-blend-mode:multiply;}.cls-16{font-size:11.06px;letter-spacing:0.01em;}.cls-16,.cls-17{stroke:#231f20;stroke-miterlimit:10;stroke-width:0.75px;font-family:MicrosoftJhengHeiRegular, Microsoft JhengHei;}.cls-17{font-size:11.39px;letter-spacing:0.01em;}</style><radialGradient id="radial-gradient" cx="322.6" cy="322" r="322" gradientUnits="userSpaceOnUse"><stop offset="0" stop-color="#c8922d" stop-opacity="0.5"/><stop offset="1" stop-color="#c99126"/></radialGradient></defs><title>Asset 11</title><g class="cls-1"><g id="Layer_2" data-name="Layer 2"><g id="objects"><circle class="cls-2" cx="322" cy="322" r="322"/><circle class="cls-3" cx="322.6" cy="322" r="322"/><rect class="cls-4" x="295.1" y="306.45" width="56.67" height="56.67" rx="2.88" ry="2.88" transform="translate(-44.05 620.53) rotate(-83.85)"/><rect class="cls-5" x="307.37" y="318.72" width="32.14" height="32.14" rx="2.71" ry="2.71" transform="translate(-44.05 620.53) rotate(-83.85)"/><rect class="cls-6" x="308.56" y="319.92" width="29.75" height="29.75" rx="1.51" ry="1.51" transform="translate(-44.05 620.53) rotate(-83.85)"/><path class="cls-7" d="M302.94,300.67l-.86,8Z"/><path class="cls-8" d="M302,309.59a1,1,0,0,1-.85-1.06l.86-8a1,1,0,0,1,1.05-.85,1,1,0,0,1,.86,1.06l-.86,8A1,1,0,0,1,302,309.59Z"/><path class="cls-7" d="M307.72,301.18l-.86,8Z"/><path class="cls-8" d="M306.76,310.1a1,1,0,0,1-.85-1.06l.85-8a1,1,0,0,1,1.92.2l-.86,8A1,1,0,0,1,306.76,310.1Z"/><path class="cls-7" d="M312.5,301.7l-.86,8Z"/><path class="cls-8" d="M311.54,310.62a1,1,0,0,1-.85-1.06l.85-8a1,1,0,1,1,1.91.21l-.85,8A1,1,0,0,1,311.54,310.62Z"/><path class="cls-7" d="M317.28,302.21l-.86,8Z"/><path class="cls-8" d="M316.32,311.13a1,1,0,0,1-.86-1.06l.86-8a1,1,0,1,1,1.91.2l-.85,8A1,1,0,0,1,316.32,311.13Z"/><path class="cls-7" d="M322.06,302.72l-.86,8Z"/><path class="cls-8" d="M321.1,311.64a1,1,0,0,1-.86-1.05l.86-8a1,1,0,1,1,1.91.21l-.86,8A1,1,0,0,1,321.1,311.64Z"/><path class="cls-7" d="M326.83,303.24l-.85,8Z"/><path class="cls-8" d="M325.87,312.16a1,1,0,0,1-.85-1.06l.86-8a1,1,0,0,1,1.06-.86,1,1,0,0,1,.85,1.06l-.86,8A1,1,0,0,1,325.87,312.16Z"/><path class="cls-7" d="M331.61,303.75l-.85,8Z"/><path class="cls-8" d="M330.65,312.67a1,1,0,0,1-.85-1.05l.86-8a1,1,0,0,1,1.06-.85,1,1,0,0,1,.85,1.06l-.86,8A1,1,0,0,1,330.65,312.67Z"/><path class="cls-7" d="M336.39,304.27l-.86,8Z"/><path class="cls-8" d="M335.43,313.19a1,1,0,0,1-.85-1.06l.86-8a1,1,0,1,1,1.91.2l-.86,8A1,1,0,0,1,335.43,313.19Z"/><path class="cls-7" d="M341.17,304.78l-.86,8Z"/><path class="cls-8" d="M340.21,313.7a1,1,0,0,1-.85-1.06l.86-8a1,1,0,0,1,1-.85,1,1,0,0,1,.86,1.06l-.86,8A1,1,0,0,1,340.21,313.7Z"/><path class="cls-7" d="M346,305.3l-.86,8Z"/><path class="cls-8" d="M345,314.22a1,1,0,0,1-.85-1.06l.85-8a1,1,0,0,1,1.92.21l-.86,8A1,1,0,0,1,345,314.22Z"/><path class="cls-7" d="M350.73,305.81l-.86,8Z"/><path class="cls-8" d="M349.77,314.73a1,1,0,0,1-.86-1.06l.86-8a1,1,0,0,1,1.91.21l-.85,8A1,1,0,0,1,349.77,314.73Z"/><path class="cls-7" d="M297,355.83l-.86,8Z"/><path class="cls-8" d="M296,364.75a1,1,0,0,1-.85-1.05l.86-8a1,1,0,0,1,1.05-.85,1,1,0,0,1,.86,1.06l-.86,8A1,1,0,0,1,296,364.75Z"/><path class="cls-7" d="M301.78,356.35l-.86,8Z"/><path class="cls-8" d="M300.82,365.27a1,1,0,0,1-.85-1.06l.85-8a1,1,0,1,1,1.92.2l-.86,8A1,1,0,0,1,300.82,365.27Z"/><path class="cls-7" d="M306.56,356.86l-.86,8Z"/><path class="cls-8" d="M305.6,365.78a1,1,0,0,1-.85-1.06l.85-8a1,1,0,1,1,1.91.21l-.85,8A1,1,0,0,1,305.6,365.78Z"/><path class="cls-7" d="M311.34,357.38l-.86,8Z"/><path class="cls-8" d="M310.38,366.3a1,1,0,0,1-.86-1.06l.86-8a1,1,0,0,1,1.06-.86,1,1,0,0,1,.85,1.06l-.85,8A1,1,0,0,1,310.38,366.3Z"/><path class="cls-7" d="M316.12,357.89l-.86,8Z"/><path class="cls-8" d="M315.16,366.81a1,1,0,0,1-.86-1.06l.86-8a1,1,0,1,1,1.91.21l-.86,8A1,1,0,0,1,315.16,366.81Z"/><path class="cls-7" d="M320.89,358.41l-.85,8Z"/><path class="cls-8" d="M319.93,367.33a1,1,0,0,1-.85-1.06l.86-8a1,1,0,0,1,1.91.21l-.86,8A1,1,0,0,1,319.93,367.33Z"/><path class="cls-7" d="M325.67,358.92l-.85,8Z"/><path class="cls-8" d="M324.71,367.84a1,1,0,0,1-.85-1.06l.86-8a1,1,0,0,1,1.91.2l-.86,8A1,1,0,0,1,324.71,367.84Z"/><path class="cls-7" d="M330.45,359.44l-.86,8Z"/><path class="cls-8" d="M329.49,368.36a1,1,0,0,1-.85-1.06l.86-8a1,1,0,0,1,1.05-.85,1,1,0,0,1,.86,1.06l-.86,8A1,1,0,0,1,329.49,368.36Z"/><path class="cls-7" d="M335.23,360l-.86,8Z"/><path class="cls-8" d="M334.27,368.87a1,1,0,0,1-.85-1.06l.85-8a1,1,0,1,1,1.92.2l-.86,8A1,1,0,0,1,334.27,368.87Z"/><path class="cls-7" d="M340,360.47l-.86,8Z"/><path class="cls-8" d="M339.05,369.39a1,1,0,0,1-.85-1.06l.85-8a1,1,0,1,1,1.91.21l-.85,8A1,1,0,0,1,339.05,369.39Z"/><path class="cls-7" d="M344.79,361l-.86,8Z"/><path class="cls-8" d="M343.83,369.9a1,1,0,0,1-.86-1.06l.86-8a1,1,0,0,1,1.06-.86,1,1,0,0,1,.85,1.06l-.85,8A1,1,0,0,1,343.83,369.9Z"/><path class="cls-7" d="M357.42,314.28l-8-.86Z"/><path class="cls-8" d="M357.32,315.23l-8-.86a1,1,0,0,1-.85-1.05,1,1,0,0,1,1.06-.86l8,.86a1,1,0,0,1-.2,1.91Z"/><path class="cls-7" d="M356.9,319.06l-8-.86Z"/><path class="cls-8" d="M356.8,320l-8-.86a1,1,0,0,1-.86-1.06,1,1,0,0,1,1.06-.85l8,.86a1,1,0,1,1-.21,1.91Z"/><path class="cls-7" d="M356.39,323.83l-8-.85Z"/><path class="cls-8" d="M356.29,324.79l-8-.86a1,1,0,1,1,.21-1.91l8,.86a1,1,0,1,1-.2,1.91Z"/><path class="cls-7" d="M355.88,328.61l-8-.85Z"/><path class="cls-8" d="M355.77,329.57l-8-.86a1,1,0,0,1,.2-1.91l8,.86a1,1,0,0,1,.85,1.06A1,1,0,0,1,355.77,329.57Z"/><path class="cls-7" d="M355.36,333.39l-8-.86Z"/><path class="cls-8" d="M355.26,334.35l-8-.86a1,1,0,0,1,.21-1.91l8,.86a1,1,0,1,1-.2,1.91Z"/><path class="cls-7" d="M354.85,338.17l-8-.86Z"/><path class="cls-8" d="M354.74,339.13l-8-.86a1,1,0,1,1,.21-1.91l8,.85a1,1,0,0,1-.21,1.92Z"/><path class="cls-7" d="M354.33,343l-8-.86Z"/><path class="cls-8" d="M354.23,343.9l-8-.85a1,1,0,0,1-.85-1.06,1,1,0,0,1,1.06-.85l8,.85a1,1,0,0,1,.86,1.06A1,1,0,0,1,354.23,343.9Z"/><path class="cls-7" d="M353.82,347.73l-8-.86Z"/><path class="cls-8" d="M353.71,348.68l-8-.85a1,1,0,0,1,.21-1.92l8,.86a1,1,0,0,1-.21,1.91Z"/><path class="cls-7" d="M353.3,352.51l-8-.86Z"/><path class="cls-8" d="M353.2,353.46l-8-.86a1,1,0,1,1,.2-1.91l8,.86a1,1,0,0,1-.21,1.91Z"/><path class="cls-7" d="M352.79,357.28l-8-.85Z"/><path class="cls-8" d="M352.69,358.24l-8-.86a1,1,0,0,1-.85-1.06,1,1,0,0,1,1.06-.85l8,.86a1,1,0,0,1-.2,1.91Z"/><path class="cls-7" d="M352.27,362.06l-8-.85Z"/><path class="cls-8" d="M352.17,363l-8-.86a1,1,0,1,1,.2-1.91l8,.86a1,1,0,1,1-.21,1.91Z"/><path class="cls-7" d="M302.07,308.32l-8-.86Z"/><path class="cls-8" d="M302,309.27l-8-.85a1,1,0,0,1,.21-1.92l8,.86a1,1,0,0,1,.86,1.06A1,1,0,0,1,302,309.27Z"/><path class="cls-7" d="M301.56,313.1l-8-.86Z"/><path class="cls-8" d="M301.45,314.05l-8-.86a1,1,0,0,1-.85-1.06,1,1,0,0,1,1.05-.85l8,.86a1,1,0,0,1-.21,1.91Z"/><path class="cls-7" d="M301,317.87l-8-.85Z"/><path class="cls-8" d="M300.94,318.83l-8-.86a1,1,0,0,1,.21-1.91l8,.86A1,1,0,0,1,302,318,1,1,0,0,1,300.94,318.83Z"/><path class="cls-7" d="M300.53,322.65l-8-.85Z"/><path class="cls-8" d="M300.42,323.61l-8-.86a1,1,0,1,1,.21-1.91l8,.86a1,1,0,1,1-.21,1.91Z"/><path class="cls-7" d="M300,327.43l-8-.86Z"/><path class="cls-8" d="M299.91,328.39l-8-.86a1,1,0,0,1-.86-1.06,1,1,0,0,1,1.06-.85l8,.86a1,1,0,0,1,.85,1A1,1,0,0,1,299.91,328.39Z"/><path class="cls-7" d="M299.5,332.21l-8-.86Z"/><path class="cls-8" d="M299.39,333.17l-8-.86a1,1,0,0,1,.21-1.91l8,.85a1,1,0,0,1-.21,1.92Z"/><path class="cls-7" d="M299,337l-8-.86Z"/><path class="cls-8" d="M298.88,337.94l-8-.85a1,1,0,0,1-.86-1.06,1,1,0,0,1,1.06-.85l8,.85a1,1,0,1,1-.21,1.91Z"/><path class="cls-7" d="M298.47,341.77l-8-.86Z"/><path class="cls-8" d="M298.37,342.72l-8-.85a1,1,0,0,1-.85-1.06,1,1,0,0,1,1.06-.86l8,.86a1,1,0,0,1-.2,1.91Z"/><path class="cls-7" d="M298,346.55l-8-.86Z"/><path class="cls-8" d="M297.85,347.5l-8-.86a1,1,0,0,1-.86-1.05,1,1,0,0,1,1.06-.86l8,.86a1,1,0,1,1-.21,1.91Z"/><path class="cls-7" d="M297.44,351.33l-8-.86Z"/><path class="cls-8" d="M297.34,352.28l-8-.86a1,1,0,0,1-.85-1.06,1,1,0,0,1,1.06-.85l8,.86a1,1,0,1,1-.2,1.91Z"/><path class="cls-7" d="M296.92,356.1l-8-.85Z"/><path class="cls-8" d="M296.82,357.06l-8-.86a1,1,0,0,1,.2-1.91l8,.86a1,1,0,0,1,.85,1.06A1,1,0,0,1,296.82,357.06Z"/><text class="cls-9" transform="matrix(0.99, 0.11, -0.11, 0.99, 310.93, 337.31)">CPU</text><rect class="cls-4" x="252.37" y="294.77" width="142.96" height="296.2" rx="11.76" ry="11.76"/><path class="cls-10" d="M395.34,579.21V473.39c-11.53-23.95-39.17-40.85-71.49-40.85s-60,16.9-71.48,40.85V579.21A11.77,11.77,0,0,0,264.13,591H383.58A11.77,11.77,0,0,0,395.34,579.21Z"/><rect class="cls-10" x="261.07" y="314.54" width="125.56" height="32.65"/><rect class="cls-10" x="261.07" y="352.21" width="125.56" height="32.65"/><rect class="cls-11" x="274.67" y="394.11" width="19.09" height="9.02"/><rect class="cls-12" x="274.67" y="394.11" width="19.09" height="3.32"/><rect class="cls-11" x="304.07" y="394.11" width="19.09" height="9.02"/><rect class="cls-12" x="304.07" y="394.11" width="19.09" height="3.32"/><path class="cls-10" d="M343.49,399.36a3.59,3.59,0,1,1-3.59-3.59A3.58,3.58,0,0,1,343.49,399.36Z"/><path class="cls-12" d="M339.9,402.17a2.81,2.81,0,1,1,2.81-2.81A2.81,2.81,0,0,1,339.9,402.17Z"/><path class="cls-10" d="M357.46,399.36a3.6,3.6,0,1,1-3.6-3.59A3.59,3.59,0,0,1,357.46,399.36Z"/><circle class="cls-12" cx="353.86" cy="399.36" r="2.81"/><circle class="cls-13" cx="370.23" cy="399.36" r="2.81"/><rect class="cls-4" x="370.23" y="357.79" width="11.61" height="5.39"/><rect class="cls-4" x="370.23" y="319.82" width="11.61" height="5.39"/><path d="M252.37,575.53v3.68A11.77,11.77,0,0,0,264.13,591H383.58a11.77,11.77,0,0,0,11.76-11.76v-3.68Z"/><polygon class="cls-12" points="322.92 457.55 291.98 509.48 322.24 528.1 352.86 510.07 322.92 457.55"/><polygon class="cls-4" points="322.2 532.17 292.61 512.45 321.99 553.83 352.17 513.03 322.2 532.17"/><polygon class="cls-14" points="322.52 499.09 291.98 509.48 322.24 528.1 352.86 510.07 322.52 499.09"/><g class="cls-15"><path class="cls-11" d="M402.73,177.79a1,1,0,1,0,.59-1.88l-3.19-1,.89-2.82,3.19,1a1,1,0,0,0,.59-1.89l-3.19-1,.14-.44a3,3,0,0,0-1.94-3.71l-.45-.14,1.05-3.33a1,1,0,1,0-1.89-.59l-1,3.33-2.82-.89,1-3.32a1,1,0,0,0-.65-1.24,1,1,0,0,0-1.23.65l-1.05,3.32L390,163l1-3.33a1,1,0,1,0-1.88-.59l-1,3.33-2.83-.89,1.05-3.32a1,1,0,1,0-1.89-.59l-1,3.32-2.82-.88,1-3.33a1,1,0,0,0-.65-1.24,1,1,0,0,0-1.23.65l-1.05,3.33-2.82-.89,1-3.32a1,1,0,0,0-.64-1.24,1,1,0,0,0-1.24.65l-1,3.32-2.83-.88,1.05-3.33a1,1,0,0,0-1.89-.59l-1,3.33-2.82-.89,1-3.32a1,1,0,0,0-.65-1.24,1,1,0,0,0-1.23.65L364.53,155l-2.82-.88,1-3.33a1,1,0,1,0-1.88-.59l-1,3.33-2.83-.89,1.05-3.32a1,1,0,1,0-1.89-.59l-1,3.32-2.82-.88,1-3.33a1,1,0,0,0-.65-1.24,1,1,0,0,0-1.23.65l-1,3.33-.44-.14a3,3,0,0,0-3.71,1.94l-.14.44-3.68-1.15a1,1,0,0,0-1.24.65,1,1,0,0,0,.65,1.23l3.68,1.16-.89,2.82L341,156.37a1,1,0,1,0-.59,1.88l3.67,1.15-.88,2.83-3.68-1.16a1,1,0,0,0-.59,1.89l3.68,1.15-.89,2.82L338,165.78a1,1,0,0,0-1.24.65,1,1,0,0,0,.65,1.23l3.67,1.16-.88,2.82-3.68-1.15a1,1,0,1,0-.59,1.88l3.68,1.15-.89,2.83-3.67-1.16a1,1,0,1,0-.59,1.89l3.67,1.15-.88,2.82-3.68-1.15a1,1,0,0,0-1.23.65,1,1,0,0,0,.64,1.23l3.68,1.16-.89,2.82-3.67-1.15a1,1,0,0,0-1.24.64,1,1,0,0,0,.65,1.24l3.67,1.15-.88,2.83-3.68-1.16a1,1,0,0,0-.59,1.89l3.68,1.15-.89,2.82L329.17,194a1,1,0,0,0-1.24.65,1,1,0,0,0,.65,1.23l3.67,1.16-.88,2.82-3.68-1.15a1,1,0,0,0-1.23.64,1,1,0,0,0,.64,1.24l3.68,1.15-.14.45a3,3,0,0,0,1.94,3.71l.44.14-1,3.36a1,1,0,0,0,.65,1.24,1,1,0,0,0,1.23-.65l1.06-3.36,2.82.88-1.05,3.36a1,1,0,1,0,1.88.59l1.05-3.36,2.83.89-1.06,3.36a1,1,0,0,0,1.89.59l1.05-3.36,2.82.88-1.05,3.36a1,1,0,0,0,.65,1.24,1,1,0,0,0,1.23-.65l1.06-3.36,2.82.89-1.05,3.36a1,1,0,1,0,1.88.59l1.05-3.36,2.83.88-1.06,3.36a1,1,0,0,0,1.89.59l1.05-3.36,2.82.89-1.05,3.36a1,1,0,0,0,.65,1.24,1,1,0,0,0,1.23-.65l1.06-3.36,2.82.88-1.05,3.36a1,1,0,0,0,.64,1.24,1,1,0,0,0,1.24-.65l1.05-3.36,2.83.89-1.06,3.36a1,1,0,0,0,1.89.59l1.05-3.36,2.82.88-1.05,3.36a1,1,0,0,0,.65,1.24,1,1,0,0,0,1.23-.65l1.06-3.36,2.82.89-1,3.36a1,1,0,0,0,.64,1.23,1,1,0,0,0,1.24-.64L382,221.4l.45.14a3,3,0,0,0,3.71-1.94l.14-.45,3.19,1a1,1,0,0,0,1.23-.65,1,1,0,0,0-.64-1.23l-3.19-1,.89-2.82,3.18,1a1,1,0,0,0,1.24-.64,1,1,0,0,0-.65-1.24l-3.18-1,.88-2.82,3.19,1a1,1,0,0,0,1.23-.65,1,1,0,0,0-.64-1.23l-3.19-1,.89-2.83,3.18,1a1,1,0,1,0,.59-1.88l-3.18-1,.88-2.82,3.19,1a1,1,0,0,0,1.23-.64,1,1,0,0,0-.64-1.24l-3.19-1,.89-2.82,3.18,1a1,1,0,0,0,1.24-.65,1,1,0,0,0-.65-1.23l-3.18-1,.88-2.83,3.19,1a1,1,0,0,0,.59-1.88l-3.19-1,.88-2.82,3.19,1a1,1,0,1,0,.59-1.89l-3.19-1,.89-2.82,3.19,1a1,1,0,0,0,1.23-.65,1,1,0,0,0-.64-1.23l-3.19-1,.88-2.83Z"/></g><rect class="cls-4" x="337.12" y="156.91" width="58.15" height="58.15" rx="2.96" ry="2.96" transform="translate(79.21 479.8) rotate(-72.6)"/><rect class="cls-5" x="350.09" y="169.61" width="32.98" height="32.98" rx="2.78" ry="2.78" transform="translate(79.37 480.26) rotate(-72.6)"/><rect class="cls-6" x="350.93" y="170.72" width="30.52" height="30.53" rx="1.55" ry="1.55" transform="translate(79.21 479.8) rotate(-72.6)"/><text class="cls-16" transform="translate(354.83 185.96) rotate(17.4)">CPU</text><path class="cls-7" d="M352.4,147.54l-2.46,7.84Z"/><path class="cls-8" d="M349.65,156.32a1,1,0,0,1-.65-1.24l2.46-7.84a1,1,0,0,1,1.23-.65,1,1,0,0,1,.65,1.24l-2.46,7.84A1,1,0,0,1,349.65,156.32Z"/><path class="cls-7" d="M357.1,149l-2.45,7.84Z"/><path class="cls-8" d="M354.35,157.8a1,1,0,0,1-.64-1.24l2.45-7.84a1,1,0,1,1,1.89.59l-2.46,7.84A1,1,0,0,1,354.35,157.8Z"/><path class="cls-7" d="M361.81,150.49l-2.46,7.84Z"/><path class="cls-8" d="M359.06,159.27a1,1,0,0,1-.65-1.24l2.46-7.84a1,1,0,1,1,1.88.59l-2.46,7.84A1,1,0,0,1,359.06,159.27Z"/><path class="cls-7" d="M366.52,152l-2.46,7.84Z"/><path class="cls-8" d="M363.76,160.75a1,1,0,0,1-.64-1.24l2.46-7.84a1,1,0,0,1,1.23-.65,1,1,0,0,1,.65,1.24L365,160.1A1,1,0,0,1,363.76,160.75Z"/><path class="cls-7" d="M371.22,153.44l-2.45,7.84Z"/><path class="cls-8" d="M368.47,162.22a1,1,0,0,1-.64-1.24l2.45-7.84a1,1,0,0,1,1.89.59l-2.46,7.84A1,1,0,0,1,368.47,162.22Z"/><path class="cls-7" d="M375.93,154.91l-2.46,7.84Z"/><path class="cls-8" d="M373.18,163.7a1,1,0,0,1-.65-1.24l2.46-7.84a1,1,0,0,1,1.24-.65,1,1,0,0,1,.64,1.24l-2.46,7.84A1,1,0,0,1,373.18,163.7Z"/><path class="cls-7" d="M380.64,156.39l-2.46,7.84Z"/><path class="cls-8" d="M377.88,165.17a1,1,0,0,1-.64-1.24l2.46-7.84a1,1,0,0,1,1.23-.65,1,1,0,0,1,.65,1.24l-2.46,7.84A1,1,0,0,1,377.88,165.17Z"/><path class="cls-7" d="M385.34,157.86l-2.45,7.84Z"/><path class="cls-8" d="M382.59,166.65a1,1,0,0,1-.65-1.24l2.46-7.84a1,1,0,1,1,1.89.59L383.83,166A1,1,0,0,1,382.59,166.65Z"/><path class="cls-7" d="M390.05,159.34l-2.46,7.84Z"/><path class="cls-8" d="M387.3,168.12a1,1,0,0,1-.65-1.24l2.46-7.84a1,1,0,1,1,1.88.59l-2.46,7.84A1,1,0,0,1,387.3,168.12Z"/><path class="cls-7" d="M394.76,160.81l-2.46,7.84Z"/><path class="cls-8" d="M392,169.6a1,1,0,0,1-.64-1.24l2.46-7.84a1,1,0,0,1,1.23-.65,1,1,0,0,1,.65,1.24L393.24,169A1,1,0,0,1,392,169.6Z"/><path class="cls-7" d="M399.46,162.28,397,170.13Z"/><path class="cls-8" d="M396.71,171.07a1,1,0,0,1-.65-1.24l2.46-7.84a1,1,0,1,1,1.89.59L398,170.42A1,1,0,0,1,396.71,171.07Z"/><path class="cls-7" d="M335.37,201.87l-2.46,7.84Z"/><path class="cls-8" d="M332.62,210.66a1,1,0,0,1-.65-1.24l2.46-7.84a1,1,0,1,1,1.88.59L333.85,210A1,1,0,0,1,332.62,210.66Z"/><path class="cls-7" d="M340.08,203.35l-2.46,7.84Z"/><path class="cls-8" d="M337.32,212.13a1,1,0,0,1-.64-1.24l2.46-7.84a1,1,0,0,1,1.23-.65,1,1,0,0,1,.65,1.24l-2.46,7.84A1,1,0,0,1,337.32,212.13Z"/><path class="cls-7" d="M344.78,204.82l-2.45,7.84Z"/><path class="cls-8" d="M342,213.61a1,1,0,0,1-.65-1.24l2.46-7.84a1,1,0,1,1,1.89.59L343.27,213A1,1,0,0,1,342,213.61Z"/><path class="cls-7" d="M349.49,206.3,347,214.14Z"/><path class="cls-8" d="M346.74,215.08a1,1,0,0,1-.65-1.24l2.46-7.84a1,1,0,1,1,1.88.59L348,214.43A1,1,0,0,1,346.74,215.08Z"/><path class="cls-7" d="M354.2,207.77l-2.46,7.84Z"/><path class="cls-8" d="M351.44,216.56a1,1,0,0,1-.64-1.24l2.46-7.84a1,1,0,0,1,1.23-.65,1,1,0,0,1,.65,1.24l-2.46,7.84A1,1,0,0,1,351.44,216.56Z"/><path class="cls-7" d="M358.9,209.25l-2.45,7.84Z"/><path class="cls-8" d="M356.15,218a1,1,0,0,1-.65-1.24L358,209a1,1,0,0,1,1.89.59l-2.46,7.84A1,1,0,0,1,356.15,218Z"/><path class="cls-7" d="M363.61,210.72l-2.46,7.84Z"/><path class="cls-8" d="M360.86,219.51a1,1,0,0,1-.65-1.24l2.46-7.84a1,1,0,1,1,1.88.59l-2.46,7.84A1,1,0,0,1,360.86,219.51Z"/><path class="cls-7" d="M368.32,212.2,365.86,220Z"/><path class="cls-8" d="M365.56,221a1,1,0,0,1-.64-1.24l2.46-7.84a1,1,0,0,1,1.23-.65,1,1,0,0,1,.65,1.24l-2.46,7.84A1,1,0,0,1,365.56,221Z"/><path class="cls-7" d="M373,213.67l-2.45,7.84Z"/><path class="cls-8" d="M370.27,222.46a1,1,0,0,1-.65-1.24l2.46-7.85a1,1,0,0,1,1.24-.64A1,1,0,0,1,374,214l-2.45,7.85A1,1,0,0,1,370.27,222.46Z"/><path class="cls-7" d="M377.73,215.14,375.27,223Z"/><path class="cls-8" d="M375,223.93a1,1,0,0,1-.65-1.24l2.46-7.84a1,1,0,0,1,1.23-.65,1,1,0,0,1,.65,1.24l-2.46,7.84A1,1,0,0,1,375,223.93Z"/><path class="cls-7" d="M382.44,216.62,380,224.46Z"/><path class="cls-8" d="M379.68,225.4a1,1,0,0,1-.64-1.23l2.46-7.85a1,1,0,0,1,1.88.59l-2.46,7.85A1,1,0,0,1,379.68,225.4Z"/><path class="cls-7" d="M404.5,172.14l-7.84-2.45Z"/><path class="cls-8" d="M404.21,173.09l-7.85-2.46a1,1,0,0,1,.59-1.89l7.85,2.46a1,1,0,0,1-.59,1.89Z"/><path class="cls-7" d="M403,176.85l-7.85-2.46Z"/><path class="cls-8" d="M402.73,177.79l-7.84-2.46a1,1,0,0,1-.65-1.23,1,1,0,0,1,1.24-.65l7.84,2.46a1,1,0,1,1-.59,1.88Z"/><path class="cls-7" d="M401.55,181.56l-7.84-2.46Z"/><path class="cls-8" d="M401.26,182.5,393.41,180a1,1,0,0,1,.59-1.88l7.85,2.46a1,1,0,0,1,.64,1.23A1,1,0,0,1,401.26,182.5Z"/><path class="cls-7" d="M400.08,186.26l-7.85-2.45Z"/><path class="cls-8" d="M399.78,187.21l-7.84-2.46a1,1,0,0,1,.59-1.89l7.84,2.46a1,1,0,1,1-.59,1.89Z"/><path class="cls-7" d="M398.6,191l-7.84-2.46Z"/><path class="cls-8" d="M398.31,191.91l-7.85-2.46a1,1,0,0,1-.64-1.23,1,1,0,0,1,1.23-.65L398.9,190a1,1,0,0,1-.59,1.88Z"/><path class="cls-7" d="M397.13,195.68l-7.85-2.46Z"/><path class="cls-8" d="M396.83,196.62,389,194.16a1,1,0,1,1,.59-1.88l7.84,2.46a1,1,0,0,1,.65,1.23A1,1,0,0,1,396.83,196.62Z"/><path class="cls-7" d="M395.65,200.38l-7.84-2.45Z"/><path class="cls-8" d="M395.36,201.32l-7.85-2.45a1,1,0,0,1,.59-1.89l7.85,2.46a1,1,0,0,1,.64,1.24A1,1,0,0,1,395.36,201.32Z"/><path class="cls-7" d="M394.18,205.09l-7.85-2.46Z"/><path class="cls-8" d="M393.88,206,386,203.57a1,1,0,0,1-.65-1.23,1,1,0,0,1,1.24-.65l7.84,2.46a1,1,0,1,1-.59,1.88Z"/><path class="cls-7" d="M392.7,209.8l-7.84-2.46Z"/><path class="cls-8" d="M392.41,210.74l-7.85-2.46a1,1,0,0,1-.64-1.24,1,1,0,0,1,1.23-.64l7.85,2.46a1,1,0,0,1,.64,1.23A1,1,0,0,1,392.41,210.74Z"/><path class="cls-7" d="M391.23,214.5l-7.85-2.45Z"/><path class="cls-8" d="M390.93,215.44,383.09,213a1,1,0,0,1,.59-1.89l7.84,2.46a1,1,0,0,1,.65,1.24A1,1,0,0,1,390.93,215.44Z"/><path class="cls-7" d="M389.75,219.21l-7.84-2.46Z"/><path class="cls-8" d="M389.46,220.15l-7.85-2.46a1,1,0,0,1,.59-1.88l7.85,2.46a1,1,0,0,1,.64,1.23A1,1,0,0,1,389.46,220.15Z"/><path class="cls-7" d="M350,155.06l-7.84-2.46Z"/><path class="cls-8" d="M349.69,156l-7.84-2.46a1,1,0,0,1-.65-1.23,1,1,0,0,1,1.24-.65l7.84,2.46a1,1,0,0,1,.65,1.24A1,1,0,0,1,349.69,156Z"/><path class="cls-7" d="M348.51,159.77l-7.84-2.46Z"/><path class="cls-8" d="M348.22,160.71l-7.84-2.46a1,1,0,1,1,.59-1.88l7.84,2.46a1,1,0,0,1,.65,1.23A1,1,0,0,1,348.22,160.71Z"/><path class="cls-7" d="M347,164.47,339.2,162Z"/><path class="cls-8" d="M346.74,165.42,338.9,163a1,1,0,0,1,.59-1.89l7.84,2.46a1,1,0,0,1-.59,1.89Z"/><path class="cls-7" d="M345.56,169.18l-7.84-2.46Z"/><path class="cls-8" d="M345.27,170.12l-7.84-2.46a1,1,0,0,1-.65-1.23,1,1,0,0,1,1.24-.65l7.84,2.46a1,1,0,1,1-.59,1.88Z"/><path class="cls-7" d="M344.09,173.89l-7.84-2.46Z"/><path class="cls-8" d="M343.79,174.83,336,172.37a1,1,0,1,1,.59-1.88l7.84,2.46a1,1,0,0,1,.65,1.23A1,1,0,0,1,343.79,174.83Z"/><path class="cls-7" d="M342.61,178.59l-7.84-2.45Z"/><path class="cls-8" d="M342.32,179.53l-7.84-2.45a1,1,0,1,1,.59-1.89l7.84,2.46a1,1,0,0,1,.65,1.24A1,1,0,0,1,342.32,179.53Z"/><path class="cls-7" d="M341.14,183.3l-7.84-2.46Z"/><path class="cls-8" d="M340.85,184.24,333,181.78a1,1,0,0,1-.64-1.23,1,1,0,0,1,1.23-.65l7.85,2.46a1,1,0,0,1-.59,1.88Z"/><path class="cls-7" d="M339.67,188l-7.85-2.46Z"/><path class="cls-8" d="M339.37,189l-7.84-2.46a1,1,0,0,1-.65-1.24,1,1,0,0,1,1.24-.64l7.84,2.46a1,1,0,0,1,.65,1.23A1,1,0,0,1,339.37,189Z"/><path class="cls-7" d="M338.19,192.71l-7.84-2.45Z"/><path class="cls-8" d="M337.9,193.65l-7.85-2.45a1,1,0,0,1,.59-1.89l7.85,2.46a1,1,0,0,1,.64,1.24A1,1,0,0,1,337.9,193.65Z"/><path class="cls-7" d="M336.72,197.42,328.87,195Z"/><path class="cls-8" d="M336.42,198.36l-7.84-2.46a1,1,0,0,1-.65-1.23,1,1,0,0,1,1.24-.65l7.84,2.46a1,1,0,1,1-.59,1.88Z"/><path class="cls-7" d="M335.24,202.13l-7.84-2.46Z"/><path class="cls-8" d="M335,203.07l-7.85-2.46a1,1,0,0,1-.64-1.24,1,1,0,0,1,1.23-.64l7.85,2.46a1,1,0,0,1-.59,1.88Z"/><g class="cls-15"><path class="cls-11" d="M341.54,84a1,1,0,0,0-.28-2l-3.41.47-.41-3,3.41-.47a1,1,0,1,0-.28-2l-3.4.47L337.1,77a3,3,0,0,0-3.43-2.61l-.48.07-.49-3.56a1,1,0,0,0-1.14-.87,1,1,0,0,0-.87,1.15l.49,3.55-3,.41-.49-3.55a1,1,0,0,0-1.14-.87,1,1,0,0,0-.87,1.14l.49,3.56-3,.41-.49-3.56a1,1,0,0,0-2,.28l.49,3.56-3,.41-.49-3.56a1,1,0,1,0-2,.28l.49,3.55-3,.42-.49-3.56a1,1,0,1,0-2,.27l.48,3.56-3,.41-.49-3.55a1,1,0,1,0-2,.27l.48,3.56-3,.41L302.52,75a1,1,0,0,0-1.14-.86,1,1,0,0,0-.87,1.14l.48,3.56-3,.41-.48-3.56a1,1,0,0,0-1.15-.87,1,1,0,0,0-.86,1.15l.48,3.55-3,.41-.48-3.55a1,1,0,0,0-1.15-.87,1,1,0,0,0-.87,1.14l.49,3.56-3,.41-.48-3.55a1,1,0,0,0-2,.27l.49,3.56-3,.41-.48-3.56a1,1,0,0,0-2,.28l.49,3.55-.48.07a3.05,3.05,0,0,0-2.61,3.43l.07.48-3.93.54a1,1,0,0,0-.87,1.14,1,1,0,0,0,1.14.87l3.93-.54.42,3-3.93.54a1,1,0,0,0-.87,1.14,1,1,0,0,0,1.14.87l3.93-.54.41,3-3.93.54a1,1,0,0,0,.28,2l3.93-.54.41,3-3.93.54a1,1,0,1,0,.28,2l3.93-.54.41,3-3.93.54a1,1,0,0,0,.27,2l3.93-.54.42,3-3.93.54a1,1,0,0,0-.87,1.14,1,1,0,0,0,1.14.87l3.93-.53.41,3-3.93.54a1,1,0,0,0-.87,1.14,1,1,0,0,0,1.15.87l3.93-.53.41,3-3.93.53a1,1,0,0,0-.87,1.15,1,1,0,0,0,1.14.86l3.94-.53.41,3-3.93.53a1,1,0,0,0,.27,2l3.93-.54.41,3-3.93.53a1,1,0,0,0,.28,2l3.93-.54.41,3-3.93.53a1,1,0,0,0,.28,2l3.93-.54.06.48a3.06,3.06,0,0,0,3.43,2.61l.48-.07.49,3.59a1,1,0,1,0,2-.27l-.49-3.59,3-.42.49,3.59a1,1,0,0,0,2-.27l-.5-3.59,3-.41.49,3.59a1,1,0,1,0,2-.28l-.49-3.59,3-.41.5,3.59a1,1,0,0,0,1.14.87,1,1,0,0,0,.87-1.14l-.49-3.6,3-.41.49,3.59a1,1,0,0,0,1.14.87,1,1,0,0,0,.87-1.14l-.49-3.59,3-.42.49,3.6a1,1,0,0,0,2-.28l-.49-3.59,3-.41.49,3.59a1,1,0,1,0,2-.28l-.49-3.59,3-.41.49,3.59a1,1,0,1,0,2-.27l-.49-3.6,3-.41.49,3.59a1,1,0,0,0,2-.27l-.49-3.59,3-.41.49,3.59a1,1,0,0,0,1.14.87,1,1,0,0,0,.87-1.15l-.49-3.59,3-.41.49,3.59a1,1,0,1,0,2-.28l-.49-3.59.48-.06a3,3,0,0,0,2.61-3.43l-.07-.48,3.41-.47a1,1,0,1,0-.27-2l-3.41.46-.41-3,3.4-.47a1,1,0,1,0-.27-2l-3.41.46-.41-3,3.41-.47a1,1,0,0,0,.87-1.14,1,1,0,0,0-1.15-.87l-3.41.46-.41-3,3.41-.46a1,1,0,0,0,.87-1.14,1,1,0,0,0-1.15-.87l-3.4.46-.42-3,3.41-.46a1,1,0,1,0-.27-2l-3.41.46-.41-3,3.4-.46a1,1,0,0,0-.27-2l-3.41.47-.41-3,3.41-.46a1,1,0,1,0-.28-2l-3.4.47-.42-3,3.41-.46a1,1,0,0,0-.27-2l-3.41.47-.41-3,3.4-.47a1,1,0,0,0,.87-1.14,1,1,0,0,0-1.14-.87l-3.41.47-.41-3Z"/></g><rect class="cls-4" x="281.15" y="77.73" width="59.87" height="59.87" rx="3.05" ry="3.05" transform="translate(-11.71 43.1) rotate(-7.78)"/><rect class="cls-5" x="294.52" y="90.63" width="33.96" height="33.95" rx="2.86" ry="2.86" transform="translate(-11.7 43.15) rotate(-7.78)"/><rect class="cls-6" x="295.37" y="91.96" width="31.43" height="31.42" rx="1.6" ry="1.6" transform="translate(-11.71 43.1) rotate(-7.78)"/><text class="cls-17" transform="translate(300.48 112.62) rotate(-7.78)">GPU</text><path class="cls-7" d="M281.39,77.89l1.14,8.38Z"/><path class="cls-8" d="M282.67,87.28a1,1,0,0,1-1.14-.87L280.38,78a1,1,0,0,1,2-.28l1.14,8.39A1,1,0,0,1,282.67,87.28Z"/><path class="cls-7" d="M286.42,77.2l1.15,8.39Z"/><path class="cls-8" d="M287.7,86.59a1,1,0,0,1-1.14-.87l-1.15-8.38a1,1,0,0,1,2-.27l1.14,8.38A1,1,0,0,1,287.7,86.59Z"/><path class="cls-7" d="M291.45,76.52l1.15,8.38Z"/><path class="cls-8" d="M292.73,85.91a1,1,0,0,1-1.14-.87l-1.15-8.39a1,1,0,0,1,.87-1.14,1,1,0,0,1,1.15.87l1.14,8.38A1,1,0,0,1,292.73,85.91Z"/><path class="cls-7" d="M296.48,75.83l1.15,8.38Z"/><path class="cls-8" d="M297.76,85.22a1,1,0,0,1-1.14-.87L295.48,76a1,1,0,0,1,.86-1.15,1,1,0,0,1,1.15.87l1.14,8.39A1,1,0,0,1,297.76,85.22Z"/><path class="cls-7" d="M301.51,75.14l1.15,8.39Z"/><path class="cls-8" d="M302.8,84.53a1,1,0,0,1-1.15-.87l-1.14-8.38a1,1,0,0,1,.87-1.14,1,1,0,0,1,1.14.86l1.14,8.39A1,1,0,0,1,302.8,84.53Z"/><path class="cls-7" d="M306.54,74.45l1.15,8.39Z"/><path class="cls-8" d="M307.83,83.84a1,1,0,0,1-1.15-.86l-1.14-8.39a1,1,0,1,1,2-.27l1.15,8.38A1,1,0,0,1,307.83,83.84Z"/><path class="cls-7" d="M311.57,73.77l1.15,8.38Z"/><path class="cls-8" d="M312.86,83.16a1,1,0,0,1-1.15-.87l-1.14-8.39a1,1,0,1,1,2-.27L313.73,82A1,1,0,0,1,312.86,83.16Z"/><path class="cls-7" d="M316.61,73.08l1.14,8.38Z"/><path class="cls-8" d="M317.89,82.47a1,1,0,0,1-1.15-.87l-1.14-8.38a1,1,0,1,1,2-.28l1.15,8.39A1,1,0,0,1,317.89,82.47Z"/><path class="cls-7" d="M321.64,72.39l1.14,8.39Z"/><path class="cls-8" d="M322.92,81.78a1,1,0,0,1-1.14-.87l-1.15-8.38a1,1,0,0,1,2-.28l1.15,8.39A1,1,0,0,1,322.92,81.78Z"/><path class="cls-7" d="M326.67,71.71l1.14,8.38Z"/><path class="cls-8" d="M328,81.1a1,1,0,0,1-1.14-.87l-1.15-8.39a1,1,0,0,1,.87-1.14,1,1,0,0,1,1.14.87L328.82,80A1,1,0,0,1,328,81.1Z"/><path class="cls-7" d="M331.7,71l1.14,8.38Z"/><path class="cls-8" d="M333,80.41a1,1,0,0,1-1.14-.87l-1.15-8.38a1,1,0,0,1,.87-1.15,1,1,0,0,1,1.14.87l1.15,8.38A1,1,0,0,1,333,80.41Z"/><path class="cls-7" d="M289.32,136l1.15,8.38Z"/><path class="cls-8" d="M290.61,145.36a1,1,0,0,1-1.15-.87l-1.14-8.38a1,1,0,0,1,.87-1.15,1,1,0,0,1,1.14.87l1.14,8.39A1,1,0,0,1,290.61,145.36Z"/><path class="cls-7" d="M294.35,135.28l1.15,8.39Z"/><path class="cls-8" d="M295.64,144.67a1,1,0,0,1-1.15-.87l-1.14-8.38a1,1,0,0,1,.87-1.14,1,1,0,0,1,1.14.87l1.15,8.38A1,1,0,0,1,295.64,144.67Z"/><path class="cls-7" d="M299.39,134.6l1.14,8.38Z"/><path class="cls-8" d="M300.67,144a1,1,0,0,1-1.15-.87l-1.14-8.39a1,1,0,0,1,2-.27l1.15,8.38A1,1,0,0,1,300.67,144Z"/><path class="cls-7" d="M304.42,133.91l1.14,8.38Z"/><path class="cls-8" d="M305.7,143.3a1,1,0,0,1-1.14-.87l-1.15-8.38a1,1,0,1,1,2-.28l1.15,8.39A1,1,0,0,1,305.7,143.3Z"/><path class="cls-7" d="M309.45,133.22l1.14,8.39Z"/><path class="cls-8" d="M310.73,142.61a1,1,0,0,1-1.14-.87l-1.15-8.38a1,1,0,1,1,2-.28l1.15,8.39A1,1,0,0,1,310.73,142.61Z"/><path class="cls-7" d="M314.48,132.53l1.14,8.39Z"/><path class="cls-8" d="M315.76,141.92a1,1,0,0,1-1.14-.86l-1.15-8.39a1,1,0,0,1,.87-1.14,1,1,0,0,1,1.14.87l1.15,8.38A1,1,0,0,1,315.76,141.92Z"/><path class="cls-7" d="M319.51,131.85l1.14,8.38Z"/><path class="cls-8" d="M320.79,141.24a1,1,0,0,1-1.14-.87L318.5,132a1,1,0,0,1,.87-1.14,1,1,0,0,1,1.14.87l1.15,8.38A1,1,0,0,1,320.79,141.24Z"/><path class="cls-7" d="M324.54,131.16l1.14,8.38Z"/><path class="cls-8" d="M325.82,140.55a1,1,0,0,1-1.14-.87l-1.15-8.38a1,1,0,0,1,2-.28l1.14,8.39A1,1,0,0,1,325.82,140.55Z"/><path class="cls-7" d="M329.57,130.47l1.15,8.39Z"/><path class="cls-8" d="M330.85,139.86a1,1,0,0,1-1.14-.87l-1.15-8.38a1,1,0,0,1,2-.28l1.14,8.39A1,1,0,0,1,330.85,139.86Z"/><path class="cls-7" d="M334.6,129.78l1.15,8.39Z"/><path class="cls-8" d="M335.88,139.18a1,1,0,0,1-1.14-.87l-1.14-8.39a1,1,0,1,1,2-.27l1.14,8.38A1,1,0,0,1,335.88,139.18Z"/><path class="cls-7" d="M339.63,129.1l1.15,8.38Z"/><path class="cls-8" d="M340.92,138.49a1,1,0,0,1-1.15-.87l-1.14-8.39a1,1,0,0,1,2-.27l1.14,8.38A1,1,0,0,1,340.92,138.49Z"/><path class="cls-7" d="M340.71,78l-8.38,1.14Z"/><path class="cls-8" d="M340.85,79l-8.39,1.15a1,1,0,0,1-1.14-.87,1,1,0,0,1,.87-1.14L340.57,77a1,1,0,1,1,.28,2Z"/><path class="cls-7" d="M341.4,83,333,84.17Z"/><path class="cls-8" d="M341.54,84l-8.39,1.15a1,1,0,0,1-1.14-.87,1,1,0,0,1,.87-1.14L341.26,82a1,1,0,0,1,.28,2Z"/><path class="cls-7" d="M342.09,88.06,333.7,89.2Z"/><path class="cls-8" d="M342.22,89.06l-8.38,1.15a1,1,0,0,1-.28-2L342,87.05a1,1,0,0,1,1.14.87A1,1,0,0,1,342.22,89.06Z"/><path class="cls-7" d="M342.77,93.09l-8.38,1.14Z"/><path class="cls-8" d="M342.91,94.1l-8.38,1.14a1,1,0,1,1-.28-2l8.39-1.15a1,1,0,0,1,.27,2Z"/><path class="cls-7" d="M343.46,98.12l-8.38,1.15Z"/><path class="cls-8" d="M343.6,99.13l-8.39,1.14a1,1,0,0,1-.27-2l8.38-1.15a1,1,0,1,1,.28,2Z"/><path class="cls-7" d="M344.15,103.15l-8.39,1.15Z"/><path class="cls-8" d="M344.28,104.16l-8.38,1.14a1,1,0,0,1-1.14-.87,1,1,0,0,1,.87-1.14l8.38-1.15a1,1,0,0,1,.27,2Z"/><path class="cls-7" d="M344.83,108.18l-8.38,1.15Z"/><path class="cls-8" d="M345,109.19l-8.38,1.14a1,1,0,0,1-1.15-.87,1,1,0,0,1,.87-1.14l8.39-1.14a1,1,0,1,1,.27,2Z"/><path class="cls-7" d="M345.52,113.21l-8.38,1.15Z"/><path class="cls-8" d="M345.66,114.22l-8.39,1.14a1,1,0,0,1-1.14-.86,1,1,0,0,1,.87-1.15l8.38-1.14a1,1,0,0,1,1.15.87A1,1,0,0,1,345.66,114.22Z"/><path class="cls-7" d="M346.21,118.24l-8.39,1.15Z"/><path class="cls-8" d="M346.35,119.25,338,120.4a1,1,0,0,1-.27-2l8.38-1.14a1,1,0,0,1,1.15.87A1,1,0,0,1,346.35,119.25Z"/><path class="cls-7" d="M346.9,123.27l-8.39,1.15Z"/><path class="cls-8" d="M347,124.28l-8.38,1.15a1,1,0,0,1-.28-2l8.39-1.14a1,1,0,1,1,.27,2Z"/><path class="cls-7" d="M347.58,128.31l-8.38,1.14Z"/><path class="cls-8" d="M347.72,129.31l-8.38,1.15a1,1,0,1,1-.28-2l8.39-1.14a1,1,0,1,1,.27,2Z"/><path class="cls-7" d="M282.44,86l-8.38,1.14Z"/><path class="cls-8" d="M282.58,87l-8.39,1.15a1,1,0,0,1-1.14-.87,1,1,0,0,1,.87-1.14L282.3,85a1,1,0,1,1,.28,2Z"/><path class="cls-7" d="M283.13,91l-8.39,1.14Z"/><path class="cls-8" d="M283.27,92l-8.39,1.15a1,1,0,0,1-1.14-.87,1,1,0,0,1,.87-1.14L283,90a1,1,0,0,1,.28,2Z"/><path class="cls-7" d="M283.82,96l-8.39,1.14Z"/><path class="cls-8" d="M284,97l-8.38,1.15a1,1,0,0,1-.28-2L283.68,95a1,1,0,0,1,1.14.87A1,1,0,0,1,284,97Z"/><path class="cls-7" d="M284.5,101.05l-8.38,1.14Z"/><path class="cls-8" d="M284.64,102.06l-8.38,1.14a1,1,0,1,1-.28-2l8.39-1.15a1,1,0,0,1,.27,2Z"/><path class="cls-7" d="M285.19,106.08l-8.38,1.15Z"/><path class="cls-8" d="M285.33,107.09l-8.39,1.14a1,1,0,0,1-.27-2l8.38-1.15a1,1,0,1,1,.28,2Z"/><path class="cls-7" d="M285.88,111.11l-8.39,1.15Z"/><path class="cls-8" d="M286,112.12l-8.38,1.14a1,1,0,0,1-1.14-.87,1,1,0,0,1,.87-1.14l8.38-1.15a1,1,0,0,1,.27,2Z"/><path class="cls-7" d="M286.56,116.14l-8.38,1.15Z"/><path class="cls-8" d="M286.7,117.15l-8.38,1.14a1,1,0,0,1-1.15-.87,1,1,0,0,1,.87-1.14l8.39-1.14a1,1,0,1,1,.27,2Z"/><path class="cls-7" d="M287.25,121.17l-8.38,1.15Z"/><path class="cls-8" d="M287.39,122.18,279,123.32a1,1,0,0,1-1.14-.86,1,1,0,0,1,.87-1.15l8.38-1.14a1,1,0,0,1,1.15.87A1,1,0,0,1,287.39,122.18Z"/><path class="cls-7" d="M287.94,126.2l-8.39,1.15Z"/><path class="cls-8" d="M288.08,127.21l-8.39,1.15a1,1,0,0,1-.27-2l8.38-1.14a1,1,0,0,1,1.15.87A1,1,0,0,1,288.08,127.21Z"/><path class="cls-7" d="M288.63,131.23l-8.39,1.15Z"/><path class="cls-8" d="M288.76,132.24l-8.38,1.15a1,1,0,0,1-.28-2l8.39-1.14a1,1,0,1,1,.27,2Z"/><path class="cls-7" d="M289.31,136.27l-8.38,1.14Z"/><path class="cls-8" d="M289.45,137.27l-8.38,1.15a1,1,0,0,1-.28-2l8.39-1.14a1,1,0,1,1,.27,2Z"/><g class="cls-15"><path class="cls-11" d="M320,205.74a1,1,0,0,0-1.4-1.47l-2.49,2.37-2.1-2.2,2.49-2.37a1,1,0,0,0,0-1.44,1,1,0,0,0-1.43,0L312.59,203l-.34-.35a3,3,0,0,0-4.3-.11l-.35.33-2.48-2.6a1,1,0,0,0-1.44,0,1,1,0,0,0,0,1.43l2.47,2.6-2.2,2.1-2.48-2.6a1,1,0,0,0-1.47,1.4l2.48,2.6-2.21,2.11-2.48-2.6a1,1,0,0,0-1.43,0,1,1,0,0,0,0,1.44l2.48,2.6-2.21,2.1-2.47-2.6a1,1,0,1,0-1.47,1.4l2.47,2.6-2.21,2.1-2.47-2.6a1,1,0,1,0-1.47,1.4l2.47,2.6-2.2,2.1-2.48-2.6a1,1,0,1,0-1.47,1.4l2.48,2.6-2.21,2.1-2.48-2.6a1,1,0,0,0-1.43,0,1,1,0,0,0,0,1.44l2.48,2.6-2.21,2.1-2.47-2.6a1,1,0,1,0-1.47,1.4l2.47,2.6-2.21,2.1-2.47-2.6a1,1,0,0,0-1.47,1.4l2.47,2.6-2.2,2.1-2.48-2.6a1,1,0,0,0-1.47,1.4l2.47,2.6-2.2,2.1-2.48-2.6a1,1,0,0,0-1.47,1.4l2.48,2.6-.35.34a3,3,0,0,0-.11,4.3l.33.35L266.35,247a1,1,0,0,0,1.4,1.47l2.87-2.74,2.1,2.21-2.87,2.74a1,1,0,0,0,1.4,1.47l2.87-2.74,2.11,2.21-2.88,2.73a1,1,0,0,0,0,1.44,1,1,0,0,0,1.43,0l2.88-2.73,2.1,2.21L276.85,258a1,1,0,0,0,0,1.44,1,1,0,0,0,1.43,0l2.88-2.73,2.1,2.2-2.88,2.74a1,1,0,0,0,1.41,1.47l2.87-2.73,2.1,2.2-2.87,2.74a1,1,0,0,0,0,1.43,1,1,0,0,0,1.44,0l2.87-2.74,2.1,2.21L287.36,269a1,1,0,0,0,1.4,1.48l2.87-2.74,2.1,2.21-2.87,2.73a1,1,0,1,0,1.4,1.47l2.87-2.73,2.1,2.2-2.87,2.74a1,1,0,1,0,1.4,1.47l2.87-2.73,2.1,2.2-2.87,2.74a1,1,0,1,0,1.4,1.47l2.87-2.74,2.1,2.21-2.87,2.74a1,1,0,0,0,0,1.43,1,1,0,0,0,1.44,0l2.87-2.74.34.35a3,3,0,0,0,4.3.11l.35-.33,2.5,2.62a1,1,0,1,0,1.47-1.4l-2.49-2.63,2.2-2.1,2.5,2.63a1,1,0,0,0,1.47-1.4l-2.5-2.63,2.21-2.1,2.5,2.63a1,1,0,0,0,1.47-1.4l-2.5-2.63,2.21-2.1,2.5,2.63a1,1,0,0,0,1.47-1.4l-2.5-2.63,2.21-2.1,2.49,2.63a1,1,0,0,0,1.44,0,1,1,0,0,0,0-1.43l-2.5-2.63,2.2-2.1,2.5,2.63a1,1,0,1,0,1.47-1.41l-2.5-2.62,2.21-2.1,2.5,2.62a1,1,0,1,0,1.47-1.4l-2.5-2.62,2.21-2.1,2.5,2.62a1,1,0,0,0,1.43,0,1,1,0,0,0,0-1.44l-2.5-2.62,2.21-2.1,2.5,2.62a1,1,0,0,0,1.43,0,1,1,0,0,0,0-1.44l-2.5-2.62,2.2-2.1,2.5,2.62a1,1,0,1,0,1.47-1.4l-2.49-2.62,2.2-2.1,2.5,2.62a1,1,0,1,0,1.47-1.4l-2.5-2.63.35-.33a3,3,0,0,0,.11-4.31l-.33-.35,2.49-2.37a1,1,0,0,0-1.4-1.47l-2.49,2.37-2.11-2.2,2.5-2.38a1,1,0,0,0-1.4-1.47l-2.5,2.37-2.1-2.2,2.49-2.37a1,1,0,1,0-1.4-1.47l-2.49,2.37-2.1-2.21,2.49-2.37a1,1,0,1,0-1.4-1.47l-2.49,2.37L335,226.5l2.49-2.37a1,1,0,1,0-1.4-1.47L333.59,225l-2.1-2.21,2.49-2.37a1,1,0,0,0,0-1.43,1,1,0,0,0-1.44,0l-2.49,2.37-2.1-2.2,2.49-2.37a1,1,0,1,0-1.4-1.47l-2.49,2.37-2.1-2.21L327,213.1a1,1,0,1,0-1.4-1.47L323.09,214l-2.1-2.21,2.49-2.37a1,1,0,0,0-1.4-1.47l-2.49,2.37-2.1-2.21Z"/></g><rect class="cls-4" x="279.18" y="212.8" width="59.87" height="59.87" rx="3.05" ry="3.05" transform="translate(-82.14 280.05) rotate(-43.59)"/><rect class="cls-5" x="292.43" y="225.46" width="33.96" height="33.95" rx="2.86" ry="2.86" transform="translate(-81.86 280.18) rotate(-43.59)"/><rect class="cls-6" x="293.4" y="227.02" width="31.43" height="31.42" rx="1.6" ry="1.6" transform="translate(-82.14 280.05) rotate(-43.59)"/><text class="cls-17" transform="matrix(0.72, -0.69, 0.69, 0.72, 303.41, 252.94)">GPU</text><path class="cls-7" d="M267.61,236l5.83,6.13Z"/><path class="cls-8" d="M274.14,242.82a1,1,0,0,1-1.43,0l-5.84-6.13a1,1,0,0,1,1.47-1.4l5.84,6.13A1,1,0,0,1,274.14,242.82Z"/><path class="cls-7" d="M271.29,232.45l5.83,6.13Z"/><path class="cls-8" d="M277.82,239.32a1,1,0,0,1-1.44,0l-5.83-6.13a1,1,0,0,1,1.47-1.4l5.84,6.13A1,1,0,0,1,277.82,239.32Z"/><path class="cls-7" d="M275,229l5.84,6.13Z"/><path class="cls-8" d="M281.5,235.82a1,1,0,0,1-1.44,0l-5.83-6.13a1,1,0,0,1,1.47-1.4l5.83,6.13A1,1,0,0,1,281.5,235.82Z"/><path class="cls-7" d="M278.64,225.45l5.84,6.13Z"/><path class="cls-8" d="M285.18,232.32a1,1,0,0,1-1.44,0l-5.83-6.13a1,1,0,1,1,1.47-1.4l5.83,6.13A1,1,0,0,1,285.18,232.32Z"/><path class="cls-7" d="M282.32,222l5.83,6.13Z"/><path class="cls-8" d="M288.85,228.81a1,1,0,0,1-1.43,0l-5.84-6.13a1,1,0,0,1,0-1.44,1,1,0,0,1,1.43,0l5.84,6.13A1,1,0,0,1,288.85,228.81Z"/><path class="cls-7" d="M286,218.45l5.83,6.13Z"/><path class="cls-8" d="M292.53,225.31a1,1,0,0,1-1.43,0l-5.84-6.13a1,1,0,1,1,1.47-1.4l5.84,6.13A1,1,0,0,1,292.53,225.31Z"/><path class="cls-7" d="M289.67,215l5.84,6.13Z"/><path class="cls-8" d="M296.21,221.81a1,1,0,0,1-1.44,0l-5.83-6.13a1,1,0,1,1,1.47-1.4l5.83,6.13A1,1,0,0,1,296.21,221.81Z"/><path class="cls-7" d="M293.35,211.45l5.84,6.13Z"/><path class="cls-8" d="M299.89,218.31a1,1,0,0,1-1.44,0l-5.83-6.13a1,1,0,1,1,1.47-1.4l5.83,6.13A1,1,0,0,1,299.89,218.31Z"/><path class="cls-7" d="M297,208l5.83,6.12Z"/><path class="cls-8" d="M303.56,214.81a1,1,0,0,1-1.43,0l-5.84-6.12a1,1,0,0,1,0-1.44,1,1,0,0,1,1.43,0l5.84,6.12A1,1,0,0,1,303.56,214.81Z"/><path class="cls-7" d="M300.71,204.44l5.83,6.13Z"/><path class="cls-8" d="M307.24,211.31a1,1,0,0,1-1.43,0L300,205.14a1,1,0,0,1,1.47-1.4l5.84,6.13A1,1,0,0,1,307.24,211.31Z"/><path class="cls-7" d="M304.38,200.94l5.84,6.13Z"/><path class="cls-8" d="M310.92,207.81a1,1,0,0,1-1.44,0l-5.83-6.13a1,1,0,0,1,0-1.43,1,1,0,0,1,1.44,0l5.83,6.13A1,1,0,0,1,310.92,207.81Z"/><path class="cls-7" d="M308,278.41l5.84,6.13Z"/><path class="cls-8" d="M314.56,285.28a1,1,0,0,1-1.44,0l-5.83-6.13a1,1,0,0,1,1.47-1.4l5.83,6.13A1,1,0,0,1,314.56,285.28Z"/><path class="cls-7" d="M311.7,274.91l5.84,6.13Z"/><path class="cls-8" d="M318.24,281.77a1,1,0,0,1-1.44,0L311,275.61a1,1,0,1,1,1.47-1.4l5.83,6.13A1,1,0,0,1,318.24,281.77Z"/><path class="cls-7" d="M315.38,271.41l5.83,6.13Z"/><path class="cls-8" d="M321.91,278.27a1,1,0,0,1-1.43,0l-5.84-6.13a1,1,0,1,1,1.48-1.4l5.83,6.13A1,1,0,0,1,321.91,278.27Z"/><path class="cls-7" d="M319.06,267.91l5.83,6.13Z"/><path class="cls-8" d="M325.59,274.77a1,1,0,0,1-1.43,0l-5.84-6.13a1,1,0,0,1,0-1.44,1,1,0,0,1,1.43,0l5.84,6.13A1,1,0,0,1,325.59,274.77Z"/><path class="cls-7" d="M322.74,264.41l5.83,6.13Z"/><path class="cls-8" d="M329.27,271.27a1,1,0,0,1-1.44,0L322,265.11a1,1,0,0,1,0-1.44,1,1,0,0,1,1.43,0l5.84,6.13A1,1,0,0,1,329.27,271.27Z"/><path class="cls-7" d="M326.41,260.91l5.84,6.13Z"/><path class="cls-8" d="M333,267.77a1,1,0,0,1-1.44,0l-5.83-6.13a1,1,0,1,1,1.47-1.4l5.83,6.12A1,1,0,0,1,333,267.77Z"/><path class="cls-7" d="M330.09,257.41l5.84,6.12Z"/><path class="cls-8" d="M336.63,264.27a1,1,0,0,1-1.44,0l-5.83-6.12a1,1,0,1,1,1.47-1.4l5.83,6.12A1,1,0,0,1,336.63,264.27Z"/><path class="cls-7" d="M333.77,253.9,339.6,260Z"/><path class="cls-8" d="M340.3,260.77a1,1,0,0,1-1.43,0L333,254.6a1,1,0,0,1,1.47-1.4l5.84,6.13A1,1,0,0,1,340.3,260.77Z"/><path class="cls-7" d="M337.45,250.4l5.83,6.13Z"/><path class="cls-8" d="M344,257.27a1,1,0,0,1-1.43,0l-5.84-6.13a1,1,0,0,1,1.47-1.4l5.84,6.13A1,1,0,0,1,344,257.27Z"/><path class="cls-7" d="M341.12,246.9,347,253Z"/><path class="cls-8" d="M347.66,253.77a1,1,0,0,1-1.44,0l-5.83-6.13a1,1,0,0,1,0-1.43,1,1,0,0,1,1.44,0l5.83,6.13A1,1,0,0,1,347.66,253.77Z"/><path class="cls-7" d="M344.8,243.4l5.84,6.13Z"/><path class="cls-8" d="M351.34,250.27a1,1,0,0,1-1.44,0l-5.83-6.13a1,1,0,0,1,1.47-1.4l5.83,6.13A1,1,0,0,1,351.34,250.27Z"/><path class="cls-7" d="M315.78,201.33l-6.13,5.83Z"/><path class="cls-8" d="M316.48,202.07l-6.13,5.83a1,1,0,1,1-1.4-1.47l6.13-5.84a1,1,0,0,1,1.43,0A1,1,0,0,1,316.48,202.07Z"/><path class="cls-7" d="M319.28,205l-6.13,5.83Z"/><path class="cls-8" d="M320,205.74l-6.13,5.84a1,1,0,0,1-1.44,0,1,1,0,0,1,0-1.43l6.13-5.84a1,1,0,0,1,1.4,1.47Z"/><path class="cls-7" d="M322.78,208.69l-6.13,5.83Z"/><path class="cls-8" d="M323.48,209.42l-6.13,5.84a1,1,0,0,1-1.4-1.48l6.13-5.83a1,1,0,0,1,1.4,1.47Z"/><path class="cls-7" d="M326.28,212.36l-6.13,5.84Z"/><path class="cls-8" d="M327,213.1l-6.13,5.83a1,1,0,1,1-1.4-1.47l6.13-5.83a1,1,0,1,1,1.4,1.47Z"/><path class="cls-7" d="M329.78,216l-6.13,5.84Z"/><path class="cls-8" d="M330.48,216.78l-6.13,5.83a1,1,0,0,1-1.43,0,1,1,0,0,1,0-1.44l6.13-5.83a1,1,0,1,1,1.4,1.47Z"/><path class="cls-7" d="M333.28,219.72l-6.13,5.83Z"/><path class="cls-8" d="M334,220.45l-6.13,5.84a1,1,0,0,1-1.4-1.47l6.13-5.84a1,1,0,0,1,1.44,0A1,1,0,0,1,334,220.45Z"/><path class="cls-7" d="M336.78,223.4l-6.13,5.83Z"/><path class="cls-8" d="M337.48,224.13,331.35,230a1,1,0,0,1-1.43,0,1,1,0,0,1,0-1.44l6.13-5.83a1,1,0,1,1,1.4,1.47Z"/><path class="cls-7" d="M340.28,227.07l-6.13,5.84Z"/><path class="cls-8" d="M341,227.81l-6.13,5.83a1,1,0,0,1-1.43,0,1,1,0,0,1,0-1.44l6.13-5.83a1,1,0,1,1,1.4,1.47Z"/><path class="cls-7" d="M343.78,230.75l-6.12,5.84Z"/><path class="cls-8" d="M344.48,231.49l-6.12,5.83a1,1,0,1,1-1.4-1.47l6.12-5.83a1,1,0,1,1,1.4,1.47Z"/><path class="cls-7" d="M347.29,234.43l-6.13,5.83Z"/><path class="cls-8" d="M348,235.16,341.86,241a1,1,0,0,1-1.44,0,1,1,0,0,1,0-1.43l6.13-5.84a1,1,0,0,1,1.4,1.47Z"/><path class="cls-7" d="M350.79,238.11l-6.13,5.83Z"/><path class="cls-8" d="M351.49,238.84l-6.13,5.84a1,1,0,0,1-1.44,0,1,1,0,0,1,0-1.43l6.13-5.84a1,1,0,0,1,1.4,1.47Z"/><path class="cls-7" d="M273.18,241.88l-6.13,5.83Z"/><path class="cls-8" d="M273.88,242.61l-6.13,5.84a1,1,0,0,1-1.4-1.47l6.13-5.84a1,1,0,0,1,1.44,0A1,1,0,0,1,273.88,242.61Z"/><path class="cls-7" d="M276.68,245.56l-6.13,5.83Z"/><path class="cls-8" d="M277.38,246.29l-6.13,5.84a1,1,0,0,1-1.4-1.47l6.13-5.84a1,1,0,1,1,1.4,1.47Z"/><path class="cls-7" d="M280.18,249.23l-6.13,5.84Z"/><path class="cls-8" d="M280.88,250l-6.13,5.83a1,1,0,0,1-1.43,0,1,1,0,0,1,0-1.44l6.13-5.83a1,1,0,1,1,1.4,1.47Z"/><path class="cls-7" d="M283.68,252.91l-6.13,5.84Z"/><path class="cls-8" d="M284.38,253.65l-6.13,5.83a1,1,0,0,1-1.43,0,1,1,0,0,1,0-1.44l6.13-5.83a1,1,0,1,1,1.4,1.47Z"/><path class="cls-7" d="M287.18,256.59l-6.13,5.83Z"/><path class="cls-8" d="M287.88,257.33l-6.12,5.83a1,1,0,0,1-1.41-1.47l6.13-5.84a1,1,0,0,1,1.4,1.48Z"/><path class="cls-7" d="M290.68,260.27l-6.12,5.83Z"/><path class="cls-8" d="M291.39,261l-6.13,5.84a1,1,0,0,1-1.44,0,1,1,0,0,1,0-1.43l6.12-5.84a1,1,0,0,1,1.44,0A1,1,0,0,1,291.39,261Z"/><path class="cls-7" d="M294.19,264l-6.13,5.83Z"/><path class="cls-8" d="M294.89,264.68l-6.13,5.84a1,1,0,0,1-1.4-1.48l6.13-5.83a1,1,0,0,1,1.4,1.47Z"/><path class="cls-7" d="M297.69,267.62l-6.13,5.84Z"/><path class="cls-8" d="M298.39,268.36l-6.13,5.83a1,1,0,1,1-1.4-1.47l6.13-5.83a1,1,0,0,1,1.43,0A1,1,0,0,1,298.39,268.36Z"/><path class="cls-7" d="M301.19,271.3l-6.13,5.84Z"/><path class="cls-8" d="M301.89,272l-6.13,5.83a1,1,0,1,1-1.4-1.47l6.13-5.83a1,1,0,0,1,1.43,0A1,1,0,0,1,301.89,272Z"/><path class="cls-7" d="M304.69,275l-6.13,5.83Z"/><path class="cls-8" d="M305.39,275.71l-6.13,5.84a1,1,0,1,1-1.4-1.47l6.13-5.84a1,1,0,0,1,1.4,1.47Z"/><path class="cls-7" d="M308.19,278.66l-6.13,5.83Z"/><path class="cls-8" d="M308.89,279.39l-6.13,5.84a1,1,0,0,1-1.44,0,1,1,0,0,1,0-1.43l6.13-5.84a1,1,0,1,1,1.4,1.47Z"/></g></g></g></svg>