<svg xmlns="http://www.w3.org/2000/svg" viewBox="0 0 358.66 315.51"><defs><style>.cls-1{fill:#231f20;opacity:0.1;}.cls-2{fill:#f7c400;}.cls-3{fill:#d19e00;}.cls-4{fill:#f7f7f7;}.cls-10,.cls-4,.cls-7{opacity:0.2;}.cls-5{fill:#fcc902;}.cls-6{fill:#d6a300;}.cls-7{fill:#fcfcfc;}.cls-8{fill:#ffcc05;}.cls-9{fill:#d9a600;}.cls-10,.cls-13{fill:#fff;}.cls-11{fill:#423539;}.cls-12{opacity:0.05;}.cls-14{fill:#362b2f;}.cls-15{fill:#4d3e43;}.cls-16{opacity:0.5;}.cls-17{fill:#ffdb05;}.cls-18{fill:#d6b60b;}.cls-19{fill:#ecbd0c;}</style></defs><title>Asset 2</title><g id="Layer_2" data-name="Layer 2"><g id="object"><path class="cls-1" d="M311.85,267.73c6.61-2.63,10.24-5.47,10.24-8.44,0-13.26-72.11-24-161-24S0,246,0,259.29s72.1,24,161,24c15.82,0,31.11-.34,45.55-1-2.83,2.58-4.38,5.36-4.38,8.24,0,13.78,35,24.94,78.23,24.94s78.22-11.16,78.22-24.94C358.66,280.36,339.41,271.59,311.85,267.73Z"/><path class="cls-2" d="M105.29,137.8A50.24,50.24,0,1,1,144.8,78.74,50.24,50.24,0,0,1,105.29,137.8Z"/><path class="cls-3" d="M55.67,96.42a40.62,40.62,0,1,1,47.75,31.94A40.67,40.67,0,0,1,55.67,96.42Zm73.4-14.56a34.21,34.21,0,1,0-26.9,40.21A34.25,34.25,0,0,0,129.07,81.86Z"/><path class="cls-4" d="M102.17,122.07a34.21,34.21,0,1,1,26.9-40.21A34.21,34.21,0,0,1,102.17,122.07Z"/><path class="cls-3" d="M106.7,98.46l-2-10.3,1.71-.34a11.32,11.32,0,0,0,3.5-1.06,1.53,1.53,0,0,0,.54-1.7,1.61,1.61,0,0,0-1-1.27,4.12,4.12,0,0,0-2.27,0,4.83,4.83,0,0,0-3.2,1.64,38.84,38.84,0,0,0-2.67,6.31,42.3,42.3,0,0,1-2.57,6.07,9.92,9.92,0,0,1-3.09,3.12A14.92,14.92,0,0,1,90,103q-5.5,1.09-9.17-.93t-5.45-7.19l-3.88.77-.94-4.74,4-.8a12.52,12.52,0,0,1,1.74-7.84q2.16-3.65,9-5l2-.4,2,10.3-2.52.5A24.8,24.8,0,0,0,81.81,89a1.46,1.46,0,0,0-.7,1.74,1.83,1.83,0,0,0,1,1.42,3.58,3.58,0,0,0,2.18.1,18.2,18.2,0,0,0,4.86-1.47c.93-.52,1.8-1.84,2.59-4a72.94,72.94,0,0,1,3.08-7.27,11.64,11.64,0,0,1,3.33-3.71,13,13,0,0,1,5.47-2.37,10,10,0,0,1,7.76,1.17q3.14,2.1,4.79,7.2l3.29-.65.94,4.74-3.29.65q.33,4.89-1.78,7.78a10.43,10.43,0,0,1-6.68,3.79C108.23,98.26,107.58,98.36,106.7,98.46Z"/><path class="cls-5" d="M128.86,104.49a50.24,50.24,0,1,1,63-32.9A50.22,50.22,0,0,1,128.86,104.49Z"/><path class="cls-6" d="M105.14,44.4a40.62,40.62,0,1,1,26.6,50.92A40.65,40.65,0,0,1,105.14,44.4Zm71.39,22.4a34.2,34.2,0,1,0-42.87,22.39A34.24,34.24,0,0,0,176.53,66.8Z"/><path class="cls-7" d="M133.66,89.19A34.2,34.2,0,1,1,176.53,66.8,34.19,34.19,0,0,1,133.66,89.19Z"/><path class="cls-6" d="M148.94,70.64l3.15-10,1.66.53a11.49,11.49,0,0,0,3.58.74,1.51,1.51,0,0,0,1.29-1.23,1.6,1.6,0,0,0-.28-1.6,4.12,4.12,0,0,0-2-1.13,4.82,4.82,0,0,0-3.59-.09,38.63,38.63,0,0,0-5.37,4.26,42.94,42.94,0,0,1-5.16,4.1A10,10,0,0,1,138,67.45a15,15,0,0,1-5.89-.8q-5.37-1.68-7.6-5.21t-1.34-8.93l-3.77-1.18,1.44-4.61,3.9,1.22a12.57,12.57,0,0,1,5.29-6q3.63-2.16,10.32-.06l2,.62-3.14,10-2.46-.77a24.24,24.24,0,0,0-5.11-1.27,1.45,1.45,0,0,0-1.45,1.2,1.8,1.8,0,0,0,.2,1.72,3.57,3.57,0,0,0,1.87,1.13,18,18,0,0,0,5,1q1.6,0,4.17-2.23a75.13,75.13,0,0,1,6.19-4.91,11.65,11.65,0,0,1,4.7-1.66,13.13,13.13,0,0,1,5.93.54A10,10,0,0,1,164.46,52q1.75,3.35.76,8.62l3.19,1L167,66.25l-3.2-1q-2.06,4.45-5.29,6a10.39,10.39,0,0,1-7.68.12C150.38,71.2,149.77,71,148.94,70.64Z"/><path class="cls-8" d="M253.78,82.89A56.09,56.09,0,1,1,231.27,6.82,56.09,56.09,0,0,1,253.78,82.89Z"/><path class="cls-9" d="M182.84,96a45.36,45.36,0,1,1,61.5-18.2A45.41,45.41,0,0,1,182.84,96Zm39.89-73.41a38.19,38.19,0,1,0,15.32,51.79A38.23,38.23,0,0,0,222.73,22.55Z"/><path class="cls-10" d="M238.05,74.34a38.19,38.19,0,1,1-15.32-51.79A38.19,38.19,0,0,1,238.05,74.34Z"/><path class="cls-9" d="M221,53.6,210.71,48l.93-1.71a12.73,12.73,0,0,0,1.58-3.77,1.67,1.67,0,0,0-1.07-1.67,1.78,1.78,0,0,0-1.81,0,4.58,4.58,0,0,0-1.66,1.92c-.88,1.62-1.17,2.92-.87,3.92a42.3,42.3,0,0,0,3.51,6.79A49,49,0,0,1,214.7,60a11.23,11.23,0,0,1,.47,4.88A16.87,16.87,0,0,1,213,71.16q-3,5.5-7.34,7.2t-10.07-.44l-2.1,3.87-4.75-2.57,2.18-4a14.08,14.08,0,0,1-5.49-7.09q-1.59-4.45,2.16-11.33l1.09-2,10.3,5.6-1.37,2.53a27.3,27.3,0,0,0-2.48,5.33,1.63,1.63,0,0,0,1,1.85,2.05,2.05,0,0,0,1.94.14,4,4,0,0,0,1.64-1.8,20.57,20.57,0,0,0,2.21-5.22c.21-1.17-.3-2.86-1.55-5.05a80.83,80.83,0,0,1-4-7.84,13,13,0,0,1-.81-5.5,14.57,14.57,0,0,1,1.87-6.39c1.67-3.07,3.85-5,6.55-5.82s5.89-.46,9.6,1l1.78-3.29,4.75,2.58-1.79,3.29c3,2.13,4.76,4.5,5.4,7.08s.14,5.4-1.51,8.44C221.94,52.15,221.55,52.77,221,53.6Z"/><rect class="cls-11" x="31.63" y="73.49" width="243.25" height="187.31" rx="19.51" ry="19.51"/><g class="cls-12"><path class="cls-13" d="M274.88,93c0-12-10.19-19.54-18.46-19.54l-205.27,0A19.57,19.57,0,0,0,31.63,93v2.1H274.88Z"/><path class="cls-13" d="M31.63,238.42v2.87a19.57,19.57,0,0,0,19.52,19.52H255.37a19.57,19.57,0,0,0,19.51-19.52v-2.87Z"/></g><path class="cls-14" d="M31.62,176.71h86.75V153.55a17.82,17.82,0,0,0-17.81-17.81H31.62Z"/><rect class="cls-15" x="13.91" y="140.83" width="104.71" height="51.19" rx="15.51" ry="15.51"/><circle class="cls-8" cx="87.21" cy="165.78" r="18.62" transform="translate(-1.97 1.05) rotate(-0.68)"/><g class="cls-16"><path class="cls-13" d="M208.17,93.72a.79.79,0,0,0-.56-.23h-8.4a.79.79,0,0,0-.44,1.44.76.76,0,0,0,.46.16h8.41a.79.79,0,0,0,.79-.79A.77.77,0,0,0,208.17,93.72Z"/><path class="cls-13" d="M174,93.51H165.6a.79.79,0,1,0,0,1.58H174a.79.79,0,0,0,0-1.58Z"/><path class="cls-13" d="M190.83,93.51h-8.41a.79.79,0,1,0,0,1.58h8.41a.79.79,0,0,0,0-1.58Z"/><path class="cls-13" d="M123.57,93.51h-8.41a.79.79,0,0,0,0,1.58h8.41a.79.79,0,0,0,0-1.58Z"/><path class="cls-13" d="M157.2,93.51h-8.41a.79.79,0,0,0,0,1.58h8.41a.79.79,0,0,0,0-1.58Z"/><path class="cls-13" d="M39.54,93.51H31.62v1.58h7.92a.79.79,0,0,0,0-1.58Z"/><path class="cls-13" d="M56.3,93.51H47.9a.79.79,0,1,0,0,1.58h8.4a.79.79,0,0,0,0-1.58Z"/><path class="cls-13" d="M106.75,93.51H98.34a.79.79,0,0,0,0,1.58h8.41a.79.79,0,0,0,0-1.58Z"/><path class="cls-13" d="M73.12,93.51H64.71a.79.79,0,0,0,0,1.58h8.41a.79.79,0,0,0,0-1.58Z"/><path class="cls-13" d="M89.93,93.51h-8.4a.79.79,0,1,0,0,1.58h8.4a.79.79,0,0,0,0-1.58Z"/><path class="cls-13" d="M140.38,93.51H132a.79.79,0,0,0,0,1.58h8.41a.79.79,0,1,0,0-1.58Z"/><path class="cls-13" d="M241.24,93.49h-8.4a.79.79,0,1,0,0,1.57h8.4a.79.79,0,1,0,0-1.57Z"/><path class="cls-13" d="M224.43,93.49H216a.79.79,0,1,0,0,1.57h8.41a.79.79,0,1,0,0-1.57Z"/><path class="cls-13" d="M258.06,93.49h-8.41a.79.79,0,1,0,0,1.57h8.41a.79.79,0,1,0,0-1.57Z"/><path class="cls-13" d="M274.87,93.49h-8.4a.79.79,0,1,0,0,1.57h8.4Z"/></g><g class="cls-16"><path class="cls-13" d="M122.76,238.36h-8.29a.79.79,0,0,0,0,1.57h8.29a.79.79,0,0,0,0-1.57Z"/><path class="cls-13" d="M155.9,238.36h-8.29a.79.79,0,0,0,0,1.57h8.29a.79.79,0,0,0,0-1.57Z"/><path class="cls-13" d="M39.9,238.36H31.62v1.57H39.9a.79.79,0,0,0,0-1.57Z"/><path class="cls-13" d="M56.47,238.36H48.19a.79.79,0,0,0,0,1.57h8.28a.79.79,0,0,0,0-1.57Z"/><path class="cls-13" d="M106.19,238.36H97.9a.79.79,0,0,0,0,1.57h8.29a.79.79,0,0,0,0-1.57Z"/><path class="cls-13" d="M73,238.36H64.76a.79.79,0,0,0,0,1.57H73a.79.79,0,0,0,0-1.57Z"/><path class="cls-13" d="M89.61,238.36H81.33a.79.79,0,0,0,0,1.57h8.28a.79.79,0,0,0,0-1.57Z"/><path class="cls-13" d="M139.33,238.36H131a.79.79,0,0,0,0,1.57h8.29a.79.79,0,0,0,0-1.57Z"/></g><polygon class="cls-9" points="330.55 276.95 330.57 162.63 223.94 162.36 223.98 279.12 330.55 276.95"/><path class="cls-9" d="M277.28,244.09c-29.44,0-53.28,10.91-53.28,24.3s23.84,24.27,53.28,24.3,53.28-10.9,53.28-24.3S306.72,244.13,277.28,244.09Z"/><path class="cls-17" d="M277.28,248.14c-24.53,0-44.39,8.12-44.39,18.09s19.86,18,44.39,18.08,44.39-8.12,44.39-18.08S301.81,248.17,277.28,248.14Z"/><path class="cls-18" d="M277.28,284.66l0-.35V284h0l2.08,0v.71Zm-2.19,0-2.14-.07,0-.71,2.12.07Zm6.42-.07,0-.7,2.13-.11,0,.71C283,284.51,282.24,284.55,281.51,284.57Zm-10.7-.11c-.72,0-1.43-.09-2.14-.15l.06-.7,2.12.15Zm15-.14-.05-.71c.71-.05,1.42-.12,2.12-.19l.07.7C287.22,284.2,286.51,284.26,285.79,284.32Zm-19.26-.2-2.13-.24.09-.71c.7.09,1.4.17,2.12.24Zm23.53-.23-.09-.7,2.11-.28.11.7Zm-27.78-.3c-.72-.11-1.42-.21-2.11-.33l.11-.7c.7.12,1.4.23,2.11.33Zm32-.32-.11-.7c.7-.11,1.4-.24,2.09-.38l.13.7Zm-36.25-.4c-.71-.14-1.41-.28-2.1-.44l.16-.69,2.08.44Zm40.46-.42-.15-.69,2.07-.49.17.69C299.92,282.13,299.22,282.3,298.51,282.45Zm-44.64-.51c-.71-.18-1.4-.37-2.08-.56l.2-.68c.67.19,1.35.38,2,.55Zm48.8-.53-.18-.69c.69-.19,1.37-.39,2-.61l.21.68C304.06,281,303.38,281.21,302.67,281.41Zm-52.93-.65q-1.05-.33-2-.69l.24-.67c.66.24,1.33.46,2,.69Zm57-.66-.24-.67c.68-.24,1.34-.49,2-.76l.27.66C308.13,279.59,307.46,279.85,306.77,280.1Zm-61.07-.8c-.68-.28-1.34-.57-2-.86l.3-.64c.63.29,1.28.57,1.94.84Zm65.05-.83-.3-.64c.66-.3,1.3-.62,1.9-.94l.33.63C312.07,277.84,311.42,278.16,310.75,278.47Zm-69-1c-.65-.34-1.28-.7-1.87-1.07l.37-.6c.58.36,1.2.71,1.83,1.05Zm72.76-1-.37-.6c.62-.39,1.21-.78,1.75-1.18l.42.57C315.79,275.65,315.19,276.05,314.55,276.45Zm-76.42-1.26q-.91-.69-1.68-1.38l.48-.52c.49.44,1,.89,1.62,1.33Zm79.9-1.32-.47-.52a16.87,16.87,0,0,0,1.45-1.5l.54.46A14.78,14.78,0,0,1,318,273.87ZM235,272.24a11.38,11.38,0,0,1-1.26-1.81l.62-.34a11.24,11.24,0,0,0,1.18,1.69Zm85.87-1.73-.62-.35a8.47,8.47,0,0,0,.81-1.87l.68.2A9.86,9.86,0,0,1,320.82,270.51Zm-88-2.11a8.11,8.11,0,0,1-.3-2.17l.7,0v0a7.12,7.12,0,0,0,.28,2ZM322,266.3h-.35l-.36-.06a7.63,7.63,0,0,0-.26-2l.68-.18a8.1,8.1,0,0,1,.29,2.13Zm-88.49-2.1-.68-.2a9.63,9.63,0,0,1,.87-2l.61.35A8.7,8.7,0,0,0,233.53,264.2Zm86.73-1.8a11,11,0,0,0-1.17-1.7l.55-.45a11.22,11.22,0,0,1,1.24,1.81Zm-84.75-1.77-.54-.45a15.91,15.91,0,0,1,1.52-1.57l.47.52A20.18,20.18,0,0,0,235.51,260.63Zm82.15-1.44c-.5-.45-1-.89-1.62-1.33l.42-.57a21.71,21.71,0,0,1,1.68,1.38Zm-79.07-1.38-.42-.57c.55-.41,1.15-.82,1.79-1.22l.37.61C239.71,257,239.13,257.41,238.59,257.81Zm75.71-1.14c-.58-.35-1.19-.71-1.83-1.05l.33-.62c.65.35,1.28.71,1.87,1.08Zm-72.14-1.09-.33-.63c.62-.33,1.27-.64,1.93-1l.3.65C243.4,254.94,242.76,255.26,242.16,255.58Zm68.41-.9c-.63-.3-1.27-.59-1.94-.85l.27-.66c.67.27,1.33.56,2,.86ZM246,253.79l-.27-.65c.66-.27,1.33-.52,2-.77l.25.66C247.3,253.28,246.64,253.53,246,253.79Zm60.65-.73c-.65-.23-1.32-.46-2-.68l.22-.68c.7.23,1.37.46,2,.7ZM250,252.35l-.22-.68c.68-.21,1.36-.42,2.06-.61l.2.68C251.34,251.93,250.66,252.14,250,252.35Zm52.62-.59c-.67-.19-1.35-.38-2.05-.55l.17-.69c.71.18,1.4.37,2.07.56Zm-48.53-.57-.17-.69c.68-.17,1.38-.34,2.09-.49l.15.69C255.45,250.85,254.76,251,254.08,251.19Zm44.41-.47-2.08-.44.13-.69c.71.14,1.41.28,2.1.44Zm-40.26-.46-.13-.69c.69-.13,1.39-.27,2.1-.38l.12.69Zm36.08-.36q-1-.18-2.1-.33l.11-.71,2.12.34Zm-31.88-.35-.11-.7,2.13-.29.09.71C263.83,249.35,263.12,249.45,262.43,249.55Zm27.68-.27c-.7-.09-1.41-.17-2.12-.24l.07-.7q1.08.1,2.13.24ZM266.65,249l-.07-.7,2.13-.2.06.71Zm19.22-.18-2.12-.16,0-.7c.72,0,1.43.09,2.14.15Zm-15-.16,0-.7c.71-.05,1.42-.08,2.14-.11l0,.71C272.3,248.61,271.6,248.65,270.9,248.69Zm10.72-.1-2.13-.07,0-.7c.72,0,1.43,0,2.14.06Zm-6.47-.07,0-.71,2.14,0h.1v.71h-.09Z"/><path class="cls-18" d="M283.61,261.49c-.12-2.19-2.29-3.41-4.83-3.41-1,0-2.49.52-2.48,1.54,0,3.08,14.74,2.35,15.52,9.81.57,5.37-5.18,7.39-10,7.39-.49,0-1,0-1.43-.07l.07,2.37h-2.64l-.05-2.91a10.59,10.59,0,0,1-4.45-2.68l-.47,2.75H265.7l.49-8.66h7.17c0,2.79,3.27,3.26,4.92,3.33,1.38,0,3.34-.28,3.28-1.68-.1-2.56-14.88-1.48-14.46-9.39.23-4.23,5.25-6.06,8.69-6.06a14.11,14.11,0,0,1,1.59.08l0-2h2.21l.08,2.39a6.58,6.58,0,0,1,3.66,2.32l.22-2.32h6.07l.73,7.18Z"/><path class="cls-19" d="M320.85,279.82a53.46,53.46,0,0,1-9.71,4.58,80.8,80.8,0,0,1-9.71,2.81q-4.62,1.05-9.71,1.7c-3.13.39-6.37.66-9.7.8-1.57.05-3.15.09-4.74.09s-3.34,0-5-.1c-3.33-.14-6.58-.42-9.71-.82-3.38-.43-6.63-1-9.71-1.72a80.71,80.71,0,0,1-9.71-2.85,53.71,53.71,0,0,1-9.7-4.63c-4.8-3-8.12-6.49-9.48-10.28v13c1.55,3.55,4.85,6.87,9.48,9.76a55.09,55.09,0,0,0,9.7,4.69,81.65,81.65,0,0,0,9.71,2.93c3.09.73,6.33,1.34,9.71,1.79q4.71.63,9.71.86c1.64.07,3.29.11,5,.12s3.17,0,4.74-.11c3.32-.14,6.57-.43,9.7-.84a95.79,95.79,0,0,0,9.71-1.77,79.35,79.35,0,0,0,9.71-2.9,55.15,55.15,0,0,0,9.71-4.63c4.74-2.92,8.13-6.29,9.71-9.9v-13C329.17,273.25,325.76,276.8,320.85,279.82Z"/><path class="cls-9" d="M277.28,226.93C247.84,227,224,237.84,224,251.24s23.84,24.25,53.28,24.3,53.28-8.15,53.28-24.3C330.56,237.84,306.72,227,277.28,226.93Z"/><path class="cls-17" d="M277.28,230.51c-24.53,0-44.39,8.11-44.39,18.08s19.86,18,44.39,18.08,44.39-8.11,44.39-18.08S301.81,230.54,277.28,230.51Z"/><path class="cls-18" d="M277.28,267l0-.35v-.36h0c.7,0,1.39,0,2.08,0V267C278.68,267,278,267,277.28,267Zm-2.19,0-2.14-.07,0-.7,2.12.06Zm6.42-.06,0-.71c.71,0,1.42-.06,2.13-.11l0,.71Zm-10.7-.11-2.14-.15.06-.71c.7,0,1.41.11,2.12.15Zm15-.15-.05-.7c.71-.06,1.42-.12,2.12-.2l.07.71C287.22,266.56,286.51,266.63,285.79,266.68Zm-19.26-.2-2.13-.24.09-.7c.7.09,1.4.16,2.12.24Zm23.53-.23-.09-.7,2.11-.28.11.7C291.49,266.07,290.78,266.17,290.06,266.25Zm-27.78-.3c-.72-.1-1.42-.21-2.11-.33l.11-.7,2.11.34Zm32-.32-.11-.69,2.09-.38.13.69C295.72,265.39,295,265.51,294.3,265.63Zm-36.25-.39-2.1-.44.16-.7c.68.16,1.38.3,2.08.44Zm40.46-.42-.15-.7q1-.22,2.07-.48l.17.68Zm-44.64-.52c-.71-.18-1.4-.36-2.08-.55l.2-.69c.67.19,1.35.38,2,.55Zm48.8-.53-.18-.68c.69-.2,1.37-.4,2-.61l.21.67C304.06,263.36,303.38,263.57,302.67,263.77Zm-52.93-.65q-1.05-.33-2-.69l.24-.66c.66.23,1.33.46,2,.68Zm57-.66-.24-.67q1-.36,2-.75l.27.65C308.13,262,307.46,262.21,306.77,262.46Zm-61.07-.8c-.68-.27-1.34-.56-2-.86l.3-.64c.63.29,1.28.58,1.94.84Zm65.05-.82-.3-.65c.66-.3,1.3-.61,1.9-.94l.33.63C312.07,260.2,311.42,260.53,310.75,260.84Zm-69-1c-.65-.35-1.28-.71-1.87-1.08l.37-.6c.58.36,1.2.72,1.83,1.06Zm72.76-1-.37-.6c.62-.38,1.21-.78,1.75-1.18l.42.57C315.79,258,315.19,258.42,314.55,258.81Zm-76.42-1.26a20,20,0,0,1-1.68-1.38l.48-.52a18.56,18.56,0,0,0,1.62,1.33Zm79.9-1.32-.47-.52a15.61,15.61,0,0,0,1.45-1.5l.54.46A14.78,14.78,0,0,1,318,256.23ZM235,254.6a11.78,11.78,0,0,1-1.26-1.8l.62-.35a11.84,11.84,0,0,0,1.18,1.7Zm85.87-1.72-.62-.35a8.75,8.75,0,0,0,.81-1.88l.68.2A10.18,10.18,0,0,1,320.82,252.88Zm-88-2.12a8.06,8.06,0,0,1-.3-2.17l.7,0v0a7.07,7.07,0,0,0,.28,2Zm89.18-2.1h-.35l-.36-.06a7.55,7.55,0,0,0-.26-1.94l.68-.19a8.1,8.1,0,0,1,.29,2.13Zm-88.49-2.1-.68-.19a9.2,9.2,0,0,1,.87-2l.61.35A8.85,8.85,0,0,0,233.53,246.56Zm86.73-1.8a11,11,0,0,0-1.17-1.7l.55-.45a11.22,11.22,0,0,1,1.24,1.81ZM235.51,243l-.54-.46a14.81,14.81,0,0,1,1.52-1.56l.47.52A16.92,16.92,0,0,0,235.51,243Zm82.15-1.45c-.5-.44-1-.89-1.62-1.33l.42-.57c.6.45,1.17.92,1.68,1.38Zm-79.07-1.38-.42-.57c.55-.41,1.15-.82,1.79-1.21l.37.6C239.71,239.38,239.13,239.77,238.59,240.17ZM314.3,239c-.58-.36-1.19-.72-1.83-1.06l.33-.62c.65.35,1.28.71,1.87,1.08Zm-72.14-1.1-.33-.63c.62-.32,1.27-.64,1.93-.95l.3.64C243.4,237.3,242.76,237.62,242.16,237.94Zm68.41-.9c-.63-.3-1.27-.58-1.94-.85l.27-.66c.67.28,1.33.57,2,.86ZM246,236.16l-.27-.66c.66-.26,1.33-.52,2-.77l.25.67C247.3,235.64,246.64,235.9,246,236.16Zm60.65-.73q-1-.36-2-.69l.22-.67c.7.22,1.37.45,2,.69ZM250,234.71l-.22-.67c.68-.22,1.36-.42,2.06-.62l.2.68Zm52.62-.59c-.67-.19-1.35-.37-2.05-.55l.17-.68c.71.17,1.4.36,2.07.55Zm-48.53-.57-.17-.68c.68-.18,1.38-.34,2.09-.5l.15.69Zm44.41-.47-2.08-.44.13-.69c.71.14,1.41.28,2.1.44Zm-40.26-.45-.13-.7,2.1-.38.12.7C259.62,232.36,258.92,232.49,258.23,232.63Zm36.08-.37q-1-.18-2.1-.33l.11-.7c.71.1,1.42.21,2.12.33Zm-31.88-.34-.11-.7c.7-.11,1.41-.2,2.13-.29l.09.7C263.83,231.72,263.12,231.81,262.43,231.92Zm27.68-.28L288,231.4l.07-.7q1.08.11,2.13.24Zm-23.46-.25-.07-.7c.7-.07,1.41-.14,2.13-.19l.06.7Zm19.22-.18c-.7-.06-1.41-.11-2.12-.15l0-.71,2.14.15Zm-15-.15,0-.71,2.14-.11,0,.71C272.3,231,271.6,231,270.9,231.06Zm10.72-.11c-.71,0-1.41,0-2.13-.06l0-.71c.72,0,1.43,0,2.14.06Zm-6.47-.07,0-.7c.71,0,1.43,0,2.14,0h.1v.71h-.09Z"/><path class="cls-18" d="M283.61,241.46c-.12-2.19-2.29-3.41-4.83-3.41-1,0-2.49.52-2.48,1.54,0,3.09,14.74,2.35,15.52,9.81.57,5.37-5.18,7.39-10,7.39-.49,0-1,0-1.43-.07l.07,2.36h-2.64l-.05-2.91a10.49,10.49,0,0,1-4.45-2.67l-.47,2.75H265.7l.49-8.66h7.17c0,2.79,3.27,3.26,4.92,3.33,1.38,0,3.34-.28,3.28-1.68-.1-2.55-14.88-1.49-14.46-9.39.23-4.22,5.25-6.06,8.69-6.06.53,0,1.06,0,1.59.07l0-2h2.21l.08,2.38a6.64,6.64,0,0,1,3.66,2.33l.22-2.33h6.07l.73,7.19Z"/><path class="cls-19" d="M320.85,264.1a54.13,54.13,0,0,1-9.71,4.57,79,79,0,0,1-9.71,2.82q-4.62,1-9.71,1.7c-3.13.39-6.37.66-9.7.79-1.57.06-3.15.1-4.74.1s-3.34,0-5-.11c-3.33-.14-6.58-.42-9.71-.82-3.38-.43-6.63-1-9.71-1.71a78.92,78.92,0,0,1-9.71-2.85,53.05,53.05,0,0,1-9.7-4.64c-4.8-3-8.12-6.48-9.48-10.28v13c1.55,3.55,4.85,6.87,9.48,9.76a55.09,55.09,0,0,0,9.7,4.69,81.65,81.65,0,0,0,9.71,2.93q4.63,1.1,9.71,1.79,4.71.63,9.71.86c1.64.07,3.29.11,5,.12s3.17,0,4.74-.11c3.32-.14,6.57-.43,9.7-.84,3.38-.45,6.63-1.05,9.71-1.77a79.35,79.35,0,0,0,9.71-2.9,54.46,54.46,0,0,0,9.71-4.64c4.74-2.91,8.13-6.28,9.71-9.89V253.51C329.17,257.36,325.76,261.07,320.85,264.1Z"/><path class="cls-9" d="M277.28,213.6c-29.44,0-53.28,10.91-53.28,24.31s23.84,24.25,53.28,24.3,53.28-10.91,53.28-24.3S306.72,213.64,277.28,213.6Z"/><path class="cls-17" d="M277.28,217.66c-24.53,0-44.39,8.11-44.39,18.08s19.86,18,44.39,18.08,44.39-8.12,44.39-18.08S301.81,217.69,277.28,217.66Z"/><path class="cls-18" d="M277.28,254.17l0-.35v-.35h0c.7,0,1.39,0,2.08,0v.71C278.68,254.17,278,254.17,277.28,254.17Zm-2.19,0-2.14-.06,0-.72c.7,0,1.41.06,2.12.07Zm6.42-.06,0-.71,2.13-.11,0,.71Zm-10.7-.11-2.14-.15.06-.71c.7.06,1.41.11,2.12.15Zm15-.15-.05-.7,2.12-.19.07.7C287.22,253.71,286.51,253.78,285.79,253.83Zm-19.26-.2q-1.06-.1-2.13-.24l.09-.7,2.12.24Zm23.53-.23-.09-.7,2.11-.28.11.7Zm-27.78-.29-2.11-.34.11-.7c.7.12,1.4.23,2.11.33Zm32-.32-.11-.7,2.09-.38.13.69C295.72,252.54,295,252.66,294.3,252.79Zm-36.25-.4L256,252l.16-.69,2.08.43Zm40.46-.42-.15-.7c.7-.15,1.39-.31,2.07-.49l.17.69C299.92,251.65,299.22,251.81,298.51,252Zm-44.64-.52c-.71-.18-1.4-.36-2.08-.55l.2-.68,2,.55Zm48.8-.53-.18-.68c.69-.2,1.37-.4,2-.61l.21.67C304.06,250.51,303.38,250.72,302.67,250.92Zm-52.93-.65q-1.05-.33-2-.69l.24-.66c.66.23,1.33.46,2,.68Zm57-.66-.24-.66c.68-.25,1.34-.5,2-.76l.27.65C308.13,249.11,307.46,249.36,306.77,249.61Zm-61.07-.8c-.68-.27-1.34-.56-2-.86l.3-.64c.63.29,1.28.57,1.94.84Zm65.05-.82-.3-.65c.66-.3,1.3-.61,1.9-.93l.33.62C312.07,247.36,311.42,247.68,310.75,248Zm-69-1c-.65-.35-1.28-.71-1.87-1.08l.37-.6c.58.36,1.2.71,1.83,1.05Zm72.76-1-.37-.6c.62-.38,1.21-.78,1.75-1.18l.42.57C315.79,245.16,315.19,245.57,314.55,246Zm-76.42-1.26c-.61-.45-1.17-.92-1.68-1.38l.48-.52a18.56,18.56,0,0,0,1.62,1.33Zm79.9-1.32-.47-.52a15.61,15.61,0,0,0,1.45-1.5l.54.46A14.78,14.78,0,0,1,318,243.38ZM235,241.75a11.78,11.78,0,0,1-1.26-1.8l.62-.35a11.84,11.84,0,0,0,1.18,1.7ZM320.82,240l-.62-.36a8.47,8.47,0,0,0,.81-1.87l.68.2A10.18,10.18,0,0,1,320.82,240Zm-88-2.12a8.06,8.06,0,0,1-.3-2.17l.7,0v0a7.12,7.12,0,0,0,.28,2Zm89.18-2.1h-.35l-.36-.07a7.55,7.55,0,0,0-.26-1.94l.68-.19a8.16,8.16,0,0,1,.29,2.13Zm-88.49-2.09-.68-.2a9.41,9.41,0,0,1,.87-2l.61.35A8.7,8.7,0,0,0,233.53,233.72Zm86.73-1.81a11,11,0,0,0-1.17-1.7l.55-.45a11.22,11.22,0,0,1,1.24,1.81Zm-84.75-1.76-.54-.46a14.81,14.81,0,0,1,1.52-1.56l.47.52A16.92,16.92,0,0,0,235.51,230.15Zm82.15-1.45c-.5-.44-1-.89-1.62-1.33l.42-.57c.6.45,1.17.92,1.68,1.38Zm-79.07-1.38-.42-.57c.55-.41,1.15-.82,1.79-1.21l.37.6C239.71,226.53,239.13,226.92,238.59,227.32Zm75.71-1.13c-.58-.36-1.19-.71-1.83-1.06l.33-.62c.65.35,1.28.71,1.87,1.08Zm-72.14-1.1-.33-.62c.62-.33,1.27-.65,1.93-1l.3.64C243.4,224.45,242.76,224.77,242.16,225.09Zm68.41-.9c-.63-.3-1.27-.58-1.94-.85l.27-.66c.67.28,1.33.57,2,.87ZM246,223.31l-.27-.66c.66-.26,1.33-.52,2-.77l.25.67C247.3,222.79,246.64,223.05,246,223.31Zm60.65-.73q-1-.36-2-.69l.22-.67c.7.22,1.37.45,2,.69ZM250,221.86l-.22-.67c.68-.21,1.36-.42,2.06-.62l.2.68Zm52.62-.59c-.67-.19-1.35-.37-2.05-.55l.17-.68c.71.17,1.4.36,2.07.55Zm-48.53-.57-.17-.68c.68-.18,1.38-.34,2.09-.5l.15.69Zm44.41-.47-2.08-.44.13-.69c.71.14,1.41.28,2.1.44Zm-40.26-.45-.13-.7,2.1-.38.12.7C259.62,219.51,258.92,219.64,258.23,219.78Zm36.08-.37q-1-.18-2.1-.33l.11-.7c.71.1,1.42.21,2.12.33Zm-31.88-.35-.11-.7,2.13-.28.09.7Zm27.68-.27-2.12-.24.07-.7q1.08.1,2.13.24Zm-23.46-.25-.07-.7c.7-.07,1.41-.14,2.13-.19l.06.7Zm19.22-.18c-.7-.06-1.41-.11-2.12-.15l0-.71c.72,0,1.43.09,2.14.15Zm-15-.15,0-.71,2.14-.11,0,.71C272.3,218.13,271.6,218.16,270.9,218.21Zm10.72-.11c-.71,0-1.41,0-2.13-.06l0-.71c.72,0,1.43,0,2.14.07Zm-6.47-.07,0-.7c.71,0,1.43,0,2.14,0h.1V218h-.09Z"/><path class="cls-18" d="M283.61,231c-.12-2.2-2.29-3.41-4.83-3.41-1,0-2.49.51-2.48,1.53,0,3.09,14.74,2.36,15.52,9.82.57,5.37-5.18,7.39-10,7.39-.49,0-1,0-1.43-.07l.07,2.36h-2.64l-.05-2.91a10.69,10.69,0,0,1-4.45-2.67l-.47,2.74H265.7l.49-8.65h7.17c0,2.78,3.27,3.25,4.92,3.32,1.38,0,3.34-.27,3.28-1.68-.1-2.55-14.88-1.48-14.46-9.38.23-4.23,5.25-6.07,8.69-6.07a14.11,14.11,0,0,1,1.59.08l0-2h2.21l.08,2.39a6.63,6.63,0,0,1,3.66,2.32l.22-2.32h6.07l.73,7.19Z"/><path class="cls-19" d="M320.85,249.33a53.46,53.46,0,0,1-9.71,4.58,79,79,0,0,1-9.71,2.81,98.4,98.4,0,0,1-9.71,1.7c-3.13.39-6.37.66-9.7.8-1.57.06-3.15.09-4.74.1s-3.34,0-5-.11c-3.33-.14-6.58-.42-9.71-.82-3.38-.43-6.63-1-9.71-1.72a80.73,80.73,0,0,1-9.71-2.84,53.05,53.05,0,0,1-9.7-4.64c-4.8-3-8.12-6.49-9.48-10.28v13c1.55,3.55,4.85,6.87,9.48,9.76a54.39,54.39,0,0,0,9.7,4.69,79.83,79.83,0,0,0,9.71,2.93,96.24,96.24,0,0,0,9.71,1.79c3.14.42,6.38.72,9.71.87,1.64.07,3.29.11,5,.11s3.17,0,4.74-.11c3.32-.14,6.57-.42,9.7-.84,3.38-.44,6.63-1,9.71-1.76a81.15,81.15,0,0,0,9.71-2.9,55.87,55.87,0,0,0,9.71-4.64c4.74-2.91,8.13-6.29,9.71-9.9v-13C329.17,242.76,325.76,246.31,320.85,249.33Z"/><path class="cls-9" d="M277.28,201.23c-29.44,0-53.28,10.91-53.28,24.31s23.84,24.26,53.28,24.29,53.28-10.9,53.28-24.29S306.72,201.27,277.28,201.23Z"/><path class="cls-17" d="M277.28,205.29c-24.53,0-44.39,8.11-44.39,18.08s19.86,18,44.39,18.08,44.39-8.12,44.39-18.08S301.81,205.32,277.28,205.29Z"/><path class="cls-18" d="M277.28,241.8l0-.35v-.35h0l2.08,0v.71Zm-2.19,0-2.14-.07,0-.7c.7,0,1.41.05,2.12.06Zm6.42-.06,0-.71,2.13-.11,0,.71Zm-10.7-.12c-.72,0-1.43-.09-2.14-.15l.06-.7,2.12.15Zm15-.14-.05-.7,2.12-.2.07.71Zm-19.26-.2q-1.06-.1-2.13-.24l.09-.7,2.12.24Zm23.53-.23-.09-.7c.72-.09,1.42-.18,2.11-.29l.11.71Zm-27.78-.3c-.72-.1-1.42-.21-2.11-.33l.11-.7,2.11.34Zm32-.32-.11-.69,2.09-.38.13.69C295.72,240.17,295,240.29,294.3,240.41Zm-36.25-.4c-.71-.13-1.41-.28-2.1-.44l.16-.69c.68.16,1.38.3,2.08.44Zm40.46-.42-.15-.69c.7-.15,1.39-.32,2.07-.49l.17.69C299.92,239.27,299.22,239.44,298.51,239.59Zm-44.64-.51c-.71-.18-1.4-.36-2.08-.56l.2-.68c.67.2,1.35.38,2,.55Zm48.8-.53-.18-.68c.69-.2,1.37-.41,2-.62l.21.68C304.06,238.14,303.38,238.35,302.67,238.55Zm-52.93-.65q-1.05-.33-2-.69l.24-.67q1,.36,2,.69Zm57-.66-.24-.67c.68-.24,1.34-.49,2-.76l.27.66C308.13,236.73,307.46,237,306.77,237.24Zm-61.07-.8c-.68-.27-1.34-.57-2-.86l.3-.64c.63.29,1.28.57,1.94.84Zm65.05-.82-.3-.65c.66-.3,1.3-.62,1.9-.93l.33.62C312.07,235,311.42,235.31,310.75,235.62Zm-69-1c-.65-.35-1.28-.71-1.87-1.08l.37-.6c.58.36,1.2.71,1.83,1.05Zm72.76-1-.37-.6c.62-.39,1.21-.78,1.75-1.18l.42.57C315.79,232.79,315.19,233.2,314.55,233.59Zm-76.42-1.26c-.61-.45-1.17-.92-1.68-1.38l.48-.52a20.57,20.57,0,0,0,1.62,1.33ZM318,231l-.47-.52A15.61,15.61,0,0,0,319,229l.54.46A14.78,14.78,0,0,1,318,231ZM235,229.38a11.78,11.78,0,0,1-1.26-1.8l.62-.35a11.84,11.84,0,0,0,1.18,1.7Zm85.87-1.73-.62-.35a8.47,8.47,0,0,0,.81-1.87l.68.2A9.86,9.86,0,0,1,320.82,227.65Zm-88-2.11a8.06,8.06,0,0,1-.3-2.17l.7,0v0a7.07,7.07,0,0,0,.28,2Zm89.18-2.1h-.35l-.36-.06a7.49,7.49,0,0,0-.26-1.94l.68-.19a8.1,8.1,0,0,1,.29,2.13Zm-88.49-2.09-.68-.2a9.41,9.41,0,0,1,.87-2l.61.35A8.3,8.3,0,0,0,233.53,221.35Zm86.73-1.81a11,11,0,0,0-1.17-1.7l.55-.45a11.22,11.22,0,0,1,1.24,1.81Zm-84.75-1.76-.54-.46a15.91,15.91,0,0,1,1.52-1.57l.47.52A18.48,18.48,0,0,0,235.51,217.78Zm82.15-1.45c-.5-.45-1-.89-1.62-1.33l.42-.57c.6.45,1.17.92,1.68,1.38ZM238.59,215l-.42-.57c.55-.41,1.15-.82,1.79-1.21l.37.6C239.71,214.15,239.13,214.55,238.59,215Zm75.71-1.13c-.58-.36-1.19-.72-1.83-1.06l.33-.62c.65.35,1.28.71,1.87,1.07Zm-72.14-1.1-.33-.62c.62-.33,1.27-.65,1.93-1l.3.64C243.4,212.08,242.76,212.4,242.16,212.72Zm68.41-.9c-.63-.3-1.27-.58-1.94-.85l.27-.66c.67.28,1.33.56,2,.86ZM246,210.93l-.27-.65c.66-.27,1.33-.52,2-.77l.25.67C247.3,210.42,246.64,210.67,246,210.93Zm60.65-.73c-.65-.23-1.32-.46-2-.68l.22-.67c.7.22,1.37.45,2,.69ZM250,209.49l-.22-.67c.68-.22,1.36-.42,2.06-.62l.2.68Zm52.62-.59c-.67-.19-1.35-.38-2.05-.55l.17-.69c.71.18,1.4.37,2.07.56Zm-48.53-.57-.17-.69c.68-.17,1.38-.33,2.09-.49l.15.69Zm44.41-.47-2.08-.44.13-.69c.71.14,1.41.28,2.1.44Zm-40.26-.45-.13-.7,2.1-.38.12.7C259.62,207.15,258.92,207.27,258.23,207.41Zm36.08-.37q-1-.18-2.1-.33l.11-.7c.71.1,1.42.22,2.12.33Zm-31.88-.35-.11-.69c.7-.11,1.41-.2,2.13-.29l.09.7Zm27.68-.27c-.7-.08-1.41-.17-2.12-.24l.07-.7q1.08.11,2.13.24Zm-23.46-.25-.07-.7c.7-.07,1.41-.14,2.13-.19l.06.7Zm19.22-.18c-.7-.06-1.41-.11-2.12-.15l0-.71c.72.05,1.43.09,2.14.15Zm-15-.16,0-.7c.71,0,1.42-.08,2.14-.11l0,.71Zm10.72-.1-2.13-.07,0-.7c.72,0,1.43,0,2.14.07Zm-6.47-.07,0-.71,2.14,0h.1v.71h-.09Z"/><path class="cls-18" d="M283.61,218.63c-.12-2.19-2.29-3.41-4.83-3.41-1,0-2.49.52-2.48,1.54,0,3.09,14.74,2.36,15.52,9.81.57,5.38-5.18,7.4-10,7.4-.49,0-1,0-1.43-.08l.07,2.37h-2.64l-.05-2.91a10.69,10.69,0,0,1-4.45-2.67l-.47,2.74H265.7l.49-8.65h7.17c0,2.78,3.27,3.25,4.92,3.32,1.38,0,3.34-.27,3.28-1.68-.1-2.55-14.88-1.48-14.46-9.38.23-4.23,5.25-6.07,8.69-6.07.53,0,1.06,0,1.59.08l0-2h2.21l.08,2.39a6.58,6.58,0,0,1,3.66,2.32l.22-2.32h6.07l.73,7.18Z"/><path class="cls-19" d="M320.85,234.57a54.13,54.13,0,0,1-9.71,4.58,80.8,80.8,0,0,1-9.71,2.81q-4.62,1-9.71,1.7c-3.13.39-6.37.66-9.7.79-1.57.06-3.15.1-4.74.1s-3.34,0-5-.1c-3.33-.15-6.58-.42-9.71-.83-3.38-.43-6.63-1-9.71-1.71a78.92,78.92,0,0,1-9.71-2.85,53.05,53.05,0,0,1-9.7-4.64c-4.8-3-8.12-6.48-9.48-10.28v13c1.55,3.55,4.85,6.87,9.48,9.76a55.09,55.09,0,0,0,9.7,4.69,81.65,81.65,0,0,0,9.71,2.93q4.63,1.09,9.71,1.79,4.71.63,9.71.86c1.64.07,3.29.11,5,.12s3.17,0,4.74-.11c3.32-.14,6.57-.43,9.7-.84a98.65,98.65,0,0,0,9.71-1.77,79.35,79.35,0,0,0,9.71-2.9,55.87,55.87,0,0,0,9.71-4.64c4.74-2.91,8.13-6.29,9.71-9.89v-13C329.17,228,325.76,231.54,320.85,234.57Z"/><path class="cls-9" d="M277.28,183.59c-29.44,0-53.28,10.91-53.28,24.31s23.84,24.26,53.28,24.3,53.28-10.91,53.28-24.3S306.72,183.64,277.28,183.59Z"/><path class="cls-17" d="M277.28,187.65c-24.53,0-44.39,8.11-44.39,18.08s19.86,18.05,44.39,18.08,44.39-8.11,44.39-18.08S301.81,187.68,277.28,187.65Z"/><path class="cls-18" d="M277.28,224.17l0-.36v-.35h0c.7,0,1.39,0,2.08,0v.71C278.68,224.16,278,224.17,277.28,224.17Zm-2.19,0c-.72,0-1.44,0-2.14-.07l0-.7c.7,0,1.41,0,2.12.06Zm6.42-.06,0-.71,2.13-.1,0,.7Zm-10.7-.11-2.14-.15.06-.71c.7.06,1.41.11,2.12.15Zm15-.15-.05-.7,2.12-.19.07.7C287.22,223.7,286.51,223.77,285.79,223.82Zm-19.26-.2q-1.06-.1-2.13-.24l.09-.7,2.12.24Zm23.53-.23-.09-.7c.72-.08,1.42-.18,2.11-.28l.11.7C291.49,223.21,290.78,223.31,290.06,223.39Zm-27.78-.29-2.11-.34.11-.7,2.11.34Zm32-.32-.11-.7,2.09-.38.13.7Zm-36.25-.41c-.71-.13-1.41-.28-2.1-.43l.16-.69c.68.15,1.38.3,2.08.43Zm40.46-.41-.15-.7q1-.22,2.07-.48l.17.68C299.92,221.64,299.22,221.8,298.51,222Zm-44.64-.52c-.71-.18-1.4-.36-2.08-.55l.2-.69c.67.2,1.35.38,2,.56Zm48.8-.53-.18-.68c.69-.19,1.37-.4,2-.61l.21.67C304.06,220.5,303.38,220.71,302.67,220.91Zm-52.93-.65q-1.05-.33-2-.69l.24-.67q1,.36,2,.69Zm57-.66-.24-.67q1-.36,2-.75l.27.65C308.13,219.1,307.46,219.35,306.77,219.6Zm-61.07-.8c-.68-.27-1.34-.56-2-.85l.3-.65c.63.29,1.28.58,1.94.85Zm65.05-.82-.3-.64c.66-.31,1.3-.62,1.9-.94l.33.62C312.07,217.35,311.42,217.67,310.75,218Zm-69-1c-.65-.35-1.28-.71-1.87-1.08l.37-.6c.58.36,1.2.72,1.83,1.06Zm72.76-1-.37-.6c.62-.38,1.21-.78,1.75-1.18l.42.58Q315.51,215.37,314.55,216Zm-76.42-1.26a20,20,0,0,1-1.68-1.38l.48-.52a18.56,18.56,0,0,0,1.62,1.33Zm79.9-1.32-.47-.52a16.8,16.8,0,0,0,1.45-1.49l.54.45A14.78,14.78,0,0,1,318,213.37ZM235,211.74a11.31,11.31,0,0,1-1.26-1.8l.62-.34a12.35,12.35,0,0,0,1.18,1.69ZM320.82,210l-.62-.35a8.75,8.75,0,0,0,.81-1.88l.68.2A10.18,10.18,0,0,1,320.82,210Zm-88-2.12a8,8,0,0,1-.3-2.17l.7,0v0a7.07,7.07,0,0,0,.28,2ZM322,205.8h-.35l-.36-.06a7.55,7.55,0,0,0-.26-1.94l.68-.19a8.16,8.16,0,0,1,.29,2.13Zm-88.49-2.09-.68-.2a9.41,9.41,0,0,1,.87-2l.61.35A8.7,8.7,0,0,0,233.53,203.71Zm86.73-1.81a11,11,0,0,0-1.17-1.7l.55-.45a11.22,11.22,0,0,1,1.24,1.81Zm-84.75-1.76-.54-.46a17.09,17.09,0,0,1,1.52-1.57l.47.53A16.92,16.92,0,0,0,235.51,200.14Zm82.15-1.44c-.5-.45-1-.9-1.62-1.34l.42-.56a21.65,21.65,0,0,1,1.68,1.37Zm-79.07-1.39-.42-.57c.55-.41,1.15-.82,1.79-1.21l.37.6C239.71,196.52,239.13,196.91,238.59,197.31Zm75.71-1.13c-.58-.36-1.19-.71-1.83-1.06l.33-.62c.65.35,1.28.71,1.87,1.08Zm-72.14-1.1-.33-.62c.62-.33,1.27-.65,1.93-1l.3.64C243.4,194.44,242.76,194.76,242.16,195.08Zm68.41-.9c-.63-.29-1.27-.58-1.94-.85l.27-.66c.67.28,1.33.57,2,.87ZM246,193.3l-.27-.66c.66-.26,1.33-.52,2-.77l.25.67C247.3,192.78,246.64,193,246,193.3Zm60.65-.73q-1-.36-2-.69l.22-.67c.7.22,1.37.45,2,.7ZM250,191.86l-.22-.68c.68-.21,1.36-.42,2.06-.62l.2.68C251.34,191.44,250.66,191.64,250,191.86Zm52.62-.59c-.67-.2-1.35-.38-2.05-.56l.17-.68c.71.17,1.4.36,2.07.56Zm-48.53-.58-.17-.68c.68-.18,1.38-.34,2.09-.5l.15.69Zm44.41-.47c-.68-.15-1.38-.3-2.08-.43l.13-.7,2.1.44Zm-40.26-.45-.13-.7,2.1-.38.12.7C259.62,189.51,258.92,189.63,258.23,189.77Zm36.08-.37c-.69-.12-1.39-.22-2.1-.33l.11-.7c.71.1,1.42.22,2.12.34Zm-31.88-.34-.11-.71,2.13-.28.09.7Zm27.68-.28-2.12-.23.07-.71q1.08.1,2.13.24Zm-23.46-.24-.07-.71,2.13-.19.06.7Zm19.22-.19c-.7,0-1.41-.11-2.12-.15l0-.71,2.14.15Zm-15-.15,0-.71,2.14-.11,0,.71C272.3,188.12,271.6,188.15,270.9,188.2Zm10.72-.11c-.71,0-1.41-.05-2.13-.06l0-.71,2.14.07Zm-6.47-.06,0-.71c.71,0,1.43,0,2.14,0h.1V188h-.09Q276.2,188,275.15,188Z"/><path class="cls-18" d="M283.61,201c-.12-2.19-2.29-3.4-4.83-3.4-1,0-2.49.52-2.48,1.54,0,3.08,14.74,2.35,15.52,9.81.57,5.37-5.18,7.39-10,7.39-.49,0-1,0-1.43-.07l.07,2.36h-2.64l-.05-2.91a10.59,10.59,0,0,1-4.45-2.67l-.47,2.74H265.7l.49-8.65h7.17c0,2.78,3.27,3.25,4.92,3.33,1.38,0,3.34-.28,3.28-1.69-.1-2.55-14.88-1.48-14.46-9.38.23-4.23,5.25-6.07,8.69-6.07.53,0,1.06,0,1.59.08l0-2h2.21l.08,2.39a6.64,6.64,0,0,1,3.66,2.33l.22-2.33h6.07l.73,7.18Z"/><path class="cls-19" d="M320.85,219.32a53.46,53.46,0,0,1-9.71,4.58,80.78,80.78,0,0,1-9.71,2.82,98.44,98.44,0,0,1-9.71,1.69c-3.13.4-6.37.66-9.7.8-1.57.06-3.15.1-4.74.1s-3.34,0-5-.11c-3.33-.14-6.58-.42-9.71-.82-3.38-.43-6.63-1-9.71-1.71a82.58,82.58,0,0,1-9.71-2.85,53.05,53.05,0,0,1-9.7-4.64c-4.8-3-8.12-6.49-9.48-10.28v13c1.55,3.55,4.85,6.87,9.48,9.75a54.39,54.39,0,0,0,9.7,4.69,81.63,81.63,0,0,0,9.71,2.94c3.09.73,6.33,1.33,9.71,1.78,3.14.42,6.38.72,9.71.87,1.64.07,3.29.11,5,.11s3.17,0,4.74-.1c3.32-.15,6.57-.43,9.7-.84,3.38-.45,6.63-1.05,9.71-1.77a81.15,81.15,0,0,0,9.71-2.9,56.6,56.6,0,0,0,9.71-4.63c4.74-2.93,8.13-6.3,9.71-9.9v-13C329.17,212.75,325.76,216.3,320.85,219.32Z"/><path class="cls-9" d="M277.28,168.83c-29.44,0-53.28,10.91-53.28,24.3s23.84,24.26,53.28,24.3,53.28-10.9,53.28-24.3S306.72,168.87,277.28,168.83Z"/><path class="cls-17" d="M277.28,172.88c-24.53,0-44.39,8.12-44.39,18.08s19.86,18.06,44.39,18.09,44.39-8.12,44.39-18.09S301.81,172.92,277.28,172.88Z"/><path class="cls-18" d="M277.28,209.4l0-.35v-.36h0l2.08,0v.71Zm-2.19,0c-.72,0-1.44,0-2.14-.06l0-.71,2.12.07Zm6.42-.06,0-.7,2.13-.11,0,.71Zm-10.7-.11c-.72,0-1.43-.09-2.14-.15l.06-.7,2.12.15Zm15-.14-.05-.71c.71,0,1.42-.12,2.12-.19l.07.71Zm-19.26-.2-2.13-.24.09-.7,2.12.23Zm23.53-.23-.09-.7c.72-.09,1.42-.18,2.11-.29l.11.7C291.49,208.45,290.78,208.54,290.06,208.63Zm-27.78-.3c-.72-.1-1.42-.21-2.11-.33l.11-.7c.7.12,1.4.23,2.11.33Zm32-.32-.11-.7c.7-.11,1.4-.24,2.09-.38l.13.7Zm-36.25-.4c-.71-.13-1.41-.28-2.1-.44l.16-.69c.68.16,1.38.3,2.08.44Zm40.46-.42-.15-.69c.7-.15,1.39-.32,2.07-.49l.17.69C299.92,206.87,299.22,207,298.51,207.19Zm-44.64-.51c-.71-.18-1.4-.36-2.08-.56l.2-.68c.67.19,1.35.38,2,.55Zm48.8-.54-.18-.68c.69-.19,1.37-.39,2-.61l.21.68C304.06,205.74,303.38,206,302.67,206.14Zm-52.93-.64q-1.05-.33-2-.69l.24-.67c.66.24,1.33.46,2,.68Zm57-.66-.24-.67c.68-.24,1.34-.5,2-.76l.27.66C308.13,204.33,307.46,204.59,306.77,204.84ZM245.7,204c-.68-.28-1.34-.56-2-.86l.3-.64c.63.29,1.28.57,1.94.84Zm65.05-.83-.3-.64c.66-.3,1.3-.62,1.9-.94l.33.63C312.07,202.58,311.42,202.91,310.75,203.21Zm-69-1c-.65-.35-1.28-.71-1.87-1.08l.37-.6c.58.36,1.2.71,1.83,1.05Zm72.76-1-.37-.6c.62-.39,1.21-.78,1.75-1.18l.42.57C315.79,200.39,315.19,200.8,314.55,201.19Zm-76.42-1.26c-.61-.45-1.17-.92-1.68-1.38l.48-.52c.49.44,1,.89,1.62,1.33Zm79.9-1.32-.47-.52a16.87,16.87,0,0,0,1.45-1.5l.54.46A15.81,15.81,0,0,1,318,198.61ZM235,197a11.38,11.38,0,0,1-1.26-1.81l.62-.34a11.24,11.24,0,0,0,1.18,1.69Zm85.87-1.73-.62-.35A8.68,8.68,0,0,0,321,193l.68.2A9.86,9.86,0,0,1,320.82,195.25Zm-88-2.11a8.13,8.13,0,0,1-.3-2.18h.7a7.14,7.14,0,0,0,.28,2ZM322,191h-.35l-.36-.07a7.67,7.67,0,0,0-.26-1.94l.68-.19A8.27,8.27,0,0,1,322,191Zm-88.49-2.1-.68-.19a9.48,9.48,0,0,1,.87-2l.61.36A8.43,8.43,0,0,0,233.53,188.94Zm86.73-1.8a11,11,0,0,0-1.17-1.7l.55-.45a11.22,11.22,0,0,1,1.24,1.81Zm-84.75-1.76-.54-.46a15.91,15.91,0,0,1,1.52-1.57l.47.52A17,17,0,0,0,235.51,185.38Zm82.15-1.45c-.5-.45-1-.9-1.62-1.33l.42-.57a21.71,21.71,0,0,1,1.68,1.38Zm-79.07-1.38-.42-.57c.55-.41,1.15-.82,1.79-1.21l.37.6C239.71,181.75,239.13,182.14,238.59,182.55Zm75.71-1.13c-.58-.36-1.19-.72-1.83-1.06l.33-.62c.65.35,1.28.71,1.87,1.08Zm-72.14-1.11-.33-.62c.62-.32,1.27-.65,1.93-1l.3.65C243.4,179.68,242.76,180,242.16,180.31Zm68.41-.89c-.63-.3-1.27-.58-1.94-.86l.27-.65c.67.28,1.33.56,2,.86ZM246,178.53l-.27-.65q1-.4,2-.78l.25.67C247.3,178,246.64,178.27,246,178.53Zm60.65-.73c-.65-.23-1.32-.46-2-.68l.22-.67c.7.22,1.37.45,2,.69ZM250,177.09l-.22-.68c.68-.21,1.36-.42,2.06-.62l.2.69C251.34,176.67,250.66,176.88,250,177.09Zm52.62-.59c-.67-.19-1.35-.37-2.05-.55l.17-.69c.71.18,1.4.37,2.07.56Zm-48.53-.57-.17-.69c.68-.17,1.38-.34,2.09-.49l.15.69C255.45,175.59,254.76,175.76,254.08,175.93Zm44.41-.47c-.68-.16-1.38-.3-2.08-.44l.13-.69c.71.14,1.41.28,2.1.44ZM258.23,175l-.13-.69c.69-.14,1.39-.26,2.1-.39l.12.7Zm36.08-.36-2.1-.34.11-.7,2.12.34Zm-31.88-.35-.11-.7,2.13-.28.09.7Zm27.68-.27c-.7-.09-1.41-.17-2.12-.24l.07-.7q1.08.1,2.13.24Zm-23.46-.25-.07-.7,2.13-.2.06.71Zm19.22-.18c-.7-.06-1.41-.11-2.12-.15l0-.71c.72,0,1.43.1,2.14.15Zm-15-.16,0-.71,2.14-.1,0,.71C272.3,173.35,271.6,173.39,270.9,173.43Zm10.72-.1-2.13-.07,0-.7c.72,0,1.43,0,2.14.06Zm-6.47-.07,0-.71,2.14,0h.1v.71h-.09C276.56,173.24,275.85,173.24,275.15,173.26Z"/><path class="cls-18" d="M283.61,186.23c-.12-2.19-2.29-3.41-4.83-3.41-1,0-2.49.52-2.48,1.54,0,3.08,14.74,2.35,15.52,9.81.57,5.38-5.18,7.39-10,7.39-.49,0-1,0-1.43-.07l.07,2.36h-2.64l-.05-2.91a10.58,10.58,0,0,1-4.45-2.66l-.47,2.74H265.7l.49-8.66h7.17c0,2.79,3.27,3.26,4.92,3.33,1.38,0,3.34-.28,3.28-1.68-.1-2.55-14.88-1.48-14.46-9.39.23-4.23,5.25-6.06,8.69-6.06a14.11,14.11,0,0,1,1.59.08l0-2h2.21l.08,2.38a6.64,6.64,0,0,1,3.66,2.33l.22-2.33h6.07l.73,7.19Z"/><path class="cls-19" d="M320.85,204.56a53.46,53.46,0,0,1-9.71,4.58,80.8,80.8,0,0,1-9.71,2.81q-4.62,1.05-9.71,1.7c-3.13.39-6.37.66-9.7.79-1.57.07-3.15.1-4.74.1s-3.34,0-5-.1c-3.33-.15-6.58-.42-9.71-.82-3.38-.43-6.63-1-9.71-1.72a78.92,78.92,0,0,1-9.71-2.85,53.71,53.71,0,0,1-9.7-4.63c-4.8-3-8.12-6.49-9.48-10.28v13c1.55,3.55,4.85,6.87,9.48,9.76a54.39,54.39,0,0,0,9.7,4.69,81.65,81.65,0,0,0,9.71,2.93,96.24,96.24,0,0,0,9.71,1.79q4.71.63,9.71.86c1.64.07,3.29.11,5,.12s3.17,0,4.74-.11c3.32-.14,6.57-.43,9.7-.84a98.65,98.65,0,0,0,9.71-1.77,79.35,79.35,0,0,0,9.71-2.9,55.15,55.15,0,0,0,9.71-4.63c4.74-2.92,8.13-6.29,9.71-9.9v-13C329.17,198,325.76,201.54,320.85,204.56Z"/><path class="cls-9" d="M277.28,153.59c-29.44,0-53.28,10.9-53.28,24.3s23.84,24.26,53.28,24.3,53.28-10.91,53.28-24.3S306.72,153.62,277.28,153.59Z"/><path class="cls-17" d="M277.28,157.64c-24.53,0-44.39,8.11-44.39,18.08s19.86,18.05,44.39,18.08,44.39-8.11,44.39-18.08S301.81,157.67,277.28,157.64Z"/><path class="cls-18" d="M277.28,194.16l0-.36v-.35h0l2.08,0v.7C278.68,194.15,278,194.16,277.28,194.16Zm-2.19,0c-.72,0-1.44,0-2.14-.06l0-.71,2.12.07Zm6.42-.06,0-.71c.71,0,1.42-.06,2.13-.1l0,.71Zm-10.7-.11c-.72,0-1.43-.1-2.14-.15l.06-.71c.7.06,1.41.11,2.12.15Zm15-.14-.05-.71,2.12-.19.07.7C287.22,193.7,286.51,193.76,285.79,193.82Zm-19.26-.21-2.13-.23.09-.71c.7.09,1.4.17,2.12.24Zm23.53-.22-.09-.71c.72-.08,1.42-.18,2.11-.28l.11.7Zm-27.78-.3c-.72-.1-1.42-.22-2.11-.33l.11-.71c.7.12,1.4.24,2.11.34Zm32-.32-.11-.7c.7-.12,1.4-.24,2.09-.38l.13.7Zm-36.25-.4c-.71-.14-1.41-.28-2.1-.44l.16-.69,2.08.44Zm40.46-.42-.15-.69,2.07-.49.17.69C299.92,191.63,299.22,191.79,298.51,192Zm-44.64-.51c-.71-.18-1.4-.37-2.08-.56l.2-.68c.67.19,1.35.37,2,.55Zm48.8-.54-.18-.68c.69-.2,1.37-.4,2-.61l.21.68C304.06,190.5,303.38,190.71,302.67,190.9Zm-52.93-.64c-.7-.23-1.38-.46-2-.7l.24-.66c.66.24,1.33.46,2,.68Zm57-.66-.24-.67c.68-.25,1.34-.5,2-.76l.27.66C308.13,189.09,307.46,189.34,306.77,189.6Zm-61.07-.81c-.68-.27-1.34-.56-2-.86l.3-.64c.63.29,1.28.58,1.94.85Zm65.05-.82-.3-.64c.66-.31,1.3-.62,1.9-.94l.33.62C312.07,187.34,311.42,187.66,310.75,188Zm-69-1c-.65-.34-1.28-.71-1.87-1.07l.37-.61c.58.37,1.2.72,1.83,1.06Zm72.76-1-.37-.6c.62-.38,1.21-.78,1.75-1.17l.42.57Q315.51,185.36,314.55,185.94Zm-76.42-1.26c-.61-.45-1.17-.91-1.68-1.37l.48-.52a20.52,20.52,0,0,0,1.62,1.32Zm79.9-1.31-.47-.53a16.8,16.8,0,0,0,1.45-1.49l.54.45A14.84,14.84,0,0,1,318,183.37ZM235,181.74a11.85,11.85,0,0,1-1.26-1.81l.62-.35a11.84,11.84,0,0,0,1.18,1.7ZM320.82,180l-.62-.35a8.9,8.9,0,0,0,.81-1.87l.68.19A9.93,9.93,0,0,1,320.82,180Zm-88-2.11a8.13,8.13,0,0,1-.3-2.18l.7,0v0a7.19,7.19,0,0,0,.28,2ZM322,175.79h-.35l-.36-.07a7.55,7.55,0,0,0-.26-1.94l.68-.19a8.16,8.16,0,0,1,.29,2.13Zm-88.49-2.09-.68-.2a9.63,9.63,0,0,1,.87-2l.61.35A8.7,8.7,0,0,0,233.53,173.7Zm86.73-1.8a10.12,10.12,0,0,0-1.17-1.7l.55-.45a11.15,11.15,0,0,1,1.24,1.8Zm-84.75-1.77-.54-.46a15.84,15.84,0,0,1,1.52-1.56l.47.52A18.41,18.41,0,0,0,235.51,170.13Zm82.15-1.44c-.5-.45-1-.9-1.62-1.33l.42-.57a21.71,21.71,0,0,1,1.68,1.38Zm-79.07-1.39-.42-.57c.55-.41,1.15-.81,1.79-1.21l.37.6C239.71,166.51,239.13,166.91,238.59,167.3Zm75.71-1.13q-.87-.54-1.83-1l.33-.63c.65.35,1.28.72,1.87,1.08Zm-72.14-1.1-.33-.62c.62-.33,1.27-.65,1.93-1l.3.64C243.4,164.44,242.76,164.75,242.16,165.07Zm68.41-.9c-.63-.29-1.27-.58-1.94-.85l.27-.65c.67.27,1.33.56,2,.86ZM246,163.29l-.27-.66c.66-.26,1.33-.52,2-.77l.25.67C247.3,162.77,246.64,163,246,163.29Zm60.65-.73q-1-.36-2-.69l.22-.67c.7.22,1.37.46,2,.69ZM250,161.85l-.22-.68c.68-.21,1.36-.42,2.06-.62l.2.68C251.34,161.43,250.66,161.63,250,161.85Zm52.62-.59c-.67-.19-1.35-.38-2.05-.56l.17-.68c.71.18,1.4.37,2.07.56Zm-48.53-.58-.17-.68,2.09-.5.15.69Zm44.41-.47-2.08-.44.13-.69,2.1.44Zm-40.26-.45-.13-.69q1-.21,2.1-.39l.12.7C259.62,159.5,258.92,159.62,258.23,159.76Zm36.08-.37c-.69-.11-1.39-.23-2.1-.33l.11-.7c.71.1,1.42.22,2.12.34Zm-31.88-.34-.11-.7c.7-.11,1.41-.2,2.13-.29l.09.7Zm27.68-.28-2.12-.23.07-.71c.72.07,1.43.16,2.13.24Zm-23.46-.24-.07-.7c.7-.08,1.41-.14,2.13-.2l.06.7Zm19.22-.19-2.12-.15,0-.7c.72,0,1.43.09,2.14.15Zm-15-.15,0-.71,2.14-.11,0,.71Zm10.72-.1c-.71,0-1.41-.06-2.13-.07l0-.71,2.14.07Zm-6.47-.07,0-.71c.71,0,1.43,0,2.14,0h.1v.7h-.09Q276.2,158,275.15,158Z"/><path class="cls-18" d="M283.61,171c-.12-2.2-2.29-3.41-4.83-3.41-1,0-2.49.52-2.48,1.54,0,3.08,14.74,2.35,15.52,9.81.57,5.37-5.18,7.39-10,7.39-.49,0-1,0-1.43-.07l.07,2.36h-2.64l-.05-2.91a10.49,10.49,0,0,1-4.45-2.67l-.47,2.75H265.7l.49-8.66h7.17c0,2.78,3.27,3.26,4.92,3.32,1.38,0,3.34-.27,3.28-1.68-.1-2.55-14.88-1.48-14.46-9.38.23-4.23,5.25-6.07,8.69-6.07.53,0,1.06,0,1.59.08l0-2h2.21l.08,2.38a6.64,6.64,0,0,1,3.66,2.33l.22-2.33h6.07l.73,7.19Z"/><path class="cls-19" d="M320.85,189.32a54.13,54.13,0,0,1-9.71,4.57,79,79,0,0,1-9.71,2.82,98.44,98.44,0,0,1-9.71,1.69c-3.13.39-6.37.67-9.7.8-1.57.06-3.15.1-4.74.1s-3.34,0-5-.11c-3.33-.14-6.58-.41-9.71-.82-3.38-.43-6.63-1-9.71-1.71a80.71,80.71,0,0,1-9.71-2.85,53.05,53.05,0,0,1-9.7-4.64c-4.8-3-8.12-6.49-9.48-10.28v13c1.55,3.55,4.85,6.87,9.48,9.75a54.39,54.39,0,0,0,9.7,4.69,78.1,78.1,0,0,0,9.71,2.93q4.63,1.11,9.71,1.8c3.14.41,6.38.71,9.71.86,1.64.07,3.29.11,5,.12s3.17-.05,4.74-.11c3.32-.14,6.57-.43,9.7-.85a95.83,95.83,0,0,0,9.71-1.76,81.15,81.15,0,0,0,9.71-2.9,55.87,55.87,0,0,0,9.71-4.64c4.74-2.91,8.13-6.28,9.71-9.89v-13C329.17,182.74,325.76,186.29,320.85,189.32Z"/><path class="cls-8" d="M277.28,138.34c-29.44,0-53.28,10.91-53.28,24.3S247.84,186.9,277.28,187s53.28-10.91,53.28-24.31S306.72,138.38,277.28,138.34Z"/><path class="cls-10" d="M277.28,142.4c-24.53,0-44.39,8.11-44.39,18.08s19.86,18.05,44.39,18.08,44.39-8.11,44.39-18.08S301.81,142.43,277.28,142.4Z"/><path class="cls-19" d="M320.85,174.07a53.46,53.46,0,0,1-9.71,4.58,79,79,0,0,1-9.71,2.81,98.4,98.4,0,0,1-9.71,1.7c-3.13.39-6.37.66-9.7.8-1.57.06-3.15.1-4.74.1s-3.34,0-5-.11c-3.33-.14-6.58-.42-9.71-.82-3.38-.43-6.63-1-9.71-1.72a78.92,78.92,0,0,1-9.71-2.85,52.4,52.4,0,0,1-9.7-4.63c-4.8-3-8.12-6.49-9.48-10.28v13c1.55,3.54,4.85,6.86,9.48,9.75a54.39,54.39,0,0,0,9.7,4.69,81.63,81.63,0,0,0,9.71,2.94c3.09.73,6.33,1.33,9.71,1.78,3.14.42,6.38.72,9.71.87,1.64.07,3.29.11,5,.11s3.17,0,4.74-.11c3.32-.14,6.57-.42,9.7-.84,3.38-.44,6.63-1,9.71-1.76a83,83,0,0,0,9.71-2.9,55.87,55.87,0,0,0,9.71-4.64c4.74-2.92,8.13-6.29,9.71-9.89v-13C329.17,167.5,325.76,171.05,320.85,174.07Z"/><path class="cls-9" d="M277.35,180h0c-21.57,0-44.49-6.67-44.49-18.93s22.92-18.9,44.49-18.92,44.5,6.67,44.5,18.92S298.91,180,277.35,180Zm0-32.59c-23.12,0-39.23,7.22-39.23,13.66s16.11,13.64,39.23,13.67,39.24-7.22,39.24-13.67S300.46,147.45,277.34,147.42Z"/><path class="cls-9" d="M294.05,161.14,287,158l1-.49a7,7,0,0,0,1.91-1.1q.26-.33-.51-.66a2.69,2.69,0,0,0-1.36-.2,5.07,5.07,0,0,0-1.62.46c-1,.45-1.45.85-1.42,1.22a9,9,0,0,0,1.36,2.74,11.27,11.27,0,0,1,1.39,2.78,2.42,2.42,0,0,1-.61,1.92,8.87,8.87,0,0,1-3.11,2.23,19,19,0,0,1-7.85,2,20.65,20.65,0,0,1-8.23-1.48l-2.84,1.33L262,167.14,265,165.8q-2.35-1.52-2.31-3.39c0-1.21,1.62-2.49,4.74-3.83l1.34-.58,6.51,3.11-1.69.77a20.14,20.14,0,0,0-3.32,1.72c-.33.28-.22.55.31.82a2.88,2.88,0,0,0,1.52.29,4.76,4.76,0,0,0,1.77-.5,13.4,13.4,0,0,0,3-1.72c.45-.41.43-1.09,0-2a15.45,15.45,0,0,1-1.29-3.17,2.39,2.39,0,0,1,.64-1.92,6.92,6.92,0,0,1,2.76-1.85,14.57,14.57,0,0,1,5.93-1.18,22,22,0,0,1,6.87,1.25l1.87-.86,3.12,1.27-1.87.88c1.91,1,2.92,2,3,2.91s-.76,1.9-2.58,2.8C295,160.72,294.63,160.9,294.05,161.14Z"/><path class="cls-5" d="M166.82,299.15a50.24,50.24,0,1,1,70-11.92A50.23,50.23,0,0,1,166.82,299.15Z"/><path class="cls-6" d="M162.74,234.67a40.62,40.62,0,1,1,9.64,56.63A40.66,40.66,0,0,1,162.74,234.67Zm61,43.28a34.21,34.21,0,1,0-47.69,8.12A34.24,34.24,0,0,0,223.78,278Z"/><path class="cls-7" d="M176.09,286.07A34.21,34.21,0,1,1,223.78,278,34.21,34.21,0,0,1,176.09,286.07Z"/><path class="cls-6" d="M196.34,273.12l6.07-8.56,1.43,1a11.17,11.17,0,0,0,3.17,1.81,1.52,1.52,0,0,0,1.61-.77,1.64,1.64,0,0,0,.23-1.61,4.11,4.11,0,0,0-1.54-1.68,4.8,4.8,0,0,0-3.39-1.19,37.71,37.71,0,0,0-6.41,2.4,43.41,43.41,0,0,1-6.18,2.31,10.1,10.1,0,0,1-4.39-.1,15.19,15.19,0,0,1-5.36-2.58q-4.59-3.24-5.63-7.3t1.47-8.9l-3.22-2.29,2.79-3.94,3.33,2.36a12.59,12.59,0,0,1,6.9-4.13c2.74-.62,6,.42,9.84,3.13l1.68,1.18-6.08,8.57-2.1-1.49a24.22,24.22,0,0,0-4.48-2.78,1.45,1.45,0,0,0-1.74.69A1.84,1.84,0,0,0,184,251a3.61,3.61,0,0,0,1.43,1.65,18.24,18.24,0,0,0,4.41,2.52q1.53.48,4.66-.84a73.4,73.4,0,0,1,7.39-2.77,11.76,11.76,0,0,1,5-.13,13.19,13.19,0,0,1,5.48,2.34,10,10,0,0,1,4.48,6.44q.63,3.72-1.93,8.43l2.73,1.94-2.8,3.94-2.73-1.93q-3.31,3.6-6.87,4a10.39,10.39,0,0,1-7.35-2.24C197.54,274.1,197,273.69,196.34,273.12Z"/></g></g></svg>