<svg xmlns="http://www.w3.org/2000/svg" viewBox="0 0 359.42 414.03"><defs><style>.cls-1{fill:#4e4c4f;}.cls-2{fill:#302f30;}.cls-3{fill:#7aa343;}.cls-4{fill:#3b393b;}.cls-5{fill:#f2ba67;}.cls-6{fill:#b3b3b3;}.cls-7{fill:#787878;}.cls-8{fill:#50c0d8;}.cls-9{fill:#3c3b3d;}.cls-10{fill:#e7e8ed;}.cls-11{fill:#282729;}.cls-12{fill:#4a4e4f;}.cls-13{fill:#231f20;opacity:0.1;}</style></defs><title>Asset 1</title><g id="Layer_2" data-name="Layer 2"><g id="object"><rect class="cls-1" x="33.76" width="181.38" height="375.8" rx="14.92" ry="14.92"/><path class="cls-2" d="M215.14,360.88V226.63c-14.62-30.4-49.69-51.83-90.69-51.83s-76.07,21.43-90.69,51.83V360.88A14.92,14.92,0,0,0,48.68,375.8H200.22A14.92,14.92,0,0,0,215.14,360.88Z"/><rect class="cls-3" x="120.62" y="259.42" width="7.66" height="116.37"/><path class="cls-4" d="M124.45,262.35c-7,0-13.38-4.16-17.56-11.4l-9.47-16.41c-4.19-7.24-4.58-14.86-1.09-20.9s10.28-9.52,18.65-9.52h18.94c8.37,0,15.16,3.47,18.65,9.52s3.1,13.66-1.09,20.9L142,251C137.83,258.19,131.43,262.35,124.45,262.35Z"/><path class="cls-5" d="M106,229.57,115.5,246c5,8.56,13,8.56,17.9,0l9.47-16.41c4.95-8.56.94-15.5-9-15.5H115C105.09,214.07,101.09,221,106,229.57Z"/><rect class="cls-2" x="44.8" y="25.09" width="159.31" height="41.42"/><rect class="cls-2" x="44.8" y="72.88" width="159.31" height="41.42"/><rect class="cls-6" x="62.05" y="126.03" width="24.22" height="11.45"/><rect class="cls-7" x="62.05" y="126.03" width="24.22" height="4.21"/><rect class="cls-6" x="99.35" y="126.03" width="24.22" height="11.45"/><rect class="cls-7" x="99.35" y="126.03" width="24.22" height="4.21"/><path class="cls-2" d="M149.37,132.7a4.56,4.56,0,1,1-4.56-4.56A4.56,4.56,0,0,1,149.37,132.7Z"/><path class="cls-7" d="M144.81,136.26a3.57,3.57,0,1,1,3.56-3.56A3.57,3.57,0,0,1,144.81,136.26Z"/><path class="cls-2" d="M167.09,132.7a4.57,4.57,0,1,1-4.57-4.56A4.56,4.56,0,0,1,167.09,132.7Z"/><circle class="cls-7" cx="162.52" cy="132.7" r="3.56"/><circle class="cls-8" cx="183.29" cy="132.7" r="3.56"/><rect class="cls-1" x="183.29" y="79.96" width="14.73" height="6.84"/><rect class="cls-1" x="183.29" y="31.78" width="14.73" height="6.84"/><path d="M33.76,356.21v4.67A14.92,14.92,0,0,0,48.68,375.8H200.22a14.92,14.92,0,0,0,14.92-14.92v-4.67Z"/><rect class="cls-1" x="208.63" y="252.77" width="124.87" height="124.87" rx="6.35" ry="6.35" transform="translate(-98.36 505.89) rotate(-76.61)"/><rect class="cls-9" x="235.65" y="279.8" width="70.82" height="70.83" rx="5.97" ry="5.97" transform="translate(-98.36 505.89) rotate(-76.61)"/><path class="cls-10" d="M241.63,282.44H300.5a3.34,3.34,0,0,1,3.34,3.34v58.88A3.34,3.34,0,0,1,300.5,348H241.63a3.33,3.33,0,0,1-3.33-3.33V285.77a3.33,3.33,0,0,1,3.33-3.33Z" transform="translate(-98.36 505.89) rotate(-76.61)"/><path class="cls-11" d="M260.67,315.51v.08a5.76,5.76,0,0,1-2.82,4.07,7.3,7.3,0,0,1-5.34.44,7,7,0,0,1-4.71-3.31,7.61,7.61,0,0,1-.7-5.83l.84-3.55a7.81,7.81,0,0,1,3.21-4.9,6.8,6.8,0,0,1,5.56-.88,7.8,7.8,0,0,1,4.74,2.82,5.69,5.69,0,0,1,.72,4.93l0,.07-3.49-.83a3.66,3.66,0,0,0-.22-2.77,3.59,3.59,0,0,0-2.37-1.45,3,3,0,0,0-2.82.7,5.85,5.85,0,0,0-1.7,3.14l-.85,3.58a5.68,5.68,0,0,0,.15,3.59,3.16,3.16,0,0,0,2.34,1.94,3.28,3.28,0,0,0,2.6-.27,3.81,3.81,0,0,0,1.41-2.4Z"/><path class="cls-11" d="M267,316.41l-1.55,6.49-3.59-.85,4.26-17.91,6.85,1.63a7.23,7.23,0,0,1,4.49,2.74,5.86,5.86,0,0,1-2,8.27,7.29,7.29,0,0,1-5.23.4Zm.66-2.77,3.26.78a3.12,3.12,0,0,0,2.47-.28,3,3,0,0,0,1.27-1.9,3.21,3.21,0,0,0-.26-2.32,3,3,0,0,0-2.08-1.38l-3.26-.78Z"/><path class="cls-11" d="M296.34,311.34l-2.79,11.72a6.05,6.05,0,0,1-3.14,4.26A9,9,0,0,1,280,324.85a6.1,6.1,0,0,1-.86-5.21L282,307.92l3.6.86-2.79,11.72a3.8,3.8,0,0,0,.31,3,4.2,4.2,0,0,0,5.23,1.24,3.71,3.71,0,0,0,1.62-2.51l2.79-11.72Z"/><path class="cls-11" d="M235.75,234.92l-4.09,17.17Z"/><path class="cls-12" d="M231.17,254.15a2.11,2.11,0,0,1-1.57-2.55l4.08-17.17a2.12,2.12,0,0,1,4.13,1l-4.09,17.17A2.11,2.11,0,0,1,231.17,254.15Z"/><path class="cls-11" d="M246.05,237.38,242,254.55Z"/><path class="cls-12" d="M241.47,256.61a2.12,2.12,0,0,1-1.57-2.55L244,236.89a2.12,2.12,0,1,1,4.12,1L244,255A2.11,2.11,0,0,1,241.47,256.61Z"/><path class="cls-11" d="M256.35,239.83,252.26,257Z"/><path class="cls-12" d="M251.77,259.06a2.11,2.11,0,0,1-1.57-2.55l4.09-17.17a2.12,2.12,0,0,1,4.12,1l-4.09,17.17A2.11,2.11,0,0,1,251.77,259.06Z"/><path class="cls-11" d="M266.65,242.28l-4.08,17.17Z"/><path class="cls-12" d="M262.08,261.51a2.11,2.11,0,0,1-1.57-2.55l4.08-17.17a2.12,2.12,0,0,1,4.13,1l-4.09,17.17A2.11,2.11,0,0,1,262.08,261.51Z"/><path class="cls-11" d="M277,244.74l-4.09,17.17Z"/><path class="cls-12" d="M272.38,264a2.12,2.12,0,0,1-1.57-2.55l4.09-17.17a2.12,2.12,0,1,1,4.12,1l-4.09,17.17A2.11,2.11,0,0,1,272.38,264Z"/><path class="cls-11" d="M287.26,247.19l-4.09,17.17Z"/><path class="cls-12" d="M282.68,266.42a2.11,2.11,0,0,1-1.57-2.55l4.09-17.17a2.12,2.12,0,1,1,4.12,1l-4.09,17.17A2.11,2.11,0,0,1,282.68,266.42Z"/><path class="cls-11" d="M297.56,249.64l-4.09,17.17Z"/><path class="cls-12" d="M293,268.87a2.12,2.12,0,0,1-1.57-2.55l4.09-17.17a2.12,2.12,0,1,1,4.12,1l-4.08,17.17A2.13,2.13,0,0,1,293,268.87Z"/><path class="cls-11" d="M307.87,252.1l-4.09,17.17Z"/><path class="cls-12" d="M303.29,271.33a2.12,2.12,0,0,1-1.57-2.55l4.09-17.18a2.12,2.12,0,1,1,4.12,1l-4.09,17.17A2.12,2.12,0,0,1,303.29,271.33Z"/><path class="cls-11" d="M318.17,254.55l-4.09,17.17Z"/><path class="cls-12" d="M313.59,273.78a2.11,2.11,0,0,1-1.57-2.55l4.09-17.17a2.12,2.12,0,1,1,4.12,1l-4.09,17.17A2.11,2.11,0,0,1,313.59,273.78Z"/><path class="cls-11" d="M328.47,257l-4.09,17.17Z"/><path class="cls-12" d="M323.89,276.23a2.12,2.12,0,0,1-1.57-2.55l4.09-17.17a2.12,2.12,0,1,1,4.12,1l-4.09,17.17A2.11,2.11,0,0,1,323.89,276.23Z"/><path class="cls-11" d="M338.78,259.45l-4.09,17.18Z"/><path class="cls-12" d="M334.2,278.69a2.12,2.12,0,0,1-1.57-2.55L336.72,259a2.12,2.12,0,1,1,4.12,1l-4.09,17.17A2.13,2.13,0,0,1,334.2,278.69Z"/><path class="cls-11" d="M207.42,353.87,203.34,371Z"/><path class="cls-12" d="M202.85,373.1a2.11,2.11,0,0,1-1.57-2.55l4.08-17.17a2.12,2.12,0,0,1,4.13,1l-4.09,17.17A2.12,2.12,0,0,1,202.85,373.1Z"/><path class="cls-11" d="M217.73,356.32l-4.09,17.17Z"/><path class="cls-12" d="M213.15,375.55a2.11,2.11,0,0,1-1.57-2.55l4.09-17.17a2.12,2.12,0,1,1,4.12,1L215.7,374A2.11,2.11,0,0,1,213.15,375.55Z"/><path class="cls-11" d="M228,358.77l-4.09,17.17Z"/><path class="cls-12" d="M223.45,378a2.11,2.11,0,0,1-1.57-2.55L226,358.28a2.12,2.12,0,1,1,4.12,1L226,376.43A2.11,2.11,0,0,1,223.45,378Z"/><path class="cls-11" d="M238.33,361.23l-4.08,17.17Z"/><path class="cls-12" d="M233.76,380.46a2.11,2.11,0,0,1-1.57-2.55l4.08-17.17a2.12,2.12,0,1,1,4.12,1l-4.08,17.17A2.12,2.12,0,0,1,233.76,380.46Z"/><path class="cls-11" d="M248.64,363.68l-4.09,17.17Z"/><path class="cls-12" d="M244.06,382.91a2.11,2.11,0,0,1-1.57-2.55l4.09-17.17a2.12,2.12,0,1,1,4.12,1l-4.09,17.17A2.11,2.11,0,0,1,244.06,382.91Z"/><path class="cls-11" d="M258.94,366.13l-4.09,17.17Z"/><path class="cls-12" d="M254.36,385.36a2.11,2.11,0,0,1-1.57-2.55l4.09-17.17a2.12,2.12,0,1,1,4.12,1l-4.09,17.17A2.11,2.11,0,0,1,254.36,385.36Z"/><path class="cls-11" d="M269.24,368.59l-4.09,17.17Z"/><path class="cls-12" d="M264.66,387.82a2.13,2.13,0,0,1-1.57-2.55l4.09-17.17a2.12,2.12,0,1,1,4.12,1l-4.08,17.17A2.13,2.13,0,0,1,264.66,387.82Z"/><path class="cls-11" d="M279.55,371l-4.09,17.17Z"/><path class="cls-12" d="M275,390.27a2.11,2.11,0,0,1-1.57-2.55l4.09-17.17a2.12,2.12,0,0,1,4.12,1l-4.09,17.17A2.11,2.11,0,0,1,275,390.27Z"/><path class="cls-11" d="M289.85,373.49l-4.09,17.17Z"/><path class="cls-12" d="M285.27,392.72a2.11,2.11,0,0,1-1.57-2.55L287.79,373a2.12,2.12,0,0,1,4.12,1l-4.09,17.17A2.11,2.11,0,0,1,285.27,392.72Z"/><path class="cls-11" d="M300.15,376l-4.09,17.17Z"/><path class="cls-12" d="M295.57,395.18a2.13,2.13,0,0,1-1.57-2.55l4.09-17.18a2.12,2.12,0,1,1,4.12,1l-4.09,17.17A2.12,2.12,0,0,1,295.57,395.18Z"/><path class="cls-11" d="M310.46,378.4l-4.09,17.17Z"/><path class="cls-12" d="M305.88,397.63a2.11,2.11,0,0,1-1.57-2.55l4.08-17.17a2.12,2.12,0,0,1,4.13,1l-4.09,17.17A2.12,2.12,0,0,1,305.88,397.63Z"/><path class="cls-11" d="M351.05,279.82l-17.17-4.09Z"/><path class="cls-12" d="M350.56,281.88l-17.17-4.09a2.12,2.12,0,1,1,1-4.12l17.17,4.09a2.12,2.12,0,0,1-1,4.12Z"/><path class="cls-11" d="M348.6,290.12,331.42,286Z"/><path class="cls-12" d="M348.1,292.18l-17.17-4.09a2.12,2.12,0,1,1,1-4.12l17.17,4.09a2.12,2.12,0,1,1-1,4.12Z"/><path class="cls-11" d="M346.14,300.42,329,296.34Z"/><path class="cls-12" d="M345.65,302.48l-17.17-4.08a2.12,2.12,0,1,1,1-4.12l17.17,4.08a2.12,2.12,0,0,1-1,4.12Z"/><path class="cls-11" d="M343.69,310.73l-17.17-4.09Z"/><path class="cls-12" d="M343.2,312.79,326,308.7a2.12,2.12,0,1,1,1-4.12l17.17,4.09a2.12,2.12,0,0,1-1,4.12Z"/><path class="cls-11" d="M341.24,321l-17.17-4.09Z"/><path class="cls-12" d="M340.75,323.09,323.57,319a2.12,2.12,0,1,1,1-4.12L341.73,319a2.12,2.12,0,0,1-1,4.12Z"/><path class="cls-11" d="M338.78,331.33l-17.17-4.09Z"/><path class="cls-12" d="M338.29,333.39l-17.17-4.08a2.12,2.12,0,0,1,1-4.13l17.17,4.09a2.12,2.12,0,0,1-1,4.12Z"/><path class="cls-11" d="M336.33,341.64l-17.17-4.09Z"/><path class="cls-12" d="M335.84,343.7l-17.17-4.09a2.12,2.12,0,1,1,1-4.12l17.17,4.08a2.12,2.12,0,0,1-1,4.13Z"/><path class="cls-11" d="M333.88,351.94l-17.17-4.09Z"/><path class="cls-12" d="M333.39,354l-17.17-4.09a2.12,2.12,0,0,1,1-4.12l17.17,4.09a2.12,2.12,0,0,1-1,4.12Z"/><path class="cls-11" d="M331.42,362.24l-17.17-4.09Z"/><path class="cls-12" d="M330.93,364.3l-17.17-4.09a2.12,2.12,0,1,1,1-4.12l17.17,4.09a2.12,2.12,0,0,1-1,4.12Z"/><path class="cls-11" d="M329,372.55l-17.17-4.09Z"/><path class="cls-12" d="M328.48,374.61l-17.17-4.09a2.12,2.12,0,1,1,1-4.12l17.17,4.08a2.12,2.12,0,0,1-1,4.13Z"/><path class="cls-11" d="M326.52,382.85l-17.17-4.09Z"/><path class="cls-12" d="M326,384.91l-17.17-4.09a2.12,2.12,0,1,1,1-4.12L327,380.79a2.12,2.12,0,0,1-1,4.12Z"/><path class="cls-11" d="M231.72,251.4l-17.18-4.08Z"/><path class="cls-12" d="M231.22,253.47l-17.17-4.09a2.12,2.12,0,0,1,1-4.12l17.18,4.08a2.12,2.12,0,0,1-1,4.13Z"/><path class="cls-11" d="M229.26,261.71l-17.17-4.09Z"/><path class="cls-12" d="M228.77,263.77l-17.17-4.09a2.12,2.12,0,1,1,1-4.12l17.17,4.09a2.12,2.12,0,0,1-1,4.12Z"/><path class="cls-11" d="M226.81,272l-17.17-4.09Z"/><path class="cls-12" d="M226.32,274.07,209.15,270a2.12,2.12,0,1,1,1-4.12L227.3,270a2.12,2.12,0,0,1-1,4.12Z"/><path class="cls-11" d="M224.36,282.31l-17.17-4.08Z"/><path class="cls-12" d="M223.87,284.37l-17.18-4.08a2.12,2.12,0,1,1,1-4.13l17.17,4.09a2.12,2.12,0,0,1-1,4.12Z"/><path class="cls-11" d="M221.9,292.62l-17.17-4.09Z"/><path class="cls-12" d="M221.41,294.68l-17.17-4.09a2.12,2.12,0,0,1,1-4.12l17.17,4.09a2.12,2.12,0,0,1-1,4.12Z"/><path class="cls-11" d="M219.45,302.92l-17.17-4.09Z"/><path class="cls-12" d="M219,305l-17.17-4.09a2.12,2.12,0,1,1,1-4.12l17.17,4.09a2.12,2.12,0,0,1-1,4.12Z"/><path class="cls-11" d="M217,313.22l-17.17-4.09Z"/><path class="cls-12" d="M216.51,315.28l-17.17-4.09a2.12,2.12,0,1,1,1-4.12l17.17,4.09a2.12,2.12,0,0,1-1,4.12Z"/><path class="cls-11" d="M214.54,323.53l-17.17-4.09Z"/><path class="cls-12" d="M214.05,325.59l-17.17-4.09a2.12,2.12,0,1,1,1-4.12L215,321.47a2.12,2.12,0,1,1-1,4.12Z"/><path class="cls-11" d="M212.09,333.83l-17.17-4.09Z"/><path class="cls-12" d="M211.6,335.89l-17.17-4.09a2.12,2.12,0,1,1,1-4.12l17.17,4.09a2.12,2.12,0,0,1-1,4.12Z"/><path class="cls-11" d="M209.64,344.13,192.47,340Z"/><path class="cls-12" d="M209.15,346.19,192,342.1a2.12,2.12,0,1,1,1-4.12l17.17,4.09a2.12,2.12,0,0,1-1,4.12Z"/><path class="cls-11" d="M207.18,354.43,190,350.35Z"/><path class="cls-12" d="M206.69,356.5l-17.17-4.09a2.12,2.12,0,1,1,1-4.12l17.17,4.08a2.12,2.12,0,0,1-1,4.13Z"/><path class="cls-13" d="M312,365.26c6.53-2.82,10.07-5.77,10-8.74-.38-13.26-72.77-21.92-161.67-19.34S-.38,352.6,0,365.86s72.77,21.92,161.67,19.34c15.82-.46,31.08-1.24,45.5-2.3-2.75,2.66-4.22,5.48-4.13,8.37.39,13.77,35.73,23.91,78.91,22.66s77.87-13.43,77.47-27.2C359.12,376.53,339.63,368.31,312,365.26Z"/></g></g></svg>