<svg xmlns="http://www.w3.org/2000/svg" viewBox="0 0 582.25 350.11"><defs><style>.cls-1{fill:#231f20;opacity:0.1;}.cls-2{fill:#e2c67c;}.cls-3{fill:#eed183;}.cls-4{fill:#ffea9c;}.cls-5{fill:#08b2c1;}.cls-6{fill:#07a6b4;}.cls-7{fill:#09cdde;}.cls-8{fill:none;stroke:#c7ffff;stroke-linecap:round;stroke-linejoin:round;stroke-width:2px;}.cls-9{fill:#d9a600;}.cls-10{fill:#ffdb05;}.cls-11{fill:#d6b60b;}.cls-12{fill:#ecbd0c;}.cls-13{fill:#ffcc05;}.cls-14{fill:#fff;}.cls-14,.cls-17{opacity:0.2;}.cls-15{fill:#fcc902;}.cls-16{fill:#d6a300;}.cls-17{fill:#fcfcfc;}</style></defs><title>Asset 8</title><g id="Layer_2" data-name="Layer 2"><g id="DESIGNED_BY_FREEPIK" data-name="DESIGNED BY FREEPIK"><path class="cls-1" d="M543.31,309.2c5-2.59,7.66-5.11,7.42-7.43-1.06-10.36-59-12.91-129.51-5.67S294.5,317.59,295.56,328s59.05,12.91,129.51,5.67c12.54-1.28,24.62-2.79,36-4.46-2,2.24-3,4.54-2.81,6.79,1.11,10.77,29.75,16.64,64,13.13s61.07-15.08,60-25.85C581.4,315.26,565.45,310,543.31,309.2Z"/><ellipse class="cls-1" cx="137.42" cy="335.29" rx="100.09" ry="14.25"/><path class="cls-2" d="M502.16,73.35C487.6,53,463.27,36.12,431.8,24.57c-29.44-10.8-63.67-16.51-99-16.51a322.36,322.36,0,0,0-35.7,2V231.11h0c9,.77,18.2,1.16,27.34,1.16h0a314.12,314.12,0,0,0,70.62-7.91c29-6.7,55-17.5,75.15-31.23,20.74-14.14,35.37-31.43,42.31-50C521.3,119.74,517.61,95,502.16,73.35Z"/><path class="cls-3" d="M262.18,16c-25.05,5.78-47.25,14.33-66,25.4-15.69,9.29-28.34,20-37.72,31.85a272.26,272.26,0,0,0-51.17,6.7c-25.37,5.86-48.1,15.31-65.71,27.33-18.32,12.49-31.26,27.81-37.43,44.29-7.84,21-4.55,43.15,9.26,62.47,12.85,18,34.25,32.83,61.88,43,25.69,9.43,55.54,14.41,86.33,14.41a274.09,274.09,0,0,0,61.55-6.89c29.84-6.89,55.21-18.37,73.92-33.39V10A304.57,304.57,0,0,0,262.18,16"/><path class="cls-4" d="M161.64,261.32c-30.79,0-60.64-4.95-86.33-14.3-27.63-10.06-49-24.81-61.88-42.65-13.81-19.17-17.1-41.19-9.26-62C10.34,126,23.28,110.83,41.6,98.43,59.21,86.5,81.94,77.12,107.31,71.31a273.89,273.89,0,0,1,51.17-6.64c9.38-11.8,22-22.4,37.72-31.61,18.73-11,40.93-19.47,66-25.21A316.52,316.52,0,0,1,332.81,0c35.32,0,69.55,5.67,99,16.38,31.47,11.46,55.8,28.2,70.36,48.41,15.45,21.45,19.14,46,10.38,69.26-6.94,18.41-21.57,35.56-42.31,49.6-20.12,13.62-46.11,24.34-75.15,31a316.43,316.43,0,0,1-70.62,7.85h0c-9.14,0-18.31-.39-27.34-1.16-18.71,14.91-44.09,26.31-73.93,33.15a275.82,275.82,0,0,1-61.55,6.84"/><path class="cls-3" d="M111.06,83.65C34.74,101.13-2.88,149,27.05,190.53,50.2,222.66,107,241.6,166.82,240.44V77.25a259.55,259.55,0,0,0-55.76,6.4"/><path class="cls-2" d="M488.54,70.58C453.91,22.51,354.25,0,265.93,20.18c-47.83,11-82.52,32.23-98.77,57.06h-.34V240.44a258.47,258.47,0,0,0,52.62-6.36c31.21-7.15,55.93-19.37,72.23-34.17a304.91,304.91,0,0,0,99.66-5.66C479.64,174,523.16,118.64,488.54,70.58Z"/><path class="cls-5" d="M219.44,234.08c31.21-7.15,55.93-19.37,72.23-34.17a304.91,304.91,0,0,0,99.66-5.66c64.29-14.73,104.83-48.09,108.78-83.68C499,101,495.27,91.34,488.54,82,453.91,33.93,354.25,11.36,265.93,31.6c-47.83,11-82.52,32.23-98.77,57.06a260.13,260.13,0,0,0-56.1,6.4C56,107.69,21,136.15,17.14,166.63a52.29,52.29,0,0,0,9.91,23.9c29.93,41.54,116.07,61,192.39,43.55"/><path class="cls-6" d="M111.06,128a258.88,258.88,0,0,1,56.1-6.4c16.25-24.84,50.94-46.1,98.77-57.06,88.32-20.24,188,2.32,222.61,50.39a68.61,68.61,0,0,1,7.06,12.19,56.72,56.72,0,0,0,4.51-16.52C499,101,495.27,91.34,488.54,82,453.91,33.93,354.25,11.36,265.93,31.6c-47.83,11-82.52,32.23-98.77,57.06a260.13,260.13,0,0,0-56.1,6.4C56,107.69,21,136.15,17.14,166.63A48.61,48.61,0,0,0,22.39,183c12.2-23.87,43.72-44.71,88.67-55"/><path class="cls-7" d="M219.44,234.08c31.21-7.15,55.93-19.37,72.23-34.17a304.91,304.91,0,0,0,99.66-5.66c54.2-12.42,91.53-38.08,104.27-67.16a68.61,68.61,0,0,0-7.06-12.19C453.91,66.83,354.25,44.27,265.93,64.51c-47.83,11-82.52,32.22-98.77,57.06a258.88,258.88,0,0,0-56.1,6.4c-44.95,10.3-76.47,31.14-88.67,55a60,60,0,0,0,4.66,7.55c29.93,41.54,116.07,61,192.39,43.55"/><path class="cls-8" d="M226.25,178.36a5.58,5.58,0,0,0,5.21,1.39,4.26,4.26,0,0,0,3.52-3.4,5.57,5.57,0,0,0,5.21,1.4,4.26,4.26,0,0,0,3.51-3.4,5.58,5.58,0,0,0,5.21,1.4,4.25,4.25,0,0,0,3.51-3.4,5.59,5.59,0,0,0,5.22,1.39,4.26,4.26,0,0,0,3.51-3.4"/><path class="cls-8" d="M159.54,160.81a5.57,5.57,0,0,0,5.21,1.4,4.25,4.25,0,0,0,3.51-3.4,5.58,5.58,0,0,0,5.21,1.39,4.24,4.24,0,0,0,3.51-3.4,5.57,5.57,0,0,0,5.22,1.4,4.25,4.25,0,0,0,3.51-3.4,5.58,5.58,0,0,0,5.21,1.4,4.25,4.25,0,0,0,3.51-3.4"/><path class="cls-8" d="M159.54,208.27a5.56,5.56,0,0,0,5.21,1.39,4.24,4.24,0,0,0,3.51-3.4,5.56,5.56,0,0,0,5.21,1.4,4.25,4.25,0,0,0,3.51-3.4,5.59,5.59,0,0,0,5.22,1.4,4.26,4.26,0,0,0,3.51-3.4,5.55,5.55,0,0,0,5.21,1.39,4.24,4.24,0,0,0,3.51-3.39"/><path class="cls-8" d="M177.74,127.35a5.56,5.56,0,0,0,5.21,1.39,4.25,4.25,0,0,0,3.51-3.4,5.56,5.56,0,0,0,5.21,1.4,4.25,4.25,0,0,0,3.51-3.4,5.59,5.59,0,0,0,5.22,1.4,4.27,4.27,0,0,0,3.51-3.4,5.57,5.57,0,0,0,5.21,1.39,4.24,4.24,0,0,0,3.51-3.4"/><path class="cls-8" d="M224.21,134.59a5.56,5.56,0,0,0,5.21,1.4,4.24,4.24,0,0,0,3.51-3.4,5.59,5.59,0,0,0,5.22,1.4,4.27,4.27,0,0,0,3.51-3.4,5.57,5.57,0,0,0,5.21,1.4,4.26,4.26,0,0,0,3.51-3.4,5.58,5.58,0,0,0,5.21,1.39,4.24,4.24,0,0,0,3.51-3.4"/><path class="cls-8" d="M90.67,208.27a5.58,5.58,0,0,0,5.21,1.39,4.26,4.26,0,0,0,3.52-3.4,5.54,5.54,0,0,0,5.21,1.4,4.26,4.26,0,0,0,3.51-3.4,5.58,5.58,0,0,0,5.21,1.4,4.25,4.25,0,0,0,3.51-3.4,5.59,5.59,0,0,0,5.22,1.39,4.26,4.26,0,0,0,3.51-3.39"/><path class="cls-8" d="M254.93,153a5.58,5.58,0,0,0,5.21,1.4,4.25,4.25,0,0,0,3.51-3.4,5.59,5.59,0,0,0,5.22,1.39,4.25,4.25,0,0,0,3.51-3.4,5.56,5.56,0,0,0,5.21,1.4,4.25,4.25,0,0,0,3.51-3.4"/><path class="cls-8" d="M101.79,179.83a5.57,5.57,0,0,0,5.22,1.39,4.24,4.24,0,0,0,3.51-3.39,5.57,5.57,0,0,0,5.21,1.39,4.24,4.24,0,0,0,3.51-3.4,5.56,5.56,0,0,0,5.21,1.4,4.25,4.25,0,0,0,3.51-3.4"/><path class="cls-8" d="M308.84,173.58a5.56,5.56,0,0,0,5.21,1.39,4.25,4.25,0,0,0,3.51-3.4,5.56,5.56,0,0,0,5.21,1.4,4.25,4.25,0,0,0,3.51-3.4,5.59,5.59,0,0,0,5.22,1.4,4.27,4.27,0,0,0,3.51-3.4"/><path class="cls-9" d="M482.25,245.39c-45.28.07-81.93,16.77-81.93,37.37s36.65,37.32,81.93,37.38,81.94-16.77,81.94-37.38S527.53,245.46,482.25,245.39Z"/><path class="cls-10" d="M482.25,251.63c-37.72,0-68.26,12.47-68.26,27.8s30.54,27.76,68.26,27.81,68.27-12.48,68.27-27.81S520,251.67,482.25,251.63Z"/><path class="cls-11" d="M482.25,307.78l-.07-.54v-.55h.07c1.07,0,2.15,0,3.21,0l0,1.09C484.4,307.77,483.33,307.78,482.25,307.78Zm-3.36,0c-1.11,0-2.21-.06-3.3-.11l.05-1.08,3.27.1Zm9.88-.1,0-1.09c1.09,0,2.19-.09,3.27-.16l.06,1.09C491,307.55,489.88,307.61,488.77,307.65Zm-16.47-.17c-1.11-.07-2.2-.14-3.28-.23l.08-1.09q1.62.13,3.27.24Zm23.05-.22-.08-1.09c1.09-.08,2.18-.18,3.26-.29l.11,1.08C497.55,307.07,496.46,307.17,495.35,307.26ZM465.73,307c-1.1-.11-2.19-.24-3.28-.37l.14-1.08c1.07.13,2.16.25,3.25.36Zm36.18-.35-.13-1.08c1.09-.13,2.17-.28,3.24-.43l.16,1.07C504.11,306.32,503,306.47,501.91,306.6Zm-42.72-.46c-1.1-.16-2.18-.33-3.25-.51l.17-1.08c1.07.19,2.15.36,3.24.52Zm49.24-.49-.17-1.07c1.08-.19,2.16-.38,3.21-.59l.21,1.07C510.62,305.27,509.53,305.46,508.43,305.65ZM452.69,305c-1.1-.21-2.17-.44-3.24-.67l.24-1.06c1.05.23,2.13.45,3.21.66Zm62.22-.64-.24-1.06c1.09-.25,2.15-.5,3.19-.76l.26,1.06C517.07,303.9,516,304.15,514.91,304.39Zm-68.66-.79c-1.08-.27-2.15-.57-3.19-.86l.3-1.05c1,.3,2.08.58,3.15.85Zm75.06-.82-.29-1c1.06-.3,2.11-.61,3.13-.94l.33,1C523.44,302.16,522.39,302.48,521.31,302.78Zm-81.41-1c-1.07-.33-2.12-.69-3.13-1.06l.37-1q1.5.54,3.09,1.05Zm87.7-1-.36-1c1-.37,2.06-.76,3-1.16l.41,1C529.69,300,528.66,300.38,527.6,300.77Zm-93.92-1.24c-1-.41-2.05-.86-3-1.32l.45-1c1,.45,2,.88,3,1.3Zm100.05-1.26-.46-1c1-.47,2-.95,2.92-1.45l.51,1C535.76,297.3,534.75,297.79,533.73,298.27Zm-106-1.54c-1-.53-2-1.08-2.88-1.65l.58-.93c.88.56,1.84,1.11,2.81,1.62Zm111.9-1.57-.57-.93c1-.59,1.86-1.19,2.69-1.81l.64.87C541.48,293.92,540.55,294.55,539.58,295.16Zm-117.53-2a31.71,31.71,0,0,1-2.58-2.11l.73-.81a31.3,31.3,0,0,0,2.49,2Zm122.88-2-.73-.81a22.74,22.74,0,0,0,2.23-2.29l.84.7A26.27,26.27,0,0,1,544.93,291.19Zm-127.78-2.51a17.11,17.11,0,0,1-1.92-2.78l.94-.53A17,17,0,0,0,418,288ZM549.21,286l-1-.54a13.59,13.59,0,0,0,1.25-2.88l1,.3A14.88,14.88,0,0,1,549.21,286Zm-135.3-3.26a12.3,12.3,0,0,1-.47-3.34l1.09,0v0a11,11,0,0,0,.43,3.05Zm137.15-3.23h-.54l-.55-.1a10.94,10.94,0,0,0-.41-3l1.05-.28a12.22,12.22,0,0,1,.45,3.27ZM415,276.32l-1-.3a14.56,14.56,0,0,1,1.33-3.13l.95.54A13.4,13.4,0,0,0,415,276.32Zm133.39-2.77a17.51,17.51,0,0,0-1.8-2.62l.84-.69a18.39,18.39,0,0,1,1.91,2.78ZM418,270.83l-.84-.69a23.87,23.87,0,0,1,2.33-2.42l.73.81A25,25,0,0,0,418,270.83Zm126.32-2.21c-.76-.7-1.59-1.38-2.49-2.06l.65-.87a31.46,31.46,0,0,1,2.58,2.13Zm-121.6-2.13-.64-.88c.85-.63,1.77-1.26,2.75-1.86l.57.92C424.48,265.26,423.58,265.87,422.75,266.49Zm116.43-1.75c-.88-.55-1.83-1.09-2.81-1.62l.51-1c1,.54,2,1.1,2.88,1.67Zm-110.93-1.69-.51-.95c.95-.51,1.94-1,3-1.48l.46,1C430.16,262.08,429.18,262.57,428.25,263.05Zm105.21-1.38c-1-.45-2-.89-3-1.31l.41-1c1,.42,2,.86,3,1.32Zm-99.31-1.36-.41-1c1-.42,2-.8,3.09-1.19l.38,1Q435.64,259.71,434.15,260.31Zm93.28-1.12c-1-.36-2-.72-3.09-1.05l.34-1c1.06.34,2.1.7,3.12,1.07Zm-87.14-1.09-.34-1c1-.33,2.1-.65,3.17-1l.3,1.06C442.36,257.46,441.31,257.77,440.29,258.1Zm80.92-.91c-1-.3-2.08-.58-3.16-.85l.27-1.06c1.09.28,2.15.56,3.19.86Zm-74.63-.89-.27-1.05c1.06-.26,2.12-.52,3.21-.75l.24,1.06C448.68,255.79,447.62,256,446.58,256.3Zm68.29-.71c-1-.24-2.11-.47-3.2-.68l.21-1.06c1.09.21,2.17.43,3.23.67ZM453,254.88l-.21-1.06c1.07-.21,2.15-.41,3.25-.59l.18,1.07C455.09,254.48,454,254.68,453,254.88Zm55.49-.55c-1.06-.19-2.14-.36-3.23-.52l.16-1.08c1.1.16,2.18.34,3.26.52Zm-49-.54-.16-1.08c1.08-.16,2.17-.3,3.27-.44l.14,1.09C461.56,253.49,460.48,253.63,459.41,253.79Zm42.57-.42c-1.07-.13-2.16-.26-3.25-.37l.11-1.08c1.1.11,2.19.23,3.27.37ZM465.91,253l-.11-1.08c1.08-.11,2.18-.21,3.28-.3l.09,1.08C468.07,252.78,467,252.88,465.91,253Zm29.56-.28q-1.62-.14-3.27-.24l.06-1.08c1.12.07,2.21.14,3.29.23Zm-23-.24-.07-1.09c1.09-.06,2.18-.12,3.29-.16l0,1.09C474.6,252.35,473.52,252.4,472.44,252.47Zm16.49-.16c-1.09,0-2.18-.08-3.27-.1l0-1.09c1.11,0,2.21.06,3.3.1Zm-9.95-.1,0-1.09c1.1,0,2.2,0,3.3,0h.14v1.08h-.14C481.15,252.17,480.06,252.18,479,252.21Z"/><path class="cls-11" d="M492,272.15c-.19-3.37-3.53-5.24-7.43-5.24-1.61,0-3.84.8-3.82,2.36,0,4.75,22.67,3.62,23.87,15.1.87,8.26-8,11.36-15.43,11.36-.76,0-1.51-.05-2.2-.11l.11,3.64H483l-.08-4.48a16.15,16.15,0,0,1-6.83-4.11l-.74,4.22H464.44l.76-13.31h11c0,4.28,5,5,7.58,5.11,2.12,0,5.13-.42,5-2.58-.16-3.92-22.88-2.28-22.24-14.43.35-6.5,8.07-9.33,13.37-9.33.81,0,1.63,0,2.44.12l-.05-3h3.41l.12,3.67a10.23,10.23,0,0,1,5.63,3.58l.33-3.58h9.34l1.11,11Z"/><path class="cls-12" d="M549.26,300.34a82.58,82.58,0,0,1-14.93,7,124.89,124.89,0,0,1-14.93,4.33c-4.74,1.07-9.73,2-14.93,2.61q-7.23.9-14.93,1.22c-2.4.09-4.83.15-7.29.15s-5.13-.06-7.64-.16c-5.12-.22-10.11-.64-14.93-1.26-5.2-.66-10.19-1.56-14.93-2.64a124.77,124.77,0,0,1-14.93-4.38,80.9,80.9,0,0,1-14.92-7.13c-7.38-4.6-12.49-10-14.58-15.81v20c2.38,5.46,7.46,10.56,14.58,15a84.93,84.93,0,0,0,14.92,7.21,122,122,0,0,0,14.93,4.5c4.75,1.13,9.73,2.06,14.93,2.76,4.82.64,9.81,1.1,14.93,1.32q3.78.18,7.64.18c2.45,0,4.88-.06,7.29-.16,5.12-.22,10.11-.66,14.93-1.3a150.1,150.1,0,0,0,14.93-2.71,123.85,123.85,0,0,0,14.93-4.47,84.62,84.62,0,0,0,14.93-7.12c7.29-4.49,12.5-9.67,14.93-15.22v-20C562.06,290.24,556.82,295.69,549.26,300.34Z"/><path class="cls-9" d="M474.25,204c-45.28.06-81.93,16.78-81.93,37.38s36.65,37.31,81.93,37.37,81.94-12.52,81.94-37.37C556.19,220.78,519.53,204.06,474.25,204Z"/><path class="cls-10" d="M474.25,209.5C436.53,209.55,406,222,406,237.31s30.54,27.76,68.26,27.8,68.27-12.47,68.27-27.8S512,209.55,474.25,209.5Z"/><path class="cls-11" d="M474.25,265.66l-.07-.55v-.54h.07c1.07,0,2.15,0,3.21,0l0,1.08C476.4,265.65,475.33,265.66,474.25,265.66Zm-3.36,0c-1.11,0-2.21-.06-3.3-.1l.05-1.09c1.08.05,2.17.08,3.27.1Zm9.88-.09,0-1.09c1.09,0,2.19-.1,3.27-.16l.06,1.08C483,265.43,481.88,265.48,480.77,265.53Zm-16.47-.17-3.28-.23.08-1.09,3.27.23Zm23.05-.22-.08-1.09c1.09-.09,2.18-.18,3.26-.29l.11,1.08C489.55,265,488.46,265.05,487.35,265.14Zm-29.62-.31-3.28-.37.14-1.08c1.07.13,2.16.25,3.25.36Zm36.18-.35-.13-1.09c1.09-.13,2.17-.27,3.24-.43l.16,1.08C496.11,264.2,495,264.34,493.91,264.48ZM451.19,264c-1.1-.16-2.18-.34-3.25-.52l.17-1.07c1.07.18,2.15.36,3.24.51Zm49.24-.5-.17-1.06c1.08-.19,2.16-.38,3.21-.59l.21,1.07C502.62,263.14,501.53,263.34,500.43,263.52Zm-55.74-.61-3.24-.67.24-1.07c1.05.24,2.13.46,3.21.67Zm62.22-.64-.24-1.07c1.09-.24,2.15-.49,3.19-.75l.26,1.06C509.07,261.77,508,262,506.91,262.27Zm-68.66-.8c-1.08-.27-2.15-.56-3.19-.85l.3-1.05c1,.29,2.08.58,3.15.85Zm75.06-.81-.29-1.05c1.06-.3,2.11-.62,3.13-.94l.33,1C515.44,260,514.39,260.35,513.31,260.66Zm-81.41-1c-1.07-.34-2.12-.7-3.13-1.06l.37-1c1,.36,2,.72,3.09,1.05Zm87.7-1-.36-1c1-.37,2.06-.76,3-1.17l.41,1C521.69,257.87,520.66,258.26,519.6,258.64Zm-93.92-1.23c-1-.42-2.05-.86-3-1.32l.45-1c1,.45,2,.89,3,1.3Zm100.05-1.27-.46-1c1-.47,2-.95,2.92-1.45l.51,1C527.76,255.17,526.75,255.67,525.73,256.14Zm-106-1.52c-1-.54-2-1.1-2.88-1.66l.58-.93c.88.56,1.84,1.1,2.81,1.62ZM531.58,253l-.57-.93c1-.59,1.86-1.19,2.69-1.8l.64.88C533.48,251.8,532.55,252.43,531.58,253Zm-117.53-1.94a29.8,29.8,0,0,1-2.58-2.12l.73-.8a31.3,31.3,0,0,0,2.49,2.05Zm122.88-2-.73-.8a22.8,22.8,0,0,0,2.23-2.3l.84.7A26.27,26.27,0,0,1,536.93,249.06Zm-127.78-2.5a17.56,17.56,0,0,1-1.92-2.78l.94-.53a17.52,17.52,0,0,0,1.81,2.61Zm132.06-2.66-1-.54a13.37,13.37,0,0,0,1.25-2.88l1,.31A15,15,0,0,1,541.21,243.9Zm-135.3-3.25a12.3,12.3,0,0,1-.47-3.34l1.09,0v0a10.89,10.89,0,0,0,.43,3Zm137.15-3.23-1.09,0h.55l-.55-.1a10.94,10.94,0,0,0-.41-3l1.05-.29a12.24,12.24,0,0,1,.45,3.28ZM407,234.2l-1-.3a14.35,14.35,0,0,1,1.33-3.13l.95.54A13.4,13.4,0,0,0,407,234.2Zm133.39-2.78a18,18,0,0,0-1.8-2.61l.84-.69a18.39,18.39,0,0,1,1.91,2.78ZM410,228.71l-.84-.7a23.8,23.8,0,0,1,2.33-2.41l.73.8A25.09,25.09,0,0,0,410,228.71Zm126.32-2.22c-.76-.69-1.59-1.38-2.49-2.05l.65-.88c.93.7,1.8,1.42,2.58,2.13Zm-121.6-2.13-.64-.88c.85-.62,1.77-1.25,2.75-1.86l.57.93C416.48,223.14,415.58,223.75,414.75,224.36Zm116.43-1.74c-.88-.55-1.83-1.1-2.81-1.62l.51-1c1,.54,2,1.1,2.88,1.66Zm-110.93-1.68-.51-1c.95-.49,1.94-1,3-1.47l.46,1C422.16,220,421.18,220.44,420.25,220.94Zm105.21-1.39c-1-.46-2-.9-3-1.31l.41-1c1,.43,2,.87,3,1.33Zm-99.31-1.36-.41-1c1-.4,2-.8,3.09-1.18l.38,1C428.16,217.39,427.14,217.79,426.15,218.19Zm93.28-1.12c-1-.37-2-.72-3.09-1.06l.34-1c1.06.34,2.1.69,3.12,1.07ZM432.29,216l-.34-1c1-.34,2.1-.65,3.17-1l.3,1.05C434.36,215.33,433.31,215.65,432.29,216Zm80.92-.9c-1-.3-2.08-.58-3.16-.86l.27-1.05c1.09.27,2.15.56,3.19.86Zm-74.63-.89-.27-1.05c1.06-.27,2.12-.52,3.21-.76l.24,1.06C440.68,213.67,439.62,213.93,438.58,214.18Zm68.29-.72c-1.05-.23-2.11-.46-3.2-.68l.21-1.06c1.09.22,2.17.44,3.23.68Zm-61.91-.7-.21-1.07,3.25-.59.18,1.08C447.09,212.36,446,212.56,445,212.76Zm55.49-.56c-1.06-.18-2.14-.35-3.23-.51l.16-1.08c1.1.16,2.18.33,3.26.52Zm-49-.53-.16-1.08c1.08-.16,2.17-.3,3.27-.44l.14,1.08C453.56,211.37,452.48,211.51,451.41,211.67Zm42.57-.42c-1.07-.13-2.16-.26-3.25-.37l.11-1.08c1.1.11,2.19.23,3.27.37Zm-36.07-.38-.11-1.09c1.08-.11,2.18-.2,3.28-.3l.09,1.09C460.07,210.66,459,210.76,457.91,210.87Zm29.56-.29c-1.08-.09-2.17-.17-3.27-.23l.06-1.09c1.12.07,2.21.15,3.29.24Zm-23-.23-.07-1.09c1.09-.07,2.18-.12,3.29-.16l0,1.08C466.6,210.22,465.52,210.28,464.44,210.35Zm16.49-.16c-1.09-.05-2.18-.08-3.27-.11l0-1.08c1.11,0,2.21.05,3.3.1Zm-9.95-.11,0-1.09q1.65,0,3.3,0h.14v1.09h-.14Q472.6,210.05,471,210.08Z"/><path class="cls-11" d="M484,226.35c-.19-3.38-3.53-5.25-7.43-5.25-1.61,0-3.84.8-3.82,2.37,0,4.75,22.67,3.62,23.87,15.09.87,8.26-8,11.37-15.43,11.37-.76,0-1.51-.06-2.2-.11l.11,3.63H475L475,249a16,16,0,0,1-6.83-4.11l-.74,4.22H456.44l.76-13.31h11c0,4.28,5,5,7.58,5.11,2.12,0,5.13-.42,5-2.58-.16-3.92-22.88-2.28-22.24-14.43.35-6.51,8.07-9.33,13.37-9.33.81,0,1.63,0,2.44.12l-.05-3h3.41l.12,3.66a10.24,10.24,0,0,1,5.63,3.59l.33-3.59h9.34l1.11,11.06Z"/><path class="cls-12" d="M549.26,276.16a83.26,83.26,0,0,1-14.93,7,124.89,124.89,0,0,1-14.93,4.33c-4.74,1.07-9.73,2-14.93,2.61-4.82.6-9.8,1-14.93,1.22q-3.6.15-7.29.16-3.87,0-7.64-.17c-5.12-.22-10.11-.65-14.93-1.26-5.2-.66-10.19-1.56-14.93-2.64a123,123,0,0,1-14.93-4.38,80.9,80.9,0,0,1-14.92-7.13c-7.38-4.6-12.49-10-14.58-15.81v20c2.38,5.45,7.46,10.56,14.58,15a84.23,84.23,0,0,0,14.92,7.21,123.8,123.8,0,0,0,14.93,4.5c4.75,1.13,9.73,2.06,14.93,2.76,4.82.65,9.81,1.09,14.93,1.33q3.78.17,7.64.17c2.45,0,4.88-.06,7.29-.16,5.12-.22,10.11-.65,14.93-1.3,5.19-.68,10.18-1.6,14.93-2.71a125.71,125.71,0,0,0,14.93-4.46,84.63,84.63,0,0,0,14.93-7.13c7.29-4.49,12.5-9.67,14.93-15.21V259.88C562.06,265.8,556.82,271.51,549.26,276.16Z"/><path class="cls-9" d="M482.25,198.51c-45.28.06-81.93,16.77-81.93,37.37s36.65,37.31,81.93,37.38,81.94-16.78,81.94-37.38S527.53,198.57,482.25,198.51Z"/><path class="cls-10" d="M482.25,204.74c-37.72,0-68.26,12.48-68.26,27.81s30.54,27.76,68.26,27.81,68.27-12.49,68.27-27.81S520,204.79,482.25,204.74Z"/><path class="cls-11" d="M482.25,260.9l-.07-.54v-.55h.07c1.07,0,2.15,0,3.21,0l0,1.09C484.4,260.89,483.33,260.9,482.25,260.9Zm-3.36,0c-1.11,0-2.21-.06-3.3-.09l.05-1.1c1.08.05,2.17.08,3.27.1Zm9.88-.09,0-1.09c1.09,0,2.19-.1,3.27-.16l.06,1.08C491,260.67,489.88,260.72,488.77,260.77Zm-16.47-.17c-1.11-.07-2.2-.15-3.28-.24l.08-1.08,3.27.23Zm23.05-.23-.08-1.08,3.26-.29.11,1.08C497.55,260.18,496.46,260.29,495.35,260.37Zm-29.62-.31c-1.1-.11-2.19-.23-3.28-.36l.14-1.08c1.07.12,2.16.25,3.25.36Zm36.18-.35-.13-1.08c1.09-.13,2.17-.28,3.24-.43l.16,1.08C504.11,259.44,503,259.58,501.91,259.71Zm-42.72-.45c-1.1-.16-2.18-.34-3.25-.52l.17-1.07q1.61.27,3.24.51Zm49.24-.5-.17-1.07c1.08-.18,2.16-.38,3.21-.59l.21,1.08C510.62,258.38,509.53,258.58,508.43,258.76Zm-55.74-.61c-1.1-.21-2.17-.44-3.24-.68l.24-1.06c1.05.23,2.13.46,3.21.67Zm62.22-.65-.24-1.06c1.09-.24,2.15-.49,3.19-.75l.26,1.05C517.07,257,516,257.27,514.91,257.5Zm-68.66-.79c-1.08-.27-2.15-.55-3.19-.85l.3-1.05c1,.29,2.08.58,3.15.85Zm75.06-.82-.29-1c1.06-.29,2.11-.61,3.13-.94l.33,1C523.44,255.27,522.39,255.59,521.31,255.89Zm-81.41-1c-1.07-.34-2.12-.7-3.13-1.06l.37-1q1.5.54,3.09,1.05Zm87.7-1-.36-1c1-.38,2.06-.77,3-1.17l.41,1C529.69,253.11,528.66,253.5,527.6,253.88Zm-93.92-1.23c-1-.42-2.05-.87-3-1.32l.45-1c1,.45,2,.89,3,1.3Zm100.05-1.26-.46-1c1-.47,2-1,2.92-1.45l.51,1C535.76,250.41,534.75,250.91,533.73,251.39Zm-106-1.54c-1-.54-2-1.09-2.88-1.66l.58-.92c.88.55,1.84,1.1,2.81,1.62Zm111.9-1.58-.57-.93c1-.58,1.86-1.19,2.69-1.81l.64.88C541.48,247,540.55,247.67,539.58,248.27Zm-117.53-1.94c-.94-.7-1.8-1.41-2.58-2.12l.73-.8a31.3,31.3,0,0,0,2.49,2.05Zm122.88-2-.73-.8a25.13,25.13,0,0,0,2.23-2.3l.84.7A26.27,26.27,0,0,1,544.93,244.3Zm-127.78-2.51a17,17,0,0,1-1.92-2.77l.94-.54A17.6,17.6,0,0,0,418,241.1Zm132.06-2.65-1-.54a13.59,13.59,0,0,0,1.25-2.88l1,.3A14.88,14.88,0,0,1,549.21,239.14Zm-135.3-3.25a12.35,12.35,0,0,1-.47-3.34l1.09,0v0a11,11,0,0,0,.43,3Zm137.15-3.23-1.09,0h.55l-.55-.1a10.94,10.94,0,0,0-.41-3l1.05-.29a12.29,12.29,0,0,1,.45,3.28ZM415,229.44l-1-.3a14.35,14.35,0,0,1,1.33-3.13l.95.54A13.4,13.4,0,0,0,415,229.44Zm133.39-2.78a17.43,17.43,0,0,0-1.8-2.61l.84-.69a17.9,17.9,0,0,1,1.91,2.78ZM418,224l-.84-.7a22.8,22.8,0,0,1,2.33-2.41l.73.8A25.09,25.09,0,0,0,418,224Zm126.32-2.22c-.76-.69-1.59-1.38-2.49-2l.65-.88c.93.7,1.8,1.41,2.58,2.13Zm-121.6-2.13-.64-.87c.85-.63,1.77-1.26,2.75-1.87l.57.93C424.48,218.38,423.58,219,422.75,219.6Zm116.43-1.74c-.88-.55-1.83-1.1-2.81-1.62l.51-1c1,.54,2,1.1,2.88,1.65Zm-110.93-1.69-.51-1c.95-.5,1.94-1,3-1.47l.46,1C430.16,215.19,429.18,215.68,428.25,216.17Zm105.21-1.38c-1-.46-2-.9-3-1.31l.41-1c1,.42,2,.87,3,1.33Zm-99.31-1.36-.41-1c1-.41,2-.8,3.09-1.18l.38,1Q435.64,212.83,434.15,213.43Zm93.28-1.13c-1-.36-2-.71-3.09-1.05l.34-1c1.06.35,2.1.7,3.12,1.07Zm-87.14-1.09-.34-1c1-.33,2.1-.65,3.17-1l.3,1.05C442.36,210.57,441.31,210.88,440.29,211.21Zm80.92-.91c-1-.29-2.08-.57-3.16-.85l.27-1c1.09.27,2.15.56,3.19.85Zm-74.63-.88-.27-1c1.06-.27,2.12-.52,3.21-.76l.24,1.06Q448.14,209,446.58,209.42Zm68.29-.72c-1-.24-2.11-.46-3.2-.67l.21-1.07c1.09.21,2.17.44,3.23.67ZM453,208l-.21-1.07c1.07-.21,2.15-.4,3.25-.59l.18,1.08C455.09,207.6,454,207.8,453,208Zm55.49-.56c-1.06-.19-2.14-.35-3.23-.52l.16-1.07c1.1.16,2.18.33,3.26.51Zm-49-.54-.16-1.07c1.08-.16,2.17-.31,3.27-.44l.14,1.08C461.56,206.6,460.48,206.75,459.41,206.9Zm42.57-.41c-1.07-.14-2.16-.26-3.25-.37l.11-1.09c1.1.12,2.19.24,3.27.38Zm-36.07-.38L465.8,205c1.08-.11,2.18-.21,3.28-.3l.09,1.09C468.07,205.9,467,206,465.91,206.11Zm29.56-.29-3.27-.23.06-1.09c1.12.07,2.21.14,3.29.23Zm-23-.24-.07-1.08c1.09-.07,2.18-.13,3.29-.17l0,1.09C474.6,205.46,473.52,205.52,472.44,205.58Zm16.49-.15c-1.09-.05-2.18-.08-3.27-.11l0-1.09c1.11,0,2.21.06,3.3.11Zm-9.95-.11,0-1.09,3.3,0h.14v1.09h-.14C481.15,205.29,480.06,205.29,479,205.32Z"/><path class="cls-11" d="M492,225.27c-.19-3.37-3.53-5.24-7.43-5.24-1.61,0-3.84.79-3.82,2.36,0,4.74,22.67,3.62,23.87,15.09.87,8.26-8,11.37-15.43,11.37-.76,0-1.51-.06-2.2-.11l.11,3.63H483l-.08-4.48a16.14,16.14,0,0,1-6.83-4.1l-.74,4.21H464.44l.76-13.3h11c0,4.28,5,5,7.58,5.11,2.12,0,5.13-.42,5-2.59C488.68,233.3,466,235,466.6,222.8c.35-6.51,8.07-9.34,13.37-9.34a22.16,22.16,0,0,1,2.44.13l-.05-3h3.41l.12,3.67a10.22,10.22,0,0,1,5.63,3.57l.33-3.57h9.34l1.11,11.05Z"/><path class="cls-12" d="M549.26,253.45a81.91,81.91,0,0,1-14.93,7,121.28,121.28,0,0,1-14.93,4.33c-4.74,1.08-9.73,2-14.93,2.61q-7.23.92-14.93,1.23-3.6.13-7.29.15c-2.58,0-5.13-.06-7.64-.17-5.12-.22-10.11-.64-14.93-1.26-5.2-.66-10.19-1.55-14.93-2.64a123,123,0,0,1-14.93-4.38,80.9,80.9,0,0,1-14.92-7.13c-7.38-4.6-12.49-10-14.58-15.81v20c2.38,5.46,7.46,10.57,14.58,15a84.23,84.23,0,0,0,14.92,7.21,123.78,123.78,0,0,0,14.93,4.51q7.13,1.69,14.93,2.75c4.82.65,9.81,1.1,14.93,1.33q3.78.16,7.64.17,3.67,0,7.29-.16c5.12-.22,10.11-.65,14.93-1.29a150.06,150.06,0,0,0,14.93-2.72,123.89,123.89,0,0,0,14.93-4.45,86.06,86.06,0,0,0,14.93-7.13c7.29-4.49,12.5-9.68,14.93-15.23v-20C562.06,243.35,556.82,248.8,549.26,253.45Z"/><path class="cls-9" d="M482.25,179.48c-45.28.07-81.93,16.77-81.93,37.38s36.65,37.31,81.93,37.36,81.94-16.76,81.94-37.36S527.53,179.55,482.25,179.48Z"/><path class="cls-10" d="M482.25,185.71c-37.72,0-68.26,12.48-68.26,27.81s30.54,27.76,68.26,27.81,68.27-12.48,68.27-27.81S520,185.76,482.25,185.71Z"/><path class="cls-11" d="M482.25,241.87l-.07-.54v-.54h.07l3.21,0,0,1.09C484.4,241.86,483.33,241.87,482.25,241.87Zm-3.36,0c-1.11,0-2.21-.06-3.3-.11l.05-1.08c1.08,0,2.17.08,3.27.1Zm9.88-.1,0-1.09c1.09,0,2.19-.1,3.27-.16l.06,1.09Zm-16.47-.17-3.28-.23.08-1.09c1.08.09,2.17.16,3.27.23Zm23.05-.22-.08-1.08c1.09-.1,2.18-.19,3.26-.3l.11,1.08C497.55,241.16,496.46,241.26,495.35,241.35ZM465.73,241c-1.1-.11-2.19-.24-3.28-.37l.14-1.08,3.25.37Zm36.18-.35-.13-1.08c1.09-.14,2.17-.28,3.24-.44l.16,1.08C504.11,240.41,503,240.55,501.91,240.69Zm-42.72-.46c-1.1-.16-2.18-.33-3.25-.52l.17-1.07c1.07.19,2.15.35,3.24.52Zm49.24-.49-.17-1.08c1.08-.18,2.16-.38,3.21-.58l.21,1.07C510.62,239.36,509.53,239.55,508.43,239.74Zm-55.74-.62c-1.1-.21-2.17-.43-3.24-.67l.24-1.07c1.05.24,2.13.47,3.21.68Zm62.22-.64-.24-1.06c1.09-.24,2.15-.5,3.19-.76l.26,1.06C517.07,238,516,238.24,514.91,238.48Zm-68.66-.8c-1.08-.27-2.15-.55-3.19-.85l.3-1.05c1,.3,2.08.58,3.15.85Zm75.06-.81-.29-1.05c1.06-.3,2.11-.62,3.13-.94l.33,1C523.44,236.24,522.39,236.56,521.31,236.87Zm-81.41-1c-1.07-.34-2.12-.69-3.13-1.06l.37-1c1,.36,2,.72,3.09,1.06Zm87.7-1-.36-1c1-.38,2.06-.76,3-1.17l.41,1C529.69,234.08,528.66,234.48,527.6,234.86Zm-93.92-1.23c-1-.43-2.05-.87-3-1.33l.45-1c1,.44,2,.88,3,1.3Zm100.05-1.27-.46-1c1-.46,2-1,2.92-1.44l.51,1C535.76,231.39,534.75,231.89,533.73,232.36Zm-106-1.54c-1-.53-2-1.08-2.88-1.66l.58-.92c.88.55,1.84,1.1,2.81,1.62Zm111.9-1.58-.57-.92c1-.59,1.86-1.2,2.69-1.81l.64.88C541.48,228,540.55,228.64,539.58,229.24ZM422.05,227.3a31.71,31.71,0,0,1-2.58-2.11l.73-.81a31.3,31.3,0,0,0,2.49,2.05Zm122.88-2-.73-.81a22.8,22.8,0,0,0,2.23-2.3l.84.7A25.12,25.12,0,0,1,544.93,225.28Zm-127.78-2.51a17.49,17.49,0,0,1-1.92-2.77l.94-.53a17.45,17.45,0,0,0,1.81,2.6Zm132.06-2.66-1-.53a13.44,13.44,0,0,0,1.25-2.89l1,.31A14.58,14.58,0,0,1,549.21,220.11Zm-135.3-3.25a12.25,12.25,0,0,1-.47-3.34l1.09,0v0a11,11,0,0,0,.43,3Zm137.15-3.23-1.09,0h.55l-.55-.1a10.87,10.87,0,0,0-.41-3l1.05-.29a12.11,12.11,0,0,1,.45,3.27ZM415,210.41l-1-.3a14.28,14.28,0,0,1,1.33-3.12l.95.53A13.4,13.4,0,0,0,415,210.41Zm133.39-2.77a17.51,17.51,0,0,0-1.8-2.62l.84-.69a18.39,18.39,0,0,1,1.91,2.78ZM418,204.92l-.84-.7a24.9,24.9,0,0,1,2.33-2.41l.73.8A25.09,25.09,0,0,0,418,204.92Zm126.32-2.21a31,31,0,0,0-2.49-2.06l.65-.87c.93.69,1.8,1.41,2.58,2.12Zm-121.6-2.14-.64-.87c.85-.63,1.77-1.26,2.75-1.86l.57.92C424.48,199.35,423.58,200,422.75,200.57Zm116.43-1.74c-.88-.55-1.83-1.09-2.81-1.62l.51-1c1,.54,2,1.1,2.88,1.66Zm-110.93-1.68-.51-1c.95-.51,1.94-1,3-1.48l.46,1C430.16,196.17,429.18,196.65,428.25,197.15Zm105.21-1.39c-1-.45-2-.89-3-1.3l.41-1c1,.42,2,.86,3,1.32Zm-99.31-1.36-.41-1c1-.4,2-.8,3.09-1.18l.38,1C436.16,193.61,435.14,194,434.15,194.4Zm93.28-1.12c-1-.36-2-.72-3.09-1.06l.34-1c1.06.34,2.1.7,3.12,1.06Zm-87.14-1.1-.34-1c1-.33,2.1-.65,3.17-1l.3,1.05C442.36,191.54,441.31,191.85,440.29,192.18Zm80.92-.9c-1-.3-2.08-.58-3.16-.85l.27-1.06c1.09.28,2.15.56,3.19.86Zm-74.63-.88-.27-1.06c1.06-.27,2.12-.52,3.21-.76l.24,1.06C448.68,189.88,447.62,190.13,446.58,190.4Zm68.29-.73c-1-.23-2.11-.45-3.2-.67l.21-1.06c1.09.21,2.17.43,3.23.67ZM453,189l-.21-1.08c1.07-.2,2.15-.4,3.25-.58l.18,1.07C455.09,188.58,454,188.77,453,189Zm55.49-.57c-1.06-.18-2.14-.35-3.23-.51l.16-1.08c1.1.16,2.18.34,3.26.52Zm-49-.53-.16-1.07c1.08-.17,2.17-.31,3.27-.44l.14,1.08C461.56,187.58,460.48,187.73,459.41,187.88Zm42.57-.42c-1.07-.13-2.16-.26-3.25-.37l.11-1.08c1.1.11,2.19.24,3.27.37Zm-36.07-.38L465.8,186c1.08-.12,2.18-.21,3.28-.3l.09,1.09C468.07,186.87,467,187,465.91,187.08Zm29.56-.29c-1.08-.09-2.17-.16-3.27-.22l.06-1.1c1.12.08,2.21.15,3.29.24Zm-23-.23-.07-1.09c1.09-.07,2.18-.12,3.29-.17l0,1.09C474.6,186.44,473.52,186.49,472.44,186.56Zm16.49-.16c-1.09-.05-2.18-.07-3.27-.1l0-1.09c1.11,0,2.21.06,3.3.1Zm-9.95-.11,0-1.08c1.1,0,2.2,0,3.3,0h.14v1.09h-.14Q480.6,186.26,479,186.29Z"/><path class="cls-11" d="M492,206.24c-.19-3.37-3.53-5.24-7.43-5.24-1.61,0-3.84.8-3.82,2.37,0,4.74,22.67,3.62,23.87,15.08.87,8.27-8,11.37-15.43,11.37-.76,0-1.51,0-2.2-.11l.11,3.63H483l-.08-4.47a16,16,0,0,1-6.83-4.11l-.74,4.22H464.44l.76-13.31h11c0,4.28,5,5,7.58,5.12,2.12,0,5.13-.42,5-2.59-.16-3.92-22.88-2.28-22.24-14.43.35-6.5,8.07-9.33,13.37-9.33.81,0,1.63,0,2.44.12l-.05-3h3.41l.12,3.67a10.23,10.23,0,0,1,5.63,3.58l.33-3.58h9.34l1.11,11.05Z"/><path class="cls-12" d="M549.26,230.74a82.59,82.59,0,0,1-14.93,7,124.89,124.89,0,0,1-14.93,4.33c-4.74,1.07-9.73,1.95-14.93,2.6q-7.23.92-14.93,1.23c-2.4.09-4.83.15-7.29.15s-5.13-.06-7.64-.16c-5.12-.22-10.11-.64-14.93-1.26-5.2-.67-10.19-1.56-14.93-2.64a123,123,0,0,1-14.93-4.38,82.21,82.21,0,0,1-14.92-7.13c-7.38-4.61-12.49-10-14.58-15.81v20c2.38,5.46,7.46,10.56,14.58,15a84.93,84.93,0,0,0,14.92,7.21,125.61,125.61,0,0,0,14.93,4.51c4.75,1.12,9.73,2.05,14.93,2.74,4.82.65,9.81,1.1,14.93,1.33,2.52.11,5.07.18,7.64.18s4.88-.06,7.29-.16c5.12-.22,10.11-.66,14.93-1.29,5.19-.69,10.18-1.61,14.93-2.72a125.71,125.71,0,0,0,14.93-4.46,86.06,86.06,0,0,0,14.93-7.13c7.29-4.49,12.5-9.68,14.93-15.22v-20C562.06,220.64,556.82,226.1,549.26,230.74Z"/><path class="cls-9" d="M482.25,152.36c-45.28.06-81.93,16.77-81.93,37.37S437,227,482.25,227.1s81.94-16.77,81.94-37.37S527.53,152.42,482.25,152.36Z"/><path class="cls-10" d="M482.25,158.59c-37.72,0-68.26,12.48-68.26,27.81s30.54,27.76,68.26,27.81,68.27-12.49,68.27-27.81S520,158.64,482.25,158.59Z"/><path class="cls-11" d="M482.25,214.75l-.07-.54v-.55h.07c1.07,0,2.15,0,3.21,0l0,1.09C484.4,214.74,483.33,214.75,482.25,214.75Zm-3.36,0c-1.11,0-2.21-.06-3.3-.1l.05-1.09c1.08,0,2.17.08,3.27.1Zm9.88-.09,0-1.09c1.09,0,2.19-.1,3.27-.16l.06,1.08C491,214.52,489.88,214.57,488.77,214.62Zm-16.47-.18c-1.11-.06-2.2-.14-3.28-.22l.08-1.09,3.27.23Zm23.05-.22-.08-1.08,3.26-.29.11,1.08C497.55,214,496.46,214.14,495.35,214.22Zm-29.62-.3-3.28-.37.14-1.08c1.07.13,2.16.25,3.25.36Zm36.18-.36-.13-1.08c1.09-.13,2.17-.28,3.24-.43l.16,1.07C504.11,213.28,503,213.43,501.91,213.56Zm-42.72-.45c-1.1-.16-2.18-.34-3.25-.51l.17-1.08q1.61.27,3.24.51Zm49.24-.5-.17-1.07c1.08-.18,2.16-.38,3.21-.58l.21,1.07C510.62,212.23,509.53,212.43,508.43,212.61ZM452.69,212c-1.1-.22-2.17-.44-3.24-.68l.24-1.06c1.05.24,2.13.46,3.21.67Zm62.22-.65-.24-1.06c1.09-.24,2.15-.49,3.19-.75l.26,1.05C517.07,210.86,516,211.11,514.91,211.35Zm-68.66-.79c-1.08-.27-2.15-.55-3.19-.85l.3-1.05c1,.3,2.08.58,3.15.85Zm75.06-.81L521,208.7c1.06-.3,2.11-.62,3.13-.94l.33,1C523.44,209.12,522.39,209.44,521.31,209.75Zm-81.41-1c-1.07-.34-2.12-.7-3.13-1.06l.37-1q1.5.54,3.09,1.05Zm87.7-1-.36-1c1-.38,2.06-.77,3-1.17l.41,1C529.69,207,528.66,207.35,527.6,207.73Zm-93.92-1.23c-1-.42-2.05-.86-3-1.32l.45-1c1,.44,2,.88,3,1.29Zm100.05-1.26-.46-1c1-.47,2-1,2.92-1.44l.51.95C535.76,204.27,534.75,204.76,533.73,205.24Zm-106-1.54c-1-.53-2-1.09-2.88-1.66l.58-.92c.88.55,1.84,1.1,2.81,1.62Zm111.9-1.58-.57-.93c1-.59,1.86-1.19,2.69-1.81l.64.88C541.48,200.9,540.55,201.52,539.58,202.12Zm-117.53-1.94a31.76,31.76,0,0,1-2.58-2.12l.73-.8a31.25,31.25,0,0,0,2.49,2Zm122.88-2-.73-.8a23.91,23.91,0,0,0,2.23-2.3l.84.7A26.27,26.27,0,0,1,544.93,198.15Zm-127.78-2.51a17,17,0,0,1-1.92-2.77l.94-.53A17.52,17.52,0,0,0,418,195ZM549.21,193l-1-.54a13.59,13.59,0,0,0,1.25-2.88l1,.3A14.66,14.66,0,0,1,549.21,193Zm-135.3-3.25a12.3,12.3,0,0,1-.47-3.34l1.09,0v0a10.89,10.89,0,0,0,.43,3Zm137.15-3.23-1.09,0h.55l-.55-.1a10.94,10.94,0,0,0-.41-3l1.05-.29a12.29,12.29,0,0,1,.45,3.28ZM415,183.29l-1-.3a14.35,14.35,0,0,1,1.33-3.13l.95.54A13.4,13.4,0,0,0,415,183.29Zm133.39-2.78a16.94,16.94,0,0,0-1.8-2.61l.84-.69a17.9,17.9,0,0,1,1.91,2.78ZM418,177.8l-.84-.7a24.9,24.9,0,0,1,2.33-2.41l.73.8A25.09,25.09,0,0,0,418,177.8Zm126.32-2.22c-.76-.69-1.59-1.38-2.49-2.05l.65-.87a31.4,31.4,0,0,1,2.58,2.12Zm-121.6-2.13-.64-.87c.85-.64,1.77-1.26,2.75-1.87l.57.93C424.48,172.23,423.58,172.84,422.75,173.45Zm116.43-1.74c-.88-.55-1.83-1.1-2.81-1.62l.51-1c1,.54,2,1.1,2.88,1.66ZM428.25,170l-.51-1c.95-.5,1.94-1,3-1.47l.46,1C430.16,169,429.18,169.53,428.25,170Zm105.21-1.39c-1-.44-2-.88-3-1.3l.41-1c1,.42,2,.87,3,1.33Zm-99.31-1.35-.41-1c1-.41,2-.8,3.09-1.19l.38,1Q435.64,166.68,434.15,167.28Zm93.28-1.12c-1-.37-2-.72-3.09-1.06l.34-1c1.06.33,2.1.7,3.12,1.07Zm-87.14-1.1-.34-1c1-.33,2.1-.64,3.17-1l.3,1.05C442.36,164.42,441.31,164.73,440.29,165.06Zm80.92-.91c-1-.29-2.08-.57-3.16-.84l.27-1.06c1.09.27,2.15.56,3.19.86Zm-74.63-.88-.27-1.05c1.06-.27,2.12-.52,3.21-.77l.24,1.07Q448.14,162.88,446.58,163.27Zm68.29-.72c-1-.23-2.11-.46-3.2-.67l.21-1.07c1.09.21,2.17.44,3.23.68Zm-61.91-.7-.21-1.07,3.25-.59.18,1.08C455.09,161.45,454,161.64,453,161.85Zm55.49-.56c-1.06-.18-2.14-.35-3.23-.51l.16-1.08c1.1.16,2.18.34,3.26.52Zm-49-.53-.16-1.08c1.08-.16,2.17-.31,3.27-.44l.14,1.08C461.56,160.46,460.48,160.6,459.41,160.76Zm42.57-.42c-1.07-.13-2.16-.26-3.25-.37l.11-1.08c1.1.11,2.19.23,3.27.37ZM465.91,160l-.11-1.09c1.08-.11,2.18-.21,3.28-.29l.09,1.08C468.07,159.75,467,159.85,465.91,160Zm29.56-.29-3.27-.23.06-1.09c1.12.07,2.21.15,3.29.24Zm-23-.23-.07-1.1,3.29-.16,0,1.09C474.6,159.31,473.52,159.37,472.44,159.44Zm16.49-.16c-1.09-.05-2.18-.08-3.27-.11l0-1.08c1.11,0,2.21,0,3.3.1Zm-9.95-.11,0-1.09q1.65,0,3.3,0h.14v1.09h-.14Q480.6,159.14,479,159.17Z"/><path class="cls-11" d="M492,179.12c-.19-3.37-3.53-5.24-7.43-5.24-1.61,0-3.84.8-3.82,2.36,0,4.74,22.67,3.62,23.87,15.1.87,8.25-8,11.36-15.43,11.36-.76,0-1.51-.06-2.2-.11l.11,3.63H483l-.08-4.48a16,16,0,0,1-6.83-4.1l-.74,4.22H464.44l.76-13.31h11c0,4.27,5,5,7.58,5.11,2.12,0,5.13-.42,5-2.59-.16-3.91-22.88-2.27-22.24-14.42.35-6.51,8.07-9.33,13.37-9.33.81,0,1.63,0,2.44.12l-.05-3h3.41l.12,3.67a10.18,10.18,0,0,1,5.63,3.58l.33-3.58h9.34l1.11,11.05Z"/><path class="cls-12" d="M549.26,207.3a82.59,82.59,0,0,1-14.93,7,123.08,123.08,0,0,1-14.93,4.32c-4.74,1.08-9.73,2-14.93,2.61q-7.23.91-14.93,1.22-3.6.17-7.29.16-3.87,0-7.64-.17c-5.12-.21-10.11-.64-14.93-1.26-5.2-.66-10.19-1.55-14.93-2.64a124.79,124.79,0,0,1-14.93-4.37,80.9,80.9,0,0,1-14.92-7.14c-7.38-4.6-12.49-10-14.58-15.81v20c2.38,5.45,7.46,10.56,14.58,15a84.23,84.23,0,0,0,14.92,7.21A123.77,123.77,0,0,0,444.75,238c4.75,1.12,9.73,2.05,14.93,2.74,4.82.65,9.81,1.1,14.93,1.33q3.78.16,7.64.17,3.67,0,7.29-.16c5.12-.21,10.11-.65,14.93-1.29a150.06,150.06,0,0,0,14.93-2.72,122.09,122.09,0,0,0,14.93-4.46,85.33,85.33,0,0,0,14.93-7.12c7.29-4.5,12.5-9.68,14.93-15.22v-20C562.06,197.2,556.82,202.65,549.26,207.3Z"/><path class="cls-9" d="M482.25,129.65c-45.28.06-81.93,16.77-81.93,37.37S437,204.34,482.25,204.4s81.94-16.77,81.94-37.38S527.53,129.71,482.25,129.65Z"/><path class="cls-10" d="M482.25,135.88c-37.72.05-68.26,12.48-68.26,27.81s30.54,27.76,68.26,27.81,68.27-12.48,68.27-27.81S520,135.93,482.25,135.88Z"/><path class="cls-11" d="M482.25,192l-.07-.54V191h.07c1.07,0,2.15,0,3.21,0l0,1.09C484.4,192,483.33,192,482.25,192Zm-3.36,0c-1.11,0-2.21-.05-3.3-.1l.05-1.08,3.27.1Zm9.88-.09,0-1.09c1.09,0,2.19-.1,3.27-.16l.06,1.08C491,191.81,489.88,191.86,488.77,191.91Zm-16.47-.17-3.28-.23.08-1.09c1.08.09,2.17.17,3.27.23Zm23.05-.22-.08-1.08c1.09-.1,2.18-.19,3.26-.3l.11,1.08C497.55,191.33,496.46,191.43,495.35,191.52Zm-29.62-.31c-1.1-.11-2.19-.24-3.28-.37l.14-1.08c1.07.14,2.16.25,3.25.36Zm36.18-.35-.13-1.08c1.09-.14,2.17-.28,3.24-.44l.16,1.08C504.11,190.58,503,190.72,501.91,190.86Zm-42.72-.46c-1.1-.16-2.18-.33-3.25-.51l.17-1.07c1.07.18,2.15.34,3.24.51Zm49.24-.49-.17-1.08c1.08-.18,2.16-.37,3.21-.58l.21,1.07C510.62,189.53,509.53,189.73,508.43,189.91Zm-55.74-.62c-1.1-.21-2.17-.44-3.24-.67l.24-1.07c1.05.24,2.13.47,3.21.68Zm62.22-.64-.24-1.07c1.09-.23,2.15-.49,3.19-.75l.26,1.06C517.07,188.15,516,188.41,514.91,188.65Zm-68.66-.79c-1.08-.28-2.15-.56-3.19-.86l.3-1.05c1,.29,2.08.59,3.15.85Zm75.06-.83-.29-1c1.06-.3,2.11-.61,3.13-.94l.33,1C523.44,186.42,522.39,186.73,521.31,187Zm-81.41-1c-1.07-.34-2.12-.69-3.13-1.06l.37-1c1,.37,2,.72,3.09,1.06Zm87.7-1-.36-1c1-.37,2.06-.77,3-1.17l.41,1C529.69,184.25,528.66,184.65,527.6,185Zm-93.92-1.24c-1-.42-2.05-.86-3-1.32l.45-1c1,.45,2,.88,3,1.3Zm100.05-1.26-.46-1c1-.47,2-.95,2.92-1.44l.51,1C535.76,181.56,534.75,182.06,533.73,182.53Zm-106-1.54c-1-.53-2-1.09-2.88-1.65l.58-.93c.88.56,1.84,1.1,2.81,1.62Zm111.9-1.58-.57-.92c1-.59,1.86-1.2,2.69-1.81l.64.88C541.48,178.19,540.55,178.81,539.58,179.41Zm-117.53-1.94a29.8,29.8,0,0,1-2.58-2.12l.73-.8a31.3,31.3,0,0,0,2.49,2Zm122.88-2-.73-.81a22.8,22.8,0,0,0,2.23-2.3l.84.7A26.34,26.34,0,0,1,544.93,175.45Zm-127.78-2.51a17.11,17.11,0,0,1-1.92-2.78l.94-.53a17,17,0,0,0,1.81,2.61Zm132.06-2.65-1-.54a13.44,13.44,0,0,0,1.25-2.89l1,.31A14.88,14.88,0,0,1,549.21,170.29ZM413.91,167a12.3,12.3,0,0,1-.47-3.34l1.09,0v0a11,11,0,0,0,.43,3.05Zm137.15-3.23h-.54l-.55-.1a10.87,10.87,0,0,0-.41-3l1.05-.29a12.22,12.22,0,0,1,.45,3.27ZM415,160.58l-1-.3a14.56,14.56,0,0,1,1.33-3.13l.95.55A13.12,13.12,0,0,0,415,160.58Zm133.39-2.77a17.51,17.51,0,0,0-1.8-2.62l.84-.69a18.39,18.39,0,0,1,1.91,2.78ZM418,155.1l-.84-.71a24.9,24.9,0,0,1,2.33-2.41l.73.8A25.16,25.16,0,0,0,418,155.1Zm126.32-2.22a31,31,0,0,0-2.49-2.06l.65-.87c.93.69,1.8,1.41,2.58,2.12Zm-121.6-2.13-.64-.88c.85-.63,1.77-1.26,2.75-1.86l.57.92C424.48,149.52,423.58,150.13,422.75,150.75ZM539.18,149c-.88-.56-1.83-1.1-2.81-1.63l.51-1c1,.54,2,1.1,2.88,1.66Zm-110.93-1.7-.51-1c.95-.5,1.94-1,3-1.47l.46,1C430.16,146.34,429.18,146.82,428.25,147.31Zm105.21-1.38c-1-.46-2-.89-3-1.31l.41-1c1,.43,2,.87,3,1.33Zm-99.31-1.36-.41-1c1-.41,2-.8,3.09-1.18l.38,1Q435.64,144,434.15,144.57Zm93.28-1.12c-1-.37-2-.72-3.09-1.06l.34-1c1.06.34,2.1.7,3.12,1.07Zm-87.14-1.1-.34-1c1-.32,2.1-.64,3.17-.95l.3,1C442.36,141.71,441.31,142,440.29,142.35Zm80.92-.9c-1-.3-2.08-.58-3.16-.85l.27-1.06c1.09.28,2.15.56,3.19.86Zm-74.63-.88-.27-1.06c1.06-.26,2.12-.52,3.21-.76l.24,1.07Q448.14,140.17,446.58,140.57Zm68.29-.72c-1-.24-2.11-.46-3.2-.68l.21-1.07c1.09.22,2.17.44,3.23.68ZM453,139.14l-.21-1.06c1.07-.21,2.15-.41,3.25-.59l.18,1.07C455.09,138.74,454,138.94,453,139.14Zm55.49-.56c-1.06-.18-2.14-.35-3.23-.51l.16-1.08c1.1.16,2.18.33,3.26.52Zm-49-.53-.16-1.08c1.08-.15,2.17-.3,3.27-.43l.14,1.07C461.56,137.75,460.48,137.89,459.41,138.05Zm42.57-.42-3.25-.37.11-1.08c1.1.11,2.19.23,3.27.37Zm-36.07-.38-.11-1.09,3.28-.29.09,1.08C468.07,137,467,137.14,465.91,137.25Zm29.56-.28q-1.62-.14-3.27-.24l.06-1.08,3.29.23Zm-23-.24-.07-1.09c1.09-.06,2.18-.12,3.29-.16l0,1.08C474.6,136.61,473.52,136.66,472.44,136.73Zm16.49-.16c-1.09,0-2.18-.08-3.27-.1l0-1.09,3.3.1Zm-9.95-.11,0-1.09q1.65,0,3.3,0h.14v1.09h-.14Q480.6,136.43,479,136.46Z"/><path class="cls-11" d="M492,156.41c-.19-3.37-3.53-5.24-7.43-5.24-1.61,0-3.84.8-3.82,2.37,0,4.74,22.67,3.61,23.87,15.09.87,8.26-8,11.36-15.43,11.36-.76,0-1.51-.06-2.2-.11l.11,3.63H483L483,179a16.24,16.24,0,0,1-6.83-4.1l-.74,4.21H464.44l.76-13.31h11c0,4.28,5,5,7.58,5.11,2.12,0,5.13-.42,5-2.58-.16-3.92-22.88-2.28-22.24-14.43.35-6.51,8.07-9.33,13.37-9.33a22.15,22.15,0,0,1,2.44.12l-.05-3h3.41l.12,3.67a10.23,10.23,0,0,1,5.63,3.58l.33-3.58h9.34l1.11,11Z"/><path class="cls-12" d="M549.26,184.59a82.59,82.59,0,0,1-14.93,7A124.89,124.89,0,0,1,519.4,196c-4.74,1.07-9.73,1.95-14.93,2.61q-7.23.9-14.93,1.22-3.6.15-7.29.15c-2.58,0-5.13-.06-7.64-.16-5.12-.22-10.11-.64-14.93-1.26-5.2-.66-10.19-1.56-14.93-2.64a123,123,0,0,1-14.93-4.38,82.21,82.21,0,0,1-14.92-7.13c-7.38-4.6-12.49-10-14.58-15.81v20c2.38,5.46,7.46,10.56,14.58,15a83.55,83.55,0,0,0,14.92,7.22,125.61,125.61,0,0,0,14.93,4.51q7.13,1.69,14.93,2.75c4.82.64,9.81,1.09,14.93,1.33q3.78.15,7.64.17,3.67,0,7.29-.16c5.12-.22,10.11-.66,14.93-1.29,5.19-.69,10.18-1.61,14.93-2.72a123.85,123.85,0,0,0,14.93-4.47,84.62,84.62,0,0,0,14.93-7.12c7.29-4.49,12.5-9.68,14.93-15.22v-20C562.06,174.49,556.82,180,549.26,184.59Z"/><path class="cls-9" d="M482.25,106.21c-45.28.06-81.93,16.77-81.93,37.37S437,180.9,482.25,181s81.94-16.78,81.94-37.38S527.53,106.27,482.25,106.21Z"/><path class="cls-10" d="M482.25,112.44c-37.72,0-68.26,12.48-68.26,27.81s30.54,27.76,68.26,27.8,68.27-12.47,68.27-27.8S520,112.48,482.25,112.44Z"/><path class="cls-11" d="M482.25,168.6l-.07-.55v-.54h.07c1.07,0,2.15,0,3.21,0l0,1.08C484.4,168.59,483.33,168.6,482.25,168.6Zm-3.36,0c-1.11,0-2.21-.05-3.3-.1l.05-1.09c1.08,0,2.17.08,3.27.11Zm9.88-.09,0-1.09c1.09,0,2.19-.1,3.27-.16l.06,1.09Zm-16.47-.17-3.28-.23.08-1.09c1.08.09,2.17.16,3.27.23Zm23.05-.22-.08-1.09,3.26-.29.11,1.08C497.55,167.89,496.46,168,495.35,168.08Zm-29.62-.31-3.28-.37.14-1.09c1.07.14,2.16.26,3.25.37Zm36.18-.35-.13-1.09c1.09-.13,2.17-.27,3.24-.43l.16,1.08ZM459.19,167c-1.1-.16-2.18-.34-3.25-.51l.17-1.08c1.07.18,2.15.36,3.24.51Zm49.24-.5-.17-1.07c1.08-.18,2.16-.38,3.21-.58l.21,1.07C510.62,166.08,509.53,166.28,508.43,166.46Zm-55.74-.61c-1.1-.22-2.17-.43-3.24-.67l.24-1.07c1.05.24,2.13.46,3.21.68Zm62.22-.64-.24-1.07c1.09-.24,2.15-.49,3.19-.75l.26,1.06C517.07,164.71,516,165,514.91,165.21Zm-68.66-.8c-1.08-.27-2.15-.55-3.19-.85l.3-1.05c1,.29,2.08.58,3.15.85Zm75.06-.81-.29-1c1.06-.3,2.11-.62,3.13-.94l.33,1C523.44,163,522.39,163.29,521.31,163.6Zm-81.41-1c-1.07-.34-2.12-.7-3.13-1.06l.37-1c1,.37,2,.71,3.09,1.06Zm87.7-1-.36-1c1-.38,2.06-.77,3-1.17l.41,1C529.69,160.81,528.66,161.2,527.6,161.59Zm-93.92-1.24c-1-.42-2.05-.86-3-1.32l.45-1c1,.44,2,.88,3,1.29Zm100.05-1.26-.46-1c1-.46,2-.94,2.92-1.44l.51,1C535.76,158.12,534.75,158.61,533.73,159.09Zm-106-1.54c-1-.53-2-1.09-2.88-1.65l.58-.93c.88.56,1.84,1.1,2.81,1.62ZM539.58,156,539,155c1-.58,1.86-1.19,2.69-1.8l.64.87C541.48,154.75,540.55,155.37,539.58,156ZM422.05,154a29.8,29.8,0,0,1-2.58-2.12l.73-.8c.75.69,1.59,1.37,2.49,2Zm122.88-2-.73-.8a23.91,23.91,0,0,0,2.23-2.3l.84.7A26.27,26.27,0,0,1,544.93,152Zm-127.78-2.5a17.11,17.11,0,0,1-1.92-2.78l.94-.53A17.52,17.52,0,0,0,418,148.8Zm132.06-2.65-1-.54a13.66,13.66,0,0,0,1.25-2.89l1,.31A15.34,15.34,0,0,1,549.21,146.85Zm-135.3-3.26a12.3,12.3,0,0,1-.47-3.34l1.09,0v0a11.07,11.07,0,0,0,.43,3.05Zm137.15-3.23-1.09,0h.55l-.55-.1a10.94,10.94,0,0,0-.41-3l1.05-.29a12.29,12.29,0,0,1,.45,3.28ZM415,137.14l-1-.3a14.35,14.35,0,0,1,1.33-3.13l.95.54A13.4,13.4,0,0,0,415,137.14Zm133.39-2.78a16.94,16.94,0,0,0-1.8-2.61l.84-.69a18.39,18.39,0,0,1,1.91,2.78ZM418,131.65l-.84-.7a22.8,22.8,0,0,1,2.33-2.41l.73.8A25.09,25.09,0,0,0,418,131.65Zm126.32-2.22c-.76-.69-1.59-1.38-2.49-2.05l.65-.87c.93.69,1.8,1.41,2.58,2.12Zm-121.6-2.13-.64-.87c.85-.63,1.77-1.26,2.75-1.87l.57.93C424.48,126.08,423.58,126.69,422.75,127.3Zm116.43-1.74c-.88-.55-1.83-1.1-2.81-1.62l.51-1c1,.54,2,1.1,2.88,1.66Zm-110.93-1.69-.51-1c.95-.5,1.94-1,3-1.47l.46,1C430.16,122.89,429.18,123.38,428.25,123.87Zm105.21-1.39c-1-.45-2-.89-3-1.3l.41-1c1,.42,2,.87,3,1.33Zm-99.31-1.35-.41-1c1-.4,2-.8,3.09-1.18l.38,1Q435.64,120.53,434.15,121.13ZM527.43,120c-1-.37-2-.72-3.09-1.06l.34-1c1.06.35,2.1.71,3.12,1.07Zm-87.14-1.1-.34-1c1-.33,2.1-.64,3.17-1l.3,1C442.36,118.27,441.31,118.58,440.29,118.91Zm80.92-.91c-1-.29-2.08-.57-3.16-.85l.27-1.05c1.09.27,2.15.56,3.19.86Zm-74.63-.88-.27-1.05c1.06-.27,2.12-.52,3.21-.76l.24,1.06Q448.14,116.73,446.58,117.12Zm68.29-.72c-1-.23-2.11-.46-3.2-.68l.21-1.06c1.09.21,2.17.44,3.23.68ZM453,115.71l-.21-1.08L456,114l.18,1.07C455.09,115.3,454,115.49,453,115.71Zm55.49-.57c-1.06-.18-2.14-.36-3.23-.51l.16-1.08c1.1.16,2.18.33,3.26.52Zm-49-.53-.16-1.08c1.08-.16,2.17-.3,3.27-.44l.14,1.08C461.56,114.31,460.48,114.45,459.41,114.61Zm42.57-.42c-1.07-.13-2.16-.26-3.25-.37l.11-1.08c1.1.11,2.19.24,3.27.37Zm-36.07-.38-.11-1.08c1.08-.11,2.18-.22,3.28-.3l.09,1.08C468.07,113.6,467,113.7,465.91,113.81Zm29.56-.28q-1.62-.14-3.27-.24l.06-1.08c1.12.06,2.21.14,3.29.23Zm-23-.24-.07-1.09c1.09-.07,2.18-.12,3.29-.17l0,1.09C474.6,113.16,473.52,113.22,472.44,113.29Zm16.49-.16c-1.09,0-2.18-.08-3.27-.11l0-1.08c1.11,0,2.21,0,3.3.1ZM479,113l0-1.09q1.65,0,3.3,0h.14V113h-.14C481.15,113,480.06,113,479,113Z"/><path class="cls-11" d="M492,133c-.19-3.37-3.53-5.24-7.43-5.24-1.61,0-3.84.79-3.82,2.37,0,4.74,22.67,3.61,23.87,15.08.87,8.26-8,11.37-15.43,11.37-.76,0-1.51-.06-2.2-.12l.11,3.64H483L483,155.6a16.15,16.15,0,0,1-6.83-4.11l-.74,4.22H464.44l.76-13.31h11c0,4.28,5,5,7.58,5.11,2.12,0,5.13-.42,5-2.58-.16-3.92-22.88-2.28-22.24-14.43.35-6.51,8.07-9.34,13.37-9.34a22.16,22.16,0,0,1,2.44.13l-.05-3h3.41l.12,3.67a10.18,10.18,0,0,1,5.63,3.58l.33-3.58h9.34l1.11,11Z"/><path class="cls-12" d="M549.26,161.15a82.59,82.59,0,0,1-14.93,7,124.89,124.89,0,0,1-14.93,4.33c-4.74,1.07-9.73,1.95-14.93,2.6-4.82.6-9.8,1-14.93,1.23-2.4.09-4.83.15-7.29.15s-5.13-.06-7.64-.16c-5.12-.22-10.11-.65-14.93-1.26-5.2-.67-10.19-1.56-14.93-2.64a124.77,124.77,0,0,1-14.93-4.38,81.55,81.55,0,0,1-14.92-7.14c-7.38-4.6-12.49-10-14.58-15.8v20c2.38,5.45,7.46,10.56,14.58,15a83.54,83.54,0,0,0,14.92,7.21,123.78,123.78,0,0,0,14.93,4.51,149.44,149.44,0,0,0,14.93,2.75c4.82.65,9.81,1.1,14.93,1.33q3.78.16,7.64.18,3.67,0,7.29-.16c5.12-.22,10.11-.66,14.93-1.3,5.19-.68,10.18-1.6,14.93-2.71a123.85,123.85,0,0,0,14.93-4.47,84.63,84.63,0,0,0,14.93-7.13c7.29-4.48,12.5-9.66,14.93-15.21v-20C562.06,151.05,556.82,156.5,549.26,161.15Z"/><path class="cls-9" d="M134.78,241.16C83,241.24,41,260.36,41,283.94s42,42.71,93.78,42.78,93.78-19.2,93.78-42.78S186.6,241.24,134.78,241.16Z"/><path class="cls-10" d="M134.78,248.3c-43.18.06-78.13,14.28-78.13,31.83S91.6,311.9,134.78,312s78.13-14.29,78.13-31.83S178,248.36,134.78,248.3Z"/><path class="cls-11" d="M134.78,312.58l-.08-.62v-.63h.08c1.23,0,2.45,0,3.67,0l0,1.25Zm-3.85-.05c-1.27,0-2.53-.06-3.77-.11l0-1.25c1.24.05,2.49.09,3.74.12Zm11.31-.1-.05-1.25c1.26-.05,2.51-.11,3.75-.19l.07,1.25Zm-18.85-.2c-1.27-.08-2.52-.17-3.76-.27l.1-1.24c1.24.1,2.48.19,3.74.27Zm26.38-.25-.09-1.24,3.73-.34.12,1.23C152.29,311.76,151,311.87,149.77,312Zm-33.9-.36q-1.89-.19-3.75-.42l.16-1.23c1.22.15,2.46.28,3.72.41Zm41.41-.4-.15-1.24c1.25-.15,2.49-.32,3.71-.49l.18,1.23C159.79,310.9,158.54,311.07,157.28,311.22Zm-48.89-.52c-1.27-.18-2.51-.38-3.73-.59l.2-1.23c1.22.21,2.46.4,3.71.59Zm56.35-.57-.2-1.23c1.24-.2,2.47-.43,3.68-.67l.24,1.23C167.24,309.7,166,309.92,164.74,310.13Zm-63.8-.7c-1.25-.24-2.48-.51-3.7-.78l.27-1.21c1.2.27,2.43.53,3.67.77Zm71.21-.74-.26-1.22c1.24-.27,2.45-.56,3.64-.86l.3,1.21C174.63,308.13,173.4,308.41,172.15,308.69Zm-78.58-.9c-1.24-.32-2.45-.64-3.65-1l.34-1.2c1.18.33,2.39.66,3.61,1Zm85.91-1-.33-1.19c1.22-.34,2.41-.7,3.58-1.08l.37,1.19C181.92,306.14,180.72,306.5,179.48,306.84ZM86.3,305.71c-1.22-.39-2.42-.79-3.58-1.21l.42-1.18c1.15.42,2.33.81,3.54,1.2Zm100.39-1.16-.42-1.18c1.19-.43,2.36-.87,3.49-1.33l.46,1.15C189.07,303.66,187.9,304.11,186.69,304.55Zm-107.5-1.42c-1.18-.48-2.35-1-3.47-1.51l.52-1.12c1.11.51,2.26,1,3.41,1.48Zm114.51-1.45-.53-1.12c1.16-.54,2.28-1.09,3.34-1.65l.59,1.1C196,300.58,194.87,301.15,193.7,301.68ZM72.32,299.93c-1.15-.61-2.26-1.25-3.3-1.9l.66-1c1,.63,2.11,1.25,3.22,1.85Zm128.07-1.81-.65-1.06c1.09-.67,2.12-1.37,3.07-2.07l.74,1C202.57,296.72,201.51,297.44,200.39,298.12ZM65.87,295.9a35.39,35.39,0,0,1-3-2.43l.84-.91a36.75,36.75,0,0,0,2.85,2.34Zm140.65-2.32-.84-.92a28.6,28.6,0,0,0,2.56-2.63l.95.8A29.85,29.85,0,0,1,206.52,293.58ZM60.27,290.71a21,21,0,0,1-2.21-3.18l1.08-.61a20.15,20.15,0,0,0,2.08,3Zm151.14-3-1.08-.62a16,16,0,0,0,1.43-3.3l1.19.35A16.53,16.53,0,0,1,211.41,287.68ZM56.56,284a13.82,13.82,0,0,1-.54-3.82l1.25,0v0a12.73,12.73,0,0,0,.49,3.49Zm157-3.7h-.62l-.63-.12a12.92,12.92,0,0,0-.46-3.42l1.2-.33a14.12,14.12,0,0,1,.51,3.75ZM57.77,276.57l-1.19-.34a17.1,17.1,0,0,1,1.52-3.59l1.09.63A16,16,0,0,0,57.77,276.57Zm152.67-3.18a20.26,20.26,0,0,0-2.06-3l1-.79a20.31,20.31,0,0,1,2.19,3.18Zm-149.17-3.1-1-.81A28.42,28.42,0,0,1,63,266.73l.83.92A28.38,28.38,0,0,0,61.27,270.29Zm144.58-2.54C205,267,204,266.17,203,265.4l.73-1a37.31,37.31,0,0,1,3,2.43ZM66.67,265.31l-.73-1c1-.73,2-1.44,3.15-2.13l.66,1.05C68.66,263.91,67.63,264.6,66.67,265.31Zm133.27-2c-1-.63-2.1-1.26-3.22-1.86l.58-1.1c1.16.62,2.26,1.25,3.3,1.9ZM73,261.38l-.58-1.1c1.08-.57,2.22-1.14,3.39-1.68l.53,1.13C75.15,260.27,74,260.82,73,261.38Zm120.41-1.58c-1.1-.52-2.25-1-3.42-1.5l.48-1.15c1.19.48,2.35,1,3.47,1.52ZM79.73,258.24l-.47-1.15c1.15-.47,2.32-.92,3.53-1.36l.43,1.18C82,257.34,80.86,257.79,79.73,258.24ZM186.48,257c-1.14-.42-2.33-.82-3.53-1.21l.38-1.18c1.23.39,2.41.8,3.58,1.22ZM86.75,255.7l-.38-1.18c1.18-.38,2.39-.74,3.62-1.1l.35,1.21C89.12,255,87.92,255.33,86.75,255.7Zm92.62-1c-1.18-.34-2.38-.66-3.62-1l.31-1.21c1.24.31,2.46.64,3.65,1Zm-85.42-1-.31-1.21c1.21-.3,2.43-.59,3.68-.87l.27,1.22C96.35,253.07,95.14,253.36,94,253.66Zm78.16-.82c-1.2-.28-2.42-.53-3.66-.77l.24-1.23c1.25.25,2.48.5,3.69.77ZM101.26,252l-.24-1.22c1.22-.24,2.45-.46,3.71-.68l.21,1.23C103.69,251.57,102.47,251.8,101.26,252Zm63.51-.64c-1.22-.21-2.46-.41-3.7-.59l.18-1.23c1.26.18,2.5.38,3.73.59Zm-56.13-.61-.19-1.23c1.24-.18,2.49-.34,3.75-.5l.15,1.23C111.1,250.43,109.86,250.6,108.64,250.78Zm48.72-.48q-1.85-.23-3.72-.42l.12-1.24c1.27.13,2.51.27,3.75.42Zm-41.28-.44-.13-1.24q1.86-.18,3.75-.33l.11,1.23Zm33.83-.32c-1.24-.1-2.49-.19-3.75-.26l.08-1.25c1.27.08,2.52.17,3.76.27Zm-26.37-.27-.07-1.25,3.76-.19,0,1.25C126,249.13,124.78,249.19,123.54,249.27Zm18.88-.19c-1.24-.05-2.49-.08-3.74-.11l0-1.24c1.27,0,2.53.06,3.78.11ZM131,249l0-1.24c1.25,0,2.51,0,3.77,0h.16v1.24h-.15Z"/><path class="cls-11" d="M145.93,271.79c-.22-3.85-4-6-8.5-6-1.85,0-4.39.91-4.37,2.71,0,5.42,25.94,4.13,27.32,17.27,1,9.45-9.12,13-17.66,13-.87,0-1.73-.06-2.52-.12l.13,4.16h-4.65l-.09-5.13a18.59,18.59,0,0,1-7.82-4.69l-.84,4.82H114.39l.87-15.23h12.62c0,4.9,5.76,5.73,8.67,5.85,2.42,0,5.87-.48,5.77-2.95-.18-4.49-26.19-2.61-25.45-16.53.39-7.44,9.23-10.67,15.3-10.67a25.75,25.75,0,0,1,2.78.14l0-3.48h3.9l.14,4.2a11.61,11.61,0,0,1,6.44,4.1l.39-4.1h10.68l1.28,12.64Z"/><path class="cls-12" d="M211.47,304.05a94.65,94.65,0,0,1-17.09,8.07,144,144,0,0,1-17.09,4.95c-5.42,1.22-11.13,2.23-17.08,3-5.51.69-11.22,1.17-17.09,1.41q-4.12.17-8.34.17-4.42,0-8.75-.19c-5.86-.25-11.57-.73-17.09-1.44-6-.76-11.66-1.78-17.08-3a139.61,139.61,0,0,1-17.09-5,93,93,0,0,1-17.08-8.16c-8.44-5.26-14.3-11.41-16.69-18.09v22.9c2.73,6.24,8.54,12.08,16.69,17.16A96,96,0,0,0,74.77,334a142.75,142.75,0,0,0,17.09,5.16,172.17,172.17,0,0,0,17.08,3.15c5.52.73,11.23,1.25,17.09,1.52,2.89.12,5.8.19,8.75.2s5.59-.07,8.34-.19c5.85-.25,11.57-.75,17.09-1.47,5.94-.79,11.65-1.84,17.08-3.12a141,141,0,0,0,17.09-5.1A97.39,97.39,0,0,0,211.47,326c8.35-5.14,14.31-11.07,17.09-17.41v-22.9C226.12,292.49,220.12,298.73,211.47,304.05Z"/><path class="cls-9" d="M134.78,214.33C83,214.4,41,233.53,41,257.11s42,42.71,93.78,42.78,93.78-19.2,93.78-42.78S186.6,214.4,134.78,214.33Z"/><path class="cls-10" d="M134.78,221.47c-43.18.05-78.13,14.28-78.13,31.83s34.95,31.77,78.13,31.82,78.13-14.28,78.13-31.82S178,221.52,134.78,221.47Z"/><path class="cls-11" d="M134.78,285.75l-.08-.63v-.62h.08c1.23,0,2.45,0,3.67,0l0,1.24C137.24,285.73,136,285.75,134.78,285.75Zm-3.85-.05c-1.27,0-2.53-.06-3.77-.11l0-1.25c1.24.05,2.49.09,3.74.12Zm11.31-.11-.05-1.24c1.26-.05,2.51-.11,3.75-.19l.07,1.25C144.76,285.48,143.51,285.54,142.24,285.59Zm-18.85-.19-3.76-.26.1-1.25c1.24.1,2.48.19,3.74.27Zm26.38-.25-.09-1.25c1.25-.1,2.49-.21,3.73-.33l.12,1.24C152.29,284.93,151,285.05,149.77,285.15Zm-33.9-.36q-1.89-.19-3.75-.42l.16-1.24c1.22.16,2.46.29,3.72.42Zm41.41-.4-.15-1.24c1.25-.15,2.49-.31,3.71-.49l.18,1.23C159.79,284.07,158.54,284.24,157.28,284.39Zm-48.89-.52c-1.27-.19-2.51-.38-3.73-.59l.2-1.24c1.22.21,2.46.42,3.71.6Zm56.35-.57-.2-1.23c1.24-.21,2.47-.43,3.68-.66l.24,1.22C167.24,282.86,166,283.09,164.74,283.3Zm-63.8-.7c-1.25-.25-2.48-.5-3.7-.77l.27-1.22c1.2.27,2.43.52,3.67.77Zm71.21-.74-.26-1.22c1.24-.27,2.45-.56,3.64-.86l.3,1.21C174.63,281.29,173.4,281.58,172.15,281.86ZM93.57,281c-1.24-.32-2.45-.64-3.65-1l.34-1.19c1.18.33,2.39.65,3.61,1Zm85.91-.94-.33-1.2c1.22-.35,2.41-.7,3.58-1.08l.37,1.19C181.92,279.3,180.72,279.67,179.48,280ZM86.3,278.88c-1.22-.39-2.42-.8-3.58-1.22l.42-1.17c1.15.42,2.33.81,3.54,1.21Zm100.39-1.16-.42-1.18c1.19-.43,2.36-.87,3.49-1.33l.46,1.15C189.07,276.83,187.9,277.28,186.69,277.72ZM79.19,276.3c-1.18-.48-2.35-1-3.47-1.51l.52-1.12c1.11.5,2.26,1,3.41,1.48Zm114.51-1.44-.53-1.14c1.16-.53,2.28-1.08,3.34-1.65l.59,1.1C196,273.75,194.87,274.31,193.7,274.86ZM72.32,273.1c-1.15-.61-2.26-1.25-3.3-1.89l.66-1.06c1,.64,2.11,1.25,3.22,1.85Zm128.07-1.81-.65-1.06c1.09-.67,2.12-1.37,3.07-2.07l.74,1C202.57,269.89,201.51,270.6,200.39,271.29ZM65.87,269.07a35.34,35.34,0,0,1-3-2.42l.84-.92c.86.78,1.82,1.57,2.85,2.34Zm140.65-2.32-.84-.92a29.93,29.93,0,0,0,2.56-2.63l.95.8A31.16,31.16,0,0,1,206.52,266.75ZM60.27,263.88a21.4,21.4,0,0,1-2.21-3.17l1.08-.62a21.32,21.32,0,0,0,2.08,3Zm151.14-3-1.08-.62a16,16,0,0,0,1.43-3.3l1.19.35A16.53,16.53,0,0,1,211.41,260.85ZM56.56,257.13A14.05,14.05,0,0,1,56,253.3l1.25,0v0a12.68,12.68,0,0,0,.49,3.49Zm157-3.71-1.25,0h.63l-.63-.11a12.87,12.87,0,0,0-.46-3.42l1.2-.33a14.12,14.12,0,0,1,.51,3.75ZM57.77,249.73l-1.19-.34a17,17,0,0,1,1.52-3.57l1.09.61A16.52,16.52,0,0,0,57.77,249.73Zm152.67-3.17a20.26,20.26,0,0,0-2.06-3l1-.79a20.79,20.79,0,0,1,2.19,3.18Zm-149.17-3.1-1-.81A27.32,27.32,0,0,1,63,239.9l.83.91A29.75,29.75,0,0,0,61.27,243.46Zm144.58-2.54c-.87-.8-1.82-1.58-2.84-2.35l.73-1a37.31,37.31,0,0,1,3,2.43ZM66.67,238.48l-.73-1c1-.72,2-1.44,3.15-2.13l.66,1.06C68.66,237.08,67.63,237.78,66.67,238.48Zm133.27-2c-1-.63-2.1-1.26-3.22-1.86l.58-1.1c1.16.62,2.26,1.26,3.3,1.9ZM73,234.55l-.58-1.09c1.08-.57,2.22-1.15,3.39-1.69l.53,1.13C75.15,233.43,74,234,73,234.55ZM193.38,233c-1.1-.52-2.25-1-3.42-1.49l.48-1.16c1.19.48,2.35,1,3.47,1.52ZM79.73,231.41l-.47-1.15c1.15-.46,2.32-.91,3.53-1.35l.43,1.17C82,230.51,80.86,231,79.73,231.41Zm106.75-1.28c-1.14-.42-2.33-.82-3.53-1.2l.38-1.2c1.23.4,2.41.81,3.58,1.23Zm-99.73-1.25-.38-1.19c1.18-.38,2.39-.74,3.62-1.1l.35,1.21C89.12,228.14,87.92,228.5,86.75,228.88Zm92.62-1c-1.18-.34-2.38-.66-3.62-1l.31-1.21c1.24.31,2.46.64,3.65,1Zm-85.42-1-.31-1.21c1.21-.3,2.43-.59,3.68-.87l.27,1.21C96.35,226.24,95.14,226.53,94,226.83Zm78.16-.83c-1.2-.27-2.42-.52-3.66-.77l.24-1.22c1.25.24,2.48.5,3.69.77Zm-70.85-.79L101,224c1.22-.23,2.45-.46,3.71-.68l.21,1.23C103.69,224.74,102.47,225,101.26,225.21Zm63.51-.65c-1.22-.21-2.46-.41-3.7-.59l.18-1.23c1.26.18,2.5.38,3.73.59ZM108.64,224l-.19-1.23c1.24-.19,2.49-.35,3.75-.51l.15,1.24C111.1,223.61,109.86,223.77,108.64,224Zm48.72-.48q-1.85-.22-3.72-.42l.12-1.24c1.27.13,2.51.27,3.75.42ZM116.08,223,116,221.8c1.24-.13,2.49-.25,3.75-.34l.11,1.23Zm33.83-.32q-1.86-.15-3.75-.27l.08-1.24,3.76.26Zm-26.37-.27-.07-1.25,3.76-.19,0,1.25C126,222.3,124.78,222.36,123.54,222.44Zm18.88-.18c-1.24,0-2.49-.09-3.74-.12l0-1.24c1.27,0,2.53.06,3.78.11ZM131,222.14l0-1.25c1.25,0,2.51,0,3.77,0h.16v1.24h-.15C133.52,222.09,132.27,222.11,131,222.14Z"/><path class="cls-11" d="M145.93,245c-.22-3.87-4-6-8.5-6-1.85,0-4.39.91-4.37,2.71,0,5.42,25.94,4.13,27.32,17.26,1,9.46-9.12,13-17.66,13-.87,0-1.73-.06-2.52-.13l.13,4.17h-4.65l-.09-5.12a18.5,18.5,0,0,1-7.82-4.71l-.84,4.83H114.39l.87-15.23h12.62c0,4.9,5.76,5.73,8.67,5.85,2.42,0,5.87-.48,5.77-3-.18-4.49-26.19-2.61-25.45-16.51.39-7.45,9.23-10.69,15.3-10.69a25.75,25.75,0,0,1,2.78.15l0-3.48h3.9l.14,4.19a11.63,11.63,0,0,1,6.44,4.11l.39-4.11h10.68L157.73,245Z"/><path class="cls-12" d="M211.47,277.22a94,94,0,0,1-17.09,8.06,140.27,140.27,0,0,1-17.09,5c-5.42,1.23-11.13,2.23-17.08,3-5.51.69-11.22,1.17-17.09,1.41-2.75.1-5.53.17-8.34.17s-5.87-.07-8.75-.19c-5.86-.25-11.57-.73-17.09-1.44-6-.76-11.66-1.79-17.08-3a143.26,143.26,0,0,1-17.09-5A93,93,0,0,1,57.69,277c-8.44-5.26-14.3-11.42-16.69-18.09v22.9c2.73,6.23,8.54,12.08,16.69,17.16a96,96,0,0,0,17.08,8.26,140.94,140.94,0,0,0,17.09,5.16c5.43,1.29,11.14,2.35,17.08,3.15,5.52.74,11.23,1.25,17.09,1.52,2.89.12,5.8.19,8.75.2s5.59-.07,8.34-.19c5.85-.25,11.57-.75,17.09-1.48,5.94-.78,11.65-1.83,17.08-3.1a142.84,142.84,0,0,0,17.09-5.11,98.11,98.11,0,0,0,17.09-8.16c8.35-5.14,14.31-11.07,17.09-17.41v-22.9C226.12,265.66,220.12,271.9,211.47,277.22Z"/><path class="cls-13" d="M134.78,187.51C83,187.57,41,206.7,41,230.28s42,42.7,93.78,42.78c51.82-.08,93.78-19.2,93.78-42.78S186.6,187.57,134.78,187.51Z"/><path class="cls-14" d="M134.78,194.64c-43.18.05-78.13,14.28-78.13,31.83s34.95,31.77,78.13,31.82,78.13-14.28,78.13-31.82S178,194.69,134.78,194.64Z"/><path class="cls-12" d="M211.47,250.39a94,94,0,0,1-17.09,8.06,142.07,142.07,0,0,1-17.09,5c-5.42,1.23-11.13,2.23-17.08,3-5.51.69-11.22,1.16-17.09,1.4q-4.12.18-8.34.18-4.42,0-8.75-.19c-5.86-.25-11.57-.74-17.09-1.44-6-.76-11.66-1.79-17.08-3a141.4,141.4,0,0,1-17.09-5,92.31,92.31,0,0,1-17.08-8.16c-8.44-5.26-14.3-11.42-16.69-18.09v22.89c2.73,6.25,8.54,12.09,16.69,17.17a96.64,96.64,0,0,0,17.08,8.26,142.75,142.75,0,0,0,17.09,5.16c5.43,1.29,11.14,2.35,17.08,3.15,5.52.73,11.23,1.25,17.09,1.52,2.89.13,5.8.19,8.75.2s5.59-.07,8.34-.19c5.85-.25,11.57-.75,17.09-1.48,5.94-.78,11.65-1.84,17.08-3.11a142.86,142.86,0,0,0,17.09-5.1,97.39,97.39,0,0,0,17.09-8.16c8.35-5.14,14.31-11.07,17.09-17.42V232.05C226.12,238.83,220.12,245.07,211.47,250.39Z"/><path class="cls-9" d="M134.9,260.85h0c-38-.05-78.31-11.74-78.31-33.32s40.35-33.27,78.31-33.31,78.32,11.74,78.32,33.31S172.86,260.8,134.9,260.85Zm0-57.37c-40.69.05-69,12.71-69,24.05s28.36,24,69.06,24.06,69-12.72,69-24.06S175.59,203.53,134.89,203.48Z"/><path class="cls-9" d="M155.91,224.26l-12.44-5.48,1.84-.85a12.49,12.49,0,0,0,3.36-1.94q.45-.59-.9-1.17a4.9,4.9,0,0,0-2.4-.35,8.84,8.84,0,0,0-2.84.82c-1.72.78-2.56,1.5-2.51,2.14s.82,2.24,2.4,4.83a19.8,19.8,0,0,1,2.44,4.89,4.16,4.16,0,0,1-1.07,3.38,15.58,15.58,0,0,1-5.47,3.92A33.3,33.3,0,0,1,124.5,238,35.85,35.85,0,0,1,110,235.41l-5,2.35-5.48-2.94,5.15-2.35c-2.77-1.79-4.12-3.78-4.07-6s2.86-4.39,8.34-6.75l2.36-1,11.47,5.48-3,1.35a37.67,37.67,0,0,0-5.85,3c-.57.5-.39,1,.55,1.46a5,5,0,0,0,2.67.51,8.91,8.91,0,0,0,3.12-.88,24.37,24.37,0,0,0,5.35-3c.78-.72.76-1.92-.06-3.57a29,29,0,0,1-2.27-5.59,4.16,4.16,0,0,1,1.13-3.37,12.41,12.41,0,0,1,4.85-3.27,25.83,25.83,0,0,1,10.45-2.07,38.84,38.84,0,0,1,12.09,2.2l3.29-1.51,5.49,2.24-3.28,1.54c3.35,1.75,5.13,3.46,5.3,5.13s-1.33,3.33-4.54,4.92C157.65,223.52,156.92,223.84,155.91,224.26Z"/><path class="cls-15" d="M316.66,236.07A64.33,64.33,0,1,1,346.51,322,64.33,64.33,0,0,1,316.66,236.07Z"/><path class="cls-16" d="M397.23,217.3a52,52,0,1,1-69.49,24.14A52.06,52.06,0,0,1,397.23,217.3Zm-41.77,86.23A43.8,43.8,0,1,0,335.14,245,43.85,43.85,0,0,0,355.46,303.53Z"/><path class="cls-17" d="M335.14,245a43.79,43.79,0,1,1,20.32,58.51A43.79,43.79,0,0,1,335.14,245Z"/><path class="cls-16" d="M355.76,267.86l12.11,5.86-1,2a14.65,14.65,0,0,0-1.61,4.39A1.92,1.92,0,0,0,366.6,282a2.06,2.06,0,0,0,2.08-.05,5.29,5.29,0,0,0,1.79-2.29q1.38-2.85.79-4.54a49.68,49.68,0,0,0-4.38-7.59,55.2,55.2,0,0,1-4.23-7.31,12.92,12.92,0,0,1-.79-5.57,19.14,19.14,0,0,1,2.11-7.31q3.13-6.48,8-8.65t11.55,0l2.21-4.56,5.57,2.7-2.28,4.7a16.17,16.17,0,0,1,6.67,7.84q2.06,5-1.87,13.09l-1.15,2.37-12.1-5.86,1.44-3a30.74,30.74,0,0,0,2.56-6.24,1.87,1.87,0,0,0-1.24-2.07,2.37,2.37,0,0,0-2.22-.06,4.61,4.61,0,0,0-1.78,2.15,23.29,23.29,0,0,0-2.26,6.11q-.27,2,2.05,5.7a93.65,93.65,0,0,1,5.06,8.76,15.12,15.12,0,0,1,1.22,6.26,16.76,16.76,0,0,1-1.8,7.42q-2.62,5.42-7.19,7t-11.06-.65l-1.87,3.86-5.57-2.7,1.87-3.86q-5.25-3.43-6.56-7.82t1.28-9.75C354.78,269.58,355.19,268.84,355.76,267.86Z"/></g></g></svg>