<svg xmlns="http://www.w3.org/2000/svg" xmlns:xlink="http://www.w3.org/1999/xlink" viewBox="0 0 662.72 795.53"><defs><style>.cls-1{fill:#231f20;opacity:0.1;}.cls-2{fill:#e2c67c;}.cls-3{fill:#eed183;}.cls-4{fill:#ffea9c;}.cls-5{fill:#08b2c1;}.cls-6{fill:#07a6b4;}.cls-7{fill:#09cdde;}.cls-8{fill:none;stroke:#c7ffff;stroke-linecap:round;stroke-linejoin:round;stroke-width:2px;}.cls-9{fill:#d9a600;}.cls-10{fill:#ffdb05;}.cls-11{fill:#d6b60b;}.cls-12{fill:#ecbd0c;}.cls-13{fill:#ffcc05;}.cls-14{fill:#fff;}.cls-14,.cls-17{opacity:0.2;}.cls-15{fill:#fcc902;}.cls-16{fill:#d6a300;}.cls-17{fill:#fcfcfc;}.cls-18{opacity:0.4;fill:url(#linear-gradient);}</style><linearGradient id="linear-gradient" x1="90.6" y1="1131.65" x2="143.08" y2="88.4" gradientTransform="translate(155.84 14.9) scale(1.19 1)" gradientUnits="userSpaceOnUse"><stop offset="0.13" stop-color="#f9ed32" stop-opacity="0"/><stop offset="1" stop-color="#f6ea32"/></linearGradient></defs><title>Asset 10</title><g id="Layer_2" data-name="Layer 2"><g id="DESIGNED_BY_FREEPIK" data-name="DESIGNED BY FREEPIK"><path class="cls-1" d="M623.78,614.25c5-2.59,7.67-5.1,7.43-7.42-1.07-10.37-59.05-12.91-129.51-5.68S375,622.65,376,633s59,12.91,129.51,5.68c12.53-1.29,24.61-2.8,36-4.47-2,2.25-3,4.54-2.8,6.8,1.1,10.76,29.74,16.64,64,13.13s61.08-15.09,60-25.85C661.87,620.32,645.92,615,623.78,614.25Z"/><ellipse class="cls-1" cx="217.89" cy="640.35" rx="100.09" ry="14.25"/><path class="cls-2" d="M582.63,378.4c-14.56-20.36-38.89-37.23-70.36-48.78-29.44-10.8-63.66-16.51-99-16.51a322.41,322.41,0,0,0-35.71,2V536.16h0c9,.77,18.21,1.16,27.34,1.16h0a314.61,314.61,0,0,0,70.61-7.9c29.05-6.71,55-17.51,75.15-31.23,20.74-14.15,35.37-31.43,42.31-50C601.77,424.8,598.08,400,582.63,378.4Z"/><path class="cls-3" d="M342.65,321c-25,5.78-47.25,14.33-66,25.41-15.69,9.28-28.35,20-37.73,31.85A271.22,271.22,0,0,0,187.79,385c-25.38,5.86-48.1,15.31-65.72,27.33-18.31,12.49-31.26,27.81-37.42,44.29-7.85,21-4.56,43.15,9.25,62.47,12.85,18,34.25,32.84,61.88,43,25.69,9.42,55.54,14.4,86.33,14.4a273.51,273.51,0,0,0,61.55-6.89c29.84-6.89,55.21-18.37,73.92-33.39V315.08A306.77,306.77,0,0,0,342.65,321"/><path class="cls-4" d="M242.11,566.37c-30.79,0-60.64-4.94-86.33-14.3-27.63-10.06-49-24.81-61.88-42.64-13.81-19.18-17.1-41.19-9.25-62,6.16-16.36,19.11-31.56,37.42-44,17.62-11.92,40.34-21.3,65.72-27.12A273.67,273.67,0,0,1,239,369.72c9.38-11.79,22-22.39,37.73-31.61,18.72-11,40.92-19.47,66-25.21a316.61,316.61,0,0,1,70.64-7.85c35.32,0,69.54,5.67,99,16.39,31.47,11.46,55.8,28.2,70.36,48.41,15.45,21.44,19.14,46,10.38,69.25-6.94,18.41-21.57,35.56-42.31,49.6-20.12,13.62-46.1,24.34-75.15,31a316.92,316.92,0,0,1-70.61,7.84h0c-9.13,0-18.3-.39-27.34-1.15-18.71,14.91-44.08,26.3-73.93,33.14a275.82,275.82,0,0,1-61.55,6.84"/><path class="cls-3" d="M191.54,388.7c-76.33,17.49-113.94,65.34-84,106.88,23.15,32.13,79.92,51.07,139.77,49.92V382.3a259.39,259.39,0,0,0-55.75,6.4"/><path class="cls-2" d="M569,375.63C534.38,327.56,434.72,305,346.4,325.24c-47.83,11-82.51,32.23-98.76,57.06h-.35V545.5a259.09,259.09,0,0,0,52.62-6.36c31.21-7.15,55.94-19.38,72.23-34.17a305.17,305.17,0,0,0,99.66-5.67C560.12,479.06,603.64,423.7,569,375.63Z"/><path class="cls-5" d="M299.91,539.14c31.21-7.15,55.94-19.38,72.23-34.17a305.17,305.17,0,0,0,99.66-5.67c64.29-14.73,104.83-48.08,108.78-83.68-1.07-9.59-4.83-19.22-11.57-28.57C534.38,339,434.72,316.42,346.4,336.65c-47.83,11-82.51,32.23-98.76,57.06a259.38,259.38,0,0,0-56.1,6.41c-55.11,12.62-90,41.08-93.93,71.56a52.36,52.36,0,0,0,9.91,23.9c29.93,41.55,116.07,61.05,192.39,43.56"/><path class="cls-6" d="M191.54,433a260,260,0,0,1,56.1-6.4c16.25-24.83,50.93-46.1,98.76-57.06,88.32-20.23,188,2.33,222.61,50.39a68.35,68.35,0,0,1,7.06,12.19,56.72,56.72,0,0,0,4.51-16.52c-1.07-9.59-4.83-19.22-11.57-28.57C534.38,339,434.72,316.42,346.4,336.65c-47.83,11-82.51,32.23-98.76,57.06a259.38,259.38,0,0,0-56.1,6.41c-55.11,12.62-90,41.08-93.93,71.56A49.11,49.11,0,0,0,102.86,488c12.2-23.88,43.72-44.72,88.68-55"/><path class="cls-7" d="M299.91,539.14c31.21-7.15,55.94-19.38,72.23-34.17a305.17,305.17,0,0,0,99.66-5.67c54.21-12.42,91.53-38.08,104.27-67.16A68.35,68.35,0,0,0,569,420c-34.63-48.06-134.29-70.62-222.61-50.39-47.83,11-82.51,32.23-98.76,57.06a260,260,0,0,0-56.1,6.4c-45,10.3-76.48,31.14-88.68,55a62.29,62.29,0,0,0,4.66,7.54c29.93,41.55,116.07,61.05,192.39,43.56"/><path class="cls-8" d="M306.72,483.41a5.59,5.59,0,0,0,5.22,1.4,4.26,4.26,0,0,0,3.51-3.4,5.58,5.58,0,0,0,5.21,1.39,4.24,4.24,0,0,0,3.51-3.4,5.57,5.57,0,0,0,5.22,1.4,4.27,4.27,0,0,0,3.51-3.4,5.57,5.57,0,0,0,5.21,1.4,4.26,4.26,0,0,0,3.51-3.4"/><path class="cls-8" d="M240,465.86a5.56,5.56,0,0,0,5.21,1.4,4.25,4.25,0,0,0,3.51-3.4,5.59,5.59,0,0,0,5.22,1.4,4.27,4.27,0,0,0,3.51-3.4,5.58,5.58,0,0,0,5.21,1.4,4.25,4.25,0,0,0,3.51-3.4,5.58,5.58,0,0,0,5.21,1.39,4.24,4.24,0,0,0,3.51-3.4"/><path class="cls-8" d="M240,513.32a5.58,5.58,0,0,0,5.21,1.4,4.25,4.25,0,0,0,3.51-3.4,5.57,5.57,0,0,0,5.22,1.39,4.26,4.26,0,0,0,3.51-3.4,5.55,5.55,0,0,0,5.21,1.4,4.24,4.24,0,0,0,3.51-3.4,5.58,5.58,0,0,0,5.21,1.4,4.25,4.25,0,0,0,3.51-3.4"/><path class="cls-8" d="M258.21,432.4a5.58,5.58,0,0,0,5.21,1.4,4.25,4.25,0,0,0,3.51-3.4,5.59,5.59,0,0,0,5.22,1.39,4.26,4.26,0,0,0,3.51-3.4,5.54,5.54,0,0,0,5.21,1.4,4.24,4.24,0,0,0,3.51-3.4,5.58,5.58,0,0,0,5.21,1.4,4.25,4.25,0,0,0,3.51-3.4"/><path class="cls-8" d="M304.68,439.65a5.58,5.58,0,0,0,5.21,1.4,4.27,4.27,0,0,0,3.52-3.4,5.56,5.56,0,0,0,5.21,1.39,4.25,4.25,0,0,0,3.51-3.4,5.56,5.56,0,0,0,5.21,1.4,4.25,4.25,0,0,0,3.51-3.4,5.59,5.59,0,0,0,5.22,1.4,4.27,4.27,0,0,0,3.51-3.4"/><path class="cls-8" d="M171.14,513.32a5.59,5.59,0,0,0,5.22,1.4,4.26,4.26,0,0,0,3.51-3.4,5.55,5.55,0,0,0,5.21,1.39,4.24,4.24,0,0,0,3.51-3.4,5.57,5.57,0,0,0,5.22,1.4,4.26,4.26,0,0,0,3.51-3.4,5.57,5.57,0,0,0,5.21,1.4,4.25,4.25,0,0,0,3.51-3.4"/><path class="cls-8" d="M335.4,458a5.57,5.57,0,0,0,5.22,1.4,4.26,4.26,0,0,0,3.51-3.4,5.58,5.58,0,0,0,5.21,1.4,4.25,4.25,0,0,0,3.51-3.4,5.58,5.58,0,0,0,5.21,1.39,4.24,4.24,0,0,0,3.51-3.39"/><path class="cls-8" d="M182.27,484.88a5.55,5.55,0,0,0,5.21,1.4,4.25,4.25,0,0,0,3.51-3.4,5.58,5.58,0,0,0,5.21,1.4,4.25,4.25,0,0,0,3.51-3.4,5.59,5.59,0,0,0,5.22,1.39,4.25,4.25,0,0,0,3.51-3.4"/><path class="cls-8" d="M389.31,478.63a5.58,5.58,0,0,0,5.21,1.4,4.25,4.25,0,0,0,3.51-3.4,5.59,5.59,0,0,0,5.22,1.39,4.26,4.26,0,0,0,3.51-3.4A5.54,5.54,0,0,0,412,476a4.25,4.25,0,0,0,3.51-3.4"/><path class="cls-9" d="M562.72,550.44c-45.27.07-81.93,16.78-81.93,37.38s36.66,37.31,81.93,37.37,81.94-16.77,81.94-37.37S608,550.51,562.72,550.44Z"/><path class="cls-10" d="M562.72,556.68c-37.72,0-68.26,12.48-68.26,27.81s30.54,27.75,68.26,27.8S631,599.82,631,584.49,600.45,556.72,562.72,556.68Z"/><path class="cls-11" d="M562.72,612.84l-.06-.55v-.54h.06c1.08,0,2.15,0,3.21,0l0,1.09C564.88,612.83,563.81,612.83,562.72,612.84Zm-3.36,0-3.29-.1,0-1.09c1.09,0,2.17.08,3.27.1Zm9.88-.1,0-1.08,3.27-.16.07,1.08C571.45,612.61,570.35,612.66,569.24,612.7Zm-16.47-.16c-1.1-.08-2.19-.15-3.28-.24l.08-1.08,3.27.23Zm23.05-.23-.08-1.09c1.09-.08,2.18-.18,3.26-.29l.11,1.08C578,612.13,576.93,612.23,575.82,612.31ZM546.2,612c-1.1-.11-2.19-.23-3.28-.37l.15-1.08c1.07.14,2.15.26,3.24.37Zm36.18-.35-.13-1.08c1.1-.13,2.18-.28,3.25-.43l.15,1.08C584.58,611.37,583.49,611.52,582.38,611.65Zm-42.71-.46c-1.11-.16-2.19-.32-3.26-.51l.17-1.07q1.6.27,3.24.51Zm49.24-.49-.18-1.07c1.08-.18,2.16-.38,3.21-.59l.22,1.08C591.09,610.32,590,610.52,588.91,610.7Zm-55.75-.62c-1.1-.2-2.17-.43-3.23-.67l.24-1.06c1,.23,2.12.45,3.2.67Zm62.22-.64-.23-1.06c1.08-.24,2.14-.49,3.18-.76l.27,1.06C597.55,609,596.47,609.2,595.38,609.44Zm-68.66-.79c-1.08-.27-2.14-.56-3.19-.85l.3-1c1,.3,2.08.57,3.15.85Zm75.06-.82-.29-1.05c1.07-.3,2.11-.61,3.13-.94l.33,1C603.92,607.21,602.86,607.53,601.78,607.83Zm-81.41-1c-1.07-.34-2.11-.7-3.13-1.07l.37-1q1.51.54,3.09,1Zm87.71-1-.37-1c1-.38,2.06-.77,3-1.17l.41,1C610.17,605.05,609.14,605.44,608.08,605.82Zm-93.92-1.23c-1-.42-2.06-.87-3-1.32l.46-1c1,.45,2,.89,3,1.3Zm100-1.27-.45-1c1-.47,2-1,2.91-1.45l.51,1C616.23,602.35,615.23,602.85,614.2,603.32Zm-106-1.53c-1-.53-2-1.09-2.89-1.66l.58-.92c.89.55,1.84,1.1,2.81,1.62Zm111.89-1.58-.57-.93c.95-.58,1.86-1.19,2.69-1.81l.65.88C622,599,621,599.6,620.05,600.21Zm-117.53-1.94c-.93-.7-1.8-1.41-2.58-2.12l.74-.81a29.27,29.27,0,0,0,2.49,2Zm122.89-2-.74-.8a25.32,25.32,0,0,0,2.24-2.3l.83.7A26.12,26.12,0,0,1,625.41,596.24Zm-127.78-2.51A17.32,17.32,0,0,1,495.7,591l.94-.53a19,19,0,0,0,1.82,2.61Zm132-2.65-.94-.54a13.54,13.54,0,0,0,1.24-2.88l1,.31A15,15,0,0,1,629.68,591.08Zm-135.3-3.25a12.39,12.39,0,0,1-.46-3.34l1.08,0v0a11.27,11.27,0,0,0,.43,3Zm137.15-3.23-1.09,0H631l-.55-.1a10.94,10.94,0,0,0-.41-3l1.05-.29a12.24,12.24,0,0,1,.45,3.28Zm-136.08-3.23-1.05-.3a14.49,14.49,0,0,1,1.33-3.12l.95.54A14,14,0,0,0,495.45,581.37Zm133.38-2.77A16.94,16.94,0,0,0,627,576l.84-.69a18,18,0,0,1,1.92,2.78ZM498.5,575.89l-.83-.7a23.71,23.71,0,0,1,2.32-2.41l.73.8A25.09,25.09,0,0,0,498.5,575.89Zm126.32-2.22c-.76-.7-1.59-1.38-2.48-2.06l.64-.87c.93.7,1.8,1.41,2.58,2.13Zm-121.6-2.13-.64-.88c.85-.63,1.78-1.25,2.76-1.86l.57.93C505,570.32,504.05,570.93,503.22,571.54Zm116.44-1.74c-.89-.55-1.83-1.1-2.82-1.63l.52-.95c1,.54,2,1.09,2.87,1.66Zm-110.93-1.69-.52-1c1-.5,2-1,3-1.47l.46,1C510.63,567.13,509.65,567.62,508.73,568.11Zm105.2-1.38c-1-.46-2-.9-3-1.31l.42-1c1,.42,2,.87,3,1.33Zm-99.3-1.37-.42-1c1-.41,2-.8,3.09-1.18l.38,1C516.63,564.57,515.61,565,514.63,565.36Zm93.27-1.12c-1-.36-2-.71-3.09-1l.34-1c1.07.35,2.1.71,3.12,1.07Zm-87.14-1.09-.33-1c1-.33,2.09-.65,3.16-1l.3,1.05C522.83,562.51,521.79,562.82,520.76,563.15Zm80.92-.91c-1-.29-2.08-.58-3.15-.85l.26-1.06c1.09.28,2.15.57,3.19.86Zm-74.63-.88-.27-1.05c1.06-.27,2.13-.52,3.22-.76l.24,1.06C529.15,560.84,528.09,561.1,527.05,561.36Zm68.29-.72c-1-.24-2.11-.47-3.2-.67l.22-1.07c1.09.21,2.16.44,3.22.67Zm-61.9-.7-.21-1.07c1.06-.2,2.14-.41,3.24-.59l.18,1.08C535.56,559.54,534.49,559.74,533.44,559.94Zm55.49-.56q-1.6-.27-3.24-.51l.16-1.08c1.1.16,2.19.33,3.26.51Zm-49-.53-.16-1.08c1.07-.16,2.16-.3,3.27-.44l.13,1.08C542,558.54,541,558.69,539.89,558.85Zm42.57-.42c-1.08-.14-2.16-.26-3.26-.37l.11-1.08c1.11.11,2.19.23,3.28.37Zm-36.08-.38-.11-1.09c1.09-.1,2.18-.21,3.28-.3l.09,1.09C548.55,557.84,547.46,557.94,546.38,558.05Zm29.56-.29c-1.08-.09-2.17-.16-3.27-.24l.07-1.08c1.11.07,2.2.15,3.29.24Zm-23-.24-.07-1.08c1.09-.07,2.19-.12,3.29-.17l0,1.09C555.08,557.4,554,557.46,552.91,557.52Zm16.49-.15c-1.08,0-2.17-.08-3.27-.11l0-1.09,3.29.1Zm-9.95-.11,0-1.09,3.3,0h.14v1.09h-.14Z"/><path class="cls-11" d="M572.47,577.21c-.19-3.37-3.53-5.24-7.43-5.24-1.61,0-3.83.79-3.81,2.36,0,4.74,22.66,3.62,23.86,15.09.87,8.26-8,11.36-15.42,11.36-.76,0-1.51,0-2.21-.11l.12,3.64h-4.07l-.08-4.47a16.38,16.38,0,0,1-6.83-4.11l-.73,4.22h-11l.75-13.32h11c-.05,4.29,5,5,7.57,5.12,2.12,0,5.13-.42,5-2.58-.16-3.93-22.88-2.28-22.23-14.44.34-6.5,8.06-9.33,13.36-9.33.82,0,1.63,0,2.44.12l0-3h3.41l.12,3.68a10.22,10.22,0,0,1,5.63,3.57l.34-3.57h9.33l1.12,11.05Z"/><path class="cls-12" d="M629.73,605.39a82.59,82.59,0,0,1-14.93,7.05,124.91,124.91,0,0,1-14.93,4.32c-4.74,1.08-9.72,2-14.93,2.61-4.81.6-9.8,1-14.93,1.23q-3.6.14-7.29.14-3.86,0-7.64-.16c-5.12-.21-10.11-.64-14.93-1.26-5.2-.66-10.19-1.55-14.93-2.64a123,123,0,0,1-14.93-4.38,80.9,80.9,0,0,1-14.92-7.13c-7.38-4.6-12.49-10-14.58-15.81v20c2.38,5.45,7.46,10.56,14.58,15a84.57,84.57,0,0,0,14.92,7.21,124.33,124.33,0,0,0,14.93,4.51c4.75,1.13,9.74,2,14.93,2.75q7.25,1,14.93,1.33c2.53.11,5.07.17,7.64.18s4.89-.06,7.29-.17c5.12-.22,10.11-.66,14.93-1.29a149,149,0,0,0,14.93-2.72,125.15,125.15,0,0,0,14.93-4.46,85.33,85.33,0,0,0,14.93-7.13c7.3-4.49,12.51-9.67,14.93-15.21v-20C642.53,595.29,637.29,600.74,629.73,605.39Z"/><path class="cls-9" d="M554.72,509.06c-45.27.06-81.93,16.77-81.93,37.38s36.66,37.3,81.93,37.37,81.94-12.53,81.94-37.37C636.66,525.83,600,509.12,554.72,509.06Z"/><path class="cls-10" d="M554.72,514.56c-37.72.05-68.26,12.47-68.26,27.8s30.54,27.76,68.26,27.81S623,557.69,623,542.36,592.45,514.61,554.72,514.56Z"/><path class="cls-11" d="M554.72,570.71l-.06-.54v-.55h.06q1.62,0,3.21,0l0,1.09C556.88,570.7,555.81,570.71,554.72,570.71Zm-3.36,0-3.29-.1,0-1.09,3.27.1Zm9.88-.1,0-1.09c1.1,0,2.19-.09,3.27-.16l.07,1.09C563.45,570.49,562.35,570.54,561.24,570.58Zm-16.47-.17c-1.1-.06-2.19-.14-3.28-.23l.08-1.08,3.27.23Zm23.05-.22-.08-1.08c1.09-.09,2.18-.19,3.26-.3l.11,1.09Zm-29.62-.31c-1.1-.11-2.19-.23-3.28-.37l.15-1.08c1.07.14,2.15.26,3.24.37Zm36.18-.35-.13-1.08,3.25-.43.15,1.08C576.58,569.25,575.49,569.4,574.38,569.53Zm-42.71-.46c-1.11-.16-2.19-.33-3.26-.51l.17-1.07c1.07.17,2.15.35,3.24.51Zm49.24-.49-.18-1.07c1.08-.19,2.16-.38,3.21-.59l.22,1.07C583.09,568.2,582,568.39,580.91,568.58ZM525.16,568c-1.1-.22-2.17-.44-3.23-.68l.24-1.06c1,.23,2.12.45,3.2.67Zm62.22-.65-.23-1.06c1.08-.25,2.14-.49,3.18-.76l.27,1.06C589.55,566.83,588.47,567.08,587.38,567.32Zm-68.66-.79c-1.08-.27-2.14-.56-3.19-.86l.3-1c1,.3,2.08.58,3.15.85Zm75.06-.82-.29-1.05c1.07-.3,2.11-.62,3.13-.94l.33,1C595.92,565.08,594.86,565.41,593.78,565.71Zm-81.41-1c-1.07-.35-2.11-.7-3.13-1.07l.37-1q1.51.54,3.09,1Zm87.71-1-.37-1c1-.37,2.06-.76,3-1.16l.41,1C602.17,562.92,601.14,563.31,600.08,563.7Zm-93.92-1.24c-1-.41-2.06-.86-3-1.32l.46-1c1,.46,2,.9,3,1.31Zm100-1.26-.45-1c1-.47,2-1,2.91-1.44l.51,1C608.23,560.23,607.23,560.72,606.2,561.2Zm-106-1.53c-1-.53-2-1.09-2.89-1.66l.58-.93c.89.56,1.84,1.1,2.81,1.63Zm111.89-1.58-.57-.93c.95-.59,1.86-1.2,2.69-1.81l.65.88C614,556.86,613,557.48,612.05,558.09Zm-117.53-2c-.93-.69-1.8-1.4-2.58-2.11l.74-.81a31.3,31.3,0,0,0,2.49,2Zm122.89-2-.74-.81a24.09,24.09,0,0,0,2.24-2.3l.83.7A25,25,0,0,1,617.41,554.12Zm-127.78-2.51a18.26,18.26,0,0,1-1.93-2.77l.94-.54a18.47,18.47,0,0,0,1.82,2.62Zm132-2.65-.94-.54a13.4,13.4,0,0,0,1.24-2.89l1,.31A14.88,14.88,0,0,1,621.68,549Zm-135.3-3.25a12.41,12.41,0,0,1-.46-3.35l1.08,0v0a11.34,11.34,0,0,0,.43,3Zm137.15-3.24-1.09,0H623l-.55-.1a10.82,10.82,0,0,0-.41-3l1.05-.29a12.22,12.22,0,0,1,.45,3.27Zm-136.08-3.22-1.05-.3a14.56,14.56,0,0,1,1.33-3.13l.95.54A14.33,14.33,0,0,0,487.45,539.25Zm133.38-2.77a17.43,17.43,0,0,0-1.8-2.61l.84-.7a18.47,18.47,0,0,1,1.92,2.78ZM490.5,533.77l-.83-.71a24.73,24.73,0,0,1,2.32-2.4l.73.8A22.78,22.78,0,0,0,490.5,533.77Zm126.32-2.23c-.76-.68-1.59-1.38-2.48-2l.64-.88c.93.69,1.8,1.41,2.58,2.12Zm-121.6-2.12-.64-.88c.85-.63,1.78-1.26,2.76-1.86l.57.93C497,528.2,496.05,528.81,495.22,529.42Zm116.44-1.74c-.89-.55-1.83-1.1-2.82-1.63l.52-1c1,.54,2,1.1,2.87,1.67ZM500.73,526l-.52-1c1-.5,2-1,3-1.47l.46,1C502.63,525,501.65,525.49,500.73,526Zm105.2-1.39c-1-.45-2-.89-3-1.31l.42-1c1,.43,2,.87,3,1.33Zm-99.3-1.36-.42-1c1-.4,2-.79,3.09-1.18l.38,1C508.63,522.45,507.61,522.84,506.63,523.24Zm93.27-1.12c-1-.36-2-.71-3.09-1l.34-1c1.07.34,2.1.7,3.12,1.07ZM512.76,521l-.33-1c1-.33,2.09-.65,3.16-1l.3,1.05C514.83,520.39,513.79,520.7,512.76,521Zm80.92-.91c-1-.29-2.08-.58-3.15-.85l.26-1.06c1.09.28,2.15.57,3.19.86Zm-74.63-.88-.27-1c1.06-.27,2.13-.53,3.22-.77l.24,1.06C521.15,518.72,520.09,519,519.05,519.24Zm68.29-.72c-1-.24-2.11-.46-3.2-.68l.22-1.07c1.09.22,2.16.44,3.22.68Zm-61.9-.7-.21-1.07c1.06-.21,2.14-.4,3.24-.59l.18,1.07C527.56,517.41,526.49,517.61,525.44,517.82Zm55.49-.56c-1.07-.19-2.15-.36-3.24-.52l.16-1.08c1.1.16,2.19.34,3.26.52Zm-49-.54-.16-1.07c1.07-.16,2.16-.31,3.27-.44l.13,1.08C534,516.42,533,516.57,531.89,516.72Zm42.57-.42-3.26-.37.11-1.08c1.11.11,2.19.24,3.28.38Zm-36.08-.38-.11-1.08c1.09-.11,2.18-.21,3.28-.3l.09,1.08C540.55,515.72,539.46,515.81,538.38,515.92Zm29.56-.28c-1.08-.09-2.17-.17-3.27-.23l.07-1.09c1.11.06,2.2.14,3.29.23Zm-23-.24-.07-1.08c1.09-.07,2.19-.13,3.29-.17l0,1.09C547.08,515.28,546,515.33,544.91,515.4Zm16.49-.16c-1.08,0-2.17-.08-3.27-.1l0-1.09c1.1,0,2.2.06,3.29.1Zm-9.95-.11,0-1.08c1.1,0,2.2,0,3.3,0h.14v1.09h-.14Z"/><path class="cls-11" d="M564.47,531.4c-.19-3.37-3.53-5.24-7.43-5.24-1.61,0-3.83.8-3.81,2.37,0,4.74,22.66,3.61,23.86,15.08.87,8.27-8,11.37-15.42,11.37-.76,0-1.51-.05-2.21-.11l.12,3.64h-4.07l-.08-4.48a16.18,16.18,0,0,1-6.83-4.11l-.73,4.22h-11l.75-13.31h11c-.05,4.28,5,5,7.57,5.11,2.12,0,5.13-.42,5-2.58-.16-3.92-22.88-2.28-22.23-14.43.34-6.5,8.06-9.33,13.36-9.33.82,0,1.63,0,2.44.12l0-3h3.41l.12,3.67a10.18,10.18,0,0,1,5.63,3.58l.34-3.58h9.33l1.12,11Z"/><path class="cls-12" d="M629.73,581.21a81.91,81.91,0,0,1-14.93,7,123.06,123.06,0,0,1-14.93,4.33c-4.74,1.08-9.72,2-14.93,2.61-4.81.6-9.8,1-14.93,1.22-2.4.1-4.83.16-7.29.16s-5.12-.06-7.64-.17c-5.12-.22-10.11-.64-14.93-1.26-5.2-.66-10.19-1.55-14.93-2.63a124.77,124.77,0,0,1-14.93-4.38A80.9,80.9,0,0,1,495.37,581c-7.38-4.6-12.49-10-14.58-15.81v20c2.38,5.45,7.46,10.56,14.58,15a83.88,83.88,0,0,0,14.92,7.21,122.54,122.54,0,0,0,14.93,4.51,150,150,0,0,0,14.93,2.75q7.25,1,14.93,1.33c2.53.11,5.07.18,7.64.18s4.89-.06,7.29-.17c5.12-.21,10.11-.65,14.93-1.29,5.2-.68,10.19-1.61,14.93-2.72a123.35,123.35,0,0,0,14.93-4.45,85.34,85.34,0,0,0,14.93-7.14c7.3-4.49,12.51-9.67,14.93-15.21V564.93C642.53,570.85,637.29,576.56,629.73,581.21Z"/><path class="cls-9" d="M562.72,503.56c-45.27.06-81.93,16.77-81.93,37.37s36.66,37.31,81.93,37.38,81.94-16.77,81.94-37.38S608,503.62,562.72,503.56Z"/><path class="cls-10" d="M562.72,509.79c-37.72,0-68.26,12.48-68.26,27.81s30.54,27.76,68.26,27.81S631,552.93,631,537.6,600.45,509.84,562.72,509.79Z"/><path class="cls-11" d="M562.72,566l-.06-.54v-.55h.06q1.62,0,3.21,0l0,1.09C564.88,565.94,563.81,566,562.72,566Zm-3.36,0-3.29-.1,0-1.1c1.09,0,2.17.08,3.27.1Zm9.88-.1,0-1.09c1.1,0,2.19-.1,3.27-.16l.07,1.09C571.45,565.72,570.35,565.78,569.24,565.82Zm-16.47-.17-3.28-.23.08-1.09c1.09.09,2.17.17,3.27.23Zm23.05-.22-.08-1.08c1.09-.1,2.18-.19,3.26-.3l.11,1.08C578,565.24,576.93,565.34,575.82,565.43Zm-29.62-.31c-1.1-.11-2.19-.24-3.28-.37l.15-1.08,3.24.37Zm36.18-.35-.13-1.08c1.1-.14,2.18-.28,3.25-.44l.15,1.08C584.58,564.49,583.49,564.63,582.38,564.77Zm-42.71-.46c-1.11-.16-2.19-.33-3.26-.51l.17-1.08q1.6.28,3.24.51Zm49.24-.49-.18-1.08c1.08-.18,2.16-.38,3.21-.58l.22,1.07C591.09,563.44,590,563.63,588.91,563.82Zm-55.75-.62c-1.1-.21-2.17-.44-3.23-.67l.24-1.07c1,.24,2.12.47,3.2.68Zm62.22-.64-.23-1.07q1.62-.36,3.18-.75l.27,1.06C597.55,562.06,596.47,562.32,595.38,562.56Zm-68.66-.8c-1.08-.27-2.14-.55-3.19-.85l.3-1c1,.28,2.08.57,3.15.84Zm75.06-.81-.29-1.05c1.07-.3,2.11-.61,3.13-.94l.33,1C603.92,560.32,602.86,560.64,601.78,561Zm-81.41-1c-1.07-.34-2.11-.7-3.13-1.06l.37-1q1.51.54,3.09,1Zm87.71-1-.37-1c1-.37,2.06-.76,3-1.17l.41,1C610.17,558.16,609.14,558.56,608.08,558.93Zm-93.92-1.23c-1-.41-2.06-.86-3-1.32l.46-1c1,.45,2,.89,3,1.31Zm100-1.26-.45-1c1-.46,2-1,2.91-1.44l.51,1C616.23,555.47,615.23,556,614.2,556.44Zm-106-1.54c-1-.53-2-1.08-2.89-1.65l.58-.93c.89.55,1.84,1.1,2.81,1.62Zm111.89-1.58-.57-.92c.95-.59,1.86-1.2,2.69-1.81l.65.88C622,552.1,621,552.72,620.05,553.32Zm-117.53-1.94c-.93-.69-1.8-1.4-2.58-2.11l.74-.81a31.3,31.3,0,0,0,2.49,2Zm122.89-2-.74-.81a24.09,24.09,0,0,0,2.24-2.3l.83.7A27.53,27.53,0,0,1,625.41,549.36Zm-127.78-2.51a18.26,18.26,0,0,1-1.93-2.77l.94-.54a17.84,17.84,0,0,0,1.82,2.61Zm132-2.66-.94-.54a13.12,13.12,0,0,0,1.24-2.88l1,.31A14.58,14.58,0,0,1,629.68,544.19Zm-135.3-3.25a12.29,12.29,0,0,1-.46-3.34l1.08,0v0a11.4,11.4,0,0,0,.43,3Zm137.15-3.23-1.09,0H631l-.55-.1a10.82,10.82,0,0,0-.41-3l1.05-.29a12.22,12.22,0,0,1,.45,3.27Zm-136.08-3.22-1.05-.3a14.28,14.28,0,0,1,1.33-3.12l.95.53A13.86,13.86,0,0,0,495.45,534.49Zm133.38-2.78a18,18,0,0,0-1.8-2.61l.84-.69a18.47,18.47,0,0,1,1.92,2.78ZM498.5,529l-.83-.71a26,26,0,0,1,2.32-2.41l.73.8A24,24,0,0,0,498.5,529Zm126.32-2.23c-.76-.69-1.59-1.38-2.48-2l.64-.87a31.4,31.4,0,0,1,2.58,2.12Zm-121.6-2.13-.64-.87c.85-.63,1.78-1.26,2.76-1.86l.57.92C505,523.43,504.05,524,503.22,524.65Zm116.44-1.73c-.89-.56-1.83-1.1-2.82-1.63l.52-1c1,.54,2,1.1,2.87,1.66Zm-110.93-1.69-.52-1c1-.51,2-1,3-1.48l.46,1C510.63,520.25,509.65,520.73,508.73,521.23Zm105.2-1.39c-1-.45-2-.89-3-1.31l.42-1c1,.43,2,.87,3,1.33Zm-99.3-1.36-.42-1c1-.4,2-.8,3.09-1.18l.38,1C516.63,517.69,515.61,518.08,514.63,518.48Zm93.27-1.12c-1-.36-2-.71-3.09-1.05l.34-1c1.07.34,2.1.69,3.12,1.06Zm-87.14-1.1-.33-1c1-.33,2.09-.65,3.16-1l.3,1.05C522.83,515.62,521.79,515.94,520.76,516.26Zm80.92-.9c-1-.3-2.08-.58-3.15-.85l.26-1.06c1.09.28,2.15.56,3.19.86Zm-74.63-.88-.27-1.06c1.06-.26,2.13-.52,3.22-.76l.24,1.06C529.15,514,528.09,514.21,527.05,514.48Zm68.29-.73c-1-.23-2.11-.45-3.2-.67l.22-1.06c1.09.2,2.16.43,3.22.67Zm-61.9-.69-.21-1.07c1.06-.21,2.14-.41,3.24-.59l.18,1.07C535.56,512.65,534.49,512.85,533.44,513.06Zm55.49-.57q-1.6-.27-3.24-.51l.16-1.08,3.26.52Zm-49-.53-.16-1.08c1.07-.16,2.16-.3,3.27-.44l.13,1.08C542,511.66,541,511.8,539.89,512Zm42.57-.42-3.26-.37.11-1.08c1.11.11,2.19.24,3.28.37Zm-36.08-.38-.11-1.08c1.09-.12,2.18-.21,3.28-.3l.09,1.08C548.55,511,547.46,511.05,546.38,511.16Zm29.56-.28q-1.62-.13-3.27-.24l.07-1.08c1.11.06,2.2.14,3.29.23Zm-23-.24-.07-1.09,3.29-.17,0,1.09C555.08,510.52,554,510.57,552.91,510.64Zm16.49-.16c-1.08,0-2.17-.08-3.27-.1l0-1.09c1.1,0,2.2.06,3.29.1Zm-9.95-.11,0-1.08c1.1,0,2.2,0,3.3,0h.14v1.09h-.14Z"/><path class="cls-11" d="M572.47,530.32c-.19-3.37-3.53-5.24-7.43-5.24-1.61,0-3.83.8-3.81,2.37,0,4.74,22.66,3.61,23.86,15.08.87,8.26-8,11.37-15.42,11.37-.76,0-1.51-.06-2.21-.11l.12,3.64h-4.07l-.08-4.48a16.28,16.28,0,0,1-6.83-4.11l-.73,4.22h-11l.75-13.31h11c-.05,4.28,5,5,7.57,5.12,2.12,0,5.13-.43,5-2.59-.16-3.92-22.88-2.28-22.23-14.43.34-6.5,8.06-9.33,13.36-9.33.82,0,1.63,0,2.44.12l0-3h3.41l.12,3.67a10.18,10.18,0,0,1,5.63,3.58l.34-3.58h9.33l1.12,11.05Z"/><path class="cls-12" d="M629.73,558.5a81.92,81.92,0,0,1-14.93,7,123.08,123.08,0,0,1-14.93,4.32q-7.11,1.62-14.93,2.62c-4.81.6-9.8,1-14.93,1.22q-3.6.15-7.29.15c-2.57,0-5.12-.06-7.64-.16-5.12-.22-10.11-.65-14.93-1.26-5.2-.67-10.19-1.56-14.93-2.64a123,123,0,0,1-14.93-4.38,80.9,80.9,0,0,1-14.92-7.14c-7.38-4.6-12.49-10-14.58-15.8v20c2.38,5.46,7.46,10.56,14.58,15a84.57,84.57,0,0,0,14.92,7.22,126.18,126.18,0,0,0,14.93,4.51c4.75,1.12,9.74,2,14.93,2.74q7.25,1,14.93,1.34c2.53.1,5.07.17,7.64.17s4.89-.06,7.29-.16c5.12-.22,10.11-.66,14.93-1.29,5.2-.69,10.19-1.61,14.93-2.72a125.15,125.15,0,0,0,14.93-4.46,86.06,86.06,0,0,0,14.93-7.13c7.3-4.49,12.51-9.67,14.93-15.22v-20C642.53,548.4,637.29,553.86,629.73,558.5Z"/><path class="cls-9" d="M562.72,484.53c-45.27.07-81.93,16.78-81.93,37.38s36.66,37.31,81.93,37.37,81.94-16.77,81.94-37.37S608,484.6,562.72,484.53Z"/><path class="cls-10" d="M562.72,490.77c-37.72.05-68.26,12.48-68.26,27.8s30.54,27.76,68.26,27.81S631,533.9,631,518.57,600.45,490.82,562.72,490.77Z"/><path class="cls-11" d="M562.72,546.93l-.06-.55v-.54h.06l3.21,0,0,1.09C564.88,546.91,563.81,546.93,562.72,546.93Zm-3.36,0c-1.1,0-2.21-.06-3.29-.1l0-1.09c1.09,0,2.17.08,3.27.1Zm9.88-.09,0-1.09,3.27-.16.07,1.08C571.45,546.7,570.35,546.75,569.24,546.8Zm-16.47-.18c-1.1-.06-2.19-.14-3.28-.23l.08-1.08,3.27.23Zm23.05-.22-.08-1.08c1.09-.09,2.18-.19,3.26-.3l.11,1.08C578,546.21,576.93,546.31,575.82,546.4Zm-29.62-.31c-1.1-.1-2.19-.23-3.28-.37l.15-1.07c1.07.12,2.15.25,3.24.36Zm36.18-.35-.13-1.08c1.1-.13,2.18-.27,3.25-.44l.15,1.08C584.58,545.46,583.49,545.61,582.38,545.74Zm-42.71-.46c-1.11-.15-2.19-.33-3.26-.51l.17-1.07q1.6.27,3.24.51Zm49.24-.49-.18-1.07c1.08-.19,2.16-.38,3.21-.58l.22,1.06C591.09,544.41,590,544.61,588.91,544.79Zm-55.75-.62c-1.1-.2-2.17-.43-3.23-.67l.24-1.06c1,.23,2.12.46,3.2.67Zm62.22-.64-.23-1.06q1.62-.36,3.18-.75l.27,1C597.55,543,596.47,543.29,595.38,543.53Zm-68.66-.79c-1.08-.27-2.14-.56-3.19-.85l.3-1c1,.29,2.08.58,3.15.85Zm75.06-.82-.29-1c1.07-.3,2.11-.62,3.13-.94l.33,1C603.92,541.3,602.86,541.62,601.78,541.92Zm-81.41-1c-1.07-.35-2.11-.7-3.13-1.06l.37-1q1.51.54,3.09,1Zm87.71-1-.37-1c1-.38,2.06-.77,3-1.17l.41,1C610.17,539.13,609.14,539.53,608.08,539.91Zm-93.92-1.23c-1-.42-2.06-.87-3-1.32l.46-1c1,.45,2,.88,3,1.3Zm100-1.27-.45-1c1-.46,2-.95,2.91-1.44l.51,1C616.23,536.44,615.23,536.94,614.2,537.41Zm-106-1.53c-1-.54-2-1.09-2.89-1.66l.58-.93c.89.56,1.84,1.11,2.81,1.63Zm111.89-1.59-.57-.92c.95-.59,1.86-1.2,2.69-1.81l.65.88C622,533.07,621,533.7,620.05,534.29Zm-117.53-1.93c-.93-.7-1.8-1.41-2.58-2.12l.74-.8c.75.68,1.59,1.37,2.49,2Zm122.89-2-.74-.8a26.69,26.69,0,0,0,2.24-2.3l.83.7A26.12,26.12,0,0,1,625.41,530.33Zm-127.78-2.51a18.26,18.26,0,0,1-1.93-2.77l.94-.53a18.32,18.32,0,0,0,1.82,2.6Zm132-2.65-.94-.54a13.54,13.54,0,0,0,1.24-2.88l1,.3A14.88,14.88,0,0,1,629.68,525.17Zm-135.3-3.25a12.36,12.36,0,0,1-.46-3.35l1.08,0v0a11.34,11.34,0,0,0,.43,3Zm137.15-3.24H631l-.55-.11a10.87,10.87,0,0,0-.41-3l1.05-.29a12.22,12.22,0,0,1,.45,3.27Zm-136.08-3.21-1.05-.3a14.15,14.15,0,0,1,1.33-3.13l.95.54A13.64,13.64,0,0,0,495.45,515.47Zm133.38-2.78a16.94,16.94,0,0,0-1.8-2.61l.84-.69a18.4,18.4,0,0,1,1.92,2.77ZM498.5,510l-.83-.7a24.87,24.87,0,0,1,2.32-2.42l.73.81A25.09,25.09,0,0,0,498.5,510Zm126.32-2.22c-.76-.7-1.59-1.38-2.48-2.06l.64-.87c.93.7,1.8,1.41,2.58,2.12Zm-121.6-2.13-.64-.88c.85-.63,1.78-1.25,2.76-1.86l.57.93C505,504.41,504.05,505,503.22,505.63Zm116.44-1.74c-.89-.55-1.83-1.1-2.82-1.63l.52-.95c1,.53,2,1.09,2.87,1.65ZM508.73,502.2l-.52-1c1-.5,2-1,3-1.47l.46,1C510.63,501.22,509.65,501.71,508.73,502.2Zm105.2-1.38c-1-.46-2-.9-3-1.31l.42-1c1,.42,2,.86,3,1.33Zm-99.3-1.36-.42-1c1-.41,2-.8,3.09-1.19l.38,1C516.63,498.67,515.61,499.05,514.63,499.46Zm93.27-1.13c-1-.36-2-.71-3.09-1.05l.34-1c1.07.35,2.1.7,3.12,1.07Zm-87.14-1.1-.33-1c1-.33,2.09-.65,3.16-.95l.3,1.05C522.83,496.6,521.79,496.91,520.76,497.23Zm80.92-.9c-1-.3-2.08-.58-3.15-.85l.26-1.05c1.09.27,2.15.56,3.19.86Zm-74.63-.88-.27-1.05c1.06-.28,2.13-.52,3.22-.77l.24,1.06C529.15,494.94,528.09,495.19,527.05,495.45Zm68.29-.73c-1-.23-2.11-.45-3.2-.67l.22-1.06c1.09.21,2.16.44,3.22.67Zm-61.9-.69-.21-1.07c1.06-.21,2.14-.41,3.24-.59l.18,1.07C535.56,493.63,534.49,493.82,533.44,494Zm55.49-.56c-1.07-.19-2.15-.36-3.24-.52l.16-1.07c1.1.16,2.19.33,3.26.51Zm-49-.53-.16-1.08c1.07-.16,2.16-.3,3.27-.44l.13,1.08C542,492.64,541,492.78,539.89,492.94Zm42.57-.42c-1.08-.14-2.16-.26-3.26-.37l.11-1.09c1.11.12,2.19.24,3.28.38Zm-36.08-.39-.11-1.08c1.09-.11,2.18-.21,3.28-.3l.09,1.09C548.55,491.93,547.46,492,546.38,492.13Zm29.56-.28c-1.08-.09-2.17-.16-3.27-.23l.07-1.09c1.11.07,2.2.14,3.29.23Zm-23-.24-.07-1.09c1.09-.07,2.19-.11,3.29-.16l0,1.09C555.08,491.49,554,491.55,552.91,491.61Zm16.49-.15c-1.08,0-2.17-.08-3.27-.11l0-1.08c1.1,0,2.2.05,3.29.1Zm-9.95-.11,0-1.09c1.1,0,2.2,0,3.3,0h.14v1.1h-.14Q561.09,491.32,559.45,491.35Z"/><path class="cls-11" d="M572.47,511.3c-.19-3.38-3.53-5.25-7.43-5.25-1.61,0-3.83.8-3.81,2.37,0,4.74,22.66,3.62,23.86,15.09.87,8.26-8,11.36-15.42,11.36-.76,0-1.51,0-2.21-.11l.12,3.64h-4.07l-.08-4.48a16.18,16.18,0,0,1-6.83-4.11l-.73,4.22h-11l.75-13.3h11c-.05,4.28,5,5,7.57,5.11,2.12,0,5.13-.42,5-2.59-.16-3.92-22.88-2.27-22.23-14.42.34-6.51,8.06-9.34,13.36-9.34.82,0,1.63,0,2.44.12l0-3h3.41l.12,3.67a10.28,10.28,0,0,1,5.63,3.58l.34-3.58h9.33l1.12,11.06Z"/><path class="cls-12" d="M629.73,535.8a83.27,83.27,0,0,1-14.93,7.05,126.79,126.79,0,0,1-14.93,4.32c-4.74,1.07-9.72,2-14.93,2.61-4.81.6-9.8,1-14.93,1.22q-3.6.15-7.29.16c-2.57,0-5.12-.06-7.64-.17-5.12-.22-10.11-.64-14.93-1.26-5.2-.66-10.19-1.56-14.93-2.64a123,123,0,0,1-14.93-4.38,80.9,80.9,0,0,1-14.92-7.13c-7.38-4.6-12.49-10-14.58-15.81v20c2.38,5.45,7.46,10.56,14.58,15A84.57,84.57,0,0,0,510.29,562a124.33,124.33,0,0,0,14.93,4.51c4.75,1.12,9.74,2,14.93,2.75,4.83.64,9.81,1.1,14.93,1.33,2.53.11,5.07.17,7.64.18s4.89-.07,7.29-.17c5.12-.22,10.11-.66,14.93-1.29,5.2-.69,10.19-1.61,14.93-2.72a125.15,125.15,0,0,0,14.93-4.46A86.06,86.06,0,0,0,629.73,555c7.3-4.49,12.51-9.68,14.93-15.21v-20C642.53,525.69,637.29,531.15,629.73,535.8Z"/><path class="cls-9" d="M562.72,457.41c-45.27.07-81.93,16.77-81.93,37.38s36.66,37.31,81.93,37.37,81.94-16.77,81.94-37.37S608,457.48,562.72,457.41Z"/><path class="cls-10" d="M562.72,463.65c-37.72,0-68.26,12.47-68.26,27.8s30.54,27.77,68.26,27.81S631,506.78,631,491.45,600.45,463.69,562.72,463.65Z"/><path class="cls-11" d="M562.72,519.8l-.06-.54v-.54h.06c1.08,0,2.15,0,3.21,0l0,1.09C564.88,519.79,563.81,519.8,562.72,519.8Zm-3.36,0c-1.1,0-2.21-.06-3.29-.11l0-1.08,3.27.1Zm9.88-.1,0-1.09c1.1,0,2.19-.09,3.27-.16l.07,1.09C571.45,519.57,570.35,519.63,569.24,519.67Zm-16.47-.17-3.28-.23.08-1.09c1.09.09,2.17.17,3.27.23Zm23.05-.22-.08-1.09c1.09-.09,2.18-.18,3.26-.29l.11,1.08C578,519.09,576.93,519.19,575.82,519.28ZM546.2,519c-1.1-.11-2.19-.23-3.28-.37l.15-1.08,3.24.37Zm36.18-.36-.13-1.07c1.1-.13,2.18-.28,3.25-.44l.15,1.08C584.58,518.34,583.49,518.49,582.38,518.61Zm-42.71-.44-3.26-.52.17-1.08c1.07.19,2.15.35,3.24.52Zm49.24-.5-.18-1.08c1.08-.18,2.16-.37,3.21-.58l.22,1.07C591.09,517.28,590,517.49,588.91,517.67Zm-55.75-.62c-1.1-.21-2.17-.44-3.23-.67l.24-1.06c1,.23,2.12.46,3.2.67Zm62.22-.64-.23-1.07c1.08-.24,2.14-.49,3.18-.74l.27,1C597.55,515.92,596.47,516.17,595.38,516.41Zm-68.66-.79c-1.08-.28-2.14-.56-3.19-.86l.3-1c1,.3,2.08.58,3.15.85Zm75.06-.82-.29-1c1.07-.3,2.11-.62,3.13-.94l.33,1C603.92,514.17,602.86,514.49,601.78,514.8Zm-81.41-1c-1.07-.34-2.11-.69-3.13-1.06l.37-1c1,.37,2,.72,3.09,1.06Zm87.71-1-.37-1c1-.37,2.06-.76,3-1.16l.41,1C610.17,512,609.14,512.4,608.08,512.78Zm-93.92-1.23c-1-.41-2.06-.86-3-1.31l.46-1c1,.44,2,.88,3,1.3Zm100-1.26-.45-1c1-.46,2-.95,2.91-1.44l.51,1C616.23,509.32,615.23,509.81,614.2,510.29Zm-106-1.54c-1-.53-2-1.08-2.89-1.65l.58-.93c.89.56,1.84,1.1,2.81,1.62Zm111.89-1.58-.57-.92c.95-.59,1.86-1.2,2.69-1.81l.65.88C622,506,621,506.57,620.05,507.17Zm-117.53-1.94c-.93-.69-1.8-1.4-2.58-2.11l.74-.81a31.3,31.3,0,0,0,2.49,2.05Zm122.89-2-.74-.81a24.09,24.09,0,0,0,2.24-2.3l.83.71A27.45,27.45,0,0,1,625.41,503.21ZM497.63,500.7a18.26,18.26,0,0,1-1.93-2.77l.94-.53a18.32,18.32,0,0,0,1.82,2.6Zm132-2.65-.94-.54a13.4,13.4,0,0,0,1.24-2.89l1,.31A14.88,14.88,0,0,1,629.68,498.05Zm-135.3-3.26a12.23,12.23,0,0,1-.46-3.34l1.08,0v0a11.34,11.34,0,0,0,.43,3.05Zm137.15-3.23H631l-.55-.1a10.94,10.94,0,0,0-.41-3l1.05-.28a12.22,12.22,0,0,1,.45,3.27Zm-136.08-3.22-1.05-.3a14.28,14.28,0,0,1,1.33-3.12l.95.53A13.86,13.86,0,0,0,495.45,488.34Zm133.38-2.77A17.51,17.51,0,0,0,627,483l.84-.69a19,19,0,0,1,1.92,2.78ZM498.5,482.86l-.83-.71a26,26,0,0,1,2.32-2.41l.73.81A22.78,22.78,0,0,0,498.5,482.86Zm126.32-2.22c-.76-.7-1.59-1.39-2.48-2.06l.64-.87c.93.69,1.8,1.41,2.58,2.12Zm-121.6-2.13-.64-.88c.85-.63,1.78-1.26,2.76-1.86l.57.92C505,477.28,504.05,477.89,503.22,478.51Zm116.44-1.74c-.89-.56-1.83-1.1-2.82-1.63l.52-1c1,.54,2,1.1,2.87,1.66Zm-110.93-1.69-.52-1c1-.51,2-1,3-1.48l.46,1C510.63,474.1,509.65,474.59,508.73,475.08Zm105.2-1.4c-1-.44-2-.88-3-1.29l.42-1c1,.43,2,.88,3,1.33Zm-99.3-1.35-.42-1c1-.4,2-.8,3.09-1.18l.38,1C516.63,471.54,515.61,471.93,514.63,472.33Zm93.27-1.12c-1-.36-2-.72-3.09-1.06l.34-1c1.07.34,2.1.7,3.12,1.07Zm-87.14-1.09-.33-1.05c1-.32,2.09-.64,3.16-.95l.3,1.05C522.83,469.47,521.79,469.78,520.76,470.12Zm80.92-.91c-1-.3-2.08-.58-3.15-.85l.26-1.06c1.09.28,2.15.56,3.19.86Zm-74.63-.88-.27-1.06c1.06-.27,2.13-.52,3.22-.76l.24,1.06C529.15,467.82,528.09,468.06,527.05,468.33Zm68.29-.73c-1-.23-2.11-.45-3.2-.67l.22-1.07c1.09.22,2.16.45,3.22.68Zm-61.9-.69-.21-1.07q1.59-.31,3.24-.6l.18,1.08C535.56,466.51,534.49,466.7,533.44,466.91Zm55.49-.57q-1.6-.27-3.24-.51l.16-1.07c1.1.15,2.19.33,3.26.51Zm-49-.53-.16-1.08c1.07-.16,2.16-.3,3.27-.44l.13,1.08Zm42.57-.42c-1.08-.13-2.16-.25-3.26-.36l.11-1.09c1.11.11,2.19.23,3.28.37ZM546.38,465l-.11-1.08c1.09-.11,2.18-.21,3.28-.3l.09,1.08C548.55,464.8,547.46,464.9,546.38,465Zm29.56-.28q-1.62-.14-3.27-.24l.07-1.08c1.11.07,2.2.14,3.29.23Zm-23-.24-.07-1.09c1.09-.07,2.19-.12,3.29-.16l0,1.09C555.08,464.37,554,464.42,552.91,464.49Zm16.49-.16c-1.08,0-2.17-.08-3.27-.1l0-1.09,3.29.1Zm-9.95-.1,0-1.09c1.1,0,2.2,0,3.3,0h.14v1.09h-.14C561.63,464.19,560.54,464.2,559.45,464.23Z"/><path class="cls-11" d="M572.47,484.17c-.19-3.37-3.53-5.24-7.43-5.24-1.61,0-3.83.8-3.81,2.37,0,4.74,22.66,3.61,23.86,15.09.87,8.26-8,11.36-15.42,11.36-.76,0-1.51-.05-2.21-.11l.12,3.63h-4.07l-.08-4.47a16.18,16.18,0,0,1-6.83-4.11l-.73,4.22h-11l.75-13.31h11c-.05,4.28,5,5,7.57,5.12,2.12,0,5.13-.42,5-2.59-.16-3.92-22.88-2.28-22.23-14.43.34-6.5,8.06-9.33,13.36-9.33.82,0,1.63,0,2.44.12l0-3h3.41l.12,3.67A10.23,10.23,0,0,1,572,476.7l.34-3.58h9.33l1.12,11.05Z"/><path class="cls-12" d="M629.73,512.35a82.59,82.59,0,0,1-14.93,7,124.89,124.89,0,0,1-14.93,4.33c-4.74,1.07-9.72,1.95-14.93,2.61-4.81.6-9.8,1-14.93,1.22q-3.6.15-7.29.15c-2.57,0-5.12-.06-7.64-.16-5.12-.22-10.11-.64-14.93-1.26-5.2-.66-10.19-1.56-14.93-2.64a123,123,0,0,1-14.93-4.38,80.9,80.9,0,0,1-14.92-7.13c-7.38-4.6-12.49-10-14.58-15.81v20c2.38,5.46,7.46,10.57,14.58,15a83.88,83.88,0,0,0,14.92,7.22,126.18,126.18,0,0,0,14.93,4.51c4.75,1.12,9.74,2.05,14.93,2.74q7.25,1,14.93,1.34c2.53.11,5.07.17,7.64.17s4.89-.06,7.29-.16c5.12-.22,10.11-.66,14.93-1.29,5.2-.69,10.19-1.61,14.93-2.72a125.15,125.15,0,0,0,14.93-4.46,85.33,85.33,0,0,0,14.93-7.13c7.3-4.49,12.51-9.67,14.93-15.22v-20C642.53,502.26,637.29,507.71,629.73,512.35Z"/><path class="cls-9" d="M562.72,434.7c-45.27.07-81.93,16.78-81.93,37.37s36.66,37.32,81.93,37.38,81.94-16.77,81.94-37.38S608,434.77,562.72,434.7Z"/><path class="cls-10" d="M562.72,440.94c-37.72.05-68.26,12.48-68.26,27.8s30.54,27.77,68.26,27.81S631,484.07,631,468.74,600.45,441,562.72,440.94Z"/><path class="cls-11" d="M562.72,497.1l-.06-.55V496h.06c1.08,0,2.15,0,3.21,0l0,1.09Zm-3.36,0c-1.1,0-2.21-.06-3.29-.1l0-1.09c1.09,0,2.17.08,3.27.1Zm9.88-.1,0-1.09c1.1,0,2.19-.09,3.27-.16l.07,1.09C571.45,496.87,570.35,496.92,569.24,497Zm-16.47-.17c-1.1-.07-2.19-.14-3.28-.23l.08-1.08,3.27.23Zm23.05-.22-.08-1.08c1.09-.09,2.18-.19,3.26-.3l.11,1.08C578,496.39,576.93,496.48,575.82,496.57Zm-29.62-.31c-1.1-.11-2.19-.23-3.28-.37l.15-1.07c1.07.13,2.15.24,3.24.36Zm36.18-.35-.13-1.08c1.1-.13,2.18-.28,3.25-.43l.15,1.07C584.58,495.63,583.49,495.78,582.38,495.91Zm-42.71-.46c-1.11-.15-2.19-.33-3.26-.51l.17-1.07q1.6.27,3.24.51Zm49.24-.49-.18-1.07c1.08-.18,2.16-.38,3.21-.59l.22,1.07C591.09,494.58,590,494.78,588.91,495Zm-55.75-.61c-1.1-.21-2.17-.44-3.23-.68l.24-1.06c1,.23,2.12.46,3.2.67Zm62.22-.65-.23-1.06q1.62-.36,3.18-.75l.27,1.05C597.55,493.21,596.47,493.46,595.38,493.7Zm-68.66-.79c-1.08-.27-2.14-.56-3.19-.85l.3-1.05c1,.29,2.08.58,3.15.85Zm75.06-.82-.29-1c1.07-.29,2.11-.61,3.13-.94l.33,1C603.92,491.47,602.86,491.79,601.78,492.09Zm-81.41-1c-1.07-.34-2.11-.7-3.13-1.06l.37-1c1,.37,2,.71,3.09,1.05Zm87.71-1-.37-1c1-.38,2.06-.77,3-1.17l.41,1C610.17,489.3,609.14,489.7,608.08,490.08Zm-93.92-1.23c-1-.42-2.06-.86-3-1.33l.46-1c1,.45,2,.89,3,1.3Zm100-1.27-.45-1c1-.47,2-1,2.91-1.45l.51,1C616.23,486.61,615.23,487.11,614.2,487.58Zm-106-1.53c-1-.53-2-1.09-2.89-1.66l.58-.92c.89.55,1.84,1.1,2.81,1.62Zm111.89-1.58-.57-.93c.95-.59,1.86-1.2,2.69-1.81l.65.88C622,483.24,621,483.87,620.05,484.47Zm-117.53-1.94c-.93-.69-1.8-1.41-2.58-2.12l.74-.81a31.3,31.3,0,0,0,2.49,2Zm122.89-2-.74-.8a25.32,25.32,0,0,0,2.24-2.3l.83.7A26.12,26.12,0,0,1,625.41,480.5ZM497.63,478a17.78,17.78,0,0,1-1.93-2.77l.94-.54a18.47,18.47,0,0,0,1.82,2.62Zm132-2.65-.94-.54a13.54,13.54,0,0,0,1.24-2.88l1,.31A15,15,0,0,1,629.68,475.34Zm-135.3-3.25a12.36,12.36,0,0,1-.46-3.35l1.08,0v0a11.34,11.34,0,0,0,.43,3.05Zm137.15-3.24H631l-.55-.11a10.92,10.92,0,0,0-.41-3l1.05-.29a12.22,12.22,0,0,1,.45,3.27Zm-136.08-3.21-1.05-.3a14.15,14.15,0,0,1,1.33-3.13l.95.54A13.86,13.86,0,0,0,495.45,465.64Zm133.38-2.78a16.94,16.94,0,0,0-1.8-2.61l.84-.7a19,19,0,0,1,1.92,2.78ZM498.5,460.15l-.83-.7A23.71,23.71,0,0,1,500,457l.73.8A23.88,23.88,0,0,0,498.5,460.15Zm126.32-2.22c-.76-.69-1.59-1.38-2.48-2.05L623,455a31.4,31.4,0,0,1,2.58,2.12Zm-121.6-2.13-.64-.88c.85-.63,1.78-1.26,2.76-1.86l.57.92C505,454.57,504.05,455.18,503.22,455.8Zm116.44-1.74c-.89-.55-1.83-1.1-2.82-1.62l.52-1c1,.54,2,1.09,2.87,1.66Zm-110.93-1.69-.52-1c1-.5,2-1,3-1.47l.46,1C510.63,451.39,509.65,451.88,508.73,452.37ZM613.93,451c-1-.45-2-.89-3-1.31l.42-1c1,.42,2,.86,3,1.33Zm-99.3-1.35-.42-1c1-.41,2-.81,3.09-1.19l.38,1C516.63,448.83,515.61,449.22,514.63,449.63Zm93.27-1.13c-1-.36-2-.71-3.09-1.05l.34-1c1.07.34,2.1.69,3.12,1.06Zm-87.14-1.1-.33-1c1-.33,2.09-.65,3.16-1l.3,1C522.83,446.77,521.79,447.08,520.76,447.4Zm80.92-.9c-1-.3-2.08-.57-3.15-.85l.26-1c1.09.27,2.15.56,3.19.85Zm-74.63-.88-.27-1.06c1.06-.26,2.13-.52,3.22-.76l.24,1.07C529.15,445.11,528.09,445.36,527.05,445.62Zm68.29-.72c-1-.24-2.11-.46-3.2-.67l.22-1.07c1.09.21,2.16.44,3.22.67Zm-61.9-.7-.21-1.07c1.06-.21,2.14-.4,3.24-.59l.18,1.07C535.56,443.8,534.49,444,533.44,444.2Zm55.49-.56c-1.07-.19-2.15-.36-3.24-.52l.16-1.07c1.1.16,2.19.33,3.26.51Zm-49-.54-.16-1.07c1.07-.16,2.16-.3,3.27-.44l.13,1.08C542,442.8,541,443,539.89,443.1Zm42.57-.42c-1.08-.13-2.16-.25-3.26-.36l.11-1.08c1.11.11,2.19.23,3.28.36Zm-36.08-.38-.11-1.08c1.09-.11,2.18-.21,3.28-.3l.09,1.09Zm29.56-.28c-1.08-.09-2.17-.17-3.27-.23l.07-1.09,3.29.23Zm-23-.24-.07-1.09,3.29-.16,0,1.09C555.08,441.66,554,441.72,552.91,441.78Zm16.49-.16-3.27-.1,0-1.08c1.1,0,2.2.05,3.29.09Zm-9.95-.11,0-1.08,3.3,0h.14v1.08h-.14Z"/><path class="cls-11" d="M572.47,461.46c-.19-3.36-3.53-5.24-7.43-5.24-1.61,0-3.83.8-3.81,2.37,0,4.74,22.66,3.62,23.86,15.09.87,8.26-8,11.36-15.42,11.36-.76,0-1.51-.05-2.21-.11l.12,3.64h-4.07l-.08-4.48a16.27,16.27,0,0,1-6.83-4.1l-.73,4.21h-11l.75-13.3h11c-.05,4.27,5,5,7.57,5.11,2.12,0,5.13-.42,5-2.58-.16-3.93-22.88-2.28-22.23-14.44.34-6.5,8.06-9.33,13.36-9.33a22,22,0,0,1,2.44.13l0-3.05h3.41l.12,3.67A10.24,10.24,0,0,1,572,454l.34-3.59h9.33l1.12,11Z"/><path class="cls-12" d="M629.73,489.65a82.59,82.59,0,0,1-14.93,7.05A126.79,126.79,0,0,1,599.87,501c-4.74,1.07-9.72,2-14.93,2.61-4.81.6-9.8,1-14.93,1.22-2.4.1-4.83.16-7.29.16s-5.12-.06-7.64-.17c-5.12-.22-10.11-.64-14.93-1.26-5.2-.66-10.19-1.56-14.93-2.64a123,123,0,0,1-14.93-4.38,80.9,80.9,0,0,1-14.92-7.13c-7.38-4.6-12.49-10-14.58-15.81v20c2.38,5.45,7.46,10.56,14.58,15a84.57,84.57,0,0,0,14.92,7.21,124.33,124.33,0,0,0,14.93,4.51c4.75,1.13,9.74,2,14.93,2.75,4.83.64,9.81,1.1,14.93,1.33,2.53.11,5.07.17,7.64.18s4.89-.07,7.29-.17c5.12-.22,10.11-.66,14.93-1.29,5.2-.69,10.19-1.6,14.93-2.72A123.33,123.33,0,0,0,614.8,516a84.63,84.63,0,0,0,14.93-7.13c7.3-4.48,12.51-9.67,14.93-15.21v-20C642.53,479.55,637.29,485,629.73,489.65Z"/><path class="cls-9" d="M562.72,411.26c-45.27.06-81.93,16.77-81.93,37.37S517.45,486,562.72,486s81.94-16.77,81.94-37.38S608,411.32,562.72,411.26Z"/><path class="cls-10" d="M562.72,417.5c-37.72,0-68.26,12.47-68.26,27.8s30.54,27.76,68.26,27.81S631,460.63,631,445.3,600.45,417.54,562.72,417.5Z"/><path class="cls-11" d="M562.72,473.65l-.06-.54v-.54h.06c1.08,0,2.15,0,3.21,0l0,1.09C564.88,473.64,563.81,473.65,562.72,473.65Zm-3.36,0-3.29-.1,0-1.1c1.09.05,2.17.09,3.27.11Zm9.88-.1,0-1.09c1.1,0,2.19-.09,3.27-.16l.07,1.09C571.45,473.42,570.35,473.48,569.24,473.52Zm-16.47-.17c-1.1-.07-2.19-.14-3.28-.23l.08-1.08c1.09.08,2.17.16,3.27.22Zm23.05-.22-.08-1.08c1.09-.09,2.18-.19,3.26-.3l.11,1.08C578,473,576.93,473,575.82,473.13Zm-29.62-.31c-1.1-.11-2.19-.23-3.28-.37l.15-1.08c1.07.13,2.15.26,3.24.37Zm36.18-.35-.13-1.08c1.1-.13,2.18-.28,3.25-.43l.15,1.07C584.58,472.19,583.49,472.34,582.38,472.47ZM539.67,472l-3.26-.52.17-1.08c1.07.18,2.15.36,3.24.52Zm49.24-.5-.18-1.08c1.08-.18,2.16-.37,3.21-.58l.22,1.07C591.09,471.14,590,471.33,588.91,471.52Zm-55.75-.61c-1.1-.22-2.17-.44-3.23-.68l.24-1.06c1,.23,2.12.45,3.2.67Zm62.22-.65-.23-1.06c1.08-.24,2.14-.5,3.18-.76l.27,1.06C597.55,469.76,596.47,470,595.38,470.26Zm-68.66-.79c-1.08-.27-2.14-.56-3.19-.86l.3-1.05c1,.3,2.08.58,3.15.86Zm75.06-.82-.29-1c1.07-.3,2.11-.61,3.13-.94l.33,1C603.92,468,602.86,468.35,601.78,468.65Zm-81.41-1c-1.07-.34-2.11-.7-3.13-1.07l.37-1c1,.37,2,.72,3.09,1.06Zm87.71-1-.37-1c1-.37,2.06-.76,3-1.16l.41,1C610.17,465.86,609.14,466.25,608.08,466.64Zm-93.92-1.24c-1-.42-2.06-.86-3-1.32l.46-1c1,.44,2,.89,3,1.3Zm100-1.26-.45-1c1-.47,2-.95,2.91-1.45l.51,1C616.23,463.17,615.23,463.66,614.2,464.14Zm-106-1.53c-1-.54-2-1.09-2.89-1.66l.58-.93c.89.56,1.84,1.1,2.81,1.63ZM620.05,461l-.57-.92c.95-.59,1.86-1.2,2.69-1.81l.65.88C622,459.8,621,460.42,620.05,461Zm-117.53-1.93c-.93-.7-1.8-1.41-2.58-2.12l.74-.8c.75.68,1.59,1.37,2.49,2Zm122.89-2-.74-.8a25.39,25.39,0,0,0,2.24-2.31l.83.71A27.45,27.45,0,0,1,625.41,457.06Zm-127.78-2.51a18.26,18.26,0,0,1-1.93-2.77l.94-.54a18.47,18.47,0,0,0,1.82,2.62Zm132-2.65-.94-.54a13.54,13.54,0,0,0,1.24-2.88l1,.3A14.88,14.88,0,0,1,629.68,451.9Zm-135.3-3.25a12.41,12.41,0,0,1-.46-3.35l1.08,0v0a11.34,11.34,0,0,0,.43,3.05Zm137.15-3.24-1.09,0,.55,0-.55-.11a10.82,10.82,0,0,0-.41-3l1.05-.29a12.22,12.22,0,0,1,.45,3.27Zm-136.08-3.22-1.05-.3a14.28,14.28,0,0,1,1.33-3.12l.95.53A14.33,14.33,0,0,0,495.45,442.19Zm133.38-2.77a17.51,17.51,0,0,0-1.8-2.62l.84-.69a19,19,0,0,1,1.92,2.78ZM498.5,436.71l-.83-.71a24.73,24.73,0,0,1,2.32-2.4l.73.8A23.88,23.88,0,0,0,498.5,436.71Zm126.32-2.22a30.38,30.38,0,0,0-2.48-2.05l.64-.88c.93.7,1.8,1.41,2.58,2.13Zm-121.6-2.13-.64-.88c.85-.63,1.78-1.25,2.76-1.86l.57.92C505,431.13,504.05,431.75,503.22,432.36Zm116.44-1.74c-.89-.56-1.83-1.1-2.82-1.63l.52-1c1,.54,2,1.1,2.87,1.66Zm-110.93-1.7-.52-.95c1-.5,2-1,3-1.47l.46,1C510.63,428,509.65,428.44,508.73,428.92Zm105.2-1.38c-1-.45-2-.89-3-1.3l.42-1c1,.43,2,.87,3,1.33Zm-99.3-1.36-.42-1c1-.41,2-.8,3.09-1.19l.38,1C516.63,425.39,515.61,425.79,514.63,426.18Zm93.27-1.12c-1-.36-2-.71-3.09-1.05l.34-1c1.07.34,2.1.7,3.12,1.07ZM520.76,424l-.33-1c1-.33,2.09-.65,3.16-1l.3,1C522.83,423.33,521.79,423.64,520.76,424Zm80.92-.91c-1-.3-2.08-.58-3.15-.85l.26-1.06c1.09.28,2.15.57,3.19.86Zm-74.63-.88-.27-1.06c1.06-.26,2.13-.52,3.22-.76l.24,1.06C529.15,421.66,528.09,421.91,527.05,422.18Zm68.29-.73c-1-.23-2.11-.45-3.2-.67l.22-1.07c1.09.22,2.16.44,3.22.68Zm-61.9-.69-.21-1.07c1.06-.21,2.14-.4,3.24-.59l.18,1.07C535.56,420.36,534.49,420.55,533.44,420.76Zm55.49-.57q-1.6-.27-3.24-.51l.16-1.08c1.1.16,2.19.33,3.26.52Zm-49-.53-.16-1.08c1.07-.16,2.16-.3,3.27-.43l.13,1.08C542,419.36,541,419.51,539.89,419.66Zm42.57-.42c-1.08-.13-2.16-.26-3.26-.37l.11-1.08c1.11.11,2.19.24,3.28.37Zm-36.08-.38-.11-1.08c1.09-.11,2.18-.21,3.28-.29l.09,1.07C548.55,418.66,547.46,418.75,546.38,418.86Zm29.56-.28c-1.08-.09-2.17-.17-3.27-.23l.07-1.09,3.29.23Zm-23-.24-.07-1.09c1.09-.06,2.19-.12,3.29-.16l0,1.09C555.08,418.22,554,418.27,552.91,418.34Zm16.49-.16c-1.08,0-2.17-.08-3.27-.1l0-1.09,3.29.1Zm-9.95-.1,0-1.09c1.1,0,2.2,0,3.3,0h.14V418h-.14C561.63,418,560.54,418.06,559.45,418.08Z"/><path class="cls-11" d="M572.47,438c-.19-3.37-3.53-5.24-7.43-5.24-1.61,0-3.83.8-3.81,2.37,0,4.74,22.66,3.61,23.86,15.08.87,8.27-8,11.37-15.42,11.37-.76,0-1.51-.06-2.21-.11l.12,3.64h-4.07l-.08-4.48a16.18,16.18,0,0,1-6.83-4.11l-.73,4.22h-11l.75-13.31h11c-.05,4.28,5,5,7.57,5.11,2.12,0,5.13-.42,5-2.58-.16-3.92-22.88-2.28-22.23-14.43.34-6.51,8.06-9.33,13.36-9.33.82,0,1.63,0,2.44.12l0-3h3.41l.12,3.67a10.19,10.19,0,0,1,5.63,3.59l.34-3.59h9.33l1.12,11Z"/><path class="cls-12" d="M629.73,466.21a83.26,83.26,0,0,1-14.93,7,124.89,124.89,0,0,1-14.93,4.33c-4.74,1.07-9.72,1.95-14.93,2.61-4.81.6-9.8,1-14.93,1.23q-3.6.13-7.29.14c-2.57,0-5.12-.06-7.64-.16-5.12-.22-10.11-.64-14.93-1.26-5.2-.66-10.19-1.56-14.93-2.64a123,123,0,0,1-14.93-4.38A80.9,80.9,0,0,1,495.37,466c-7.38-4.6-12.49-10-14.58-15.81v20c2.38,5.46,7.46,10.57,14.58,15a84.57,84.57,0,0,0,14.92,7.21,122.56,122.56,0,0,0,14.93,4.5C530,498,535,499,540.15,499.66q7.25,1,14.93,1.33c2.53.11,5.07.17,7.64.18s4.89-.07,7.29-.17c5.12-.22,10.11-.66,14.93-1.3A149.05,149.05,0,0,0,599.87,497a125.15,125.15,0,0,0,14.93-4.46,86.06,86.06,0,0,0,14.93-7.13c7.3-4.49,12.51-9.67,14.93-15.22v-20C642.53,456.1,637.29,461.56,629.73,466.21Z"/><path class="cls-9" d="M215.25,546.22c-51.82.07-93.78,19.2-93.78,42.77s42,42.71,93.78,42.78S309,612.58,309,589,267.07,546.29,215.25,546.22Z"/><path class="cls-10" d="M215.25,553.35c-43.18.06-78.13,14.29-78.13,31.83S172.07,617,215.25,617s78.13-14.28,78.13-31.83S258.43,553.41,215.25,553.35Z"/><path class="cls-11" d="M215.25,617.63l-.08-.62v-.63h.08c1.23,0,2.46,0,3.67,0l0,1.25C217.72,617.61,216.49,617.63,215.25,617.63Zm-3.85,0c-1.26,0-2.53-.07-3.77-.12l.05-1.24c1.24,0,2.49.09,3.74.11Zm11.31-.11-.05-1.25q1.89-.08,3.75-.18l.07,1.24C225.23,617.37,224,617.43,222.71,617.48Zm-18.85-.2c-1.27-.08-2.51-.16-3.76-.26l.1-1.24c1.24.1,2.48.18,3.74.26Zm26.38-.25-.09-1.24c1.25-.1,2.49-.21,3.73-.34l.12,1.24C232.76,616.82,231.51,616.93,230.24,617Zm-33.9-.36c-1.26-.12-2.51-.27-3.75-.42l.16-1.23c1.22.15,2.46.28,3.72.41Zm41.41-.4L237.6,615c1.25-.16,2.49-.32,3.71-.5l.18,1.23C240.26,616,239,616.12,237.75,616.27Zm-48.89-.52c-1.27-.18-2.5-.38-3.73-.58l.2-1.23c1.23.21,2.46.39,3.71.58Zm56.36-.56L245,614c1.24-.21,2.47-.43,3.67-.67l.25,1.22C247.71,614.75,246.47,615,245.22,615.19Zm-63.81-.7c-1.25-.25-2.48-.51-3.7-.78l.28-1.22c1.2.27,2.43.53,3.66.77Zm71.22-.75-.27-1.21c1.24-.27,2.45-.56,3.64-.86l.31,1.21C255.11,613.18,253.87,613.47,252.63,613.74Zm-78.58-.9c-1.25-.31-2.46-.64-3.66-1l.35-1.2c1.18.33,2.38.67,3.61,1Zm85.9-.94-.33-1.2c1.22-.34,2.41-.7,3.58-1.07l.38,1.18C262.4,611.19,261.19,611.55,260,611.9Zm-93.18-1.13c-1.22-.39-2.41-.8-3.58-1.22l.43-1.18c1.15.42,2.33.82,3.53,1.21Zm100.39-1.16-.42-1.18c1.19-.43,2.36-.88,3.49-1.34l.47,1.15C269.55,608.71,268.37,609.17,267.16,609.61Zm-107.5-1.42c-1.18-.48-2.35-1-3.47-1.51l.52-1.13c1.11.51,2.26,1,3.42,1.49Zm114.51-1.45-.52-1.13c1.15-.53,2.28-1.09,3.34-1.65l.58,1.1C276.49,605.63,275.34,606.2,274.17,606.74ZM152.8,605c-1.15-.6-2.27-1.24-3.3-1.89l.66-1.06c1,.64,2.1,1.26,3.21,1.85Zm128.06-1.8-.65-1.06c1.09-.68,2.13-1.37,3.08-2.07l.74,1C283,601.77,282,602.49,280.86,603.18ZM146.35,601a33.78,33.78,0,0,1-2.95-2.42l.84-.92a32.81,32.81,0,0,0,2.84,2.34ZM287,598.64l-.84-.92a27.42,27.42,0,0,0,2.56-2.64l1,.81A28.56,28.56,0,0,1,287,598.64Zm-146.25-2.87a20.88,20.88,0,0,1-2.2-3.18l1.08-.61a21.15,21.15,0,0,0,2.07,3Zm151.15-3-1.09-.62a15.27,15.27,0,0,0,1.43-3.3l1.2.36A17.75,17.75,0,0,1,291.89,592.73ZM137,589a14.33,14.33,0,0,1-.53-3.83l1.24,0v0a12.62,12.62,0,0,0,.49,3.49Zm157-3.7-1.24,0h.62l-.62-.12a12.81,12.81,0,0,0-.47-3.41l1.2-.34a14.18,14.18,0,0,1,.51,3.75Zm-155.75-3.69-1.19-.34a16,16,0,0,1,1.52-3.58l1.08.62A15.68,15.68,0,0,0,138.25,581.62Zm152.66-3.17a18.59,18.59,0,0,0-2.06-3l1-.8a20.79,20.79,0,0,1,2.19,3.18Zm-149.17-3.11-1-.8a28.49,28.49,0,0,1,2.66-2.76l.83.92A29.74,29.74,0,0,0,141.74,575.34Zm144.58-2.54a36.59,36.59,0,0,0-2.84-2.35l.74-1a36.73,36.73,0,0,1,2.95,2.43Zm-139.17-2.43-.74-1c1-.72,2-1.44,3.16-2.13l.65,1.06C149.13,569,148.1,569.66,147.15,570.37Zm133.26-2c-1-.63-2.09-1.25-3.22-1.85l.59-1.1c1.15.61,2.26,1.25,3.29,1.9Zm-127-1.93-.59-1.1c1.09-.57,2.23-1.15,3.4-1.69l.52,1.14C155.63,565.32,154.5,565.88,153.45,566.44Zm120.41-1.59c-1.11-.52-2.25-1-3.42-1.49l.47-1.16c1.19.49,2.35,1,3.48,1.52ZM160.2,563.3l-.47-1.15c1.15-.47,2.33-.92,3.53-1.36l.44,1.17C162.49,562.39,161.33,562.84,160.2,563.3ZM267,562q-1.72-.62-3.54-1.2l.39-1.18c1.22.39,2.41.79,3.57,1.22Zm-99.73-1.25-.39-1.19c1.19-.38,2.39-.74,3.63-1.09l.34,1.2C169.59,560,168.4,560.39,167.23,560.76Zm92.61-1c-1.18-.34-2.38-.66-3.61-1l.3-1.21c1.25.32,2.46.64,3.65,1Zm-85.42-1-.3-1.21c1.2-.31,2.43-.6,3.67-.88l.28,1.23C176.83,558.13,175.62,558.41,174.42,558.72Zm78.16-.83c-1.19-.27-2.42-.53-3.66-.77l.25-1.22c1.24.24,2.48.5,3.69.77Zm-70.85-.81-.24-1.22c1.22-.23,2.46-.46,3.71-.67l.21,1.23C184.17,556.63,182.94,556.85,181.73,557.08Zm63.51-.64c-1.22-.21-2.45-.4-3.7-.58l.18-1.24c1.26.19,2.5.38,3.74.59Zm-56.13-.61-.18-1.23,3.74-.5.15,1.24C191.57,555.49,190.33,555.65,189.11,555.83Zm48.73-.48c-1.23-.14-2.48-.29-3.73-.42l.12-1.23q1.91.18,3.75.42Zm-41.29-.43-.13-1.24c1.24-.13,2.49-.24,3.75-.34l.11,1.24C199,554.68,197.78,554.79,196.55,554.92Zm33.83-.33c-1.24-.1-2.48-.19-3.74-.26l.07-1.24c1.27.07,2.52.16,3.76.26ZM204,554.32l-.08-1.24c1.25-.08,2.5-.14,3.77-.19l0,1.24C206.5,554.18,205.25,554.25,204,554.32Zm18.87-.18c-1.24,0-2.48-.09-3.74-.11l0-1.25c1.27,0,2.52.06,3.77.11ZM211.51,554l0-1.25,3.78,0h.16V554h-.16C214,554,212.75,554,211.51,554Z"/><path class="cls-11" d="M226.4,576.85c-.21-3.86-4-6-8.5-6-1.84,0-4.38.91-4.36,2.71,0,5.42,25.93,4.14,27.31,17.27,1,9.46-9.12,13-17.65,13-.88,0-1.73-.07-2.53-.13l.13,4.16h-4.65l-.09-5.12a18.6,18.6,0,0,1-7.82-4.7l-.84,4.83H194.87l.86-15.23h12.62c0,4.89,5.76,5.72,8.67,5.84,2.43,0,5.87-.48,5.77-3-.18-4.49-26.19-2.61-25.45-16.52.4-7.44,9.23-10.68,15.3-10.68a26.06,26.06,0,0,1,2.79.14l-.06-3.48h3.91l.14,4.2a11.74,11.74,0,0,1,6.44,4.1l.38-4.1h10.69l1.27,12.65Z"/><path class="cls-12" d="M291.94,609.11a93.87,93.87,0,0,1-17.08,8.06,142.63,142.63,0,0,1-17.09,5c-5.43,1.23-11.14,2.24-17.09,3-5.51.69-11.22,1.16-17.09,1.4q-4.12.16-8.34.17c-2.95,0-5.87-.07-8.74-.18-5.87-.25-11.58-.74-17.09-1.45-6-.75-11.67-1.78-17.09-3a140.69,140.69,0,0,1-17.09-5,93.92,93.92,0,0,1-17.08-8.16c-8.44-5.27-14.29-11.42-16.69-18.1v22.9c2.73,6.24,8.55,12.09,16.69,17.17a95.94,95.94,0,0,0,17.08,8.25,141.47,141.47,0,0,0,17.09,5.17c5.43,1.29,11.14,2.34,17.09,3.14,5.52.74,11.23,1.26,17.09,1.52q4.32.2,8.74.21,4.22,0,8.34-.19c5.86-.25,11.57-.76,17.09-1.48,5.94-.79,11.65-1.83,17.09-3.11a143.4,143.4,0,0,0,17.09-5.11,96.91,96.91,0,0,0,17.08-8.15c8.35-5.14,14.32-11.08,17.09-17.42v-22.9C306.59,597.55,300.59,603.79,291.94,609.11Z"/><path class="cls-9" d="M215.25,519.39c-51.82.07-93.78,19.19-93.78,42.77s42,42.71,93.78,42.78S309,585.75,309,562.16,267.07,519.46,215.25,519.39Z"/><path class="cls-10" d="M215.25,526.53c-43.18,0-78.13,14.28-78.13,31.82s34.95,31.77,78.13,31.82,78.13-14.28,78.13-31.82S258.43,526.57,215.25,526.53Z"/><path class="cls-11" d="M215.25,590.8l-.08-.63v-.62h.08c1.23,0,2.46,0,3.67,0l0,1.25C217.72,590.79,216.49,590.8,215.25,590.8Zm-3.85,0c-1.26,0-2.53-.07-3.77-.12l.05-1.25c1.24.06,2.49.1,3.74.12Zm11.31-.11-.05-1.25c1.26,0,2.51-.11,3.75-.18l.07,1.24C225.23,590.54,224,590.6,222.71,590.65Zm-18.85-.19c-1.27-.08-2.51-.17-3.76-.27l.1-1.24,3.74.26Zm26.38-.26-.09-1.24c1.25-.1,2.49-.21,3.73-.33l.12,1.23C232.76,590,231.51,590.1,230.24,590.2Zm-33.9-.35c-1.26-.13-2.51-.27-3.75-.43l.16-1.24c1.22.16,2.46.3,3.72.43Zm41.41-.4-.15-1.24c1.25-.15,2.49-.32,3.71-.5l.18,1.23C240.26,589.12,239,589.29,237.75,589.45Zm-48.89-.52c-1.27-.19-2.5-.39-3.73-.59l.2-1.24c1.23.21,2.46.41,3.71.59Zm56.36-.57-.2-1.23c1.24-.22,2.47-.43,3.67-.67l.25,1.23Zm-63.81-.71c-1.25-.24-2.48-.5-3.7-.77l.28-1.22c1.2.27,2.43.52,3.66.77Zm71.22-.74-.27-1.21c1.24-.28,2.45-.56,3.64-.86l.31,1.21C255.11,586.35,253.87,586.63,252.63,586.91Zm-78.58-.9c-1.25-.31-2.46-.64-3.66-1l.35-1.2c1.18.34,2.38.66,3.61,1Zm85.9-.94-.33-1.2c1.22-.34,2.41-.7,3.58-1.08l.38,1.2C262.4,584.36,261.19,584.73,260,585.07Zm-93.18-1.13c-1.22-.39-2.41-.8-3.58-1.23l.43-1.17c1.15.42,2.33.82,3.53,1.21Zm100.39-1.17-.42-1.18c1.19-.42,2.36-.87,3.49-1.33l.47,1.16Q269,582.11,267.16,582.77Zm-107.5-1.41c-1.18-.48-2.35-1-3.47-1.52l.52-1.12c1.11.51,2.26,1,3.42,1.49Zm114.51-1.45-.52-1.13c1.15-.54,2.28-1.09,3.34-1.66l.58,1.1C276.49,578.8,275.34,579.37,274.17,579.91ZM152.8,578.16c-1.15-.61-2.27-1.25-3.3-1.9l.66-1.06c1,.64,2.1,1.26,3.21,1.86Zm128.06-1.82-.65-1.06c1.09-.66,2.13-1.36,3.08-2.07l.74,1C283,574.94,282,575.66,280.86,576.34Zm-134.51-2.21a35.74,35.74,0,0,1-2.95-2.43l.84-.91c.85.78,1.81,1.56,2.84,2.33ZM287,571.8l-.84-.91a28.63,28.63,0,0,0,2.56-2.64l1,.81A27.38,27.38,0,0,1,287,571.8Zm-146.25-2.86a20.88,20.88,0,0,1-2.2-3.18l1.08-.61a21.15,21.15,0,0,0,2.07,3Zm151.15-3-1.09-.61a15.48,15.48,0,0,0,1.43-3.3l1.2.34A17.58,17.58,0,0,1,291.89,565.9ZM137,562.18a14.33,14.33,0,0,1-.53-3.83l1.24,0v0a12.68,12.68,0,0,0,.49,3.49Zm157-3.7-1.24,0h.62l-.62-.12a12.93,12.93,0,0,0-.47-3.42l1.2-.33a14.18,14.18,0,0,1,.51,3.75Zm-155.75-3.69-1.19-.34a15.84,15.84,0,0,1,1.52-3.58l1.08.61A16,16,0,0,0,138.25,554.79Zm152.66-3.17a19.12,19.12,0,0,0-2.06-3l1-.79A20.79,20.79,0,0,1,292,551Zm-149.17-3.11-1-.8a27.39,27.39,0,0,1,2.66-2.76l.83.92A29.74,29.74,0,0,0,141.74,548.51ZM286.32,546a34.4,34.4,0,0,0-2.84-2.34l.74-1c1.06.8,2,1.62,2.95,2.44Zm-139.17-2.44-.74-1c1-.72,2-1.43,3.16-2.13l.65,1.06C149.13,542.13,148.1,542.83,147.15,543.53Zm133.26-2c-1-.63-2.09-1.25-3.22-1.86l.59-1.1c1.15.62,2.26,1.26,3.29,1.9Zm-127-1.93-.59-1.1c1.09-.57,2.23-1.14,3.4-1.68l.52,1.12C155.63,538.49,154.5,539.05,153.45,539.61ZM273.86,538c-1.11-.52-2.25-1-3.42-1.49l.47-1.16c1.19.49,2.35,1,3.48,1.52ZM160.2,536.47l-.47-1.15c1.15-.47,2.33-.92,3.53-1.36l.44,1.17C162.49,535.56,161.33,536,160.2,536.47ZM267,535.18c-1.15-.41-2.33-.82-3.54-1.2l.39-1.19c1.22.39,2.41.8,3.57,1.22Zm-99.73-1.25-.39-1.19c1.19-.38,2.39-.74,3.63-1.09l.34,1.2C169.59,533.2,168.4,533.55,167.23,533.93Zm92.61-1c-1.18-.34-2.38-.66-3.61-1l.3-1.21c1.25.31,2.46.65,3.65,1Zm-85.42-1-.3-1.21c1.2-.3,2.43-.59,3.67-.86l.28,1.21C176.83,531.3,175.62,531.58,174.42,531.88Zm78.16-.82c-1.19-.27-2.42-.53-3.66-.78l.25-1.22c1.24.25,2.48.51,3.69.78Zm-70.85-.8-.24-1.22c1.22-.24,2.46-.47,3.71-.68l.21,1.22C184.17,529.8,182.94,530,181.73,530.26Zm63.51-.65c-1.22-.2-2.45-.4-3.7-.58l.18-1.24c1.26.19,2.5.38,3.74.6Zm-56.13-.6-.18-1.24c1.23-.18,2.48-.34,3.74-.5l.15,1.23C191.57,528.66,190.33,528.83,189.11,529Zm48.73-.49c-1.23-.15-2.48-.29-3.73-.42l.12-1.24c1.27.13,2.52.28,3.75.43Zm-41.29-.43-.13-1.24c1.24-.13,2.49-.24,3.75-.34l.11,1.24C199,527.85,197.78,528,196.55,528.09Zm33.83-.32c-1.24-.11-2.48-.2-3.74-.27l.07-1.24c1.27.07,2.52.16,3.76.26ZM204,527.49l-.08-1.24c1.25-.08,2.5-.14,3.77-.19l0,1.24C206.5,527.35,205.25,527.41,204,527.49Zm18.87-.18c-1.24,0-2.48-.09-3.74-.12l0-1.24c1.27,0,2.52.06,3.77.11Zm-11.38-.12,0-1.25c1.26,0,2.52,0,3.78,0h.16v1.25h-.16C214,527.15,212.75,527.17,211.51,527.19Z"/><path class="cls-11" d="M226.4,550c-.21-3.86-4-6-8.5-6-1.84,0-4.38.91-4.36,2.71,0,5.43,25.93,4.14,27.31,17.27,1,9.45-9.12,13-17.65,13-.88,0-1.73-.07-2.53-.13l.13,4.16h-4.65l-.09-5.12a18.6,18.6,0,0,1-7.82-4.7l-.84,4.83H194.87l.86-15.24h12.62c0,4.9,5.76,5.73,8.67,5.85,2.43,0,5.87-.48,5.77-2.95-.18-4.49-26.19-2.61-25.45-16.52.4-7.45,9.23-10.68,15.3-10.68a26.06,26.06,0,0,1,2.79.14l-.06-3.48h3.91l.14,4.2a11.68,11.68,0,0,1,6.44,4.1l.38-4.1h10.69L238.2,550Z"/><path class="cls-12" d="M291.94,582.28a95.21,95.21,0,0,1-17.08,8.06,144.48,144.48,0,0,1-17.09,5c-5.43,1.22-11.14,2.23-17.09,3-5.51.68-11.22,1.16-17.09,1.4q-4.12.17-8.34.17c-2.95,0-5.87-.07-8.74-.18-5.87-.25-11.58-.74-17.09-1.45-6-.76-11.67-1.78-17.09-3a140.69,140.69,0,0,1-17.09-5A93.27,93.27,0,0,1,138.16,582c-8.44-5.26-14.29-11.42-16.69-18.09v22.9c2.73,6.24,8.55,12.09,16.69,17.17a95.94,95.94,0,0,0,17.08,8.25,141.48,141.48,0,0,0,17.09,5.16c5.43,1.29,11.14,2.35,17.09,3.15,5.52.74,11.23,1.26,17.09,1.52q4.32.2,8.74.21,4.22,0,8.34-.19c5.86-.25,11.57-.75,17.09-1.49a173.07,173.07,0,0,0,17.09-3.1,143.4,143.4,0,0,0,17.09-5.11,96.91,96.91,0,0,0,17.08-8.16c8.35-5.13,14.32-11.06,17.09-17.41v-22.9C306.59,570.71,300.59,577,291.94,582.28Z"/><path class="cls-13" d="M215.25,492.56c-51.82.07-93.78,19.19-93.78,42.77s42,42.7,93.78,42.78C267.07,578,309,558.92,309,535.33S267.07,492.63,215.25,492.56Z"/><path class="cls-14" d="M215.25,499.7c-43.18.05-78.13,14.28-78.13,31.82s34.95,31.77,78.13,31.82,78.13-14.28,78.13-31.82S258.43,499.75,215.25,499.7Z"/><path class="cls-12" d="M291.94,555.44a94.54,94.54,0,0,1-17.08,8.07,142.63,142.63,0,0,1-17.09,5c-5.43,1.23-11.14,2.23-17.09,3-5.51.69-11.22,1.17-17.09,1.41q-4.12.17-8.34.18c-2.95,0-5.87-.07-8.74-.2-5.87-.25-11.58-.73-17.09-1.44-6-.76-11.67-1.78-17.09-3a140.69,140.69,0,0,1-17.09-5,92.62,92.62,0,0,1-17.08-8.17c-8.44-5.26-14.29-11.41-16.69-18.08V560c2.73,6.24,8.55,12.08,16.69,17.17a96.63,96.63,0,0,0,17.08,8.25,141.47,141.47,0,0,0,17.09,5.17c5.43,1.28,11.14,2.34,17.09,3.14,5.52.74,11.23,1.26,17.09,1.52q4.32.19,8.74.2c2.81,0,5.59-.07,8.34-.18,5.86-.25,11.57-.75,17.09-1.49,5.94-.78,11.65-1.83,17.09-3.1a143.4,143.4,0,0,0,17.09-5.11,96.91,96.91,0,0,0,17.08-8.16c8.35-5.14,14.32-11.07,17.09-17.41V537.11C306.59,543.88,300.59,550.13,291.94,555.44Z"/><path class="cls-9" d="M215.37,565.9h0c-38,0-78.31-11.73-78.31-33.31s40.35-33.27,78.31-33.31,78.32,11.73,78.32,33.31S253.34,565.86,215.37,565.9Zm0-57.37c-40.69.05-69.05,12.72-69.05,24.06s28.36,24,69.06,24,69.06-12.71,69.06-24S256.06,508.58,215.36,508.53Z"/><path class="cls-9" d="M236.38,529.32,224,523.84l1.83-.86a12,12,0,0,0,3.36-1.94q.47-.59-.9-1.17a5,5,0,0,0-2.4-.35,8.72,8.72,0,0,0-2.83.82c-1.72.79-2.56,1.5-2.52,2.15s.82,2.23,2.4,4.82a19.41,19.41,0,0,1,2.44,4.89,4.14,4.14,0,0,1-1.06,3.38,15.64,15.64,0,0,1-5.48,3.93A33.3,33.3,0,0,1,205,543.08a36.23,36.23,0,0,1-14.48-2.61l-5,2.34L180,539.87l5.16-2.35c-2.77-1.78-4.12-3.78-4.07-6s2.85-4.39,8.34-6.75l2.36-1,11.46,5.48-3,1.35a35.59,35.59,0,0,0-5.84,3c-.58.5-.4,1,.54,1.46a5.1,5.1,0,0,0,2.67.5,9,9,0,0,0,3.13-.87,24.54,24.54,0,0,0,5.34-3c.79-.72.76-1.91-.06-3.57a29,29,0,0,1-2.27-5.58,4.15,4.15,0,0,1,1.13-3.37,12.27,12.27,0,0,1,4.86-3.27,25.61,25.61,0,0,1,10.44-2.07A38.81,38.81,0,0,1,232.31,516l3.29-1.5,5.5,2.23-3.29,1.54c3.35,1.76,5.14,3.47,5.3,5.13s-1.32,3.33-4.53,4.93C238.13,528.57,237.39,528.9,236.38,529.32Z"/><path class="cls-15" d="M397.13,541.12A64.33,64.33,0,1,1,427,627.06,64.32,64.32,0,0,1,397.13,541.12Z"/><path class="cls-16" d="M477.7,522.35a52,52,0,1,1-69.48,24.14A52.09,52.09,0,0,1,477.7,522.35Zm-41.77,86.23a43.8,43.8,0,1,0-20.32-58.51A43.84,43.84,0,0,0,435.93,608.58Z"/><path class="cls-17" d="M415.61,550.07a43.8,43.8,0,1,1,20.32,58.51A43.8,43.8,0,0,1,415.61,550.07Z"/><path class="cls-16" d="M436.24,572.91l12.1,5.86-1,2a14.79,14.79,0,0,0-1.62,4.4,1.94,1.94,0,0,0,1.32,1.86,2.08,2.08,0,0,0,2.08,0,5.33,5.33,0,0,0,1.79-2.3c.92-1.89,1.19-3.4.79-4.53s-1.83-3.65-4.38-7.6a54.18,54.18,0,0,1-4.22-7.31,12.74,12.74,0,0,1-.8-5.57,19.23,19.23,0,0,1,2.12-7.31q3.14-6.47,8-8.64t11.55,0l2.21-4.55,5.57,2.7-2.28,4.7a16.15,16.15,0,0,1,6.67,7.83q2.06,5-1.87,13.1l-1.14,2.36L461.09,564l1.43-3a31.68,31.68,0,0,0,2.57-6.25,1.87,1.87,0,0,0-1.24-2.06,2.33,2.33,0,0,0-2.23-.06,4.57,4.57,0,0,0-1.78,2.15,23.14,23.14,0,0,0-2.25,6.1q-.29,2,2,5.7a95,95,0,0,1,5.06,8.76,15,15,0,0,1,1.22,6.27,16.75,16.75,0,0,1-1.8,7.41q-2.62,5.41-7.19,7c-3,1.06-6.73.85-11.05-.66L444,599.26l-5.58-2.69,1.88-3.87c-3.51-2.29-5.69-4.89-6.57-7.82s-.45-6.18,1.28-9.75C435.26,574.63,435.66,573.89,436.24,572.91Z"/><path class="cls-18" d="M618.06,0H539.15L0,795.53l569.49-152.1C568.9,641.33,603.78,186.09,618.06,0Z"/></g></g></svg>