<svg xmlns="http://www.w3.org/2000/svg" viewBox="0 0 2126.8 1588.16"><defs><style>.cls-1{fill:#231f20;}.cls-2{fill:#2b464c;}.cls-3{fill:#fffdf5;}.cls-4{fill:#c1dfe5;}.cls-5{fill:#375a63;}.cls-6{fill:#3f5b66;}.cls-7{fill:#f05f26;}.cls-8{fill:#f5be18;}.cls-9{fill:#f16128;}.cls-10{fill:#7fc9e0;}.cls-11{fill:#98d2db;}.cls-12{fill:#afacac;}.cls-13,.cls-25{fill:#fff;}.cls-14{fill:#898484;}.cls-15{fill:#444343;}.cls-16{fill:#282727;}.cls-17{fill:#e5e6e6;}.cls-18{fill:#7dbfc8;}.cls-19{fill:#ec6244;}.cls-20{fill:#faab1c;}.cls-21{fill:#ecbd0c;}.cls-22{fill:#fcc81b;}.cls-23{fill:#ffa100;}.cls-24{fill:#e58800;}.cls-25{opacity:0.2;}.cls-26{fill:#d9a600;}</style></defs><title>Asset 3</title><g id="Layer_2" data-name="Layer 2"><g id="Layer_1-2" data-name="Layer 1"><path class="cls-1" d="M1021.62,12.62H37.85A25.24,25.24,0,0,0,12.62,37.85v977.27a25.24,25.24,0,0,0,25.23,25.24h983.77a25.24,25.24,0,0,0,25.23-25.24V37.85A25.24,25.24,0,0,0,1021.62,12.62Z"/><path class="cls-2" d="M1021.62,12.62a25.24,25.24,0,0,1,25.23,25.23v977.27a25.24,25.24,0,0,1-25.23,25.24H37.85a25.24,25.24,0,0,1-25.23-25.24V37.85A25.24,25.24,0,0,1,37.85,12.62h983.77m0-12.62H37.85A37.89,37.89,0,0,0,0,37.85v977.27A37.89,37.89,0,0,0,37.85,1053h983.77a37.89,37.89,0,0,0,37.85-37.85V37.85A37.89,37.89,0,0,0,1021.62,0Z"/><path class="cls-3" d="M12.62,148.45v866.67a25.24,25.24,0,0,0,25.23,25.24h983.77a25.24,25.24,0,0,0,25.23-25.24V148.45Z"/><rect class="cls-4" x="12.62" y="67.43" width="1034.23" height="95.74"/><path class="cls-5" d="M1046.85,37.85a25.24,25.24,0,0,0-25.23-25.23H37.85A25.24,25.24,0,0,0,12.62,37.85V67.43H1046.85Z"/><rect class="cls-3" x="44.15" y="84.11" width="867.42" height="61.96"/><path class="cls-6" d="M994.51,109A20.48,20.48,0,0,0,978.7,89.13a19.85,19.85,0,0,0-4.68-.54h-.17a20.53,20.53,0,0,0-20.3,20.5,19.92,19.92,0,0,0,.69,5.19l.09.38-1.13.78-1,.72L932,130.4a6.38,6.38,0,0,0-2.71,5.17l0,.13,0,.05a6.41,6.41,0,0,0,1.18,3.58l.7,1a6.46,6.46,0,0,0,5.22,2.7h0a6.35,6.35,0,0,0,3.68-1.17l.9-.63h0l17.16-12.14.89-.64,3.46-2.42.32.2a20.55,20.55,0,0,0,6.5,2.78,20.88,20.88,0,0,0,4.68.54h0A20.48,20.48,0,0,0,994,113.8h0v-.06a20.34,20.34,0,0,0,.55-4.68Zm-43.6,22.3-.31-.47.31.47L940,138.6a4.06,4.06,0,0,1-5.66-1.14,4,4,0,0,1-.69-2.26,4.1,4.1,0,0,1,1.82-3.41l10.9-7.26a4.09,4.09,0,0,1,5.68,1.14,4.1,4.1,0,0,1-1.14,5.67Zm23.47-9.22a13.53,13.53,0,1,1,13.52-13.53A13.54,13.54,0,0,1,974.38,122.12Z"/><rect class="cls-7" x="971.47" y="22.39" width="34.39" height="34.38"/><rect class="cls-8" x="911.89" y="22.39" width="34.39" height="34.38"/><rect class="cls-8" x="45.63" y="220.66" width="635.11" height="107.25"/><rect class="cls-8" x="725.09" y="220.66" width="203.99" height="37.85"/><rect class="cls-9" x="725.09" y="290.06" width="203.99" height="37.85"/><rect class="cls-8" x="575.59" y="393.1" width="105.15" height="525.32"/><rect class="cls-8" x="749.34" y="393.1" width="155.51" height="139.48"/><rect class="cls-9" x="749.34" y="778.94" width="155.51" height="139.47"/><polygon class="cls-10" points="45.63 922.63 474.64 922.63 45.63 393.1 45.63 922.63"/><polygon class="cls-11" points="45.63 393.1 474.64 922.63 474.64 393.1 45.63 393.1"/><rect class="cls-10" x="749.34" y="586.02" width="155.51" height="139.47"/><path class="cls-12" d="M1666.74,1445.16c-28.08,0-51.16-22.71-51.16-50.8V1040.12a50.61,50.61,0,0,0-50.53-50.88H1330.26a50.89,50.89,0,0,0-50.86,50.88v354.24a50.79,50.79,0,0,1-50.83,50.8h-58.86v24.7H1446v-2.51h2.09v2.51h277.16v-24.7Z"/><path class="cls-13" d="M788.31,1127.4v88.69c0,28.09,23.09,50.72,51.17,50.72H2056a50.6,50.6,0,0,0,50.69-50.72V1127.4Z"/><path class="cls-14" d="M2106.67,411.42a50.85,50.85,0,0,0-50.69-51H839.48a51.26,51.26,0,0,0-51.17,51v716H2106.67Z"/><path class="cls-15" d="M2056,368a43.33,43.33,0,0,1,43.12,43.43v708.41H795.89V411.42A43.67,43.67,0,0,1,839.48,368H2056m0-7.57H839.48a51.26,51.26,0,0,0-51.17,51v716H2106.67v-716a50.85,50.85,0,0,0-50.69-51Z"/><path class="cls-13" d="M1839,1503.25v-6.73a50.51,50.51,0,0,0-50.78-50.52H1106.64a50.34,50.34,0,0,0-50.58,50.52v6.73a54.92,54.92,0,0,0,.2,7.22h782.29A55.65,55.65,0,0,0,1839,1503.25Z"/><path class="cls-16" d="M1465.88,1200.74a18.39,18.39,0,1,1-18.39-18.38A18.39,18.39,0,0,1,1465.88,1200.74Z"/><path class="cls-12" d="M2126.8,1549.31a38.85,38.85,0,0,1-38.85,38.85h-1974a38.84,38.84,0,0,1-38.84-38.85h0a38.84,38.84,0,0,1,38.84-38.84H2088a38.85,38.85,0,0,1,38.85,38.84Z"/><rect class="cls-17" x="832.7" y="405.68" width="1231.77" height="111.77"/><rect class="cls-17" x="832.7" y="535.93" width="1231.77" height="19.86"/><rect class="cls-17" x="832.7" y="601.89" width="405.09" height="24.84"/><rect class="cls-17" x="832.7" y="659.23" width="405.09" height="24.84"/><rect class="cls-18" x="832.7" y="711.19" width="184.65" height="148.56"/><rect class="cls-19" x="1053.13" y="711.19" width="184.65" height="148.56"/><rect class="cls-17" x="832.7" y="880.49" width="405.09" height="81.96"/><polygon class="cls-20" points="1925 819.24 1757.46 788.3 1617.6 876.87 1469.7 814.29 1317.38 864.14 1317.38 962.45 2076.82 962.45 2076.82 699.13 1925 819.24"/><polygon class="cls-17" points="1616.07 863.42 1754.04 776.05 1920.63 806.81 2076.82 683.25 2076.82 601.89 1317.38 601.89 1317.38 851.91 1470.46 801.81 1616.07 863.42"/><polygon class="cls-19" points="1617.6 876.87 1757.46 788.3 1925 819.24 2076.82 699.13 2076.82 683.25 1920.63 806.81 1754.04 776.05 1616.07 863.42 1470.46 801.81 1317.38 851.91 1317.38 864.14 1469.7 814.29 1617.6 876.87"/><rect class="cls-20" x="832.7" y="1007.41" width="64.15" height="36.81"/><rect class="cls-19" x="832.7" y="1066.87" width="64.15" height="42.48"/><rect class="cls-17" x="942.92" y="1013.38" width="1133.9" height="24.84"/><rect class="cls-17" x="942.92" y="1075.68" width="1133.9" height="24.84"/><path class="cls-21" d="M926.32,1428v60.47c0,21-111.93,38-250,38s-250-17-250-38V1428Z"/><ellipse class="cls-22" cx="676.31" cy="1426.85" rx="250.01" ry="37.96"/><path class="cls-23" d="M477.56,1422.86c0,9.73,89,17.61,198.75,17.61s198.75-7.88,198.75-17.61-89-17.62-198.75-17.62S477.56,1413.13,477.56,1422.86Z"/><path class="cls-24" d="M866.5,1428c-24.76-7.23-100.52-12.5-190.19-12.5s-165.43,5.27-190.18,12.5c-5.56-1.62-8.57-3.34-8.57-5.12,0-9.73,89-17.62,198.75-17.62s198.75,7.89,198.75,17.62C875.06,1424.64,872.05,1426.36,866.5,1428Z"/><path class="cls-21" d="M965.39,1359.67v60.47c0,21-111.93,38-250,38s-250-17-250-38v-60.47Z"/><ellipse class="cls-22" cx="715.38" cy="1358.54" rx="250.01" ry="37.96"/><path class="cls-23" d="M516.63,1354.55c0,9.73,89,17.62,198.75,17.62s198.75-7.89,198.75-17.62-89-17.62-198.75-17.62S516.63,1344.82,516.63,1354.55Z"/><path class="cls-24" d="M905.57,1359.67c-24.76-7.23-100.53-12.49-190.19-12.49s-165.43,5.26-190.19,12.49c-5.55-1.62-8.56-3.34-8.56-5.12,0-9.73,89-17.62,198.75-17.62s198.75,7.89,198.75,17.62C914.13,1356.33,911.12,1358.05,905.57,1359.67Z"/><path class="cls-21" d="M921.91,1290.92v60.47c0,21-111.93,37.95-250,37.95s-250-17-250-37.95v-60.47Z"/><ellipse class="cls-22" cx="671.9" cy="1289.79" rx="250.01" ry="37.96"/><path class="cls-25" d="M473.15,1285.79c0,9.73,89,17.62,198.75,17.62s198.75-7.89,198.75-17.62-89-17.61-198.75-17.61S473.15,1276.06,473.15,1285.79Z"/><path class="cls-26" d="M862.09,1290.92c-24.76-7.23-100.53-12.5-190.19-12.5s-165.43,5.27-190.19,12.5c-5.55-1.62-8.56-3.34-8.56-5.13,0-9.73,89-17.61,198.75-17.61s198.75,7.88,198.75,17.61C870.65,1287.58,867.64,1289.3,862.09,1290.92Z"/><path class="cls-21" d="M976.94,1217.9v60.47c0,21-111.94,38-250,38s-250-17-250-38V1217.9Z"/><ellipse class="cls-22" cx="726.92" cy="1216.77" rx="250.01" ry="37.96"/><ellipse class="cls-23" cx="726.92" cy="1212.78" rx="198.75" ry="17.62"/><path class="cls-24" d="M917.11,1217.9c-24.76-7.23-100.52-12.5-190.19-12.5s-165.43,5.27-190.18,12.5c-5.55-1.62-8.57-3.34-8.57-5.12,0-9.73,89-17.62,198.75-17.62s198.76,7.89,198.76,17.62C925.68,1214.56,922.66,1216.28,917.11,1217.9Z"/><path class="cls-21" d="M965.39,1149.17v60.47c0,21-111.93,38-250,38s-250-17-250-38v-60.47Z"/><ellipse class="cls-22" cx="715.38" cy="1148.04" rx="250.01" ry="37.96"/><ellipse class="cls-23" cx="715.38" cy="1144.05" rx="198.75" ry="17.62"/><path class="cls-24" d="M905.57,1149.17c-24.76-7.23-100.53-12.5-190.19-12.5s-165.43,5.27-190.19,12.5c-5.55-1.62-8.56-3.34-8.56-5.12,0-9.73,89-17.62,198.75-17.62s198.75,7.89,198.75,17.62C914.13,1145.83,911.12,1147.55,905.57,1149.17Z"/><path class="cls-21" d="M915.74,1083.8v60.47c0,21-111.93,38-250,38s-250-17-250-38V1083.8Z"/><ellipse class="cls-22" cx="665.73" cy="1082.67" rx="250.01" ry="37.96"/><path class="cls-25" d="M467,1078.68c0,9.73,89,17.62,198.75,17.62s198.75-7.89,198.75-17.62-89-17.62-198.75-17.62S467,1069,467,1078.68Z"/><path class="cls-26" d="M855.92,1083.8c-24.76-7.23-100.53-12.49-190.19-12.49s-165.43,5.26-190.19,12.49c-5.55-1.62-8.56-3.34-8.56-5.12,0-9.73,89-17.62,198.75-17.62s198.75,7.89,198.75,17.62C864.48,1080.46,861.47,1082.18,855.92,1083.8Z"/><path class="cls-21" d="M987.76,1000.28v60.47c0,21-111.93,38-250,38s-250-17-250-38v-60.47Z"/><ellipse class="cls-22" cx="737.75" cy="999.15" rx="250.01" ry="37.96"/><path class="cls-25" d="M539,995.16c0,9.73,89,17.62,198.75,17.62s198.75-7.89,198.75-17.62-89-17.62-198.75-17.62S539,985.43,539,995.16Z"/><path class="cls-26" d="M927.94,1000.28c-24.76-7.23-100.53-12.49-190.19-12.49s-165.43,5.26-190.19,12.49c-5.55-1.62-8.56-3.34-8.56-5.12,0-9.73,89-17.62,198.75-17.62s198.75,7.89,198.75,17.62C936.5,996.94,933.49,998.66,927.94,1000.28Z"/><path class="cls-21" d="M907.79,943.51V1004c0,21-111.94,38-250,38s-250-17-250-38V943.51Z"/><ellipse class="cls-22" cx="657.77" cy="942.38" rx="250.01" ry="37.96"/><path class="cls-23" d="M459,938.39c0,9.73,89,17.62,198.75,17.62s198.76-7.89,198.76-17.62-89-17.62-198.76-17.62S459,928.66,459,938.39Z"/><path class="cls-24" d="M848,943.51C823.2,936.28,747.44,931,657.77,931s-165.43,5.26-190.18,12.49c-5.55-1.62-8.57-3.34-8.57-5.12,0-9.73,89-17.62,198.75-17.62s198.76,7.89,198.76,17.62C856.53,940.17,853.51,941.89,848,943.51Z"/><path class="cls-21" d="M933.42,862.77v60.47c0,21-111.94,38-250,38s-250-17-250-38V862.77Z"/><ellipse class="cls-22" cx="683.4" cy="861.64" rx="250.01" ry="37.96"/><path class="cls-25" d="M484.65,857.65c0,9.73,89,17.61,198.75,17.61s198.76-7.88,198.76-17.61S793.17,840,683.4,840,484.65,847.92,484.65,857.65Z"/><path class="cls-26" d="M873.59,862.77c-24.76-7.23-100.52-12.5-190.19-12.5S518,855.54,493.22,862.77c-5.55-1.62-8.57-3.34-8.57-5.12,0-9.73,89-17.62,198.75-17.62s198.76,7.89,198.76,17.62C882.16,859.43,879.14,861.15,873.59,862.77Z"/></g></g></svg>