<svg xmlns="http://www.w3.org/2000/svg" xmlns:xlink="http://www.w3.org/1999/xlink" viewBox="0 0 618.06 795.53"><defs><style>.cls-1{fill:#231f20;opacity:0.1;}.cls-2{fill:#f7c400;}.cls-3{fill:#d19e00;}.cls-4{fill:#f7f7f7;}.cls-10,.cls-4,.cls-7{opacity:0.2;}.cls-5{fill:#fcc902;}.cls-6{fill:#d6a300;}.cls-7{fill:#fcfcfc;}.cls-8{fill:#ffcc05;}.cls-9{fill:#d9a600;}.cls-10,.cls-13{fill:#fff;}.cls-11{fill:#423539;}.cls-12{opacity:0.05;}.cls-14{fill:#362b2f;}.cls-15{fill:#4d3e43;}.cls-16{opacity:0.5;}.cls-17{fill:#ffdb05;}.cls-18{fill:#d6b60b;}.cls-19{fill:#ecbd0c;}.cls-20{opacity:0.4;fill:url(#linear-gradient);}</style><linearGradient id="linear-gradient" x1="278.81" y1="1131.65" x2="331.29" y2="88.4" gradientTransform="translate(-68.94 14.9) scale(1.19 1)" gradientUnits="userSpaceOnUse"><stop offset="0.13" stop-color="#f9ed32" stop-opacity="0"/><stop offset="1" stop-color="#f6ea32"/></linearGradient></defs><title>Asset 4</title><g id="Layer_2" data-name="Layer 2"><g id="object"><path class="cls-1" d="M540.15,617.6c6.6-2.62,10.23-5.47,10.23-8.43,0-13.27-72.1-24-161-24s-161,10.75-161,24,72.1,24,161,24c15.82,0,31.1-.34,45.54-1-2.83,2.58-4.38,5.35-4.38,8.24,0,13.77,35,24.94,78.23,24.94S587,654.22,587,640.45C587,630.24,567.7,621.46,540.15,617.6Z"/><path class="cls-2" d="M333.59,487.67a50.24,50.24,0,1,1,39.5-59.06A50.24,50.24,0,0,1,333.59,487.67Z"/><path class="cls-3" d="M284,446.3a40.62,40.62,0,1,1,47.75,31.93A40.66,40.66,0,0,1,284,446.3Zm73.39-14.57a34.2,34.2,0,1,0-26.89,40.21A34.24,34.24,0,0,0,357.36,431.73Z"/><path class="cls-4" d="M330.47,471.94a34.2,34.2,0,1,1,26.89-40.21A34.2,34.2,0,0,1,330.47,471.94Z"/><path class="cls-3" d="M335,448.34,333,438l1.71-.33a11.25,11.25,0,0,0,3.49-1.07,1.5,1.5,0,0,0,.54-1.7,1.59,1.59,0,0,0-1-1.27,4.12,4.12,0,0,0-2.27,0,4.82,4.82,0,0,0-3.2,1.65,38.13,38.13,0,0,0-2.67,6.3,42.56,42.56,0,0,1-2.57,6.08,9.9,9.9,0,0,1-3.09,3.11,15.11,15.11,0,0,1-5.55,2.13q-5.52,1.1-9.17-.94t-5.46-7.19l-3.87.77-.94-4.74,4-.79a12.68,12.68,0,0,1,1.74-7.85q2.16-3.63,9-5l2-.4,2.05,10.3-2.53.5a23.89,23.89,0,0,0-5.1,1.35,1.45,1.45,0,0,0-.7,1.74,1.85,1.85,0,0,0,1,1.42,3.67,3.67,0,0,0,2.18.09,18.2,18.2,0,0,0,4.86-1.47q1.4-.78,2.6-3.95a75.21,75.21,0,0,1,3.07-7.28,11.75,11.75,0,0,1,3.33-3.71,13,13,0,0,1,5.47-2.37,10,10,0,0,1,7.76,1.18q3.13,2.08,4.79,7.2l3.29-.66.94,4.75-3.29.65c.23,3.26-.37,5.85-1.78,7.77a10.34,10.34,0,0,1-6.68,3.79C336.52,448.14,335.87,448.23,335,448.34Z"/><path class="cls-5" d="M357.15,454.37a50.24,50.24,0,1,1,63-32.9A50.25,50.25,0,0,1,357.15,454.37Z"/><path class="cls-6" d="M333.43,394.27A40.62,40.62,0,1,1,360,445.19,40.67,40.67,0,0,1,333.43,394.27Zm71.4,22.4A34.21,34.21,0,1,0,362,439.07,34.26,34.26,0,0,0,404.83,416.67Z"/><path class="cls-7" d="M362,439.07a34.21,34.21,0,1,1,42.88-22.4A34.21,34.21,0,0,1,362,439.07Z"/><path class="cls-6" d="M377.24,420.52l3.14-10L382,411a11.49,11.49,0,0,0,3.58.74,1.51,1.51,0,0,0,1.29-1.23,1.61,1.61,0,0,0-.28-1.6,4.07,4.07,0,0,0-2-1.12,4.8,4.8,0,0,0-3.6-.09A37.78,37.78,0,0,0,375.7,412a42.82,42.82,0,0,1-5.17,4.1,10,10,0,0,1-4.21,1.26,15.13,15.13,0,0,1-5.89-.8q-5.35-1.68-7.6-5.22t-1.34-8.92l-3.77-1.18,1.44-4.62,3.9,1.23a12.54,12.54,0,0,1,5.29-6.05q3.63-2.16,10.33-.06l2,.61-3.15,10-2.45-.77a24.67,24.67,0,0,0-5.12-1.26,1.46,1.46,0,0,0-1.45,1.19,1.85,1.85,0,0,0,.2,1.73,3.67,3.67,0,0,0,1.87,1.13,18.42,18.42,0,0,0,5,1c1.07,0,2.46-.76,4.18-2.23a69.67,69.67,0,0,1,6.18-4.91,11.7,11.7,0,0,1,4.7-1.66,13.05,13.05,0,0,1,5.94.54,10,10,0,0,1,6.24,4.75c1.17,2.23,1.43,5.1.76,8.61l3.2,1-1.45,4.61-3.2-1c-1.36,3-3.13,4.95-5.29,6a10.33,10.33,0,0,1-7.68.13C378.68,421.08,378.06,420.85,377.24,420.52Z"/><path class="cls-8" d="M482.07,432.76a56.09,56.09,0,1,1-22.5-76.07A56.1,56.1,0,0,1,482.07,432.76Z"/><path class="cls-9" d="M411.13,445.83a45.35,45.35,0,1,1,61.51-18.2A45.41,45.41,0,0,1,411.13,445.83ZM451,372.42a38.19,38.19,0,1,0,15.32,51.79A38.23,38.23,0,0,0,451,372.42Z"/><path class="cls-10" d="M466.34,424.21A38.19,38.19,0,1,1,451,372.42,38.18,38.18,0,0,1,466.34,424.21Z"/><path class="cls-9" d="M449.3,403.48l-10.3-5.6.93-1.71a12.43,12.43,0,0,0,1.58-3.76,1.69,1.69,0,0,0-1.07-1.68,1.8,1.8,0,0,0-1.81,0,4.68,4.68,0,0,0-1.66,1.93c-.87,1.61-1.16,2.92-.87,3.92a43.68,43.68,0,0,0,3.51,6.79,47.26,47.26,0,0,1,3.38,6.54,11.09,11.09,0,0,1,.47,4.88,16.78,16.78,0,0,1-2.14,6.28q-3,5.52-7.35,7.21t-10.06-.45l-2.11,3.88-4.74-2.58,2.17-4a14.16,14.16,0,0,1-5.49-7.1q-1.58-4.44,2.16-11.33l1.09-2,10.31,5.6-1.37,2.52a26.66,26.66,0,0,0-2.49,5.34,1.62,1.62,0,0,0,1,1.84,2.06,2.06,0,0,0,1.94.15,4.12,4.12,0,0,0,1.64-1.8,20.37,20.37,0,0,0,2.21-5.23q.33-1.76-1.55-5.05a83.45,83.45,0,0,1-4.05-7.83,13.05,13.05,0,0,1-.81-5.51,14.62,14.62,0,0,1,1.87-6.38q2.51-4.62,6.55-5.82c2.69-.81,5.9-.47,9.6,1l1.79-3.29,4.74,2.58-1.79,3.28q4.44,3.21,5.4,7.08c.65,2.59.14,5.4-1.51,8.45C450.23,402,449.84,402.65,449.3,403.48Z"/><rect class="cls-11" x="259.93" y="423.37" width="243.25" height="187.31" rx="19.51" ry="19.51"/><g class="cls-12"><path class="cls-13" d="M503.17,442.88c0-12-10.19-19.55-18.46-19.55l-205.27,0a19.57,19.57,0,0,0-19.51,19.51V445H503.17Z"/><path class="cls-13" d="M259.93,588.3v2.87a19.57,19.57,0,0,0,19.51,19.51H483.66a19.57,19.57,0,0,0,19.51-19.51V588.3Z"/></g><path class="cls-14" d="M259.92,526.58h86.74V503.43a17.81,17.81,0,0,0-17.81-17.81H259.92Z"/><rect class="cls-15" x="242.2" y="490.7" width="104.71" height="51.19" rx="15.51" ry="15.51"/><circle class="cls-8" cx="315.5" cy="515.65" r="18.62" transform="translate(-6.11 3.79) rotate(-0.68)"/><g class="cls-16"><path class="cls-13" d="M436.47,443.59a.83.83,0,0,0-.56-.23H427.5a.79.79,0,0,0-.79.79.78.78,0,0,0,.35.65.76.76,0,0,0,.47.16h8.4a.79.79,0,0,0,.79-.79A.82.82,0,0,0,436.47,443.59Z"/><path class="cls-13" d="M402.3,443.38h-8.4a.79.79,0,1,0,0,1.58h8.4a.79.79,0,1,0,0-1.58Z"/><path class="cls-13" d="M419.12,443.38h-8.41a.79.79,0,1,0,0,1.58h8.41a.79.79,0,1,0,0-1.58Z"/><path class="cls-13" d="M351.86,443.38h-8.41a.79.79,0,1,0,0,1.58h8.41a.79.79,0,1,0,0-1.58Z"/><path class="cls-13" d="M385.49,443.38h-8.41a.79.79,0,1,0,0,1.58h8.41a.79.79,0,1,0,0-1.58Z"/><path class="cls-13" d="M267.83,443.38h-7.91V445h7.91a.79.79,0,0,0,0-1.58Z"/><path class="cls-13" d="M284.6,443.38h-8.41a.79.79,0,1,0,0,1.58h8.41a.79.79,0,1,0,0-1.58Z"/><path class="cls-13" d="M335,443.38h-8.4a.79.79,0,1,0,0,1.58H335a.79.79,0,1,0,0-1.58Z"/><path class="cls-13" d="M301.41,443.38H293a.79.79,0,0,0,0,1.58h8.4a.79.79,0,1,0,0-1.58Z"/><path class="cls-13" d="M318.23,443.38h-8.41a.79.79,0,1,0,0,1.58h8.41a.79.79,0,1,0,0-1.58Z"/><path class="cls-13" d="M368.67,443.38h-8.4a.79.79,0,1,0,0,1.58h8.4a.79.79,0,1,0,0-1.58Z"/><path class="cls-13" d="M469.54,443.36h-8.41a.79.79,0,0,0,0,1.58h8.41a.79.79,0,0,0,0-1.58Z"/><path class="cls-13" d="M452.72,443.36h-8.41a.79.79,0,0,0,0,1.58h8.41a.79.79,0,0,0,0-1.58Z"/><path class="cls-13" d="M486.35,443.36h-8.41a.79.79,0,0,0,0,1.58h8.41a.79.79,0,0,0,0-1.58Z"/><path class="cls-13" d="M503.17,443.36h-8.41a.79.79,0,0,0,0,1.58h8.41Z"/></g><g class="cls-16"><path class="cls-13" d="M351.05,588.23h-8.29a.79.79,0,0,0,0,1.58h8.29a.79.79,0,0,0,0-1.58Z"/><path class="cls-13" d="M384.19,588.23H375.9a.79.79,0,0,0,0,1.58h8.29a.79.79,0,0,0,0-1.58Z"/><path class="cls-13" d="M268.2,588.23h-8.29v1.58h8.29a.79.79,0,0,0,0-1.58Z"/><path class="cls-13" d="M284.77,588.23h-8.29a.79.79,0,0,0,0,1.58h8.29a.79.79,0,0,0,0-1.58Z"/><path class="cls-13" d="M334.48,588.23h-8.29a.79.79,0,0,0,0,1.58h8.29a.79.79,0,0,0,0-1.58Z"/><path class="cls-13" d="M301.34,588.23h-8.29a.79.79,0,0,0,0,1.58h8.29a.79.79,0,0,0,0-1.58Z"/><path class="cls-13" d="M317.91,588.23h-8.29a.79.79,0,0,0,0,1.58h8.29a.79.79,0,0,0,0-1.58Z"/><path class="cls-13" d="M367.62,588.23h-8.29a.79.79,0,0,0,0,1.58h8.29a.79.79,0,0,0,0-1.58Z"/></g><polygon class="cls-9" points="558.85 626.83 558.86 512.51 452.24 512.24 452.28 628.99 558.85 626.83"/><path class="cls-9" d="M505.57,594c-29.44,0-53.28,10.91-53.28,24.3s23.84,24.27,53.28,24.31,53.28-10.91,53.28-24.31S535,594,505.57,594Z"/><path class="cls-17" d="M505.57,598c-24.53,0-44.39,8.11-44.39,18.08s19.86,18,44.39,18.08S550,626.07,550,616.1,530.1,598.05,505.57,598Z"/><path class="cls-18" d="M505.57,634.53l0-.35v-.35h0c.7,0,1.39,0,2.08,0l0,.71C507,634.53,506.27,634.53,505.57,634.53Zm-2.19,0-2.14-.07,0-.7q1.05,0,2.13.06Zm6.43-.06,0-.71,2.13-.1,0,.7C511.24,634.39,510.53,634.42,509.81,634.45Zm-10.71-.11-2.14-.15.06-.71c.7.06,1.41.11,2.12.15Zm15-.15-.06-.7,2.12-.19.07.7C515.52,634.07,514.81,634.14,514.09,634.19Zm-19.26-.2c-.72-.07-1.43-.15-2.14-.24l.1-.7c.69.09,1.4.17,2.11.23Zm23.52-.23-.08-.7c.71-.08,1.41-.18,2.11-.28l.1.7C519.78,633.58,519.07,633.68,518.35,633.76Zm-27.77-.29-2.12-.34.11-.7,2.11.34Zm32-.32-.11-.7,2.09-.38.14.69C524,632.9,523.31,633,522.59,633.15Zm-36.25-.41c-.71-.13-1.4-.28-2.1-.43l.16-.69,2.08.43Zm40.46-.41-.15-.69c.71-.16,1.4-.32,2.07-.5l.17.69C528.21,632,527.51,632.17,526.8,632.33Zm-44.64-.52c-.71-.17-1.4-.36-2.08-.55l.2-.68c.67.19,1.35.37,2.05.55Zm48.81-.53-.19-.68c.69-.2,1.37-.4,2-.61l.22.67C532.36,630.88,531.67,631.08,531,631.28ZM478,630.63q-1-.33-2-.69l.24-.66c.66.23,1.33.46,2,.68Zm57-.66-.24-.66c.68-.25,1.34-.5,2-.76l.27.65C536.42,629.47,535.75,629.72,535.06,630Zm-61.07-.8c-.67-.27-1.34-.56-2-.86l.29-.64c.63.29,1.29.58,1.94.84Zm65-.82-.29-.64c.65-.31,1.29-.62,1.89-.94l.34.62C540.36,627.72,539.71,628,539,628.35Zm-68.95-1c-.66-.35-1.29-.71-1.88-1.08l.38-.6c.57.36,1.19.72,1.83,1.06Zm72.76-1-.37-.6c.61-.38,1.2-.78,1.74-1.18l.42.57C544.09,625.52,543.48,625.93,542.85,626.32Zm-76.43-1.26c-.6-.45-1.17-.91-1.67-1.37l.47-.53a20.19,20.19,0,0,0,1.62,1.33Zm79.91-1.32-.48-.52a15.5,15.5,0,0,0,1.45-1.49l.54.45A14.69,14.69,0,0,1,546.33,623.74Zm-83.09-1.63a11.23,11.23,0,0,1-1.25-1.8l.61-.35a11.31,11.31,0,0,0,1.18,1.7Zm85.87-1.72-.62-.35a8.75,8.75,0,0,0,.81-1.88l.68.2A9.41,9.41,0,0,1,549.11,620.39Zm-88-2.12a8.06,8.06,0,0,1-.3-2.17l.7,0v0a7.45,7.45,0,0,0,.28,2Zm89.18-2.1H550l-.36-.06a7.14,7.14,0,0,0-.26-1.94L550,614a8.16,8.16,0,0,1,.29,2.13Zm-88.49-2.1-.67-.19a9.09,9.09,0,0,1,.86-2l.61.35A10,10,0,0,0,461.82,614.07Zm86.73-1.8a11.66,11.66,0,0,0-1.16-1.7l.54-.45a12,12,0,0,1,1.25,1.81Zm-84.74-1.76-.54-.46a15.7,15.7,0,0,1,1.51-1.56l.47.52A15.47,15.47,0,0,0,463.81,610.51ZM546,609.07a18.62,18.62,0,0,0-1.62-1.34l.42-.57a20,20,0,0,1,1.68,1.39Zm-79.07-1.39-.42-.57c.55-.41,1.16-.82,1.79-1.21l.37.6C468,606.89,467.42,607.28,466.88,607.68Zm75.71-1.13c-.57-.36-1.19-.71-1.83-1.06l.33-.62c.66.35,1.29.71,1.88,1.08Zm-72.13-1.1-.34-.62c.62-.33,1.27-.65,1.93-1l.3.64C471.7,604.82,471.06,605.13,470.46,605.45Zm68.4-.9c-.62-.3-1.27-.58-1.94-.85l.27-.66q1,.42,2,.87Zm-64.57-.88L474,603c.65-.27,1.32-.52,2-.77l.25.67C475.6,603.15,474.94,603.41,474.29,603.67Zm60.65-.73c-.65-.24-1.32-.47-2-.69l.22-.67c.69.22,1.37.45,2,.69Zm-56.65-.71-.22-.68c.67-.21,1.36-.42,2.06-.62l.19.68C479.63,601.81,479,602,478.29,602.23Zm52.61-.6c-.67-.19-1.35-.37-2-.55l.17-.68c.71.17,1.4.36,2.08.55Zm-48.53-.57-.17-.68c.69-.18,1.38-.34,2.09-.5l.15.69C483.74,600.72,483.05,600.89,482.37,601.06Zm44.41-.47c-.68-.15-1.37-.3-2.08-.43l.14-.7,2.1.44Zm-40.26-.45-.13-.7,2.11-.38.12.7Zm36.09-.37c-.69-.12-1.4-.22-2.1-.33l.1-.7c.71.1,1.42.22,2.12.33Zm-31.89-.34-.1-.7c.7-.11,1.41-.2,2.12-.29l.09.7C492.12,599.23,491.41,599.32,490.72,599.43Zm27.68-.27-2.12-.25.07-.7q1.08.1,2.13.24Zm-23.46-.25-.07-.71L497,598l.06.7Zm19.22-.19c-.7-.06-1.41-.11-2.12-.15l0-.7c.72,0,1.43.09,2.14.15Zm-15-.15-.05-.71c.71,0,1.42-.08,2.14-.1l0,.7C500.6,598.49,499.89,598.52,499.19,598.57Zm10.72-.11c-.7,0-1.41-.05-2.12-.06v-.71c.72,0,1.43,0,2.14.07Zm-6.47-.06,0-.71c.72,0,1.43,0,2.15,0h.09v.7h-.09Z"/><path class="cls-18" d="M511.91,611.37c-.13-2.2-2.3-3.41-4.83-3.41-1.05,0-2.5.51-2.48,1.53,0,3.09,14.73,2.36,15.52,9.82.56,5.37-5.19,7.39-10,7.39-.49,0-1,0-1.43-.07l.07,2.36h-2.64l-.05-2.91a10.65,10.65,0,0,1-4.44-2.67l-.48,2.74H494l.49-8.65h7.17c0,2.78,3.27,3.26,4.93,3.32,1.37,0,3.33-.27,3.27-1.68-.1-2.55-14.88-1.48-14.45-9.38.22-4.23,5.24-6.07,8.69-6.07a14.05,14.05,0,0,1,1.58.08l0-2h2.22l.08,2.39a6.72,6.72,0,0,1,3.66,2.33l.21-2.33h6.08l.72,7.19Z"/><path class="cls-19" d="M549.14,629.69a53.46,53.46,0,0,1-9.71,4.58,80.78,80.78,0,0,1-9.71,2.82c-3.08.7-6.32,1.27-9.7,1.69-3.13.39-6.38.66-9.71.8-1.56.06-3.14.1-4.74.1s-3.33,0-5-.11c-3.33-.14-6.58-.42-9.71-.82-3.38-.43-6.63-1-9.7-1.71a82.58,82.58,0,0,1-9.71-2.85,53.16,53.16,0,0,1-9.71-4.64c-4.79-3-8.12-6.48-9.48-10.28v13c1.55,3.54,4.86,6.87,9.48,9.75a54.5,54.5,0,0,0,9.71,4.69,77.58,77.58,0,0,0,9.71,2.93,95.52,95.52,0,0,0,9.7,1.79c3.14.42,6.38.72,9.71.87,1.64.07,3.3.11,5,.11s3.17,0,4.74-.1q5-.23,9.71-.85c3.37-.44,6.62-1,9.7-1.76a81.15,81.15,0,0,0,9.71-2.9,55.52,55.52,0,0,0,9.71-4.64c4.74-2.92,8.13-6.29,9.71-9.89v-13C557.46,623.12,554.06,626.67,549.14,629.69Z"/><path class="cls-9" d="M505.57,576.81c-29.44,0-53.28,10.9-53.28,24.3s23.84,24.26,53.28,24.3,53.28-8.14,53.28-24.3C558.85,587.71,535,576.84,505.57,576.81Z"/><path class="cls-17" d="M505.57,580.38c-24.53,0-44.39,8.12-44.39,18.08s19.86,18,44.39,18.08S550,608.43,550,598.46,530.1,580.41,505.57,580.38Z"/><path class="cls-18" d="M505.57,616.9l0-.36v-.35h0l2.08,0,0,.7Zm-2.19,0-2.14-.06,0-.71q1.05,0,2.13.06Zm6.43-.06,0-.71c.71,0,1.43-.06,2.13-.1l0,.7C511.24,616.75,510.53,616.78,509.81,616.81Zm-10.71-.11c-.72,0-1.43-.09-2.14-.15l.06-.7,2.12.15Zm15-.14-.06-.71,2.12-.19.07.71Zm-19.26-.2-2.14-.24.1-.7,2.11.23Zm23.52-.23-.08-.71c.71-.08,1.41-.18,2.11-.28l.1.71Zm-27.77-.3c-.72-.1-1.43-.22-2.12-.34l.11-.69c.7.11,1.4.23,2.11.33Zm32-.32-.11-.7c.71-.12,1.4-.24,2.09-.38l.14.7Zm-36.25-.4c-.71-.14-1.4-.28-2.1-.44l.16-.69,2.08.44Zm40.46-.42-.15-.69c.71-.16,1.4-.32,2.07-.49l.17.69C528.21,614.37,527.51,614.53,526.8,614.69Zm-44.64-.51c-.71-.18-1.4-.37-2.08-.56l.2-.68c.67.19,1.35.37,2.05.55Zm48.81-.54-.19-.68c.69-.19,1.37-.4,2-.61l.22.68C532.36,613.24,531.67,613.45,531,613.64ZM478,613l-2-.69.24-.67c.66.23,1.33.46,2,.68Zm57-.67-.24-.66c.68-.24,1.34-.5,2-.76l.27.66C536.42,611.83,535.75,612.09,535.06,612.33Zm-61.07-.8c-.67-.27-1.34-.56-2-.86l.29-.64c.63.3,1.29.58,1.94.85Zm65-.82-.29-.64c.65-.31,1.29-.62,1.89-.94l.34.63C540.36,610.08,539.71,610.4,539,610.71Zm-68.95-1c-.66-.35-1.29-.71-1.88-1.08l.38-.6c.57.36,1.19.71,1.83,1.05Zm72.76-1-.37-.61c.61-.38,1.2-.77,1.74-1.17l.42.57C544.09,607.89,543.48,608.29,542.85,608.69Zm-76.43-1.27c-.6-.45-1.17-.91-1.67-1.37l.47-.53c.49.45,1,.9,1.62,1.34Zm79.91-1.31-.48-.53a15.5,15.5,0,0,0,1.45-1.49l.54.45A15.77,15.77,0,0,1,546.33,606.11Zm-83.09-1.63a11.76,11.76,0,0,1-1.25-1.81l.61-.35a10.83,10.83,0,0,0,1.18,1.7Zm85.87-1.73-.62-.35a8.9,8.9,0,0,0,.81-1.87l.68.19A9.2,9.2,0,0,1,549.11,602.75Zm-88-2.11a8.13,8.13,0,0,1-.3-2.18l.7,0v0a7.45,7.45,0,0,0,.28,2Zm89.18-2.11H550l-.36-.07a7.14,7.14,0,0,0-.26-1.94l.68-.19a8.22,8.22,0,0,1,.29,2.13Zm-88.49-2.09-.67-.19a9,9,0,0,1,.86-2l.61.35A9.83,9.83,0,0,0,461.82,596.44Zm86.73-1.8a11.14,11.14,0,0,0-1.16-1.7l.54-.45a11.91,11.91,0,0,1,1.25,1.8Zm-84.74-1.77-.54-.45a15.77,15.77,0,0,1,1.51-1.57l.47.52A15.47,15.47,0,0,0,463.81,592.87ZM546,591.43a18.56,18.56,0,0,0-1.62-1.33l.42-.58c.61.46,1.17.92,1.68,1.39Zm-79.07-1.38-.42-.58c.55-.4,1.16-.81,1.79-1.21l.37.61C468,589.25,467.42,589.65,466.88,590.05Zm75.71-1.14c-.57-.36-1.19-.71-1.83-1l.33-.63c.66.35,1.29.72,1.88,1.08Zm-72.13-1.09-.34-.63c.62-.32,1.27-.65,1.93-1l.3.65C471.7,587.18,471.06,587.49,470.46,587.82Zm68.4-.91c-.62-.29-1.27-.58-1.94-.85l.27-.65c.68.27,1.34.56,2,.86ZM474.29,586l-.26-.66c.65-.26,1.32-.51,2-.76l.25.66C475.6,585.51,474.94,585.77,474.29,586Zm60.65-.73c-.65-.24-1.32-.46-2-.69l.22-.67c.69.22,1.37.45,2,.7Zm-56.65-.71-.22-.68c.67-.21,1.36-.42,2.06-.62l.19.68C479.63,584.17,479,584.38,478.29,584.59ZM530.9,584c-.67-.19-1.35-.38-2-.56l.17-.68c.71.18,1.4.37,2.08.56Zm-48.53-.57-.17-.69c.69-.17,1.38-.34,2.09-.49l.15.69C483.74,583.09,483.05,583.26,482.37,583.43Zm44.41-.47c-.68-.16-1.37-.3-2.08-.44l.14-.7q1.06.21,2.1.45Zm-40.26-.46-.13-.69c.69-.14,1.4-.26,2.11-.39l.12.7Zm36.09-.36-2.1-.34.1-.7,2.12.34Zm-31.89-.35-.1-.7,2.12-.29.09.71C492.12,581.59,491.41,581.69,490.72,581.79Zm27.68-.27c-.7-.09-1.4-.17-2.12-.24l.07-.7q1.08.1,2.13.24Zm-23.46-.25-.07-.7c.71-.08,1.42-.14,2.13-.2l.06.71Zm19.22-.19c-.7-.05-1.41-.11-2.12-.15l0-.7c.72,0,1.43.09,2.14.15Zm-15-.15-.05-.71,2.14-.1,0,.7Zm10.72-.1-2.12-.07v-.71l2.14.07Zm-6.47-.07,0-.71c.72,0,1.43,0,2.15,0h.09v.71h-.09C504.86,580.74,504.15,580.74,503.44,580.76Z"/><path class="cls-18" d="M511.91,591.34c-.13-2.2-2.3-3.42-4.83-3.42-1.05,0-2.5.53-2.48,1.54,0,3.09,14.73,2.36,15.52,9.82.56,5.37-5.19,7.39-10,7.39-.49,0-1,0-1.43-.07l.07,2.36h-2.64l-.05-2.91a10.54,10.54,0,0,1-4.44-2.67l-.48,2.74H494l.49-8.65h7.17c0,2.78,3.27,3.25,4.93,3.32,1.37,0,3.33-.27,3.27-1.68-.1-2.55-14.88-1.48-14.45-9.38.22-4.23,5.24-6.07,8.69-6.07.52,0,1.05,0,1.58.08l0-2h2.22l.08,2.39a6.66,6.66,0,0,1,3.66,2.33l.21-2.33h6.08l.72,7.19Z"/><path class="cls-19" d="M549.14,614a53.46,53.46,0,0,1-9.71,4.58,82.65,82.65,0,0,1-9.71,2.82c-3.08.69-6.32,1.27-9.7,1.69-3.13.39-6.38.66-9.71.8-1.56.06-3.14.09-4.74.1s-3.33,0-5-.11c-3.33-.15-6.58-.42-9.71-.82a98.11,98.11,0,0,1-9.7-1.72,80.73,80.73,0,0,1-9.71-2.84,53.16,53.16,0,0,1-9.71-4.64c-4.79-3-8.12-6.49-9.48-10.28v13c1.55,3.54,4.86,6.86,9.48,9.75a54.5,54.5,0,0,0,9.71,4.69,79.3,79.3,0,0,0,9.71,2.93,95.52,95.52,0,0,0,9.7,1.79q4.71.63,9.71.87c1.64.07,3.3.11,5,.11s3.17,0,4.74-.11q5-.21,9.71-.84c3.37-.44,6.62-1,9.7-1.76a83,83,0,0,0,9.71-2.9,55.52,55.52,0,0,0,9.71-4.64c4.74-2.92,8.13-6.29,9.71-9.89V603.39C557.46,607.23,554.06,611,549.14,614Z"/><path class="cls-9" d="M505.57,563.48c-29.44,0-53.28,10.9-53.28,24.3s23.84,24.26,53.28,24.3,53.28-10.9,53.28-24.3S535,563.52,505.57,563.48Z"/><path class="cls-17" d="M505.57,567.53c-24.53,0-44.39,8.12-44.39,18.08S481,603.67,505.57,603.7,550,595.58,550,585.61,530.1,567.56,505.57,567.53Z"/><path class="cls-18" d="M505.57,604.05l0-.35v-.36h0l2.08,0,0,.7Zm-2.19,0-2.14-.06,0-.71q1.05,0,2.13.06Zm6.43-.06,0-.7,2.13-.11,0,.7C511.24,603.9,510.53,603.93,509.81,604Zm-10.71-.11c-.72,0-1.43-.09-2.14-.15L497,603c.7.06,1.41.11,2.12.15Zm15-.14L514,603l2.12-.19.07.71Zm-19.26-.2-2.14-.24.1-.71c.69.09,1.4.17,2.11.24Zm23.52-.23-.08-.71c.71-.08,1.41-.18,2.11-.28l.1.7C519.78,603.1,519.07,603.19,518.35,603.28Zm-27.77-.3c-.72-.1-1.43-.22-2.12-.33l.11-.7c.7.12,1.4.23,2.11.33Zm32-.32-.11-.7,2.09-.38.14.7Zm-36.25-.4-2.1-.44.16-.69,2.08.44Zm40.46-.42-.15-.69c.71-.16,1.4-.32,2.07-.49l.17.69C528.21,601.52,527.51,601.69,526.8,601.84Zm-44.64-.52c-.71-.17-1.4-.36-2.08-.55l.2-.68c.67.19,1.35.37,2.05.55Zm48.81-.53-.19-.68c.69-.19,1.37-.4,2-.61l.22.67C532.36,600.39,531.67,600.6,531,600.79ZM478,600.15l-2-.69.24-.67c.66.24,1.33.46,2,.68Zm57-.67-.24-.66c.68-.24,1.34-.5,2-.76l.27.66C536.42,599,535.75,599.24,535.06,599.48Zm-61.07-.8c-.67-.27-1.34-.56-2-.86l.29-.64c.63.3,1.29.58,1.94.85Zm65-.82-.29-.64c.65-.3,1.29-.62,1.89-.94l.34.63C540.36,597.23,539.71,597.55,539,597.86Zm-68.95-1c-.66-.35-1.29-.7-1.88-1.07l.38-.6c.57.35,1.19.71,1.83,1Zm72.76-1-.37-.61c.61-.38,1.2-.77,1.74-1.17l.42.57C544.09,595,543.48,595.45,542.85,595.84Zm-76.43-1.27c-.6-.45-1.17-.91-1.67-1.37l.47-.53c.49.45,1,.9,1.62,1.34Zm79.91-1.31-.48-.53a15.5,15.5,0,0,0,1.45-1.49l.54.45A15.77,15.77,0,0,1,546.33,593.26Zm-83.09-1.64a10.8,10.8,0,0,1-1.25-1.8l.61-.35a10.83,10.83,0,0,0,1.18,1.7Zm85.87-1.72-.62-.35a8.9,8.9,0,0,0,.81-1.87l.68.19A9.41,9.41,0,0,1,549.11,589.9Zm-88-2.11a8.13,8.13,0,0,1-.3-2.18l.7,0v0a7.53,7.53,0,0,0,.28,2Zm89.18-2.11H550l-.36-.07a7.14,7.14,0,0,0-.26-1.94l.68-.19a8.16,8.16,0,0,1,.29,2.13Zm-88.49-2.09-.67-.19a9,9,0,0,1,.86-2l.61.35A9.83,9.83,0,0,0,461.82,583.59Zm86.73-1.81a11.58,11.58,0,0,0-1.16-1.69l.54-.45a11.91,11.91,0,0,1,1.25,1.8ZM463.81,580l-.54-.45a15.77,15.77,0,0,1,1.51-1.57l.47.52A15.47,15.47,0,0,0,463.81,580ZM546,578.58a18.56,18.56,0,0,0-1.62-1.33l.42-.58c.61.46,1.17.92,1.68,1.39Zm-79.07-1.39-.42-.56c.55-.41,1.16-.82,1.79-1.22l.37.61C468,576.4,467.42,576.8,466.88,577.19Zm75.71-1.13c-.57-.36-1.19-.71-1.83-1l.33-.63c.66.36,1.29.72,1.88,1.08ZM470.46,575l-.34-.63c.62-.33,1.27-.65,1.93-1l.3.64C471.7,574.33,471.06,574.64,470.46,575Zm68.4-.91c-.62-.29-1.27-.58-1.94-.85l.27-.65c.68.27,1.34.56,2,.86Zm-64.57-.88-.26-.65c.65-.27,1.32-.53,2-.77l.25.66C475.6,572.67,474.94,572.92,474.29,573.18Zm60.65-.73c-.65-.24-1.32-.46-2-.68l.22-.68c.69.22,1.37.45,2,.69Zm-56.65-.71-.22-.67c.67-.22,1.36-.43,2.06-.63l.19.69C479.63,571.32,479,571.53,478.29,571.74Zm52.61-.59c-.67-.19-1.35-.38-2-.55l.17-.69c.71.18,1.4.36,2.08.56Zm-48.53-.57-.17-.69c.69-.17,1.38-.34,2.09-.49l.15.69C483.74,570.24,483.05,570.4,482.37,570.58Zm44.41-.48-2.08-.43.14-.69c.71.13,1.41.28,2.1.43Zm-40.26-.45-.13-.69c.69-.14,1.4-.26,2.11-.39l.12.7Zm36.09-.37c-.69-.12-1.4-.22-2.1-.33l.1-.7,2.12.34Zm-31.89-.34-.1-.7,2.12-.29.09.71C492.12,568.74,491.41,568.84,490.72,568.94Zm27.68-.27c-.7-.09-1.4-.17-2.12-.24l.07-.71,2.13.25Zm-23.46-.25-.07-.7c.71-.08,1.42-.14,2.13-.2l.06.71Zm19.22-.19-2.12-.15,0-.7c.72,0,1.43.09,2.14.15Zm-15-.15-.05-.71,2.14-.11,0,.71Zm10.72-.1-2.12-.07v-.71l2.14.07Zm-6.47-.07,0-.71,2.15,0h.09v.71h-.09C504.86,567.89,504.15,567.89,503.44,567.91Z"/><path class="cls-18" d="M511.91,580.88c-.13-2.19-2.3-3.41-4.83-3.41-1.05,0-2.5.52-2.48,1.54,0,3.08,14.73,2.35,15.52,9.81.56,5.37-5.19,7.39-10,7.39-.49,0-1,0-1.43-.07l.07,2.36h-2.64l-.05-2.91a10.44,10.44,0,0,1-4.44-2.67l-.48,2.74H494l.49-8.65h7.17c0,2.78,3.27,3.26,4.93,3.33,1.37,0,3.33-.28,3.27-1.69-.1-2.55-14.88-1.48-14.45-9.38.22-4.23,5.24-6.07,8.69-6.07.52,0,1.05,0,1.58.08l0-2h2.22l.08,2.38A6.72,6.72,0,0,1,511.6,576l.21-2.33h6.08l.72,7.19Z"/><path class="cls-19" d="M549.14,599.2a52.8,52.8,0,0,1-9.71,4.58,80.78,80.78,0,0,1-9.71,2.82c-3.08.7-6.32,1.27-9.7,1.7-3.13.39-6.38.66-9.71.79-1.56.07-3.14.1-4.74.1s-3.33,0-5-.11c-3.33-.14-6.58-.41-9.71-.82-3.38-.43-6.63-1-9.7-1.71a80.71,80.71,0,0,1-9.71-2.85,53.16,53.16,0,0,1-9.71-4.64c-4.79-3-8.12-6.49-9.48-10.28v13c1.55,3.55,4.86,6.87,9.48,9.76a55.2,55.2,0,0,0,9.71,4.69,81.09,81.09,0,0,0,9.71,2.93,98.4,98.4,0,0,0,9.7,1.78q4.71.64,9.71.87c1.64.07,3.3.11,5,.11s3.17,0,4.74-.1c3.33-.14,6.57-.43,9.71-.84a96.1,96.1,0,0,0,9.7-1.77,81.15,81.15,0,0,0,9.71-2.9,55.52,55.52,0,0,0,9.71-4.63c4.74-2.92,8.13-6.29,9.71-9.9v-13C557.46,592.64,554.06,596.18,549.14,599.2Z"/><path class="cls-9" d="M505.57,551.11c-29.44,0-53.28,10.9-53.28,24.3s23.84,24.26,53.28,24.3,53.28-10.9,53.28-24.3S535,551.15,505.57,551.11Z"/><path class="cls-17" d="M505.57,555.16c-24.53,0-44.39,8.11-44.39,18.08s19.86,18,44.39,18.08S550,583.21,550,573.24,530.1,555.19,505.57,555.16Z"/><path class="cls-18" d="M505.57,591.68l0-.36V591h0l2.08,0,0,.7Zm-2.19,0-2.14-.06,0-.71,2.13.07Zm6.43-.06,0-.71,2.13-.1,0,.71Zm-10.71-.11c-.72,0-1.43-.1-2.14-.15l.06-.71c.7.06,1.41.11,2.12.15Zm15-.14-.06-.71,2.12-.19.07.7Zm-19.26-.21c-.72-.06-1.43-.15-2.14-.24l.1-.7c.69.09,1.4.17,2.11.24Zm23.52-.22-.08-.7,2.11-.29.1.7Zm-27.77-.3c-.72-.1-1.43-.22-2.12-.34l.11-.69c.7.12,1.4.22,2.11.33Zm32-.32-.11-.7,2.09-.38.14.7Zm-36.25-.4c-.71-.14-1.4-.28-2.1-.44l.16-.69c.68.15,1.38.3,2.08.43Zm40.46-.42-.15-.69c.71-.16,1.4-.32,2.07-.49l.17.69C528.21,589.15,527.51,589.31,526.8,589.47ZM482.16,589c-.71-.17-1.4-.36-2.08-.55l.2-.68c.67.19,1.35.37,2.05.55Zm48.81-.53-.19-.68c.69-.2,1.37-.4,2-.61l.22.67C532.36,588,531.67,588.23,531,588.42ZM478,587.78l-2-.69.24-.67c.66.23,1.33.46,2,.68Zm57-.66-.24-.67c.68-.25,1.34-.5,2-.76l.27.65Q536.09,586.75,535.06,587.12ZM474,586.31c-.67-.27-1.34-.56-2-.86l.29-.64c.63.29,1.29.58,1.94.85Zm65-.82-.29-.64c.65-.3,1.29-.62,1.89-.94l.34.62C540.36,584.86,539.71,585.18,539,585.49Zm-68.95-1c-.66-.35-1.29-.71-1.88-1.08l.38-.6c.57.36,1.19.72,1.83,1.06Zm72.76-1-.37-.6c.61-.38,1.2-.78,1.74-1.17l.42.57C544.09,582.67,543.48,583.07,542.85,583.46Zm-76.43-1.26c-.6-.45-1.17-.91-1.67-1.37l.47-.53c.49.45,1,.9,1.62,1.34Zm79.91-1.31-.48-.53a15.5,15.5,0,0,0,1.45-1.49l.54.45A15.77,15.77,0,0,1,546.33,580.89Zm-83.09-1.64a11.23,11.23,0,0,1-1.25-1.8l.61-.34a12.35,12.35,0,0,0,1.18,1.69Zm85.87-1.72-.62-.35a8.75,8.75,0,0,0,.81-1.88l.68.2A9.41,9.41,0,0,1,549.11,577.53Zm-88-2.12a8,8,0,0,1-.3-2.17l.7,0v0a7.45,7.45,0,0,0,.28,2Zm89.18-2.1H550l-.36-.07a7.14,7.14,0,0,0-.26-1.94l.68-.19a8.16,8.16,0,0,1,.29,2.13Zm-88.49-2.09-.67-.2a9.09,9.09,0,0,1,.86-2l.61.35A9.83,9.83,0,0,0,461.82,571.22Zm86.73-1.8a11.22,11.22,0,0,0-1.16-1.71l.54-.44a11.91,11.91,0,0,1,1.25,1.8Zm-84.74-1.77-.54-.46a16.87,16.87,0,0,1,1.51-1.56l.47.52A15.47,15.47,0,0,0,463.81,567.65ZM546,566.21a20.62,20.62,0,0,0-1.62-1.34l.42-.56c.61.45,1.17.91,1.68,1.37Zm-79.07-1.39-.42-.57c.55-.41,1.16-.81,1.79-1.21l.37.6C468,564,467.42,564.43,466.88,564.82Zm75.71-1.13c-.57-.36-1.19-.71-1.83-1.06l.33-.62c.66.35,1.29.72,1.88,1.08Zm-72.13-1.1-.34-.62c.62-.33,1.27-.65,1.93-1l.3.64C471.7,562,471.06,562.27,470.46,562.59Zm68.4-.9c-.62-.29-1.27-.58-1.94-.85l.27-.65c.68.27,1.34.56,2,.86Zm-64.57-.88-.26-.66c.65-.26,1.32-.52,2-.77l.25.67C475.6,560.3,474.94,560.55,474.29,560.81Zm60.65-.73c-.65-.24-1.32-.47-2-.69l.22-.67c.69.22,1.37.46,2,.69Zm-56.65-.72-.22-.67c.67-.21,1.36-.42,2.06-.62l.19.68C479.63,559,479,559.15,478.29,559.36Zm52.61-.58c-.67-.2-1.35-.38-2-.55l.17-.69c.71.18,1.4.36,2.08.56Zm-48.53-.57-.17-.69c.69-.18,1.38-.34,2.09-.5l.15.69C483.74,557.87,483.05,558,482.37,558.21Zm44.41-.48-2.08-.44.14-.69,2.1.44Zm-40.26-.45-.13-.7,2.11-.38.12.7Zm36.09-.36c-.69-.12-1.4-.24-2.1-.34l.1-.7c.71.1,1.42.22,2.12.34Zm-31.89-.35-.1-.7c.7-.11,1.41-.2,2.12-.29l.09.71C492.12,556.37,491.41,556.47,490.72,556.57Zm27.68-.27c-.7-.09-1.4-.17-2.12-.24l.07-.71c.72.07,1.43.16,2.13.24Zm-23.46-.25-.07-.7c.71-.08,1.42-.14,2.13-.2l.06.71C496.35,555.91,495.64,556,494.94,556.05Zm19.22-.19c-.7-.06-1.41-.1-2.12-.15l0-.71,2.14.16Zm-15-.15-.05-.71,2.14-.11,0,.71C500.6,555.63,499.89,555.66,499.19,555.71Zm10.72-.1c-.7,0-1.41-.05-2.12-.07v-.71l2.14.07Zm-6.47-.07,0-.71c.72,0,1.43,0,2.15,0h.09v.71h-.09C504.86,555.52,504.15,555.52,503.44,555.54Z"/><path class="cls-18" d="M511.91,568.51c-.13-2.2-2.3-3.41-4.83-3.41-1.05,0-2.5.52-2.48,1.54,0,3.08,14.73,2.35,15.52,9.81.56,5.37-5.19,7.39-10,7.39-.49,0-1,0-1.43-.07l.07,2.36h-2.64l-.05-2.91a10.44,10.44,0,0,1-4.44-2.67l-.48,2.74H494l.49-8.65h7.17c0,2.78,3.27,3.26,4.93,3.32,1.37,0,3.33-.27,3.27-1.68-.1-2.55-14.88-1.48-14.45-9.38.22-4.23,5.24-6.07,8.69-6.07.52,0,1.05,0,1.58.08l0-2h2.22l.08,2.38a6.72,6.72,0,0,1,3.66,2.33l.21-2.33h6.08l.72,7.19Z"/><path class="cls-19" d="M549.14,584.44a53.46,53.46,0,0,1-9.71,4.58,80.78,80.78,0,0,1-9.71,2.82c-3.08.69-6.32,1.27-9.7,1.69-3.13.39-6.38.66-9.71.8-1.56.06-3.14.09-4.74.1s-3.33,0-5-.11c-3.33-.14-6.58-.42-9.71-.82a98.11,98.11,0,0,1-9.7-1.72,80.73,80.73,0,0,1-9.71-2.84,53.16,53.16,0,0,1-9.71-4.64c-4.79-3-8.12-6.49-9.48-10.28v13c1.55,3.54,4.86,6.86,9.48,9.75a54.5,54.5,0,0,0,9.71,4.69,81.07,81.07,0,0,0,9.71,2.94c3.08.72,6.32,1.33,9.7,1.78,3.14.42,6.38.72,9.71.86,1.64.08,3.3.12,5,.12s3.17,0,4.74-.11c3.33-.14,6.57-.43,9.71-.84,3.37-.44,6.62-1,9.7-1.76a81.15,81.15,0,0,0,9.71-2.9,55.52,55.52,0,0,0,9.71-4.64c4.74-2.92,8.13-6.29,9.71-9.89V574C557.46,577.87,554.06,581.42,549.14,584.44Z"/><path class="cls-9" d="M505.57,533.47c-29.44,0-53.28,10.9-53.28,24.3s23.84,24.26,53.28,24.3,53.28-10.9,53.28-24.3S535,533.51,505.57,533.47Z"/><path class="cls-17" d="M505.57,537.52c-24.53,0-44.39,8.12-44.39,18.08s19.86,18.06,44.39,18.09S550,565.57,550,555.6,530.1,537.56,505.57,537.52Z"/><path class="cls-18" d="M505.57,574l0-.35v-.36h0l2.08,0,0,.71Zm-2.19,0-2.14-.07,0-.71,2.13.07Zm6.43-.07,0-.7,2.13-.11,0,.71Zm-10.71-.11c-.72,0-1.43-.09-2.14-.15l.06-.7,2.12.15Zm15-.14L514,573c.71,0,1.42-.12,2.12-.19l.07.71Zm-19.26-.2c-.72-.08-1.43-.15-2.14-.24l.1-.7,2.11.23Zm23.52-.23-.08-.7,2.11-.29.1.7C519.78,573.09,519.07,573.18,518.35,573.27Zm-27.77-.3c-.72-.1-1.43-.22-2.12-.33l.11-.7c.7.12,1.4.23,2.11.33Zm32-.32-.11-.7c.71-.12,1.4-.24,2.09-.38l.14.7Zm-36.25-.4-2.1-.44.16-.69c.68.16,1.38.3,2.08.44Zm40.46-.42-.15-.69c.71-.16,1.4-.32,2.07-.49l.17.69C528.21,571.51,527.51,571.67,526.8,571.83Zm-44.64-.51c-.71-.18-1.4-.36-2.08-.56l.2-.68c.67.19,1.35.37,2.05.55Zm48.81-.53-.19-.68c.69-.2,1.37-.41,2-.62l.22.68C532.36,570.38,531.67,570.59,531,570.79ZM478,570.14q-1-.33-2-.69l.24-.67c.66.24,1.33.46,2,.68Zm57-.66-.24-.67c.68-.24,1.34-.5,2-.76l.27.66C536.42,569,535.75,569.23,535.06,569.48Zm-61.07-.8c-.67-.28-1.34-.57-2-.86l.29-.64c.63.28,1.29.57,1.94.84Zm65-.83-.29-.64c.65-.3,1.29-.62,1.89-.94l.34.63C540.36,567.22,539.71,567.54,539,567.85Zm-68.95-1c-.66-.35-1.29-.71-1.88-1.08l.38-.6c.57.36,1.19.71,1.83,1.05Zm72.76-1-.37-.61c.61-.38,1.2-.77,1.74-1.17l.42.57C544.09,565,543.48,565.44,542.85,565.83Zm-76.43-1.26c-.6-.45-1.17-.92-1.67-1.38l.47-.52c.49.44,1,.89,1.62,1.33Zm79.91-1.32-.48-.53a14.43,14.43,0,0,0,1.45-1.49l.54.46A16.87,16.87,0,0,1,546.33,563.25Zm-83.09-1.63a11.3,11.3,0,0,1-1.25-1.81l.61-.34a11.84,11.84,0,0,0,1.18,1.7Zm85.87-1.73-.62-.35a8.9,8.9,0,0,0,.81-1.87l.68.19A9.2,9.2,0,0,1,549.11,559.89Zm-88-2.11a8.13,8.13,0,0,1-.3-2.18l.7,0v0a7.4,7.4,0,0,0,.28,2Zm89.18-2.1-.71,0H550l-.36-.07a7.14,7.14,0,0,0-.26-1.94l.68-.19a8.22,8.22,0,0,1,.29,2.13Zm-88.49-2.1-.67-.19a9,9,0,0,1,.86-2l.61.35A9.83,9.83,0,0,0,461.82,553.58Zm86.73-1.8a11.14,11.14,0,0,0-1.16-1.7l.54-.45a12.43,12.43,0,0,1,1.25,1.8ZM463.81,550l-.54-.46a15.77,15.77,0,0,1,1.51-1.57l.47.52A15.55,15.55,0,0,0,463.81,550ZM546,548.57a18.56,18.56,0,0,0-1.62-1.33l.42-.57c.61.45,1.17.92,1.68,1.38Zm-79.07-1.38-.42-.57c.55-.42,1.16-.82,1.79-1.21l.37.6C468,546.39,467.42,546.79,466.88,547.19Zm75.71-1.14c-.57-.35-1.19-.71-1.83-1l.33-.63c.66.36,1.29.72,1.88,1.09ZM470.46,545l-.34-.63c.62-.33,1.27-.65,1.93-1l.3.65C471.7,544.32,471.06,544.64,470.46,545Zm68.4-.91c-.62-.29-1.27-.57-1.94-.84l.27-.66c.68.27,1.34.57,2,.86Zm-64.57-.88-.26-.65c.65-.27,1.32-.52,2-.77l.25.66C475.6,542.66,474.94,542.91,474.29,543.17Zm60.65-.73c-.65-.23-1.32-.46-2-.68l.22-.67c.69.21,1.37.45,2,.69Zm-56.65-.71-.22-.68,2.06-.62.19.69C479.63,541.31,479,541.52,478.29,541.73Zm52.61-.59c-.67-.19-1.35-.37-2-.55l.17-.69c.71.18,1.4.37,2.08.56Zm-48.53-.57-.17-.69,2.09-.5.15.7Zm44.41-.47c-.68-.15-1.37-.3-2.08-.44l.14-.69c.71.14,1.41.28,2.1.44Zm-40.26-.46-.13-.69c.69-.14,1.4-.27,2.11-.39l.12.7Zm36.09-.36-2.1-.34.1-.69c.71.1,1.42.21,2.12.33Zm-31.89-.35-.1-.7c.7-.1,1.41-.2,2.12-.28l.09.7Zm27.68-.27c-.7-.09-1.4-.17-2.12-.24l.07-.71,2.13.25Zm-23.46-.25-.07-.7,2.13-.2.06.71Zm19.22-.18-2.12-.16,0-.7c.72,0,1.43.09,2.14.15Zm-15-.16-.05-.71,2.14-.1,0,.71C500.6,538,499.89,538,499.19,538.07Zm10.72-.1-2.12-.07v-.7c.72,0,1.43,0,2.14.06Zm-6.47-.07,0-.71,2.15,0h.09v.71h-.09Z"/><path class="cls-18" d="M511.91,550.87c-.13-2.19-2.3-3.41-4.83-3.41-1.05,0-2.5.52-2.48,1.54,0,3.08,14.73,2.35,15.52,9.82.56,5.36-5.19,7.38-10,7.38-.49,0-1,0-1.43-.07l.07,2.36h-2.64l-.05-2.91a10.44,10.44,0,0,1-4.44-2.67l-.48,2.75H494l.49-8.66h7.17c0,2.78,3.27,3.26,4.93,3.33,1.37,0,3.33-.28,3.27-1.69-.1-2.54-14.88-1.47-14.45-9.37.22-4.24,5.24-6.07,8.69-6.07a14.05,14.05,0,0,1,1.58.08l0-2h2.22l.08,2.38A6.72,6.72,0,0,1,511.6,546l.21-2.33h6.08l.72,7.19Z"/><path class="cls-19" d="M549.14,569.2a54.13,54.13,0,0,1-9.71,4.58,80.8,80.8,0,0,1-9.71,2.81c-3.08.7-6.32,1.27-9.7,1.7-3.13.39-6.38.66-9.71.79-1.56.07-3.14.1-4.74.1s-3.33,0-5-.1c-3.33-.14-6.58-.42-9.71-.82a98.11,98.11,0,0,1-9.7-1.72,78.92,78.92,0,0,1-9.71-2.85,52.51,52.51,0,0,1-9.71-4.64c-4.79-3-8.12-6.48-9.48-10.27v13c1.55,3.55,4.86,6.87,9.48,9.76a54.5,54.5,0,0,0,9.71,4.69,79.3,79.3,0,0,0,9.71,2.93,98.37,98.37,0,0,0,9.7,1.79q4.71.63,9.71.86c1.64.07,3.3.11,5,.11s3.17,0,4.74-.1c3.33-.14,6.57-.43,9.71-.84,3.37-.45,6.62-1,9.7-1.77a79.35,79.35,0,0,0,9.71-2.9,54.81,54.81,0,0,0,9.71-4.63c4.74-2.92,8.13-6.29,9.71-9.9v-13C557.46,562.63,554.06,566.17,549.14,569.2Z"/><path class="cls-9" d="M505.57,518.7c-29.44,0-53.28,10.91-53.28,24.3s23.84,24.27,53.28,24.31S558.85,556.4,558.85,543,535,518.75,505.57,518.7Z"/><path class="cls-17" d="M505.57,522.76c-24.53,0-44.39,8.11-44.39,18.08s19.86,18,44.39,18.08S550,550.81,550,540.84,530.1,522.79,505.57,522.76Z"/><path class="cls-18" d="M505.57,559.28l0-.36v-.35h0c.7,0,1.39,0,2.08,0l0,.71Zm-2.19,0c-.71,0-1.43,0-2.14-.07l0-.7q1.05,0,2.13.06Zm6.43-.06,0-.71,2.13-.1,0,.7Zm-10.71-.11-2.14-.15.06-.71c.7.06,1.41.11,2.12.15Zm15-.15-.06-.7,2.12-.19.07.7Zm-19.26-.2c-.72-.07-1.43-.15-2.14-.24l.1-.7c.69.09,1.4.16,2.11.24Zm23.52-.23-.08-.7,2.11-.28.1.7C519.78,558.32,519.07,558.42,518.35,558.5Zm-27.77-.29-2.12-.34.11-.69c.7.12,1.4.22,2.11.33Zm32-.32-.11-.7,2.09-.38.14.69C524,557.64,523.31,557.77,522.59,557.89Zm-36.25-.4-2.1-.44.16-.69c.68.15,1.38.3,2.08.43Zm40.46-.42-.15-.69c.71-.16,1.4-.32,2.07-.49l.17.69C528.21,556.75,527.51,556.91,526.8,557.07Zm-44.64-.52c-.71-.17-1.4-.36-2.08-.55l.2-.69c.67.19,1.35.38,2.05.56ZM531,556l-.19-.68c.69-.19,1.37-.4,2-.61l.22.67C532.36,555.62,531.67,555.82,531,556ZM478,555.37q-1-.33-2-.69l.24-.66c.66.23,1.33.46,2,.68Zm57-.65-.24-.67c.68-.25,1.34-.5,2-.76l.27.65Q536.09,554.35,535.06,554.72ZM474,553.91c-.67-.27-1.34-.56-2-.86l.29-.64c.63.29,1.29.58,1.94.85Zm65-.82-.29-.64c.65-.31,1.29-.62,1.89-.94l.34.62C540.36,552.46,539.71,552.78,539,553.09Zm-68.95-1c-.66-.34-1.29-.71-1.88-1.08l.38-.6c.57.36,1.19.72,1.83,1.05Zm72.76-1-.37-.6c.61-.38,1.2-.78,1.74-1.18l.42.58C544.09,550.27,543.48,550.67,542.85,551.06Zm-76.43-1.26a19.78,19.78,0,0,1-1.67-1.38l.47-.52a20.19,20.19,0,0,0,1.62,1.33Zm79.91-1.32-.48-.52a15.5,15.5,0,0,0,1.45-1.49l.54.45A15.7,15.7,0,0,1,546.33,548.48Zm-83.09-1.63a11.23,11.23,0,0,1-1.25-1.8l.61-.35a11.84,11.84,0,0,0,1.18,1.7Zm85.87-1.72-.62-.35a8.75,8.75,0,0,0,.81-1.88l.68.2A9.63,9.63,0,0,1,549.11,545.13Zm-88-2.12a8,8,0,0,1-.3-2.17l.7,0v0a7.45,7.45,0,0,0,.28,2Zm89.18-2.1H550l-.36-.07a7.14,7.14,0,0,0-.26-1.94l.68-.19a8.16,8.16,0,0,1,.29,2.13Zm-88.49-2.09-.67-.2a8.9,8.9,0,0,1,.86-2l.61.35A9.83,9.83,0,0,0,461.82,538.82ZM548.55,537a11.66,11.66,0,0,0-1.16-1.7l.54-.45a12,12,0,0,1,1.25,1.81Zm-84.74-1.76-.54-.46a15.7,15.7,0,0,1,1.51-1.56l.47.52A15.47,15.47,0,0,0,463.81,535.25ZM546,533.81a20.62,20.62,0,0,0-1.62-1.34l.42-.56a18.19,18.19,0,0,1,1.68,1.38Zm-79.07-1.39-.42-.57c.55-.41,1.16-.82,1.79-1.21l.37.6C468,531.63,467.42,532,466.88,532.42Zm75.71-1.13c-.57-.36-1.19-.71-1.83-1l.33-.63c.66.35,1.29.71,1.88,1.08Zm-72.13-1.1-.34-.62c.62-.33,1.27-.65,1.93-1l.3.64C471.7,529.56,471.06,529.87,470.46,530.19Zm68.4-.9c-.62-.3-1.27-.58-1.94-.85l.27-.66q1,.42,2,.87Zm-64.57-.88-.26-.66c.65-.26,1.32-.52,2-.77l.25.67C475.6,527.89,474.94,528.15,474.29,528.41Zm60.65-.73c-.65-.24-1.32-.47-2-.69l.22-.67c.69.22,1.37.45,2,.69ZM478.29,527l-.22-.67c.67-.21,1.36-.42,2.06-.62l.19.68C479.63,526.55,479,526.75,478.29,527Zm52.61-.58c-.67-.2-1.35-.38-2-.56l.17-.68c.71.17,1.4.36,2.08.55Zm-48.53-.58-.17-.68c.69-.18,1.38-.34,2.09-.5l.15.69Zm44.41-.47c-.68-.15-1.37-.3-2.08-.43l.14-.7,2.1.44Zm-40.26-.45-.13-.7,2.11-.38.12.7Zm36.09-.37c-.69-.12-1.4-.23-2.1-.33l.1-.7c.71.1,1.42.21,2.12.33Zm-31.89-.34-.1-.7,2.12-.29.09.7C492.12,524,491.41,524.06,490.72,524.17Zm27.68-.28-2.12-.24.07-.7q1.08.1,2.13.24Zm-23.46-.24-.07-.71,2.13-.19.06.7Zm19.22-.19c-.7-.05-1.41-.11-2.12-.15l0-.71,2.14.15Zm-15-.15-.05-.71,2.14-.11,0,.71C500.6,523.23,499.89,523.26,499.19,523.31Zm10.72-.11c-.7,0-1.41-.05-2.12-.06v-.71l2.14.06Zm-6.47-.07,0-.7c.72,0,1.43,0,2.15,0h.09v.7h-.09Z"/><path class="cls-18" d="M511.91,536.1c-.13-2.19-2.3-3.4-4.83-3.4-1.05,0-2.5.52-2.48,1.54,0,3.08,14.73,2.35,15.52,9.81.56,5.37-5.19,7.39-10,7.39-.49,0-1,0-1.43-.07l.07,2.36h-2.64l-.05-2.91a10.54,10.54,0,0,1-4.44-2.67l-.48,2.74H494l.49-8.65h7.17c0,2.78,3.27,3.25,4.93,3.32,1.37,0,3.33-.27,3.27-1.68-.1-2.55-14.88-1.48-14.45-9.38.22-4.23,5.24-6.07,8.69-6.07a14.05,14.05,0,0,1,1.58.08l0-2h2.22l.08,2.39a6.72,6.72,0,0,1,3.66,2.33l.21-2.33h6.08l.72,7.18Z"/><path class="cls-19" d="M549.14,554.43a53.46,53.46,0,0,1-9.71,4.58,80.78,80.78,0,0,1-9.71,2.82c-3.08.69-6.32,1.27-9.7,1.69-3.13.39-6.38.66-9.71.8-1.56.06-3.14.1-4.74.1s-3.33,0-5-.11c-3.33-.14-6.58-.42-9.71-.82-3.38-.43-6.63-1-9.7-1.71a82.58,82.58,0,0,1-9.71-2.85,53.16,53.16,0,0,1-9.71-4.64c-4.79-3-8.12-6.48-9.48-10.28v13c1.55,3.54,4.86,6.87,9.48,9.75a54.5,54.5,0,0,0,9.71,4.69,81.07,81.07,0,0,0,9.71,2.94,98.4,98.4,0,0,0,9.7,1.78c3.14.42,6.38.72,9.71.87,1.64.07,3.3.11,5,.11s3.17,0,4.74-.1q5-.22,9.71-.84c3.37-.45,6.62-1.05,9.7-1.77a81.15,81.15,0,0,0,9.71-2.9,55.52,55.52,0,0,0,9.71-4.64c4.74-2.92,8.13-6.29,9.71-9.89V544C557.46,547.86,554.06,551.41,549.14,554.43Z"/><path class="cls-9" d="M505.57,503.46c-29.44,0-53.28,10.91-53.28,24.3s23.84,24.27,53.28,24.31,53.28-10.91,53.28-24.31S535,503.5,505.57,503.46Z"/><path class="cls-17" d="M505.57,507.52c-24.53,0-44.39,8.11-44.39,18.08s19.86,18,44.39,18.08S550,535.56,550,525.6,530.1,507.54,505.57,507.52Z"/><path class="cls-18" d="M505.57,544l0-.35v-.36h0c.7,0,1.39,0,2.08,0l0,.71Zm-2.19,0-2.14-.07,0-.71c.7,0,1.41.06,2.13.07Zm6.43-.07,0-.7c.71,0,1.43-.06,2.13-.11l0,.71C511.24,543.88,510.53,543.92,509.81,543.94Zm-10.71-.1-2.14-.16.06-.7,2.12.15Zm15-.15L514,543l2.12-.19.07.7Zm-19.26-.2c-.72-.07-1.43-.15-2.14-.24l.1-.71c.69.09,1.4.17,2.11.24Zm23.52-.23-.08-.7,2.11-.28.1.7C519.78,543.08,519.07,543.18,518.35,543.26ZM490.58,543l-2.12-.34.11-.7c.7.12,1.4.23,2.11.33Zm32-.33-.11-.7,2.09-.37.14.69Zm-36.25-.4-2.1-.43.16-.7c.68.16,1.38.3,2.08.44Zm40.46-.42-.15-.69c.71-.15,1.4-.32,2.07-.49l.17.69C528.21,541.5,527.51,541.66,526.8,541.82Zm-44.64-.51c-.71-.18-1.4-.36-2.08-.56l.2-.68c.67.19,1.35.38,2.05.56Zm48.81-.53-.19-.68c.69-.2,1.37-.4,2-.62l.22.68C532.36,540.37,531.67,540.58,531,540.78ZM478,540.13q-1-.33-2-.69l.24-.67q1,.36,2,.69Zm57-.66-.24-.67c.68-.24,1.34-.5,2-.76l.27.66C536.42,539,535.75,539.22,535.06,539.47Zm-61.07-.8c-.67-.28-1.34-.56-2-.86l.29-.64c.63.29,1.29.57,1.94.84Zm65-.83-.29-.64c.65-.3,1.29-.62,1.89-.94l.34.63C540.36,537.22,539.71,537.54,539,537.84Zm-68.95-1c-.66-.35-1.29-.71-1.88-1.08l.38-.6c.57.36,1.19.71,1.83,1.05Zm72.76-1-.37-.6c.61-.38,1.2-.78,1.74-1.18l.42.57C544.09,535,543.48,535.43,542.85,535.82Zm-76.43-1.26a19.78,19.78,0,0,1-1.67-1.38l.47-.52c.49.44,1,.89,1.62,1.33Zm79.91-1.32-.48-.52a14.49,14.49,0,0,0,1.45-1.5l.54.46A15.7,15.7,0,0,1,546.33,533.24Zm-83.09-1.63a11.69,11.69,0,0,1-1.25-1.8l.61-.35a11.84,11.84,0,0,0,1.18,1.7Zm85.87-1.72-.62-.35a8.75,8.75,0,0,0,.81-1.88l.68.2A9.63,9.63,0,0,1,549.11,529.89Zm-88-2.12a8.11,8.11,0,0,1-.3-2.17l.7,0v0a7.45,7.45,0,0,0,.28,2Zm89.18-2.1H550l-.36-.06a7.21,7.21,0,0,0-.26-2l.68-.18a8.16,8.16,0,0,1,.29,2.13Zm-88.49-2.1-.67-.19a8.9,8.9,0,0,1,.86-2l.61.34A10.1,10.1,0,0,0,461.82,523.57Zm86.73-1.8a11.66,11.66,0,0,0-1.16-1.7l.54-.45a12,12,0,0,1,1.25,1.81ZM463.81,520l-.54-.46a15.77,15.77,0,0,1,1.51-1.57l.47.52A15.55,15.55,0,0,0,463.81,520ZM546,518.56a18.56,18.56,0,0,0-1.62-1.33l.42-.57c.61.45,1.17.92,1.68,1.38Zm-79.07-1.38-.42-.57c.55-.41,1.16-.82,1.79-1.21l.37.6C468,516.38,467.42,516.78,466.88,517.18Zm75.71-1.13c-.57-.36-1.19-.72-1.83-1.06l.33-.62c.66.35,1.29.71,1.88,1.08ZM470.46,515l-.34-.63c.62-.32,1.27-.65,1.93-1l.3.64C471.7,514.31,471.06,514.63,470.46,515Zm68.4-.9c-.62-.3-1.27-.58-1.94-.85l.27-.66c.68.28,1.34.56,2,.86Zm-64.57-.89-.26-.65c.65-.27,1.32-.52,2-.77l.25.67C475.6,512.65,474.94,512.91,474.29,513.16Zm60.65-.73c-.65-.23-1.32-.46-2-.68l.22-.68c.69.23,1.37.46,2,.7Zm-56.65-.71-.22-.67c.67-.22,1.36-.42,2.06-.62l.19.68C479.63,511.31,479,511.51,478.29,511.72Zm52.61-.59c-.67-.19-1.35-.37-2-.55l.17-.69c.71.18,1.4.37,2.08.56Zm-48.53-.57-.17-.69c.69-.17,1.38-.34,2.09-.49l.15.69Zm44.41-.47c-.68-.15-1.37-.3-2.08-.44l.14-.69c.71.14,1.41.28,2.1.44Zm-40.26-.45-.13-.7,2.11-.38.12.69Q487.56,509.43,486.52,509.64Zm36.09-.37c-.69-.12-1.4-.23-2.1-.33l.1-.71,2.12.34Zm-31.89-.35-.1-.7,2.12-.28.09.7Zm27.68-.27c-.7-.09-1.4-.17-2.12-.24l.07-.7q1.08.1,2.13.24Zm-23.46-.25-.07-.7c.71-.07,1.42-.14,2.13-.19l.06.7Zm19.22-.18c-.7-.06-1.41-.11-2.12-.15l0-.71c.72,0,1.43.1,2.14.15Zm-15-.16-.05-.7c.71-.05,1.42-.08,2.14-.11l0,.71C500.6,508,499.89,508,499.19,508.06Zm10.72-.1-2.12-.07v-.7c.72,0,1.43,0,2.14.06Zm-6.47-.07,0-.71,2.15,0h.09v.71h-.09Z"/><path class="cls-18" d="M511.91,520.86c-.13-2.19-2.3-3.41-4.83-3.41-1.05,0-2.5.52-2.48,1.54,0,3.09,14.73,2.35,15.52,9.81.56,5.38-5.19,7.39-10,7.39-.49,0-1,0-1.43-.07l.07,2.37h-2.64l-.05-2.91a10.55,10.55,0,0,1-4.44-2.68l-.48,2.75H494l.49-8.66h7.17c0,2.79,3.27,3.26,4.93,3.33,1.37,0,3.33-.28,3.27-1.68-.1-2.55-14.88-1.48-14.45-9.38.22-4.24,5.24-6.07,8.69-6.07a14.05,14.05,0,0,1,1.58.08l0-2h2.22l.08,2.39A6.61,6.61,0,0,1,511.6,516l.21-2.33h6.08l.72,7.18Z"/><path class="cls-19" d="M549.14,539.19a53.46,53.46,0,0,1-9.71,4.58,80.78,80.78,0,0,1-9.71,2.82c-3.08.69-6.32,1.26-9.7,1.69-3.13.39-6.38.66-9.71.8q-2.34.09-4.74.09c-1.68,0-3.33,0-5-.1-3.33-.14-6.58-.42-9.71-.82-3.38-.43-6.63-1-9.7-1.72a78.92,78.92,0,0,1-9.71-2.85,52.51,52.51,0,0,1-9.71-4.63c-4.79-3-8.12-6.49-9.48-10.28v13c1.55,3.54,4.86,6.86,9.48,9.75a54.5,54.5,0,0,0,9.71,4.69,81.09,81.09,0,0,0,9.71,2.93,98.37,98.37,0,0,0,9.7,1.79q4.71.63,9.71.86c1.64.08,3.3.12,5,.12s3.17,0,4.74-.11q5-.21,9.71-.84c3.37-.44,6.62-1,9.7-1.76a81.13,81.13,0,0,0,9.71-2.91,54.81,54.81,0,0,0,9.71-4.63c4.74-2.92,8.13-6.29,9.71-9.89v-13C557.46,532.62,554.06,536.17,549.14,539.19Z"/><path class="cls-8" d="M505.57,488.22c-29.44,0-53.28,10.9-53.28,24.3s23.84,24.26,53.28,24.3,53.28-10.9,53.28-24.3S535,488.26,505.57,488.22Z"/><path class="cls-10" d="M505.57,492.27c-24.53,0-44.39,8.12-44.39,18.08s19.86,18,44.39,18.08S550,520.32,550,510.35,530.1,492.3,505.57,492.27Z"/><path class="cls-19" d="M549.14,523.94a54.14,54.14,0,0,1-9.71,4.59,80.8,80.8,0,0,1-9.71,2.81c-3.08.7-6.32,1.27-9.7,1.69-3.13.4-6.38.67-9.71.8-1.56.07-3.14.1-4.74.1s-3.33,0-5-.11c-3.33-.14-6.58-.41-9.71-.81-3.38-.44-6.63-1-9.7-1.72a78.92,78.92,0,0,1-9.71-2.85,53.16,53.16,0,0,1-9.71-4.64c-4.79-3-8.12-6.48-9.48-10.27v13c1.55,3.55,4.86,6.87,9.48,9.76a55.91,55.91,0,0,0,9.71,4.69,81.09,81.09,0,0,0,9.71,2.93c3.08.73,6.32,1.33,9.7,1.79q4.71.63,9.71.86c1.64.07,3.3.11,5,.11s3.17,0,4.74-.1c3.33-.14,6.57-.43,9.71-.84,3.37-.45,6.62-1.05,9.7-1.77a81.15,81.15,0,0,0,9.71-2.9,54.13,54.13,0,0,0,9.71-4.64c4.74-2.91,8.13-6.28,9.71-9.89v-13C557.46,517.38,554.06,520.92,549.14,523.94Z"/><path class="cls-9" d="M505.64,529.89h0c-21.56,0-44.49-6.67-44.49-18.93s22.93-18.9,44.49-18.93,44.5,6.67,44.5,18.93S527.21,529.86,505.64,529.89Zm0-32.6c-23.11,0-39.23,7.23-39.23,13.67s16.12,13.64,39.24,13.67,39.23-7.23,39.23-13.67S528.76,497.32,505.63,497.29Z"/><path class="cls-9" d="M522.34,511l-7.06-3.12,1-.48a7,7,0,0,0,1.91-1.11c.18-.22,0-.44-.51-.66a2.79,2.79,0,0,0-1.36-.2,5,5,0,0,0-1.61.47c-1,.44-1.46.85-1.43,1.22a9.27,9.27,0,0,0,1.36,2.74,11.27,11.27,0,0,1,1.39,2.78,2.35,2.35,0,0,1-.61,1.92,8.87,8.87,0,0,1-3.11,2.23,19,19,0,0,1-7.85,2,20.34,20.34,0,0,1-8.23-1.48l-2.84,1.33L490.31,517l2.93-1.33q-2.36-1.53-2.31-3.39c0-1.21,1.62-2.5,4.74-3.84l1.34-.57,6.51,3.11-1.68.77a20.87,20.87,0,0,0-3.32,1.71c-.33.28-.23.56.3.83a2.88,2.88,0,0,0,1.52.29,5.29,5.29,0,0,0,1.78-.5,14.36,14.36,0,0,0,3-1.72c.45-.41.44-1.09,0-2a16.08,16.08,0,0,1-1.29-3.18,2.37,2.37,0,0,1,.64-1.91,7,7,0,0,1,2.76-1.86,14.57,14.57,0,0,1,5.93-1.18,22.32,22.32,0,0,1,6.87,1.25l1.87-.85,3.12,1.27-1.86.87c1.9,1,2.92,2,3,2.92s-.75,1.89-2.58,2.79C523.34,510.59,522.92,510.78,522.34,511Z"/><path class="cls-5" d="M395.11,649a50.24,50.24,0,1,1,70-11.92A50.23,50.23,0,0,1,395.11,649Z"/><path class="cls-6" d="M391,584.55a40.62,40.62,0,1,1,9.64,56.63A40.66,40.66,0,0,1,391,584.55Zm61,43.28a34.21,34.21,0,1,0-47.69,8.11A34.24,34.24,0,0,0,452.07,627.83Z"/><path class="cls-7" d="M404.38,635.94a34.2,34.2,0,1,1,47.69-8.11A34.2,34.2,0,0,1,404.38,635.94Z"/><path class="cls-6" d="M424.63,623l6.08-8.57,1.42,1a11.57,11.57,0,0,0,3.18,1.81,1.52,1.52,0,0,0,1.6-.78,1.61,1.61,0,0,0,.23-1.61,4.16,4.16,0,0,0-1.54-1.67,4.86,4.86,0,0,0-3.39-1.2,39.38,39.38,0,0,0-6.41,2.4,42.17,42.17,0,0,1-6.18,2.31,10,10,0,0,1-4.39-.1,15.06,15.06,0,0,1-5.36-2.57q-4.58-3.25-5.62-7.3t1.46-8.91l-3.22-2.28,2.8-3.95,3.33,2.37a12.57,12.57,0,0,1,6.89-4.13c2.75-.63,6,.42,9.84,3.12l1.68,1.19L421,602.71l-2.1-1.49a24.31,24.31,0,0,0-4.48-2.78,1.46,1.46,0,0,0-1.75.69,1.85,1.85,0,0,0-.34,1.7,3.61,3.61,0,0,0,1.43,1.65,17.57,17.57,0,0,0,4.41,2.52q1.53.48,4.66-.84a75,75,0,0,1,7.4-2.77,11.87,11.87,0,0,1,5-.13,13.14,13.14,0,0,1,5.48,2.34,10,10,0,0,1,4.48,6.45c.43,2.48-.22,5.29-1.93,8.43l2.73,1.93-2.79,4-2.74-1.94q-3.31,3.6-6.87,4.05a10.33,10.33,0,0,1-7.34-2.25C425.83,624,425.31,623.57,424.63,623Z"/><path class="cls-20" d="M618.06,0H539.15L0,795.53l569.49-152.1C568.9,641.33,603.78,186.09,618.06,0Z"/></g></g></svg>