<svg xmlns="http://www.w3.org/2000/svg" xmlns:xlink="http://www.w3.org/1999/xlink" viewBox="0 0 623.65 795.53"><defs><style>.cls-1{fill:#4e4c4f;}.cls-2{fill:#302f30;}.cls-3{fill:#7aa343;}.cls-4{fill:#3b393b;}.cls-5{fill:#f2ba67;}.cls-6{fill:#b3b3b3;}.cls-7{fill:#787878;}.cls-8{fill:#50c0d8;}.cls-9{fill:#3c3b3d;}.cls-10{fill:#e7e8ed;}.cls-11{fill:#282729;}.cls-12{fill:#4a4e4f;}.cls-13{fill:#231f20;opacity:0.1;}.cls-14{opacity:0.4;fill:url(#linear-gradient);}</style><linearGradient id="linear-gradient" x1="226.31" y1="1131.65" x2="278.79" y2="88.4" gradientTransform="translate(-6.23 14.9) scale(1.19 1)" gradientUnits="userSpaceOnUse"><stop offset="0.13" stop-color="#f9ed32" stop-opacity="0"/><stop offset="1" stop-color="#f6ea32"/></linearGradient></defs><title>Asset 3</title><g id="Layer_2" data-name="Layer 2"><g id="object"><rect class="cls-1" x="297.99" y="283.47" width="181.38" height="375.8" rx="14.92" ry="14.92"/><path class="cls-2" d="M479.38,644.35V510.1c-14.62-30.4-49.7-51.83-90.7-51.83S312.61,479.7,298,510.1V644.35a14.92,14.92,0,0,0,14.92,14.92H464.46A14.93,14.93,0,0,0,479.38,644.35Z"/><rect class="cls-3" x="384.85" y="542.89" width="7.66" height="116.37"/><path class="cls-4" d="M388.68,545.82c-7,0-13.38-4.15-17.56-11.4L361.65,518c-4.18-7.24-4.58-14.86-1.09-20.9s10.29-9.51,18.65-9.51h19c8.36,0,15.15,3.46,18.65,9.51s3.09,13.66-1.09,20.9l-9.48,16.41C402.07,541.67,395.67,545.82,388.68,545.82Z"/><path class="cls-5" d="M370.26,513l9.48,16.41c4.94,8.56,12.95,8.56,17.89,0L407.11,513c4.94-8.56.93-15.5-8.95-15.5h-19C369.33,497.54,365.32,504.48,370.26,513Z"/><rect class="cls-2" x="309.03" y="308.56" width="159.31" height="41.42"/><rect class="cls-2" x="309.03" y="356.35" width="159.31" height="41.42"/><rect class="cls-6" x="326.28" y="409.5" width="24.22" height="11.45"/><rect class="cls-7" x="326.28" y="409.5" width="24.22" height="4.21"/><rect class="cls-6" x="363.58" y="409.5" width="24.22" height="11.45"/><rect class="cls-7" x="363.58" y="409.5" width="24.22" height="4.21"/><path class="cls-2" d="M413.6,416.17a4.56,4.56,0,1,1-4.56-4.56A4.56,4.56,0,0,1,413.6,416.17Z"/><path class="cls-7" d="M409,419.73a3.57,3.57,0,1,1,3.57-3.56A3.56,3.56,0,0,1,409,419.73Z"/><path class="cls-2" d="M431.32,416.17a4.56,4.56,0,1,1-4.56-4.56A4.56,4.56,0,0,1,431.32,416.17Z"/><circle class="cls-7" cx="426.76" cy="416.17" r="3.56"/><circle class="cls-8" cx="447.52" cy="416.17" r="3.56"/><rect class="cls-1" x="447.52" y="363.43" width="14.73" height="6.84"/><rect class="cls-1" x="447.52" y="315.25" width="14.73" height="6.84"/><path d="M298,639.68v4.67a14.92,14.92,0,0,0,14.92,14.92H464.46a14.93,14.93,0,0,0,14.92-14.92v-4.67Z"/><rect class="cls-1" x="472.86" y="536.25" width="124.87" height="124.87" rx="6.35" ry="6.35" transform="translate(-171.09 980.76) rotate(-76.61)"/><rect class="cls-9" x="499.89" y="563.27" width="70.82" height="70.83" rx="5.97" ry="5.97" transform="translate(-171.09 980.75) rotate(-76.61)"/><path class="cls-10" d="M505.86,565.91h58.88a3.34,3.34,0,0,1,3.34,3.34v58.88a3.34,3.34,0,0,1-3.34,3.34H505.86a3.33,3.33,0,0,1-3.33-3.33V569.24A3.33,3.33,0,0,1,505.86,565.91Z" transform="translate(-171.09 980.75) rotate(-76.61)"/><path class="cls-11" d="M524.9,599v.08a5.78,5.78,0,0,1-2.81,4.07,7.34,7.34,0,0,1-5.35.44,7,7,0,0,1-4.7-3.31,7.61,7.61,0,0,1-.71-5.83l.85-3.55a7.8,7.8,0,0,1,3.2-4.9,6.78,6.78,0,0,1,5.57-.87,7.69,7.69,0,0,1,4.73,2.81,5.66,5.66,0,0,1,.73,4.93l0,.07-3.49-.83a3.62,3.62,0,0,0-.22-2.76,3.56,3.56,0,0,0-2.36-1.46,3,3,0,0,0-2.83.7,5.92,5.92,0,0,0-1.7,3.14l-.85,3.58a5.68,5.68,0,0,0,.15,3.59,3.2,3.2,0,0,0,2.34,1.94,3.28,3.28,0,0,0,2.6-.27,3.73,3.73,0,0,0,1.41-2.4Z"/><path class="cls-11" d="M531.2,599.88l-1.54,6.49-3.6-.85,4.27-17.91,6.85,1.63a7.26,7.26,0,0,1,4.49,2.74,5.46,5.46,0,0,1,.79,4.56,5.4,5.4,0,0,1-2.76,3.71,7.32,7.32,0,0,1-5.24.4Zm.66-2.77,3.26.78a3.12,3.12,0,0,0,2.47-.28,3,3,0,0,0,1.27-1.9,3.11,3.11,0,0,0-.26-2.32,3,3,0,0,0-2.08-1.38l-3.26-.78Z"/><path class="cls-11" d="M560.57,594.81l-2.79,11.72a6.07,6.07,0,0,1-3.13,4.26,9,9,0,0,1-10.38-2.47,6.1,6.1,0,0,1-.86-5.21l2.8-11.72,3.6.86L547,604a3.8,3.8,0,0,0,.3,3,3.61,3.61,0,0,0,2.37,1.56,3.68,3.68,0,0,0,2.86-.32,3.75,3.75,0,0,0,1.63-2.51L557,594Z"/><path class="cls-11" d="M500,518.39l-4.09,17.18Z"/><path class="cls-12" d="M495.4,537.63a2.13,2.13,0,0,1-1.57-2.56l4.09-17.17a2.12,2.12,0,1,1,4.12,1L498,536.06A2.12,2.12,0,0,1,495.4,537.63Z"/><path class="cls-11" d="M510.28,520.85,506.19,538Z"/><path class="cls-12" d="M505.7,540.08a2.12,2.12,0,0,1-1.57-2.55l4.09-17.17a2.12,2.12,0,1,1,4.12,1l-4.09,17.17A2.11,2.11,0,0,1,505.7,540.08Z"/><path class="cls-11" d="M520.59,523.3l-4.09,17.17Z"/><path class="cls-12" d="M516,542.53a2.11,2.11,0,0,1-1.57-2.55l4.08-17.17a2.12,2.12,0,0,1,4.13,1L518.56,541A2.12,2.12,0,0,1,516,542.53Z"/><path class="cls-11" d="M530.89,525.75l-4.09,17.17Z"/><path class="cls-12" d="M526.31,545a2.13,2.13,0,0,1-1.57-2.56l4.09-17.17a2.12,2.12,0,0,1,4.12,1l-4.09,17.18A2.12,2.12,0,0,1,526.31,545Z"/><path class="cls-11" d="M541.19,528.21l-4.09,17.17Z"/><path class="cls-12" d="M536.61,547.44a2.11,2.11,0,0,1-1.57-2.55l4.09-17.17a2.12,2.12,0,1,1,4.12,1l-4.09,17.17A2.11,2.11,0,0,1,536.61,547.44Z"/><path class="cls-11" d="M551.49,530.66l-4.08,17.17Z"/><path class="cls-12" d="M546.92,549.89a2.11,2.11,0,0,1-1.57-2.55l4.08-17.17a2.12,2.12,0,0,1,4.13,1l-4.09,17.17A2.12,2.12,0,0,1,546.92,549.89Z"/><path class="cls-11" d="M561.8,533.11l-4.09,17.17Z"/><path class="cls-12" d="M557.22,552.34a2.11,2.11,0,0,1-1.57-2.55l4.09-17.17a2.12,2.12,0,1,1,4.12,1l-4.09,17.17A2.11,2.11,0,0,1,557.22,552.34Z"/><path class="cls-11" d="M572.1,535.57,568,552.74Z"/><path class="cls-12" d="M567.52,554.8a2.12,2.12,0,0,1-1.57-2.55L570,535.08a2.12,2.12,0,1,1,4.12,1l-4.09,17.17A2.11,2.11,0,0,1,567.52,554.8Z"/><path class="cls-11" d="M582.4,538l-4.08,17.17Z"/><path class="cls-12" d="M577.82,557.25a2.12,2.12,0,0,1-1.57-2.55l4.09-17.17a2.12,2.12,0,0,1,4.12,1l-4.08,17.17A2.13,2.13,0,0,1,577.82,557.25Z"/><path class="cls-11" d="M592.71,540.47l-4.09,17.17Z"/><path class="cls-12" d="M588.13,559.7a2.11,2.11,0,0,1-1.57-2.55L590.65,540a2.12,2.12,0,1,1,4.12,1l-4.09,17.17A2.11,2.11,0,0,1,588.13,559.7Z"/><path class="cls-11" d="M603,542.93l-4.09,17.17Z"/><path class="cls-12" d="M598.43,562.16a2.12,2.12,0,0,1-1.57-2.55L601,542.44a2.12,2.12,0,0,1,4.12,1L601,560.59A2.11,2.11,0,0,1,598.43,562.16Z"/><path class="cls-11" d="M471.66,637.34l-4.09,17.17Z"/><path class="cls-12" d="M467.08,656.57a2.11,2.11,0,0,1-1.57-2.55l4.09-17.17a2.12,2.12,0,1,1,4.12,1L469.63,655A2.11,2.11,0,0,1,467.08,656.57Z"/><path class="cls-11" d="M482,639.79,477.87,657Z"/><path class="cls-12" d="M477.38,659a2.12,2.12,0,0,1-1.57-2.55l4.09-17.17a2.12,2.12,0,0,1,4.12,1l-4.09,17.17A2.11,2.11,0,0,1,477.38,659Z"/><path class="cls-11" d="M492.27,642.24l-4.09,17.18Z"/><path class="cls-12" d="M487.69,661.48a2.13,2.13,0,0,1-1.57-2.56l4.08-17.17a2.12,2.12,0,1,1,4.13,1l-4.09,17.17A2.13,2.13,0,0,1,487.69,661.48Z"/><path class="cls-11" d="M502.57,644.7l-4.09,17.17Z"/><path class="cls-12" d="M498,663.93a2.11,2.11,0,0,1-1.57-2.55l4.09-17.17a2.12,2.12,0,1,1,4.12,1l-4.09,17.17A2.11,2.11,0,0,1,498,663.93Z"/><path class="cls-11" d="M512.87,647.15l-4.09,17.17Z"/><path class="cls-12" d="M508.29,666.38a2.11,2.11,0,0,1-1.57-2.55l4.09-17.17a2.12,2.12,0,1,1,4.12,1l-4.09,17.17A2.11,2.11,0,0,1,508.29,666.38Z"/><path class="cls-11" d="M523.17,649.6l-4.08,17.17Z"/><path class="cls-12" d="M518.6,668.84a2.12,2.12,0,0,1-1.57-2.56l4.08-17.17a2.12,2.12,0,1,1,4.12,1l-4.08,17.18A2.13,2.13,0,0,1,518.6,668.84Z"/><path class="cls-11" d="M533.48,652.06l-4.09,17.17Z"/><path class="cls-12" d="M528.9,671.29a2.11,2.11,0,0,1-1.57-2.55l4.09-17.17a2.12,2.12,0,1,1,4.12,1l-4.09,17.17A2.11,2.11,0,0,1,528.9,671.29Z"/><path class="cls-11" d="M543.78,654.51l-4.09,17.17Z"/><path class="cls-12" d="M539.2,673.74a2.11,2.11,0,0,1-1.57-2.55L541.72,654a2.12,2.12,0,0,1,4.12,1l-4.09,17.17A2.11,2.11,0,0,1,539.2,673.74Z"/><path class="cls-11" d="M554.08,657,550,674.13Z"/><path class="cls-12" d="M549.5,676.19a2.12,2.12,0,0,1-1.57-2.55L552,656.47a2.12,2.12,0,1,1,4.12,1l-4.08,17.17A2.12,2.12,0,0,1,549.5,676.19Z"/><path class="cls-11" d="M564.39,659.42l-4.09,17.17Z"/><path class="cls-12" d="M559.81,678.65a2.12,2.12,0,0,1-1.57-2.55l4.09-17.17a2.12,2.12,0,0,1,4.12,1l-4.09,17.17A2.11,2.11,0,0,1,559.81,678.65Z"/><path class="cls-11" d="M574.69,661.87,570.6,679Z"/><path class="cls-12" d="M570.11,681.1a2.11,2.11,0,0,1-1.57-2.55l4.09-17.17a2.12,2.12,0,1,1,4.12,1l-4.09,17.17A2.11,2.11,0,0,1,570.11,681.1Z"/><path class="cls-11" d="M615.28,563.29l-17.17-4.09Z"/><path class="cls-12" d="M614.79,565.35l-17.17-4.09a2.12,2.12,0,0,1,1-4.12l17.17,4.09a2.12,2.12,0,1,1-1,4.12Z"/><path class="cls-11" d="M612.83,573.59l-17.17-4.09Z"/><path class="cls-12" d="M612.34,575.65l-17.17-4.09a2.12,2.12,0,1,1,1-4.12l17.17,4.09a2.12,2.12,0,0,1-1,4.12Z"/><path class="cls-11" d="M610.38,583.9l-17.17-4.09Z"/><path class="cls-12" d="M609.89,586l-17.18-4.09a2.12,2.12,0,1,1,1-4.12l17.17,4.08a2.12,2.12,0,0,1-1,4.13Z"/><path class="cls-11" d="M607.92,594.2l-17.17-4.09Z"/><path class="cls-12" d="M607.43,596.26l-17.17-4.09a2.12,2.12,0,1,1,1-4.12l17.17,4.09a2.12,2.12,0,0,1-1,4.12Z"/><path class="cls-11" d="M605.47,604.5l-17.17-4.09Z"/><path class="cls-12" d="M605,606.56l-17.17-4.09a2.12,2.12,0,1,1,1-4.12L606,602.44a2.12,2.12,0,0,1-1,4.12Z"/><path class="cls-11" d="M603,614.8l-17.17-4.08Z"/><path class="cls-12" d="M602.53,616.86l-17.17-4.08a2.12,2.12,0,0,1,1-4.12l17.17,4.08a2.12,2.12,0,1,1-1,4.12Z"/><path class="cls-11" d="M600.56,625.11,583.39,621Z"/><path class="cls-12" d="M600.07,627.17l-17.17-4.09a2.12,2.12,0,1,1,1-4.12l17.17,4.09a2.12,2.12,0,1,1-1,4.12Z"/><path class="cls-11" d="M598.11,635.41l-17.17-4.09Z"/><path class="cls-12" d="M597.62,637.47l-17.17-4.09a2.12,2.12,0,0,1,1-4.12l17.17,4.09a2.12,2.12,0,0,1-1,4.12Z"/><path class="cls-11" d="M595.66,645.71l-17.17-4.09Z"/><path class="cls-12" d="M595.17,647.77,578,643.68a2.12,2.12,0,0,1,1-4.12l17.17,4.09a2.12,2.12,0,0,1-1,4.12Z"/><path class="cls-11" d="M593.2,656,576,651.93Z"/><path class="cls-12" d="M592.71,658.08,575.54,654a2.12,2.12,0,1,1,1-4.12L593.69,654a2.12,2.12,0,0,1-1,4.12Z"/><path class="cls-11" d="M590.75,666.32l-17.17-4.09Z"/><path class="cls-12" d="M590.26,668.38l-17.17-4.09a2.12,2.12,0,0,1,1-4.12l17.17,4.09a2.12,2.12,0,1,1-1,4.12Z"/><path class="cls-11" d="M496,534.88l-17.17-4.09Z"/><path class="cls-12" d="M495.46,536.94l-17.17-4.09a2.12,2.12,0,1,1,1-4.12l17.17,4.09a2.12,2.12,0,0,1-1,4.12Z"/><path class="cls-11" d="M493.5,545.18l-17.17-4.09Z"/><path class="cls-12" d="M493,547.24l-17.18-4.09a2.12,2.12,0,1,1,1-4.12L494,543.12a2.12,2.12,0,0,1-1,4.12Z"/><path class="cls-11" d="M491,555.48l-17.17-4.09Z"/><path class="cls-12" d="M490.55,557.54l-17.17-4.09a2.12,2.12,0,1,1,1-4.12l17.17,4.09a2.12,2.12,0,0,1-1,4.12Z"/><path class="cls-11" d="M488.59,565.78l-17.17-4.08Z"/><path class="cls-12" d="M488.1,567.85l-17.17-4.09a2.12,2.12,0,1,1,1-4.12l17.17,4.08a2.12,2.12,0,0,1-1,4.13Z"/><path class="cls-11" d="M486.14,576.09,469,572Z"/><path class="cls-12" d="M485.65,578.15l-17.18-4.09a2.12,2.12,0,0,1,1-4.12L486.63,574a2.12,2.12,0,0,1-1,4.12Z"/><path class="cls-11" d="M483.68,586.39l-17.17-4.09Z"/><path class="cls-12" d="M483.19,588.45,466,584.36a2.12,2.12,0,1,1,1-4.12l17.17,4.09a2.12,2.12,0,0,1-1,4.12Z"/><path class="cls-11" d="M481.23,596.69l-17.17-4.09Z"/><path class="cls-12" d="M480.74,598.75l-17.17-4.08a2.12,2.12,0,0,1,1-4.13l17.17,4.09a2.12,2.12,0,0,1-1,4.12Z"/><path class="cls-11" d="M478.78,607l-17.17-4.09Z"/><path class="cls-12" d="M478.29,609.06,461.12,605a2.12,2.12,0,1,1,1-4.12l17.17,4.09a2.12,2.12,0,0,1-1,4.12Z"/><path class="cls-11" d="M476.32,617.3l-17.17-4.09Z"/><path class="cls-12" d="M475.83,619.36l-17.17-4.09a2.12,2.12,0,0,1,1-4.12l17.17,4.09a2.12,2.12,0,0,1-1,4.12Z"/><path class="cls-11" d="M473.87,627.6l-17.17-4.09Z"/><path class="cls-12" d="M473.38,629.66l-17.17-4.08a2.12,2.12,0,0,1,1-4.13l17.17,4.09a2.12,2.12,0,0,1-1,4.12Z"/><path class="cls-11" d="M471.42,637.91l-17.17-4.09Z"/><path class="cls-12" d="M470.93,640l-17.17-4.09a2.12,2.12,0,1,1,1-4.12l17.17,4.09a2.12,2.12,0,0,1-1,4.12Z"/><path class="cls-13" d="M576.2,648.73c6.53-2.82,10.07-5.77,10-8.74-.39-13.25-72.77-21.91-161.68-19.34s-160.66,15.42-160.27,28.68S337,671.25,425.91,668.67c15.81-.46,31.08-1.24,45.49-2.29-2.75,2.66-4.21,5.47-4.13,8.36.4,13.77,35.73,23.91,78.91,22.66s77.87-13.43,77.47-27.2C623.35,660,603.86,651.78,576.2,648.73Z"/><path class="cls-14" d="M618.06,0H539.15L0,795.53l569.49-152.1C568.9,641.33,603.78,186.09,618.06,0Z"/></g></g></svg>