<svg xmlns="http://www.w3.org/2000/svg" xmlns:xlink="http://www.w3.org/1999/xlink" viewBox="0 0 644.74 694.78"><defs><style>.cls-1,.cls-19,.cls-21,.cls-22,.cls-40,.cls-9{fill:none;}.cls-2{isolation:isolate;}.cls-3{fill:#f7f7f7;}.cls-19,.cls-20,.cls-3,.cls-4,.cls-9{opacity:0.6;}.cls-4{fill:url(#radial-gradient);}.cls-5{fill:#a35402;}.cls-6{fill:#6c3604;}.cls-7{clip-path:url(#clip-path);}.cls-14,.cls-17,.cls-8{fill:#f4a660;}.cls-24,.cls-8{opacity:0.4;}.cls-10,.cls-17,.cls-8{mix-blend-mode:multiply;}.cls-19,.cls-9{stroke:#fff;mix-blend-mode:overlay;}.cls-19,.cls-21,.cls-22,.cls-40,.cls-9{stroke-miterlimit:10;}.cls-9{stroke-width:0.48px;}.cls-10{fill:#e2b060;}.cls-11{clip-path:url(#clip-path-3);}.cls-12{clip-path:url(#clip-path-5);}.cls-13{clip-path:url(#clip-path-7);}.cls-15{fill:#bf6922;}.cls-16{clip-path:url(#clip-path-9);}.cls-17{opacity:0.3;}.cls-18{fill:#ea934b;}.cls-19,.cls-22{stroke-width:0.5px;}.cls-21{stroke:#a35402;stroke-width:1.1px;}.cls-22{stroke:#c17633;}.cls-23{opacity:0.5;}.cls-25{clip-path:url(#clip-path-12);}.cls-26{fill:#4e5151;}.cls-26,.cls-29,.cls-30,.cls-31,.cls-32,.cls-33,.cls-34,.cls-35,.cls-38,.cls-39{fill-rule:evenodd;}.cls-27,.cls-32{fill:#1d2120;}.cls-28{fill:#234c5e;}.cls-29{fill:#808281;}.cls-30{fill:#595959;}.cls-31{fill:#2e3332;}.cls-33{fill:#2d586b;}.cls-34{fill:#090a0a;}.cls-35{fill:#e2e2e2;}.cls-36,.cls-38{fill:#fcb200;}.cls-37,.cls-39{fill:#c10000;}.cls-40{stroke:#000;stroke-width:0.75px;}</style><radialGradient id="radial-gradient" cx="322.74" cy="322" r="322" gradientUnits="userSpaceOnUse"><stop offset="0" stop-color="#c8922d" stop-opacity="0.5"/><stop offset="1" stop-color="#c99126"/></radialGradient><clipPath id="clip-path"><polygon class="cls-1" points="472.05 355.21 472.05 454.36 455.29 454.36 455.29 354.87 472.05 355.21"/></clipPath><clipPath id="clip-path-3"><rect class="cls-1" x="479.41" y="355.22" width="19.21" height="160.02"/></clipPath><clipPath id="clip-path-5"><polygon class="cls-1" points="172.01 355.21 172.01 454.36 188.77 454.36 188.77 354.87 172.01 355.21"/></clipPath><clipPath id="clip-path-7"><rect class="cls-1" x="145.44" y="355.22" width="19.21" height="160.02"/></clipPath><clipPath id="clip-path-9"><polygon class="cls-1" points="477.77 292.65 322.03 292.65 166.28 292.65 140.53 336.82 322.03 336.82 503.52 336.82 477.77 292.65"/></clipPath><clipPath id="clip-path-12"><polygon class="cls-1" points="322.83 336.82 322.63 336.82 143.2 336.82 143.2 360.82 322.63 360.82 322.83 360.82 500.85 360.82 500.85 336.82 322.83 336.82"/></clipPath></defs><title>Asset 16</title><g class="cls-2"><g id="Layer_2" data-name="Layer 2"><g id="Background"><circle class="cls-3" cx="322" cy="322" r="322"/><circle class="cls-4" cx="322.74" cy="322" r="322"/></g><g id="Objets"><polygon class="cls-5" points="472.05 355.21 472.05 454.36 455.29 454.36 455.29 354.87 472.05 355.21"/><polygon class="cls-6" points="455.29 454.36 455.29 354.87 452.96 353.3 452.96 448.65 455.29 454.36"/><g class="cls-7"><polygon class="cls-8" points="472.38 371.74 449.24 363.29 451.16 355.03 473.05 355.22 472.38 371.74"/></g><line class="cls-9" x1="455.17" y1="360.79" x2="455.17" y2="454.36"/><g class="cls-7"><path class="cls-10" d="M487.55,345.25c-1.28,20.09,1.69,39.5,1.69,58.91-1.15,62-2.1,123.79-2.07,185.64v8c-.05,26.59.38,54,.8,80.82-.42-28.12-.85-56.9-1.49-85.24,0-2.56-.08-5.14-.12-7.71-.68-46.41-.94-92.76.34-139.36.85-33.47-2.13-66.95-3-100.42,0,16.07.84,32.14.84,48.2q0,64.28-.17,128.26c0,2.67,0,5.34,0,8-1.08,51.19.19,101.4-.23,152.28-3.82-109.79,0-218.92-4.24-328.72,1.27,108.46-.85,216.25.42,324.7-2.55-110.46,1.27-221.6-1.27-332.06.85,110.46-2.12,221.6,0,332.06-.85-23.43-1.7-47.53-1.28-71,.43-85,.43-170.05-1.69-255.08,3,107.79-2.13,216.25.42,324-.42-15.39-.85-30.12-.85-45.52,0-93.73,2.12-187.46-.42-281.18,2.54,110.46-1.28,221.59.85,332.06-.85-29.46-2.13-58.91-1.7-88.37,1.7-79.67,1.7-160,0-239.68,3.39,107.79-2.55,214.91.85,322.69-1.28-28.11-3-55.56-2.12-83.68,2.54-82.35,0-164,0-246.37-.43,83.68,1.69,167.37-1.28,251.06-.85,28.78,2.55,56.9,1.28,85-.85-22.09-2.13-43.52-2.13-65.61,0-79,0-157.33,0-236.33-.86,73,.42,145.95-1.7,218.92-.85,27.45,1.69,54.23,1.69,81.68-.85-32.8-3-64.94-2.54-97.74,1.27-75,.42-150-.85-225,2.12,85-1.27,169.38-1.27,254.4,0,22.1,1.27,44.19,1.69,66.28-.85-34.81-4.24-69.62-1.69-104.44-3,35.49,2.12,71.64.84,107.12-.84-45.52-3-90.38-.42-135.9-2.55,44.85-.85,89.71.42,134.56-3-47.53-2.12-95.06-1.69-142.6-1.28,48.2-.85,96.41.42,144.61-4.67-102.43-.85-205.53-2.12-308.63,0,76.32-.43,152-1.27,228.29-.43,24.77,1.27,49.54,1.27,74.31-1.27-22.76-1.7-46.19-2.55-68.95-.42-12.72.43-26.11.85-38.83.43-18.75-.85-36.82-.85-55.57,0-55.57,0-110.46-1.7-166,2.55,111.8-1.69,222.94.43,334.74,0-38.83-1.7-77-1.7-115.82-.42-74.31,1.7-148-2.12-222.27.42,12,1.27,23.43.85,35.48q-.64,150.64,0,301.27c-1.7-101.76-.85-204.19-1.27-305.95,0-12-.85-23.43-1.28-35.48,1.7,113.81,0,228.29.85,342.1-2.12-112.47-1.27-225-4.24-337.42.42,110.47.42,220.93.56,331.15,0,2,0,3.45,0,4.56s0,1.83,0,2.2V682h0a.84.84,0,0,1,0,.12c-.06.1-.19,0-.19-.11s0-.92,0-2.26,0-3.25,0-5.68c-1.06-107.9-1.49-215-3.18-322.8.42,99.08,0,197.49.55,296.29v7.15c0,20.24-.05,29.83-.16,30a.1.1,0,0,1-.08,0c-.14,0-.18,0-.26-7.08-.06-4.31-.11-10.73-.17-19.09,0-7.45-.1-16.63-.15-27.44q0-3.25,0-6.69c-.13-75.7-1-151.35-.55-227-.43,70.3-.43,139.92-.23,210.51v72.64c0,.09,0,.16-.1.16s-.07,0-.09-.16h0v-.21c0-.45,0-1.41-.07-3.51,0-2.43-.08-6-.13-10.53-.11-8.6-.25-21.24-.43-37.57q-.12-10.32-.25-22.65c0-2.06,0-4.15-.07-6.29C444.68,524,444.68,449,443.41,373.37c0,49.54,0,99.75.25,149.52v5.23c0,1.73,0,3.47,0,5.19v5.18c.16,3.59.16,6.94,0,10.29v5.11c0,3.39,0,6.76,0,10.1v5c.14,3.21.14,6.56,0,9.84v4.84c0,56.13-.06,100.11-.3,100.48a.1.1,0,0,1-.08.05c-.16,0-.27,0-.45-14.65-.11-8.75-.22-21.61-.33-38.22-.17-27.11-.35-64.57-.52-111.41,0-1.51,0-3,0-4.56l0-7.22,0-7.24c-.65-19.08-.23-37.15-.23-55.9,0,18.08,0,36.15.07,53.9,0,2.33,0,4.65,0,7v7c0,48.23,0,86.66,0,114.22,0,16.37,0,29,0,37.65,0,4.54,0,8.11,0,10.55,0,2,0,3,0,3.48V679h0c0,.17,0,.17-.09.17s-.11-.07-.11-.16c0-1.87-.86-106.89-1.73-198.8,0-1.81,0-3.6,0-5.39-.14-3-.14-7-.1-10.67,0-1.77,0-3.53-.05-5.27-.47-47.87-.88-82.85-.64-61.92,0,2.76-.06-5.43-.1-8s-.06-5.09-.09-7.5-.05-4.72-.08-6.93c-.14-11.07-.27-19.62-.38-24.78,0,43.82,0,330.82,0,334a.24.24,0,0,1,0,.12.09.09,0,0,1-.16,0l0-.11h0v0c0-.22,0-.7-.07-1.42a.1.1,0,0,1-.08,0h0c-.05,0-.1-.07-.1-.17-.08-34.27-.78-334.9,0-336.17a.08.08,0,0,1,.15,0s0,.74.06,2.7v-3.53c0-1.14,0-1.14.11-1.14.13,1.3.13,2,.26,3.53,0,1.07.06,2.46.09,4.26s.07,4,.12,6.77c.06,4.34.14,9.7.22,16,0,2.12.05,4.34.08,6.66.2,4.89.2,10.24.18,15.24q0,2.61.06,5.34c.16,14.57.34,31.86.54,51.74,0,2.48.05,5,.07,7.57.2,5.34.2,10.69.15,15.87q0,4.1.08,8.3.12,12.62.25,26.29c.54,58.84,1,118.23,1.28,147.94,0-30.93,0-94.13,0-155.67v-5.29c.14-50.85.14-101.06.14-151.94,0,56.91.85,113.81.5,170.4l0,5.73c.27,74.43.63,146.93,1.05,159.37.2-11.18.22-70.33.17-135.76v-5.62c0-1.88,0-3.76,0-5.65V523.7c0-58.61,0-116.86,0-175.77q1.27,125.52,2.64,251.11c0,1.58,0,3.15.05,4.7.28,26.24.53,48.26.69,61.91V615.58c-.41-90.91.44-181.29-.41-272.34,1.7,94.4.42,189.47,1.63,284q0,3.8,0,7.4c.11,21.63.22,38,.33,45.45,0-6,.05-17.82.05-33.56v-7c-.34-98.19.08-195.94-.34-294.35,2.54,107.79,1.27,214.9,3.39,322.69-.42-108.46-.42-217.58-.42-326,3.82,108.46,1.7,216.92,4.24,325.37q-1.28-164.68-.42-329.38c1.69,32.8,1.27,66.27,1.27,99.08.42,69.63,0,138.58.42,208.21-1.27-102.43,1.28-204.86-.42-307.29,4.24,103.1.85,206.87,3.39,310.64-1.69-103.1,1.7-206.2,0-309.3,3,93,1.28,185.44,2.55,278.5,0,16.74.85,33.47,1.7,50.21-.85-26.78-2.12-53.56-1.7-80.34q2.55-124.52.85-249c2.55,81.67,1.7,163.35.42,245-.42,25.44,1.7,50.88,1.7,76.32,0-12.72-.85-25.44-.85-38.16,0-94.4,2.13-189.47,1.28-283.86,1.69,91.72-.43,184.1-.43,275.82,0,18.75,1.28,37.49,1.7,56.24,0-16.74-1.27-33.47-1.27-50.21,0-93.06,2.54-186.79.85-279.85,0,17.41,1.69,35.49,1.27,52.89.85-18.07-1.7-35.48-.85-53.55,1.7,81.67.85,162.68-.85,244.36-.42,20.08-.42,40.83,1.27,60.92a170.38,170.38,0,0,1-.84-25.44c.84-92.39,1.69-184.78,1.27-277.17,2.54,67,.85,134.57,2.12,201.52.85,30.79-3,61.59,0,92.39-.42-98.42,2.12-196.83.85-295.25,2.12,94.4,0,188.13.85,282.53.42,19.41.85,38.16,2.12,57.57-3-112.47,0-225.62-.42-338.09.42,85,2.12,170.72,0,255.74,0,12.06,0,24.11.84,36.16-.84-18.75,0-38.16.43-56.91.85-77.66,0-155.32.42-233,1.28,85.69,1.28,172.06-.42,257.75-.43,21.43,1.27,43.52,1.27,64.94,0-12-.85-23.43-.42-35.48.85-95.07,0-190.8.85-285.87,0,42.18,1.69,84.35.42,126.53,1.27-43.51-1.27-86.36.43-129.88q1.26,134.57,1.27,269.13c0-88.37.85-177.41.85-265.78.42,32.8,1.69,66.28,1.27,99.08.42-33.47-1.27-66.28,0-99.75C482,454.38,482,562.83,484.15,672c0-55.57-.85-111.14-.68-166.59,0-2.52,0-5.07,0-7.61q.21-26.72,1.05-53.43c1.07-22.31.36-44.63-.64-67.33-.1-2.27-.21-4.55-.31-6.83-.74-4.17.11-8.18-.3-12,0-1.74,0-3.49.09-5.25.1-3.52.32-7,.74-10.38-.42,18.08,1.27,35.49,1.7,52.89,1.27,64.27-.08,128.17.42,192,0,2.65,0,5.31.06,7.9.37,18.38.37,36.46,1.22,54.54-.43-18.08-.43-36.83-.56-54.8,0-2.65,0-5.32-.05-8-.26-48,0-95.88,1.45-144.09.85-25.44.43-50.88-.84-76.32-.85-8.7-1.28-16.73.42-25.44"/></g><rect class="cls-5" x="479.41" y="355.22" width="19.21" height="160.02"/><polygon class="cls-6" points="479.4 515.23 474.92 509.81 474.92 354.11 479.4 354.53 479.4 515.23"/><g class="cls-11"><polygon class="cls-8" points="503.02 395.53 474.09 379.75 475.13 355.28 503.19 355.21 503.02 395.53"/></g><line class="cls-9" x1="479.6" y1="360.93" x2="479.41" y2="515.23"/><g class="cls-11"><path class="cls-10" d="M519.59,355.26c-1.27,20.09,1.7,39.5,1.7,58.92-1.15,62-2.1,123.78-2.07,185.63v8c-.05,26.59.37,54,.8,80.82-.43-28.11-.85-56.9-1.5-85.24,0-2.56-.07-5.13-.11-7.71-.68-46.41-.94-92.76.33-139.36.85-33.47-2.12-67-3-100.42,0,16.07.85,32.14.85,48.2q0,64.28-.17,128.27,0,4,0,8c-1.08,51.19.19,101.4-.23,152.28-3.82-109.79,0-218.92-4.25-328.72,1.28,108.46-.84,216.25.43,324.7-2.55-110.46,1.27-221.59-1.27-332.06.84,110.47-2.13,221.6,0,332.06-.85-23.43-1.7-47.53-1.28-71,.43-85,.43-170.05-1.69-255.08,3,107.79-2.13,216.25.42,324-.42-15.4-.85-30.13-.85-45.53,0-93.73,2.12-187.46-.42-281.18,2.54,110.46-1.28,221.6.85,332.06-.85-29.45-2.13-58.91-1.7-88.37,1.7-79.67,1.7-160,0-239.68,3.39,107.79-2.55,214.91.85,322.7-1.28-28.12-3-55.57-2.13-83.69,2.55-82.35,0-164,0-246.37-.42,83.68,1.7,167.37-1.27,251.06-.85,28.78,2.55,56.9,1.27,85-.84-22.09-2.12-43.51-2.12-65.61V390.74c-.85,73,.43,146-1.7,218.93-.84,27.44,1.7,54.22,1.7,81.67-.85-32.8-3-64.94-2.54-97.74,1.27-75,.42-150-.85-225,2.12,85-1.28,169.38-1.28,254.4,0,22.1,1.28,44.19,1.7,66.28-.85-34.81-4.24-69.62-1.7-104.44-3,35.49,2.13,71.64.85,107.12-.85-45.52-3-90.38-.42-135.9-2.55,44.85-.85,89.71.42,134.56-3-47.53-2.12-95.06-1.69-142.6-1.28,48.2-.85,96.41.42,144.61-4.67-102.43-.85-205.53-2.12-308.63,0,76.32-.43,152-1.28,228.29-.42,24.77,1.28,49.55,1.28,74.32-1.28-22.77-1.7-46.2-2.55-69-.42-12.72.43-26.11.85-38.83.42-18.75-.85-36.82-.85-55.57,0-55.57,0-110.46-1.7-166,2.55,111.8-1.69,222.94.43,334.74,0-38.83-1.7-77-1.7-115.82-.42-74.31,1.7-148-2.12-222.27.42,12.05,1.27,23.44.85,35.48Q488.4,540,489,690.67c-1.7-101.76-.85-204.19-1.28-305.95,0-12.05-.84-23.43-1.27-35.48,1.7,113.81,0,228.29.85,342.1-2.12-112.47-1.27-224.94-4.24-337.42.42,110.47.42,220.93.56,331.15,0,1.95,0,3.45,0,4.56s0,1.83-.05,2.2V692h0c0,.08,0,.11,0,.12s-.18,0-.18-.11,0-.92,0-2.26,0-3.25-.05-5.68c-1.05-107.9-1.48-215-3.17-322.8.42,99.08,0,197.49.55,296.29v7.15c0,20.24-.05,29.83-.16,30a.1.1,0,0,1-.08,0c-.15,0-.18,0-.26-7.08-.06-4.31-.11-10.73-.17-19.09-.05-7.45-.1-16.62-.15-27.44,0-2.17,0-4.39,0-6.69-.12-75.7-1-151.35-.54-227-.43,70.3-.43,139.92-.23,210.51v72.64c0,.09-.05.17-.11.17s-.06,0-.08-.17h0v-.21c0-.45,0-1.41-.07-3.51,0-2.43-.08-6-.14-10.53-.1-8.59-.24-21.24-.42-37.57q-.12-10.32-.25-22.65c0-2,0-4.15-.07-6.29C476.73,534,476.73,459,475.46,383.38c0,49.54,0,99.75.25,149.52v5.23c0,1.73,0,3.47,0,5.2v5.17c.16,3.59.16,6.94,0,10.29V574c0,1.67,0,3.33,0,5,.14,3.22.14,6.56,0,9.84v4.84c0,56.13-.06,100.11-.3,100.48a.09.09,0,0,1-.08.06c-.16,0-.28,0-.46-14.66-.1-8.75-.21-21.61-.32-38.22-.18-27.11-.35-64.57-.52-111.4,0-1.51,0-3,0-4.57,0-2.4,0-4.81,0-7.22l0-7.23c-.66-19.08-.23-37.16-.23-55.91,0,18.08,0,36.16.07,53.91v7q0,3.48,0,7c0,48.23,0,86.67,0,114.23,0,16.36,0,29,0,37.64,0,4.54,0,8.11,0,10.55,0,2.05,0,3,0,3.49V689h0c0,.17-.05.17-.09.17s-.11-.08-.11-.17c0-1.87-.86-106.89-1.73-198.8,0-1.8,0-3.6-.05-5.39-.14-3-.14-7-.1-10.67,0-1.77,0-3.52-.06-5.27C471.16,421,470.75,386,471,407c0,2.75-.06-5.43-.09-8s-.06-5.09-.09-7.5-.06-4.73-.08-6.94c-.14-11.07-.27-19.62-.38-24.77,0,43.81,0,330.81,0,333.94a.35.35,0,0,1,0,.12.09.09,0,0,1-.16,0,.2.2,0,0,1,0-.11h0v0c0-.22-.05-.7-.07-1.42a.1.1,0,0,1-.08,0h0c-.06,0-.1-.07-.1-.17-.09-34.27-.78-334.89,0-336.17a.09.09,0,0,1,.16,0s0,.74.06,2.7v-3.52c0-1.15,0-1.15.11-1.15.12,1.3.12,2,.26,3.54,0,1.06.05,2.45.09,4.25s.07,4,.11,6.77c.07,4.34.15,9.7.23,16,0,2.11.05,4.33.08,6.66.2,4.88.2,10.24.18,15.23q0,2.61.06,5.34c.16,14.57.34,31.86.54,51.74,0,2.48,0,5,.07,7.57.2,5.34.2,10.69.15,15.88,0,2.72.05,5.49.08,8.29q.12,12.62.24,26.29c.54,58.84,1,118.23,1.29,147.94,0-30.93,0-94.12,0-155.67v-5.28c.14-50.86.14-101.07.14-151.95,0,56.91.85,113.81.5,170.41,0,1.91,0,3.82,0,5.73.27,74.42.64,146.92,1.05,159.36.21-11.18.22-70.33.18-135.76v-5.62c0-1.88,0-3.76,0-5.65V539.4c0-1.89,0-3.78,0-5.68,0-58.62,0-116.87,0-175.78q1.26,125.54,2.63,251.11c0,1.58,0,3.15.05,4.7.29,26.25.53,48.26.7,61.92V625.59c-.41-90.91.44-181.29-.41-272.34,1.69,94.4.42,189.47,1.62,284,0,2.53,0,5,0,7.4.11,21.63.22,38,.33,45.45,0-6,.05-17.82.05-33.55q0-3.37,0-7c-.34-98.2.09-195.95-.33-294.36,2.54,107.79,1.27,214.91,3.39,322.69-.43-108.45-.43-217.58-.42-326,3.82,108.46,1.69,216.92,4.24,325.37q-1.27-164.68-.42-329.38c1.69,32.8,1.27,66.28,1.27,99.08.42,69.63,0,138.58.42,208.21-1.27-102.43,1.28-204.86-.42-307.29,4.24,103.1.85,206.87,3.39,310.64-1.69-103.1,1.7-206.2,0-309.3,3,93.05,1.28,185.44,2.55,278.5,0,16.74.85,33.48,1.7,50.21-.85-26.78-2.12-53.56-1.7-80.33q2.55-124.53.85-249c2.55,81.67,1.7,163.35.42,245-.42,25.44,1.7,50.88,1.7,76.32,0-12.72-.85-25.44-.85-38.16,0-94.4,2.12-189.47,1.28-283.86,1.69,91.72-.43,184.11-.43,275.82,0,18.75,1.27,37.5,1.7,56.24,0-16.74-1.27-33.47-1.27-50.21,0-93.06,2.54-186.79.84-279.84,0,17.4,1.7,35.48,1.28,52.88.85-18.07-1.7-35.48-.85-53.55,1.7,81.67.85,162.68-.85,244.36-.42,20.08-.42,40.83,1.27,60.92a170.39,170.39,0,0,1-.85-25.44c.85-92.39,1.7-184.78,1.28-277.17,2.54,66.95.85,134.57,2.12,201.52.85,30.79-3,61.59,0,92.39-.43-98.42,2.12-196.83.85-295.25,2.12,94.4,0,188.13.85,282.53.42,19.41.85,38.16,2.12,57.57-3-112.47,0-225.61-.43-338.09.43,85,2.13,170.72,0,255.75,0,12,0,24.1.85,36.15-.85-18.75,0-38.16.43-56.91.85-77.66,0-155.32.42-233,1.28,85.69,1.28,172.06-.42,257.75-.43,21.43,1.27,43.52,1.27,64.94,0-12-.85-23.43-.42-35.48.85-95.07,0-190.8.85-285.87,0,42.18,1.69,84.35.42,126.53,1.27-43.51-1.27-86.36.42-129.88q1.27,134.57,1.28,269.14c0-88.38.85-177.42.85-265.79.42,32.81,1.69,66.28,1.27,99.08.42-33.47-1.27-66.27,0-99.75,1.7,109.13,1.7,217.58,3.82,326.71,0-55.57-.85-111.13-.68-166.58,0-2.53,0-5.08.05-7.62q.21-26.72,1-53.43C517.68,432,517,409.71,516,387c-.1-2.27-.21-4.54-.31-6.82-.75-4.17.1-8.19-.31-12,0-1.74,0-3.49.1-5.25.1-3.51.31-7,.74-10.38-.43,18.08,1.27,35.49,1.7,52.89,1.27,64.27-.08,128.17.41,192,0,2.66.05,5.31.07,7.91.36,18.37.36,36.45,1.21,54.53-.42-18.08-.42-36.83-.55-54.8,0-2.65,0-5.32,0-8-.27-48,0-95.89,1.45-144.09.85-25.44.43-50.89-.85-76.33-.84-8.7-1.27-16.73.43-25.44"/></g><polygon class="cls-5" points="172.01 355.21 172.01 454.36 188.77 454.36 188.77 354.87 172.01 355.21"/><polygon class="cls-6" points="188.77 454.36 188.77 354.87 191.39 352.64 191.39 448 188.77 454.36"/><g class="cls-12"><polygon class="cls-8" points="171.41 371.56 194.56 363.11 192.55 354.85 170.74 355.03 171.41 371.56"/></g><line class="cls-9" x1="188.77" y1="454.36" x2="188.63" y2="360.8"/><g class="cls-12"><path class="cls-10" d="M207.57,338.89c-1.27,20.09,1.7,39.5,1.7,58.92-1.15,62-2.11,123.78-2.08,185.63,0,2.69,0,5.38,0,8,0,26.59.37,54,.79,80.82-.42-28.11-.84-56.9-1.49-85.24,0-2.56-.08-5.14-.11-7.71-.69-46.41-.94-92.76.33-139.36.85-33.47-2.12-67-3-100.42,0,16.07.85,32.14.85,48.2q0,64.28-.18,128.27c0,2.66,0,5.33,0,8-1.08,51.19.19,101.4-.23,152.28-3.83-109.79,0-218.92-4.25-328.72,1.28,108.46-.85,216.25.42,324.7-2.54-110.46,1.28-221.6-1.27-332.06.85,110.46-2.12,221.6,0,332.06-.85-23.43-1.7-47.53-1.27-71,.42-85,.42-170.05-1.7-255.08,3,107.79-2.12,216.25.43,324-.43-15.4-.85-30.13-.85-45.53,0-93.73,2.12-187.46-.43-281.18,2.55,110.46-1.27,221.6.85,332.06-.85-29.45-2.12-58.91-1.7-88.37,1.7-79.67,1.7-160,0-239.68,3.4,107.79-2.54,214.91.85,322.7-1.27-28.12-3-55.57-2.12-83.69,2.55-82.35,0-164,0-246.37-.42,83.68,1.7,167.37-1.27,251.06-.85,28.78,2.54,56.9,1.27,85-.85-22.09-2.12-43.51-2.12-65.61V374.37c-.85,73,.42,146-1.7,218.93-.85,27.44,1.7,54.22,1.7,81.67-.85-32.8-3-64.94-2.55-97.74,1.27-75,.43-150-.85-225,2.12,85-1.27,169.38-1.27,254.4,0,22.1,1.27,44.19,1.7,66.28-.85-34.81-4.25-69.62-1.7-104.44-3,35.49,2.12,71.64.85,107.12-.85-45.52-3-90.38-.43-135.9-2.54,44.85-.84,89.71.43,134.56-3-47.53-2.12-95.06-1.7-142.6-1.27,48.2-.85,96.41.43,144.61-4.67-102.43-.85-205.53-2.13-308.63,0,76.32-.42,152-1.27,228.29-.42,24.77,1.27,49.55,1.27,74.32-1.27-22.77-1.69-46.2-2.54-69-.43-12.72.42-26.11.85-38.83.42-18.75-.85-36.82-.85-55.57,0-55.57,0-110.46-1.7-166,2.55,111.8-1.7,222.94.42,334.74,0-38.83-1.69-77-1.69-115.82-.43-74.31,1.69-148-2.12-222.27.42,12.05,1.27,23.43.84,35.48q-.63,150.64,0,301.27c-1.69-101.76-.85-204.19-1.27-305.95,0-12.05-.85-23.43-1.27-35.48,1.69,113.81,0,228.29.85,342.1C173.19,562.5,174,450,171.07,337.55c.43,110.47.43,220.93.56,331.15,0,1.95,0,3.45,0,4.56s0,1.83,0,2.2v.19h0c0,.08,0,.11,0,.12s-.18,0-.18-.11,0-.92,0-2.26,0-3.25-.05-5.68c-1.06-107.9-1.48-215-3.18-322.8.43,99.08,0,197.49.56,296.29v7.15c0,20.24-.06,29.83-.17,30s0,0-.07,0-.18,0-.27-7.08c-.05-4.31-.1-10.73-.16-19.09-.05-7.45-.1-16.62-.15-27.44q0-3.25,0-6.69c-.12-75.7-1-151.35-.55-227-.42,70.3-.42,139.92-.22,210.51v72.64c0,.09-.05.17-.11.17s-.07,0-.09-.17h0v-.21c0-.45,0-1.41-.07-3.51,0-2.43-.08-6-.14-10.53-.1-8.6-.25-21.24-.43-37.57q-.1-10.32-.24-22.65,0-3.07-.07-6.29c-1.16-75.86-1.16-150.84-2.44-226.49,0,49.54,0,99.75.25,149.52,0,1.76,0,3.5,0,5.23V527c0,1.73,0,3.46,0,5.18.16,3.59.16,6.94,0,10.29,0,1.71,0,3.41,0,5.11v15.1c.15,3.22.15,6.56,0,9.84v4.84c0,56.13-.06,100.11-.3,100.48a.09.09,0,0,1-.08.06c-.16,0-.28,0-.46-14.66-.11-8.75-.22-21.61-.32-38.22-.18-27.11-.35-64.57-.52-111.4,0-1.51,0-3,0-4.57l0-7.22c0-2.41,0-4.81,0-7.23-.66-19.08-.23-37.16-.23-55.91,0,18.08,0,36.16.07,53.91v13.93c0,48.23,0,86.66,0,114.23,0,16.36,0,29,0,37.64,0,4.54,0,8.11,0,10.55,0,2.05,0,3,0,3.49v.24h0c0,.17,0,.17-.08.17s-.11-.08-.11-.17c0-1.87-.86-106.89-1.73-198.8,0-1.8,0-3.6-.05-5.39-.15-3-.15-7-.11-10.67,0-1.77,0-3.52-.05-5.27-.46-47.87-.88-82.85-.64-61.91,0,2.75-.06-5.43-.09-8s-.06-5.09-.09-7.5-.06-4.73-.09-6.94c-.14-11.07-.27-19.62-.38-24.77,0,43.81,0,330.81,0,333.94a.21.21,0,0,1,0,.12.08.08,0,0,1-.15,0,.2.2,0,0,1,0-.11h0v0c0-.22,0-.7-.06-1.42,0,0-.05,0-.08,0h0c-.06,0-.11-.07-.11-.17-.08-34.27-.78-334.89,0-336.17a.09.09,0,0,1,.16,0s0,.74,0,2.7v-.68c0-1.25,0-2.2,0-2.84,0-1.15,0-1.15.11-1.15.12,1.3.12,2,.26,3.54,0,1.06.05,2.45.09,4.25s.07,4,.11,6.77c.07,4.34.14,9.7.23,16q0,3.17.08,6.66c.2,4.88.2,10.24.18,15.23q0,2.61.06,5.34c.16,14.57.34,31.86.53,51.74,0,2.48.05,5,.08,7.57.2,5.34.2,10.69.15,15.88,0,2.72,0,5.49.08,8.29q.12,12.62.24,26.29c.54,58.84,1,118.23,1.28,147.94,0-30.93,0-94.13,0-155.67v-5.28c.14-50.86.14-101.07.14-151.95,0,56.91.85,113.81.5,170.41,0,1.91,0,3.82,0,5.73.27,74.42.64,146.92,1.05,159.36.2-11.18.22-70.33.18-135.76,0-1.87,0-3.74,0-5.62V523c0-1.89,0-3.78,0-5.69,0-58.61,0-116.86,0-175.77q1.27,125.54,2.64,251.11c0,1.58,0,3.15.05,4.7.29,26.25.53,48.26.7,61.92V609.22c-.42-90.91.43-181.29-.41-272.34,1.69,94.4.42,189.47,1.62,284q0,3.8,0,7.4c.11,21.63.22,38,.32,45.45.05-6,.06-17.82.06-33.56,0-2.24,0-4.57,0-7-.34-98.2.09-195.95-.34-294.36,2.55,107.79,1.28,214.91,3.4,322.69-.43-108.45-.43-217.58-.43-326,3.82,108.46,1.7,216.92,4.25,325.37q-1.27-164.68-.43-329.38c1.7,32.8,1.27,66.28,1.27,99.08.43,69.63,0,138.58.43,208.21-1.27-102.43,1.27-204.86-.42-307.29,4.24,103.1.84,206.87,3.39,310.64-1.7-103.1,1.7-206.2,0-309.3,3,93.05,1.27,185.44,2.55,278.5,0,16.74.85,33.47,1.69,50.21-.84-26.78-2.12-53.56-1.69-80.33,1.69-83,2.12-166,.85-249,2.54,81.67,1.69,163.35.42,245-.42,25.44,1.7,50.88,1.7,76.32,0-12.72-.85-25.44-.85-38.16,0-94.4,2.12-189.47,1.27-283.86,1.7,91.72-.42,184.11-.42,275.82,0,18.75,1.27,37.49,1.69,56.24,0-16.74-1.27-33.47-1.27-50.21,0-93.06,2.55-186.79.85-279.84,0,17.4,1.7,35.48,1.27,52.88.85-18.07-1.69-35.48-.84-53.55,1.69,81.67.84,162.68-.85,244.36-.43,20.08-.43,40.83,1.27,60.92a170.39,170.39,0,0,1-.85-25.44c.85-92.39,1.7-184.78,1.27-277.17,2.55,66.95.85,134.57,2.12,201.52.86,30.79-3,61.59,0,92.39-.42-98.42,2.13-196.83.86-295.25,2.12,94.4,0,188.13.84,282.53.43,19.41.85,38.16,2.13,57.57-3-112.47,0-225.61-.43-338.09.43,85,2.12,170.72,0,255.75,0,12,0,24.1.85,36.15-.85-18.75,0-38.16.42-56.91.85-77.66,0-155.32.43-233,1.27,85.69,1.27,172.06-.43,257.75-.42,21.43,1.28,43.52,1.28,64.94,0-12-.85-23.43-.43-35.48.85-95.07,0-190.8.85-285.87,0,42.18,1.7,84.35.43,126.53,1.27-43.51-1.28-86.36.42-129.88q1.28,134.57,1.27,269.14c0-88.38.85-177.42.85-265.79.43,32.81,1.7,66.28,1.27,99.08.43-33.47-1.27-66.27,0-99.75,1.69,109.13,1.69,217.58,3.82,326.71,0-55.57-.85-111.13-.69-166.58l.06-7.62q.21-26.72,1-53.43c1.06-22.31.35-44.63-.65-67.33q-.15-3.4-.31-6.82c-.74-4.17.11-8.19-.3-12q0-2.61.09-5.25c.11-3.51.32-7,.75-10.38-.43,18.08,1.27,35.49,1.69,52.89,1.28,64.27-.08,128.17.42,192,0,2.66.05,5.31.06,7.91.37,18.37.37,36.45,1.22,54.53-.42-18.08-.42-36.83-.55-54.8,0-2.65,0-5.32-.05-8-.27-48,0-95.89,1.45-144.09.85-25.45.42-50.89-.85-76.33-.85-8.7-1.27-16.73.43-25.44"/></g><rect class="cls-5" x="145.44" y="355.22" width="19.21" height="160.02"/><polygon class="cls-6" points="164.65 515.23 169.13 508.61 168.84 354.24 164.65 354.53 164.65 515.23"/><g class="cls-13"><polygon class="cls-8" points="140.7 395.53 169.63 379.75 168.52 355.1 140.53 355.21 140.7 395.53"/></g><line class="cls-9" x1="164.77" y1="360.35" x2="164.73" y2="515.23"/><g class="cls-13"><path class="cls-10" d="M173.15,353.23c-1.28,20.09,1.7,39.5,1.7,58.92-1.15,62-2.11,123.78-2.08,185.63,0,2.69,0,5.38,0,8-.06,26.6.37,54.05.79,80.82-.42-28.11-.85-56.9-1.49-85.24,0-2.55-.08-5.13-.12-7.71-.68-46.4-.93-92.76.34-139.36.85-33.47-2.12-66.94-3-100.42,0,16.07.85,32.14.85,48.21q0,64.26-.18,128.26c0,2.66,0,5.33,0,8-1.08,51.19.2,101.4-.23,152.28-3.82-109.79,0-218.92-4.24-328.72,1.27,108.46-.85,216.25.42,324.7-2.54-110.46,1.28-221.59-1.27-332.06.85,110.47-2.12,221.6,0,332.06-.85-23.43-1.7-47.53-1.27-71,.42-85,.42-170-1.7-255.07,3,107.78-2.12,216.24.42,324-.42-15.4-.85-30.13-.85-45.53,0-93.73,2.13-187.46-.42-281.18,2.55,110.46-1.27,221.6.85,332.06-.85-29.45-2.12-58.91-1.7-88.37,1.7-79.67,1.7-160,0-239.68,3.4,107.79-2.54,214.91.85,322.7-1.27-28.12-3-55.57-2.12-83.69,2.54-82.34,0-164,0-246.37-.43,83.68,1.7,167.37-1.27,251.06-.85,28.78,2.54,56.9,1.27,85-.85-22.09-2.12-43.51-2.12-65.61V388.71c-.85,73,.42,146-1.7,218.93-.85,27.44,1.7,54.22,1.7,81.67-.85-32.8-3-64.94-2.55-97.74,1.27-75,.42-150-.85-225,2.12,85-1.27,169.38-1.27,254.41,0,22.09,1.27,44.18,1.7,66.27-.85-34.81-4.25-69.62-1.7-104.44-3,35.49,2.12,71.64.85,107.12-.85-45.52-3-90.38-.43-135.9-2.54,44.85-.85,89.71.43,134.56-3-47.53-2.12-95.06-1.7-142.6-1.27,48.21-.85,96.41.42,144.61-4.66-102.43-.84-205.53-2.12-308.63,0,76.32-.42,152-1.27,228.29-.43,24.77,1.27,49.55,1.27,74.32-1.27-22.77-1.7-46.2-2.54-69-.43-12.72.42-26.11.84-38.83.43-18.75-.84-36.82-.84-55.57,0-55.56,0-110.46-1.7-166,2.54,111.81-1.7,222.94.42,334.74,0-38.83-1.7-77-1.7-115.82-.42-74.31,1.7-147.95-2.12-222.27.43,12.05,1.28,23.44.85,35.49q-.63,150.63,0,301.26c-1.7-101.76-.85-204.19-1.27-305.95,0-12.05-.85-23.43-1.27-35.48,1.69,113.81,0,228.29.84,342.1-2.12-112.47-1.27-224.94-4.24-337.42.42,110.47.42,220.93.56,331.15,0,2,0,3.45,0,4.56s0,1.83,0,2.2V690h0a1.13,1.13,0,0,1,0,.12c-.06.1-.18,0-.18-.11s0-.92,0-2.26,0-3.25,0-5.67c-1.06-107.91-1.48-215-3.18-322.81.42,99.08,0,197.49.55,296.3q0,3.77,0,7.14c0,20.24,0,29.83-.16,30a.1.1,0,0,1-.07.06c-.15,0-.19,0-.27-7.09,0-4.31-.11-10.73-.16-19.09,0-7.45-.11-16.62-.16-27.44,0-2.17,0-4.39,0-6.69-.13-75.7-1-151.35-.55-227-.42,70.3-.42,139.92-.23,210.51,0,1.73,0,3.45,0,5.15V688.6c0,.09-.05.17-.11.17s-.07,0-.09-.17h0v-.21c0-.44,0-1.41-.07-3.51,0-2.43-.08-6-.13-10.53-.1-8.59-.25-21.23-.43-37.57q-.12-10.32-.25-22.65c0-2,0-4.15-.07-6.28C130.28,532,130.28,457,129,381.35c0,49.54,0,99.75.25,149.52,0,1.76,0,3.5,0,5.23v10.37c.17,3.59.17,6.94,0,10.3v5.1q0,5.08,0,10.11v5c.15,3.22.15,6.57,0,9.84v4.84c0,56.13-.06,100.11-.29,100.49,0,0-.05.05-.08.05s-.28,0-.46-14.66c-.11-8.75-.22-21.61-.33-38.22-.17-27.11-.35-64.57-.52-111.4,0-1.51,0-3,0-4.57l0-7.22c0-2.41,0-4.81,0-7.23-.66-19.08-.24-37.16-.24-55.91,0,18.08,0,36.16.08,53.91v13.93c0,48.23,0,86.67,0,114.23,0,16.36,0,29,0,37.64,0,4.54,0,8.11,0,10.55,0,2,0,3,0,3.49V687h0c0,.17,0,.17-.09.17s-.1-.08-.1-.17c0-1.87-.87-106.89-1.74-198.8,0-1.8,0-3.6,0-5.39-.14-3-.14-7-.1-10.67,0-1.77,0-3.52,0-5.27-.47-47.87-.88-82.85-.64-61.91,0,2.75-.06-5.43-.09-8s-.06-5.09-.09-7.5-.06-4.73-.09-6.94c-.14-11.07-.27-19.62-.38-24.77,0,43.81,0,330.81,0,333.94a.21.21,0,0,1,0,.12.08.08,0,0,1-.15,0,.5.5,0,0,1,0-.12h0v0c0-.22,0-.7-.07-1.42,0,0,0,0-.07,0h0c-.06,0-.11-.07-.11-.17-.08-34.27-.78-334.89,0-336.17a.09.09,0,0,1,.15,0s0,.74.06,2.7v-3.52c0-1.14,0-1.14.12-1.14.12,1.29.12,2,.25,3.53,0,1.06.06,2.45.09,4.25s.08,4,.12,6.77c.07,4.34.14,9.7.22,16q0,3.17.08,6.66c.21,4.88.21,10.24.18,15.23q0,2.61.06,5.34c.17,14.57.35,31.86.54,51.74,0,2.48,0,5,.07,7.58.21,5.33.21,10.68.16,15.87,0,2.72.05,5.49.08,8.29q.1,12.61.24,26.29c.54,58.84,1,118.23,1.28,147.94,0-30.93,0-94.12,0-155.67,0-1.77,0-3.53,0-5.28.14-50.86.14-101.07.14-151.95,0,56.91.85,113.81.51,170.41,0,1.91,0,3.82,0,5.73.27,74.42.63,146.92,1,159.36.2-11.18.22-70.33.18-135.76,0-1.87,0-3.74,0-5.62V543c0-1.88,0-3.77,0-5.66v-5.69c0-58.62,0-116.87,0-175.78q1.28,125.54,2.64,251.11c0,1.58,0,3.15,0,4.7.28,26.25.53,48.27.69,61.92V623.56c-.41-90.91.44-181.29-.41-272.34,1.7,94.4.43,189.47,1.63,284q0,3.79,0,7.4c.11,21.63.22,38,.33,45.45,0-6,.06-17.82.05-33.55v-7c-.34-98.2.08-196-.34-294.36C136.23,461,135,568.14,137.07,675.92c-.42-108.45-.42-217.58-.42-326,3.82,108.46,1.7,216.92,4.24,325.37q-1.26-164.68-.42-329.38c1.7,32.8,1.27,66.28,1.27,99.08.43,69.63,0,138.59.43,208.21-1.28-102.43,1.27-204.86-.43-307.29,4.25,103.1.85,206.87,3.4,310.64-1.7-103.1,1.7-206.2,0-309.3,3,93.05,1.27,185.44,2.54,278.5,0,16.74.85,33.48,1.7,50.21-.85-26.78-2.12-53.55-1.7-80.33,1.7-83,2.13-166,.85-249,2.55,81.67,1.7,163.35.43,245-.43,25.44,1.7,50.88,1.7,76.32,0-12.72-.85-25.44-.85-38.16,0-94.4,2.12-189.47,1.27-283.86,1.7,91.72-.42,184.11-.42,275.82,0,18.75,1.27,37.5,1.69,56.24,0-16.74-1.27-33.47-1.27-50.21,0-93.06,2.55-186.79.85-279.84,0,17.4,1.7,35.48,1.27,52.88.85-18.07-1.7-35.48-.85-53.55,1.7,81.67.85,162.68-.85,244.36-.42,20.08-.42,40.84,1.28,60.92a169.06,169.06,0,0,1-.85-25.44c.85-92.39,1.7-184.78,1.27-277.17,2.55,66.95.85,134.57,2.12,201.52.85,30.8-3,61.59,0,92.39-.42-98.42,2.13-196.83.85-295.24,2.12,94.39,0,188.12.85,282.52.43,19.41.85,38.16,2.12,57.57-3-112.47,0-225.61-.42-338.09.42,85,2.12,170.72,0,255.75,0,12.05,0,24.1.85,36.15-.85-18.75,0-38.16.42-56.91.85-77.66,0-155.32.43-233,1.27,85.69,1.27,172.06-.43,257.75-.42,21.43,1.27,43.52,1.27,64.94,0-12-.84-23.43-.42-35.48.85-95.07,0-190.8.85-285.87,0,42.18,1.7,84.35.42,126.53,1.28-43.51-1.27-86.36.43-129.88q1.28,134.57,1.27,269.14c0-88.38.85-177.42.85-265.79.42,32.81,1.7,66.28,1.27,99.08.43-33.47-1.27-66.27,0-99.75,1.7,109.13,1.7,217.58,3.82,326.71,0-55.57-.85-111.13-.68-166.58,0-2.53,0-5.08.05-7.62.15-17.81.46-35.62,1.06-53.42,1.06-22.32.35-44.64-.65-67.34q-.15-3.41-.31-6.82c-.74-4.17.11-8.19-.3-12,0-1.73,0-3.49.09-5.25.11-3.51.32-7,.74-10.38-.42,18.08,1.28,35.49,1.7,52.89,1.27,64.27-.08,128.17.42,192,0,2.66,0,5.31.06,7.91.37,18.37.37,36.45,1.22,54.53-.43-18.08-.43-36.82-.56-54.8,0-2.65,0-5.32,0-8-.27-48,0-95.89,1.45-144.09.85-25.44.42-50.88-.85-76.32-.85-8.71-1.28-16.74.42-25.44"/></g><polygon class="cls-14" points="477.77 292.65 322.03 292.65 166.28 292.65 140.53 336.82 322.03 336.82 503.52 336.82 477.77 292.65"/><polygon class="cls-15" points="322.83 336.82 322.63 336.82 143.2 336.82 143.2 360.82 322.63 360.82 322.83 360.82 500.85 360.82 500.85 336.82 322.83 336.82"/><g class="cls-16"><polygon class="cls-17" points="559.21 322.54 426.46 312.29 223.04 312.29 80.95 322.54 80.95 258.92 559.21 258.92 559.21 322.54"/></g><polygon class="cls-18" points="322.82 336.8 322.61 336.8 140.53 336.8 140.53 339.43 322.61 339.43 322.82 339.43 503.47 339.43 503.47 336.8 322.82 336.8"/><line class="cls-19" x1="503.47" y1="336.8" x2="140.53" y2="336.8"/><polygon class="cls-1" points="138.12 336.73 164.21 292.74 477.86 290.81 504.3 335.02 138.12 336.73"/><g class="cls-16"><g class="cls-20"><line class="cls-21" x1="115.5" y1="319.93" x2="533.6" y2="319.93"/><line class="cls-22" x1="115.5" y1="319.46" x2="533.6" y2="319.46"/><line class="cls-19" x1="115.5" y1="320.54" x2="533.6" y2="320.54"/></g><g class="cls-20"><line class="cls-21" x1="115.5" y1="305.53" x2="533.6" y2="305.53"/><line class="cls-22" x1="115.5" y1="305.05" x2="533.6" y2="305.05"/><line class="cls-19" x1="115.5" y1="306.13" x2="533.6" y2="306.13"/></g></g><polygon class="cls-8" points="322.83 339.24 322.63 339.24 143.2 339.24 143.2 344.57 322.63 344.57 322.83 344.57 500.85 344.57 500.85 339.24 322.83 339.24"/><g class="cls-23"><g class="cls-16"><path class="cls-10" d="M136.18,299.21s0-.06.23-.08h0c.81-.09,4.42-.15,20.68-.25l22.44-.12,6.86,0c105.58,0,212-2,317.74-1-107.92-2-215.1.67-323.33.06h-7.57l-31.92,0a.25.25,0,0,1-.13,0s-.06,0-.06-.06,0-.06.19-.07h.26l1.41,0,4.87,0,18.15-.12,12.75-.08,7.1,0c103.92,0,208.16-3.33,312.4-2-104.24-2-209.22.67-313.32,0h-8l-34.11,0h0c-.1,0-.18,0-.18-.08s.08-.08.18-.08h0l29.74-.18,8.33,0c94.92-.32,190.35-2.32,285-2.32-95.43-.33-190.13.67-285.63.57H137c-.1,0-.18,0-.18-.08s0-.06.18-.07h.2c.36,0,1,0,2.35,0l7.31-.06,26.86-.22,5.84-.05c70.55-.68,141.39-1.78,212.17-2.32l8.49-.06c36.33-.32,71.57-.32,107.54-.32-38.91-.33-77.08-1-116.35-.58l-8.5,0c-68,.23-135.95,1-204.22.7h-5.81c-31.24,0-34.59,0-34.7,0s-.05,0-.05-.06,0-.05.22-.08h0c.71-.07,3.65-.14,15.68-.26l17.55-.15,7.28-.06c59-.32,117.9-1.07,176.84-1.53l8.36-.06c33.57-.59,66.61-.26,100.37-.26-34.5,0-69.74-.66-104.39-.1l-8.77,0c-55.59.19-111.24.54-166.7.24H137.33c-.1,0-.18,0-.18-.08h0c0-.05.08-.09.18-.09l40.06-.07h8.26q34.46-.19,69-.31l8.64,0,8.65,0,8.65,0,8.65,0,8.61,0c14.64-.14,28.59-.14,43.31-.1l8.65,0,8.6,0c48.79.33,96.5-.33,145-.33-48.45-.34-96.9-1-145-.15l-8.55,0-8.72,0c-17.6.1-34.49.1-52.16.17l-8.7,0-8.71,0c-6-.12-11.17-.12-17.38.05l-8.7,0q-30.45.08-60.91.06h-7.72c-24.62,0-38-.07-38.29-.19,0,0,0,0,0-.06s0-.13,12.46-.21l25.94-.12,7,0q30.22,0,60.36-.12l8.58,0c81.65-.48,162.4-1.15,243.89-1.15-95.44,0-190.14,0-285.91.05h-33.7l-39.21,0h0c-.1,0-.18,0-.18-.09h0c2.22,0,3.69,0,6-.12l6.33,0,30.61-.21,7.87,0,8.54-.08,8.55-.08c87.8-.76,175.16-1.76,263.25-1.75-110.85-.67-221,.66-331.82-.34,116.73-1,232.71-1.66,349.44-1.66-116-2-231.25.66-347.24-.33,104.25-.67,208.49-2.66,312.73-2.33-105-.67-209.22,1-314.19,0,74.87-1.66,149-1,223.9-3.33,33-1,65.33.34,98.37,0-109.38-1.33-218.77.67-328.15,0,68.27-1,137.28-.33,205.55-1.33,16.89,0,34.51-.66,52.13-.33-17.62-.33-36,.33-53.59.33-68.28,1-135.82-.33-204.09.67,68.27-1.33,136.55-.33,204.82-1.67,29.36-.66,59.46.34,89.56,0-30.1,0-60.2-1-90.29-.33-67.54,1.33-135.82-.33-203.35.67,67.53-2,135.07-1.33,203.35-2.66,17.62-.34,35.23-1.33,52.85-.67,30.83.67,60.93,0,91.76,0l-102-1c-13.21-.33-25.69.34-38.9.34-69,.66-138-.67-207,.66,118.92-2.66,237.11-1,356-1.66-31.57-.67-62.4,0-94-.67-17.61-.66-35.23,0-52.85,0-71.21.67-141.69-.66-212.9.67,24.23.33,49.19-1,73.42-1.33,56.52-.67,113.78,1,170.31,0,37.44-.33,75.61.33,113,.33-49.18.33-97.63-1-146.82-.67-69.74.67-139.48,0-209.22,1,121.13-3.32,242.26-2.33,363.39-2.66-119.67-1-240.06-.66-359.72,0,121.86-2.66,243-2,364.85-3.66q-182.79,0-365.58.34c112.32-2,223.9-2,336.31-3.3l7.66-.07,6.83-.06c6.71.1,13.32-.57,19.92-.23H413.84c-4.41,0-9.55,0-14.21,0h-9.76c-10.54-.06-20.09-.06-30,.05H349.63c-70.88.53-141.35-.13-212.56.2,67.54-1.33,134.34-1.33,201.91-2l5.46,0c69.52-.55,135.22-1.11,154.29-1.44H254.79c-39.17-.23-78.81.77-117.72-.23,37.44-.33,74.88-1,112.64-1l8.07-.07,63.85-.47c62.85-.47,126.27-.91,159.82-1.15l-158.38,0H210.79c-23.8,0-47.29,0-70.78,0,5.87-.67,11,0,16.76-.41l5.28,0c9.4-.05,21.87-.11,37.89-.17,35.64-.14,83.4-.26,129.6-.37,70.41-.18,142.81-.36,166.47-.59-53.22,0-352.06,0-355.45,0h0c-.1,0-.18,0-.18-.08h0s.08-.08.18-.08l360.54-1.42c-54.05-.35-355.76.13-359.24.14h0c-.11,0-.19-.05-.19-.09s.08-.08.18-.08h0l335.18-2H143.59c-.1,0-.19,0-.19-.08s.09-.08.19-.08c2.56,0,185.8-.13,289.75-.25-104.13,0-287.85,0-290.42,0a.25.25,0,0,1-.13,0s-.06,0-.06-.06,0-.05.19-.07H143c.85-.1,4.84-.21,23.37-.42,13.78-.15,33.27-.33,59.58-.55,48.21-.4,109.38-.83,163.35-1.22,45.9-.32,87.34-.62,107.83-.8H136.48c-.1,0-.18,0-.18-.08s0-.05.18-.07h.2c.94-.06,4.22-.1,15.66-.17,9.57-.07,23.64-.14,41.82-.23,30.62-.15,73.31-.33,126.89-.54,75.59-.3,152-.57,176.49-.65-53.3-.37-354.31.13-357.74.14h0c-.1,0-.19,0-.19-.09s.09-.08.19-.08l353.93-1.76c-50.25-.1-212.2,0-297,.06-46.25,0-53.28,0-54.39,0h-.22s0,0,0-.06,0-.05.19-.07h.14c1-.08,5.13-.14,21.9-.24,13-.08,31.47-.16,56.45-.26,45.85-.18,105.3-.37,157.75-.53l96.89-.32c-118.47.06-320.19.15-335.1,0h-.88c-.1,0,0-.14.13-.14l310-.94H138.32c-.1,0-.18,0-.18-.09s.08-.08.18-.08H504.43c.1,0,.18,0,.18.08h0s-.08.09-.18.09l-336.8,1c85.91.08,340-.08,343.07-.08l.13,0s.05,0,.05.06,0,.05-.18.07h-.24c-.81,0-3.22.05-10.31.09l-28.59.12-93,.3c-86.05.27-189.46.6-224.17.87l42.4,0c218.39-.15,305.1-.14,311.93,0h.44c.11,0,0,.14-.13.14l-320.44,1.59c100.17-.14,310.05-.39,317,.08h.05l.12,0c.11.05,0,.15-.12.15-3.22,0-284,1-353.61,1.45H510.63c.1,0,.18,0,.18.08s0,.05-.18.07h-.12c-.66,0-2.75.07-9.42.13-5.83.06-14.34.13-26,.22-22,.17-53,.39-85.78.62-92.52.66-215.76,1.53-241.47,2l175.36,0h176.2c2.27,0,3.32,0,3.81,0h.2v0c.21,0,.21,0,.21.07s0,.05-.2.07h-.17c-.47,0-1.51,0-3.85,0L488,246l-40.76.07-97.71.1H504.68c.1,0,.18,0,.18.08s-.08.08-.18.08l-325.91,2c94.57-.13,323-.41,330.57.06h.06l.13,0c.11.05,0,.15-.12.15L184.19,249.8H500c2.55,0,3.58,0,4,0h0c.27,0,.27,0,.27.07s0,.06-.2.08h0c-.68.08-3.45.14-14.8.21-8.91.07-21.75.13-39.27.19-32.58.12-75.25.23-120.43.34-53.66.14-108.39.28-145.08.44l-7.09,0c-10.2.36-20.48-.31-30.76.36,17.62,0,34.51,0,52.27-.15h4.59c103.84,0,299.54,0,302.35,0h0c.1,0,.18,0,.19.08h0s-.08.08-.19.08h0c-2.43,0-149.2,1-256.72,1.86l-5.45,0c-32.43.1-64.73.76-97,.76q50.65,0,101.38.06H504.33c.1,0,.18,0,.18.09s0,.05-.18.07h-.08c-.92.1-5.07.2-23.88.41-14.06.16-33.92.35-60.72.58l-63.54.52-8.41.07c-68.95.85-137.95.52-207,1.85,69.74-.33,139.48-.33,209.48-.37h10c9.52.06,18.33.06,28,0h25.13l27.17,0H495l7.8,0c4.28,0,6.71.06,7.34.11h0l.13,0c-124.32,2-248.39,1.32-372.45,3.65,122.59-.34,245.92-.67,368.52,0-121.86,1.33-243,1-364.85,3.32,120.39-1.33,241.52-.66,361.91,0-123.33,1-246.66-1-370,2.66,121.86-2,243.73-1,365.59-.33-91-.33-182.06.66-273.09-.33,24.22.33,48.45.66,72.68.66,64.6,0,129.2-.33,193.8.67-53.59,1.66-107.18-.67-160.77.33-63.87,1-128.47-.33-192.34,1.33,66.07-1.66,132.88-.33,199-.66,5.87,0,12.48-.34,19.08-.34,43.32-.66,87.36.67,130.68,1-114.53.67-229,.67-343.57,3.33,27.9,0,55.06-1,83-1.33,42.58,0,85.15,1.33,127.73.33,43.31-.67,87.36.66,130.67,1-35.23,0-69.74,0-105-1-16.89-.33-33,1-49.19,1.33-55.79.33-110.85-.67-166.64.67,107.18-1,213.62-.67,320.8.33-116.72-.67-232.71-.33-349.43.66,66.8.34,134.34-.33,201.14-.33,7.35,0,15.42-.66,23.5-.66,41.84-.34,82.95.66,124.79,1-39.64.67-79.28-.33-118.92,0-8.81,0-18.36,1-27.16,1-66.08,1-131.41,1-197.48,2.33,118.19,0,236.38-.67,354.58,0-110.85,0-221.71,1.66-332.56,2.33,111.59.33,223.91-1,335.49.33-120.39,0-240,1.33-360.45,1.66,120.4,1.33,240.79-1,361.19.34-95.44,0-191.61,1.33-287,1.95l-8.35.05-16.79.07-6.4,0-17.11.11h20.85c5.67,0,11.32,0,17,0h8.48c97.73-.23,195.37-.89,293,.1-84.43.34-168.11,1-252.28,1.41l-8.72,0q-30.51.07-61.06,0l-7.4,0c-14.25.06-25.08.11-31,.16,6.45,0,18.89.07,35.33.07h7.23q30,.08,60,0l8.58,0c5.53-.09,11.4-.09,17.16,0l8.61,0,8.59,0c16.69,0,34.31,0,51.55-.16l8.63,0c2.87,0,5.73,0,8.46,0,50.82-.14,100.74-.47,151.4.2-48.45.33-96.91,0-145.1.46-2.66,0-5.46.05-8.34.06l-8.63.06-8.64.06c-6.22,0-11.35,0-17.27.11l-8.64.05-8.63,0-8.63.05-8.63,0q-34.51.15-68.94.05,40,.15,79.77,0l8.85,0,8.86,0,8.84,0,8.85,0,8.85,0,8.85,0,8.85,0c48.42-.54,96.14-.21,144.59.12-46.25.34-91.77.34-138.24.6l-8.46.05c-59.46.41-118.88,1-178.51,1.37l-7.58.05c-12.08.1-21.4.19-27,.27l32,0c2.4,0,4.89,0,7.41,0,68.21,0,136.59-.66,204.86-.76h8.81c37.71.13,75.88.13,113.32.79-33.77.67-66.8,0-100.91.37l-8.58.07c-74.41.56-148.81,1.84-223.33,2.44l-6.53.05-16.64.14H183c107.47.59,213.92-2.07,321.1.26-108.65-1-217.3,1-325.95,2,108.65,0,217.3-2.32,326,0-106.45-1-212.9,1.33-319.28,2.17l-6,0-5.71,0h7.61c108.33.1,217.71-2.23,326.53,0,1.34,0,2.06.05,2.11.07s.06,0,.06.06,0,.09-1.51.12c-107.27-1.14-214.45,1.18-321.45,1l-7.37,0c-16.77.08-29.64.15-36.67.23,6.9,0,19.37,0,35.49,0h8.3c106.51.62,212.22-2,318.4-.12l4.36.05a13,13,0,0,1,1.58.07s.06,0,.06.06,0,.09-2,.13l-4.8.06c-105.37-1-211.81,2.7-317.38,2.67l-6.46.05-16.8.13h28c103,.5,205.07-.83,307.8,0h9.8c.1,0,.18,0,.18.09s-.07.08-.17.08l-2.54,0q-2.49,0-7.36.05c-101.17-.06-201.74,1.94-303.06,2.57l-7.95.07-28.34.24h36.14c100.73.39,201.31-.61,301.8,0h9.79c.1,0,.18,0,.18.08s-.08.08-.18.08l-2.5,0-7.2.06c-96.91.14-193.82,2.13-290.85,2.64l-8.65.09-35.89.32,31.46,0h9.11c95.87-.21,192-.88,287.91,0l8.67,0c4.72,0,7.33.05,7.4.09s.06,0,.06.06,0,.18-14.49.34l-7.28.06c-49.13.9-98.31.23-147.4,1.07l-8.95.06-53,.32c-56.06.35-106.08.66-125.12.83,24.18.06,98.22,0,170.23,0l64.32-.05H392c19.94,0,39.63,0,59.45,0l14.88,0,15,0h5.27c11.43,0,17.19,0,18.75.07h.43c.11.05,0,.14-.12.15l-15.86.09-6.56,0c-6.24,0-11.37,0-17.3.05l-5.85,0c-3.92,0-7.85.06-11.78.11l-5.21,0-5.36,0c-5.52.11-11.39.11-16.93.09l-5.89,0-244,1.4,198.85-.06h5.19q60.63,0,121.17.05H502l3.54,0h1c.05,0,.07.06,0,.09a.25.25,0,0,1-.17.05l-2.59,0-7.43,0c-47.35.33-94.33.66-142,.76l-6.65,0L149.05,315.6c5.34,0,13.74.06,24.45.08h6.71c21.46,0,43.49,0,64.53,0H280.8l21.48,0H324c59.69.13,118.42-.53,177.92-.16l2.39,0h.27s.06,0,.06.06,0,.06-.24.07h0c-.42,0-1.44,0-4,.05-101.95.06-204,.73-306,1.06,103.51,0,206.29,0,309.81,0H507c.1,0,.18,0,.18.08s0,0-.18.07v0h-.13c-.42,0-1.41.05-3.8.08-64.23.44-128.1.44-192,.77,64.6.33,128.47-.67,193.07.33q-177.28,1-354.58,1.33c118.19.67,237.12,0,355.31,0-85.89,1-171,.34-256.94.34q128.84.5,257.67.33c-116,1.66-232.71,1.66-348.7,2.33,115.26-.34,231.25,1,346.5,0-71.94,1-143.15,1.33-215.09.66,72.68,1,146.09.33,218.76,0-78.55,1.66-156.36,1-234.91,1,79.28.66,157.83.33,237.12,0-124.07,2.33-248.13,2-372.2,3,12.48.33,25.7.33,38.17.33,55.06.34,110.86,0,165.91.67,56.53.67,113.06-.33,169.58-.66-83,1-165.17,2-248.13.66q-35.24,0-70.47,1c-18.35.33-36.71-.67-55.06-.33,65.34,1.33,131.41-.34,196.74.66,58.73,1,116.73,0,175.46-.33-91.77,1.33-184.27,1.33-276,1-19.09,0-38.91.33-58,.33,55.06-.33,109.39,0,164.45.67,56.52.33,113.78-.67,170.31-.67-124.06,3-247.4,2.66-371.46,3,66.8,1.67,132.87,0,199.68,1,56.52.67,113-.67,169.58-.67-93.23,1.34-185.73,1-279,1.67-30.84.33-62.41.33-93.24.33,12.48.33,24.23.33,36.71.67,16.15.33,33-.34,49.18-.34,41.11-.66,82.22,0,123.34.34,52.85.33,106.44-1,159.3-.34-121.87.67-243.73.34-365.59,0,11,.67,22.76.34,33.77.34,20.55.66,41.84-.34,62.4,0,91.76.66,183.53-.34,275.29,0l-8.71.18-8.7.17-8.72.16c-113.24,2-227,1.24-340.19,2.48,92.29.25,185,.12,277.4,0h89.65c-27.16.33-55.05.33-82.45.61l-8.77,0c-64.34.21-128.78.13-192.88.36,63.6,0,126.84.15,190.13.17h8.6c26.64.49,53.81-.51,80.23.16-30.09.33-59.46.33-89.54.5l-8.82,0c-79.29.23-158.57.1-237.86.81,78.24,0,156.11-.34,234-.34h8.66c31.86,0,64.16,0,95.73.67-46.25.67-93.23.34-139.74.91l-8.68.05q-78.12.46-156.21,1l-8.69.07c-11.89-.32-22.91.34-34.76.27l-8.7.07H336.37c54.7,0,109,0,164.09.67-115.26,1.66-230.51,1-345.77,2,116-.33,232,.67,348,.67-119.66,2-239.32,0-359,1,118.19-.67,236.38,1,354.57.33-117.45,1-234.18-.67-351.64,0,118.93-.67,237.86,1.66,356.78.33-37.44.66-74.14,1-111.58.66-83.69-.66-166.65-.33-250.33,1.34,118.92-1.67,237.11,2,356,0-30.1,1.33-60.2,2-90.29,1.33-87.37-1-175.46-.34-262.82,1,15.42,0,30.1-.33,45.52-.66,104.24-1.33,208.48,2.66,312.73,1-22,.66-44.05,1.33-66.07,1.33-97.64.33-196-2-293.65,0,98.37-1.33,196.75,1.33,295.12,1,22,0,44-.34,66.07-1.33-30.1,1.33-60.2,2.32-90.3,2-91.76-.66-182.79-2.66-274.56-.33,22,.66,44-1,66.07-.67,98.37,0,197.48,3,295.85.67-43.31.33-86.62,2.66-129.94,1.33-13.21-.33-25.69.33-38.91,0-55.79-.67-112.31-2-168.11,0,10.28-.33,19.82-.67,30.1-.67,103.51-.33,206.29,3,309.8.67-55.8,2.33-111.59,1.33-167.38,1.66,56.52,0,113.79.33,170.31-1-29.36.67-59.46,1-88.82,2-25,.33-49.19-.67-74.15-.33-61.66.66-124.06-3-185.73.66,11-.33,22-1,33-1,85.64-.27,170.78,1.53,256.25,1.37l8.55,0c11.22,0,23,0,34.2-.24l8.59-.1-8.59.16c-17.11.51-34.72.51-51.36.59l-8.57.05c-79.94.38-159.87-1-239.81-1.46,80.51.51,161,2.24,241.52,1.88l8.62,0c17.08-.51,34.7-.18,51.73-.66l8.66-.19-8.85.2c-20.51.47-41.07.47-61.5,1l-8.78.1c-61.45.66-122.75.4-184.42-1-33-.67-66.07,1.66-99.1,2,22,1,43.31-1.33,64.6-1.33,68,.9,135.73,1.65,203.55,1.63h8.81c29.16.05,59.26-.29,88.63-.62-30.84.33-62.4.67-93.48,1.17l-8.45.09c-50.89.54-101.72.74-152.81-.26C212.68,364,176,366.29,139.27,367c17.62,0,35.24-.67,52.86-.67q70.47,0,140.64.14h8.78c56.13.85,111.19-.15,167,.18-120.39,3-240,0-360.45,3.33,118.93-1,237.12.67,356-.33-121.13,2-243-1-364.12,1,121.13-.66,243,1.67,364.12,0-25.7.66-52.13,1.33-77.82,1-93.23-.33-186.46-.33-279.7,1.33,118.2-2.32,237.12,1.67,355.31-.33-16.88.33-33,.67-49.92.67-102.77,0-205.55-1.67-308.32.33,121.13-2,243,1,364.12-.67-32.3.67-64.6,1.67-96.91,1.33-87.35-1.33-175.45-1.33-262.81,0,118.19-2.66,235.65,2,353.84-.66-30.83,1-60.93,2.33-91.76,1.66-90.3-2-179.86,0-270.15,0,91.76.33,183.53-1.33,275.29,1,31.57.66,62.4-2,93.23-1-24.22.67-47.71,1.66-71.94,1.66H177.45c80,.67,160-.33,240.05,1.33,30.1.67,59.46-1.33,89.56-1.33-36,.67-71.21,2.33-107.18,2-82.22-1-164.44-.33-246.66.67,93.23-1.67,185.73,1,279,1,24.23,0,48.45-1,72.68-1.33-38.17.67-76.35,3.33-114.52,1.33,38.91,2.33,78.55-1.66,117.46-.66-49.92.66-99.11,2.33-149,.33,49.19,2,98.37.67,147.56-.33-52.12,2.33-104.24,1.66-156.37,1.33,52.86,1,105.72.66,158.57-.33-112.32,3.66-225.37.66-338.42,1.66,83.69,0,166.64.33,250.33,1,27.16.33,54.32-1,81.48-1-25,1-50.65,1.33-75.61,2-13.95.33-28.63-.34-42.58-.67-20.55-.33-40.37.67-60.93.67-60.93,0-121.13,0-182.06,1.33,122.6-2,244.46,1.33,367.06-.34-42.58,0-84.43,1.33-127,1.33-81.49.34-162.24-1.33-243.73,1.67,13.22-.34,25.7-1,38.91-.67q165.18.49,330.35,0c-111.59,1.33-223.9.67-335.49,1-13.21,0-25.69.66-38.91,1,124.8-1.33,250.33,0,375.13-.67-123.33,1.67-246.66,1-370,3.33q181.7-.51,363.12-.44l5,0c1.22,0,2,0,2.41,0h.21l.13,0c.11.05,0,.14-.12.14l-2.48,0-6.22,0c-118.32.82-235.78,1.16-354,2.49,108.65-.34,216.56,0,324.9-.44h7.83c22.19,0,32.71,0,32.9.13a.07.07,0,0,1,.06.06c0,.11,0,.14-7.77.21-4.72,0-11.77.08-20.94.12l-30.08.12-7.34,0c-83,.1-166,.76-248.91.43,77.08.33,153.43.33,230.83.18h79.65c.1,0,.18,0,.18.08s0,.05-.18.07h-.23c-.49,0-1.55,0-3.85.06l-11.54.1c-9.43.09-23.29.2-41.2.34l-24.84.19-6.89.06c-83.18.91-165.4.91-248.36,1.9,54.33,0,109.38,0,164-.19h17.1c3.94-.13,7.61-.13,11.29,0h22.15c3.53-.12,7.2-.12,10.8,0H400c61.55,0,109.78.05,110.19.24a.07.07,0,0,1,0,.06c0,.13,0,.22-16.07.36-9.59.08-23.69.17-41.91.25-29.72.14-70.8.28-122.15.41h-5l-7.92,0-7.93,0c-20.92.52-40.74.19-61.3.19,19.82,0,39.64,0,59.11-.06H447.56l41.28,0H500.4l3.83,0h.26v0c.19,0,.19,0,.19.07s-.08.08-.19.08c-2,0-117.2.68-218,1.36l-5.91,0c-3.3.11-7.71.11-11.7.08l-5.78,0c-24.91.17-48.25.34-67.89.5l-8.79.07-8.22.07-7.61.07c-12.14.11-21.51.21-27.17.3,48,0,362.75,0,366.19,0l.13,0c.07,0,.06.09,0,.12a.22.22,0,0,1-.12,0h0q-.37,0-1.56.06a.06.06,0,0,1,.05.06h0s-.08.08-.18.08c-37.58.06-367.23.61-368.63,0-.07,0-.07-.09,0-.12s.81,0,3,0h-3.86c-1.25,0-1.25,0-1.25-.09,1.42-.09,2.15-.09,3.87-.2l4.67-.07,7.41-.09,17.59-.18L178,402c5.36-.16,11.23-.16,16.71-.14l5.85,0c16-.13,34.94-.27,56.74-.42l8.31-.06c5.84-.15,11.72-.15,17.4-.12l9.09-.06,28.83-.19c64.53-.42,129.64-.81,162.23-1-33.93,0-103.22,0-170.7,0h-5.8c-55.76-.1-110.82-.1-166.61-.11,62.4,0,124.8-.66,186.85-.39l6.29,0c81.61-.21,161.1-.49,174.75-.82-12.27-.16-77.13-.17-148.87-.14H334.22c-64.27,0-128.14,0-192.74,0q137.64-1,275.34-2.06l5.16,0,67.89-.55H435c-99.69.33-198.79-.34-298.63.33,103.51-1.33,207.75-.34,311.47-1.28l8.11,0c23.71-.08,41.68-.17,49.84-.25-6.59,0-19.54-.05-36.8,0h-7.65c-107.67.27-214.86-.07-322.77.27,118.19-2,235.65-1,353.84-2.67-118.93.34-238.58.34-357.51.34,118.93-3,237.85-1.33,356.78-3.33q-180.6,1-361.19.33c36-1.33,72.68-1,108.65-1,76.35-.34,152,0,228.31-.34-112.32,1-224.64-1-337,.34,113.06-3.33,226.84-.67,340.63-2.66-113,1.33-226.1-1.33-339.16,0,102-2.33,203.35-1,305.39-2,18.36,0,36.71-.67,55.06-1.33-29.36.66-58.73,1.66-88.09,1.33q-136.55-2-273.09-.67c89.56-2,179.12-1.33,268.68-.33,27.9.33,55.8-1.33,83.69-1.33-13.95,0-27.89.67-41.84.67-103.51,0-207.76-1.67-311.27-1,100.58-1.33,201.88.33,302.46.33,20.55,0,41.11-1,61.66-1.33-18.35,0-36.7,1-55.05,1-102,0-204.82-2-306.86-.67,19.08,0,38.9-1.33,58-1-19.82-.67-38.91,1.33-58.73.66,89.56-1.33,178.39-.66,268,.67,22,.33,44.78.33,66.81-1a259.94,259.94,0,0,1-27.9.66c-101.31-.66-202.61-1.33-303.92-1,73.41-2,147.56-.67,221-1.67,33.77-.66,67.53,2.33,101.3,0-107.91.33-215.83-1.66-323.74-.66,103.51-1.67,206.29,0,309.8-.67,21.28-.33,41.84-.66,63.13-1.66-123.33,2.33-247.4,0-370.73.33,93.24-.33,187.2-1.66,280.43,0,13.22,0,26.43,0,39.65-.66-20.56.66-41.85,0-62.41-.34-85.15-.66-170.31,0-255.46-.33,94-1,188.66-1,282.63.33,23.49.34,47.72-1,71.21-1-13.22,0-25.7.66-38.91.33-104.25-.67-209.22,0-313.47-.67,46.25,0,92.5-1.33,138.75-.33-47.72-1-94.7,1-142.42-.33q147.55-1,295.12-1c-96.91,0-194.54-.66-291.45-.67,36-.33,72.68-1.33,108.65-1-36.7-.34-72.68,1-109.38,0,119.66-1.33,238.59-1.33,358.25-3-60.94,0-121.87.67-182.67.54l-8.35,0q-29.29-.17-58.58-.83c-24.47-.83-48.94-.28-73.84.51l-7.48.24c-4.57.58-9-.08-13.13.24-1.91,0-3.83,0-5.76-.08-3.85-.08-7.71-.24-11.38-.58,19.82.34,38.91-1,58-1.33,70.47-1,140.53.07,210.49-.32l8.67-.05c20.16-.29,40-.29,59.8-1-19.82.34-40.38.34-60.08.44l-8.76,0c-52.64.21-105.14,0-158-1.13-27.9-.67-55.79-.34-83.69.66-9.54.67-18.35,1-27.9-.33,22,1,44.79-1.33,66.81-1.33,76.37,0,152.74,1.26,229.11.44l8.46-.09c17.17,0,34.05-.68,50.93-1-16.88.34-34.5.67-51.1.73l-8.51.07c-65.32.48-130.74-.26-196.59-1.79-26.43-.34-52.12.66-78.55,1.66-6.61,0-13.95.33-20.56-.67,22.76,1.33,45.52-1.33,68.28-1.33,80.77.57,162.08,2.35,243,1.62l8.37-.08c10.69-.54,22.44-.21,33.45-.54-8.81,0-17.62,0-26.43.21l-8.81.07c-70.48.51-141,.67-212.15-1.61-35.24-1-69.74,2-104.25,1.33,30.83,0,62.4-2.33,93.24-2,77.81,1,156.36,2.32,234.18.33-15.42.33-30.1.66-45.52.66-88.09.34-175.45-4-264.28-.66A155,155,0,0,1,135.6,359c19.09.67,37.44-.66,56.53-.66,102-.67,204.82,3.66,306.86,0-94.7,2.66-190.14-.33-284.84-1-16.88,0-33,.67-49.92,1-9.54.33-19.08,1.33-28.63-.33,99.11-2,197.48,1,296.58.33,17.62,0,36-1,53.59-1-21.29,0-43.31,1.33-64.6,1-94.7-1-189.4-2-284.1-1.67,94.7-1.66,190.14-.66,284.84.67-94.7-1.66-188.67-2.33-283.37-1.66,84.42-1.67,168.11-1.33,252.53-.33-85.15-1.67-171-.67-256.2-1.34,94-1.33,187.93-2.66,281.9-.66,13.21.33,25.69-.67,38.91-.67-105.72-.33-210.69-1.33-316.41-1,97.64-1.67,194.54-2,292.18-1-96.9-2.33-193.81,0-290.71-1.33,5.87.33,11.75-.33,17.62-.33-7.34-.34-14.68,1-22-.34,119.66-.33,239.32.34,359-.66q-178.4,0-356.78-.67c120.39-.33,240.05-1.33,360.45-2-56.53-.34-113-1-169.37-.56l-8.75,0q-48.12.09-96.26.11h-8.75c-20.79.44-40.62-.23-61.28-.14l-8.75,0-8.76-.05,25.92-.21,8.64-.07,8.63-.06,8.63-.07q86.31-.61,172.4-1.06l8.62-.05c36.58-.14,73.29-.14,110-.81H395.55c-86.65,0-173.51-.08-260-.33Q274,341.64,412.47,341l8.62,0c25.78.07,51.47-.59,77.16-.26-25.69,0-51.38-.67-76.74-.33h-8.62c-91.93,0-184.09.76-275.82,0,96.9,0,194.54-.34,291.44-.67-97.63,0-194.54.67-292.17-.66,122.59-.34,245.92-.34,368.52-2.66-124.8,1-248.86-.34-373.66,0,3.67-1,8.07,0,11.74-.34-4.4,0-8.07.34-12.48-.33,117.46-1,234.19-.33,351.64-1.66-71.21-.34-142.41,1-213.62,0-46.25-.67-93.24.66-139.49-.34,75.62-.66,150.5-.66,226.11-1.33,50.66-.66,101.31-.33,152-2-82.95.33-165.91,1.33-248.86,0-42.58-.67-85.16.66-127.74-.33,69,.66,138-1.33,207.76.33,32.3,1,65.33-1.33,97.63-.67C334.55,330,234,329,132.67,329c76.34-1,152-.33,228.31-.67,41.84,0,83.68.34,125.53-.66-43.31.66-85.89.66-129.21.33-74.87-.33-150.49,0-225.37-.67,77.08-1.32,154.9-1,232-2,39.64-.33,80,0,119.66-1-37.44,1-74.88,0-112.32,0-78.55.33-157.83.33-236.38-.33,120.39-.33,241.52.66,361.92-.67-119.66.67-238.59,0-358.25-.33,116.72,0,233.45.67,350.17-.33-118.19,0-235.65,0-353.84-.33,121.13-.67,243-1,364.12-2.33-118.93.33-238.59.33-357.51-.33H228.1c-28.63-.34-57.26.66-85.89-.34,118.93-1,238.59,0,357.51-1.66-119.66,0-238.58.33-358.24,0,116.72,0,234.18-.67,350.9-.67q-176.19-.49-352.37-.33c114.52-.33,228.31-1,342.83-1-60.2,0-119.66,0-179.61.06H297l-12.22,0h-6c-3.7-.09-8.1-.09-11.62,0h-22c-22.23-.12-43.52-.12-65.44,0h-6.49c-10.34,0-18.29-.05-23.55-.09l-5-.06a12.14,12.14,0,0,1-2.44-.09c-.11,0,0-.14.12-.14l210.11-1.13,6.25,0c42.61-.24,84.46-.57,127-.57-38.17,0-75.61,0-113.66-.13h-5.69c-102.79,0-224.9.07-227,.07-.1,0-.18,0-.18-.08h0s.08-.08.18-.08l274.2-1.58,5.44,0c14.06-.1,28.13-.14,42.22-.23l7-.05c4.26.11,9.4-.55,14.09-.13l7.05-.09H461.36c-18.8,0-37.69,0-56.2.1h-4.68l-79.71.05c-130.61.1-174.82.11-178.33,0h-.23a.07.07,0,0,1-.05-.06s0-.06.24-.07h0c.63-.05,2.84-.07,10.61-.14l28.91-.21,93.73-.59,55.39-.35,5.6,0c52.22,0,104.34-1,156.25-1.14l4.29-.05,6.24-.1-6.91,0q-146.05,0-292.64,0H199.2l-57.59.05c-.1,0-.19,0-.19-.08h0s.08-.08.18-.08l54.27-.49,5-.05c96.27-.73,191.7-2.06,287.87-2.73-98.37,0-196,0-294.38.11H139.78c-.1,0-.18,0-.18-.08h0c0-.05.08-.08.18-.08l49.74-.42,4.81,0c97.64-.15,196-2.81,293.65-2.48-100.58-1.33-200.42.66-301.3,0H141.86c-.1,0-.19,0-.19-.08h0s.09-.09.19-.09l40.24-.31,8.3-.07c103-.44,205.81-3.1,308.56-2.61,3.25,0,5.78,0,7.63-.06l-6.23-.06c-105.62-1.7-211.33.3-316.68.17h-5.09c-34.39,0-42.22,0-42.35-.05S136.18,299.23,136.18,299.21Z"/></g></g><g class="cls-24"><g class="cls-25"><path class="cls-10" d="M136.18,408.41s0-.07.23-.1h0c.81-.09,4.42-.17,20.68-.29,6.14,0,13.58-.09,22.44-.13l6.86,0c105.58,0,212-2.28,317.74-1.12-107.92-2.32-215.1.77-323.33.07h-7.57l-31.92.05a.25.25,0,0,1-.13,0s-.06,0-.06-.07,0-.07.19-.08h.26l1.41,0,4.87,0,18.15-.14,12.75-.09,7.1,0c103.92,0,208.16-3.87,312.4-2.32C394,401.71,289,404.8,184.93,404h-8l-34.11,0h0c-.1,0-.18,0-.18-.1s.08-.1.18-.1h0l29.74-.2,8.33-.06c94.92-.37,190.35-2.69,285-2.69-95.43-.39-190.13.77-285.63.66H137c-.1,0-.18-.05-.18-.1s0-.07.18-.08h.2c.36,0,1,0,2.35,0l7.31-.08,26.86-.26,5.84,0c70.55-.79,141.39-2.07,212.17-2.7l8.49-.07c36.33-.37,71.57-.37,107.54-.37-38.91-.38-77.08-1.16-116.35-.68l-8.5,0c-68,.26-135.95,1.2-204.22.81h-5.81c-31.24.05-34.59,0-34.7,0s-.05,0-.05-.07,0-.06.22-.09h0c.71-.09,3.65-.16,15.68-.3,4.75-.06,10.61-.12,17.55-.18l7.28-.07c59-.37,117.9-1.25,176.84-1.78l8.36-.07c33.57-.68,66.61-.29,100.37-.29-34.5,0-69.74-.78-104.39-.13l-8.77,0c-55.59.23-111.24.63-166.7.28H137.33c-.1,0-.18,0-.18-.09h0c0-.06.08-.1.18-.1l40.06-.08h8.26q34.46-.22,69-.36l8.64,0,8.65,0,8.65,0,8.65,0,8.61,0c14.64-.16,28.59-.16,43.31-.11l8.65,0,8.6,0c48.79.39,96.5-.38,145-.38-48.45-.39-96.9-1.16-145-.18-2.75,0-5.65,0-8.55,0l-8.72,0c-17.6.12-34.49.12-52.16.2l-8.7,0-8.71,0c-6-.14-11.17-.14-17.38.06l-8.7,0q-30.45.07-60.91.07h-7.72c-24.62,0-38-.08-38.29-.22a.1.1,0,0,1,0-.07c0-.14,0-.16,12.46-.24,6.2-.05,14.73-.09,25.94-.15l7,0q30.22,0,60.36-.14l8.58,0c81.65-.56,162.4-1.34,243.89-1.34-95.44,0-190.14,0-285.91,0h-33.7l-39.21,0h0c-.1,0-.18-.05-.18-.1h0c2.22,0,3.69,0,6-.14l6.33,0,30.61-.24,7.87-.05,8.54-.1,8.55-.09c87.8-.88,175.16-2,263.25-2-110.85-.77-221,.78-331.82-.38C253.8,387.79,369.78,387,486.51,387c-116-2.32-231.25.78-347.24-.38,104.25-.78,208.49-3.1,312.73-2.71-105-.77-209.22,1.16-314.19,0,74.87-1.93,149-1.16,223.9-3.87,33-1.16,65.33.39,98.37,0-109.38-1.54-218.77.78-328.15,0,68.27-1.16,137.28-.38,205.55-1.54,16.89,0,34.51-.78,52.13-.39-17.62-.39-36,.39-53.59.39-68.28,1.16-135.82-.39-204.09.77,68.27-1.55,136.55-.39,204.82-1.93,29.36-.78,59.46.38,89.56,0-30.1,0-60.2-1.16-90.29-.39-67.54,1.55-135.82-.39-203.35.77,67.53-2.32,135.07-1.54,203.35-3.09,17.62-.39,35.23-1.55,52.85-.77,30.83.77,60.93,0,91.76,0l-102-1.17c-13.21-.38-25.69.39-38.9.39-69,.78-138-.77-207,.78,118.92-3.1,237.11-1.17,356-1.94-31.57-.77-62.4,0-94-.77-17.61-.78-35.23,0-52.85,0-71.21.77-141.69-.78-212.9.77,24.23.39,49.19-1.16,73.42-1.55,56.52-.77,113.78,1.16,170.31,0,37.44-.38,75.61.39,113,.39-49.18.39-97.63-1.16-146.82-.77-69.74.77-139.48,0-209.22,1.16,121.13-3.87,242.26-2.71,363.39-3.09-119.67-1.17-240.06-.78-359.72,0,121.86-3.09,243-2.32,364.85-4.25q-182.79,0-365.58.39c112.32-2.32,223.9-2.32,336.31-3.83l7.66-.08,6.83-.08c6.71.12,13.32-.65,19.92-.27H413.84c-4.41,0-9.55,0-14.21,0h-9.76c-10.54-.08-20.09-.08-30,.06h-5.09l-5.15,0c-70.88.62-141.35-.16-212.56.23,67.54-1.55,134.34-1.55,201.91-2.27l5.46-.05c69.52-.64,135.22-1.28,154.29-1.67H254.79c-39.17-.26-78.81.9-117.72-.26,37.44-.39,74.88-1.16,112.64-1.14l8.07-.07,63.85-.56c62.85-.53,126.27-1.05,159.82-1.32H210.79c-23.8,0-47.29,0-70.78,0,5.87-.77,11,0,16.76-.47l5.28-.05c9.4-.06,21.87-.13,37.89-.2,35.64-.16,83.4-.3,129.6-.43,70.41-.21,142.81-.42,166.47-.68-53.22,0-352.06,0-355.45,0h0c-.1,0-.18,0-.18-.1h0c0-.05.08-.09.18-.09l360.54-1.65c-54.05-.4-355.76.15-359.24.16h0c-.11,0-.19-.05-.19-.1s.08-.09.18-.1h0L477,346.94H143.59c-.1,0-.19,0-.19-.1s.09-.09.19-.09c2.56,0,185.8-.16,289.75-.3-104.13,0-287.85,0-290.42,0a.25.25,0,0,1-.13,0,.07.07,0,0,1-.06-.07s0-.05.19-.08H143c.85-.12,4.84-.25,23.37-.49,13.78-.18,33.27-.39,59.58-.64,48.21-.46,109.38-1,163.35-1.42,45.9-.37,87.34-.72,107.83-.93H136.48c-.1,0-.18,0-.18-.1s0-.05.18-.07v0h.2c.94-.07,4.22-.11,15.66-.2,9.57-.07,23.64-.16,41.82-.26,30.62-.18,73.31-.39,126.89-.63,75.59-.34,152-.66,176.49-.76-53.3-.42-354.31.16-357.74.16h0c-.1,0-.19,0-.19-.09s.09-.1.19-.1l353.93-2c-50.25-.13-212.2,0-297,.07-46.25,0-53.28,0-54.39,0h0l-.2,0s0,0,0-.06,0-.06.19-.09h.14c1-.09,5.13-.16,21.9-.27,13-.09,31.47-.19,56.45-.31,45.85-.21,105.3-.43,157.75-.62l96.89-.37c-118.47.08-320.19.18-335.1,0h-.75v0h-.13c-.1-.05,0-.16.13-.16l310-1.1H138.32c-.1,0-.18,0-.18-.09s.08-.1.18-.1H504.43c.1,0,.18,0,.18.1h0c0,.05-.08.09-.18.09l-336.8,1.19c85.91.09,340-.09,343.07-.09a.28.28,0,0,1,.13,0s.05,0,.05.07,0,.06-.18.08h-.24c-.81.05-3.22.06-10.31.1l-28.59.14-93,.35c-86.05.32-189.46.7-224.17,1l42.4,0c218.39-.18,305.1-.17,311.93,0H509l.13,0c.11.05,0,.16-.13.16l-320.44,1.85c100.17-.17,310.05-.46,317,.09h.05a.22.22,0,0,1,.12,0c.11.05,0,.16-.12.16-3.22,0-284,1.15-353.61,1.69H510.63c.1,0,.18,0,.18.09s0,.07-.18.09h-.12c-.66.05-2.75.08-9.42.15-5.83.07-14.34.15-26,.25-22,.2-53,.46-85.78.73-92.52.76-215.76,1.78-241.47,2.35l175.36,0h176.2c2.27,0,3.32,0,3.81,0h.2v0c.21,0,.21,0,.21.08s0,.06-.2.08h-.17c-.47,0-1.51,0-3.85,0l-11.42,0-40.76.07-97.71.12H504.68c.1,0,.18,0,.18.09s-.08.1-.18.1l-325.91,2.28c94.57-.16,323-.48,330.57.06h.06l.13,0c.11.05,0,.17-.12.17L184.19,351H500c2.55,0,3.58,0,4,0h0c.27,0,.27,0,.27.08s0,.07-.2.1h0c-.68.09-3.45.15-14.8.24-8.91.08-21.75.15-39.27.22-32.58.14-75.25.27-120.43.4-53.66.16-108.39.32-145.08.5l-7.09,0c-10.2.42-20.48-.35-30.76.42,17.62,0,34.51,0,52.27-.17h4.59c103.84,0,299.54,0,302.35,0h0c.1,0,.18,0,.19.1h0c0,.05-.08.09-.19.09h0c-2.43,0-149.2,1.2-256.72,2.16l-5.45.05c-32.43.11-64.73.89-97,.89q50.65,0,101.38.07H504.33c.1,0,.18,0,.18.09s0,.06-.18.09h-.08c-.92.11-5.07.23-23.88.48-14.06.18-33.92.4-60.72.67-19.61.2-41.21.4-63.54.61l-8.41.08c-68.95,1-137.95.6-207,2.15,69.74-.39,139.48-.39,209.48-.43h10c9.52.06,18.33.06,28-.05h25.13l27.17,0H495l7.8,0c4.28,0,6.71.07,7.34.12h0a.31.31,0,0,1,.13,0c-124.32,2.3-248.39,1.53-372.45,4.24,122.59-.39,245.92-.78,368.52,0-121.86,1.54-243,1.16-364.85,3.86,120.39-1.54,241.52-.77,361.91,0-123.33,1.15-246.66-1.17-370,3.09,121.86-2.32,243.73-1.16,365.59-.39-91-.38-182.06.77-273.09-.39,24.22.39,48.45.78,72.68.78,64.6,0,129.2-.39,193.8.77-53.59,1.94-107.18-.77-160.77.39-63.87,1.16-128.47-.39-192.34,1.55,66.07-1.94,132.88-.39,199-.78,5.87,0,12.48-.39,19.08-.39,43.32-.77,87.36.78,130.68,1.17-114.53.77-229,.77-343.57,3.86,27.9,0,55.06-1.16,83-1.54,42.58,0,85.15,1.54,127.73.38,43.31-.77,87.36.78,130.67,1.16-35.23,0-69.74,0-105-1.16-16.89-.38-33,1.16-49.19,1.55-55.79.39-110.85-.77-166.64.77,107.18-1.16,213.62-.77,320.8.39-116.72-.77-232.71-.39-349.43.77,66.8.39,134.34-.38,201.14-.38,7.35,0,15.42-.78,23.5-.78,41.84-.38,82.95.78,124.79,1.16-39.64.78-79.28-.38-118.92,0-8.81,0-18.36,1.16-27.16,1.16-66.08,1.16-131.41,1.16-197.48,2.71,118.19,0,236.38-.77,354.58,0-110.85,0-221.71,1.93-332.56,2.71,111.59.38,223.91-1.16,335.49.38-120.39,0-240,1.55-360.45,1.94,120.4,1.54,240.79-1.16,361.19.38-95.44,0-191.61,1.55-287,2.28l-8.35.05q-8.4.06-16.79.09l-6.4,0-17.11.14h46.31c97.73-.27,195.37-1,293,.12-84.43.39-168.11,1.16-252.28,1.64l-8.72,0q-30.51.09-61.06,0l-7.4,0c-14.25.07-25.08.13-31,.19,6.45,0,18.89.08,35.33.08l7.23,0q30,.07,60,0h8.58c5.53-.11,11.4-.11,17.16,0l8.61,0,8.59,0c16.69,0,34.31,0,51.55-.18l8.63,0,8.46,0c50.82-.16,100.74-.55,151.4.23-48.45.38-96.91,0-145.1.53l-8.34.08-8.63.07-8.64.06c-6.22,0-11.35,0-17.27.13l-8.64.06L304,395l-8.63,0-8.63.05q-34.51.17-68.94.07,40,.15,79.77,0l8.85,0,8.86,0,8.84,0,8.85,0,8.85,0,8.85,0,8.85,0c48.42-.63,96.14-.24,144.59.15-46.25.38-91.77.38-138.24.68l-8.46.07c-59.46.48-118.88,1.15-178.51,1.58l-7.58.07c-12.08.12-21.4.22-27,.31l32,0h7.41c68.21,0,136.59-.76,204.86-.87l8.81,0c37.71.15,75.88.15,113.32.92-33.77.78-66.8,0-100.91.44l-8.58.07c-74.41.65-148.81,2.14-223.33,2.84l-6.53.06-16.64.16H183c107.47.69,213.92-2.41,321.1.3-108.65-1.16-217.3,1.16-325.95,2.32,108.65,0,217.3-2.71,326,0-106.45-1.16-212.9,1.55-319.28,2.52l-6,0-5.71.05,7.61,0c108.33.13,217.71-2.58,326.53,0,1.34,0,2.06.05,2.11.08a.1.1,0,0,1,.06.07c0,.07,0,.11-1.51.14-107.27-1.33-214.45,1.37-321.45,1.14l-7.37,0c-16.77.08-29.64.17-36.67.26,6.9,0,19.37,0,35.49,0h8.3c106.51.73,212.22-2.37,318.4-.13l4.36.06a11.65,11.65,0,0,1,1.58.08.09.09,0,0,1,.06.07c0,.07,0,.1-2,.15l-4.8.07c-105.37-1.12-211.81,3.14-317.38,3.1l-6.46.06-16.8.16h28c103,.59,205.07-1,307.8,0,3.23,0,5.65,0,7.3,0h2.5c.1,0,.18,0,.18.09s-.07.1-.17.1l-2.54,0c-1.66,0-4.11,0-7.36.05-101.17-.07-201.74,2.25-303.06,3l-7.95.08-28.34.28h36.14c100.73.45,201.31-.71,301.8,0h9.79c.1,0,.18,0,.18.09s-.08.1-.18.1l-2.5,0-7.2.07c-96.91.16-193.82,2.48-290.85,3.08L198,419l-35.89.38,31.46,0h9.11c95.87-.26,192-1,287.91-.05l8.67,0c4.72,0,7.33.06,7.4.1a.1.1,0,0,1,.06.07c0,.13,0,.22-14.49.4L485,420c-49.13,1.05-98.31.27-147.4,1.24l-8.95.07-53,.38c-56.06.4-106.08.76-125.12,1,24.18.07,98.22,0,170.23-.06l64.32,0H392c19.94,0,39.63.06,59.45,0l14.88,0,15,0h5.27c11.43,0,17.19,0,18.75.08h.3v0h.13c.11.06,0,.16-.12.17l-15.86.1-6.56.05c-6.24,0-11.37,0-17.3.06l-5.85,0q-5.88,0-11.78.13l-5.21,0-5.36,0c-5.52.13-11.39.13-16.93.11l-5.89,0-244,1.64c68.39,0,139.66-.07,198.85-.08h5.19q60.63-.06,121.17.06l5.95,0,3.54,0h.9v0h.13c.05,0,.07.07,0,.11a.24.24,0,0,1-.17.06h-2.59l-7.43.05c-47.35.39-94.33.77-142,.88l-6.65.05-198.76,1.23c5.34.05,13.74.08,24.45.1h6.71c21.46.05,43.49.05,64.53,0H280.8l21.48,0H324c59.69.15,118.42-.62,177.92-.19,1.25,0,2,0,2.39,0h.11l.16,0s.06,0,.06.07,0,.06-.24.08h0c-.42,0-1.44,0-4,.06-101.95.07-204,.85-306,1.23,103.51,0,206.29,0,309.81,0H507c.1,0,.18.05.18.1s0,.06-.18.08v0h-.13c-.42,0-1.41.06-3.8.1-64.23.51-128.1.51-192,.89,64.6.39,128.47-.77,193.07.39q-177.28,1.16-354.58,1.55c118.19.77,237.12,0,355.31,0-85.89,1.16-171,.38-256.94.38q128.84.58,257.67.39c-116,1.93-232.71,1.93-348.7,2.71,115.26-.39,231.25,1.16,346.5,0-71.94,1.16-143.15,1.54-215.09.77,72.68,1.16,146.09.39,218.76,0-78.55,1.93-156.36,1.16-234.91,1.16,79.28.77,157.83.39,237.12,0-124.07,2.71-248.13,2.32-372.2,3.48,12.48.39,25.7.39,38.17.39,55.06.38,110.86,0,165.91.77,56.53.77,113.06-.39,169.58-.77-83,1.16-165.17,2.32-248.13.77q-35.24,0-70.47,1.16c-18.35.39-36.71-.77-55.06-.39,65.34,1.55,131.41-.38,196.74.78,58.73,1.16,116.73,0,175.46-.39-91.77,1.55-184.27,1.55-276,1.16-19.09,0-38.91.39-58,.39,55.06-.39,109.39,0,164.45.77,56.52.39,113.78-.77,170.31-.77-124.06,3.48-247.4,3.09-371.46,3.48,66.8,1.93,132.87,0,199.68,1.16,56.52.77,113-.78,169.58-.78-93.23,1.55-185.73,1.17-279,1.94-30.84.39-62.41.39-93.24.39,12.48.38,24.23.38,36.71.77,16.15.39,33-.39,49.18-.39,41.11-.77,82.22,0,123.34.39,52.85.39,106.44-1.16,159.3-.39-121.87.78-243.73.39-365.59,0,11,.78,22.76.39,33.77.39,20.55.77,41.84-.39,62.4,0,91.76.77,183.53-.39,275.29,0l-8.71.21-8.7.2-8.72.19c-113.24,2.34-227,1.44-340.19,2.88,92.29.29,185,.14,277.4,0h89.65c-27.16.39-55.05.39-82.45.71l-8.77,0c-64.34.24-128.78.14-192.88.41,63.6,0,126.84.18,190.13.2h8.6c26.64.57,53.81-.59,80.23.19-30.09.38-59.46.38-89.54.57l-8.82,0c-79.29.26-158.57.11-237.86.93,78.24,0,156.11-.39,234-.39h8.66c31.86,0,64.16,0,95.73.78-46.25.77-93.23.39-139.74,1.05l-8.68.06q-78.12.54-156.21,1.12l-8.69.08c-11.89-.38-22.91.4-34.76.31l-8.7.09H336.37c54.7,0,109,0,164.09.77C385.2,464,270,463.2,154.69,464.36c116-.38,232,.77,348,.77-119.66,2.33-239.32,0-359,1.16,118.19-.77,236.38,1.17,354.57.39-117.45,1.16-234.18-.77-351.64,0,118.93-.77,237.86,1.94,356.78.39-37.44.77-74.14,1.16-111.58.77-83.69-.77-166.65-.38-250.33,1.55,118.92-1.93,237.11,2.32,356,0-30.1,1.55-60.2,2.32-90.29,1.55-87.37-1.16-175.46-.39-262.82,1.16,15.42,0,30.1-.39,45.52-.78,104.24-1.54,208.48,3.1,312.73,1.16-22,.78-44.05,1.55-66.07,1.55-97.64.39-196-2.32-293.65,0,98.37-1.55,196.75,1.55,295.12,1.16,22,0,44-.39,66.07-1.55-30.1,1.55-60.2,2.71-90.3,2.32-91.76-.77-182.79-3.09-274.56-.38,22,.77,44-1.16,66.07-.78,98.37,0,197.48,3.48,295.85.78-43.31.38-86.62,3.09-129.94,1.54-13.21-.38-25.69.39-38.91,0-55.79-.77-112.31-2.32-168.11,0,10.28-.38,19.82-.77,30.1-.77,103.51-.39,206.29,3.48,309.8.77-55.8,2.71-111.59,1.55-167.38,1.94,56.52,0,113.79.38,170.31-1.16-29.36.77-59.46,1.16-88.82,2.32-25,.38-49.19-.78-74.15-.39-61.66.77-124.06-3.48-185.73.77,11-.38,22-1.16,33-1.16,85.64-.32,170.78,1.78,256.25,1.59l8.55,0c11.22,0,23,0,34.2-.28q4.31,0,8.59-.12l-8.59.19c-17.11.59-34.72.59-51.36.69l-8.57,0c-79.94.44-159.87-1.1-239.81-1.7,80.51.6,161,2.61,241.52,2.2l8.62-.06c17.08-.59,34.7-.2,51.73-.76l8.66-.22-8.85.23c-20.51.55-41.07.55-61.5,1.2l-8.78.12c-61.45.76-122.75.46-184.42-1.16-33-.78-66.07,1.93-99.1,2.32,22,1.16,43.31-1.55,64.6-1.55,68,1.05,135.73,1.92,203.55,1.89h8.81c29.16,0,59.26-.34,88.63-.73-30.84.39-62.4.78-93.48,1.36l-8.45.11c-50.89.62-101.72.85-152.81-.31-36.71-.77-73.41,1.94-110.12,2.71,17.62,0,35.24-.77,52.86-.77q70.47,0,140.64.16h8.78c56.13,1,111.19-.17,167,.21-120.39,3.48-240,0-360.45,3.87,118.93-1.16,237.12.77,356-.39-121.13,2.32-243-1.16-364.12,1.16,121.13-.77,243,1.94,364.12,0-25.7.78-52.13,1.55-77.82,1.16-93.23-.38-186.46-.38-279.7,1.55,118.2-2.71,237.12,1.93,355.31-.39-16.88.39-33,.78-49.92.78-102.77,0-205.55-1.94-308.32.38,121.13-2.32,243,1.16,364.12-.77-32.3.77-64.6,1.93-96.91,1.55-87.35-1.55-175.45-1.55-262.81,0,118.19-3.1,235.65,2.32,353.84-.78-30.83,1.16-60.93,2.71-91.76,1.94-90.3-2.32-179.86,0-270.15,0,91.76.38,183.53-1.55,275.29,1.16,31.57.77,62.4-2.32,93.23-1.16-24.22.77-47.71,1.93-71.94,1.93H177.45c80,.77,160-.39,240.05,1.55,30.1.77,59.46-1.55,89.56-1.55-36,.77-71.21,2.71-107.18,2.32-82.22-1.16-164.44-.39-246.66.77,93.23-1.93,185.73,1.17,279,1.17,24.23,0,48.45-1.17,72.68-1.55-38.17.77-76.35,3.87-114.52,1.55,38.91,2.7,78.55-1.94,117.46-.78-49.92.78-99.11,2.71-149,.39,49.19,2.32,98.37.77,147.56-.39C454.21,505,402.09,504.19,350,503.81c52.86,1.16,105.72.77,158.57-.39-112.32,4.26-225.37.77-338.42,1.94,83.69,0,166.64.38,250.33,1.16,27.16.38,54.32-1.16,81.48-1.16-25,1.16-50.65,1.54-75.61,2.32-13.95.38-28.63-.39-42.58-.78-20.55-.38-40.37.78-60.93.78-60.93,0-121.13,0-182.06,1.54,122.6-2.32,244.46,1.55,367.06-.38-42.58,0-84.43,1.54-127,1.54-81.49.39-162.24-1.54-243.73,1.94,13.22-.39,25.7-1.16,38.91-.78q165.18.58,330.35,0c-111.59,1.55-223.9.78-335.49,1.16-13.21,0-25.69.78-38.91,1.16,124.8-1.54,250.33,0,375.13-.77-123.33,1.93-246.66,1.16-370,3.87q181.7-.59,363.12-.51l5,0c1.22,0,2,0,2.41,0h.21l.13,0c.11.06,0,.17-.12.17h-2.48l-6.22,0c-118.32,1-235.78,1.35-354,2.89,108.65-.38,216.56,0,324.9-.5h7.83c22.19,0,32.71.05,32.9.15s.06,0,.06.07,0,.16-7.77.24c-4.72,0-11.77.1-20.94.15l-30.08.14-7.34,0c-83,.11-166,.88-248.91.5,77.08.38,153.43.38,230.83.21h79.65c.1,0,.18.05.18.1s0,.06-.18.08v0h-.23c-.49,0-1.55,0-3.85.06l-11.54.12c-9.43.1-23.29.23-41.2.39l-24.84.23-6.89.06c-83.18,1.06-165.4,1.06-248.36,2.22,54.33,0,109.38,0,164-.23h17.1c3.94-.15,7.61-.15,11.29,0h22.15c3.53-.13,7.2-.13,10.8,0H400c61.55,0,109.78.06,110.19.27a.1.1,0,0,1,0,.07c0,.15,0,.26-16.07.42-9.59.1-23.69.2-41.91.3-29.72.16-70.8.32-122.15.47l-5,0-7.92,0-7.93,0c-20.92.6-40.74.22-61.3.22,19.82,0,39.64,0,59.11-.07H322.3c52.89,0,95,0,125.26,0l41.28,0,11.56,0c2.26,0,3.32,0,3.83,0h.26v0c.19,0,.19,0,.19.08s-.08.09-.19.1c-2,0-117.2.78-218,1.57l-5.91,0c-3.3.13-7.71.13-11.7.09l-5.78,0c-52.49.42-90.85.8-67.89.58,3,0-5.95.06-8.79.09l-8.22.08-7.61.08c-12.14.13-21.51.24-27.17.34,48,0,362.75,0,366.19,0a.5.5,0,0,1,.13,0c.07,0,.06.11,0,.14a.22.22,0,0,1-.12,0h0q-.37,0-1.56.06s.05,0,.05.07h0c0,.05-.08.09-.18.09-37.58.08-367.23.71-368.63,0-.07,0-.07-.11,0-.14s.81,0,3-.06h-3.86c-1.25,0-1.25,0-1.25-.1,1.42-.11,2.15-.11,3.87-.23l4.67-.09,7.41-.1,17.59-.2L178,528c5.36-.18,11.23-.18,16.71-.16l5.85-.06c16-.15,34.94-.31,56.74-.49l8.31-.06c5.84-.19,11.72-.19,17.4-.14l9.09-.07,28.83-.23c64.53-.49,129.64-.94,162.23-1.16-33.93,0-103.22,0-170.7,0h-5.8c-55.76-.12-110.82-.12-166.61-.12,62.4,0,124.8-.78,186.85-.46l6.29,0c81.61-.25,161.1-.58,174.75-1-12.27-.18-77.13-.2-148.87-.16H334.22c-64.27,0-128.14,0-192.74,0q137.64-1.15,275.34-2.4l5.16,0c28.78-.26,52.92-.48,67.89-.63H435c-99.69.37-198.79-.4-298.63.37,103.51-1.55,207.75-.39,311.47-1.48l8.11,0c23.71-.1,41.68-.2,49.84-.3-6.59,0-19.54,0-36.8,0h-7.65c-107.67.31-214.86-.07-322.77.31,118.19-2.32,235.65-1.16,353.84-3.09-118.93.39-238.58.39-357.51.39,118.93-3.48,237.85-1.55,356.78-3.87q-180.6,1.15-361.19.39c36-1.55,72.68-1.16,108.65-1.16,76.35-.39,152,0,228.31-.39-112.32,1.16-224.64-1.16-337,.39,113.06-3.87,226.84-.78,340.63-3.1-113,1.55-226.1-1.54-339.16,0,102-2.7,203.35-1.16,305.39-2.32,18.36,0,36.71-.77,55.06-1.54-29.36.77-58.73,1.93-88.09,1.54q-136.55-2.31-273.09-.77c89.56-2.32,179.12-1.55,268.68-.39,27.9.39,55.8-1.55,83.69-1.55-13.95,0-27.89.78-41.84.78C338.22,505,234,503,130.46,503.81c100.58-1.55,201.88.38,302.46.38,20.55,0,41.11-1.15,61.66-1.54-18.35,0-36.7,1.16-55.05,1.16-102,0-204.82-2.32-306.86-.78,19.08,0,38.9-1.54,58-1.16-19.82-.77-38.91,1.55-58.73.78,89.56-1.55,178.39-.78,268,.77,22,.39,44.78.39,66.81-1.16a224.21,224.21,0,0,1-27.9.78c-101.31-.78-202.61-1.55-303.92-1.17,73.41-2.32,147.56-.77,221-1.93,33.77-.77,67.53,2.71,101.3,0-107.91.39-215.83-1.93-323.74-.77,103.51-1.94,206.29,0,309.8-.78,21.28-.38,41.84-.77,63.13-1.93-123.33,2.71-247.4,0-370.73.39,93.24-.39,187.2-1.94,280.43,0,13.22,0,26.43,0,39.65-.78-20.56.78-41.85,0-62.41-.38-85.15-.78-170.31,0-255.46-.39,94-1.16,188.66-1.16,282.63.39,23.49.38,47.72-1.16,71.21-1.16-13.22,0-25.7.77-38.91.38-104.25-.77-209.22,0-313.47-.77,46.25,0,92.5-1.55,138.75-.39-47.72-1.16-94.7,1.16-142.42-.38q147.55-1.17,295.12-1.16c-96.91,0-194.54-.78-291.45-.78,36-.38,72.68-1.54,108.65-1.16-36.7-.38-72.68,1.16-109.38,0,119.66-1.54,238.59-1.54,358.25-3.48-60.94,0-121.87.78-182.67.62l-8.35-.05q-29.29-.18-58.58-.95c-24.47-1-48.94-.33-73.84.59l-7.48.28c-4.57.67-9-.1-13.13.27-1.91,0-3.83,0-5.76-.08-3.85-.1-7.71-.29-11.38-.68,19.82.39,38.91-1.16,58-1.55,70.47-1.15,140.53.08,210.49-.38l8.67-.05c20.16-.34,40-.34,59.8-1.11-19.82.39-40.38.39-60.08.5l-8.76.05c-52.64.24-105.14,0-158-1.33-27.9-.77-55.79-.38-83.69.78-9.54.77-18.35,1.16-27.9-.39,22,1.16,44.79-1.54,66.81-1.54,76.37,0,152.74,1.46,229.11.51l8.46-.11c17.17,0,34.05-.79,50.93-1.18-16.88.39-34.5.78-51.1.85l-8.51.08c-65.32.56-130.74-.31-196.59-2.09-26.43-.39-52.12.77-78.55,1.93-6.61,0-13.95.39-20.56-.77,22.76,1.55,45.52-1.55,68.28-1.55,80.77.66,162.08,2.73,243,1.88l8.37-.09c10.69-.63,22.44-.24,33.45-.63-8.81,0-17.62,0-26.43.25l-8.81.07c-70.48.6-141,.79-212.15-1.86-35.24-1.16-69.74,2.32-104.25,1.54,30.83,0,62.4-2.7,93.24-2.32,77.81,1.16,156.36,2.71,234.18.39-15.42.39-30.1.77-45.52.77-88.09.39-175.45-4.64-264.28-.77a135,135,0,0,1-17.62-.77c19.09.77,37.44-.78,56.53-.78,102-.77,204.82,4.26,306.86,0-94.7,3.1-190.14-.38-284.84-1.16-16.88,0-33,.78-49.92,1.16-9.54.39-19.08,1.55-28.63-.38,99.11-2.32,197.48,1.16,296.58.38,17.62,0,36-1.16,53.59-1.16-21.29,0-43.31,1.55-64.6,1.16-94.7-1.16-189.4-2.32-284.1-1.93,94.7-1.93,190.14-.77,284.84.77-94.7-1.93-188.67-2.7-283.37-1.93,84.42-1.93,168.11-1.55,252.53-.39-85.15-1.93-171-.77-256.2-1.54,94-1.55,187.93-3.1,281.9-.78,13.21.39,25.69-.77,38.91-.77C350,470.16,245,469,139.27,469.39c97.64-1.93,194.54-2.32,292.18-1.16-96.9-2.71-193.81,0-290.71-1.55,5.87.39,11.75-.39,17.62-.39-7.34-.38-14.68,1.16-22-.38,119.66-.39,239.32.39,359-.78q-178.4,0-356.78-.77C258.93,464,378.59,462.81,499,462c-56.53-.39-113-1.16-169.37-.64l-8.75,0q-48.12.1-96.26.12h-8.75c-20.79.5-40.62-.27-61.28-.17l-8.75-.05-8.76-.05L163,461l8.64-.08,8.63-.07,8.63-.08q86.31-.72,172.4-1.23l8.62-.06c36.58-.17,73.29-.17,110-.94H395.55c-86.65,0-173.51-.09-260-.38Q274,457.74,412.47,457l8.62,0c25.78.09,51.47-.68,77.16-.29-25.69,0-51.38-.78-76.74-.38h-8.62c-91.93,0-184.09.88-275.82,0,96.9,0,194.54-.39,291.44-.77-97.63,0-194.54.77-292.17-.78,122.59-.38,245.92-.38,368.52-3.09-124.8,1.16-248.86-.39-373.66,0,3.67-1.16,8.07,0,11.74-.39-4.4,0-8.07.39-12.48-.38,117.46-1.16,234.19-.39,351.64-1.94-71.21-.39-142.41,1.16-213.62,0-46.25-.77-93.24.77-139.49-.39,75.62-.77,150.5-.77,226.11-1.54,50.66-.78,101.31-.39,152-2.32-82.95.39-165.91,1.54-248.86,0-42.58-.78-85.16.77-127.74-.39,69,.78,138-1.55,207.76.39,32.3,1.16,65.33-1.55,97.63-.78-101.3.39-201.88-.77-303.18-.77,76.34-1.16,152-.39,228.31-.77,41.84,0,83.68.38,125.53-.78-43.31.78-85.89.78-129.21.39-74.87-.39-150.49,0-225.37-.77,77.08-1.55,154.9-1.16,232-2.32,39.64-.39,80,0,119.66-1.16-37.44,1.16-74.88,0-112.32,0-78.55.38-157.83.38-236.38-.39,120.39-.39,241.52.77,361.92-.77-119.66.77-238.59,0-358.25-.39,116.72,0,233.45.77,350.17-.39-118.19,0-235.65,0-353.84-.38,121.13-.78,243-1.16,364.12-2.71-118.93.39-238.59.39-357.51-.39H228.1c-28.63-.38-57.26.78-85.89-.38,118.93-1.16,238.59,0,357.51-1.94-119.66,0-238.58.39-358.24,0,116.72,0,234.18-.77,350.9-.77q-176.19-.59-352.37-.39c114.52-.38,228.31-1.16,342.83-1.16-60.2,0-119.66,0-179.61.07H297l-12.22,0h-6c-3.7-.1-8.1-.1-11.62,0h-22c-22.23-.14-43.52-.14-65.44,0h-6.49c-10.34,0-18.29-.05-23.55-.1-2.11,0-3.78,0-5-.07a10.19,10.19,0,0,1-2.44-.1c-.11-.06,0-.17.12-.17L352.49,426l6.25,0c42.61-.27,84.46-.66,127-.66-38.17,0-75.61,0-113.66-.15h-5.69c-102.79,0-224.9.09-227,.09-.1,0-.18,0-.18-.1h0c0-.05.08-.09.18-.1l274.2-1.83,5.44,0c14.06-.11,28.13-.16,42.22-.26l7-.06c4.26.13,9.4-.64,14.09-.15l7.05-.11H461.36c-18.8,0-37.69,0-56.2.11h-4.68l-79.71.06c-130.61.12-174.82.13-178.33,0h-.23a.1.1,0,0,1-.05-.07s0-.07.24-.09h0c.63-.06,2.84-.09,10.61-.16,6.49-.07,15.95-.15,28.91-.25,24.31-.19,58-.44,93.73-.69l55.39-.4,5.6,0c52.22,0,104.34-1.17,156.25-1.33l4.29-.06c2.6,0,4.7-.07,6.24-.11l-6.91,0q-146.05,0-292.64,0H199.2l-57.59.06c-.1,0-.19-.05-.19-.1h0s.08-.1.18-.1l54.27-.57,5-.05c96.27-.86,191.7-2.4,287.87-3.18-98.37,0-196,0-294.38.13H139.78c-.1,0-.18,0-.18-.1h0c0-.05.08-.09.18-.09l49.74-.49,4.81-.05c97.64-.17,196-3.26,293.65-2.88-100.58-1.55-200.42.78-301.3,0H141.86c-.1,0-.19,0-.19-.09h0c0-.05.09-.09.19-.09l40.24-.37,8.3-.07c103-.52,205.81-3.61,308.56-3,3.25,0,5.78,0,7.63-.07l-6.23-.07c-105.62-2-211.33.34-316.68.2h-5.09c-34.39,0-42.22,0-42.35,0A.1.1,0,0,1,136.18,408.41Z"/></g></g><polygon class="cls-26" points="301.17 282.92 338.78 282.92 356.41 314.86 283.54 314.86 301.17 282.92"/><rect class="cls-27" x="222.27" y="176.41" width="195.41" height="114.61" rx="9.07" ry="9.07"/><rect class="cls-28" x="228.29" y="181.7" width="183.37" height="93.12"/><path class="cls-29" d="M406.67,284.18a1.18,1.18,0,1,0-1.18-1.18A1.18,1.18,0,0,0,406.67,284.18Z"/><path class="cls-29" d="M402.07,284.18a1.18,1.18,0,1,0-1.18-1.18A1.18,1.18,0,0,0,402.07,284.18Z"/><path class="cls-29" d="M397.47,284.18a1.18,1.18,0,1,0-1.18-1.18A1.18,1.18,0,0,0,397.47,284.18Z"/><path class="cls-29" d="M211.8,305.2H428.16A4.84,4.84,0,0,1,433,310h0a4.84,4.84,0,0,1-4.82,4.83H211.8A4.84,4.84,0,0,1,207,310h0A4.85,4.85,0,0,1,211.8,305.2Z"/><path class="cls-30" d="M286.17,305.2h142A4.84,4.84,0,0,1,433,310h0a4.84,4.84,0,0,1-4.82,4.83H287.22Z"/><path class="cls-31" d="M417.68,230.89V282a9.1,9.1,0,0,1-9.07,9.07h-124l-9.48-86.74,7.24-22.58,32.28-1.28Z"/><path class="cls-32" d="M433,310a4.84,4.84,0,0,1-4.82,4.83H211.8A4.84,4.84,0,0,1,207,310Z"/><polygon class="cls-33" points="282.38 181.7 317.27 181.7 411.66 227.94 411.66 274.82 282.85 274.82 275.14 204.28 282.38 181.7"/><path class="cls-34" d="M433,310a4.84,4.84,0,0,1-4.82,4.83H287.22L286.7,310Z"/><path class="cls-35" d="M180.87,277.23l12.42-60-6.79-1.4L180.87,243v13l8.22-39.69,1.61.33-9.83,47.51ZM168.45,303l6.79,1.4,5.63-27.19v-13l-8.21,39.7-1.62-.34,9.83-47.51V243Z"/><path class="cls-35" d="M286.55,176.09,284,169.66l-43,17.26v2.84l44-17.65.62,1.53L241,191.54v2.85ZM241,186.92l-45.59,18.29,2.58,6.44,43-17.26v-2.85L197,209.2l-.62-1.54L241,189.76Z"/><circle class="cls-36" cx="296.11" cy="184.16" r="6.81"/><circle class="cls-37" cx="275.53" cy="150.07" r="2.16"/><path class="cls-35" d="M275.53,150.07a27.39,27.39,0,0,1,6.85-2.95l9,11.09c9-.34,18.83,5.13,24.9,14.76-6.57,3.31-13.36,7.06-20.21,11.19s-13.32,8.4-19.31,12.67c-5.7-9.86-6-21.06-1.47-28.9l-5.6-13.17A27,27,0,0,1,275.53,150.07Z"/><path class="cls-38" d="M185.9,205.56a7.29,7.29,0,1,1,.1,10.32A7.3,7.3,0,0,1,185.9,205.56Z"/><path class="cls-36" d="M274.35,165.63c2.89-4.24,10.35-8.5,15.56-9.27l1.51,1.85c-5.05.27-14.09,5.42-16.09,9.72Z"/><circle class="cls-37" cx="191.11" cy="210.66" r="5.39" transform="matrix(1, -0.03, 0.03, 1, -5.42, 5.04)"/><path class="cls-39" d="M173.78,290a17.37,17.37,0,0,1,17.38,17.37H156.41A17.37,17.37,0,0,1,173.78,290Z"/><line class="cls-40" x1="257.78" y1="205.52" x2="307.78" y2="205.52"/></g></g></g></svg>