<svg xmlns="http://www.w3.org/2000/svg" viewBox="0 0 206.9 186.93"><defs><style>.cls-1{font-size:27px;font-family:MyriadPro-Regular, Myriad Pro;}.cls-2{fill:#2b292a;}</style></defs><title>Asset 1</title><g id="Layer_2" data-name="Layer 2"><g id="OBJECTS"><text class="cls-1" transform="translate(67.74 99.56)">HOME</text><path class="cls-2" d="M173.83,126.88c-.39,1.06-.81,2.12-1.25,3.16l1.85.78c.45-1.06.88-2.15,1.29-3.24Z"/><path class="cls-2" d="M152.71,157.23l1.31,1.52c.87-.75,1.74-1.54,2.59-2.34L155.23,155C154.4,155.73,153.56,156.5,152.71,157.23Z"/><path class="cls-2" d="M162.13,147.46l1.57,1.26c.73-.9,1.44-1.83,2.12-2.76l-1.62-1.19C163.54,145.68,162.84,146.58,162.13,147.46Z"/><path class="cls-2" d="M147.38,161.44l1.17,1.64c.94-.68,1.88-1.39,2.78-2.1l-1.24-1.58C149.2,160.1,148.29,160.79,147.38,161.44Z"/><path class="cls-2" d="M157.64,152.56l1.45,1.39c.8-.83,1.6-1.7,2.36-2.56l-1.51-1.33C159.2,150.9,158.43,151.74,157.64,152.56Z"/><path class="cls-2" d="M166.15,142l1.67,1.12c.64-1,1.27-2,1.86-2.95l-1.72-1C167.38,140.08,166.77,141,166.15,142Z"/><path class="cls-2" d="M54.51,160.06c.89.74,1.82,1.46,2.74,2.15l1.2-1.61c-.9-.67-1.8-1.38-2.67-2.09Z"/><path class="cls-2" d="M169.64,136.16l1.77,1c.55-1,1.08-2.06,1.58-3.11l-1.81-.87C170.69,134.15,170.17,135.17,169.64,136.16Z"/><path class="cls-2" d="M172.49,56.69l1.85-.79c-.45-1.06-.94-2.13-1.45-3.18l-1.8.88C171.58,54.61,172.05,55.65,172.49,56.69Z"/><path class="cls-2" d="M60.09,164.24c1,.65,1.95,1.28,2.93,1.89l1-1.71c-1-.59-1.92-1.21-2.85-1.85Z"/><path class="cls-2" d="M171.3,49.62c-.55-1-1.13-2-1.73-3l-1.72,1c.58,1,1.15,2,1.69,2.95Z"/><path class="cls-2" d="M116.37,10.6c-1.14-.19-2.3-.35-3.46-.48l-.22,2c1.12.13,2.25.28,3.36.46Z"/><path class="cls-2" d="M32.55,61.7c.37-1.07.77-2.14,1.18-3.19l-1.87-.74C31.44,58.85,31,60,30.65,61Z"/><path class="cls-2" d="M95.7,12l-.18-2c-1.16.11-2.32.25-3.47.41l.28,2C93.45,12.21,94.58,12.08,95.7,12Z"/><path class="cls-2" d="M82.37,14.47l-.55-1.93c-1.11.32-2.23.67-3.33,1l.64,1.91C80.2,15.12,81.29,14.78,82.37,14.47Z"/><path class="cls-2" d="M39.88,46.42l-1.7-1.07c-.62,1-1.22,2-1.79,3l1.74,1C38.69,48.35,39.28,47.37,39.88,46.42Z"/><path class="cls-2" d="M36.52,52.32l-1.79-.91c-.52,1-1,2.09-1.5,3.15l1.83.83C35.52,54.36,36,53.33,36.52,52.32Z"/><path class="cls-2" d="M49.32,155.4c.83.81,1.68,1.61,2.54,2.39l1.34-1.5c-.83-.75-1.67-1.53-2.47-2.33Z"/><path class="cls-2" d="M123.2,12c-1.12-.28-2.26-.55-3.4-.78l-.41,2c1.11.23,2.22.49,3.31.77Z"/><path class="cls-2" d="M129.87,14.05c-1.09-.39-2.2-.76-3.31-1.09L126,14.88c1.08.33,2.17.69,3.23,1.06Z"/><path class="cls-2" d="M43.76,40.85l-1.59-1.23c-.71.92-1.4,1.87-2.06,2.82l1.64,1.15C42.4,42.66,43.07,41.74,43.76,40.85Z"/><path class="cls-2" d="M102.49,11.64v-2c-1.16,0-2.33,0-3.49.09l.1,2C100.22,11.67,101.36,11.64,102.49,11.64Z"/><path class="cls-2" d="M109.44,9.81c-1.16-.08-2.33-.13-3.49-.16l0,2c1.13,0,2.27.08,3.39.15Z"/><path class="cls-2" d="M58.19,26.53,57,24.92c-.93.7-1.85,1.43-2.74,2.17l1.28,1.54C56.39,27.91,57.29,27.2,58.19,26.53Z"/><path class="cls-2" d="M148.37,23.72c-1-.67-1.92-1.33-2.89-2l-1.09,1.69c.94.61,1.89,1.25,2.81,1.91Z"/><path class="cls-2" d="M153.85,28c-.88-.76-1.78-1.5-2.69-2.22l-1.24,1.58c.88.7,1.76,1.42,2.62,2.16Z"/><path class="cls-2" d="M142.51,19.93c-1-.58-2-1.15-3-1.68L138.52,20c1,.52,2,1.07,3,1.64Z"/><path class="cls-2" d="M163.56,38c-.73-.9-1.49-1.79-2.26-2.66l-1.5,1.33c.75.85,1.49,1.72,2.2,2.59Z"/><path class="cls-2" d="M157.49,34.21l1.44-1.4-.82-.83c-.55-.55-1.11-1.09-1.67-1.62l-1.38,1.46c.55.52,1.09,1,1.63,1.58Z"/><path class="cls-2" d="M136.33,16.7c-1.05-.49-2.13-1-3.2-1.4l-.76,1.86c1,.43,2.09.89,3.11,1.36Z"/><path class="cls-2" d="M63.79,22.69,62.73,21c-1,.61-2,1.25-2.92,1.91l1.13,1.65C61.87,23.91,62.83,23.28,63.79,22.69Z"/><path class="cls-2" d="M75.93,16.63l-.72-1.87c-1.08.42-2.17.87-3.23,1.34l.81,1.83C73.83,17.48,74.88,17,75.93,16.63Z"/><path class="cls-2" d="M167.7,43.65c-.65-1-1.32-1.93-2-2.86L164.07,42c.67.91,1.33,1.85,2,2.78Z"/><path class="cls-2" d="M53,30.86,51.6,29.37c-.85.78-1.7,1.59-2.53,2.41l1.42,1.42C51.29,32.41,52.12,31.62,53,30.86Z"/><path class="cls-2" d="M69.72,19.38l-.9-1.8c-1,.52-2.07,1.07-3.08,1.63l1,1.75C67.7,20.41,68.71,19.88,69.72,19.38Z"/><path class="cls-2" d="M48.13,35.65l-1.48-1.36c-.78.85-1.56,1.73-2.3,2.61l1.54,1.3C46.61,37.34,47.37,36.48,48.13,35.65Z"/><path class="cls-2" d="M89,12.92l-.37-2c-1.14.22-2.29.46-3.41.72l.46,2C86.75,13.36,87.87,13.12,89,12.92Z"/><path class="cls-2" d="M44.57,150.29c.75.88,1.53,1.75,2.32,2.6l1.47-1.36c-.77-.83-1.53-1.69-2.26-2.54Z"/><path class="cls-2" d="M35.19,131.84l-1.82.84c.48,1,1,2.11,1.52,3.14l1.79-.92C36.16,133.9,35.66,132.87,35.19,131.84Z"/><path class="cls-2" d="M36.56,138.88c.57,1,1.18,2,1.8,3l1.7-1.08c-.61-.95-1.2-1.93-1.76-2.91Z"/><path class="cls-2" d="M32.66,125.54l-1.89.66c.38,1.1.79,2.2,1.22,3.27l1.86-.75C33.43,127.68,33,126.61,32.66,125.54Z"/><path class="cls-2" d="M40.3,144.77c.67.95,1.37,1.89,2.07,2.81L44,146.35c-.69-.89-1.36-1.81-2-2.74Z"/><path class="cls-2" d="M20.24,124.85a86,86,0,0,0,82.59,62.08h1.32a86,86,0,0,0,82.59-62.08H206.9l-6.52-31.06,6.51-31.71H186.74A86,86,0,0,0,104.15,0h-1.32A86,86,0,0,0,20.24,62.08H0l7.54,30.6L0,124.85ZM11.08,92.66l-5-20.15H201.23L196.86,93.8,201,113.48H6.22ZM102.83,3.44h1.32a82.59,82.59,0,0,1,79,58.64h-6.49c-.32-1-.66-2-1-2.94l-1.88.7c.27.74.52,1.49.78,2.24H23.82a82.62,82.62,0,0,1,79-58.64Zm-80,62.08h179.8l-1,5H5.62l-1.23-5H22.87Zm81.28,118h-1.32a82.63,82.63,0,0,1-79-58.63H183.15a82.6,82.6,0,0,1-79,58.63Zm80-62.08H4.37l1.38-5.91H201.42l1.24,5.91H184.11Z"/><path class="cls-2" d="M91.07,54c8.88-.95,10.63-3.4,12.42-5.27,1.79,1.87,3.54,4.32,12.42,5.27,21,2.26,15.64-22.72,15.64-22.72-.18,4.28-8.19,8-15.64.93a10.14,10.14,0,0,0-12.42-1.79,10.14,10.14,0,0,0-12.42,1.79c-7.45,7.08-15.46,3.35-15.64-.93C75.43,31.29,70.05,56.27,91.07,54Z"/><path class="cls-2" d="M141.74,164.86l1,1.73c1-.58,2-1.2,3-1.83l-1.09-1.68C143.68,163.69,142.71,164.29,141.74,164.86Z"/><path class="cls-2" d="M72.35,170.68c1.06.47,2.15.91,3.23,1.32l.72-1.87c-1.06-.4-2.11-.84-3.15-1.29Z"/><path class="cls-2" d="M92.45,176.31c1.15.15,2.31.29,3.46.39l.18-2c-1.12-.1-2.25-.23-3.37-.38Z"/><path class="cls-2" d="M66.09,167.6c1,.56,2.06,1.1,3.09,1.61l.89-1.8c-1-.5-2-1-3-1.57Z"/><path class="cls-2" d="M85.58,175.05c1.13.26,2.28.5,3.42.71l.36-2c-1.11-.2-2.23-.43-3.32-.68Z"/><path class="cls-2" d="M78.87,173.17c1.1.37,2.22.71,3.33,1l.54-1.93c-1.08-.31-2.17-.64-3.24-1Z"/><path class="cls-2" d="M104.21,175h-1.33c-1.12,0-2.27,0-3.4-.07l-.09,2c1.16.06,2.34.08,3.49.08h1.36l2,0-.06-2Z"/><path class="cls-2" d="M109.58,174.81l.14,2c1.16-.09,2.32-.19,3.47-.33l-.23-2C111.84,174.63,110.7,174.73,109.58,174.81Z"/><path class="cls-2" d="M135.73,168l.85,1.82c1-.49,2.1-1,3.13-1.56l-.94-1.78C137.77,167,136.75,167.55,135.73,168Z"/><path class="cls-2" d="M129.45,170.62l.69,1.89c1.08-.39,2.18-.81,3.25-1.26l-.77-1.85C131.58,169.83,130.51,170.24,129.45,170.62Z"/><path class="cls-2" d="M115.07,174l.2,2c.73-.19,1.47-.4,2.19-.64l-.27-2C116.49,173.64,115.78,173.85,115.07,174Z"/><path class="cls-2" d="M123,172.63l.5,1.94c1.12-.29,2.25-.61,3.36-.95l-.6-1.92C125.16,172,124.06,172.34,123,172.63Z"/></g></g></svg>